<svg xmlns="http://www.w3.org/2000/svg" xmlns:xlink="http://www.w3.org/1999/xlink" viewBox="0 0 1920 1080"><defs><style>.cls-1,.cls-13,.cls-18,.cls-19,.cls-23,.cls-25,.cls-26{fill:none;}.cls-2{fill:#cba6ff;}.cls-3{clip-path:url(#clip-path);}.cls-4{fill:#110b1d;}.cls-5,.cls-8{fill:#6122b2;}.cls-6,.cls-7{fill:#666;}.cls-6{fill-rule:evenodd;}.cls-8{font-size:80px;font-family:Monosten-Regular, Monosten;}.cls-9{fill:#250d45;}.cls-10{fill:#e6d4ff;}.cls-11{fill:#d4bcf5;}.cls-12{fill:#f6f0ff;}.cls-13,.cls-18,.cls-19,.cls-26{stroke:#260d46;}.cls-13,.cls-18,.cls-19,.cls-23,.cls-25,.cls-26{stroke-linecap:round;stroke-linejoin:round;}.cls-13{stroke-width:17px;}.cls-14{fill:#e8d7ff;}.cls-15{fill:#260d46;}.cls-16{fill:#6b1fbf;}.cls-17{fill:#973bfc;}.cls-18,.cls-23,.cls-25{stroke-width:2px;}.cls-19{stroke-width:7px;}.cls-20{fill:#fff;}.cls-21{fill:#ff845e;}.cls-22{clip-path:url(#clip-path-3);}.cls-23{stroke:#e8643c;}.cls-24{clip-path:url(#clip-path-4);}.cls-25{stroke:#6b1fbf;}.cls-26{stroke-width:5px;}.cls-27{clip-path:url(#clip-path-5);}</style><clipPath id="clip-path"><rect class="cls-1" x="77.5" y="65.8" width="353.3" height="91.34"/></clipPath><clipPath id="clip-path-3"><path class="cls-1" d="M1611.2,610.8c-20.5,10.5-47.1,7.2-64.5-8.2-23.6-20.7-29.2-58.3-55.1-76.1a51.3,51.3,0,0,0-54.4-1.6c-6,3.6-25.6,16.9-32.6,17.7-34.1,3.9-65.5-98.5-156.8-87.6,4,15.5,5.8,55.5,8.2,71.3,27.2-19.1,67.6-15.1,81.5-11.1s22,12.9,30,23.6c9.2,12.2,14.4,27.7,31,31.2,13.3,2.8,28.6-3.4,34.7-15.9,2.1-4.5,3.4-9.7,7.1-13s10.8-3.8,15.9-1.4,9,7.1,12.1,12c13.5,21.3,14.5,47.8,25.2,70.4,5.5,11.6,30.1,67,116.7,53C1610.2,675.1,1618.7,643.1,1611.2,610.8Z"/></clipPath><clipPath id="clip-path-4"><path class="cls-1" d="M1273,419.9c-22.2-8.4-46.7-10-70-5.8-25.8,4.7-59.2,16.2-74,39.3-2.8-4.7-3.6-12.2-3.2-17.6,2.6-34.4,35.3-49,46.5-52.8C1196.6,374.5,1258.9,368.6,1273,419.9Z"/></clipPath><clipPath id="clip-path-5"><path class="cls-1" d="M1135.7,494.1c-16.2,22.9-9.1,46.3,1.7,66.3,6.5,12.1,16.2,22.1,24.5,33.1,18.5,24.6,23.7,41,15.1,78.2,20.1-2.4,52.9,5.7,65.3,23.7.5-46.8-21-93.5-57-123.5-10.3-8.6-21.8-15.9-30.4-26.2-5.6-6.5-10.1-14.8-11.1-23.5-.4-3.7,2.4-12.1,2.4-12.1C1143.5,507.4,1138.9,500.8,1135.7,494.1Z"/></clipPath></defs><g id="January"><rect class="cls-2" width="1920" height="1080"/><g class="cls-3"><g class="cls-3"><path class="cls-4" d="M201.1,89.8a2.2,2.2,0,0,1,4.4-.4.3.3,0,0,1,0,.4v.5a5.3,5.3,0,0,1,1.6-2.3,5.1,5.1,0,0,1,3.1-1.1c3,0,4.9,1.2,5.5,3.5a5,5,0,0,1,1.9-2.4,6,6,0,0,1,3.4-1.1c4.1,0,6.1,2.6,6.1,6.6v15.9a2.2,2.2,0,0,1-2,2.4,2.1,2.1,0,0,1-2.3-2c-.1-.2-.1-.3,0-.4V94.8c0-2.8-.9-4-2.8-4s-3.7,2.2-3.7,6.6v12a2.2,2.2,0,0,1-2,2.4,2.1,2.1,0,0,1-2.3-2c-.1-.2-.1-.3,0-.4V94.8c0-2.8-.8-4-2.8-4s-3.7,2.4-3.7,7.2v11.4a2.1,2.1,0,0,1-1.9,2.4,2.3,2.3,0,0,1-2.5-2v-20Z"/><path class="cls-4" d="M254.4,104.6a2.5,2.5,0,0,0-1.8.8c-1.7,2-4.1,3-7.3,3a7.1,7.1,0,0,1-5.1-2.1,9.1,9.1,0,0,1-2.4-4.9h16.8a2.3,2.3,0,0,0,2.5-2.1v-.4a11.7,11.7,0,0,0-3.3-8.5,10.9,10.9,0,0,0-8.5-3.4,11.5,11.5,0,0,0-8.8,3.6,14.2,14.2,0,0,0,0,18,11.5,11.5,0,0,0,8.8,3.6c4.3,0,7.8-1.2,10.4-3.7a2.3,2.3,0,0,0,.2-3.2h0a1.9,1.9,0,0,0-1.5-.8ZM240.3,92.8a7.4,7.4,0,0,1,5-2,6.3,6.3,0,0,1,4.7,1.9,9.7,9.7,0,0,1,2.5,4.8H237.8a8.3,8.3,0,0,1,2.5-4.7"/><path class="cls-4" d="M270.6,77.2a2.2,2.2,0,0,1,2.2,2.4v7.8h8.8c1.5,0,2.3.7,2.3,2s-.8,1.9-2.3,1.9h-8.8V104c0,3,1.6,4.3,3.8,4.3a5.6,5.6,0,0,0,3.3-.8l1.4-1a2.1,2.1,0,0,1,1.3-.5,2,2,0,0,1,2,2h0a2.9,2.9,0,0,1-1.4,2.1,11.2,11.2,0,0,1-6.9,2,8.5,8.5,0,0,1-5.7-1.9c-1.4-1.2-2.2-3.2-2.2-5.9V91.3h-6.3c-1.5,0-2.3-.6-2.3-1.9s.8-1.9,2.3-1.9h6.3V79.6a2.2,2.2,0,0,1,2.1-2.4Z"/><path class="cls-4" d="M310.3,87.4c-1.2,0-2.1,1-2.2,2.6a6.8,6.8,0,0,0-3-2.3,9.9,9.9,0,0,0-3.8-.7,10.2,10.2,0,0,0-8.4,3.7,14.7,14.7,0,0,0,0,17.8,10.1,10.1,0,0,0,8.4,3.7,10.7,10.7,0,0,0,3.9-.7,7.3,7.3,0,0,0,2.9-2.3c.1,1.6,1,2.6,2.2,2.6a2.4,2.4,0,0,0,2.4-2.2V89.9a2.3,2.3,0,0,0-2.1-2.5h-.3m-4,18.5a6.5,6.5,0,0,1-9.2,1l-.9-1a10.9,10.9,0,0,1,0-12.6,6.5,6.5,0,0,1,9.1-1.1,5.2,5.2,0,0,1,1,1.1,9.4,9.4,0,0,1,1.9,6.3,9.4,9.4,0,0,1-1.9,6.3"/><path class="cls-5" d="M328.9,107.9V81.6h-5.5c-1.3,0-2.4-.7-2.4-1.9s1.1-1.9,2.4-1.9H331a2,2,0,0,1,2.2,1.9v28.2h7.1c1.3,0,2.4.7,2.4,1.9s-1.1,2-2.4,2H321.8c-1.4,0-2.4-.8-2.4-2s1-1.9,2.4-1.9h7.1Z"/><path class="cls-5" d="M365.5,87.4c-1.2,0-2.1,1-2.2,2.6a6.5,6.5,0,0,0-2.9-2.3,10.7,10.7,0,0,0-3.9-.7,10,10,0,0,0-8.3,3.7,14.5,14.5,0,0,0-.1,17.8,11.3,11.3,0,0,0,12.3,3,7.6,7.6,0,0,0,3-2.3c.1,1.6.9,2.6,2.2,2.6a2.3,2.3,0,0,0,2.3-2.2V89.9a2.3,2.3,0,0,0-2-2.5h-.4m-4,18.5a6.4,6.4,0,0,1-9.1,1l-1-1a9.4,9.4,0,0,1-1.9-6.3,9.4,9.4,0,0,1,1.9-6.3,6.5,6.5,0,0,1,9.1-1.1,5.2,5.2,0,0,1,1,1.1,10.9,10.9,0,0,1,0,12.6"/><path class="cls-5" d="M375.5,89.8a2.2,2.2,0,0,1,4.4-.4v.9a4.1,4.1,0,0,1,1.6-2.3,4.6,4.6,0,0,1,3-1.1c3.1,0,4.9,1.2,5.6,3.5a4.8,4.8,0,0,1,1.8-2.4,6,6,0,0,1,3.4-1.1c4.1,0,6.2,2.6,6.2,6.6v15.9a2.3,2.3,0,0,1-2,2.4,2.2,2.2,0,0,1-2.4-2v-15c0-2.8-.9-4-2.8-4s-3.6,2.2-3.6,6.6v12a2.3,2.3,0,0,1-2,2.4,2.2,2.2,0,0,1-2.4-2v-15c0-2.8-.8-4-2.8-4s-3.6,2.4-3.6,7.2v11.4a2.2,2.2,0,1,1-4.4.4v-20Z"/><path class="cls-5" d="M428.4,87.4c-1.2,0-2.1,1-2.2,2.6a6.8,6.8,0,0,0-3-2.3,9.9,9.9,0,0,0-3.8-.7,10,10,0,0,0-8.3,3.7,13.3,13.3,0,0,0-3.1,8.9,13.7,13.7,0,0,0,3,8.9,10.1,10.1,0,0,0,8.4,3.7,9.9,9.9,0,0,0,3.8-.7,6.9,6.9,0,0,0,3-2.3c.1,1.6,1,2.6,2.2,2.6a2.2,2.2,0,0,0,2.3-2.2V89.9a2.3,2.3,0,0,0-2-2.5h-.3m-4,18.5a6.5,6.5,0,0,1-9.2,1,4.3,4.3,0,0,1-.9-1,10.9,10.9,0,0,1,0-12.6,6.5,6.5,0,0,1,9.1-1.1l1,1.1a9.4,9.4,0,0,1,1.9,6.3,9.4,9.4,0,0,1-1.9,6.3"/><path class="cls-6" d="M427.8,148a6.8,6.8,0,0,1-5.6,2.3,8.6,8.6,0,0,1-2.7-.5,3.4,3.4,0,0,1-1.8-1.5v6.4a1.4,1.4,0,0,1-1.4,1.5,1.4,1.4,0,0,1-1.5-1.5V135.9a1.4,1.4,0,0,1,1.5-1.5,1.5,1.5,0,0,1,1.4,1.5,3.5,3.5,0,0,1,1.9-1.4,7.7,7.7,0,0,1,2.7-.4,7.2,7.2,0,0,1,5.5,2.1,9.4,9.4,0,0,1,1.9,6,9,9,0,0,1-1.9,5.8m-2.1-9.9a4.1,4.1,0,0,0-3.4-1.6,3.9,3.9,0,0,0-3.4,1.6,6.5,6.5,0,0,0-1.2,4.1,6.3,6.3,0,0,0,1.2,4.1,4.6,4.6,0,0,0,6.8,0,6.3,6.3,0,0,0,1.2-4.1,6.5,6.5,0,0,0-1.2-4.1m-14.8,1.2a1.3,1.3,0,0,1-1.2-.9,3.1,3.1,0,0,0-2.9-1.8,4,4,0,0,0-3.6,1.8,7.8,7.8,0,0,0-1.2,4.4v5.6a1.4,1.4,0,0,1-1.4,1.6,1.4,1.4,0,0,1-1.5-1.6V136a1.5,1.5,0,0,1,1.5-1.6A1.5,1.5,0,0,1,402,136v.7a4.7,4.7,0,0,1,1.9-1.8,6,6,0,0,1,2.9-.8c2.7,0,4.5,1,5.6,2.9a2.2,2.2,0,0,1,.1.8,1.6,1.6,0,0,1-1.6,1.5m-17.8,10.6a1.4,1.4,0,0,1-1.4-1.6,4.8,4.8,0,0,1-2,1.4,6.6,6.6,0,0,1-2.7.6,6.8,6.8,0,0,1-5.5-2.4,8.1,8.1,0,0,1-2-5.7,8.8,8.8,0,0,1,2-5.7,7.1,7.1,0,0,1,5.6-2.4,8,8,0,0,1,2.6.5,4.8,4.8,0,0,1,2,1.4,1.4,1.4,0,0,1,1.4-1.6,1.4,1.4,0,0,1,1.5,1.5v12.5a1.4,1.4,0,0,1-1.5,1.5m-2.7-11.8a4.1,4.1,0,0,0-3.4-1.6,4.4,4.4,0,0,0-3.4,1.6,7.6,7.6,0,0,0,0,8.2,4.3,4.3,0,0,0,3.4,1.5,4.1,4.1,0,0,0,3.4-1.5,7.1,7.1,0,0,0,0-8.2M375.7,150a1.4,1.4,0,0,1-1.5-1.5v-7.8a5.4,5.4,0,0,0-.7-3.2,3.1,3.1,0,0,0-2.5-1,3.9,3.9,0,0,0-3.3,1.7,7.4,7.4,0,0,0-1.2,4.4v5.8A1.5,1.5,0,0,1,365,150a1.3,1.3,0,0,1-1.4-1.5V129.7a1.4,1.4,0,0,1,1.4-1.6,1.5,1.5,0,0,1,1.4,1.6v6.8a3.5,3.5,0,0,1,1.7-1.7,7.3,7.3,0,0,1,2.9-.7c4.1,0,6.1,2,6.1,6v8.4a1.4,1.4,0,0,1-1.4,1.5Zm-21.6-8.9,1.8.3,1.7.4a3.5,3.5,0,0,1,2.8,3.6,4.4,4.4,0,0,1-2,3.7,8.2,8.2,0,0,1-5,1.3c-3-.1-5.1-1-6.6-2.8a1.4,1.4,0,0,1,1-2.4,1.6,1.6,0,0,1,1.3.7,5.2,5.2,0,0,0,4.3,2c2.7,0,4-.8,4-2.5s-.3-1.1-1.3-1.4l-1.2-.3-1.7-.2-2.3-.4-1.9-.7a3.5,3.5,0,0,1-2-3.4,4.3,4.3,0,0,1,1.8-3.6,8.4,8.4,0,0,1,4.5-1.2c2.7,0,4.7.9,5.9,2.6a1.2,1.2,0,0,1,.3.9,1.4,1.4,0,0,1-1.5,1.4,1.3,1.3,0,0,1-1.2-.7,3.7,3.7,0,0,0-3.5-1.7c-2.1,0-3.4.8-3.4,2.2S351.4,140.7,354.1,141.1Z"/><path class="cls-6" d="M289.4,148a6.7,6.7,0,0,1-5.5,2.3,7.6,7.6,0,0,1-2.7-.5,4.1,4.1,0,0,1-1.9-1.4v6.3a1.3,1.3,0,0,1-1.4,1.5,1.4,1.4,0,0,1-1.4-1.5V135.9a1.4,1.4,0,1,1,2.8,0,4.5,4.5,0,0,1,1.9-1.4,8.4,8.4,0,0,1,2.7-.4,6.8,6.8,0,0,1,5.5,2.2,8,8,0,0,1,2,5.9,8.5,8.5,0,0,1-2,5.8m-2-9.9a4.2,4.2,0,0,0-3.4-1.5,4.1,4.1,0,0,0-3.4,1.5,6.6,6.6,0,0,0-1.2,4.2,6.5,6.5,0,0,0,1.2,4.1,4.1,4.1,0,0,0,3.4,1.5,4.2,4.2,0,0,0,3.4-1.5,6.4,6.4,0,0,0,1.1-4.1,7.2,7.2,0,0,0-1.1-4.2"/><path class="cls-6" d="M307.3,148.1a7.4,7.4,0,0,1-5.6,2.3,7.5,7.5,0,0,1-5.6-2.3,8.3,8.3,0,0,1-2.1-5.8,8.5,8.5,0,0,1,2.1-5.9,7.2,7.2,0,0,1,5.6-2.3,7,7,0,0,1,5.6,2.3,8.6,8.6,0,0,1,2.2,5.9,8.3,8.3,0,0,1-2.2,5.8m-2.1-10a4.3,4.3,0,0,0-3.5-1.5,4.5,4.5,0,0,0-3.5,1.5,6,6,0,0,0-1.3,4.2,5.9,5.9,0,0,0,1.3,4.1,4.5,4.5,0,0,0,3.5,1.5,4.4,4.4,0,0,0,3.5-1.5,6,6,0,0,0,1.4-4.1,6.1,6.1,0,0,0-1.4-4.2"/><path class="cls-6" d="M312.3,147.7a1.8,1.8,0,0,1-.5-1.1,1.5,1.5,0,0,1,1.5-1.4,1.6,1.6,0,0,1,1.3.7,5.2,5.2,0,0,0,4.3,2c2.7,0,4-.8,4-2.4s-.3-1.1-1.3-1.4l-1.2-.3-1.7-.3-2.3-.4-1.9-.7a3.4,3.4,0,0,1-2-3.3,4,4,0,0,1,1.8-3.6,7.7,7.7,0,0,1,4.5-1.3c2.7,0,4.7.9,5.9,2.6a1.4,1.4,0,0,1-1.2,2.3,1.4,1.4,0,0,1-1.2-.6,3.8,3.8,0,0,0-3.5-1.8c-2.1,0-3.4.8-3.4,2.2s1.5,1.8,4.2,2.2l1.9.3,1.6.4a5.3,5.3,0,0,1,1.5.7,3.8,3.8,0,0,1,1.3,2.9,4.2,4.2,0,0,1-1.9,3.7,8.7,8.7,0,0,1-5,1.4c-3-.2-5.2-1.1-6.7-2.8Z"/><path class="cls-6" d="M332.8,129.4a1.4,1.4,0,1,1,2.8,0v5h5.9c1,0,1.5.4,1.5,1.3s-.5,1.3-1.5,1.3h-5.9v8.1c0,1.9,1.1,2.8,2.5,2.8a4,4,0,0,0,2.3-.6l.9-.6.9-.3a1.3,1.3,0,0,1,1.3,1.3,1.7,1.7,0,0,1-.9,1.4,8.6,8.6,0,0,1-4.6,1.3,5.6,5.6,0,0,1-3.8-1.2,4.6,4.6,0,0,1-1.5-3.8v-8.5h-4.2c-1,0-1.5-.4-1.5-1.3s.5-1.2,1.5-1.2h4.2v-5Z"/><path class="cls-7" d="M237.2,150.8a6.8,6.8,0,0,0,5.3-2.1c1.3-1.4,1.9-3.4,1.9-6a8.6,8.6,0,0,0-1.9-5.8,6.5,6.5,0,0,0-5.3-2.3,7.5,7.5,0,0,0-2.6.5,3.5,3.5,0,0,0-1.8,1.5v-6.4a1.5,1.5,0,0,0-1.4-1.6,1.4,1.4,0,0,0-1.4,1.6V149a1.4,1.4,0,0,0,1.4,1.5,1.5,1.5,0,0,0,1.4-1.5,3.7,3.7,0,0,0,1.8,1.4,7.5,7.5,0,0,0,2.6.4m4.4-8.1a7.1,7.1,0,0,1-1.1,4.1,4.4,4.4,0,0,1-6.6,0,8.2,8.2,0,0,1,0-8.2,4.4,4.4,0,0,1,6.6,0,7.1,7.1,0,0,1,1.1,4.1"/><path class="cls-7" d="M250.2,157.1a4.9,4.9,0,0,0,3.9-1.7,21.5,21.5,0,0,0,3.2-5.3l6-13.1a1.8,1.8,0,0,0,.1-.6,1.5,1.5,0,0,0-.9-1.4h-.6a1.5,1.5,0,0,0-1.4.9l-4.6,10.5-4.6-10.5a1.4,1.4,0,0,0-1.4-.9h-.6a1.4,1.4,0,0,0-.7,2l5.7,13v.4a15,15,0,0,1-1.8,3.3,2.9,2.9,0,0,1-2.2.9l-1.5-.3a1.2,1.2,0,0,0-1.2,1.2c0,1.1.9,1.6,2.7,1.6Z"/><path class="cls-5" d="M94.4,123h-16a1,1,0,0,0-1,1v14.1a1,1,0,0,0,1,1H88.7a1,1,0,0,0,.9-.6l5.6-14.2a.9.9,0,0,0-.8-1.3"/><path class="cls-5" d="M149.2,123h-35l9.9-56.1a1,1,0,0,0-1-1.1H109a.8.8,0,0,0-.9.7L104.5,87H84.7a.9.9,0,0,0-.9.9v14.2a.9.9,0,0,0,.9.9h16.9l-9.3,53a1,1,0,0,0,1,1.1h14.1a.9.9,0,0,0,.9-.8l3.1-17.2h20.1l-3,16.9a1,1,0,0,0,1,1.1h14.1a.9.9,0,0,0,.9-.8l5.7-32.2a1,1,0,0,0-.9-1.1"/><path class="cls-5" d="M167.8,123H157a1,1,0,0,0-.9.6l-5.6,14.2a.9.9,0,0,0,.9,1.3h16.4a1,1,0,0,0,1-1V124a.9.9,0,0,0-1-1"/><path class="cls-5" d="M174.2,87H156.7l3.5-20.1a.9.9,0,0,0-.9-1.1H145.2a1,1,0,0,0-1,.7L140.7,87H127.1a1,1,0,0,0-.9.6l-5.6,14.1a1,1,0,0,0,.9,1.3h16.3l-2.3,13.2a.9.9,0,0,0,.7,1.1l13.6,3.1a.9.9,0,0,0,1.2-.7l2.9-16.7h20.3a.9.9,0,0,0,.9-.9V87.9a.9.9,0,0,0-.9-.9"/></g></g><text class="cls-8" transform="translate(77.5 512.7)">Status Update<tspan class="cls-9"><tspan x="0" y="95.2">January 2024</tspan></tspan></text><path class="cls-10" d="M914.4,834.1c-39.1-29.5-70.8-63.4-78.6-114.1a140.7,140.7,0,0,1,27.9-106.8c14.3-18.1,33.1-32.8,44.8-52.7,24.8-42.2-15-87.7-25.1-129s-9.4-84.1,6.5-123c24.3-59.3,89.3-103.1,152.4-91.5,51.3,9.4,97.3,51.7,148.5,41.8,36-7,68.9-42.2,94.2-67.2,33.4-33.1,69.1-61.3,115.8-72.7,52.2-12.8,107.9-3.4,155.2,22.2,55.9,30.2,77.3,86.8,77,147.9-.3,49.3-14.5,116.1,21.3,156.7,16.1,18.3,39.6,27.9,60.3,40.7,56.4,35,93.7,98.9,96.4,165.2,1.4,34.3-6.5,68.8-21.8,99.4-17.2,34.5-44.5,52.2-68.4,79.8"/><polyline class="cls-11" points="901.9 826 967.8 477.2 1033.7 826"/><polyline class="cls-11" points="1027.2 826 1093.1 358.1 1159 826"/><polyline class="cls-11" points="1253.5 826 1319.4 452.5 1385.4 826"/><polyline class="cls-11" points="1337.5 826 1403.4 289.7 1469.3 826"/><polyline class="cls-11" points="1481.7 826 1559.1 443 1636.6 826"/><polyline class="cls-11" points="1622.2 826 1678.1 584.6 1734.1 826"/><path class="cls-12" d="M1108.2,911.9c-3.3-2.1-6.6-4.2-10.1-6-16-8-38.4-4.5-56-5.7a426.6,426.6,0,0,1-63.7-9c-6.3-1.5-12.9-3.3-17.4-7.3s-5.8-10.7-1.2-14.6,10.6-3.8,13.1-7.8c8.5-13.8-54.8-16.9-64-18.1s-39.6-4.5-43-16.2c-4.2-14.1,17.8-18.5,27.4-18.9,79-3.7,160.4-7.7,239.2-3.9,13.1.6,27.9.7,37.3-6.8,3.3-2.7,5.6-6.1,9.1-8.6,6.7-4.6,16.3-4.9,25-4.9q130.9.1,261.8,5.8c5.3.2,10.7.5,15.5,2.3s7.3,4.1,10.9,6.2c23.9,13.5,68.1,8.8,95.8,9.8q52.3,1.9,104.8,2.8c26.2.5,61,.1,84,11.2,42,20.2,11,45.8-37.8,47.2-23.3.7-91.1-6.8-105.3,17.6-1.9,3.2-2.6,7.1-4.7,10.3-3.5,5.6-10.1,8.2-16.4,10.3-72.3,24.1-149.4,22.4-224.5,21.5s-148,2-222.4-1.1c-14.3-.5-28.9-1.4-42-7.2C1118.2,918.3,1113.2,915,1108.2,911.9Z"/><ellipse class="cls-10" cx="1481.7" cy="856.8" rx="124.4" ry="11.8"/><ellipse class="cls-10" cx="1208" cy="845" rx="101.6" ry="13.9"/><path class="cls-13" d="M1457.7,570.5c-54.3,25.6-105.2-12.7-103.1-42.3"/><polyline class="cls-13" points="1504.1 707.4 1505 780.7 1528 841.3"/><circle class="cls-14" cx="1504.9" cy="780.2" r="12.9"/><circle class="cls-15" cx="1504.9" cy="780.2" r="6.7"/><path class="cls-15" d="M1510.3,830.4h35.4a0,0,0,0,1,0,0v4a17.7,17.7,0,0,1-17.7,17.7h0a17.7,17.7,0,0,1-17.7-17.7v-4A0,0,0,0,1,1510.3,830.4Z" transform="translate(3272.3 829.7) rotate(150.8)"/><line class="cls-13" x1="1459.6" y1="707.4" x2="1459.6" y2="842"/><path class="cls-15" d="M1441.9,831.1h35.4a0,0,0,0,1,0,0v4a17.7,17.7,0,0,1-17.7,17.7h0a17.7,17.7,0,0,1-17.7-17.7v-4a0,0,0,0,1,0,0Z" transform="translate(2919.3 1684) rotate(180)"/><circle class="cls-14" cx="1459.5" cy="780.2" r="12.9"/><circle class="cls-15" cx="1459.5" cy="780.2" r="6.7"/><path class="cls-16" d="M1427.3,667.8h64.5l-11.7,63.7a13,13,0,0,1-12.8,10.7h-17a13.1,13.1,0,0,1-12.9-11Z"/><path class="cls-17" d="M1471.2,668.2l64.5-.8-10.9,64.1a12.7,12.7,0,0,1-12.4,10.6l-17.5.2a12.6,12.6,0,0,1-12.7-10.6Z"/><circle class="cls-14" cx="1447.9" cy="494.3" r="12.9"/><circle class="cls-15" cx="1447.9" cy="494.3" r="6.7"/><path class="cls-17" d="M1420.3,693.2c15.3,22.7,38.2,30.3,61.4,30.6a133.8,133.8,0,0,0,25.3-2.3c38.9-7,61.2-42.1,61.9-81.8.6-43.6-14-87.3-25.9-129.6l-4.5-16.6c-5.2-20.3-10.4-40.6-13.5-61.3-3.6-23.9-3.9-48.8-4-73.4-.1-8.3-.1-16.5-.2-24.6-.1-1.3-.1-2.7-.2-4.1h0a89.6,89.6,0,0,0-1.7-14.5c-2.8-14.2-9.8-27.1-26-30.6-14-3-25,3.6-31.2,16-5.4,10.7-6.3,14.5-6.3,21.4h0c0,3,.1,6.7.2,11.8.3,39.7-7.1,91.9-16.5,130.2-11.9,48.9-29.2,94.9-34.2,145.1C1402.4,634.2,1400.8,664.2,1420.3,693.2Z"/><path class="cls-16" d="M1481.7,723.8a133.8,133.8,0,0,0,25.3-2.3c38.9-7,61.2-42.1,61.9-81.8.6-43.6-14-87.3-25.9-129.6l-4.5-16.6c-5.2-20.3-10.4-40.6-13.5-61.3-3.6-23.9-3.9-48.8-4-73.4-12.4,74.6,10.1,168,14.6,185.4,9.7,37.8,25.1,83.4,12.6,120.4C1538.8,692.1,1525.3,714.5,1481.7,723.8Z"/><path class="cls-17" d="M1443.8,281.7l1.4-2.1,4.6-7.4a3.4,3.4,0,0,1-2.8-3.1,9.2,9.2,0,0,1,.9-4.3c2.6-6.2,5.9-12.2,7.8-18.6s3.8-12.2,7.4-17.1a20.6,20.6,0,0,1,8-6.3c4-1.8,8-1.7,12.2-1.9,7.8-.6,16.7,1.8,21.4,8.2s6.3,13.1,9.3,19.8,7.4,14.4,11.5,21.4a15,15,0,0,1,1.8,4.1,4.3,4.3,0,0,1-1.3,4.1,2.7,2.7,0,0,1-3.9-.8,47,47,0,0,1,6.5,19.5c.2,2.5.3,5.9-2.6,6.7a6.2,6.2,0,0,1-4.2-.7,11.1,11.1,0,0,1-.1,4.8c-.6,1.4-2.1,2.7-3.6,2.4a10.9,10.9,0,0,1-1.3,6,11.7,11.7,0,0,1-4.8,4.3,64.1,64.1,0,0,1-13.6,4.6c-2.5.4-4.9.8-7.4,1s-4.8.9-7.1.7c-13.2-1.1-28.3-2.3-36.9-13.4a18.9,18.9,0,0,1-3.2-7.9c-.2-1.2-.8-8.3.8-8.8a3.5,3.5,0,0,1-4-1.9,7.5,7.5,0,0,1-.4-4.7A27.1,27.1,0,0,1,1443.8,281.7Z"/><path class="cls-17" d="M1491.2,212.8l-.3-.2a5.2,5.2,0,0,0-2.9-1.1c-1.8,0-3.2,2-3.3,3.8a12.1,12.1,0,0,0,1.6,5.2l-5.9-7a28.9,28.9,0,0,0-5.9-5.7c-1.9-1.2-4.6-2.4-7-2s-3.3,4-2.7,6.4a18.2,18.2,0,0,0,2,4.5l3.3,6a17.7,17.7,0,0,0-3.3-3.4,4.5,4.5,0,0,0-4.5-.4c-3.4,1.7-2.4,6.8-1.4,9.6,3.4,9.2,13.7,15.2,23.3,13.6,2.7-.4,5.2-1.4,7.9-1.4,6.3-.1,11.1,5.1,12,11,4.6-3.3,5.6-11.2,3.9-16.3a45.5,45.5,0,0,0-7.3-12.6C1497.8,219.1,1495,215.5,1491.2,212.8Z"/><path class="cls-17" d="M1437.8,234.3c-2.9-11-.5-23,5.1-33.4,1.5-2.7,3.9-5.7,7.1-5.3,5.8.6,6.1,8.8,6.4,12.6a81.2,81.2,0,0,0,3.2,19c2.2,7.9,6.8,14.8,9,22.5a5.1,5.1,0,0,1,.3,2.1c-.4,1.9-2.6,3-4.6,3.4a16.8,16.8,0,0,1-9.4-1.2C1445.6,250.3,1440.1,243.2,1437.8,234.3Z"/><path class="cls-15" d="M1456.1,242.6a3.6,3.6,0,0,1-2.7.7,6.4,6.4,0,0,1-2.6-1,16.8,16.8,0,0,1-7.3-9.6,34.3,34.3,0,0,1-.9-11.5c.3-3.4.9-8.1,3.4-10.6a2.8,2.8,0,0,1,3.6-.6c1.1.8,1.1,2.2,1.2,3.5s.5,3.4.8,5.1a72.9,72.9,0,0,0,2.3,10.3c.7,2.7,2.2,5.3,2.9,8S1457.5,241.3,1456.1,242.6Z"/><path class="cls-17" d="M1531,231.9c.9-11.3-3.6-22.7-11-31.9-1.9-2.4-4.8-4.9-7.9-4-5.6,1.6-4.4,9.8-4,13.6a82.2,82.2,0,0,1,.2,19.2c-.8,8.1-4.1,15.8-5,23.8a5,5,0,0,0,.2,2.1c.6,1.7,3,2.5,5.1,2.5a18,18,0,0,0,9-2.8C1526.1,249,1530.2,241.2,1531,231.9Z"/><path class="cls-15" d="M1514.4,243.3a3.4,3.4,0,0,0,2.8.3,7.2,7.2,0,0,0,2.4-1.4,17.4,17.4,0,0,0,5.5-10.8,31.8,31.8,0,0,0-1.2-11.5c-.9-3.2-2.2-7.8-5.1-9.8a3,3,0,0,0-3.7,0c-.9,1-.7,2.4-.6,3.6s.1,3.5.2,5.3a89.4,89.4,0,0,1-.5,10.4c-.3,2.9-1.3,5.6-1.5,8.4S1512.8,242.3,1514.4,243.3Z"/><circle class="cls-15" cx="1495.2" cy="260.5" r="4.1"/><circle class="cls-15" cx="1464.8" cy="260.5" r="4.1"/><path class="cls-14" d="M1457.3,289.6a69.5,69.5,0,0,1,2-6.9c2.7-8.4,8.1-23.3,18.8-23.2,6.5,0,11.9,5.6,14.7,12.1l2.1,4.9c2.8,6.3,9.9,24.8-1.9,26.4a4.7,4.7,0,0,0-1.6.4,3.2,3.2,0,0,0-1,1,16.2,16.2,0,0,1-12.5,6.2c-4.5,0-9.3-2.7-12.1-6.2a2.2,2.2,0,0,0-.9-1,4.7,4.7,0,0,0-1.7-.4,7.5,7.5,0,0,1-5.9-5.3A15.5,15.5,0,0,1,1457.3,289.6Z"/><path class="cls-15" d="M1477.5,284.6c-.4.3-.7-.5-.7-.8a7.4,7.4,0,0,1,1.1-4.4,10.9,10.9,0,0,1,6.5-5.4c1.4-.3,3.6-.9,4.9-.1s0,3.7-1.4,4.5a10.6,10.6,0,0,1-4.3,1.2,7.4,7.4,0,0,0-2.5.5c-1.7.9-2.3,3-3.5,4.4S1477.5,284.5,1477.5,284.6Z"/><path class="cls-15" d="M1476.8,284.6c.4.3.7-.5.7-.8a7.4,7.4,0,0,0-1.1-4.4,10.9,10.9,0,0,0-6.5-5.4c-1.4-.3-3.6-.9-4.9-.1s.1,3.7,1.4,4.5a10.6,10.6,0,0,0,4.3,1.2,7,7,0,0,1,2.5.5c1.7.9,2.3,3,3.6,4.4Z"/><path class="cls-18" d="M1477.5,282.7c-.4,7-.2,4.6-.3,11.7"/><path class="cls-18" d="M1477.2,293.2c0,1.1,0,2.5-.8,3.2a4.6,4.6,0,0,1-3.2.7,10,10,0,0,1-6.6-3.3"/><path class="cls-18" d="M1477.2,293.2c0,1.1,0,2.5.9,3.2a4.2,4.2,0,0,0,3.1.7,9.8,9.8,0,0,0,6.6-3.3"/><path class="cls-15" d="M1468.9,295.5a9.5,9.5,0,0,0,5.4,4,9.1,9.1,0,0,0,6.7-.7c2.2-1,3.8-2.8,5.8-4a19.8,19.8,0,0,1-4.8,1.8,5.7,5.7,0,0,1-2.6.3,3,3,0,0,1-2.1-1.3,5.2,5.2,0,0,1-4.2,1.4A9.3,9.3,0,0,1,1468.9,295.5Z"/><path class="cls-18" d="M1492.6,321.7a30.8,30.8,0,0,1-31.5-1.1"/><path class="cls-13" d="M1526.6,496.1c29.9,85.7-61.6,109.2-86.9,55"/><circle class="cls-14" cx="1525" cy="492.5" r="12.9"/><circle class="cls-15" cx="1525" cy="492.5" r="6.7"/><polyline class="cls-19" points="1439.1 549.3 1422.8 540.9 1420.7 530.7"/><circle class="cls-14" cx="1439.7" cy="551.1" r="12.9"/><circle class="cls-15" cx="1439.7" cy="551.1" r="6.7"/><polyline class="cls-19" points="1354.5 526.3 1340.5 514.4 1340.8 504"/><circle class="cls-14" cx="1354.6" cy="528.2" r="12.9"/><circle class="cls-15" cx="1354.6" cy="528.2" r="6.7"/><path class="cls-20" d="M1515.8,332.2c-10.2,1.7-19.1,3.7-29.4,3-7.8-.5-15.3-2.7-22.7-4.7-3.8-1-10.1-3.4-13.7-.8-7.3,5-6.5,22.8-1.6,29s17.8,8,26.8,8.6a241.6,241.6,0,0,0,40.8-1c3-.3,6-.7,8.5-2.2,5.6-3.4,6.3-10.7,5.4-16.9a52.3,52.3,0,0,0-2.2-9.5,8.4,8.4,0,0,0-2-4C1523.3,331.4,1519.2,331.6,1515.8,332.2Z"/><path class="cls-20" d="M1506.2,357.4c-.4,14.1-.7,28.6,4.1,41.8a81,81,0,0,0,9.3,17.1,127,127,0,0,0,22.3,24.6c9.3,7.9,20,14.8,26.3,25.3,9,14.9,9.2,34.7,2.4,50.5,13.3,7.6,28.1,10.3,42.9,6.4,3.9-30.2-5.5-62.1-26.1-84.5-11.8-12.8-26.6-22.5-39.1-34.5s-23.2-27.7-23.1-45.1"/><path class="cls-2" d="M1608.5,674.9c5.5.9,9.4,6.1,14.5,8.4.6.3,1.4.6,1.9.1a1.1,1.1,0,0,0,.4-.9c.3-1.8-1.4-3.4-2.8-4.5s-3-2.2-4.6-3.2a8.5,8.5,0,0,1-3.4-3.1c-.7-1.4-.3-3.4,1.2-3.9a4.1,4.1,0,0,1,1.9,0c5.8,1.1,11.3,4.5,17.1,3.8l.7-.2c1.1-.5.8-2.2,0-3.1s-3.8-2.8-6.1-3.6l-6-1.9a13.7,13.7,0,0,1-3.5-1.5,6.9,6.9,0,0,1-2.3-2.2,3.7,3.7,0,0,1-.7-2,3.5,3.5,0,0,1,2.8-3,10.9,10.9,0,0,1,4.4.2l6.3,1.3a8.7,8.7,0,0,0,3.2.3,2.9,2.9,0,0,0,2.4-1.7,3,3,0,0,0-.9-3.3,9.2,9.2,0,0,0-3.3-1.6,60.8,60.8,0,0,0-9.4-2.1,8.5,8.5,0,0,1-3.5-1.1,2.7,2.7,0,0,1-1.4-3.1c.4-1.2,1.9-1.7,3.1-1.9,5.1-.5,9.8,2.4,14.8,3.1h.7a1.5,1.5,0,0,0,.5-.6,4.3,4.3,0,0,0-1.5-4.2,10.1,10.1,0,0,0-4.2-1.9,51.6,51.6,0,0,0-9.7-1.5,3.2,3.2,0,0,1-2.3-.7,2.2,2.2,0,0,1,.5-2.6,5.7,5.7,0,0,1,2.5-1.1c4.6-1.3,9.1-3.2,12.6-6.5a4.1,4.1,0,0,0,1-1.3c.2-.6.2-1.3-.3-1.6s-1.3-.2-2,0c-4.4,1.4-9.5,4-14.2,4.2.7-2,2.8-3,4.8-3.8l5.9-2.6a5.5,5.5,0,0,0,2.3-1.4,2,2,0,0,0,0-2.5,2.6,2.6,0,0,0-1.2-.5c-4.1-.7-7.9,2.5-12,2.3a1.9,1.9,0,0,1-1.7-.7,1.7,1.7,0,0,1,.1-1.7l1.3-1.1a31.6,31.6,0,0,0,7.6-7.9,1.7,1.7,0,0,0,.3-1.9,1.1,1.1,0,0,0-.8-.3,3.9,3.9,0,0,0-2.1.4c-5.9,2.3-12.2,5-15.6,10.4"/><path class="cls-21" d="M1611.2,610.8c-20.5,10.5-47.1,7.2-64.5-8.2-23.6-20.7-29.2-58.3-55.1-76.1a51.3,51.3,0,0,0-54.4-1.6c-6,3.6-25.6,16.9-32.6,17.7-34.1,3.9-65.5-98.5-156.8-87.6,4,15.5,5.8,55.5,8.2,71.3,27.2-19.1,67.6-15.1,81.5-11.1s22,12.9,30,23.6c9.2,12.2,14.4,27.7,31,31.2,13.3,2.8,28.6-3.4,34.7-15.9,2.1-4.5,3.4-9.7,7.1-13s10.8-3.8,15.9-1.4,9,7.1,12.1,12c13.5,21.3,14.5,47.8,25.2,70.4,5.5,11.6,30.1,67,116.7,53C1610.2,675.1,1618.7,643.1,1611.2,610.8Z"/><g class="cls-22"><path class="cls-23" d="M1255.8,498.3a100.4,100.4,0,0,1,37.5-10.3c13.1-.7,26.4,1.8,37.8,8.2a82.3,82.3,0,0,1,10,6.6c15.5,11.6,29.3,26.1,41.2,41.2,7,8.8,15.2,14.8,26.7,11.1,16.8-5.4,26.5-23.4,42.6-30.4a36.7,36.7,0,0,1,35.9,4.3c12.9,9.7,19,27.5,24.1,42.2,5.7,16.5,9.8,34,20.1,48.3s26.4,24.3,43.6,29.1,35.3,4.8,52.9,2.3"/><path class="cls-23" d="M1253,520c13.1-5.2,24.7-14.1,38.4-17.3a67.5,67.5,0,0,1,16.8-1.6c10.9.1,22.1,1.8,31.7,7,12.5,6.7,21,18.4,29.5,29.4,4.4,5.6,8.9,11.3,14.1,16.2s10,10.6,17.6,12.1c11.1,2.3,21.4-5.6,29.4-13.5s16.2-17.2,27.4-18.5,23.3,6.9,29.5,17.3,8.3,22.5,11.5,34.2c8.5,31.5,26.2,62.7,55.4,77.2,20.6,10.2,44.4,11,67.3,10.1"/><path class="cls-23" d="M1504.1,534.1c9,6.2,13,17.3,16.8,27.6,8.6,23.8,20,48.8,42,61.2,11.2,6.3,24.3,8.7,37.1,7.9a79.6,79.6,0,0,0,23.6-5.5"/><path class="cls-23" d="M1455.6,550.1c6,0,10.9,4.6,14.8,9.2a100.7,100.7,0,0,1,13.6,21.2c8.2,17.3,11.5,36.6,20.1,53.6a95.2,95.2,0,0,0,53.6,46.9"/><path class="cls-23" d="M1398.6,540.2c-3.9,0-7.6-2.1-11-4.2-19.4-12.3-64.2-74.6-114.6-69.9"/></g><polyline class="cls-19" points="1355 526.4 1369.6 515.2 1369.9 504.8"/><polyline class="cls-19" points="1439.7 549.2 1451.4 535 1449.3 524.9"/><path class="cls-20" d="M1337.2,779c-37.6,74.6-143.4,87.8-215.2,47.9-55.2-30.6-71.8-114.3-35.9-164.6,2.2-3.1,4.5-6,7-8.9,19-21.5,47.1-36.6,77.5-42.3,34.4-6.4,70.9-1.5,103.1,10.9,4.6,1.8,9.1,3.7,13.4,5.8a117.3,117.3,0,0,1,25.6,16.6c10.6,9.3,18.5,20.8,24.3,33C1352.3,709.5,1353.2,747.1,1337.2,779Z"/><path class="cls-12" d="M1287.1,627.8A78.1,78.1,0,0,1,1278,649a82.1,82.1,0,0,1-49.1,36.4c-10,2.6-20.5,3.2-30.8,3.2-37.6-.3-76.7-11.3-105-35.2,19-21.5,47.1-36.6,77.5-42.3,34.4-6.4,70.9-1.5,103.1,10.9C1278.3,623.8,1282.8,625.7,1287.1,627.8Z"/><path class="cls-20" d="M1275.3,668c-33.1,25.3-104.2,22.7-136.7-2.7s-46.9-59.1-33.9-108.1c2.9-10.8,7.5-21.3,14.3-30.2a79.3,79.3,0,0,1,12.9-13,106.2,106.2,0,0,1,16-10.7c32.5-17.7,73.5-20,106.9-3.9a75,75,0,0,1,8.8,4.8c28.8,17.5,49,49.1,50.7,82.7C1315.8,618.8,1300.3,648.9,1275.3,668Z"/><path class="cls-12" d="M1263.6,504.2c-2,1.9-4.1,3.7-6.2,5.4-34,26.7-90.2,31.5-125.5,4.4a106.2,106.2,0,0,1,16-10.7c32.5-17.7,73.5-20,106.9-3.9A75,75,0,0,1,1263.6,504.2Z"/><path class="cls-20" d="M1286.8,461c1.2,23.6-10.3,46-28.9,60.1-24.5,18.7-78.8,16.2-103-2.7a66.7,66.7,0,0,1-22.7-33.8c-12.2-42.4,9.9-81,47.7-92.6,20.5-6.3,43.4-5.3,62.8,4C1267.5,407.9,1285.5,433.5,1286.8,461Z"/><circle class="cls-15" cx="1219.9" cy="568.4" r="7.9"/><circle class="cls-15" cx="1225.7" cy="626.8" r="7.9"/><circle class="cls-15" cx="1229.9" cy="713.2" r="7.9"/><circle class="cls-15" cx="1227.8" cy="792" r="7.9"/><path class="cls-18" d="M1197.9,494.3c9.3,12.6,26.6,8.8,30.4-2.2"/><circle class="cls-15" cx="1187.3" cy="455" r="6.4"/><circle class="cls-15" cx="1238.4" cy="450.4" r="6.4"/><path class="cls-21" d="M1218.1,461.9c5.9,1.5,11.9,4.4,17.6,6.8s10.6,4.7,15.8,7.3,9.7,4.6,13.9,8.1a5.1,5.1,0,0,1,1.9,2.5c.5,2.7-2.9,4.2-5.6,4.3-8.1.4-16.4-.9-24.4-2a213,213,0,0,1-25-5.1c-4.5-1.2-9.5-3.5-10.7-8.4s.7-11.8,5.8-13.8C1210.7,460.4,1214.7,461.1,1218.1,461.9Z"/><path class="cls-20" d="M1159.7,373a17.8,17.8,0,0,1-8.5,1,8.6,8.6,0,0,1-6.8-4.7c-1.2-2.6-.3-6.2,2.4-7.4a10.7,10.7,0,0,1-7.1-11,10.5,10.5,0,0,1,9.4-9c-1.8-4.8-1.9-10.4.4-14.9s7.3-7.9,12.4-7.7,10,4.3,10.6,9.4c-.3-2.6,4-4.4,5.9-4.2s4.5,2.5,5.3,4.8a18.4,18.4,0,0,1,.7,4.7c3.5-2.8,10.3-4.9,12.8,0s-.3,9.1-4.2,10.8a7.6,7.6,0,0,1,8,1.6c3.8,3.7,2,8.5-1,11.9a13.3,13.3,0,0,1-9.6,4.6"/><path class="cls-16" d="M1263.5,404.6c-3.2-8.8-6.7-17.7-12.4-25.2-9.8-12.8-25.2-20.2-40.8-23.9a77.5,77.5,0,0,0-23.4-2.5c-19.7,1.1-36.2,11-46.9,27.3s-21.3,39.1-12.5,58.5c18.5-23.8,47.1-38.5,76.9-43q4-.6,8.1-.9C1229.6,393.8,1247.2,399.6,1263.5,404.6Z"/><path class="cls-17" d="M1273,419.9c-22.2-8.4-46.7-10-70-5.8-25.8,4.7-59.2,16.2-74,39.3-2.8-4.7-3.6-12.2-3.2-17.6,2.6-34.4,35.3-49,46.5-52.8C1196.6,374.5,1258.9,368.6,1273,419.9Z"/><g class="cls-24"><path class="cls-25" d="M1136.5,450.4a38.9,38.9,0,0,1-6.6-38.5"/><path class="cls-25" d="M1149.2,440.3a58.7,58.7,0,0,1-4.7-46"/><path class="cls-25" d="M1156.7,384a154.2,154.2,0,0,0,11.9,53.1"/><path class="cls-25" d="M1170.6,377.9a27,27,0,0,1,2.7,8c3.3,13.8,6.5,27.6,9.8,41.4"/><path class="cls-25" d="M1188.3,374.2c10.3,13.5,14,30.6,17.5,47.1"/><path class="cls-25" d="M1205.4,368.3c7.7,5.9,13.3,14.2,16.8,23.2s5.2,18.6,6,28.2"/><path class="cls-25" d="M1226.3,372.4c6.5,5.8,10.9,13.6,13.9,21.8s4.4,16.9,5.9,25.5"/><path class="cls-25" d="M1244.6,378.2c2.6,2.2,4,5.4,5.3,8.5a130.7,130.7,0,0,1,9.3,37.4"/><path class="cls-25" d="M1261.8,388.5a108.6,108.6,0,0,1,6,39.2"/></g><ellipse class="cls-12" cx="1169.9" cy="472.5" rx="6.6" ry="10" transform="translate(394.2 1467.6) rotate(-74.1)"/><ellipse class="cls-12" cx="1257.6" cy="464.6" rx="10" ry="6.6" transform="translate(-82.6 499.7) rotate(-21.8)"/><path class="cls-26" d="M1125.5,568.6a273.6,273.6,0,0,0-118.7-29.1"/><path class="cls-26" d="M1002.7,485c6.9,13,17.1,24,28,33.9s21.9,20,34.1,27.7"/><path class="cls-26" d="M992.4,504a81.6,81.6,0,0,1,29.9,6.9"/><line class="cls-26" x1="997.5" y1="549.5" x2="1022.8" y2="540.2"/><path class="cls-2" d="M1173.1,679.6a21.3,21.3,0,0,0-.5,5.9,3.2,3.2,0,0,0,.7,1.9,2.1,2.1,0,0,0,2.9-.4,9.3,9.3,0,0,0,1.3-3.1,20.2,20.2,0,0,1,3-6.5c.6-.8,1.6-1.7,2.5-1.3,2.6,1.3.2,10.4.6,12.7s.8,2.4,1.9,2.5,1.7-.7,2.2-1.5c1.8-3,1.9-6.7,2.6-10.2a3,3,0,0,1,.7-1.5c1-1.2,3.1-.3,3.7,1.1s.3,3.1.1,4.6a27.5,27.5,0,0,0,.3,8.1c.2,1.5,1.2,3.4,2.7,3a3.2,3.2,0,0,0,1.4-1.2c1.3-2.2,1.2-5,1.4-7.6s1-5.5,3.4-6.6c1.9,1,2.4,3.6,2.2,5.8s-.9,4.4-.3,6.6a2.9,2.9,0,0,0,.8,1.4c1.3,1.1,3.4-.4,3.8-2s0-3.4.2-5.1,1.4-3.6,3.1-3.3,2.2,2.9,2.1,4.8l-.3,5.8c-.2,2,.1,4.5,2,5s3.4-1.4,3.7-3.2.2-3.8,1-5.5,3.6-2.5,4.5-.8a4,4,0,0,1,.1,2.2l-.8,6.7a8.5,8.5,0,0,0,.1,4.2,2.9,2.9,0,0,0,3.1,2.1c1.5-.2,2.3-1.9,2.6-3.4s.2-3.2,1-4.5,3.1-1.6,3.8-.3a4.4,4.4,0,0,1,.2,1.6c-.2,2-.3,4-.4,6a9.4,9.4,0,0,0,.3,4.1,3,3,0,0,0,3.3,1.8,3.5,3.5,0,0,0,2-2.1c2.9-5.6,1.6-12.7-1.8-18s-8.9-9.1-14.4-12.2c-9.3-5.3-19.7-9-30.5-9.7-4.9-.4-10.4-.3-15.1,1.1S1174,674.9,1173.1,679.6Z"/><path class="cls-21" d="M1135.7,494.1c-16.2,22.9-9.1,46.3,1.7,66.3,6.5,12.1,16.2,22.1,24.5,33.1,18.5,24.6,23.7,41,15.1,78.2,20.1-2.4,52.9,5.7,65.3,23.7.5-46.8-21-93.5-57-123.5-10.3-8.6-21.8-15.9-30.4-26.2-5.6-6.5-10.1-14.8-11.1-23.5-.4-3.7,2.4-12.1,2.4-12.1C1143.5,507.4,1138.9,500.8,1135.7,494.1Z"/><g class="cls-27"><path class="cls-23" d="M1147.6,485.4c-6.2,8.9-12.2,18.2-14.2,28.8-3.2,16.9,4.5,34,14.5,47.9s22.5,26,31.3,40.7a97.7,97.7,0,0,1,12.2,65.2c-1.4,8.5-4.2,17.2-10.5,23.3"/><path class="cls-23" d="M1151,492.3c-12.6,15.4-15.1,38.2-6.2,56,7.5,15.1,21.8,25.4,33.4,37.7,26.1,27.7,38.8,67.6,33.5,105.4"/><path class="cls-23" d="M1152.7,502.5a66.1,66.1,0,0,0,8.3,47c6.9,11.4,17.2,20.3,25.6,30.7a183.5,183.5,0,0,1,12.5,17.8c10.4,16.1,20.1,32.9,26.6,51s9.5,37.8,6.4,56.7"/></g><path class="cls-26" d="M1182.7,879.7a1193,1193,0,0,0,208.8-7.4"/><path class="cls-26" d="M1283.5,880.7c28.3,0,55,8.9,76.8,13"/><path class="cls-26" d="M1352.1,876.5c8-4.5,19.1-10.9,26.6-15.9"/><circle class="cls-20" cx="1319.1" cy="341.8" r="6.4"/><circle class="cls-20" cx="1184.2" cy="218.6" r="2.2"/><circle class="cls-20" cx="1367.9" cy="174.1" r="3.6"/><circle class="cls-20" cx="971.5" cy="297.3" r="3.6"/><circle class="cls-20" cx="1045.4" cy="446.1" r="7.3"/><circle class="cls-20" cx="1664.3" cy="382" r="7.8"/><circle class="cls-20" cx="1721.8" cy="546.6" r="5.6"/><circle class="cls-20" cx="1428.1" cy="643.8" r="4.6"/><circle class="cls-20" cx="1439.7" cy="452.8" r="6.7"/><circle class="cls-20" cx="927.2" cy="700" r="8.2"/><circle class="cls-20" cx="1668" cy="732.8" r="3.7"/></g></svg>