<svg xmlns="http://www.w3.org/2000/svg" xmlns:xlink="http://www.w3.org/1999/xlink" viewBox="0 0 1920 1080"><defs><style>.cls-1,.cls-12,.cls-17,.cls-21,.cls-22,.cls-23,.cls-24{fill:none;}.cls-2{fill:#cba6ff;}.cls-3{clip-path:url(#clip-path);}.cls-4{fill:#110b1d;}.cls-5,.cls-8{fill:#6122b2;}.cls-6,.cls-7{fill:#666;}.cls-6{fill-rule:evenodd;}.cls-8{font-size:80px;font-family:Monosten-Regular, Monosten;}.cls-9{fill:#250d45;}.cls-10{fill:#e6d4ff;}.cls-11{fill:#f6f0ff;}.cls-12,.cls-17,.cls-21{stroke:#260d46;}.cls-12,.cls-17,.cls-21,.cls-22,.cls-23,.cls-24{stroke-linecap:round;stroke-linejoin:round;}.cls-12{stroke-width:17px;}.cls-13{fill:#e8d7ff;}.cls-14{fill:#260d46;}.cls-15{fill:#6b1fbf;}.cls-16{fill:#973bfc;}.cls-17,.cls-22,.cls-23,.cls-24{stroke-width:2px;}.cls-18{fill:#fff;}.cls-19{fill:#fd3736;}.cls-20{fill:#c42a2a;}.cls-21{stroke-width:7px;}.cls-22,.cls-23,.cls-24{stroke:#fff;}.cls-23{stroke-dasharray:5.98 5.98;}.cls-24{stroke-dasharray:6;}</style><clipPath id="clip-path"><rect class="cls-1" x="77.5" y="65.8" width="353.3" height="91.34"/></clipPath></defs><g id="February"><rect class="cls-2" width="1920" height="1080"/><g class="cls-3"><g class="cls-3"><path class="cls-4" d="M201.1,89.8a2.2,2.2,0,0,1,4.4-.4.3.3,0,0,1,0,.4v.5a5.3,5.3,0,0,1,1.6-2.3,5.1,5.1,0,0,1,3.1-1.1c3,0,4.9,1.2,5.5,3.5a5,5,0,0,1,1.9-2.4,6,6,0,0,1,3.4-1.1c4.1,0,6.1,2.6,6.1,6.6v15.9a2.2,2.2,0,0,1-2,2.4,2.1,2.1,0,0,1-2.3-2c-.1-.2-.1-.3,0-.4V94.8c0-2.8-.9-4-2.8-4s-3.7,2.2-3.7,6.6v12a2.2,2.2,0,0,1-2,2.4,2.1,2.1,0,0,1-2.3-2c-.1-.2-.1-.3,0-.4V94.8c0-2.8-.8-4-2.8-4s-3.7,2.4-3.7,7.2v11.4a2.1,2.1,0,0,1-1.9,2.4,2.3,2.3,0,0,1-2.5-2v-20Z"/><path class="cls-4" d="M254.4,104.6a2.5,2.5,0,0,0-1.8.8c-1.7,2-4.1,3-7.3,3a7.1,7.1,0,0,1-5.1-2.1,9.1,9.1,0,0,1-2.4-4.9h16.8a2.3,2.3,0,0,0,2.5-2.1v-.4a11.7,11.7,0,0,0-3.3-8.5,10.9,10.9,0,0,0-8.5-3.4,11.5,11.5,0,0,0-8.8,3.6,14.2,14.2,0,0,0,0,18,11.5,11.5,0,0,0,8.8,3.6c4.3,0,7.8-1.2,10.4-3.7a2.3,2.3,0,0,0,.2-3.2h0a1.9,1.9,0,0,0-1.5-.8ZM240.3,92.8a7.4,7.4,0,0,1,5-2,6.3,6.3,0,0,1,4.7,1.9,9.7,9.7,0,0,1,2.5,4.8H237.8a8.3,8.3,0,0,1,2.5-4.7"/><path class="cls-4" d="M270.6,77.2a2.2,2.2,0,0,1,2.2,2.4v7.8h8.8c1.5,0,2.3.7,2.3,2s-.8,1.9-2.3,1.9h-8.8V104c0,3,1.6,4.3,3.8,4.3a5.6,5.6,0,0,0,3.3-.8l1.4-1a2.1,2.1,0,0,1,1.3-.5,2,2,0,0,1,2,2h0a2.9,2.9,0,0,1-1.4,2.1,11.2,11.2,0,0,1-6.9,2,8.5,8.5,0,0,1-5.7-1.9c-1.4-1.2-2.2-3.2-2.2-5.9V91.3h-6.3c-1.5,0-2.3-.6-2.3-1.9s.8-1.9,2.3-1.9h6.3V79.6a2.2,2.2,0,0,1,2.1-2.4Z"/><path class="cls-4" d="M310.3,87.4c-1.2,0-2.1,1-2.2,2.6a6.8,6.8,0,0,0-3-2.3,9.9,9.9,0,0,0-3.8-.7,10.2,10.2,0,0,0-8.4,3.7,14.7,14.7,0,0,0,0,17.8,10.1,10.1,0,0,0,8.4,3.7,10.7,10.7,0,0,0,3.9-.7,7.3,7.3,0,0,0,2.9-2.3c.1,1.6,1,2.6,2.2,2.6a2.4,2.4,0,0,0,2.4-2.2V89.9a2.3,2.3,0,0,0-2.1-2.5h-.3m-4,18.5a6.5,6.5,0,0,1-9.2,1l-.9-1a10.9,10.9,0,0,1,0-12.6,6.5,6.5,0,0,1,9.1-1.1,5.2,5.2,0,0,1,1,1.1,9.4,9.4,0,0,1,1.9,6.3,9.4,9.4,0,0,1-1.9,6.3"/><path class="cls-5" d="M328.9,107.9V81.6h-5.5c-1.3,0-2.4-.7-2.4-1.9s1.1-1.9,2.4-1.9H331a2,2,0,0,1,2.2,1.9v28.2h7.1c1.3,0,2.4.7,2.4,1.9s-1.1,2-2.4,2H321.8c-1.4,0-2.4-.8-2.4-2s1-1.9,2.4-1.9h7.1Z"/><path class="cls-5" d="M365.5,87.4c-1.2,0-2.1,1-2.2,2.6a6.5,6.5,0,0,0-2.9-2.3,10.7,10.7,0,0,0-3.9-.7,10,10,0,0,0-8.3,3.7,14.5,14.5,0,0,0-.1,17.8,11.3,11.3,0,0,0,12.3,3,7.6,7.6,0,0,0,3-2.3c.1,1.6.9,2.6,2.2,2.6a2.3,2.3,0,0,0,2.3-2.2V89.9a2.3,2.3,0,0,0-2-2.5h-.4m-4,18.5a6.4,6.4,0,0,1-9.1,1l-1-1a9.4,9.4,0,0,1-1.9-6.3,9.4,9.4,0,0,1,1.9-6.3,6.5,6.5,0,0,1,9.1-1.1,5.2,5.2,0,0,1,1,1.1,10.9,10.9,0,0,1,0,12.6"/><path class="cls-5" d="M375.5,89.8a2.2,2.2,0,0,1,4.4-.4v.9a4.1,4.1,0,0,1,1.6-2.3,4.6,4.6,0,0,1,3-1.1c3.1,0,4.9,1.2,5.6,3.5a4.8,4.8,0,0,1,1.8-2.4,6,6,0,0,1,3.4-1.1c4.1,0,6.2,2.6,6.2,6.6v15.9a2.3,2.3,0,0,1-2,2.4,2.2,2.2,0,0,1-2.4-2v-15c0-2.8-.9-4-2.8-4s-3.6,2.2-3.6,6.6v12a2.3,2.3,0,0,1-2,2.4,2.2,2.2,0,0,1-2.4-2v-15c0-2.8-.8-4-2.8-4s-3.6,2.4-3.6,7.2v11.4a2.2,2.2,0,1,1-4.4.4v-20Z"/><path class="cls-5" d="M428.4,87.4c-1.2,0-2.1,1-2.2,2.6a6.8,6.8,0,0,0-3-2.3,9.9,9.9,0,0,0-3.8-.7,10,10,0,0,0-8.3,3.7,13.3,13.3,0,0,0-3.1,8.9,13.7,13.7,0,0,0,3,8.9,10.1,10.1,0,0,0,8.4,3.7,9.9,9.9,0,0,0,3.8-.7,6.9,6.9,0,0,0,3-2.3c.1,1.6,1,2.6,2.2,2.6a2.2,2.2,0,0,0,2.3-2.2V89.9a2.3,2.3,0,0,0-2-2.5h-.3m-4,18.5a6.5,6.5,0,0,1-9.2,1,4.3,4.3,0,0,1-.9-1,10.9,10.9,0,0,1,0-12.6,6.5,6.5,0,0,1,9.1-1.1l1,1.1a9.4,9.4,0,0,1,1.9,6.3,9.4,9.4,0,0,1-1.9,6.3"/><path class="cls-6" d="M427.8,148a6.8,6.8,0,0,1-5.6,2.3,8.6,8.6,0,0,1-2.7-.5,3.4,3.4,0,0,1-1.8-1.5v6.4a1.4,1.4,0,0,1-1.4,1.5,1.4,1.4,0,0,1-1.5-1.5V135.9a1.4,1.4,0,0,1,1.5-1.5,1.5,1.5,0,0,1,1.4,1.5,3.5,3.5,0,0,1,1.9-1.4,7.7,7.7,0,0,1,2.7-.4,7.2,7.2,0,0,1,5.5,2.1,9.4,9.4,0,0,1,1.9,6,9,9,0,0,1-1.9,5.8m-2.1-9.9a4.1,4.1,0,0,0-3.4-1.6,3.9,3.9,0,0,0-3.4,1.6,6.5,6.5,0,0,0-1.2,4.1,6.3,6.3,0,0,0,1.2,4.1,4.6,4.6,0,0,0,6.8,0,6.3,6.3,0,0,0,1.2-4.1,6.5,6.5,0,0,0-1.2-4.1m-14.8,1.2a1.3,1.3,0,0,1-1.2-.9,3.1,3.1,0,0,0-2.9-1.8,4,4,0,0,0-3.6,1.8,7.8,7.8,0,0,0-1.2,4.4v5.6a1.4,1.4,0,0,1-1.4,1.6,1.4,1.4,0,0,1-1.5-1.6V136a1.5,1.5,0,0,1,1.5-1.6A1.5,1.5,0,0,1,402,136v.7a4.7,4.7,0,0,1,1.9-1.8,6,6,0,0,1,2.9-.8c2.7,0,4.5,1,5.6,2.9a2.2,2.2,0,0,1,.1.8,1.6,1.6,0,0,1-1.6,1.5m-17.8,10.6a1.4,1.4,0,0,1-1.4-1.6,4.8,4.8,0,0,1-2,1.4,6.6,6.6,0,0,1-2.7.6,6.8,6.8,0,0,1-5.5-2.4,8.1,8.1,0,0,1-2-5.7,8.8,8.8,0,0,1,2-5.7,7.1,7.1,0,0,1,5.6-2.4,8,8,0,0,1,2.6.5,4.8,4.8,0,0,1,2,1.4,1.4,1.4,0,0,1,1.4-1.6,1.4,1.4,0,0,1,1.5,1.5v12.5a1.4,1.4,0,0,1-1.5,1.5m-2.7-11.8a4.1,4.1,0,0,0-3.4-1.6,4.4,4.4,0,0,0-3.4,1.6,7.6,7.6,0,0,0,0,8.2,4.3,4.3,0,0,0,3.4,1.5,4.1,4.1,0,0,0,3.4-1.5,7.1,7.1,0,0,0,0-8.2M375.7,150a1.4,1.4,0,0,1-1.5-1.5v-7.8a5.4,5.4,0,0,0-.7-3.2,3.1,3.1,0,0,0-2.5-1,3.9,3.9,0,0,0-3.3,1.7,7.4,7.4,0,0,0-1.2,4.4v5.8A1.5,1.5,0,0,1,365,150a1.3,1.3,0,0,1-1.4-1.5V129.7a1.4,1.4,0,0,1,1.4-1.6,1.5,1.5,0,0,1,1.4,1.6v6.8a3.5,3.5,0,0,1,1.7-1.7,7.3,7.3,0,0,1,2.9-.7c4.1,0,6.1,2,6.1,6v8.4a1.4,1.4,0,0,1-1.4,1.5Zm-21.6-8.9,1.8.3,1.7.4a3.5,3.5,0,0,1,2.8,3.6,4.4,4.4,0,0,1-2,3.7,8.2,8.2,0,0,1-5,1.3c-3-.1-5.1-1-6.6-2.8a1.4,1.4,0,0,1,1-2.4,1.6,1.6,0,0,1,1.3.7,5.2,5.2,0,0,0,4.3,2c2.7,0,4-.8,4-2.5s-.3-1.1-1.3-1.4l-1.2-.3-1.7-.2-2.3-.4-1.9-.7a3.5,3.5,0,0,1-2-3.4,4.3,4.3,0,0,1,1.8-3.6,8.4,8.4,0,0,1,4.5-1.2c2.7,0,4.7.9,5.9,2.6a1.2,1.2,0,0,1,.3.9,1.4,1.4,0,0,1-1.5,1.4,1.3,1.3,0,0,1-1.2-.7,3.7,3.7,0,0,0-3.5-1.7c-2.1,0-3.4.8-3.4,2.2S351.4,140.7,354.1,141.1Z"/><path class="cls-6" d="M289.4,148a6.7,6.7,0,0,1-5.5,2.3,7.6,7.6,0,0,1-2.7-.5,4.1,4.1,0,0,1-1.9-1.4v6.3a1.3,1.3,0,0,1-1.4,1.5,1.4,1.4,0,0,1-1.4-1.5V135.9a1.4,1.4,0,1,1,2.8,0,4.5,4.5,0,0,1,1.9-1.4,8.4,8.4,0,0,1,2.7-.4,6.8,6.8,0,0,1,5.5,2.2,8,8,0,0,1,2,5.9,8.5,8.5,0,0,1-2,5.8m-2-9.9a4.2,4.2,0,0,0-3.4-1.5,4.1,4.1,0,0,0-3.4,1.5,6.6,6.6,0,0,0-1.2,4.2,6.5,6.5,0,0,0,1.2,4.1,4.1,4.1,0,0,0,3.4,1.5,4.2,4.2,0,0,0,3.4-1.5,6.4,6.4,0,0,0,1.1-4.1,7.2,7.2,0,0,0-1.1-4.2"/><path class="cls-6" d="M307.3,148.1a7.4,7.4,0,0,1-5.6,2.3,7.5,7.5,0,0,1-5.6-2.3,8.3,8.3,0,0,1-2.1-5.8,8.5,8.5,0,0,1,2.1-5.9,7.2,7.2,0,0,1,5.6-2.3,7,7,0,0,1,5.6,2.3,8.6,8.6,0,0,1,2.2,5.9,8.3,8.3,0,0,1-2.2,5.8m-2.1-10a4.3,4.3,0,0,0-3.5-1.5,4.5,4.5,0,0,0-3.5,1.5,6,6,0,0,0-1.3,4.2,5.9,5.9,0,0,0,1.3,4.1,4.5,4.5,0,0,0,3.5,1.5,4.4,4.4,0,0,0,3.5-1.5,6,6,0,0,0,1.4-4.1,6.1,6.1,0,0,0-1.4-4.2"/><path class="cls-6" d="M312.3,147.7a1.8,1.8,0,0,1-.5-1.1,1.5,1.5,0,0,1,1.5-1.4,1.6,1.6,0,0,1,1.3.7,5.2,5.2,0,0,0,4.3,2c2.7,0,4-.8,4-2.4s-.3-1.1-1.3-1.4l-1.2-.3-1.7-.3-2.3-.4-1.9-.7a3.4,3.4,0,0,1-2-3.3,4,4,0,0,1,1.8-3.6,7.7,7.7,0,0,1,4.5-1.3c2.7,0,4.7.9,5.9,2.6a1.4,1.4,0,0,1-1.2,2.3,1.4,1.4,0,0,1-1.2-.6,3.8,3.8,0,0,0-3.5-1.8c-2.1,0-3.4.8-3.4,2.2s1.5,1.8,4.2,2.2l1.9.3,1.6.4a5.3,5.3,0,0,1,1.5.7,3.8,3.8,0,0,1,1.3,2.9,4.2,4.2,0,0,1-1.9,3.7,8.7,8.7,0,0,1-5,1.4c-3-.2-5.2-1.1-6.7-2.8Z"/><path class="cls-6" d="M332.8,129.4a1.4,1.4,0,1,1,2.8,0v5h5.9c1,0,1.5.4,1.5,1.3s-.5,1.3-1.5,1.3h-5.9v8.1c0,1.9,1.1,2.8,2.5,2.8a4,4,0,0,0,2.3-.6l.9-.6.9-.3a1.3,1.3,0,0,1,1.3,1.3,1.7,1.7,0,0,1-.9,1.4,8.6,8.6,0,0,1-4.6,1.3,5.6,5.6,0,0,1-3.8-1.2,4.6,4.6,0,0,1-1.5-3.8v-8.5h-4.2c-1,0-1.5-.4-1.5-1.3s.5-1.2,1.5-1.2h4.2v-5Z"/><path class="cls-7" d="M237.2,150.8a6.8,6.8,0,0,0,5.3-2.1c1.3-1.4,1.9-3.4,1.9-6a8.6,8.6,0,0,0-1.9-5.8,6.5,6.5,0,0,0-5.3-2.3,7.5,7.5,0,0,0-2.6.5,3.5,3.5,0,0,0-1.8,1.5v-6.4a1.5,1.5,0,0,0-1.4-1.6,1.4,1.4,0,0,0-1.4,1.6V149a1.4,1.4,0,0,0,1.4,1.5,1.5,1.5,0,0,0,1.4-1.5,3.7,3.7,0,0,0,1.8,1.4,7.5,7.5,0,0,0,2.6.4m4.4-8.1a7.1,7.1,0,0,1-1.1,4.1,4.4,4.4,0,0,1-6.6,0,8.2,8.2,0,0,1,0-8.2,4.4,4.4,0,0,1,6.6,0,7.1,7.1,0,0,1,1.1,4.1"/><path class="cls-7" d="M250.2,157.1a4.9,4.9,0,0,0,3.9-1.7,21.5,21.5,0,0,0,3.2-5.3l6-13.1a1.8,1.8,0,0,0,.1-.6,1.5,1.5,0,0,0-.9-1.4h-.6a1.5,1.5,0,0,0-1.4.9l-4.6,10.5-4.6-10.5a1.4,1.4,0,0,0-1.4-.9h-.6a1.4,1.4,0,0,0-.7,2l5.7,13v.4a15,15,0,0,1-1.8,3.3,2.9,2.9,0,0,1-2.2.9l-1.5-.3a1.2,1.2,0,0,0-1.2,1.2c0,1.1.9,1.6,2.7,1.6Z"/><path class="cls-5" d="M94.4,123h-16a1,1,0,0,0-1,1v14.1a1,1,0,0,0,1,1H88.7a1,1,0,0,0,.9-.6l5.6-14.2a.9.9,0,0,0-.8-1.3"/><path class="cls-5" d="M149.2,123h-35l9.9-56.1a1,1,0,0,0-1-1.1H109a.8.8,0,0,0-.9.7L104.5,87H84.7a.9.9,0,0,0-.9.9v14.2a.9.9,0,0,0,.9.9h16.9l-9.3,53a1,1,0,0,0,1,1.1h14.1a.9.9,0,0,0,.9-.8l3.1-17.2h20.1l-3,16.9a1,1,0,0,0,1,1.1h14.1a.9.9,0,0,0,.9-.8l5.7-32.2a1,1,0,0,0-.9-1.1"/><path class="cls-5" d="M167.8,123H157a1,1,0,0,0-.9.6l-5.6,14.2a.9.9,0,0,0,.9,1.3h16.4a1,1,0,0,0,1-1V124a.9.9,0,0,0-1-1"/><path class="cls-5" d="M174.2,87H156.7l3.5-20.1a.9.9,0,0,0-.9-1.1H145.2a1,1,0,0,0-1,.7L140.7,87H127.1a1,1,0,0,0-.9.6l-5.6,14.1a1,1,0,0,0,.9,1.3h16.3l-2.3,13.2a.9.9,0,0,0,.7,1.1l13.6,3.1a.9.9,0,0,0,1.2-.7l2.9-16.7h20.3a.9.9,0,0,0,.9-.9V87.9a.9.9,0,0,0-.9-.9"/></g></g><text class="cls-8" transform="translate(77.5 512.7)">Status Update<tspan class="cls-9"><tspan x="0" y="95.2">February 2024</tspan></tspan></text><path class="cls-10" d="M1670.2,487.9c11.1,2.9,22.6,3.3,33.8-.2,14.9-4.7,28.5-14.4,34.8-29,9.7-22.7,7.2-56.1-3.5-78.1s-30.2-40.6-53.5-49.5c-19.1-7.2-42.1-6-59.9,4.3-26.6,15.3-34.3,49.9-27.9,78.3,4.5,19.9,16.7,37.2,32.3,50.2C1638.6,474.2,1654,483.7,1670.2,487.9Z"/><path class="cls-10" d="M995.9,861.9c-82.1-22.3-139.3-134.2-146.2-213C841.8,558,900.2,471,977,421.7c25.8-16.5,54-30,75.7-51.7,34.1-34.3,39-83.9,62.8-124.5s59.6-77.1,102.5-99.5c133-69.4,315.3,11.1,342.3,161.7,5.7,31.7,4.1,64.4,8.9,96.3,7.8,51.2,39.3,91.2,85.2,113.9,54.8,27.2,105.8,43.9,131.6,104.2,22.1,51.7,18.5,113.1-1.4,164.8-12,31.2-29.4,60.7-53.4,83.9"/><path class="cls-11" d="M1101.5,924c-24.3-.2-48.9.3-71.6-9.8-5.6-2.5-10.9-5.6-14.5-10.1s-5.6-12.8-10-18.4c-19.2-24.4-64.9-20.7-93.4-27.3-7.4-1.7-28.7-6-31.8-13.5-4.7-10.9,11.8-17,21.2-19.1,62.9-13.9,129.5-6.5,193.7-7.9,18.7-.4,37.6-.9,55.4-5.7,9.2-2.5,18-6.2,27.2-8.6,18.7-4.8,38.6-4.3,58-3.7l194.2,5.6c27.7.8,55.8,1.6,82.3,8.8,22.3,6.1,43.3,16.8,66.6,19.4,25.8,2.9,52.9,2.1,78.9,3.2,39.7,1.7,83.9-.6,122.1,10.4,3.5,1,7,2.2,9.3,4.7,4,4.3,2.7,11-1.2,15.2s-10,6.5-15.9,8.3c-40.3,12-84.7,7-125.8,16.5-6,1.4-12.1,3.2-16.1,7.4s-4.6,8.2-7.1,12.2c-8.5,13.3-28.2,16.2-45.3,17.4-101.5,6.8-203.2,2.9-304.4,17.3-17.6,2.4-35.3,5.4-53,3.7-33.8-3.3-63.8-23.1-97.8-25.3C1115.6,924.2,1108.6,924.1,1101.5,924Z"/><path class="cls-12" d="M1395,604.9c6.5-6.1,14.3-16.6,15.9-25.1"/><ellipse class="cls-10" cx="1310.5" cy="878.9" rx="130.2" ry="10.7"/><polyline class="cls-12" points="1292.6 733.5 1291.7 806.8 1245.6 840.4"/><circle class="cls-13" cx="1291.8" cy="806.3" r="12.9"/><circle class="cls-14" cx="1291.8" cy="806.3" r="6.7"/><path class="cls-14" d="M1240.1,832.7h0a17.7,17.7,0,0,1,17.7,17.7v4a0,0,0,0,1,0,0h-35.4a0,0,0,0,1,0,0v-4a17.7,17.7,0,0,1,17.7-17.7Z" transform="translate(1252.4 -656.2) rotate(56.2)"/><line class="cls-12" x1="1337" y1="733.5" x2="1337" y2="868.1"/><path class="cls-14" d="M1337,857.2h0a17.7,17.7,0,0,1,17.7,17.7v4a0,0,0,0,1,0,0h-35.4a0,0,0,0,1,0,0v-4A17.7,17.7,0,0,1,1337,857.2Z"/><circle class="cls-13" cx="1337.1" cy="806.3" r="12.9"/><circle class="cls-14" cx="1337.1" cy="806.3" r="6.7"/><path class="cls-15" d="M1369.4,693.8h-64.5l11.6,63.8a13,13,0,0,0,12.9,10.7h17a13.2,13.2,0,0,0,12.9-11Z"/><path class="cls-16" d="M1325.4,694.3l-64.4-.8,10.8,64.1a12.9,12.9,0,0,0,12.4,10.6l17.5.2a12.8,12.8,0,0,0,12.8-10.6Z"/><circle class="cls-13" cx="1348.7" cy="520.4" r="12.9"/><circle class="cls-14" cx="1348.7" cy="520.4" r="6.7"/><path class="cls-16" d="M1376.3,719.3c-15.2,22.7-38.2,30.3-61.3,30.6a133,133,0,0,1-25.3-2.3c-38.9-7.1-61.3-42.1-61.9-81.9-.7-43.6,14-87.3,25.8-129.5,1.6-5.6,3.1-11.1,4.5-16.6,5.2-20.3,10.5-40.6,13.6-61.4,3.6-23.8,3.9-48.8,4-73.3,0-8.3.1-16.5.2-24.6,0-1.4.1-2.7.1-4.1h0a89.6,89.6,0,0,1,1.7-14.5c2.9-14.2,9.9-27.1,26.1-30.6,14-3,24.9,3.6,31.1,16,5.4,10.7,6.4,14.5,6.4,21.3h0c0,3-.2,6.7-.2,11.8-.3,39.7,7.1,91.8,16.4,130.1,12,49,29.3,95,34.3,145.2C1394.3,660.3,1395.8,690.3,1376.3,719.3Z"/><path class="cls-15" d="M1315,749.9a133,133,0,0,1-25.3-2.3c-38.9-7.1-61.3-42.1-61.9-81.9-.7-43.6,14-87.3,25.8-129.5,1.6-5.6,3.1-11.1,4.5-16.6,5.2-20.3,10.5-40.6,13.6-61.4,3.6-23.8,3.9-48.8,4-73.3,12.4,74.6-10.1,168-14.6,185.4-9.7,37.8-25.1,83.4-12.6,120.3C1257.8,718.2,1271.4,740.6,1315,749.9Z"/><path class="cls-16" d="M1352.8,307.8l-1.3-2.1-4.7-7.4a3.5,3.5,0,0,0,2.9-3.1,9.1,9.1,0,0,0-1-4.3c-2.6-6.2-5.9-12.2-7.8-18.6s-3.7-12.2-7.4-17.1a20.3,20.3,0,0,0-7.9-6.3c-4-1.8-8-1.7-12.3-2-7.7-.5-16.6,1.9-21.3,8.3s-6.3,13.1-9.4,19.8a231.5,231.5,0,0,1-11.4,21.4,10.7,10.7,0,0,0-1.8,4.1,4.1,4.1,0,0,0,1.3,4.1,2.6,2.6,0,0,0,3.8-.8,47.8,47.8,0,0,0-6.4,19.5c-.3,2.4-.4,5.9,2.6,6.7a6.5,6.5,0,0,0,4.1-.7,9.3,9.3,0,0,0,.2,4.7,3.4,3.4,0,0,0,3.6,2.5,11.1,11.1,0,0,0,1.2,6,10.8,10.8,0,0,0,4.8,4.2,56.7,56.7,0,0,0,13.7,4.6c2.4.5,4.9.8,7.3,1.1a43.8,43.8,0,0,0,7.1.7c13.2-1.1,28.3-2.3,37-13.4a17.5,17.5,0,0,0,3.1-7.9c.2-1.2.8-8.3-.7-8.8a3.4,3.4,0,0,0,3.9-1.9,6.9,6.9,0,0,0,.5-4.7A27.3,27.3,0,0,0,1352.8,307.8Z"/><path class="cls-16" d="M1305.5,238.9l.3-.2a4.4,4.4,0,0,1,2.9-1.1c1.8,0,3.1,1.9,3.2,3.8a11.1,11.1,0,0,1-1.5,5.2l5.8-7a28.9,28.9,0,0,1,5.9-5.7c2-1.2,4.7-2.4,7.1-2s3.2,4,2.6,6.4a18.2,18.2,0,0,1-2,4.5l-3.2,6a13,13,0,0,1,3.2-3.4,4.9,4.9,0,0,1,4.5-.5c3.4,1.8,2.5,6.9,1.4,9.7-3.3,9.2-13.7,15.2-23.3,13.6-2.6-.4-5.2-1.4-7.8-1.4-6.3-.1-11.2,5.1-12,11-4.6-3.3-5.6-11.2-3.9-16.3a44.1,44.1,0,0,1,7.3-12.6C1298.8,245.2,1301.6,241.6,1305.5,238.9Z"/><path class="cls-16" d="M1358.9,260.3c2.9-11,.4-22.9-5.2-33.3-1.4-2.7-3.9-5.7-7.1-5.3-5.8.6-6.1,8.8-6.3,12.6a87.8,87.8,0,0,1-3.2,19c-2.2,7.8-6.9,14.8-9.1,22.5a5,5,0,0,0-.2,2.1c.3,1.9,2.5,3,4.6,3.4a17.4,17.4,0,0,0,9.3-1.2C1351,276.3,1356.5,269.3,1358.9,260.3Z"/><path class="cls-14" d="M1340.5,268.6a3.4,3.4,0,0,0,2.7.8,6.8,6.8,0,0,0,2.7-1,18,18,0,0,0,7.3-9.6,31.8,31.8,0,0,0,.8-11.5c-.3-3.4-.8-8.1-3.3-10.6a2.8,2.8,0,0,0-3.6-.6c-1.1.8-1.2,2.2-1.3,3.4s-.4,3.5-.7,5.2c-.6,3.5-1.4,6.9-2.3,10.2s-2.2,5.3-3,8.1S1339.1,267.3,1340.5,268.6Z"/><path class="cls-16" d="M1265.7,258c-1-11.3,3.6-22.7,10.9-31.9,1.9-2.4,4.8-4.9,7.9-4,5.6,1.6,4.5,9.8,4,13.5a95.8,95.8,0,0,0-.2,19.3c.9,8.1,4.2,15.8,5,23.7a4.9,4.9,0,0,1-.1,2.1c-.7,1.8-3.1,2.6-5.2,2.6a17.3,17.3,0,0,1-8.9-2.8A27.9,27.9,0,0,1,1265.7,258Z"/><path class="cls-14" d="M1282.2,269.4a3.2,3.2,0,0,1-2.7.3,7.3,7.3,0,0,1-2.5-1.5,17.5,17.5,0,0,1-5.4-10.7,31.8,31.8,0,0,1,1.1-11.5c.9-3.3,2.3-7.8,5.2-9.9,1.1-.7,2.7-.9,3.6.1s.8,2.4.7,3.6-.2,3.5-.2,5.2a73.8,73.8,0,0,0,.5,10.5c.2,2.8,1.2,5.6,1.5,8.4S1283.9,268.4,1282.2,269.4Z"/><path class="cls-13" d="M1339.4,315.7a62.4,62.4,0,0,0-2-6.9c-2.8-8.4-8.2-23.3-18.8-23.3-6.6.1-11.9,5.7-14.7,12.2l-2.2,4.8c-2.7,6.4-9.9,24.8,1.9,26.5a3.8,3.8,0,0,1,1.6.4c.5.2.7.6,1,.9a16.2,16.2,0,0,0,12.5,6.3,16.5,16.5,0,0,0,12.1-6.3,4.3,4.3,0,0,1,1-.9,4.7,4.7,0,0,1,1.6-.4,7.8,7.8,0,0,0,6-5.3A18,18,0,0,0,1339.4,315.7Z"/><path class="cls-14" d="M1319.1,310.6c.5.4.7-.4.8-.8a8.2,8.2,0,0,0-1.2-4.3,10.3,10.3,0,0,0-6.5-5.4c-1.3-.4-3.5-.9-4.9-.1s.1,3.7,1.4,4.5a12.4,12.4,0,0,0,4.4,1.2,4.9,4.9,0,0,1,2.4.5c1.7.8,2.3,3,3.6,4.4Z"/><path class="cls-14" d="M1319.9,310.6c-.5.4-.7-.4-.8-.8a8.2,8.2,0,0,1,1.2-4.3,10.3,10.3,0,0,1,6.5-5.4c1.3-.4,3.5-.9,4.9-.1s-.1,3.7-1.4,4.5a13.1,13.1,0,0,1-4.4,1.2,4.9,4.9,0,0,0-2.4.5c-1.7.8-2.3,3-3.6,4.4Z"/><path class="cls-17" d="M1319.1,308.8c.4,7,.3,4.5.4,11.7"/><path class="cls-17" d="M1319.4,319.3c0,1.1,0,2.5.9,3.2a4.5,4.5,0,0,0,3.2.7,10,10,0,0,0,6.6-3.3"/><path class="cls-17" d="M1319.5,319.3c0,1.1,0,2.5-.9,3.2a4.5,4.5,0,0,1-3.2.7,10,10,0,0,1-6.6-3.3"/><path class="cls-14" d="M1327.7,321.6a9.5,9.5,0,0,1-5.4,4,9.2,9.2,0,0,1-6.7-.7c-2.1-1-3.7-2.9-5.8-4a21.5,21.5,0,0,0,4.8,1.8,7.7,7.7,0,0,0,2.6.3,2.6,2.6,0,0,0,2.1-1.4,4.8,4.8,0,0,0,4.2,1.4A8.7,8.7,0,0,0,1327.7,321.6Z"/><path class="cls-17" d="M1304.1,347.7c10.8,5.8,22,4.7,31.4-1"/><path class="cls-17" d="M1306.9,285.9a5.2,5.2,0,0,1-10.2-.4"/><path class="cls-17" d="M1336.7,285.9a5.1,5.1,0,0,1-10.1-.4"/><path class="cls-12" d="M1270.1,522.2c-29.9,85.7,23.9,118.8,67,95"/><circle class="cls-13" cx="1271.7" cy="518.6" r="12.9"/><circle class="cls-14" cx="1271.7" cy="518.6" r="6.7"/><path class="cls-18" d="M1356.7,615.4a516.4,516.4,0,0,1-60.9,3c-11.5-.1-24-1-32.8-8.4-3.1-2.6-5.7-6.3-5.2-10.3.8-6.7,8.9-9.3,15.6-10.3-22.4-4.3-45.2-8.7-65.8-18.9-8.5-4.2-17.7-8.1-19.4-18.4-1.3-8.3,4.2-13.9,12.4-14.3a60.3,60.3,0,0,1,17.9,1.9c-4.2-1.1-9.9-8.1-12.9-11.1a69.6,69.6,0,0,1-11.1-14.2c-4.8-8.4-9.3-21.9-1.1-30.1s21.8-6,31.1-3.3c22.4,6.5,41.4,23.7,57.6,39.8,20.5,20.4,38.7,43.6,62.4,60.1"/><path class="cls-18" d="M1405.1,615.4a516.4,516.4,0,0,0,60.9,3c11.5-.1,23.9-1,32.8-8.4,3-2.6,5.7-6.3,5.2-10.3-.8-6.7-9-9.3-15.6-10.3,22.4-4.3,45.2-8.7,65.7-18.9,8.6-4.2,17.8-8.1,19.4-18.4,1.3-8.3-4.1-13.9-12.3-14.3a60,60,0,0,0-17.9,1.9c4.1-1.1,9.9-8.1,12.8-11.1a63.3,63.3,0,0,0,11.1-14.2c4.8-8.4,9.3-21.9,1.2-30.1s-21.8-6-31.2-3.3c-22.4,6.5-41.4,23.7-57.5,39.8-20.5,20.4-38.7,43.6-62.5,60.1"/><path class="cls-19" d="M1495.3,509.2a92.7,92.7,0,0,1-10.1,29.3c-10.3,19-25.7,34.7-40.9,50.1L1394.5,639c-4,4.1-8.8,8.5-14.5,8.1s-7.9-3.1-11.1-5.9a819.7,819.7,0,0,1-81.1-80.3c-22-25-45.5-55.9-22.8-89.4,10.7-15.8,27.6-25.5,47-23.1s36.9,20.2,50.1,34.6c6.4,6.9,11.8,14.5,18.1,21.4,9.7-17.6,20.9-32,24.3-35.6,9.9-10.5,22.7-20.9,37.2-24,21.2-4.5,43.2,10.9,50.8,31.2C1496.5,486.6,1497.1,498,1495.3,509.2Z"/><path class="cls-20" d="M1460,475.8c10.9,6.5,15.8,20.2,14.8,32.8s-6.8,24.3-13.2,35.2a217.5,217.5,0,0,1-15.9,23.3,291.1,291.1,0,0,1-37.3,39.6c-6.8,6-13.8,11.8-21.1,17.3s-14.3,7-21.7.7c-5.8-4.9-11.4-9.9-17-15.1q-16.3-15.3-31.4-31.9c-16.4-18.3-32.1-39.4-33.8-63.9-.8-12.2,2.9-25.9,13.5-32s25.8-1.9,37.1,4.7a117.4,117.4,0,0,1,45.6,48.6C1403.1,488.4,1438.4,463.1,1460,475.8Z"/><path class="cls-19" d="M1418.2,519.4c-4.3,2-7.9,5.1-11.3,8.3a243.1,243.1,0,0,0-27.6,30.7,81.1,81.1,0,0,0-17.6-21.1c-4.6-3.9-9.8-7.3-15.6-8.4-9.2-1.8-19.2,2.2-22.8,11.2-3,7.3-1.5,15.9,2.1,22.9s9.1,13,14.6,18.7,13.1,13.2,19.8,19.6c3.9,3.7,6.9,8.4,11.6,11.1,6.3,3.7,10.8-.1,15.7-4a375.5,375.5,0,0,0,35.3-32.6c6.7-6.9,13.1-14.4,16.7-23.3,2.8-7,6.7-19.2,2.5-26.4S1427.6,515.2,1418.2,519.4Z"/><polyline class="cls-21" points="1340.6 615.7 1357.7 622.5 1366.7 617.4"/><polyline class="cls-21" points="1340.3 615.2 1343.4 597.1 1352.4 592"/><circle class="cls-13" cx="1338.9" cy="616.4" r="12.9"/><circle class="cls-14" cx="1338.9" cy="616.4" r="6.7"/><polyline class="cls-21" points="1424.8 618.5 1429.4 600.7 1423.3 592.4"/><polyline class="cls-21" points="1424.4 618.8 1406 618 1399.8 609.7"/><circle class="cls-13" cx="1425.8" cy="620.1" r="12.9"/><circle class="cls-14" cx="1425.8" cy="620.1" r="6.7"/><path class="cls-18" d="M1223.7,401.6H978.3c4.2-9.7,16.6-12.9,26.6-9.7-4-12.6,1.9-27.6,13.4-34.1s27.5-3.7,36.2,6.3c4.5-15.4,14.7-29.6,28.9-37.1s32.6-7.8,46,1.1c16.3,10.7,22.5,31.8,22.8,51.3a21.7,21.7,0,0,1,38.2,13.2,18.1,18.1,0,0,1,17.7-6.3C1214.6,387.7,1222,395.2,1223.7,401.6Z"/><path class="cls-18" d="M1471.3,256.5c1-3.6,6.1-5.2,9-2.8a9.9,9.9,0,0,1,4.7-10.9,10.1,10.1,0,0,1,11.8,2.1c-1.4-15.5,12.8-30.5,28.3-30s28.7,16.4,26.3,31.8a15.3,15.3,0,0,1,16-6c5.9,1.5,12.1,8.5,11,15.8"/><path class="cls-20" d="M1485.7,349.9a34.7,34.7,0,0,1-3.6,10.4c-3.6,6.7-9.1,12.2-14.4,17.7-8.1,8.1-17,23.8-29.7,15.9a130.8,130.8,0,0,1-24.8-20.4c-6.6-7-14.1-16.4-13.4-26.6a19.8,19.8,0,0,1,10.1-16.1c10.6-6.3,22.1,3.3,28.8,10.6l6.8,7.3c3.4-6.2,6.9-11.8,8.1-13.1,3.5-3.7,8-7.4,13.2-8.5,7.4-1.5,15.2,3.9,17.9,11.1A23.2,23.2,0,0,1,1485.7,349.9Z"/><path class="cls-19" d="M1167.4,636.9c-1.3,8.4-7.5,16.7-13,22.9-7.5,8.5-18.2,23.7-30.5,15.9a94.3,94.3,0,0,1-22.1-19.2,45.1,45.1,0,0,1-8-12.8,21.2,21.2,0,0,1-.3-14.7c2.8-7.6,11.7-12.2,19.5-10.4s14.8,10.1,19.4,16.6c3.5-8.2,8.9-16.5,18.2-18.5,6.7-1.4,13.6,3.4,15.9,9.8A19.4,19.4,0,0,1,1167.4,636.9Z"/><path class="cls-19" d="M1004.5,498.3c-1,5.5-4.5,11-7.7,14.8a80.2,80.2,0,0,1-15.1,14,4.1,4.1,0,0,1-2.1,1,3.9,3.9,0,0,1-2.5-.8,77.9,77.9,0,0,1-19.9-15.8c-2.8-3.1-5.4-6.5-6.7-10.4-2.8-8.1,2.4-18,11.9-16.8,4.7.6,8.6,5.1,11.6,8.4l4.5,4.8c2.2-4,4.4-7.7,5.2-8.5,2.3-2.4,5.3-4.8,8.6-5.5,4.9-1.1,10,2.5,11.7,7.1A14.4,14.4,0,0,1,1004.5,498.3Z"/><path class="cls-19" d="M1426.8,171.4c-1.3,7.8-8.2,15.6-13.5,21.1a18.1,18.1,0,0,1-6.6,5.1c-2.7,1.1-4.1.1-6.4-1.3a62.4,62.4,0,0,1-13.7-10.7,30.3,30.3,0,0,1-6-8.3,14.5,14.5,0,0,1-1.2-10,11.2,11.2,0,0,1,3.5-5.9,8.6,8.6,0,0,1,4.9-2.5c5.4-.6,10,4.3,13.2,7.8l3.7,4a74,74,0,0,1,4.4-7.2c2-2,4.5-4.1,7.3-4.6s8.4,2.1,9.8,6A13.1,13.1,0,0,1,1426.8,171.4Z"/><path class="cls-19" d="M1611.8,680.4a48.2,48.2,0,0,1-3.8,10.7c-7,14.4-17.8,27.4-32,35.1a12.3,12.3,0,0,1-13.5-.4,124.6,124.6,0,0,1-22.6-18.4c-6.4-6.6-12.9-14.1-16.5-22.7s-2.5-19.8,4.7-25.5c15-11.9,31.8,5.6,40.7,16.7,3-9.3,9.7-15.2,11.3-16.7,5.3-4.9,13.6-7,20.4-4.8C1612.5,658.3,1614,669.8,1611.8,680.4Z"/><path class="cls-19" d="M1164.5,221.3a25.4,25.4,0,0,1-2.9,8.4c-3,5.6-7.4,10.1-11.8,14.5l-14.4,14.6c-1.2,1.2-2.6,2.5-4.2,2.4a5.6,5.6,0,0,1-3.2-1.7,235,235,0,0,1-23.5-23.3c-6.4-7.2-13.2-16.1-6.6-25.8,3.1-4.6,8-7.4,13.6-6.7s10.8,6.4,14.6,10.6l5.5,6c2.8-5.1,5.7-9.7,6.7-10.7,2.8-3.1,6.5-6.1,10.7-7,6.2-1.3,12.5,3.2,14.7,9.1A18.3,18.3,0,0,1,1164.5,221.3Z"/><path class="cls-20" d="M1141.4,444.4a13.5,13.5,0,0,1-3.2,7.2c-1.8,2.2-5,5-8.1,5.1-1.4,0-3.1-1.3-4.3-2a30.4,30.4,0,0,1-4-3.3c-1.6-1.6-3.1-3.6-3.2-5.9s2.3-7.1,5.9-6.7c1.9.3,3.4,2,4.7,3.4l1.7,1.9a28.7,28.7,0,0,1,2.1-3.4,6.9,6.9,0,0,1,3.4-2.2,4.3,4.3,0,0,1,4.6,2.8A6.5,6.5,0,0,1,1141.4,444.4Z"/><path class="cls-19" d="M1698,602.4a12.8,12.8,0,0,1-.7,2.1,22.1,22.1,0,0,1-6.8,8.9,4.7,4.7,0,0,1-1.7.9c-1.5.4-3-.4-4.2-1.3a28.8,28.8,0,0,1-5.8-5.2c-1.5-1.6-2.8-3.1-2.8-5.3.1-3.8,3.7-7.2,7.2-4.7a37.3,37.3,0,0,1,4.3,3.6c1.5-2.3,4.4-5.5,7.4-4.9a4.5,4.5,0,0,1,3,3.1A5.4,5.4,0,0,1,1698,602.4Z"/><line class="cls-22" x1="1454.3" y1="367.1" x2="1528.9" y2="396.8"/><polygon class="cls-18" points="1443.5 362.8 1458.7 360 1452.6 375.3 1443.5 362.8"/><polygon class="cls-18" points="1530.8 397.6 1544.4 394.1 1535.3 390.5 1520.1 393.3 1529.2 405.8 1538.3 409.4 1530.8 397.6"/><path class="cls-22" d="M1560.5,412.5l2.7,1.3"/><path class="cls-23" d="M1569,415.5a36.5,36.5,0,0,0,27.2-5.6c10.3-7,17-18.8,19.3-31.1,1.5-8.1,1.2-16.8-2.7-24s-12-12.4-20.1-11.4-15,9.8-12.6,17.6c1.7,5.7,7.2,9.4,12.8,11.3a36.9,36.9,0,0,0,33.8-6c6.6-5.2,11.2-12.5,14.5-20.1,6.5-14.7,8.7-31.6,3.5-46.8-4.5-13.3-15.3-24.7-28.6-28.5"/><path class="cls-22" d="M1613.2,270.1l-2.9-.4"/><line class="cls-22" x1="1097.8" y1="552.7" x2="1023.4" y2="582.8"/><polygon class="cls-18" points="1108.6 548.3 1099.6 560.9 1093.4 545.6 1108.6 548.3"/><polygon class="cls-18" points="1021.6 583.6 1014.1 595.5 1023.2 591.8 1032.1 579.3 1017 576.6 1007.9 580.3 1021.6 583.6"/><path class="cls-24" d="M1005.8,591.9c-25,18.5-33,51.5-29.6,75s30.3,48.4,54,49.7c11.8.6,24.9-5.8,27.7-17.3s-7.7-22.2-18.2-20.7-16.7,18.6-17.8,28.5-.1,21.8,5.4,30.8c7.6,12.2,26.5,17.3,40,18.3,15.4,1.1,30.6-4.7,43.1-13.6s21.8-20.1,34.1-28.2,28.9-12.5,41.7-5.3"/></g></svg>