<svg xmlns="http://www.w3.org/2000/svg" xmlns:xlink="http://www.w3.org/1999/xlink" viewBox="0 0 1920 1080"><defs><style>.cls-1,.cls-12,.cls-16,.cls-17,.cls-5,.cls-9{fill:none;}.cls-2{fill:#fff;}.cls-3{fill:#f6f0ff;}.cls-22,.cls-4{fill:#6122b2;}.cls-12,.cls-16,.cls-17,.cls-5{stroke:#260d46;}.cls-12,.cls-16,.cls-17,.cls-5,.cls-9{stroke-linecap:round;stroke-linejoin:round;}.cls-5,.cls-9{stroke-width:3px;}.cls-6{fill:#d0adff;}.cls-7{fill:#bc95f0;}.cls-8{fill:#ffe699;}.cls-9{stroke:#fff;}.cls-10{fill:#bd93f5;}.cls-11{fill:#cba6ff;}.cls-12{stroke-width:17px;}.cls-13{fill:#260d46;}.cls-14{fill:#e8d7ff;}.cls-15{fill:#411180;}.cls-16{stroke-width:2px;}.cls-17{stroke-width:7px;}.cls-18{clip-path:url(#clip-path);}.cls-19{fill:#110b1d;}.cls-20,.cls-21{fill:#666;}.cls-20{fill-rule:evenodd;}.cls-22{font-size:80px;font-family:Monosten-Bold, Monosten;font-weight:700;}</style><clipPath id="clip-path"><rect class="cls-1" x="77.5" y="65.8" width="353.3" height="91.34"/></clipPath></defs><g id="Illustration"><rect class="cls-2" width="1920" height="1080"/><path class="cls-3" d="M848.8,877.2c-37-18.4-69.5-47.1-88.5-83.7a148.3,148.3,0,0,1-9.8-112.9c10.5-33.6,41.8-56.4,72.9-70.2,10.3-4.6,20.9-8.6,30.6-14.3,49.4-29.4,32.6-95.2,22-139.9-13.5-56.9-32.1-115.9-19.6-174.7a187.1,187.1,0,0,1,43.7-86c53.9-59.9,133-77.1,207.3-42.7,29.2,13.5,54.5,36.1,85,46.6,36.5,12.5,74.6-6.7,110.3-22.5,54.7-24.1,117-40.4,169.1-8.4,49.4,30.3,85.9,76.5,86,137,0,48-22.7,97.3-6.7,142.5,22.6,63.7,91.5,55.6,144,72.9s103.2,55.9,124.4,109.8a199.4,199.4,0,0,1,11.9,46.9c11.1,80.5-17.9,165.6-75.9,222.5"/><path class="cls-4" d="M1654,887.8h38c3.5-41,4.2-83-7.7-122.3-2.6-8.8-8-18.9-17.1-18.8-5.8.1-10.6,4.6-14,9.3-16.5,22.6-14.7,53.4-10.1,81Q1647.5,862.7,1654,887.8Z"/><path class="cls-4" d="M1623.8,887.8h41.5l-10-35.2c-5.1-18-11-37-25.3-49-6.2-5.2-14.9-8.7-22.4-5.7-5.6,2.3-9.3,7.9-10.7,13.8s-.6,12,.4,17.9A133.8,133.8,0,0,0,1623.8,887.8Z"/><path class="cls-4" d="M1712.5,887.8c8-15,16-29.9,23.9-44.9,4.9-9.1,9.8-18.4,11.4-28.6s-2.5-27.8-13.3-33.8c-7.4-4.1-17.1-1-22.9,5.1s-8.7,14.3-11.2,22.3a426.1,426.1,0,0,0-16.4,79.9Z"/><path class="cls-5" d="M1700,882.7a643.2,643.2,0,0,1,28.5-85.4"/><path class="cls-5" d="M1672.1,879.8a359.2,359.2,0,0,1-8.1-113.2"/><path class="cls-5" d="M1640.1,878.9a582.2,582.2,0,0,0-26.3-66.3"/><path class="cls-3" d="M1613.6,310.3a87.1,87.1,0,0,0-18.3,32.3c-19.3,61.5,41.4,143,108.6,125.4,31.3-8.2,47.1-40.8,48.6-70.4,1.7-32.2-9.5-65.7-34.6-88.4s-62-31.1-91.9-9.8A85.7,85.7,0,0,0,1613.6,310.3Z"/><path class="cls-4" d="M1287.3,891.4a19.7,19.7,0,0,1,24.4-29.9c-3.4-12.2-1.5-26.4,7.1-35.7s24.3-12.2,34.4-4.5c1.4-14.2,7.8-28,18.7-37.2s26.4-13.3,40-9.1,24.6,16.9,25.2,31.1c8.6-8.5,23.2-10.2,33.5-3.8s15.3,20.3,11.4,31.7c7.2-8.8,20.7-11.3,30.9-6.4s16.6,16.6,16,27.9c11.2-5,25.3.6,32.1,10.8s5.1,20.9,2,25.3"/><path class="cls-5" d="M1291.9,868.7c9,5.5,17.6,11.3,26.1,17.5"/><path class="cls-5" d="M1328.6,832.4q21,24.6,41.2,50"/><line class="cls-5" x1="1401.3" y1="884.8" x2="1401.3" y2="784.9"/><path class="cls-5" d="M1428,882.5a670.5,670.5,0,0,1,36.4-67.9"/><path class="cls-5" d="M1472.3,885.5l43.5-45.8"/><path class="cls-5" d="M1522.5,883.2a146.5,146.5,0,0,0,26.4-13.6"/><path class="cls-6" d="M1050.4,862.5c69.6-1,139.1-1,208.5,1.2,8.8.3,18.1.7,25.1,3.8,4.3,1.8,7.4,4.5,11.4,6.5,17.5,8.9,54.1,5,75.5,5.2l88.5.8,174.8.9c49.6.1,99.4,0,148.2,3.6,17.5,1.2,37.4,4,43.2,11s-10.2,16-28.8,18.9-39.2,2.4-58.7,4.1c-15.4,1.3-32.6,5.5-32.3,12.1.2,2.8,3.6,5.4,5.3,8.1,16,26.1-105.9,22.1-139.4,22.7-114.5,1.9-229-.1-343.5-1.3-56.4-.5-118.3-2.7-174.7-3.4-67.5-.8-115.7-6.1-72.4-22.7,10.1-3.9,24.1-7.7,23.2-13.3s-15.7-8.6-28.6-10.2c-37.3-4.5-75.3-6.1-113-9-18.3-1.5-94.3-3.5-91.3-20.7.9-5.3,11.2-7.9,19.9-9.1,24.8-3.3,50.4-4.1,75.9-4.8C928.2,865.2,989.3,863.5,1050.4,862.5Z"/><ellipse class="cls-7" cx="1278.8" cy="915" rx="157" ry="6.6"/><ellipse class="cls-7" cx="1513.8" cy="941.1" rx="64.9" ry="8.7"/><ellipse class="cls-7" cx="1071.2" cy="891.8" rx="45.7" ry="6.8"/><ellipse class="cls-7" cx="982" cy="874.1" rx="98" ry="6.8"/><path class="cls-8" d="M1094.6,679.2c3.2,28.5,1,57.3-4.6,85.3-5.1,25.8-11.2,59-24.6,81.9-3.9,6.8-10.9,11.1-18.7,6.4s-6.3-18.2-6.1-26.8a243.4,243.4,0,0,1,13.6-74.6,239.2,239.2,0,0,1,17.5-38.6c3.3-5.9,6.9-11.7,10.7-17.3C1084.1,693.1,1091.7,682.7,1094.6,679.2Z"/><path class="cls-8" d="M1150.5,709.1c-7.1,27.7-19.4,53.8-34.5,78.1-13.9,22.3-31.4,51.2-52,67.9-6,5-14.1,6.5-19.7-.6s.5-19.3,3.7-27.3a242.5,242.5,0,0,1,39.1-64.9,250,250,0,0,1,30-30c5.2-4.3,10.6-8.5,16.2-12.3C1135.7,718.3,1146.7,711.5,1150.5,709.1Z"/><path class="cls-9" d="M1049.6,834.9c4.3-41.2,23.3-95.6,37.8-134.5"/><path class="cls-9" d="M1055,847c21.9-45.5,52.6-86.1,84.8-125"/><path class="cls-2" d="M1070.3,806.6c0,1.2,0,2.3-.1,3.4s-.1,1.3-.2,2a73.1,73.1,0,0,1-3.7,17.9c-.4,1.3-.9,2.6-1.4,3.8a60.9,60.9,0,0,1-11.1,17.8h0a68.1,68.1,0,0,1-11.4,10h0a56.3,56.3,0,0,1-17.8,8.5h0l-.6.2c-8.9,2.4-18.1,3-27.1,2.9h-6.3a113.7,113.7,0,0,1-17.5-1.4c-2.2-.4-4.4-.8-6.6-1.4a61.1,61.1,0,0,1-23.9-13,62.3,62.3,0,0,1-14-17.2,60.9,60.9,0,0,1-3-6.3,73.9,73.9,0,0,1-5.1-21.6h0l-.3-4.8v-.6a103.6,103.6,0,0,1,2.8-25.4l1.2-5c.4-1.2.7-2.4,1.1-3.6s1.1-3.5,1.7-5.2,1.4-4,2.2-6l3.3-8.2c3.2-8,6.4-15.8,10-23.5l1-2.1c.4-.9.8-1.8,1.3-2.7,2.1-4.2,4.2-8.4,6.6-12.5a176.6,176.6,0,0,1,11-17.1,39,39,0,0,1,8.6-8.6,41.1,41.1,0,0,1,28-8.3l3.7.4h0a41.8,41.8,0,0,1,20.8,10.6h0a63.9,63.9,0,0,1,12,15.2c3.6,6.1,7.4,12.8,11,19.8l2.4,4.6a251.4,251.4,0,0,1,14.9,36.3l.7,2.2,1.5,5.1c.3,1.2.6,2.4.8,3.6s.8,3.3,1.1,4.9A115.4,115.4,0,0,1,1070,795,113,113,0,0,1,1070.3,806.6Z"/><path class="cls-10" d="M973.4,695.7A17.3,17.3,0,0,1,956,713.1a17.6,17.6,0,0,1-4.6-.6,176.6,176.6,0,0,1,11-17.1,39,39,0,0,1,8.6-8.6A17.9,17.9,0,0,1,973.4,695.7Z"/><path class="cls-10" d="M1024.7,695.7a17.4,17.4,0,1,1-22-16.8h0a41.8,41.8,0,0,1,20.8,10.6h0A15.9,15.9,0,0,1,1024.7,695.7Z"/><path class="cls-10" d="M945.9,736.4a17.5,17.5,0,0,1-13.4,16.9c3.2-8,6.4-15.8,10-23.5l1-2.1A16.9,16.9,0,0,1,945.9,736.4Z"/><circle class="cls-10" cx="979.7" cy="736.4" r="17.4"/><circle class="cls-10" cx="1030.9" cy="736.4" r="17.4"/><circle class="cls-10" cx="956" cy="782" r="17.4"/><circle class="cls-10" cx="1007.3" cy="782" r="17.4"/><path class="cls-10" d="M1070,795a17.4,17.4,0,1,1-11.5-30.4,17.8,17.8,0,0,1,5.3.8l.7,2.2,1.5,5.1c.3,1.2.6,2.4.8,3.6s.8,3.3,1.1,4.9A115.4,115.4,0,0,1,1070,795Z"/><path class="cls-10" d="M945.9,822.6A17.5,17.5,0,0,1,928.6,840a60.9,60.9,0,0,1-3-6.3,73.9,73.9,0,0,1-5.1-21.6h0l-.3-4.8a17.9,17.9,0,0,1,8.3-2.1A17.4,17.4,0,0,1,945.9,822.6Z"/><circle class="cls-10" cx="979.7" cy="822.6" r="17.4"/><circle class="cls-10" cx="1030.9" cy="822.6" r="17.4"/><path class="cls-10" d="M1070.2,810c-.1.7-.1,1.3-.2,2a73.1,73.1,0,0,1-3.7,17.9,17.7,17.7,0,0,1-1.6-7.3A17.3,17.3,0,0,1,1070.2,810Z"/><path class="cls-10" d="M973.4,868.2a18.7,18.7,0,0,1-.3,3.4c-2.2-.4-4.4-.8-6.6-1.4a61.1,61.1,0,0,1-23.9-13,17.1,17.1,0,0,1,13.4-6.4A17.3,17.3,0,0,1,973.4,868.2Z"/><path class="cls-10" d="M1024.7,868.2c0,.6-.1,1.2-.1,1.8h0l-.6.2c-8.9,2.4-18.1,3-27.1,2.9h-6.3a15.1,15.1,0,0,1-.7-4.8,17.4,17.4,0,0,1,34.8,0Z"/><path class="cls-10" d="M1053.8,851.5a68.1,68.1,0,0,1-11.4,10A17.5,17.5,0,0,1,1053.8,851.5Z"/><path class="cls-4" d="M1117.1,848.7c0,1.2-.1,2.4-.2,3.5s-.2,2.1-.4,3.1a30.6,30.6,0,0,1-1,5.1,40.6,40.6,0,0,1-1.9,5.9,37.8,37.8,0,0,1-4.8,8.5,42.8,42.8,0,0,1-4.9,5.5,39.2,39.2,0,0,1-16.8,9.6,61.7,61.7,0,0,1-17.6,1.9c-6.6-.1-13.2-.2-19.6-1.9a39.5,39.5,0,0,1-16.9-9.6,35.7,35.7,0,0,1-4.8-5.5,37.8,37.8,0,0,1-4.8-8.5,41,41,0,0,1-2-5.9c-.4-1.7-.7-3.4-1-5.1s-.3-2-.3-3h0c-.1-1.2-.2-2.3-.2-3.5a47.1,47.1,0,0,1,.3-7.5,46.1,46.1,0,0,1,.7-5c.2-1.3.5-2.7.8-4s.5-2.1.8-3.2l.6-2.4c.4-1.1.8-2.2,1.1-3.3l.5-1.2c.3-.9.6-1.8,1-2.7l.9-2.4c2-4.9,4-9.8,6.1-14.5l1.6-3.6c.2-.5.5-1,.7-1.6l.8-1.5a146.3,146.3,0,0,1,7.4-13.4l3.6-5.2.4-.6a27.6,27.6,0,0,1,23.7-11c8.6.7,15,5.4,20,11.6a47.2,47.2,0,0,1,3.5,5.2c.1.1.1.1.1.2,2.4,4,4.8,8.3,7.2,12.8.3.7.7,1.3,1,2a4.7,4.7,0,0,1,.5,1c.7,1.4,1.4,2.7,2,4.1,2.2,4.7,4.3,9.6,6.1,14.5.6,1.7,1.1,3.4,1.7,5.1l.3,1.2c.4,1.2.7,2.3,1,3.4l.6,2.3c.2,1,.5,2.1.7,3.2s.5,2.7.7,4l.6,5A61.5,61.5,0,0,1,1117.1,848.7Z"/><path class="cls-2" d="M1094.4,782.5a397.6,397.6,0,0,0-51.2,0l3.6-5.2a405.5,405.5,0,0,1,44.1,0A47.2,47.2,0,0,1,1094.4,782.5Z"/><path class="cls-2" d="M1105.2,802.6q-36.3-1.8-72.5,0l1.6-3.6c.2-.5.5-1,.7-1.6,22.6-.9,45.1-.9,67.7.1a4.7,4.7,0,0,1,.5,1C1103.9,799.9,1104.6,801.2,1105.2,802.6Z"/><path class="cls-2" d="M1113,822.2c-29.4-.6-58.9-.6-88.3,0,.3-.9.6-1.8,1-2.7l.9-2.4c28.2-.5,56.5-.5,84.7,0C1111.9,818.8,1112.4,820.5,1113,822.2Z"/><path class="cls-2" d="M1116.9,841.3c-16.1.4-32.3.5-48.4.5s-32.2-.1-48.3-.5a46.1,46.1,0,0,1,.7-5c31.7.6,63.6.6,95.4,0Z"/><path class="cls-2" d="M1116.5,855.3a30.6,30.6,0,0,1-1,5.1c-15.6,1-31.3,1.5-47,1.5s-31.4-.5-47.1-1.5c-.4-1.7-.7-3.4-1-5.1A770.4,770.4,0,0,0,1116.5,855.3Z"/><path class="cls-2" d="M1108.8,874.8a42.8,42.8,0,0,1-4.9,5.5c-11.8,1.1-23.6,1.6-35.4,1.6s-23.6-.5-35.5-1.6a35.7,35.7,0,0,1-4.8-5.5A387.7,387.7,0,0,0,1108.8,874.8Z"/><path class="cls-4" d="M900,875.4h28c-8.6-18.6-16.4-37.2-23.9-56.3s-15.7-37.5-28-53.7c-6.4-8.5-16.3-17.1-26.6-14-6.8,2-11.2,8.9-12.4,15.9s.6,14.1,2.6,20.9C850.4,823.5,871,852.9,900,875.4Z"/><path class="cls-4" d="M920.4,875.4h19.1c-.7-36-1.8-72.7-14.4-106.5-2.4-6.4-5.3-12.9-10.3-17.6s-12.6-7.3-19-4.8-9,7.5-10.5,13.1-1.1,11.5-.4,17.3A218.7,218.7,0,0,0,920.4,875.4Z"/><path class="cls-4" d="M937.4,875.4h23.8c4-26.4,9.1-53.9,6.8-80.5-.7-8-3.8-17.6-11.7-19.2-4.2-.9-8.6,1-11.6,3.9s-4.9,7-6.2,11c-4.5,13.4-3.9,27.8-3.2,41.8S936.7,861.1,937.4,875.4Z"/><path class="cls-5" d="M946.5,871.8l6.7-80.7"/><path class="cls-5" d="M930.5,867.1A452.5,452.5,0,0,1,898.6,763"/><path class="cls-5" d="M905.5,868.9a214.3,214.3,0,0,1-54.4-101.8"/><path class="cls-11" d="M1628.3,402.3c-4.6-.3-9.5,1.3-11.9,5.2a17.7,17.7,0,0,0-31-6.9c-.7-8.5-3.8-17.3-10.6-22.5s-17.9-5-22.8,2c-2.5-8.2-7-15.9-13.6-21.3s-15.4-8.4-23.8-7c-11.1,1.9-20,11.1-24.2,21.6s-4.4,22.1-3.7,33.3c-4.6-2.6-10.4-3.7-15.4-1.8s-8.9,7.2-8,12.4h174.1C1638.7,407.8,1634.7,402.8,1628.3,402.3Z"/><polyline class="cls-12" points="1262.3 776 1237.4 844.8 1184.2 846"/><path class="cls-13" d="M1175.9,833.1h0a17.7,17.7,0,0,1,17.7,17.7v4a0,0,0,0,1,0,0h-35.4a0,0,0,0,1,0,0v-4A17.7,17.7,0,0,1,1175.9,833.1Z" transform="translate(2295.8 -73) rotate(105)"/><circle class="cls-14" cx="1237.6" cy="844.4" r="12.9"/><circle class="cls-13" cx="1237.6" cy="844.4" r="6.7"/><line class="cls-12" x1="1311" y1="768.8" x2="1311" y2="903.4"/><path class="cls-13" d="M1311,892.5h0a17.7,17.7,0,0,1,17.7,17.7v4a0,0,0,0,1,0,0h-35.4a0,0,0,0,1,0,0v-4A17.7,17.7,0,0,1,1311,892.5Z"/><circle class="cls-14" cx="1311.1" cy="841.6" r="12.9"/><circle class="cls-13" cx="1311.1" cy="841.6" r="6.7"/><path class="cls-15" d="M1343.3,729.1h-64.5l11.6,63.8a13.2,13.2,0,0,0,12.9,10.7h17a13.1,13.1,0,0,0,12.9-11Z"/><path class="cls-4" d="M1306.3,749.7l-60.7-22-10.8,64.1A12.8,12.8,0,0,0,1243,806l16.5,5.9a12.6,12.6,0,0,0,15.5-5.8Z"/><path class="cls-12" d="M1322.5,559.6c-.6,19.1,5.5,44.4,23.1,51.7,29.9,12.6,67.8-16.6,76.3-43.1"/><circle class="cls-14" cx="1322.6" cy="555.7" r="12.9"/><circle class="cls-13" cx="1322.6" cy="555.7" r="6.7"/><path class="cls-4" d="M1350.3,754.5c-15.3,22.8-38.2,30.4-61.4,30.6a133,133,0,0,1-25.3-2.2c-38.9-7.1-61.3-42.2-61.9-81.9-.7-43.6,14-87.3,25.9-129.6,1.5-5.5,3-11,4.4-16.5,5.2-20.3,10.5-40.6,13.6-61.4,3.6-23.8,3.9-48.8,4-73.3.1-8.3.1-16.5.2-24.6,0-1.4.1-2.7.2-4.1h0a102.1,102.1,0,0,1,1.6-14.5c2.9-14.3,9.9-27.1,26.1-30.6,14-3,24.9,3.6,31.2,16,5.3,10.7,6.3,14.5,6.3,21.3h0c0,3-.2,6.6-.2,11.8-.3,39.6,7.1,91.8,16.4,130.1,12,49,29.3,94.9,34.3,145.2C1368.2,695.5,1369.8,725.5,1350.3,754.5Z"/><path class="cls-15" d="M1288.9,785.1a133,133,0,0,1-25.3-2.2c-38.9-7.1-61.3-42.2-61.9-81.9-.7-43.6,14-87.3,25.9-129.6,1.5-5.5,3-11,4.4-16.5,5.2-20.3,10.5-40.6,13.6-61.4,3.6-23.8,3.9-48.8,4-73.3,12.4,74.6-10.1,168-14.6,185.4-9.7,37.7-25.1,83.4-12.6,120.3C1231.8,753.5,1245.3,775.9,1288.9,785.1Z"/><path class="cls-4" d="M1326.7,343.1a23.9,23.9,0,0,0-1.3-2.1l-4.6-7.5c1.5,0,2.6-1.5,2.8-3a8.6,8.6,0,0,0-1-4.4c-2.5-6.2-5.8-12.1-7.7-18.6s-3.8-12.1-7.5-17a20.3,20.3,0,0,0-7.9-6.3c-4-1.9-8-1.7-12.2-2-7.8-.5-16.7,1.9-21.4,8.3s-6.3,13.1-9.3,19.7-7.4,14.5-11.5,21.5a12.5,12.5,0,0,0-1.8,4.1,4.2,4.2,0,0,0,1.3,4.1c1.2.9,3.3.6,3.8-.8a47.8,47.8,0,0,0-6.4,19.5c-.3,2.4-.3,5.9,2.6,6.7a6.4,6.4,0,0,0,4.1-.7,10.6,10.6,0,0,0,.2,4.7c.5,1.5,2.1,2.8,3.6,2.5a10.9,10.9,0,0,0,1.3,6,11.5,11.5,0,0,0,4.8,4.2,54.6,54.6,0,0,0,13.6,4.6c2.5.5,4.9.8,7.4,1.1a41.7,41.7,0,0,0,7.1.7c13.2-1.1,28.2-2.3,36.9-13.4a18.9,18.9,0,0,0,3.2-7.9c.2-1.2.8-8.3-.8-8.8a3.6,3.6,0,0,0,4-1.9,7.5,7.5,0,0,0,.4-4.7A25.2,25.2,0,0,0,1326.7,343.1Z"/><path class="cls-4" d="M1279.4,274.2l.3-.2a4.6,4.6,0,0,1,2.9-1.1c1.8,0,3.2,1.9,3.2,3.8a11.1,11.1,0,0,1-1.5,5.2l5.9-7a26.1,26.1,0,0,1,5.8-5.7c2-1.2,4.7-2.4,7.1-2s3.3,3.9,2.6,6.4a14.9,14.9,0,0,1-1.9,4.5l-3.3,6a15.2,15.2,0,0,1,3.3-3.4,4.6,4.6,0,0,1,4.4-.5c3.5,1.8,2.5,6.9,1.5,9.7a21.9,21.9,0,0,1-23.4,13.6c-2.6-.5-5.2-1.4-7.8-1.4-6.3-.1-11.1,5.1-12,11-4.6-3.3-5.6-11.2-3.9-16.3a44.1,44.1,0,0,1,7.3-12.6C1272.7,280.5,1275.6,276.9,1279.4,274.2Z"/><path class="cls-4" d="M1332.8,295.6c2.9-11,.4-22.9-5.2-33.3-1.4-2.7-3.8-5.7-7.1-5.3-5.7.6-6.1,8.8-6.3,12.6a82.1,82.1,0,0,1-3.2,19c-2.2,7.8-6.8,14.8-9.1,22.5a7.5,7.5,0,0,0-.2,2.1c.4,1.8,2.6,3,4.6,3.4a18.3,18.3,0,0,0,9.3-1.2C1325,311.6,1330.4,304.6,1332.8,295.6Z"/><path class="cls-13" d="M1314.5,303.9a3.1,3.1,0,0,0,2.6.8,6.3,6.3,0,0,0,2.7-1,17.5,17.5,0,0,0,7.3-9.6,34.9,34.9,0,0,0,.9-11.6c-.4-3.3-.9-8-3.4-10.5a2.8,2.8,0,0,0-3.6-.6c-1.1.8-1.1,2.2-1.3,3.4a43.4,43.4,0,0,1-.7,5.2,84,84,0,0,1-2.3,10.2c-.8,2.8-2.2,5.3-3,8S1313.1,302.6,1314.5,303.9Z"/><path class="cls-4" d="M1239.6,293.3c-.9-11.4,3.6-22.7,10.9-31.9,1.9-2.4,4.9-4.9,8-4,5.5,1.6,4.4,9.7,4,13.5a83.1,83.1,0,0,0-.2,19.3c.8,8.1,4.1,15.8,4.9,23.7a4.9,4.9,0,0,1-.1,2.1c-.7,1.8-3,2.6-5.1,2.6a17.2,17.2,0,0,1-9-2.9C1244.5,310.4,1240.3,302.6,1239.6,293.3Z"/><path class="cls-13" d="M1256.2,304.7a3.4,3.4,0,0,1-2.8.3,6.1,6.1,0,0,1-2.4-1.5,17.1,17.1,0,0,1-5.5-10.7,31.8,31.8,0,0,1,1.2-11.5c.9-3.3,2.2-7.9,5.1-9.9a3,3,0,0,1,3.7.1c.9,1,.7,2.4.6,3.6s-.2,3.5-.2,5.2a92.3,92.3,0,0,0,.5,10.5c.3,2.8,1.2,5.6,1.5,8.4S1257.8,303.7,1256.2,304.7Z"/><circle class="cls-13" cx="1275.4" cy="316.9" r="4.1"/><circle class="cls-13" cx="1305.7" cy="316.9" r="4.1"/><path class="cls-14" d="M1313.3,351a62.4,62.4,0,0,0-2-6.9c-2.7-8.4-8.1-23.3-18.8-23.3-6.5.1-11.9,5.7-14.7,12.1-.7,1.7-1.5,3.3-2.2,4.9-2.7,6.4-9.9,24.8,1.9,26.5a8.6,8.6,0,0,1,1.7.3l1,1a15.1,15.1,0,0,0,24.5,0,9.4,9.4,0,0,1,1-1,8.6,8.6,0,0,1,1.7-.3,7.6,7.6,0,0,0,5.9-5.3A15.5,15.5,0,0,0,1313.3,351Z"/><path class="cls-13" d="M1293.1,345.9c.4.4.6-.4.7-.8a9.2,9.2,0,0,0-1.1-4.3,10.5,10.5,0,0,0-6.5-5.4c-1.4-.4-3.6-.9-4.9-.1s0,3.6,1.3,4.4a11.2,11.2,0,0,0,4.4,1.3,4.9,4.9,0,0,1,2.4.5c1.8.8,2.4,3,3.6,4.4Z"/><path class="cls-13" d="M1293.8,345.9c-.4.4-.7-.4-.7-.8a7.3,7.3,0,0,1,1.1-4.3,10,10,0,0,1,6.5-5.4c1.4-.4,3.6-.9,4.9-.1s-.1,3.6-1.4,4.4a10.8,10.8,0,0,1-4.3,1.3,5.3,5.3,0,0,0-2.5.5c-1.7.8-2.3,3-3.6,4.4Z"/><path class="cls-16" d="M1293,344c.4,7.1.3,4.6.4,11.8"/><path class="cls-16" d="M1293.3,354.6a3.2,3.2,0,0,0,4.1,3.9,10,10,0,0,0,6.6-3.3"/><path class="cls-16" d="M1293.4,354.6c0,1.1,0,2.4-.9,3.2a4.4,4.4,0,0,1-3.2.7,10,10,0,0,1-6.6-3.3"/><path class="cls-13" d="M1301.7,356.9a9.4,9.4,0,0,1-12.2,3.3c-2.1-1.1-3.7-2.9-5.8-4a26,26,0,0,0,4.9,1.8,7.2,7.2,0,0,0,2.5.3,2.8,2.8,0,0,0,2.2-1.4,4.5,4.5,0,0,0,4.1,1.4A9.1,9.1,0,0,0,1301.7,356.9Z"/><path class="cls-16" d="M1278,383c10.8,5.8,22.1,4.7,31.5-1"/><path class="cls-8" d="M1384.3,606.2c0,1.4-.1,2.8-.2,4.2a59.2,59.2,0,0,1-4,17.1,48.8,48.8,0,0,1-8.2,13.3,59.5,59.5,0,0,1-6.2,6.1,47.8,47.8,0,0,1-17.9,9.3,76.1,76.1,0,0,1-21.3,2.3c-8-.1-16.1-.2-23.8-2.3a46.5,46.5,0,0,1-16.5-8.2,55.5,55.5,0,0,1-7.1-6.6,48.1,48.1,0,0,1-8.6-13.9,56.2,56.2,0,0,1-4-17h0c-.2-1.4-.2-2.8-.3-4.2s0-3,.1-4.6a81.4,81.4,0,0,1,.8-8.5c.3-2.3.8-4.7,1.3-6.9s.6-2.6,1-3.9a24.5,24.5,0,0,1,.8-2.9c.4-1.4.9-2.7,1.3-4.1l1.8-4.7c1.3-3.4,2.7-6.8,4.1-10.2l1.3-3.3c1.7-3.9,3.3-7.7,5.1-11.4.5-1.3,1.1-2.5,1.7-3.8a159.7,159.7,0,0,1,12-20.6l1.9-2.7a28.8,28.8,0,0,1,4.4-4.8,33.2,33.2,0,0,1,24.4-8.5c8.4.7,15.1,4.5,20.5,9.9a41.9,41.9,0,0,1,5.7,6.8,37.3,37.3,0,0,1,2.5,3.9q4.3,7.3,8.7,15.6c.6,1.2,1.2,2.4,1.9,3.6,1.7,3.5,3.4,7.1,5,10.7s2,4.7,2.9,7.1c1.6,4.1,3.1,8.3,4.3,12.5l1.2,4.1c.2.9.5,1.8.7,2.7s.6,2.6.8,3.9c.6,2.9,1.1,5.8,1.4,8.6s.4,3.7.5,5.6A56.1,56.1,0,0,1,1384.3,606.2Z"/><path class="cls-2" d="M1290,549.3a2,2,0,0,1-2.8-.1l-.4-.4-3-3c.5-1.3,1.1-2.5,1.7-3.8.9.9,1.9,1.7,2.8,2.7l1.7,1.8A2,2,0,0,1,1290,549.3Z"/><path class="cls-2" d="M1288.6,550l-1-.2a2,2,0,0,1-.7-2.7l7.1-12.4a2.2,2.2,0,0,1,1.5-1,2,2,0,0,1,1.7.6c2.3,2.6,4.7,5.5,7.3,8.8a2,2,0,0,1-3.1,2.4l-5.3-6.5-5.8,10A1.9,1.9,0,0,1,1288.6,550Z"/><path class="cls-2" d="M1302.9,546.5a1.9,1.9,0,0,1-1-.3,2.1,2.1,0,0,1-.7-2.7l2.8-4.6,4.7-7.7a1.7,1.7,0,0,1,1.6-.9,1.6,1.6,0,0,1,1.6.7c2.4,3.2,4.8,6.5,7.5,10.4a1.9,1.9,0,0,1-.5,2.7,2,2,0,0,1-2.8-.5c-2-2.8-3.8-5.4-5.6-7.8l-3.1,5.1-2.8,4.6A2.1,2.1,0,0,1,1302.9,546.5Z"/><path class="cls-2" d="M1317.7,544.7a1.9,1.9,0,0,1-1-.3,2,2,0,0,1-.6-2.7c2.9-4.6,5.3-8.3,7.6-11.7a1.9,1.9,0,0,1,1.6-.9h0a1.9,1.9,0,0,1,1.6.9l7.5,11.4a2,2,0,1,1-3.3,2.2l-5.8-8.9c-1.8,2.7-3.7,5.6-5.9,9.1A2,2,0,0,1,1317.7,544.7Z"/><path class="cls-2" d="M1347.5,546.3a1.9,1.9,0,0,1-1.6-1l-2.8-4.5-3-5-5.8,8a1.8,1.8,0,0,1-2.7.5,1.9,1.9,0,0,1-.5-2.7c2.7-3.9,5.2-7.4,7.6-10.5a1.6,1.6,0,0,1,1.6-.8,1.9,1.9,0,0,1,1.6.9c1.6,2.5,3.1,5,4.6,7.5l2.7,4.6a2,2,0,0,1-.6,2.7A2.3,2.3,0,0,1,1347.5,546.3Z"/><path class="cls-2" d="M1361.9,549.8a1.9,1.9,0,0,1-1.7-.9l-5.7-9.8-5.4,6.6a2,2,0,1,1-3.1-2.4c2.6-3.4,5-6.3,7.4-8.9a2.1,2.1,0,0,1,1.7-.7,2.3,2.3,0,0,1,1.5,1c2.8,5,4.9,8.7,7,12.2a2.1,2.1,0,0,1-.7,2.7Z"/><path class="cls-2" d="M1367.5,545.2q-2.1,1.9-4.2,4.2a2,2,0,0,1-2.8.1,2.1,2.1,0,0,1-.6-1,2.4,2.4,0,0,1,.5-1.8l1.9-2,3.3-3.1C1366.2,542.8,1366.8,544,1367.5,545.2Z"/><path class="cls-2" d="M1276,620.3l-.9.2a1.9,1.9,0,0,1-1.7-1c-.1-.2-.2-.3-.2-.4q-2.7-5.1-5.1-9.3l-1.6.7c-.2-1.4-.2-2.8-.3-4.2a12.9,12.9,0,0,0,1.6-.9,2.6,2.6,0,0,1,1.5-.2,2,2,0,0,1,1.2,1c1.7,2.8,3.4,6,5.4,9.6l.9,1.8A1.9,1.9,0,0,1,1276,620.3Z"/><path class="cls-2" d="M1288.6,627.3a1.8,1.8,0,0,1-1.7-1l-5.6-9.9a38.6,38.6,0,0,1-5.1,3.9,2,2,0,0,1-2.8-.6,2,2,0,0,1,.6-2.7,44.5,44.5,0,0,0,6.4-5.1,2.2,2.2,0,0,1,1.7-.5,1.8,1.8,0,0,1,1.4,1c2,3.4,4.3,7.4,6.8,12a1.9,1.9,0,0,1-.7,2.7A1.8,1.8,0,0,1,1288.6,627.3Z"/><path class="cls-2" d="M1302.9,631.9a2,2,0,0,1-1.7-1l-.4-.7-5.3-9.1c-1.9,2.2-3.8,4.2-5.5,5.9a2,2,0,0,1-2.8-.1,1.9,1.9,0,0,1,0-2.8,89.9,89.9,0,0,0,7-7.6,2.3,2.3,0,0,1,1.7-.7,2,2,0,0,1,1.5,1c2.3,3.7,4.5,7.5,6.8,11.4l.4.7a1.9,1.9,0,0,1-.7,2.7A1.7,1.7,0,0,1,1302.9,631.9Z"/><path class="cls-2" d="M1317.7,634.2a1.9,1.9,0,0,1-1.6-.9l-5.9-9.4c-2,2.8-3.9,5.2-5.7,7.5a2,2,0,0,1-2.8.3,2,2,0,0,1-.3-2.8l7.4-9.6a1.6,1.6,0,0,1,1.6-.8,1.7,1.7,0,0,1,1.6.9l7.4,11.8a2,2,0,0,1-.6,2.7A2,2,0,0,1,1317.7,634.2Z"/><path class="cls-2" d="M1317.7,634.4a1.7,1.7,0,0,1-1.1-.4,1.9,1.9,0,0,1-.5-2.7c2.3-3.3,4.8-6.9,7.6-11.1a1.9,1.9,0,0,1,1.6-.9h0a1.9,1.9,0,0,1,1.6.9l7.4,10.9a1.8,1.8,0,0,1-.4,2.7,2,2,0,0,1-2.8-.5c-1.8-2.5-3.7-5.3-5.8-8.4-2.1,3.2-4.1,6-5.9,8.7A2.1,2.1,0,0,1,1317.7,634.4Z"/><path class="cls-2" d="M1332.7,634.4a1.9,1.9,0,0,1-1-.3,1.9,1.9,0,0,1-.6-2.7c2.5-4.1,5.1-8.2,7.5-12a2,2,0,0,1,1.6-1,1.8,1.8,0,0,1,1.6.9c2.6,3.5,5,6.6,7.3,9.4a2,2,0,0,1-.3,2.8,2.1,2.1,0,0,1-2.8-.3c-1.8-2.2-3.6-4.6-5.6-7.3l-6,9.6A2,2,0,0,1,1332.7,634.4Z"/><path class="cls-2" d="M1347.5,632.1l-1-.3a2,2,0,0,1-.7-2.7l.4-.5c2.3-4,4.6-8,7-11.9a1.9,1.9,0,0,1,1.5-.9,1.9,1.9,0,0,1,1.7.7c2.4,2.8,4.7,5.3,6.8,7.5a1.9,1.9,0,0,1,.1,2.7,2,2,0,0,1-2.8.1c-1.7-1.7-3.5-3.6-5.3-5.7-1.9,3.1-3.8,6.3-5.6,9.5l-.4.5A1.8,1.8,0,0,1,1347.5,632.1Z"/><path class="cls-2" d="M1361.9,627.5l-1-.2a2.1,2.1,0,0,1-.8-2.7l7-12.3a2.1,2.1,0,0,1,1.4-1,2.2,2.2,0,0,1,1.7.6,50.3,50.3,0,0,0,6.2,5,2,2,0,0,1-2.1,3.3,50.9,50.9,0,0,1-5-3.8l-5.7,10.1A1.9,1.9,0,0,1,1361.9,627.5Z"/><path class="cls-2" d="M1384.3,606.2c0,1.4-.1,2.8-.2,4.2l-1.6-.7c-1.7,3-3.4,6.2-5.4,9.9a1.8,1.8,0,0,1-1.7,1.1,1.7,1.7,0,0,1-1-.3,1.2,1.2,0,0,1-.6-.6,1.8,1.8,0,0,1-.2-2,21.2,21.2,0,0,0,1.1-2.1c1.9-3.6,3.7-6.7,5.3-9.6a1.8,1.8,0,0,1,1.3-.9,1.6,1.6,0,0,1,1.5.2Z"/><path class="cls-2" d="M1380.9,579.6c-32.5-3.1-78.1-3.2-110.7-.1.4-1.4.9-2.7,1.3-4.1,32.2-2.9,76.3-2.8,108.2.1Z"/><path class="cls-2" d="M1382.4,586.2c-16.6,1-36.9,1.4-57.2,1.4s-40.2-.4-56.8-1.3c.3-1.3.6-2.6,1-3.9,32.9,1.7,79.4,1.7,112.2-.1C1381.9,583.6,1382.2,584.9,1382.4,586.2Z"/><path class="cls-2" d="M1269.2,598a4.6,4.6,0,0,1-2.9,3.7,81.4,81.4,0,0,1,.8-8.5A4.9,4.9,0,0,1,1269.2,598Z"/><path class="cls-2" d="M1286.9,600.2a5,5,0,0,1-10-1.2,4.9,4.9,0,0,1,5.5-4.2A5,5,0,0,1,1286.9,600.2Z"/><path class="cls-2" d="M1304.6,601.6a5,5,0,0,1-5.4,4.6,4.9,4.9,0,1,1,.7-9.8A5,5,0,0,1,1304.6,601.6Z"/><path class="cls-2" d="M1322.3,602.2a4.9,4.9,0,0,1-5.1,4.8,4.9,4.9,0,1,1,.2-9.8A4.9,4.9,0,0,1,1322.3,602.2Z"/><path class="cls-2" d="M1340.1,601.9a5,5,0,0,1-4.9,5.1,4.9,4.9,0,0,1-5.1-4.8,4.8,4.8,0,0,1,4.9-5A4.9,4.9,0,0,1,1340.1,601.9Z"/><path class="cls-2" d="M1357.8,600.9a5,5,0,0,1-10,.7,5,5,0,0,1,4.7-5.2A4.9,4.9,0,0,1,1357.8,600.9Z"/><path class="cls-2" d="M1375.5,599a5,5,0,0,1-10,1.2,5,5,0,0,1,4.5-5.4A4.9,4.9,0,0,1,1375.5,599Z"/><path class="cls-2" d="M1384.3,600.4a4.4,4.4,0,0,1-1.1-2.4,4.9,4.9,0,0,1,.6-3.2C1384,596.7,1384.2,598.5,1384.3,600.4Z"/><path class="cls-2" d="M1286.9,646.1a4.4,4.4,0,0,1-.7,1.9,55.5,55.5,0,0,1-7.1-6.6,5.4,5.4,0,0,1,3.3-.8A5,5,0,0,1,1286.9,646.1Z"/><path class="cls-2" d="M1304.6,647.4a5,5,0,0,1-5.4,4.6,4.8,4.8,0,0,1-4.6-5.2,4.9,4.9,0,0,1,5.3-4.6A5.1,5.1,0,0,1,1304.6,647.4Z"/><path class="cls-2" d="M1322.3,648a5,5,0,1,1-4.9-5A5,5,0,0,1,1322.3,648Z"/><path class="cls-2" d="M1340.1,647.8a5,5,0,0,1-10,.2,4.9,4.9,0,0,1,4.9-5A5.1,5.1,0,0,1,1340.1,647.8Z"/><path class="cls-2" d="M1357.8,646.8a4.8,4.8,0,0,1-4.6,5.2,4.9,4.9,0,0,1-5.4-4.6,5.1,5.1,0,0,1,4.7-5.2A4.9,4.9,0,0,1,1357.8,646.8Z"/><path class="cls-2" d="M1371.9,640.8a59.5,59.5,0,0,1-6.2,6.1c-.1-.3-.1-.6-.2-.8a5,5,0,0,1,4.4-5.5A4.4,4.4,0,0,1,1371.9,640.8Z"/><path class="cls-2" d="M1282.9,565.5a5,5,0,0,1-5.5-4.3v-.7l1.3-3.3a5.1,5.1,0,0,1,3.1-1.5,5,5,0,0,1,5.6,4.3A5.1,5.1,0,0,1,1282.9,565.5Z"/><path class="cls-2" d="M1305.1,558.7a5.1,5.1,0,0,0-5.4-4.7,4.9,4.9,0,0,0-4.6,5.3,5,5,0,0,0,5.3,4.6A5.1,5.1,0,0,0,1305.1,558.7Z"/><path class="cls-2" d="M1322.8,558.1a5,5,0,0,0-5.1-4.9,5,5,0,0,0-4.9,5.1,5.1,5.1,0,0,0,5.1,4.8A4.9,4.9,0,0,0,1322.8,558.1Z"/><path class="cls-2" d="M1340.6,558.3a5,5,0,0,0-4.9-5.1,5,5,0,1,0-.2,9.9A5.1,5.1,0,0,0,1340.6,558.3Z"/><path class="cls-2" d="M1358.3,559.3a4.9,4.9,0,0,0-4.6-5.3,5,5,0,1,0-.7,9.9A5,5,0,0,0,1358.3,559.3Z"/><path class="cls-2" d="M1375.4,563a5,5,0,0,1-9.4-3,5,5,0,0,1,5.6-4.3l.9.2C1373.5,558.2,1374.5,560.6,1375.4,563Z"/><path class="cls-2" d="M1300.4,522.2a4.7,4.7,0,0,1-2.9-.8l1.9-2.7a28.8,28.8,0,0,1,4.4-4.8,5.4,5.4,0,0,1,1.3,3A5.1,5.1,0,0,1,1300.4,522.2Z"/><path class="cls-2" d="M1322.8,516.4a5,5,0,0,0-5.1-4.9,5,5,0,0,0-4.9,5.1,5.1,5.1,0,0,0,5.1,4.8A4.9,4.9,0,0,0,1322.8,516.4Z"/><path class="cls-2" d="M1340.6,516.6a5,5,0,0,0-4.9-5.1,5,5,0,1,0-.2,9.9A5.1,5.1,0,0,0,1340.6,516.6Z"/><path class="cls-2" d="M1354.4,522.1H1353a5.1,5.1,0,0,1-4.7-5.3,4.2,4.2,0,0,1,.4-1.6A41.9,41.9,0,0,1,1354.4,522.1Z"/><path class="cls-12" d="M1244,557.5c-29.9,85.7,8.3,111.7,65.7,94.6"/><circle class="cls-14" cx="1245.6" cy="553.9" r="12.9"/><circle class="cls-13" cx="1245.6" cy="553.9" r="6.7"/><polyline class="cls-17" points="1311.6 652.1 1324.7 664.9 1335 663.7"/><polyline class="cls-17" points="1311.5 651.5 1321.3 636 1331.6 634.8"/><circle class="cls-14" cx="1309.7" cy="652.1" r="12.9"/><circle class="cls-13" cx="1309.7" cy="652.1" r="6.7"/><polyline class="cls-17" points="1422.8 566.6 1418.2 548.8 1424.4 540.5"/><polyline class="cls-17" points="1423.3 566.9 1441.6 566.2 1447.8 557.8"/><circle class="cls-14" cx="1421.9" cy="568.2" r="12.9"/><circle class="cls-13" cx="1421.9" cy="568.2" r="6.7"/><path class="cls-2" d="M1289.7,289.3a183.8,183.8,0,0,1,3.1-52.3c2.6-12.8,6.4-25.8,13.1-37.2a62,62,0,0,1,12.6-15.3c2.2-1.8,5.3-5,8.2-5.2s5.3,2.8,5.6,5.9c2.1,18-3.2,33.9-9.5,50.6s-13.2,32.6-18.6,49.3c-.9,2.7-1.7,5.3-2.5,8"/><path class="cls-6" d="M1300.9,239.3c3.6-13.8,8.6-27.6,18.4-37.9.4,22.5-6.9,44.4-14.1,65.8l-5.6,16.4c-.5,1.6-3.1,13.2-5.9,7.9-1-1.9,0-5.9.2-8s.4-5.6.7-8.4c.5-5.7,1.3-11.4,2.3-17.1A168,168,0,0,1,1300.9,239.3Z"/><path class="cls-2" d="M1270.5,295.1c1.1-3.6.7-7.6.1-11.4s-1.2-6.8-2.9-9.8c-3.4-5.9-25.6-19.9-30.4-23.6s-10.3-7.8-14.4-12.9a44.3,44.3,0,0,1-9.5-23.6,7.1,7.1,0,0,1,.2-2.5c2.3-6.5,13.7-1.1,17.2.7,6.3,3.2,14,6.9,20.1,10.3,11.9,6.5,20.8,12.9,26.1,24.2,1.9,4.3,2.8,8.9,3.7,13.5,1.9,10.6,3.4,21.1,4.5,31.8"/><path class="cls-6" d="M1281.3,292.2a56.6,56.6,0,0,0-.6-12h0l-2.7-2c-2.2-1.6-6.7-5.8-8.8-7.4,5.6,10.7,6.1,16,5.9,23A28.3,28.3,0,0,1,1281.3,292.2Z"/><path class="cls-13" d="M1252.4,318.7a25.6,25.6,0,0,1,.5-2.7l.7-2.7a27.6,27.6,0,0,1,.8-2.7l1.1-2.7a34.7,34.7,0,0,1,6.2-9.7,33.7,33.7,0,0,1,9.6-7.1l2.7-1.1,1.4-.5,1.5-.5a41.7,41.7,0,0,1,6-1c2-.1,4,0,6,.1a58.6,58.6,0,0,1,5.8,1,30.8,30.8,0,0,1,10.9,5,27.5,27.5,0,0,1,7.4,9,27.1,27.1,0,0,1,2.4,5.2,23.9,23.9,0,0,1,1.5,5.4,72.9,72.9,0,0,0-6.7-8.6,30.9,30.9,0,0,0-7.7-6.4,24.4,24.4,0,0,0-4.4-1.9,42.1,42.1,0,0,0-4.8-1.2,41.5,41.5,0,0,0-9.9-.6,24.1,24.1,0,0,0-4.8.7l-1.1.3-1.2.4-2.3.8a31.7,31.7,0,0,0-8.5,5C1260.3,306.4,1256.3,312.4,1252.4,318.7Z"/><path class="cls-11" d="M1138,355c-1.9-.7-4.8-.3-6.1,1.2a5.9,5.9,0,0,0-10.3-1.9c.4-6.1-3.5-12.2-9.1-14.8a17.5,17.5,0,0,0-17.5,1.9,20.1,20.1,0,0,0-7.8,16,10.3,10.3,0,0,0-6.7-.5,5.7,5.7,0,0,0-4,5h64.2C1141.9,358.1,1139.8,355.6,1138,355Z"/><path class="cls-11" d="M1639,610.2c-5.4-3.8-12.8-4.7-18.6-1.5a17.5,17.5,0,0,0-8.7,16.5,9.3,9.3,0,0,0-9.1-.8,9.1,9.1,0,0,0-5,7.7h47.2C1647.4,624.3,1644.6,614.1,1639,610.2Z"/><path class="cls-8" d="M1582.7,880.1v1.8c-.1,1.1-.1,2.1-.2,3.2h0c0,.5-.1,1-.1,1.5a72.5,72.5,0,0,1-3.1,15.4,32.5,32.5,0,0,1-1.5,4c0,.2-.1.3-.2.5a55.9,55.9,0,0,1-28.1,29,9.5,9.5,0,0,1-2.1.9,42.7,42.7,0,0,1-6,2.1l-4.2,1h0l-4.4.7a80.9,80.9,0,0,1-9.7.8h-5.9l-8.5-.2-3.9-.2a89.4,89.4,0,0,1-10.4-1.2l-3.2-.8-1-.2a56,56,0,0,1-32-23.9,37.9,37.9,0,0,1-2-3.4h0a49,49,0,0,1-2.4-5.2,47,47,0,0,1-2.2-6.3,71.5,71.5,0,0,1-2.4-12.9h0c-.1-1.5-.2-3-.2-4.4V882c-.1-2.1,0-4.2.1-6.3h0a101.2,101.2,0,0,1,2.3-16.4c.4-1.4.7-2.9,1.1-4.3h0c.3-1.1.7-2.2,1-3.2l.6-2,.9-2.7c.6-1.8,1.3-3.5,2-5.3,1.3-3.4,2.7-6.8,4-10.1h0q2.4-5.9,4.8-11.4l3-6.7c.7-1.4,1.4-2.8,2-4.2,2.2-4.5,4.6-8.9,7.1-13.3h.1c1-1.8,2-3.5,3.1-5.2s3.6-5.3,5.5-8a37.9,37.9,0,0,1,25.5-14.9h0l3.7-.2h0a18.2,18.2,0,0,1,3.3.1c14.3,1.1,24.3,10.3,31.4,21.5a17.4,17.4,0,0,1,1.1,1.8l4.3,7.4,2.3,4h0l3.3,6.2,2.1,4.1c2.3,4.7,4.6,9.5,6.7,14.5.7,1.5,1.3,3.1,1.9,4.6,2,5,3.7,10,5.3,15.1l.6,2.4a18.7,18.7,0,0,1,.7,2.2c.2,1.1.5,2.1.7,3.2a12.2,12.2,0,0,1,.6,2.6h0a11.6,11.6,0,0,1,.4,1.8.6.6,0,0,1,.1.4h0a107,107,0,0,1,2.1,18.5h0Z"/><path class="cls-2" d="M1515.8,767.7h-.1a.1.1,0,0,1-.1.1h0c0,.1-.1.1-.1.2a.1.1,0,0,0-.1.1c-.1,0-.1.1-.2.2h-.1l-.2.2h-1.8l-.6-.3-.3-.3c-.1-.1-.1-.1-.1-.2Z"/><path class="cls-2" d="M1515.8,767.7h-.1a.1.1,0,0,1-.1.1h0c0,.1-.1.1-.1.2a.1.1,0,0,0-.1.1c-.1,0-.1.1-.2.2h-.1l-.2.2h-1.8l-.6-.3-.3-.3c-.1-.1-.1-.1-.1-.2Z"/><path class="cls-2" d="M1487.3,800.6l-.3.3h-.2l-.3.3-1.1.2h-.6l-.7-.3-.4-.4h0l-5-5.8h-.1l-.6,1c1-1.8,2-3.5,3.1-5.2,1.4,1.5,2.7,3.1,4.1,4.8a21.1,21.1,0,0,1,1.9,2.3A2.3,2.3,0,0,1,1487.3,800.6Z"/><path class="cls-2" d="M1485.4,801.5a3.1,3.1,0,0,1-1.3-.3,2.4,2.4,0,0,1-.6-3.2l7.1-10.3a2.2,2.2,0,0,1,3.6-.1l7.1,8.9a2.3,2.3,0,0,1-.4,3.2,2.2,2.2,0,0,1-3.1-.4c-1.8-2.3-3.5-4.5-5.2-6.5l-5.3,7.8A2.5,2.5,0,0,1,1485.4,801.5Z"/><path class="cls-2" d="M1499.5,800.2a2.4,2.4,0,0,1-1.3-.5,2.2,2.2,0,0,1-.5-3.1l7.1-10a2.3,2.3,0,0,1,1.8-.9,2.4,2.4,0,0,1,1.9.8c2.3,3,4.6,6.2,7.1,9.6a2.3,2.3,0,0,1-.4,3.2,2.4,2.4,0,0,1-3.2-.5l-5.3-7.1-5.3,7.5A2.6,2.6,0,0,1,1499.5,800.2Z"/><path class="cls-2" d="M1528.1,800.2a2.2,2.2,0,0,1-1.8-1l-5.4-7.5-5.3,7.1a2.2,2.2,0,0,1-3.1.5,2.4,2.4,0,0,1-.5-3.2l7.2-9.6a2.3,2.3,0,0,1,1.8-.8h0a2.1,2.1,0,0,1,1.8.9l7.2,10a2.2,2.2,0,0,1-.6,3.1A2.1,2.1,0,0,1,1528.1,800.2Z"/><path class="cls-2" d="M1542.3,801.5a2.2,2.2,0,0,1-1.9-.9l-5.3-7.8c-1.7,2-3.4,4.2-5.2,6.5a2.3,2.3,0,0,1-3.2.4,2.5,2.5,0,0,1-.4-3.2l7.2-8.9a2.1,2.1,0,0,1,1.8-.9,2.5,2.5,0,0,1,1.8,1c2.3,3.5,4.7,6.9,7,10.3a2.3,2.3,0,0,1-.6,3.2A2.7,2.7,0,0,1,1542.3,801.5Z"/><path class="cls-2" d="M1558.2,802.5c-.1.3-.3.4-.4.6l-.2.2h-.2c0,.1,0,.1-.1.1h0c-.2.2-.4.2-.6.3h-.6a2.3,2.3,0,0,1-1.1-.3h-.2c-.1-.1-.1-.2-.2-.2l-.2-.2a.3.3,0,0,1-.1-.2.1.1,0,0,1-.1-.1l-5.2-7.9-4.9,5.7h-.1a.8.8,0,0,1-.4.4h-.2l-.3.2h-1.5l-.5-.2h0l-.3-.2h0c-.2-.1-.3-.3-.5-.5a2.4,2.4,0,0,1,.2-2.6c.7-.8,1.3-1.6,2-2.3l5-5.9a2.2,2.2,0,0,1,3-.4,17.4,17.4,0,0,1,1.1,1.8l4.3,7.4Z"/><path class="cls-2" d="M1558.2,802.6l-.4.5h0l-.2.2h-.2a.1.1,0,0,1-.1.1c-.2.2-.4.2-.6.3h-.6a2.3,2.3,0,0,1-1.1-.3h-.2l-.2-.2h0l-.2-.2a.3.3,0,0,1-.1-.2,2.3,2.3,0,0,1,.1-2.8l1.5-1.6,2.3,4Z"/><path class="cls-2" d="M1473.4,831.5a1.8,1.8,0,0,1-.8.7l-.6.3h-.7c-.1,0-.2,0-.2-.1h-.5l-.3-.2-.3-.2a.2.2,0,0,0-.2-.2l-4.8-5.8-4,5.7q2.4-5.9,4.8-11.4a1.8,1.8,0,0,1,.7.5l4.9,5.8,1.9,2.3A2.1,2.1,0,0,1,1473.4,831.5Z"/><path class="cls-2" d="M1471.6,832.5a1.8,1.8,0,0,1-1.3-.4,2.3,2.3,0,0,1-.6-3.2l6.9-9.7a2.3,2.3,0,0,1,1.7-1,2.6,2.6,0,0,1,1.9.8l7,8.8a2.3,2.3,0,1,1-3.6,2.8c-1.7-2.3-3.4-4.4-5-6.4l-5.2,7.3A2,2,0,0,1,1471.6,832.5Z"/><path class="cls-2" d="M1485.4,831.4a2,2,0,0,1-1.3-.4,2.1,2.1,0,0,1-.5-3.1l7-9.9a2.1,2.1,0,0,1,1.8-.9,2.1,2.1,0,0,1,1.8.8c2.3,2.9,4.6,5.9,7.1,9.3a2.1,2.1,0,0,1-.4,3.1,2.3,2.3,0,0,1-3.2-.4c-1.8-2.4-3.5-4.7-5.2-6.8l-5.3,7.4A2.1,2.1,0,0,1,1485.4,831.4Z"/><path class="cls-2" d="M1499.5,830.8a2.2,2.2,0,0,1-1.3-.4,2.4,2.4,0,0,1-.5-3.2l.6-.8,6.6-9a2,2,0,0,1,1.8-.9h0a2.1,2.1,0,0,1,1.8.9l7.1,9.6a2.1,2.1,0,0,1-.4,3.1,2.3,2.3,0,0,1-3.2-.4l-5.3-7.2-4.8,6.6-.5.8A2.5,2.5,0,0,1,1499.5,830.8Z"/><path class="cls-2" d="M1528.1,830.8a2.1,2.1,0,0,1-1.8-.9v-.2l-5.2-7.2-5.4,7.2a2.1,2.1,0,0,1-3.1.4,2.2,2.2,0,0,1-.5-3.1l7.2-9.6a2.1,2.1,0,0,1,1.8-.9h0a2.1,2.1,0,0,1,1.8.9l7,9.6v.2a2.2,2.2,0,0,1-.5,3.2A2,2,0,0,1,1528.1,830.8Z"/><path class="cls-2" d="M1542.3,831.4a2.5,2.5,0,0,1-1.9-.9c-1.7-2.5-3.5-4.9-5.3-7.4l-5.2,6.8a2.1,2.1,0,0,1-3.1.4,2.2,2.2,0,0,1-.5-3.1l7.1-9.3a2.4,2.4,0,0,1,1.9-.8,2.3,2.3,0,0,1,1.8.9l7,9.9a2.2,2.2,0,0,1-.5,3.1A2.2,2.2,0,0,1,1542.3,831.4Z"/><path class="cls-2" d="M1556.1,832.5a2,2,0,0,1-1.8-1c-1.7-2.4-3.5-4.8-5.2-7.3l-5.1,6.4a2.2,2.2,0,0,1-3.1.4,2.3,2.3,0,0,1-.4-3.2l7-8.8a2.3,2.3,0,0,1,1.8-.8,2.5,2.5,0,0,1,1.8,1l6.8,9.7a2.3,2.3,0,0,1-.5,3.2A2,2,0,0,1,1556.1,832.5Z"/><path class="cls-2" d="M1569.5,834a2.2,2.2,0,0,1-1.8-1l-5-7.1c-1.6,1.8-3.2,3.8-4.8,5.8a2.3,2.3,0,0,1-3.2.3,2.2,2.2,0,0,1-.3-3.2c2.3-2.9,4.6-5.6,6.8-8.1a2,2,0,0,1,1.8-.7,2.2,2.2,0,0,1,1.7.9l6.6,9.5a2.3,2.3,0,0,1-.5,3.2A3.3,3.3,0,0,1,1569.5,834Z"/><path class="cls-2" d="M1572.2,832l-1,1.2h0a1,1,0,0,1-.5.4h-.2l-.4.2h-1.7l-.4-.3-.3-.4a2.3,2.3,0,0,1,.1-2.8l1.9-2.1.6-.7C1571,828.9,1571.6,830.5,1572.2,832Z"/><path class="cls-2" d="M1460.1,859.8l-.2.2c0,.1-.1.1-.1.2h-.2l-.3.2a.1.1,0,0,1-.1.1h-.8a.5.5,0,0,1-.5,0h-.4l-.5-.3h-.2l-.2-.2h-.2l-3.9-5h0c.3-1.1.7-2.2,1-3.2l.6-2,4.1,5.2,1.8,2.3A2.3,2.3,0,0,1,1460.1,859.8Z"/><path class="cls-2" d="M1471.6,861.1a2.1,2.1,0,0,1-1.8-.9l-5-6.5c-1.7,2.3-3.3,4.3-4.9,6.3a2.2,2.2,0,0,1-3.1.4,2.3,2.3,0,0,1-.4-3.2c2.1-2.6,4.3-5.4,6.6-8.5a2.1,2.1,0,0,1,1.8-.9h0a2.5,2.5,0,0,1,1.8.8l6.8,8.9a2.4,2.4,0,0,1-.5,3.2A2.2,2.2,0,0,1,1471.6,861.1Z"/><path class="cls-2" d="M1485.4,861.3a2.1,2.1,0,0,1-1.8-.9c-1.8-2.5-3.5-4.7-5.2-6.9-1.7,2.4-3.4,4.6-5.1,6.7a2.2,2.2,0,0,1-3.1.5,2.3,2.3,0,0,1-.4-3.2l6.8-9a2.5,2.5,0,0,1,1.8-1h0a2.4,2.4,0,0,1,1.8.9l7,9.3a2.4,2.4,0,0,1-.5,3.2A2,2,0,0,1,1485.4,861.3Z"/><path class="cls-2" d="M1499.5,861.4a2.4,2.4,0,0,1-1.8-.9c-1.7-2.4-3.5-4.7-5.3-7.1-1.7,2.4-3.5,4.7-5.2,7a2.3,2.3,0,1,1-3.6-2.7c2.3-3.1,4.7-6.2,7-9.4a2.3,2.3,0,0,1,1.8-.9h0a2.1,2.1,0,0,1,1.8.9l7.2,9.5a2.3,2.3,0,0,1-.5,3.2A2.3,2.3,0,0,1,1499.5,861.4Z"/><path class="cls-2" d="M1513.8,861.5a2.3,2.3,0,0,1-1.8-.9l-1.2-1.7c-1.4-1.9-2.8-3.7-4.1-5.6q-2.7,3.8-5.4,7.2a2.2,2.2,0,0,1-3.1.5,2.4,2.4,0,0,1-.5-3.2l7.2-9.6a2.4,2.4,0,0,1,1.8-.9h0a2.1,2.1,0,0,1,1.8.9c1.9,2.7,3.9,5.3,5.9,8l1.2,1.7a2.1,2.1,0,0,1-.4,3.1A2.4,2.4,0,0,1,1513.8,861.5Z"/><path class="cls-2" d="M1513.8,861.5a2.4,2.4,0,0,1-1.3-.5,2.2,2.2,0,0,1-.5-3.1l1.3-1.7,5.9-8a2.1,2.1,0,0,1,1.8-.9h0a2.4,2.4,0,0,1,1.8.9l7.1,9.6a2.3,2.3,0,0,1-.4,3.2,2.4,2.4,0,0,1-3.2-.5c-1.8-2.3-3.5-4.7-5.3-7.2l-4.1,5.6-1.3,1.7A2.1,2.1,0,0,1,1513.8,861.5Z"/><path class="cls-2" d="M1528.1,861.4a2.2,2.2,0,0,1-1.3-.4,2.3,2.3,0,0,1-.5-3.2l7.1-9.5a2.1,2.1,0,0,1,1.8-.9h0a2.1,2.1,0,0,1,1.8.9l7.1,9.4a2.4,2.4,0,0,1-.5,3.2,2.2,2.2,0,0,1-3.1-.5l-5.3-7c-1.7,2.4-3.5,4.7-5.3,7.1A2.1,2.1,0,0,1,1528.1,861.4Z"/><path class="cls-2" d="M1542.3,861.3a2.3,2.3,0,0,1-1.4-.4,2.3,2.3,0,0,1-.4-3.2l6.9-9.3a2.6,2.6,0,0,1,1.8-.9h0a2.4,2.4,0,0,1,1.8,1l6.9,9a2.3,2.3,0,0,1-.4,3.2,2.4,2.4,0,0,1-3.2-.5l-5.1-6.7-5.1,6.9A2.3,2.3,0,0,1,1542.3,861.3Z"/><path class="cls-2" d="M1556.1,861.1a2,2,0,0,1-1.3-.4,2.4,2.4,0,0,1-.5-3.2l6.8-8.9a2.3,2.3,0,0,1,1.8-.8h0a2.3,2.3,0,0,1,1.8.9c2.3,3,4.5,5.9,6.6,8.5a2.3,2.3,0,1,1-3.6,2.8l-4.9-6.3c-1.5,2.1-3.2,4.3-4.9,6.5A2.1,2.1,0,0,1,1556.1,861.1Z"/><path class="cls-2" d="M1580.5,859.3a.6.6,0,0,1,.1.4h0a.1.1,0,0,1-.1-.1c-1.5-1.8-3-3.6-4.5-5.6-1.5,1.9-3.1,3.8-4.7,6h0l-.2.2h-.2l-.2.2h-1.2c-.1,0-.2,0-.2-.1h-1.2a.1.1,0,0,0-.1-.1h-.1l-.3-.4a2.3,2.3,0,0,1,.1-2.6l1.8-2.3,4.7-6a2.5,2.5,0,0,1,1.8-.8,2.3,2.3,0,0,1,1.8.9l.3.5a18.7,18.7,0,0,1,.7,2.2c.2,1.1.5,2.1.7,3.2a12.2,12.2,0,0,1,.6,2.6h0A11.6,11.6,0,0,1,1580.5,859.3Z"/><path class="cls-2" d="M1580.5,859.3a.6.6,0,0,1,.1.4h0a.1.1,0,0,1-.1-.1,2.3,2.3,0,0,1-.4-2.1A11.6,11.6,0,0,1,1580.5,859.3Z"/><path class="cls-2" d="M1459.9,886.9c0,.1,0,.1-.1.1l-.3.3-.4.2h-.9l-1-.2-.4-.2v-.2h-.1l-.3-.3h0l-4.8-6.9-2.5,2.6V882c-.1-2.1,0-4.2.1-6.3h0l.9-1a2.2,2.2,0,0,1,1.8-.8,2.1,2.1,0,0,1,1.7,1c1.6,2.1,3.2,4.5,4.9,6.9l1.6,2.4A2.2,2.2,0,0,1,1459.9,886.9Z"/><path class="cls-2" d="M1471.6,889.8a2.3,2.3,0,0,1-1.9-1l-5.1-7.3c-1.6,2-3.2,3.8-4.8,5.5a2.2,2.2,0,0,1-3.3-3c2.1-2.3,4.3-4.9,6.6-7.6a2.3,2.3,0,0,1,1.8-.8,2.2,2.2,0,0,1,1.7.9l6.8,9.7a2.3,2.3,0,0,1-.6,3.2A2.8,2.8,0,0,1,1471.6,889.8Z"/><path class="cls-2" d="M1485.4,891.2a2.1,2.1,0,0,1-1.8-.9c-1.8-2.5-3.5-5-5.3-7.4l-5,6.1a2.3,2.3,0,0,1-3.2.2,2.2,2.2,0,0,1-.3-3.1l6.9-8.4a2.3,2.3,0,0,1,1.8-.8,2.1,2.1,0,0,1,1.8.9c2.3,3.3,4.6,6.5,6.9,9.9a2.1,2.1,0,0,1-.5,3.1A2.2,2.2,0,0,1,1485.4,891.2Z"/><path class="cls-2" d="M1499.5,892.1a2.1,2.1,0,0,1-1.8-1l-5.3-7.4-5.2,6.7a2.3,2.3,0,0,1-3.6-2.9c2.3-2.7,4.6-5.7,7.1-8.9a2.1,2.1,0,0,1,1.8-.9,2.2,2.2,0,0,1,1.8,1l7.1,9.8a2.4,2.4,0,0,1-.5,3.2A3.3,3.3,0,0,1,1499.5,892.1Z"/><path class="cls-2" d="M1513.8,892.4a2.3,2.3,0,0,1-1.8-.9l-5.3-7.3-5.4,7a2.2,2.2,0,0,1-3.5-2.7l7.1-9.5a2.4,2.4,0,0,1,1.8-.9h0a2.2,2.2,0,0,1,1.8,1l7.1,9.7a2.1,2.1,0,0,1-.4,3.1A2.4,2.4,0,0,1,1513.8,892.4Z"/><path class="cls-2" d="M1513.8,892.4a2.4,2.4,0,0,1-1.3-.5,2.2,2.2,0,0,1-.5-3.1l7.2-9.7a2.2,2.2,0,0,1,1.8-1,2.4,2.4,0,0,1,1.8.9l7.1,9.5a2.1,2.1,0,0,1-.4,3.1,2.3,2.3,0,0,1-3.2-.4l-5.3-7-5.4,7.3A2.1,2.1,0,0,1,1513.8,892.4Z"/><path class="cls-2" d="M1528.1,892.1a3.3,3.3,0,0,1-1.3-.4,2.4,2.4,0,0,1-.5-3.2l7.1-9.8a2.2,2.2,0,0,1,1.8-1,2.1,2.1,0,0,1,1.8.9l7,8.9a2.3,2.3,0,1,1-3.5,2.9l-5.2-6.7-5.3,7.4A2.3,2.3,0,0,1,1528.1,892.1Z"/><path class="cls-2" d="M1542.3,891.2a2,2,0,0,1-1.3-.4,2.2,2.2,0,0,1-.6-3.1l7-9.9a2.1,2.1,0,0,1,1.8-.9,2.1,2.1,0,0,1,1.8.8c2.3,2.9,4.6,5.8,6.8,8.4a2.2,2.2,0,0,1-.2,3.1,2.3,2.3,0,0,1-3.2-.2l-5.1-6.1-5.2,7.4A2.1,2.1,0,0,1,1542.3,891.2Z"/><path class="cls-2" d="M1556.1,889.8a3.3,3.3,0,0,1-1.3-.4,2.3,2.3,0,0,1-.5-3.2l6.7-9.7a2.4,2.4,0,0,1,1.8-.9,2.5,2.5,0,0,1,1.8.8l6.6,7.6a2.2,2.2,0,0,1-.2,3.1,2.2,2.2,0,0,1-3.2-.1l-4.8-5.5c-1.6,2.3-3.3,4.7-5,7.3A2.6,2.6,0,0,1,1556.1,889.8Z"/><path class="cls-2" d="M1582,879.3l.7.8v1.8c-.1,1.1-.1,2.1-.2,3.2h-1.2l-.3-.2-.4-.4-4.4-4.5-4.8,6.9a3.4,3.4,0,0,1-.6.6h-.1l-.4.2h-1.4l-.5-.2h-.2l-.5-.4a2.4,2.4,0,0,1-.1-2.7l1.7-2.4,4.8-6.9a2.2,2.2,0,0,1,1.7-1,2.1,2.1,0,0,1,1.8.8Z"/><path class="cls-2" d="M1582.7,878.3v3.6c-.1,1.1-.1,2.1-.2,3.2h-1.2l-.3-.2-.4-.4a2.1,2.1,0,0,1-.2-2.7l1.6-2.3A6.1,6.1,0,0,1,1582.7,878.3Z"/><path class="cls-2" d="M1459.6,914.1h0l-.2.2-.9.3h-.3a37.9,37.9,0,0,1-2-3.4h0a49,49,0,0,1-2.4-5.2,47,47,0,0,1-2.2-6.3h.4a2.5,2.5,0,0,1,1.6,1.1c1.7,2.6,3.3,5.3,5,8l1.5,2.4A2.2,2.2,0,0,1,1459.6,914.1Z"/><path class="cls-2" d="M1473.2,917.7h0l-.4.3-.3.2h-2l-.5-.3-.2-.3-.2-.3-5.1-7.9-4.8,4.7h-.1l-.2.2-.9.3h-.3a37.9,37.9,0,0,1-2-3.4h0l.4-.5,2-1.9,4.6-4.7a2.3,2.3,0,0,1,1.8-.7,2.7,2.7,0,0,1,1.7,1c1.7,2.7,3.4,5.4,5.2,8.1l1.6,2.4A2.4,2.4,0,0,1,1473.2,917.7Z"/><path class="cls-2" d="M1485.4,921.1a2.6,2.6,0,0,1-1.9-1l-5.2-7.8v-.2l-5,5.6a2.3,2.3,0,0,1-3.3-3.1c2.2-2.3,4.5-4.9,6.8-7.6a2.4,2.4,0,0,1,1.9-.8,2.1,2.1,0,0,1,1.7,1l1.7,2.6,5.3,7.8a2.2,2.2,0,0,1-.6,3.1A2.2,2.2,0,0,1,1485.4,921.1Z"/><path class="cls-2" d="M1499.5,922.7a2.1,2.1,0,0,1-1.8-.9l-5.4-7.8-5.2,6.3a2.2,2.2,0,1,1-3.4-2.9l7-8.5a2.1,2.1,0,0,1,1.8-.9,2.5,2.5,0,0,1,1.8,1l7.1,10.2a2.2,2.2,0,0,1-.6,3.1A2,2,0,0,1,1499.5,922.7Z"/><path class="cls-2" d="M1513.8,923.3a2.4,2.4,0,0,1-1.8-1l-5.4-7.3-5.3,6.9a2.3,2.3,0,0,1-3.2.3,2.2,2.2,0,0,1-.3-3.1l7.1-9.2a1.9,1.9,0,0,1,1.8-.9,2.1,2.1,0,0,1,1.8.9l7.1,9.8a2.1,2.1,0,0,1-.4,3.1A2.4,2.4,0,0,1,1513.8,923.3Z"/><path class="cls-2" d="M1513.8,923.3a2.4,2.4,0,0,1-1.3-.5,2.2,2.2,0,0,1-.5-3.1l7.2-9.8a2,2,0,0,1,1.8-.9,1.9,1.9,0,0,1,1.8.9l7.1,9.2a2.1,2.1,0,0,1-.4,3.1,2.2,2.2,0,0,1-3.1-.3c-1.8-2.2-3.5-4.5-5.4-6.9-1.9,2.6-3.6,5-5.4,7.3A2.2,2.2,0,0,1,1513.8,923.3Z"/><path class="cls-2" d="M1528.1,922.7a2.2,2.2,0,0,1-1.3-.4,2.2,2.2,0,0,1-.5-3.1l7.1-10.2a2.2,2.2,0,0,1,3.6-.1l7,8.5a2.2,2.2,0,0,1-.3,3.2,2.3,2.3,0,0,1-3.2-.3c-1.6-2-3.4-4.1-5.1-6.3l-5.4,7.8A2.5,2.5,0,0,1,1528.1,922.7Z"/><path class="cls-2" d="M1542.3,921.1a2,2,0,0,1-1.3-.4,2.2,2.2,0,0,1-.6-3.1l5.1-7.6,1.9-2.8a2.2,2.2,0,0,1,3.5-.2c2.4,2.7,4.7,5.3,6.9,7.6a2.2,2.2,0,0,1-.2,3.2,2.2,2.2,0,0,1-3.1-.1c-1.7-1.8-3.3-3.6-5-5.6l-.3.4-5.1,7.6A2.2,2.2,0,0,1,1542.3,921.1Z"/><path class="cls-2" d="M1556.1,918.4a1.9,1.9,0,0,1-1.2-.4,2.2,2.2,0,0,1-.7-3.1l6.8-10.5a2.7,2.7,0,0,1,1.7-1,2.4,2.4,0,0,1,1.8.7q3.4,3.6,6.6,6.6a2.2,2.2,0,0,1,0,3.2,2.3,2.3,0,0,1-3.2.1l-4.7-4.7c-1.7,2.6-3.5,5.3-5.2,8.1A2.4,2.4,0,0,1,1556.1,918.4Z"/><path class="cls-2" d="M1577.5,900.3l1.8,1.7a32.5,32.5,0,0,1-1.5,4c0,.2-.1.3-.2.5l-1.2-1-4.9,7.9h-.1l-.3.4c0,.1-.1.1-.1.2h-.2l-.4.2-.6.2h-.9l-.6-.2-.2-.2c-.1-.1-.2-.1-.2-.2a2.1,2.1,0,0,1-.3-2.7l1.5-2.4c1.6-2.7,3.3-5.4,5-8a2.1,2.1,0,0,1,1.6-1.1A2.8,2.8,0,0,1,1577.5,900.3Z"/><path class="cls-2" d="M1494.4,939.5l-3.2-.8a2.2,2.2,0,0,1,1.4-.3,2.1,2.1,0,0,1,1.7,1A.1.1,0,0,1,1494.4,939.5Z"/><path class="cls-2" d="M1508.7,940.9l-3.9-.2h.1a2.1,2.1,0,0,1,1.8-.9,2.4,2.4,0,0,1,1.8.9C1508.6,940.8,1508.6,940.9,1508.7,940.9Z"/><path class="cls-2" d="M1523.1,941h-4.2l.3-.4a2.2,2.2,0,0,1,1.7-.9,2.5,2.5,0,0,1,1.9.9Z"/><path class="cls-2" d="M1537.2,939.5l-4.4.7.6-.8a1.9,1.9,0,0,1,1.7-1,1.8,1.8,0,0,1,1.8.8Z"/><path class="cls-2" d="M1549,935.5h.5a9.5,9.5,0,0,1-2.1.9A2.6,2.6,0,0,1,1549,935.5Z"/><path class="cls-11" d="M1065.9,538.7c-4.3-2.5-10.8-1.9-14.3,1.9a13.7,13.7,0,0,0-10.5-11.8,13.9,13.9,0,0,0-14.6,6.1c2.4-13.7-9.1-28.2-23-28.8s-26.7,12.9-25.4,26.7c-5.2-8.4-16.6-12.3-25.9-9.1a22.6,22.6,0,0,0-14.5,23.2c-6.1-4.5-14.1-1.1-14.8,5.2h148.2S1072.8,542.6,1065.9,538.7Z"/><g class="cls-18"><g class="cls-18"><path class="cls-19" d="M201.1,89.8a2.2,2.2,0,0,1,4.4-.4.3.3,0,0,1,0,.4v.5a5.3,5.3,0,0,1,1.6-2.3,5.1,5.1,0,0,1,3.1-1.1c3,0,4.9,1.2,5.5,3.5a5,5,0,0,1,1.9-2.4,6,6,0,0,1,3.4-1.1c4.1,0,6.1,2.6,6.1,6.6v15.9a2.2,2.2,0,0,1-2,2.4,2.1,2.1,0,0,1-2.3-2c-.1-.2-.1-.3,0-.4V94.8c0-2.8-.9-4-2.8-4s-3.7,2.2-3.7,6.6v12a2.2,2.2,0,0,1-2,2.4,2.1,2.1,0,0,1-2.3-2c-.1-.2-.1-.3,0-.4V94.8c0-2.8-.8-4-2.8-4s-3.7,2.4-3.7,7.2v11.4a2.1,2.1,0,0,1-1.9,2.4,2.3,2.3,0,0,1-2.5-2v-20Z"/><path class="cls-19" d="M254.4,104.6a2.5,2.5,0,0,0-1.8.8c-1.7,2-4.1,3-7.3,3a7.1,7.1,0,0,1-5.1-2.1,9.1,9.1,0,0,1-2.4-4.9h16.8a2.3,2.3,0,0,0,2.5-2.1v-.4a11.7,11.7,0,0,0-3.3-8.5,10.9,10.9,0,0,0-8.5-3.4,11.5,11.5,0,0,0-8.8,3.6,14.2,14.2,0,0,0,0,18,11.5,11.5,0,0,0,8.8,3.6c4.3,0,7.8-1.2,10.4-3.7a2.3,2.3,0,0,0,.2-3.2h0a1.9,1.9,0,0,0-1.5-.8ZM240.3,92.8a7.4,7.4,0,0,1,5-2,6.3,6.3,0,0,1,4.7,1.9,9.7,9.7,0,0,1,2.5,4.8H237.8a8.3,8.3,0,0,1,2.5-4.7"/><path class="cls-19" d="M270.6,77.2a2.2,2.2,0,0,1,2.2,2.4v7.8h8.8c1.5,0,2.3.7,2.3,2s-.8,1.9-2.3,1.9h-8.8V104c0,3,1.6,4.3,3.8,4.3a5.6,5.6,0,0,0,3.3-.8l1.4-1a2.1,2.1,0,0,1,1.3-.5,2,2,0,0,1,2,2h0a2.9,2.9,0,0,1-1.4,2.1,11.2,11.2,0,0,1-6.9,2,8.5,8.5,0,0,1-5.7-1.9c-1.4-1.2-2.2-3.2-2.2-5.9V91.3h-6.3c-1.5,0-2.3-.6-2.3-1.9s.8-1.9,2.3-1.9h6.3V79.6a2.2,2.2,0,0,1,2.1-2.4Z"/><path class="cls-19" d="M310.3,87.4c-1.2,0-2.1,1-2.2,2.6a6.8,6.8,0,0,0-3-2.3,9.9,9.9,0,0,0-3.8-.7,10.2,10.2,0,0,0-8.4,3.7,14.7,14.7,0,0,0,0,17.8,10.1,10.1,0,0,0,8.4,3.7,10.7,10.7,0,0,0,3.9-.7,7.3,7.3,0,0,0,2.9-2.3c.1,1.6,1,2.6,2.2,2.6a2.4,2.4,0,0,0,2.4-2.2V89.9a2.3,2.3,0,0,0-2.1-2.5h-.3m-4,18.5a6.5,6.5,0,0,1-9.2,1l-.9-1a10.9,10.9,0,0,1,0-12.6,6.5,6.5,0,0,1,9.1-1.1,5.2,5.2,0,0,1,1,1.1,9.4,9.4,0,0,1,1.9,6.3,9.4,9.4,0,0,1-1.9,6.3"/><path class="cls-4" d="M328.9,107.9V81.6h-5.5c-1.3,0-2.4-.7-2.4-1.9s1.1-1.9,2.4-1.9H331a2,2,0,0,1,2.2,1.9v28.2h7.1c1.3,0,2.4.7,2.4,1.9s-1.1,2-2.4,2H321.8c-1.4,0-2.4-.8-2.4-2s1-1.9,2.4-1.9h7.1Z"/><path class="cls-4" d="M365.5,87.4c-1.2,0-2.1,1-2.2,2.6a6.5,6.5,0,0,0-2.9-2.3,10.7,10.7,0,0,0-3.9-.7,10,10,0,0,0-8.3,3.7,14.5,14.5,0,0,0-.1,17.8,11.3,11.3,0,0,0,12.3,3,7.6,7.6,0,0,0,3-2.3c.1,1.6.9,2.6,2.2,2.6a2.3,2.3,0,0,0,2.3-2.2V89.9a2.3,2.3,0,0,0-2-2.5h-.4m-4,18.5a6.4,6.4,0,0,1-9.1,1l-1-1a9.4,9.4,0,0,1-1.9-6.3,9.4,9.4,0,0,1,1.9-6.3,6.5,6.5,0,0,1,9.1-1.1,5.2,5.2,0,0,1,1,1.1,10.9,10.9,0,0,1,0,12.6"/><path class="cls-4" d="M375.5,89.8a2.2,2.2,0,0,1,4.4-.4v.9a4.1,4.1,0,0,1,1.6-2.3,4.6,4.6,0,0,1,3-1.1c3.1,0,4.9,1.2,5.6,3.5a4.8,4.8,0,0,1,1.8-2.4,6,6,0,0,1,3.4-1.1c4.1,0,6.2,2.6,6.2,6.6v15.9a2.3,2.3,0,0,1-2,2.4,2.2,2.2,0,0,1-2.4-2v-15c0-2.8-.9-4-2.8-4s-3.6,2.2-3.6,6.6v12a2.3,2.3,0,0,1-2,2.4,2.2,2.2,0,0,1-2.4-2v-15c0-2.8-.8-4-2.8-4s-3.6,2.4-3.6,7.2v11.4a2.2,2.2,0,1,1-4.4.4v-20Z"/><path class="cls-4" d="M428.4,87.4c-1.2,0-2.1,1-2.2,2.6a6.8,6.8,0,0,0-3-2.3,9.9,9.9,0,0,0-3.8-.7,10,10,0,0,0-8.3,3.7,13.3,13.3,0,0,0-3.1,8.9,13.7,13.7,0,0,0,3,8.9,10.1,10.1,0,0,0,8.4,3.7,9.9,9.9,0,0,0,3.8-.7,6.9,6.9,0,0,0,3-2.3c.1,1.6,1,2.6,2.2,2.6a2.2,2.2,0,0,0,2.3-2.2V89.9a2.3,2.3,0,0,0-2-2.5h-.3m-4,18.5a6.5,6.5,0,0,1-9.2,1,4.3,4.3,0,0,1-.9-1,10.9,10.9,0,0,1,0-12.6,6.5,6.5,0,0,1,9.1-1.1l1,1.1a9.4,9.4,0,0,1,1.9,6.3,9.4,9.4,0,0,1-1.9,6.3"/><path class="cls-20" d="M427.8,148a6.8,6.8,0,0,1-5.6,2.3,8.6,8.6,0,0,1-2.7-.5,3.4,3.4,0,0,1-1.8-1.5v6.4a1.4,1.4,0,0,1-1.4,1.5,1.4,1.4,0,0,1-1.5-1.5V135.9a1.4,1.4,0,0,1,1.5-1.5,1.5,1.5,0,0,1,1.4,1.5,3.5,3.5,0,0,1,1.9-1.4,7.7,7.7,0,0,1,2.7-.4,7.2,7.2,0,0,1,5.5,2.1,9.4,9.4,0,0,1,1.9,6,9,9,0,0,1-1.9,5.8m-2.1-9.9a4.1,4.1,0,0,0-3.4-1.6,3.9,3.9,0,0,0-3.4,1.6,6.5,6.5,0,0,0-1.2,4.1,6.3,6.3,0,0,0,1.2,4.1,4.6,4.6,0,0,0,6.8,0,6.3,6.3,0,0,0,1.2-4.1,6.5,6.5,0,0,0-1.2-4.1m-14.8,1.2a1.3,1.3,0,0,1-1.2-.9,3.1,3.1,0,0,0-2.9-1.8,4,4,0,0,0-3.6,1.8,7.8,7.8,0,0,0-1.2,4.4v5.6a1.4,1.4,0,0,1-1.4,1.6,1.4,1.4,0,0,1-1.5-1.6V136a1.5,1.5,0,0,1,1.5-1.6A1.5,1.5,0,0,1,402,136v.7a4.7,4.7,0,0,1,1.9-1.8,6,6,0,0,1,2.9-.8c2.7,0,4.5,1,5.6,2.9a2.2,2.2,0,0,1,.1.8,1.6,1.6,0,0,1-1.6,1.5m-17.8,10.6a1.4,1.4,0,0,1-1.4-1.6,4.8,4.8,0,0,1-2,1.4,6.6,6.6,0,0,1-2.7.6,6.8,6.8,0,0,1-5.5-2.4,8.1,8.1,0,0,1-2-5.7,8.8,8.8,0,0,1,2-5.7,7.1,7.1,0,0,1,5.6-2.4,8,8,0,0,1,2.6.5,4.8,4.8,0,0,1,2,1.4,1.4,1.4,0,0,1,1.4-1.6,1.4,1.4,0,0,1,1.5,1.5v12.5a1.4,1.4,0,0,1-1.5,1.5m-2.7-11.8a4.1,4.1,0,0,0-3.4-1.6,4.4,4.4,0,0,0-3.4,1.6,7.6,7.6,0,0,0,0,8.2,4.3,4.3,0,0,0,3.4,1.5,4.1,4.1,0,0,0,3.4-1.5,7.1,7.1,0,0,0,0-8.2M375.7,150a1.4,1.4,0,0,1-1.5-1.5v-7.8a5.4,5.4,0,0,0-.7-3.2,3.1,3.1,0,0,0-2.5-1,3.9,3.9,0,0,0-3.3,1.7,7.4,7.4,0,0,0-1.2,4.4v5.8A1.5,1.5,0,0,1,365,150a1.3,1.3,0,0,1-1.4-1.5V129.7a1.4,1.4,0,0,1,1.4-1.6,1.5,1.5,0,0,1,1.4,1.6v6.8a3.5,3.5,0,0,1,1.7-1.7,7.3,7.3,0,0,1,2.9-.7c4.1,0,6.1,2,6.1,6v8.4a1.4,1.4,0,0,1-1.4,1.5Zm-21.6-8.9,1.8.3,1.7.4a3.5,3.5,0,0,1,2.8,3.6,4.4,4.4,0,0,1-2,3.7,8.2,8.2,0,0,1-5,1.3c-3-.1-5.1-1-6.6-2.8a1.4,1.4,0,0,1,1-2.4,1.6,1.6,0,0,1,1.3.7,5.2,5.2,0,0,0,4.3,2c2.7,0,4-.8,4-2.5s-.3-1.1-1.3-1.4l-1.2-.3-1.7-.2-2.3-.4-1.9-.7a3.5,3.5,0,0,1-2-3.4,4.3,4.3,0,0,1,1.8-3.6,8.4,8.4,0,0,1,4.5-1.2c2.7,0,4.7.9,5.9,2.6a1.2,1.2,0,0,1,.3.9,1.4,1.4,0,0,1-1.5,1.4,1.3,1.3,0,0,1-1.2-.7,3.7,3.7,0,0,0-3.5-1.7c-2.1,0-3.4.8-3.4,2.2S351.4,140.7,354.1,141.1Z"/><path class="cls-20" d="M289.4,148a6.7,6.7,0,0,1-5.5,2.3,7.6,7.6,0,0,1-2.7-.5,4.1,4.1,0,0,1-1.9-1.4v6.3a1.3,1.3,0,0,1-1.4,1.5,1.4,1.4,0,0,1-1.4-1.5V135.9a1.4,1.4,0,1,1,2.8,0,4.5,4.5,0,0,1,1.9-1.4,8.4,8.4,0,0,1,2.7-.4,6.8,6.8,0,0,1,5.5,2.2,8,8,0,0,1,2,5.9,8.5,8.5,0,0,1-2,5.8m-2-9.9a4.2,4.2,0,0,0-3.4-1.5,4.1,4.1,0,0,0-3.4,1.5,6.6,6.6,0,0,0-1.2,4.2,6.5,6.5,0,0,0,1.2,4.1,4.1,4.1,0,0,0,3.4,1.5,4.2,4.2,0,0,0,3.4-1.5,6.4,6.4,0,0,0,1.1-4.1,7.2,7.2,0,0,0-1.1-4.2"/><path class="cls-20" d="M307.3,148.1a7.4,7.4,0,0,1-5.6,2.3,7.5,7.5,0,0,1-5.6-2.3,8.3,8.3,0,0,1-2.1-5.8,8.5,8.5,0,0,1,2.1-5.9,7.2,7.2,0,0,1,5.6-2.3,7,7,0,0,1,5.6,2.3,8.6,8.6,0,0,1,2.2,5.9,8.3,8.3,0,0,1-2.2,5.8m-2.1-10a4.3,4.3,0,0,0-3.5-1.5,4.5,4.5,0,0,0-3.5,1.5,6,6,0,0,0-1.3,4.2,5.9,5.9,0,0,0,1.3,4.1,4.5,4.5,0,0,0,3.5,1.5,4.4,4.4,0,0,0,3.5-1.5,6,6,0,0,0,1.4-4.1,6.1,6.1,0,0,0-1.4-4.2"/><path class="cls-20" d="M312.3,147.7a1.8,1.8,0,0,1-.5-1.1,1.5,1.5,0,0,1,1.5-1.4,1.6,1.6,0,0,1,1.3.7,5.2,5.2,0,0,0,4.3,2c2.7,0,4-.8,4-2.4s-.3-1.1-1.3-1.4l-1.2-.3-1.7-.3-2.3-.4-1.9-.7a3.4,3.4,0,0,1-2-3.3,4,4,0,0,1,1.8-3.6,7.7,7.7,0,0,1,4.5-1.3c2.7,0,4.7.9,5.9,2.6a1.4,1.4,0,0,1-1.2,2.3,1.4,1.4,0,0,1-1.2-.6,3.8,3.8,0,0,0-3.5-1.8c-2.1,0-3.4.8-3.4,2.2s1.5,1.8,4.2,2.2l1.9.3,1.6.4a5.3,5.3,0,0,1,1.5.7,3.8,3.8,0,0,1,1.3,2.9,4.2,4.2,0,0,1-1.9,3.7,8.7,8.7,0,0,1-5,1.4c-3-.2-5.2-1.1-6.7-2.8Z"/><path class="cls-20" d="M332.8,129.4a1.4,1.4,0,1,1,2.8,0v5h5.9c1,0,1.5.4,1.5,1.3s-.5,1.3-1.5,1.3h-5.9v8.1c0,1.9,1.1,2.8,2.5,2.8a4,4,0,0,0,2.3-.6l.9-.6.9-.3a1.3,1.3,0,0,1,1.3,1.3,1.7,1.7,0,0,1-.9,1.4,8.6,8.6,0,0,1-4.6,1.3,5.6,5.6,0,0,1-3.8-1.2,4.6,4.6,0,0,1-1.5-3.8v-8.5h-4.2c-1,0-1.5-.4-1.5-1.3s.5-1.2,1.5-1.2h4.2v-5Z"/><path class="cls-21" d="M237.2,150.8a6.8,6.8,0,0,0,5.3-2.1c1.3-1.4,1.9-3.4,1.9-6a8.6,8.6,0,0,0-1.9-5.8,6.5,6.5,0,0,0-5.3-2.3,7.5,7.5,0,0,0-2.6.5,3.5,3.5,0,0,0-1.8,1.5v-6.4a1.5,1.5,0,0,0-1.4-1.6,1.4,1.4,0,0,0-1.4,1.6V149a1.4,1.4,0,0,0,1.4,1.5,1.5,1.5,0,0,0,1.4-1.5,3.7,3.7,0,0,0,1.8,1.4,7.5,7.5,0,0,0,2.6.4m4.4-8.1a7.1,7.1,0,0,1-1.1,4.1,4.4,4.4,0,0,1-6.6,0,8.2,8.2,0,0,1,0-8.2,4.4,4.4,0,0,1,6.6,0,7.1,7.1,0,0,1,1.1,4.1"/><path class="cls-21" d="M250.2,157.1a4.9,4.9,0,0,0,3.9-1.7,21.5,21.5,0,0,0,3.2-5.3l6-13.1a1.8,1.8,0,0,0,.1-.6,1.5,1.5,0,0,0-.9-1.4h-.6a1.5,1.5,0,0,0-1.4.9l-4.6,10.5-4.6-10.5a1.4,1.4,0,0,0-1.4-.9h-.6a1.4,1.4,0,0,0-.7,2l5.7,13v.4a15,15,0,0,1-1.8,3.3,2.9,2.9,0,0,1-2.2.9l-1.5-.3a1.2,1.2,0,0,0-1.2,1.2c0,1.1.9,1.6,2.7,1.6Z"/><path class="cls-4" d="M94.4,123h-16a1,1,0,0,0-1,1v14.1a1,1,0,0,0,1,1H88.7a1,1,0,0,0,.9-.6l5.6-14.2a.9.9,0,0,0-.8-1.3"/><path class="cls-4" d="M149.2,123h-35l9.9-56.1a1,1,0,0,0-1-1.1H109a.8.8,0,0,0-.9.7L104.5,87H84.7a.9.9,0,0,0-.9.9v14.2a.9.9,0,0,0,.9.9h16.9l-9.3,53a1,1,0,0,0,1,1.1h14.1a.9.9,0,0,0,.9-.8l3.1-17.2h20.1l-3,16.9a1,1,0,0,0,1,1.1h14.1a.9.9,0,0,0,.9-.8l5.7-32.2a1,1,0,0,0-.9-1.1"/><path class="cls-4" d="M167.8,123H157a1,1,0,0,0-.9.6l-5.6,14.2a.9.9,0,0,0,.9,1.3h16.4a1,1,0,0,0,1-1V124a.9.9,0,0,0-1-1"/><path class="cls-4" d="M174.2,87H156.7l3.5-20.1a.9.9,0,0,0-.9-1.1H145.2a1,1,0,0,0-1,.7L140.7,87H127.1a1,1,0,0,0-.9.6l-5.6,14.1a1,1,0,0,0,.9,1.3h16.3l-2.3,13.2a.9.9,0,0,0,.7,1.1l13.6,3.1a.9.9,0,0,0,1.2-.7l2.9-16.7h20.3a.9.9,0,0,0,.9-.9V87.9a.9.9,0,0,0-.9-.9"/></g></g><text class="cls-22" transform="translate(77.5 512.7)">Status Update<tspan x="0" y="95.2" xml:space="preserve"> - March 2024</tspan></text></g></svg>