<svg xmlns="http://www.w3.org/2000/svg" xmlns:xlink="http://www.w3.org/1999/xlink" viewBox="0 0 1920 1080"><defs><style>.cls-1,.cls-14,.cls-19,.cls-20,.cls-21{fill:none;}.cls-2{fill:#cba6ff;}.cls-3{clip-path:url(#clip-path);}.cls-4{fill:#110b1d;}.cls-5,.cls-8{fill:#6122b2;}.cls-6,.cls-7{fill:#666;}.cls-6{fill-rule:evenodd;}.cls-8{font-size:80px;font-family:Monosten-Regular, Monosten;}.cls-9{fill:#250d45;}.cls-10{fill:#e6d4ff;}.cls-11{fill:#f6f0ff;}.cls-12{fill:#91db9b;}.cls-13{fill:#78c282;}.cls-14,.cls-19,.cls-20{stroke:#260d46;}.cls-14,.cls-19,.cls-20,.cls-21{stroke-linecap:round;stroke-linejoin:round;}.cls-14{stroke-width:17px;}.cls-15{fill:#260d46;}.cls-16{fill:#e8d7ff;}.cls-17{fill:#6b1fbf;}.cls-18{fill:#973bfc;}.cls-19,.cls-21{stroke-width:2px;}.cls-20{stroke-width:7px;}.cls-21{stroke:#fff;}.cls-22{fill:#fff;}</style><clipPath id="clip-path"><rect class="cls-1" x="77.8" y="66.8" width="353.3" height="91.34"/></clipPath></defs><g id="may_1" data-name="may 1"><rect class="cls-2" width="1920" height="1080"/><g class="cls-3"><g class="cls-3"><path class="cls-4" d="M201.5,90.8a2.2,2.2,0,0,1,4.4-.4v1a4,4,0,0,1,1.6-2.4,4.1,4.1,0,0,1,3-1c3,0,4.9,1.1,5.6,3.4a4.8,4.8,0,0,1,1.8-2.4,5.2,5.2,0,0,1,3.4-1c4.1,0,6.2,2.5,6.2,6.6v15.8a2.2,2.2,0,1,1-4.4.4v-15c0-2.8-.9-4-2.8-4s-3.6,2.2-3.6,6.6v12a2.2,2.2,0,1,1-4.4.4v-15c0-2.8-.8-4-2.8-4s-3.6,2.4-3.6,7.2v11.4a2.2,2.2,0,1,1-4.4.4v-20Z"/><path class="cls-4" d="M254.7,105.6a2.1,2.1,0,0,0-1.7.8c-1.7,2-4.1,3-7.3,3a6.9,6.9,0,0,1-5.1-2.1,7.6,7.6,0,0,1-2.4-4.9H255a2.2,2.2,0,0,0,2.4-2.1v-.4a11.8,11.8,0,0,0-3.3-8.5,11,11,0,0,0-8.4-3.4,11.3,11.3,0,0,0-8.8,3.6,14.1,14.1,0,0,0,0,18.1c2.2,2.4,5.1,3.5,8.8,3.5s7.8-1.2,10.3-3.7a2.2,2.2,0,0,0,.3-3.2h-.1a1.7,1.7,0,0,0-1.5-.7Zm-14-11.8a6.6,6.6,0,0,1,5-1.9,6.5,6.5,0,0,1,4.7,1.8,11.1,11.1,0,0,1,2.5,4.8H238.2a7.8,7.8,0,0,1,2.5-4.7"/><path class="cls-4" d="M271,78.2c1.3,0,2.1,1,2.1,2.5v7.8H282c1.5,0,2.2.6,2.2,1.9s-.7,1.9-2.2,1.9h-8.9V105c0,3,1.6,4.3,3.8,4.3a5.9,5.9,0,0,0,3.4-.8l1.4-1a2.6,2.6,0,0,1,1.2-.5,2,2,0,0,1,2,2h0a2.5,2.5,0,0,1-1.3,2.1,11.6,11.6,0,0,1-6.9,2,8.5,8.5,0,0,1-5.8-1.9c-1.4-1.2-2.1-3.2-2.1-5.9v-13h-6.3c-1.6,0-2.3-.7-2.3-2s.7-1.9,2.3-1.9h6.3V80.7a2.2,2.2,0,0,1,2-2.4Z"/><path class="cls-4" d="M310.6,88.5c-1.2,0-2,.9-2.2,2.5a5.8,5.8,0,0,0-2.9-2.2,9.1,9.1,0,0,0-3.9-.8,10,10,0,0,0-8.3,3.7,13.3,13.3,0,0,0-3.1,8.9,14,14,0,0,0,3,9,10.3,10.3,0,0,0,8.4,3.6,10,10,0,0,0,3.9-.7,7.3,7.3,0,0,0,3-2.2c.1,1.5.9,2.5,2.1,2.5a2.3,2.3,0,0,0,2.4-2.1V90.9a2.2,2.2,0,0,0-2-2.4h-.4M306.7,107a6.5,6.5,0,0,1-9.2.9l-1-.9a10.5,10.5,0,0,1-1.9-6.4,10.2,10.2,0,0,1,1.9-6.3,6.4,6.4,0,0,1,9.1-1,5.2,5.2,0,0,1,1.1,1,10,10,0,0,1,1.9,6.3,10.5,10.5,0,0,1-1.9,6.4"/><path class="cls-5" d="M329.2,108.9V82.6h-5.4c-1.4,0-2.4-.7-2.4-1.9s1-1.9,2.4-1.9h7.6a2.1,2.1,0,0,1,2.2,1.9v28.2h7c1.4,0,2.4.7,2.4,2s-1,1.9-2.4,1.9H322.1c-1.3,0-2.3-.7-2.3-1.9a2,2,0,0,1,2.3-2Z"/><path class="cls-5" d="M365.8,88.5c-1.2,0-2,.9-2.1,2.5a6.5,6.5,0,0,0-3-2.2,10,10,0,0,0-3.8-.8,10.2,10.2,0,0,0-8.4,3.7,13.7,13.7,0,0,0-3,8.9,13.4,13.4,0,0,0,3,9,10.3,10.3,0,0,0,8.4,3.6,9.9,9.9,0,0,0,3.8-.7,6.7,6.7,0,0,0,3-2.2,2.4,2.4,0,0,0,2.2,2.5,2.4,2.4,0,0,0,2.4-2.1V90.9a2.2,2.2,0,0,0-2.1-2.4h-.3m-4,18.5a6.5,6.5,0,0,1-9.2.9l-1-.9a10.5,10.5,0,0,1-1.9-6.4,10.2,10.2,0,0,1,1.9-6.3,6.4,6.4,0,0,1,9.1-1,5.2,5.2,0,0,1,1.1,1,10,10,0,0,1,1.9,6.3,10.5,10.5,0,0,1-1.9,6.4"/><path class="cls-5" d="M375.8,90.8a2.2,2.2,0,1,1,4.4-.4c.1.2.1.3,0,.4v.6a4.7,4.7,0,0,1,4.7-3.4c3,0,4.8,1.1,5.5,3.4a5,5,0,0,1,1.9-2.4,5.2,5.2,0,0,1,3.4-1c4.1,0,6.1,2.5,6.1,6.6v15.8a2.2,2.2,0,0,1-2,2.4,2.3,2.3,0,0,1-2.4-2v-15c0-2.8-.8-4-2.7-4S391,94,391,98.4v12a2.2,2.2,0,0,1-4.4.4v-15c0-2.8-.7-4-2.8-4s-3.6,2.4-3.6,7.2v11.4a2.2,2.2,0,0,1-4.4.4v-20Z"/><path class="cls-5" d="M428.7,88.5c-1.2,0-2,.9-2.2,2.5a6.3,6.3,0,0,0-2.9-2.2,10.8,10.8,0,0,0-12.2,2.9,14.4,14.4,0,0,0-3.1,8.9,14.6,14.6,0,0,0,3,9,10.6,10.6,0,0,0,8.4,3.6,10,10,0,0,0,3.9-.7,7.3,7.3,0,0,0,3-2.2c.1,1.5.9,2.5,2.1,2.5a2.3,2.3,0,0,0,2.4-2.2V90.9a2.2,2.2,0,0,0-2.1-2.4h-.3M424.8,107a6.5,6.5,0,0,1-9.2.9l-1-.9a10.5,10.5,0,0,1-1.9-6.4,10.2,10.2,0,0,1,1.9-6.3,6.4,6.4,0,0,1,9.1-1,5.2,5.2,0,0,1,1.1,1,10.2,10.2,0,0,1,1.9,6.3,10.5,10.5,0,0,1-1.9,6.4"/><path class="cls-6" d="M428.1,149.1a7,7,0,0,1-5.6,2.2,5.8,5.8,0,0,1-2.6-.5,3.5,3.5,0,0,1-1.9-1.4v6.3a1.5,1.5,0,0,1-1.4,1.6,1.4,1.4,0,0,1-1.4-1.6V136.9a1.3,1.3,0,0,1,1.4-1.5,1.4,1.4,0,0,1,1.4,1.5,3.8,3.8,0,0,1,1.9-1.3,6.2,6.2,0,0,1,2.7-.5,6.8,6.8,0,0,1,5.5,2.2,8.4,8.4,0,0,1,2,5.9,9,9,0,0,1-2,5.9m-2.1-10a4.1,4.1,0,0,0-3.4-1.5,3.9,3.9,0,0,0-3.4,1.5,6.4,6.4,0,0,0-1.1,4.1,6.9,6.9,0,0,0,1.1,4.1,3.9,3.9,0,0,0,3.4,1.5,3.8,3.8,0,0,0,3.4-1.5,6.3,6.3,0,0,0,1.2-4.1,6.5,6.5,0,0,0-1.2-4.1m-14.7,1.2a1.4,1.4,0,0,1-1.3-.9,2.9,2.9,0,0,0-2.8-1.8,4.1,4.1,0,0,0-3.7,1.8,7.8,7.8,0,0,0-1.2,4.4v5.7a1.4,1.4,0,0,1-1.4,1.5,1.3,1.3,0,0,1-1.4-1.5V137a1.4,1.4,0,0,1,1.4-1.6,1.5,1.5,0,0,1,1.4,1.6v.7a5.5,5.5,0,0,1,1.9-1.8,6.1,6.1,0,0,1,3-.8c2.6,0,4.5,1,5.5,2.9a2.4,2.4,0,0,1,.2.8,1.6,1.6,0,0,1-1.6,1.5m-17.9,10.6a1.4,1.4,0,0,1-1.4-1.6,5.3,5.3,0,0,1-2,1.5,6,6,0,0,1-2.6.5,7.1,7.1,0,0,1-5.6-2.3,8.9,8.9,0,0,1-2-5.8,8.4,8.4,0,0,1,2.1-5.7,6.8,6.8,0,0,1,5.5-2.4,7.5,7.5,0,0,1,2.6.5,4.3,4.3,0,0,1,2,1.4c.1-1,.6-1.6,1.4-1.6a1.4,1.4,0,0,1,1.6,1.5v12.5a1.4,1.4,0,0,1-1.6,1.5m-2.6-11.8a4.3,4.3,0,0,0-3.4-1.5,4.2,4.2,0,0,0-3.4,1.5,6.3,6.3,0,0,0-1.3,4.1,6.7,6.7,0,0,0,1.3,4.1,3.9,3.9,0,0,0,3.4,1.5,4.3,4.3,0,0,0,3.4-1.5,6.7,6.7,0,0,0,1.3-4.1,6.9,6.9,0,0,0-1.3-4.1M376,151a1.4,1.4,0,0,1-1.4-1.5v-7.8a5.4,5.4,0,0,0-.7-3.2,3,3,0,0,0-2.5-.9,3.9,3.9,0,0,0-3.4,1.6,7.4,7.4,0,0,0-1.2,4.4v5.9a1.5,1.5,0,0,1-1.4,1.5,1.4,1.4,0,0,1-1.5-1.5V130.7a1.5,1.5,0,0,1,1.4-1.6,1.5,1.5,0,0,1,1.5,1.6v6.9a2.8,2.8,0,0,1,1.7-1.7,5.7,5.7,0,0,1,2.8-.8c4.1,0,6.1,2,6.1,6v8.4A1.3,1.3,0,0,1,376,151Zm-21.6-8.9,1.9.3,1.6.4a8.4,8.4,0,0,1,1.6.7,4.2,4.2,0,0,1,1.3,2.9,4.3,4.3,0,0,1-2,3.7,8.7,8.7,0,0,1-5,1.4c-3-.2-5.2-1.1-6.7-2.8a1.6,1.6,0,0,1-.4-1,1.4,1.4,0,0,1,1.4-1.5,1.5,1.5,0,0,1,1.3.7,5.4,5.4,0,0,0,4.3,2c2.7,0,4.1-.8,4.1-2.4s-.4-1.1-1.3-1.4l-1.3-.3-1.6-.3-2.3-.4-2-.7a3.4,3.4,0,0,1-2-3.3,4.1,4.1,0,0,1,1.9-3.6,7.2,7.2,0,0,1,4.4-1.3c2.7,0,4.7.9,5.9,2.6a1.1,1.1,0,0,1,.4.9,1.5,1.5,0,0,1-1.6,1.4,1.1,1.1,0,0,1-1.1-.6,3.9,3.9,0,0,0-3.6-1.8c-2.1,0-3.4.8-3.4,2.2S351.8,141.7,354.4,142.1Z"/><path class="cls-6" d="M289.8,149.1a7,7,0,0,1-5.6,2.2,6.5,6.5,0,0,1-2.7-.5,3.3,3.3,0,0,1-1.8-1.4v6.3a1.5,1.5,0,0,1-1.4,1.6,1.5,1.5,0,0,1-1.5-1.6V136.9a1.4,1.4,0,0,1,1.5-1.5,1.5,1.5,0,0,1,1.4,1.5,3.4,3.4,0,0,1,1.9-1.3,7.6,7.6,0,0,1,2.7-.5,6.9,6.9,0,0,1,5.5,2.2,8.4,8.4,0,0,1,1.9,5.9,8.9,8.9,0,0,1-1.9,5.9m-2.1-9.9a4.4,4.4,0,0,0-6.8,0,6.3,6.3,0,0,0-1.2,4.1,6.5,6.5,0,0,0,1.2,4.1,4.6,4.6,0,0,0,6.8,0,6.5,6.5,0,0,0,1.2-4.1,6.3,6.3,0,0,0-1.2-4.1"/><path class="cls-6" d="M307.7,149.1a7.5,7.5,0,0,1-5.6,2.3,7.2,7.2,0,0,1-5.6-2.3,7.9,7.9,0,0,1-2.2-5.8,7.8,7.8,0,0,1,2.2-5.8,7.1,7.1,0,0,1,5.6-2.4,7.4,7.4,0,0,1,5.6,2.4,8.1,8.1,0,0,1,2.1,5.8,8.3,8.3,0,0,1-2.1,5.8m-2.2-9.9a4,4,0,0,0-3.4-1.6,4.2,4.2,0,0,0-3.5,1.6,5.8,5.8,0,0,0-1.4,4.1,6,6,0,0,0,1.4,4.1,4.4,4.4,0,0,0,3.5,1.5,4.2,4.2,0,0,0,3.4-1.5,6.7,6.7,0,0,0,0-8.2"/><path class="cls-6" d="M312.6,148.7a1.6,1.6,0,0,1-.4-1,1.4,1.4,0,0,1,1.4-1.5,1.5,1.5,0,0,1,1.3.7,5.4,5.4,0,0,0,4.3,2c2.7,0,4.1-.8,4.1-2.4s-.3-1.1-1.3-1.4l-1.3-.3-1.6-.3-2.3-.4-1.9-.7a3.3,3.3,0,0,1-2.1-3.3,4.1,4.1,0,0,1,1.9-3.6,7.9,7.9,0,0,1,4.4-1.3,7.1,7.1,0,0,1,6,2.6,1.6,1.6,0,0,1,.3.9,1.4,1.4,0,0,1-1.6,1.4,1.3,1.3,0,0,1-1.1-.6,3.9,3.9,0,0,0-3.5-1.8c-2.2,0-3.4.8-3.4,2.3s1.5,1.8,4.1,2.2l1.9.2,1.7.5,1.5.6a4.2,4.2,0,0,1-.7,6.6,8,8,0,0,1-5,1.4,8.9,8.9,0,0,1-6.7-2.8Z"/><path class="cls-6" d="M333.1,130.4a1.5,1.5,0,0,1,1.4-1.5,1.5,1.5,0,0,1,1.5,1.5v5h5.8c1.1,0,1.6.4,1.6,1.3s-.5,1.3-1.6,1.3H336v8.1c0,1.9,1,2.8,2.5,2.8a5.1,5.1,0,0,0,2.2-.5l.9-.7.9-.3a1.3,1.3,0,0,1,1.3,1.4,1.7,1.7,0,0,1-.9,1.3,7.6,7.6,0,0,1-4.6,1.3,5.8,5.8,0,0,1-3.8-1.2,4.6,4.6,0,0,1-1.4-3.8v-8.5h-4.2c-1.1,0-1.6-.4-1.6-1.2s.5-1.3,1.6-1.3h4.2v-5Z"/><path class="cls-7" d="M237.5,151.9a6.7,6.7,0,0,0,5.3-2.2,8.5,8.5,0,0,0,2-6,9.2,9.2,0,0,0-1.9-5.8,6.8,6.8,0,0,0-5.4-2.3,5.8,5.8,0,0,0-2.6.6,3.7,3.7,0,0,0-1.8,1.4v-6.4a1.3,1.3,0,0,0-1.4-1.5,1.4,1.4,0,0,0-1.4,1.5V150a1.5,1.5,0,0,0,1.4,1.6,1.6,1.6,0,0,0,1.4-1.6,3.5,3.5,0,0,0,1.9,1.4,7,7,0,0,0,2.5.5m4.5-8.2a6.8,6.8,0,0,1-1.2,4.2,3.7,3.7,0,0,1-3.3,1.5,3.7,3.7,0,0,1-3.2-1.5,6.8,6.8,0,0,1-1.2-4.2,6.5,6.5,0,0,1,1.2-4.1,3.7,3.7,0,0,1,3.2-1.5,3.7,3.7,0,0,1,3.3,1.5,6.5,6.5,0,0,1,1.2,4.1"/><path class="cls-7" d="M250.5,158.1a5.1,5.1,0,0,0,4-1.6,23.8,23.8,0,0,0,3.2-5.4l5.9-13.1a1.5,1.5,0,0,0,.1-.6,1.5,1.5,0,0,0-.9-1.4h-.6a1.3,1.3,0,0,0-1.3.9l-4.6,10.6-4.7-10.6a1.3,1.3,0,0,0-1.3-.9h-.6a1.5,1.5,0,0,0-.9,1.4,1.1,1.1,0,0,0,.1.6l5.8,13-.2.4a11.7,11.7,0,0,1-1.8,3.3,2.7,2.7,0,0,1-2.2.9l-1.4-.3a1.2,1.2,0,0,0-1.2,1.2c0,1.1.9,1.6,2.6,1.6Z"/><path class="cls-5" d="M94.7,124h-16a1,1,0,0,0-.9,1v14.2a.9.9,0,0,0,.9.9H89.1a1,1,0,0,0,.9-.6l5.6-14.2a1,1,0,0,0-.9-1.3"/><path class="cls-5" d="M149.6,124H114.5l9.9-56.1a.9.9,0,0,0-.9-1.1H109.3a.9.9,0,0,0-.9.8L104.8,88H85.1a1,1,0,0,0-1,.9v14.2a1,1,0,0,0,1,.9H102l-9.3,53a.9.9,0,0,0,.9,1.1h14.1a1,1,0,0,0,1-.8l3-17.2h20.1L128.9,157a.9.9,0,0,0,.9,1.1h14.1a1,1,0,0,0,1-.7l5.6-32.2a.9.9,0,0,0-.9-1.1"/><path class="cls-5" d="M168.2,124H157.3a1.1,1.1,0,0,0-.9.6l-5.6,14.2a1,1,0,0,0,.9,1.3h16.5a.9.9,0,0,0,.9-1V125a1,1,0,0,0-.9-1"/><path class="cls-5" d="M174.5,88H157l3.6-20.1a1,1,0,0,0-1-1.1H145.5a.9.9,0,0,0-.9.8L141,88H127.4a.8.8,0,0,0-.8.6l-5.7,14.1a1,1,0,0,0,.9,1.3h16.4l-2.3,13.2a.9.9,0,0,0,.7,1.1l13.6,3.2a1,1,0,0,0,1.1-.8l2.9-16.7h20.3a1,1,0,0,0,1-.9V88.9a1,1,0,0,0-1-.9"/></g></g><text class="cls-8" transform="translate(77.8 513.7)">Status Update<tspan class="cls-9"><tspan x="0" y="95.2">May 2024</tspan></tspan></text><path class="cls-10" d="M1762.6,755.1c14.9,42.6,38.6,117.6-13.6,146.5L905.5,915.4c-25.4-5.1-47.3-24.7-55.9-49.3a62,62,0,0,1-2.7-9.6c-5.8-28.9,7.1-60.7,31.3-77.2,38.5-26.3,73.6-64,48.9-113.5C900.2,612.1,846,581.9,833,517.1c-7.9-39.8,1.5-82.9,25.3-115.6s63.5-57.5,103.9-58.2c49.2-1,95.6,20.4,143.8-1.9,46.5-21.5,69.3-73.6,101.9-113.4,26.8-32.6,63.1-58.5,104.2-67.1s87.1,2.3,116.3,32.7c32,33.3,42.6,86.3,81.7,110.4s89.7,9.3,135.5,13.8c48.8,4.9,94.5,34.5,119.4,77.2s28.1,97.5,8.5,142.9c-8.2,19.1-20.1,36.5-28.1,55.7-21.1,50.9-5.6,97.5,11.4,145.4C1758.7,744.4,1760.7,749.7,1762.6,755.1Z"/><path class="cls-11" d="M1762.6,755.1a.1.1,0,0,1-.1-.1,39.1,39.1,0,0,0-29.1-25.6,54.7,54.7,0,0,0-21.7-.2c-21,4.1-39,23.5-37.8,44.8-3.4-21.7-24-38.8-45.9-40.1s-43.5,12.2-53.9,31.5-10.3,43.5-1.5,63.7c-11.4-8.6-32.5-3.7-38.3,9.3a27.3,27.3,0,0,0-45.9-21.9,31.7,31.7,0,0,0-40.4-39c3-19,0-40.3-13.7-53.7s-40.1-13.9-50.1,2.6c4.7-23.1-15.8-46.3-39.1-49s-46.4,11.6-59,31.5-16.2,44.2-15.8,67.7c-12.3-14.1-36.6-13.9-50.2-1.2s-16.3,34.9-8,51.6c-8.1-4.4-17.1-8.1-26.4-7.2s-18.3,7.6-19.2,16.8c-3.5-12.8-8.1-26.4-18.6-34.6s-28.5-7.9-34.8,3.8a22.3,22.3,0,0,0-9.1-25.2c-8.1-5.1-19.7-3.9-26.7,2.8-3.6-29.3-16.2-60.7-43.1-72.9-29.1-13.2-65.6,2.5-83,29.3s-18.9,61.3-12.4,92.6c-7.5-15.4-28.1-22.8-43.7-15.7s-23.6,27.4-17,43.2l-1.8-.5c-14.8-2.8-25.1,14.5-16.2,26.6,11.1,14.8,27.3,25.8,45.4,29.4L1749,901.6C1801.2,872.7,1777.5,797.7,1762.6,755.1Z"/><path class="cls-12" d="M1404.8,957.9h88.8c25.6,0,51.1-2.9,76.4-5.9,13.3-1.6,40.2-2.3,48.8-14.3,1.9-2.7,2.3-5.9,4.9-8.5,5.1-5.1,16.7-6,26.6-6.3,56.3-1.3,114.7-.6,166-14.5,4.9-1.4,10.4-3.6,9.9-6.8s-2.7-3.3-5-4.5c-16.8-8.7-39.4-11.9-61.2-14-47.9-4.5-295-31-366.2-22.9-29,3.3-57.1,9.4-86.5,11-60.9,3.4-121.1-12.7-182.2-10.8-14,.5-28.5,2-39.8,6.9-9.3,4.1-15.9,10.1-25.4,14s-19.2,4.8-29.4,5.9c-38.2,3.8-76.5,3.8-114.7,5.1-19.1.6-38.1,1.5-57,3.3-9.4,1-43.3-.2-42.7,14.7s22.1,18.5,32.9,20.3c14.3,2.4,28.9,2.2,43.4,2.5,23.3.5,46.7,1.4,70.1,2.1,31.1,1.1,53.7,21.6,84.4,24.3,29,2.5,59.3-1.6,88.5-1.6h269.4Z"/><ellipse class="cls-13" cx="1291.1" cy="915.7" rx="157" ry="6.6"/><polyline class="cls-14" points="1298.3 773.7 1267.5 840.1 1214.4 836.6"/><path class="cls-15" d="M1206.3,823.1h0a17.7,17.7,0,0,1,17.7,17.7v4a0,0,0,0,1,0,0h-35.4a0,0,0,0,1,0,0v-4A17.7,17.7,0,0,1,1206.3,823.1Z" transform="translate(2258 -188.1) rotate(101.2)"/><circle class="cls-16" cx="1267.8" cy="839.7" r="12.9"/><circle class="cls-15" cx="1267.8" cy="839.7" r="6.7"/><polyline class="cls-14" points="1347.4 770.8 1360.7 845 1335.7 904.8"/><path class="cls-15" d="M1335.7,894h0a17.7,17.7,0,0,1,17.7,17.7v4a0,0,0,0,1,0,0H1318a0,0,0,0,1,0,0v-4A17.7,17.7,0,0,1,1335.7,894Z"/><circle class="cls-16" cx="1360.7" cy="845" r="12.9"/><circle class="cls-15" cx="1360.7" cy="845" r="6.7"/><path class="cls-17" d="M1383,734.1l-64.2-5.6,6.1,64.5a12.8,12.8,0,0,0,11.8,11.7l17,1.5a13,13,0,0,0,13.8-9.8Z"/><path class="cls-18" d="M1344.3,751.3l-58.4-27.1-16.4,62.9a12.8,12.8,0,0,0,7,14.8l15.9,7.4a12.8,12.8,0,0,0,15.9-4.5Z"/><path class="cls-14" d="M1377,563.4c47.5,9.9,86-61.8,92.1-102.4"/><circle class="cls-16" cx="1377.5" cy="559.5" r="12.9"/><circle class="cls-15" cx="1377.5" cy="559.5" r="6.7"/><path class="cls-18" d="M1387.8,760c-17.2,21.3-40.7,26.9-63.8,25.1a130.9,130.9,0,0,1-25-4.4c-38.2-10.4-57.4-47.3-54.6-86.9,3.1-43.5,21.5-85.8,37-126.9,2-5.4,4-10.7,5.9-16.1,6.9-19.7,13.9-39.5,18.8-59.9,5.7-23.5,8.1-48.3,10.4-72.8.7-8.2,1.5-16.4,2.3-24.5.1-1.3.3-2.6.5-4h0a90.7,90.7,0,0,1,2.9-14.3c4.1-14,12.2-26.2,28.6-28.2,14.2-1.8,24.6,5.7,29.7,18.6,4.4,11.1,5,15,4.5,21.8h0c-.3,3.1-.8,6.7-1.3,11.8-3.7,39.5-.9,92.1,5.1,131.1,7.7,49.8,21,97.1,21.6,147.6C1410.7,702.7,1409.7,732.8,1387.8,760Z"/><path class="cls-17" d="M1324,785.1a130.9,130.9,0,0,1-25-4.4c-38.2-10.4-57.4-47.3-54.6-86.9,3.1-43.5,21.5-85.8,37-126.9,2-5.4,4-10.7,5.9-16.1,6.9-19.7,13.9-39.5,18.8-59.9,5.7-23.5,8.1-48.3,10.4-72.8,5.8,75.4-24.7,166.6-30.6,183.5-13,36.8-32.3,80.9-23,118.8C1269.8,748.7,1281.3,772.1,1324,785.1Z"/><path class="cls-18" d="M1400,348.1l-1.2-2.3-4-7.8a3.2,3.2,0,0,0,3.1-2.8,8.3,8.3,0,0,0-.6-4.4c-2-6.4-4.8-12.6-6.1-19.2s-2.7-12.4-5.9-17.7a20.4,20.4,0,0,0-7.4-6.9c-3.8-2.2-7.8-2.4-12-3-7.7-1.2-16.8.4-22,6.3s-7.4,12.6-11,18.9a230.2,230.2,0,0,1-13.3,20.4,14.7,14.7,0,0,0-2.1,3.9,4.2,4.2,0,0,0,.9,4.2,2.6,2.6,0,0,0,3.9-.5,49.6,49.6,0,0,0-8.1,18.9c-.5,2.4-.8,5.9,2,6.9a6.1,6.1,0,0,0,4.2-.3,10.8,10.8,0,0,0-.3,4.7c.5,1.6,1.9,3,3.4,2.8a11.2,11.2,0,0,0,.8,6.1,10.9,10.9,0,0,0,4.4,4.6,60.1,60.1,0,0,0,13.2,5.8l7.2,1.7c2.2.4,4.8,1.2,7,1.2,13.3.2,28.4.2,38-10.1a17.6,17.6,0,0,0,3.8-7.6c.3-1.1,1.5-8.2,0-8.8a3.4,3.4,0,0,0,4.1-1.6,7.2,7.2,0,0,0,.9-4.6A25.3,25.3,0,0,0,1400,348.1Z"/><path class="cls-18" d="M1358.8,275.3l.3-.2a5.3,5.3,0,0,1,3-.9c1.8.2,2.9,2.3,2.9,4.1a12.4,12.4,0,0,1-2,5.1l6.4-6.5a28.2,28.2,0,0,1,6.4-5.1c2.1-1.1,4.9-2,7.2-1.5s2.9,4.3,2.1,6.7a26.1,26.1,0,0,1-2.4,4.3L1379,287a11.5,11.5,0,0,1,3.5-3.1,4.8,4.8,0,0,1,4.5-.1c3.2,2,1.9,7,.6,9.8a22,22,0,0,1-24.5,11.5c-2.5-.7-5-1.9-7.7-2.1-6.2-.7-11.5,4.1-12.8,10-4.3-3.8-4.7-11.7-2.5-16.6a47.6,47.6,0,0,1,8.3-12C1351.6,281,1354.7,277.6,1358.8,275.3Z"/><path class="cls-18" d="M1410.1,301.3c3.9-10.7,2.4-22.9-2.2-33.7-1.2-2.8-3.4-6-6.6-5.9-5.8.1-6.9,8.2-7.4,12a85.8,85.8,0,0,1-4.9,18.7c-2.9,7.6-8.1,14.1-11,21.6a7.1,7.1,0,0,0-.4,2.1c.2,1.9,2.3,3.2,4.3,3.7a16.7,16.7,0,0,0,9.4-.3A28.1,28.1,0,0,0,1410.1,301.3Z"/><path class="cls-15" d="M1391.1,308a3.7,3.7,0,0,0,2.6,1,9,9,0,0,0,2.8-.8,17.6,17.6,0,0,0,8.1-8.9,32.2,32.2,0,0,0,1.8-11.5c0-3.3-.1-8.1-2.4-10.8a2.9,2.9,0,0,0-3.5-.9c-1.2.7-1.4,2.1-1.6,3.3a47,47,0,0,1-1.2,5.1,88.8,88.8,0,0,1-3.1,10c-1.1,2.7-2.7,5.1-3.7,7.7S1389.8,306.5,1391.1,308Z"/><path class="cls-18" d="M1317.5,290.9c0-11.4,5.5-22.3,13.6-30.9,2.1-2.2,5.3-4.4,8.3-3.3,5.4,2.1,3.6,10.1,2.8,13.9a82.3,82.3,0,0,0-1.9,19.2c.1,8.1,2.8,16,2.9,24a4.9,4.9,0,0,1-.3,2.1c-.8,1.7-3.3,2.3-5.3,2.1a17.3,17.3,0,0,1-8.7-3.6A27.8,27.8,0,0,1,1317.5,290.9Z"/><path class="cls-15" d="M1333,303.7a3.4,3.4,0,0,1-2.8,0,6.3,6.3,0,0,1-2.3-1.7,16.9,16.9,0,0,1-4.5-11.1,33.9,33.9,0,0,1,2.1-11.4c1.2-3.1,3-7.6,6-9.4a3.1,3.1,0,0,1,3.7.4c.8,1.1.5,2.5.3,3.7s-.5,3.4-.7,5.2c-.3,3.5-.4,6.9-.4,10.4s.8,5.7.8,8.6S1334.7,302.8,1333,303.7Z"/><circle class="cls-15" cx="1351" cy="317.5" r="4.1"/><circle class="cls-15" cx="1381.3" cy="320.1" r="4.1"/><path class="cls-16" d="M1385.9,354.7c-.3-2.4-.9-4.8-1.4-7-2-8.6-6.1-23.9-16.7-24.8-6.5-.6-12.3,4.6-15.7,10.8-.9,1.5-1.7,3.1-2.6,4.7-3.2,6-12,23.8-.4,26.5a3.8,3.8,0,0,1,1.6.5,2.8,2.8,0,0,1,.9,1,15.1,15.1,0,0,0,24.5,2.2,2.4,2.4,0,0,1,1.1-.9,4.4,4.4,0,0,1,1.6-.2,7.6,7.6,0,0,0,6.4-4.8A16.5,16.5,0,0,0,1385.9,354.7Z"/><path class="cls-15" d="M1366.2,347.9c.4.4.7-.4.8-.7a8.4,8.4,0,0,0-.8-4.4,10.4,10.4,0,0,0-6-6c-1.3-.4-3.5-1.2-4.9-.5s-.2,3.7,1,4.6a10.8,10.8,0,0,0,4.2,1.6,5.5,5.5,0,0,1,2.5.7c1.6,1,2,3.2,3.1,4.7Z"/><path class="cls-15" d="M1366.9,348c-.5.3-.6-.5-.7-.9a9.3,9.3,0,0,1,1.5-4.2,10.9,10.9,0,0,1,7-4.8c1.4-.2,3.6-.6,4.9.3s-.4,3.7-1.8,4.3a9.4,9.4,0,0,1-4.4.9,6.9,6.9,0,0,0-2.5.3c-1.8.7-2.6,2.7-4,4.1Z"/><path class="cls-19" d="M1366.3,346.1a18.6,18.6,0,0,1-4.2,11"/><path class="cls-19" d="M1365.8,356.6a4.3,4.3,0,0,1-1.2,3.1,4.5,4.5,0,0,1-3.2.4,9.9,9.9,0,0,1-6.3-3.8"/><path class="cls-15" d="M1373.8,359.6a9.5,9.5,0,0,1-5.8,3.5,9.6,9.6,0,0,1-6.6-1.2c-2-1.3-3.5-3.2-5.4-4.6a24.7,24.7,0,0,0,4.6,2.3,8,8,0,0,0,2.6.5,2.9,2.9,0,0,0,2.2-1.2,5.1,5.1,0,0,0,4.1,1.8A10.5,10.5,0,0,0,1373.8,359.6Z"/><path class="cls-19" d="M1347.9,383.6c10.4,6.7,21.6,6.6,31.5,1.7"/><path class="cls-15" d="M1372.9,364.6c-1.7,1.6-4.2,1.9-6.7,1.7l-1.8-.2a16.9,16.9,0,0,1-10.2-5.1,16.5,16.5,0,0,1-3.2-4.6,10.5,10.5,0,0,1-1-4.5,4.3,4.3,0,0,1,1.6-3.2l1-.4c1.8-.4,3.7,1.5,4.8,2.6s2.5,2.9,4.4,3.5,4,.1,6,.3a7.8,7.8,0,0,1,5.9,3.8A5.1,5.1,0,0,1,1372.9,364.6Z"/><path class="cls-14" d="M1299,554.4c-15.3,67.4,59.6,69.3,122.9,49"/><circle class="cls-16" cx="1300.9" cy="551" r="12.9"/><circle class="cls-15" cx="1300.9" cy="551" r="6.7"/><polyline class="cls-20" points="1423.7 601.1 1440.8 607.9 1449.8 602.9"/><polyline class="cls-20" points="1423.4 600.6 1426.5 582.5 1435.6 577.5"/><circle class="cls-16" cx="1422" cy="601.9" r="12.9"/><circle class="cls-15" cx="1422" cy="601.9" r="6.7"/><polyline class="cls-20" points="1469.6 459.2 1460.5 443.2 1474.6 436.5"/><polyline class="cls-20" points="1470.1 459.4 1487.7 453.9 1482.7 440.3"/><circle class="cls-16" cx="1469.1" cy="461" r="12.9"/><circle class="cls-15" cx="1469.1" cy="461" r="6.7"/><path class="cls-18" d="M1366.2,366.3l-1.8-.2a16.9,16.9,0,0,1-10.2-5.1,16.5,16.5,0,0,1-3.2-4.6,14.5,14.5,0,0,1,15.2,9.9Z"/><path class="cls-18" d="M1150.1,262.9c1.9-10.1-9.9-18.5-17.9-21.3,11.2,3.8,10.2,14.8,4,21.8a20.8,20.8,0,0,0-3.8,5.5c-2.2,5.2.9,12,6.3,13.8,2.3.8,4.9.7,7.3,1.4,6.1,1.7,10,9,8,15a139.4,139.4,0,0,1,16.9-4.3c.9-4.8-1.4-9.9-5-13.2s-8.5-4.9-13.4-5.7a7.5,7.5,0,0,1-2.9-.9c-1.8-1.1-2.1-3.8-1.6-5.9S1149.7,265,1150.1,262.9Z"/><path class="cls-18" d="M1136.2,247.2c8-1.1,14,.3,15.2,9.5a10.7,10.7,0,0,0,11.2,8.8c2.2-.3,4.2-1.2,6.4-1.3s4.6,1,5,3.1c-.3-5.7-.2-12.4,4.4-15.9a20.7,20.7,0,0,1-7.4,2.7,8.4,8.4,0,0,1-7.3-2.1,16.1,16.1,0,0,1-2.9-5.1c-.9-2.5-2.2-5-4.4-6.4a10.1,10.1,0,0,0-5.1-1.2A18.6,18.6,0,0,0,1136.2,247.2Z"/><path class="cls-18" d="M1010.7,130.2c-.7-2.2-.7-4.5-1.3-6.8a13.3,13.3,0,0,0-6.1-8.4,10.1,10.1,0,0,0-10.2.3c-3.6,2.5-4.9,7.5-8.7,9.7a11.7,11.7,0,0,1-6.4,1.5c-3.9-.1-8.2-1.5-10.3-4.9a68.7,68.7,0,0,1-.9,15.7c7,4,17,1.8,21.6-4.9,1.4-2,2.3-4.4,4.3-5.9,3.7-3.1,10.4-.8,11.5,3.9.3,1.4.2,3,.7,4.4s3.4,4.3,6,5.3c5.1,2,11.7,1.9,15-2.5C1022.3,142.3,1011.8,133.7,1010.7,130.2Z"/><path class="cls-18" d="M991.8,109.6c-3.5,0-7.2,0-10.2-1.7s-5.2-5.6-3.7-8.8a36.4,36.4,0,0,0,20-3.4c-.5,2.1.9,4.4,2.7,5.6s4.1,1.7,6.2,2.3c5.3,1.4,11,4.7,11.7,10.2s-2.7,9-2,13.7,2.8,5.5,4.2,7.9c-4.5.3-9.9-3.7-11.5-7.8s.7-9.3-3-13.7S997,109.4,991.8,109.6Z"/><path class="cls-11" d="M1155.1,119.4c-10.5,31.7-15.8,72.7-15,104.3h0a168.5,168.5,0,0,0,2.2,24.4,282.7,282.7,0,0,0-29,2.1c-45.2,5.7-90.3,22.9-137.5,45.9-9.1,4.3-18.2,8.9-27.4,13.7,5.2-8.6,10.2-17.3,14.9-26.2,23.3-44,39.6-91,45.1-132.4a230.6,230.6,0,0,0,1.9-25.6c9.1-.2,18.3-.6,27.5-1.4a415.2,415.2,0,0,0,100-20.4c10-3.4,19.7-7.2,29-11.4A147.9,147.9,0,0,0,1155.1,119.4Z"/><path class="cls-19" d="M1014.9,131.6c41.4,29.9,85.6,71.9,120,109.7"/><path class="cls-19" d="M956.8,301.4c52.4-44.6,152.9-146.9,198.1-198.7"/><path class="cls-18" d="M975.8,296.1c-9.1,4.3-18.2,8.9-27.4,13.7,5.2-8.6,10.2-17.3,14.9-26.2a42.2,42.2,0,0,1,8.7,7.2A33.9,33.9,0,0,1,975.8,296.1Z"/><path class="cls-18" d="M1166.8,92.4a147.9,147.9,0,0,0-11.7,27c-6.4-3.4-13.2-9.1-17.3-15.6C1147.8,100.4,1157.5,96.6,1166.8,92.4Z"/><path class="cls-18" d="M1142.3,248.1a282.7,282.7,0,0,0-29,2.1,34.6,34.6,0,0,1,10.4-18.5,35.1,35.1,0,0,1,16.4-8A168.5,168.5,0,0,0,1142.3,248.1Z"/><path class="cls-18" d="M1037.8,124.2a31.8,31.8,0,0,1-2.2,6.8c-4.3,8.9-12.7,15.5-22,18.7a50.8,50.8,0,0,1-5.2,1.5,230.6,230.6,0,0,0,1.9-25.6C1019.4,125.4,1028.6,125,1037.8,124.2Z"/><path class="cls-18" d="M929.7,321.3l-1,1.1c-10.2,11-18,26.6-7.1,40s12.3,28.7-8.3,32.4c-13.7,2.5-27.7,2.8-41.3,5.5-31.2,6.2-66,29.9-58.7,66.2A43.7,43.7,0,0,0,830,493.4c16.2,11.8,42.8,7.1,61.6,6.7,9.2-.2,20,.3,25.2,7.9s1.4,18.9-4.8,26.2-14.3,13.1-18.6,21.6-2.4,21.4,6.8,24.1c5.9,1.8,13-1.4,18.2,1.9s5.4,11.7,3.1,17.9-6,12.3-5,18.9c1.5,10.2,14.3,15.3,24.4,13.1s18.3-9.3,26.9-15.3,18.8-11,28.9-8.4c7.8,2,13.4,9.2,14.9,17,.6,2.8,4.8,2.4,4.8-.4.2-7.3-3.1-15.1-8.9-19.6-17.4-13.6-38.4-1.2-57.3-1.9a6.1,6.1,0,0,1-5.4-3.6c-1.4-3.1.8-5.4,2.6-7.5,5.1-6,7.2-16.4.8-20.9-4.3-3.1-10.9-2-13.2-8.8a12.7,12.7,0,0,1,1.7-11c3.7-5.4,9.9-8,15.8-10.5,9.4-4.1,18.7-8.7,26.1-15.7s12.6-17,11.7-27.2c-1-12.7-9.8-18.1-20.8-20.2-16.4-3.1-32.7-6.5-49-9.8C909,465.6,895,460.6,894,449c-.7-8.5,6.7-15.8,14.8-18.5s16.8-1.9,25.3-2.2a102.7,102.7,0,0,0,40.7-9.8,26.3,26.3,0,0,0,7.3-5c12.6-13,1.3-31.1-9.3-40.1-12.3-10.4-22.3-17.5-23.1-35.3-.6-11.9,3.2-23.5,8.9-34.1a2.5,2.5,0,0,0-3.7-3.2C946.1,307.1,937,314.1,929.7,321.3Z"/><path class="cls-21" d="M951.3,309.8c-19.6,15.7-22.3,31.9-17.2,44.7s20.7,21,22.8,34.9c.6,3.5.1,7.4-2.2,10.2a14.8,14.8,0,0,1-6.3,4c-10.1,3.9-21.3,2.9-32.1,2.5-15.6-.5-32,.4-45.3,8.5s-22.2,24.3-16.7,39,23.2,23.6,37.1,26.9,26.7,3,40.1,3.7c8.8.4,17.9,1.3,25.2,6.2s11.9,14.8,8,22.6c-3,5.8-9.5,8.8-15.5,11.3l-15.7,6.5c-8.9,3.7-18.8,8.5-21.6,17.7-1.8,6.3.9,13.6,6,17.6s11.2,2.1,15.8,5.6c11,8.2-3.7,24-1.5,34.4,1.3,6.6,8.2,11.1,14.9,11s14.9-5.7,22.2-9.2,40-15,44.9,16.2"/><path class="cls-19" d="M1530.1,543.6c16.1-23.3,16-56.6-.2-79.9a51.9,51.9,0,0,0-15.9-15.4c-36.2-21.9-75.2-.4-93.4-48.9-8.9-23.7-2.3-52.4,16.1-69.8,20.1-19,49.6-23.1,75.4-33.2,31.6-12.4,60-36.6,70.2-68.9,21.8-69.5-43-105.4-102.1-99.4-98.4,10.1-162.9,63.6-237.1,121.8-34,26.7-70.3,55.3-112.4,67.6-38.2,11.2-95.7,7.3-104.8-39.7-6.7-34.1,18.7-61.2,52.6-93.4"/><path class="cls-22" d="M1204.7,539.4c-6.6-2.5-14.5-.6-20.4,3a14.3,14.3,0,0,0-7.5-18.3c-7.3-3.3-18.2.6-19.1,7.5-.3-10.4-.6-20.9-4.1-30.8s-10.6-19.5-21.4-24.4c-16.6-7.5-38.5-2.1-50.7,9.9s-15.8,29-13.3,44.7c-4.9-5.1-14-6.9-21-4.1s-11.3,9.8-9.8,16.2c-7.1-4-24.8-2.9-22.9,11.4h195.7C1214.8,549.9,1211.3,541.9,1204.7,539.4Z"/><path class="cls-22" d="M1269.1,378.6a7.9,7.9,0,0,0-9.7,2.3c.6-4.1-2-8.7-6.1-9.6s-8.7,2.8-8.2,7c-1.8-8.8-4-17.9-10-24.5s-17.1-9.3-23.9-3.5a17.6,17.6,0,0,0-4.8,6.9,36.9,36.9,0,0,0-2.1,24.7,9,9,0,0,0-9.9-4.2c-3.8.9-7.9,3.5-6.8,10.2h84.9A7.6,7.6,0,0,0,1269.1,378.6Z"/><path class="cls-22" d="M1737.5,444.8a10.4,10.4,0,0,0-11.8,6,13.1,13.1,0,0,0-24.7-6.5,59.8,59.8,0,0,0-16-34.6c-3.7-3.9-8.1-7.4-13.3-8.7-10.4-2.7-21.4,4.1-27,13.2s-7.1,20.2-8.3,30.9A16.9,16.9,0,0,0,1605,457c-5.8-7.5-19.9-5-22.8,4h161C1748.6,451.2,1742.2,445.9,1737.5,444.8Z"/><path class="cls-13" d="M1060.4,942.5c-.9-22.6-7.4-49.6-18.8-69.2a142.3,142.3,0,0,1,2.4,53.6,368.6,368.6,0,0,0-28.9-69.7,200.2,200.2,0,0,1,20.3,76.1c-6.5-13.3-17.6-24.4-29.1-33.8a69.6,69.6,0,0,1,12.8,43Z"/><path class="cls-13" d="M1123.3,901.9c-.9-13.5-.5-27.1-.2-40.6a149.1,149.1,0,0,0-11.1,41.5c-2-8.6-7.6-15.8-13.5-22.3a94.8,94.8,0,0,1,6.8,26.1H1130c.3-6.9.4-13.9.4-20.8A62.7,62.7,0,0,0,1123.3,901.9Z"/><path class="cls-13" d="M1546.6,894.5a73.4,73.4,0,0,0-10.2,21.3c.1-13.5.1-26.9.1-40.4a186.2,186.2,0,0,0-11.7,33.9,843.4,843.4,0,0,1,5.8-95.3,295.2,295.2,0,0,0-31.1,99.9,126.4,126.4,0,0,0-20.5-36.3c7.7,16.4,10,29,9.2,44.7h58.6A234.4,234.4,0,0,0,1546.6,894.5Z"/><path class="cls-13" d="M1649.8,905.8a46.3,46.3,0,0,0-5.9-22.7,104.8,104.8,0,0,1,14.6,17.9,181.3,181.3,0,0,1,23.1-51.1,226.9,226.9,0,0,0-7.6,48.5,48.9,48.9,0,0,1,9.5-17.5c-2.5,6.6-3.4,16.4-1.6,24.9"/></g></svg>