<svg xmlns="http://www.w3.org/2000/svg" xmlns:xlink="http://www.w3.org/1999/xlink" viewBox="0 0 1920 1080"><defs><style>.cls-1,.cls-13,.cls-17,.cls-18,.cls-20,.cls-21{fill:none;}.cls-2{fill:#cba6ff;}.cls-3{clip-path:url(#clip-path);}.cls-4{fill:#110b1d;}.cls-5,.cls-8{fill:#6122b2;}.cls-6,.cls-7{fill:#666;}.cls-6{fill-rule:evenodd;}.cls-8{font-size:80px;font-family:Monosten-Regular, Monosten;}.cls-9{fill:#250d45;}.cls-10{fill:#e6d4ff;}.cls-11{fill:#e8d7ff;}.cls-12{fill:#973bfc;}.cls-13,.cls-18,.cls-21{stroke:#260d46;}.cls-13,.cls-17,.cls-18,.cls-20,.cls-21{stroke-linecap:round;stroke-linejoin:round;}.cls-13,.cls-17{stroke-width:2px;}.cls-14{fill:#ffe699;}.cls-15{fill:#260d46;}.cls-16{fill:#d6bb69;}.cls-17{stroke:#d6bb69;}.cls-18{stroke-width:17px;}.cls-19{fill:#6b1fbf;}.cls-20{stroke:#fff;stroke-width:4px;}.cls-21{stroke-width:7px;}.cls-22{fill:#fff;}</style><clipPath id="clip-path"><rect class="cls-1" x="78.1" y="66.8" width="353.3" height="91.34"/></clipPath></defs><g id="may_1" data-name="may 1"><rect class="cls-2" x="0.3" width="1920" height="1080"/><g class="cls-3"><g class="cls-3"><path class="cls-4" d="M201.8,90.8a2.2,2.2,0,0,1,4.4-.4v1a4.7,4.7,0,0,1,4.7-3.4c3,0,4.8,1.1,5.5,3.4a5,5,0,0,1,1.9-2.4,5.2,5.2,0,0,1,3.4-1c4.1,0,6.1,2.5,6.1,6.6v15.8a2.2,2.2,0,0,1-2,2.4,2.3,2.3,0,0,1-2.4-2v-15c0-2.8-.8-4-2.7-4S217,94,217,98.4v12a2.2,2.2,0,1,1-4.4.4v-15c0-2.8-.7-4-2.7-4s-3.7,2.4-3.7,7.2v11.4a2.2,2.2,0,0,1-4.4.4v-20Z"/><path class="cls-4" d="M255,105.6a2.3,2.3,0,0,0-1.7.8c-1.7,2-4.1,3-7.3,3a7.1,7.1,0,0,1-5.1-2.1,8.2,8.2,0,0,1-2.4-4.9h16.8a2.3,2.3,0,0,0,2.5-2.1v-.4a11.8,11.8,0,0,0-3.3-8.5,12.4,12.4,0,0,0-17.3.2,14.3,14.3,0,0,0,0,18.1c2.2,2.4,5.1,3.5,8.8,3.5s7.8-1.2,10.4-3.7a2.3,2.3,0,0,0,.2-3.2h0a2,2,0,0,0-1.6-.7ZM241,93.8a6.8,6.8,0,0,1,5-1.9,6.2,6.2,0,0,1,4.7,1.8,11.1,11.1,0,0,1,2.5,4.8H238.5a8.3,8.3,0,0,1,2.5-4.7"/><path class="cls-4" d="M271.3,78.2c1.4,0,2.2,1,2.2,2.5v7.8h8.8c1.5,0,2.3.6,2.3,1.9s-.8,1.9-2.3,1.9h-8.8V105c0,3,1.6,4.3,3.7,4.3a5.7,5.7,0,0,0,3.4-.8l1.4-1a2.9,2.9,0,0,1,1.3-.5,2,2,0,0,1,2,2h0a2.6,2.6,0,0,1-1.4,2.1,11.2,11.2,0,0,1-6.9,2,8,8,0,0,1-5.7-1.9c-1.5-1.2-2.2-3.2-2.2-5.9v-13h-6.3c-1.5,0-2.3-.7-2.3-2s.8-1.9,2.3-1.9h6.3V80.7a2.2,2.2,0,0,1,2.1-2.4Z"/><path class="cls-4" d="M311,88.5c-1.2,0-2.1.9-2.2,2.5a6.5,6.5,0,0,0-3-2.2,8.5,8.5,0,0,0-3.9-.8,10,10,0,0,0-8.3,3.7,13.7,13.7,0,0,0-3,8.9,13.4,13.4,0,0,0,3,9,10.3,10.3,0,0,0,8.4,3.6,9.9,9.9,0,0,0,3.8-.7,7.3,7.3,0,0,0,3-2.2c.1,1.5.9,2.5,2.2,2.5a2.2,2.2,0,0,0,2.3-2.1c.1-.1,0-.2,0-.4V90.9a2.2,2.2,0,0,0-2-2.4H311M307,107a6.5,6.5,0,0,1-9.2.9l-1-.9a10.5,10.5,0,0,1-1.9-6.4,10.2,10.2,0,0,1,1.9-6.3,6.5,6.5,0,0,1,9.2-1l1,1a9.4,9.4,0,0,1,1.9,6.3A9.9,9.9,0,0,1,307,107"/><path class="cls-5" d="M329.5,108.9V82.6h-5.4c-1.4,0-2.4-.7-2.4-1.9s1-1.9,2.4-1.9h7.6a2,2,0,0,1,2.2,1.9v28.2h7c1.4,0,2.4.7,2.4,2s-1,1.9-2.4,1.9H322.5c-1.4,0-2.4-.7-2.4-1.9s1-2,2.4-2Z"/><path class="cls-5" d="M366.2,88.5c-1.2,0-2.1.9-2.2,2.5a6.5,6.5,0,0,0-3-2.2,10.6,10.6,0,0,0-12.1,2.9,13.3,13.3,0,0,0-3.1,8.9,14,14,0,0,0,3,9,11.5,11.5,0,0,0,12.3,2.9,7.3,7.3,0,0,0,3-2.2c.1,1.5.9,2.5,2.1,2.5a2.3,2.3,0,0,0,2.4-2.1V90.9a2.2,2.2,0,0,0-2-2.4h-.4m-4,18.5a6.5,6.5,0,0,1-9.2.9l-.9-.9a10.6,10.6,0,0,1-2-6.4,9.7,9.7,0,0,1,2-6.3,6.4,6.4,0,0,1,9.1-1,4.7,4.7,0,0,1,1,1,9.4,9.4,0,0,1,1.9,6.3,9.9,9.9,0,0,1-1.9,6.4"/><path class="cls-5" d="M376.2,90.8a2.2,2.2,0,1,1,4.4-.4v1a4,4,0,0,1,1.6-2.4,4.1,4.1,0,0,1,3-1c3,0,4.9,1.1,5.6,3.4a4.8,4.8,0,0,1,1.8-2.4,5.2,5.2,0,0,1,3.4-1c4.1,0,6.1,2.5,6.1,6.6v15.8a2.1,2.1,0,0,1-1.9,2.4,2.2,2.2,0,0,1-2.4-2v-15c0-2.8-.9-4-2.8-4s-3.7,2.2-3.7,6.6v12a2.1,2.1,0,0,1-1.9,2.4,2.2,2.2,0,0,1-2.4-2v-15c0-2.8-.8-4-2.8-4s-3.7,2.4-3.6,7.2v11.4a2.2,2.2,0,0,1-4.4.4.3.3,0,0,1,0-.4V90.8Z"/><path class="cls-5" d="M429.1,88.5c-1.3,0-2.1.9-2.2,2.5a6.5,6.5,0,0,0-3-2.2,10.6,10.6,0,0,0-12.1,2.9,13.3,13.3,0,0,0-3.1,8.9,14,14,0,0,0,3,9,10.3,10.3,0,0,0,8.4,3.6,9.9,9.9,0,0,0,3.8-.7,7.3,7.3,0,0,0,3-2.2c.1,1.5.9,2.5,2.2,2.5a2.2,2.2,0,0,0,2.3-2.2V90.9a2.2,2.2,0,0,0-2-2.4h-.3m-4,18.5a6.5,6.5,0,0,1-9.2.9l-1-.9a10.5,10.5,0,0,1-1.9-6.4,10.2,10.2,0,0,1,1.9-6.3,6.5,6.5,0,0,1,9.2-1l1,1a9.6,9.6,0,0,1,1.9,6.3,10.5,10.5,0,0,1-1.9,6.4"/><path class="cls-6" d="M428.4,149.1a6.8,6.8,0,0,1-5.5,2.2,6.2,6.2,0,0,1-2.7-.5,3.3,3.3,0,0,1-1.8-1.4v6.3a1.5,1.5,0,0,1-1.5,1.6,1.5,1.5,0,0,1-1.4-1.6V136.9a1.4,1.4,0,0,1,1.4-1.5,1.5,1.5,0,0,1,1.5,1.5,3.5,3.5,0,0,1,1.8-1.3,6.5,6.5,0,0,1,2.7-.5,6.8,6.8,0,0,1,5.5,2.2,8.4,8.4,0,0,1,2,5.9,9,9,0,0,1-2,5.9m-2-10a4.1,4.1,0,0,0-3.4-1.5,3.8,3.8,0,0,0-3.4,1.5,6.5,6.5,0,0,0-1.2,4.1,6.3,6.3,0,0,0,1.2,4.1,4.6,4.6,0,0,0,6.8,0,6.9,6.9,0,0,0,1.1-4.1,7.1,7.1,0,0,0-1.1-4.1m-14.8,1.2a1.3,1.3,0,0,1-1.2-.9,3.1,3.1,0,0,0-2.9-1.8,4,4,0,0,0-3.6,1.8,7.8,7.8,0,0,0-1.2,4.4v5.7a1.4,1.4,0,0,1-1.5,1.5,1.4,1.4,0,0,1-1.4-1.5V137a1.5,1.5,0,0,1,1.4-1.6,1.5,1.5,0,0,1,1.5,1.6v.7a4.7,4.7,0,0,1,1.9-1.8,6,6,0,0,1,2.9-.8c2.7,0,4.5,1,5.5,2.9a1.2,1.2,0,0,1,.2.8,1.6,1.6,0,0,1-1.6,1.5m-17.8,10.6a1.6,1.6,0,0,1-1.5-1.6,5.8,5.8,0,0,1-1.9,1.5,6.5,6.5,0,0,1-2.7.5,7.4,7.4,0,0,1-5.6-2.3,8.8,8.8,0,0,1-1.9-5.8,8.3,8.3,0,0,1,2-5.7,7,7,0,0,1,5.6-2.4,8,8,0,0,1,2.6.5,4,4,0,0,1,1.9,1.4,1.6,1.6,0,0,1,1.5-1.6,1.4,1.4,0,0,1,1.5,1.5v12.5a1.4,1.4,0,0,1-1.5,1.5m-2.7-11.8a4.1,4.1,0,0,0-3.4-1.5,4.3,4.3,0,0,0-3.4,1.5,6.9,6.9,0,0,0-1.2,4.1,6.6,6.6,0,0,0,1.2,4.1,4.6,4.6,0,0,0,6.8,0,6.1,6.1,0,0,0,1.3-4.1,6.3,6.3,0,0,0-1.3-4.1M376.4,151a1.4,1.4,0,0,1-1.5-1.5v-7.8a5.4,5.4,0,0,0-.7-3.2,3,3,0,0,0-2.5-.9,4,4,0,0,0-3.4,1.6,7.4,7.4,0,0,0-1.2,4.4v5.9a1.4,1.4,0,0,1-1.4,1.5,1.4,1.4,0,0,1-1.5-1.5V130.7a1.5,1.5,0,0,1,1.5-1.6,1.5,1.5,0,0,1,1.4,1.6v6.9a2.8,2.8,0,0,1,1.7-1.7,5.7,5.7,0,0,1,2.9-.8c4,0,6.1,2,6.1,6v8.4a1.4,1.4,0,0,1-1.4,1.5Zm-21.7-8.9,1.9.3,1.7.4a7.1,7.1,0,0,1,1.5.7,3.8,3.8,0,0,1,1.3,2.9,4.3,4.3,0,0,1-2,3.7,8.7,8.7,0,0,1-5,1.4c-3-.2-5.2-1.1-6.6-2.8a1.9,1.9,0,0,1-.5-1,1.4,1.4,0,0,1,1.4-1.5,1.6,1.6,0,0,1,1.4.7,5.1,5.1,0,0,0,4.3,2c2.7,0,4-.8,4-2.4s-.3-1.1-1.3-1.4l-1.3-.3-1.6-.3-2.3-.4-1.9-.7a3.3,3.3,0,0,1-2-3.3,4,4,0,0,1,1.8-3.6,7.5,7.5,0,0,1,4.5-1.3,6.9,6.9,0,0,1,5.9,2.6,1.4,1.4,0,0,1,.3.9,1.4,1.4,0,0,1-1.6,1.4,1.3,1.3,0,0,1-1.1-.6,3.8,3.8,0,0,0-3.5-1.8c-2.2,0-3.4.8-3.4,2.2S352.1,141.7,354.7,142.1Z"/><path class="cls-6" d="M290.1,149.1a7,7,0,0,1-5.6,2.2,5.8,5.8,0,0,1-2.6-.5,3.5,3.5,0,0,1-1.9-1.4v6.3a1.4,1.4,0,1,1-2.8,0V136.9a1.3,1.3,0,0,1,1.4-1.5,1.4,1.4,0,0,1,1.4,1.5,3.8,3.8,0,0,1,1.9-1.3,8.1,8.1,0,0,1,2.7-.5,6.8,6.8,0,0,1,5.5,2.2,8.4,8.4,0,0,1,2,5.9,9,9,0,0,1-2,5.9m-2.1-9.9a3.9,3.9,0,0,0-3.4-1.6,4,4,0,0,0-3.4,1.6,6.3,6.3,0,0,0-1.1,4.1,7.1,7.1,0,0,0,1.1,4.1,4.2,4.2,0,0,0,3.4,1.5,4.1,4.1,0,0,0,3.4-1.5,6.5,6.5,0,0,0,1.2-4.1,6.3,6.3,0,0,0-1.2-4.1"/><path class="cls-6" d="M308,149.1a8,8,0,0,1-11.2,0,8.3,8.3,0,0,1-2.1-5.8,8.1,8.1,0,0,1,2.1-5.8,7.7,7.7,0,0,1,11.2,0,8.1,8.1,0,0,1,2.1,5.8,8.3,8.3,0,0,1-2.1,5.8m-2.1-9.9a4.6,4.6,0,0,0-7,0,5.8,5.8,0,0,0-1.3,4.1,5.9,5.9,0,0,0,1.3,4.1,4.8,4.8,0,0,0,7,0,7.1,7.1,0,0,0,0-8.2"/><path class="cls-6" d="M313,148.7a1.9,1.9,0,0,1-.5-1,1.4,1.4,0,0,1,1.4-1.5,1.6,1.6,0,0,1,1.4.7,5.1,5.1,0,0,0,4.3,2c2.7,0,4-.8,4-2.4s-.3-1.1-1.3-1.4l-1.2-.3-1.7-.3-2.3-.4-1.9-.7a3.3,3.3,0,0,1-2-3.3,4,4,0,0,1,1.8-3.6,8.2,8.2,0,0,1,4.5-1.3,6.9,6.9,0,0,1,5.9,2.6,1.6,1.6,0,0,1,.3.9c0,.9-.6,1.4-1.6,1.4a1.4,1.4,0,0,1-1.1-.6,3.8,3.8,0,0,0-3.5-1.8c-2.2,0-3.4.8-3.4,2.3s1.5,1.8,4.2,2.2l1.8.2,1.7.5,1.5.6a3.8,3.8,0,0,1,1.3,2.9,4.2,4.2,0,0,1-2,3.7,8,8,0,0,1-5,1.4,8.8,8.8,0,0,1-6.6-2.8Z"/><path class="cls-6" d="M333.4,130.4a1.5,1.5,0,0,1,1.5-1.5,1.4,1.4,0,0,1,1.4,1.5v5h5.9c1,0,1.5.4,1.5,1.3s-.5,1.3-1.5,1.3h-5.9v8.1c0,1.9,1,2.8,2.5,2.8a6.1,6.1,0,0,0,2.3-.5l.9-.7.8-.3a1.4,1.4,0,0,1,1.4,1.4,1.7,1.7,0,0,1-1,1.3,7.3,7.3,0,0,1-4.5,1.3,6.1,6.1,0,0,1-3.9-1.2,4.9,4.9,0,0,1-1.4-3.8v-8.5h-4.2q-1.5,0-1.5-1.2c0-.9.5-1.3,1.5-1.3h4.2v-5Z"/><path class="cls-7" d="M237.9,151.9a7,7,0,0,0,5.3-2.2c1.3-1.4,1.9-3.4,1.9-6a8.6,8.6,0,0,0-1.9-5.8,6.7,6.7,0,0,0-5.3-2.3,6.3,6.3,0,0,0-2.7.6,3,3,0,0,0-1.7,1.4v-6.4a1.4,1.4,0,0,0-1.4-1.5,1.3,1.3,0,0,0-1.4,1.5V150a1.4,1.4,0,0,0,1.4,1.6,1.6,1.6,0,0,0,1.4-1.6,3.7,3.7,0,0,0,1.8,1.4,7.5,7.5,0,0,0,2.6.5m4.4-8.2a7.5,7.5,0,0,1-1.1,4.2,4.4,4.4,0,0,1-6.6,0,7.5,7.5,0,0,1-1.1-4.2,7.1,7.1,0,0,1,1.1-4.1,4.4,4.4,0,0,1,6.6,0,7.1,7.1,0,0,1,1.1,4.1"/><path class="cls-7" d="M250.9,158.1a5,5,0,0,0,3.9-1.6,20.6,20.6,0,0,0,3.2-5.4l6-13.1c0-.3.1-.4.1-.6a1.5,1.5,0,0,0-.9-1.4h-.6a1.4,1.4,0,0,0-1.4.9l-4.6,10.6L252,136.8a1.5,1.5,0,0,0-1.4-.9H250a1.5,1.5,0,0,0-.9,1.4c0,.3.1.4.1.6l5.8,13v.4a15,15,0,0,1-1.8,3.3,2.9,2.9,0,0,1-2.2.9l-1.5-.3a1.2,1.2,0,0,0-1.2,1.2c0,1.1.9,1.6,2.7,1.6Z"/><path class="cls-5" d="M95,124H79.1a1.1,1.1,0,0,0-1,1v14.2a1,1,0,0,0,1,.9H89.4a1,1,0,0,0,.9-.6l5.6-14.2A.9.9,0,0,0,95,124"/><path class="cls-5" d="M149.9,124h-35l9.8-56.1a.9.9,0,0,0-.9-1.1H109.7a1,1,0,0,0-1,.8L105.1,88H85.4a.9.9,0,0,0-.9.9v14.2a.9.9,0,0,0,.9.9h16.9L93,157a1,1,0,0,0,.9,1.1h14.2a.9.9,0,0,0,.9-.8l3-17.2h20.2l-3,16.9a1,1,0,0,0,.9,1.1h14.2a1,1,0,0,0,.9-.7l5.7-32.2a1,1,0,0,0-1-1.1"/><path class="cls-5" d="M168.5,124H157.6a1,1,0,0,0-.8.6l-5.6,14.2a.9.9,0,0,0,.8,1.3h16.5a1,1,0,0,0,1-1V125a1.1,1.1,0,0,0-1-1"/><path class="cls-5" d="M174.9,88H157.4l3.5-20.1a.9.9,0,0,0-.9-1.1H145.9a1,1,0,0,0-1,.8L141.3,88H127.8a.9.9,0,0,0-.9.6l-5.6,14.1a.9.9,0,0,0,.9,1.3h16.3l-2.3,13.2a.9.9,0,0,0,.7,1.1l13.6,3.2a1,1,0,0,0,1.1-.8l3-16.7h20.3a.9.9,0,0,0,.9-.9V88.9a.9.9,0,0,0-.9-.9"/></g></g><text class="cls-8" transform="translate(78.1 513.7)">Status Update<tspan class="cls-9"><tspan x="0" y="95.2">June 2024</tspan></tspan></text></g><g id="Isolation_Mode" data-name="Isolation Mode"><path class="cls-10" d="M946.2,907c-132.1-55.5-163.3-263-77.7-367.2,42.4-51.5,104.9-80.9,161.8-115.7,110.5-67.5,143-201.5,256.6-264,68.7-37.8,155.3-44.2,226.3-11.1S1636,256.3,1636.6,334.6c.4,51.4-17.6,110.2,15.6,149.5,19.3,22.7,50.3,30.8,77,44.1,62.6,31.1,105.5,96,115.5,165.2s-.7,159.7-82.3,214.7"/><path class="cls-11" d="M927.4,340.2c-8.8-3.4-17.8-6.6-25.3-12.2s-13.6-14-14-23.3c-.6-11.4,7.5-22,17.9-26.5s22.5-3.8,33.3-.2c23.6,7.9,41.4,28.6,51.4,51.5,9.3,21.3,13.1,44.7,15.5,67.7C989.1,367.4,958.4,352,927.4,340.2Z"/><path class="cls-11" d="M964.5,414.8c-5.9,5.7-10.3,13.4-11.1,21.6-.4,4.7.7,10.1,4.8,12.4a9.7,9.7,0,0,0,4.8,1.1c6.4.2,12.3-3.3,16.9-7.8s7.9-9.9,11.9-14.9,11.2-11.9,18.5-15.2,16-4.2,23.4-1.2C1009,400.7,986.5,393.8,964.5,414.8Z"/><path class="cls-11" d="M1104.5,405.4c12.5-1.8,24.9-11.9,24.5-24.5-.2-6.9-4-13.3-8.8-18.2-17-17.6-45.9-19.8-68-9.5s-38.1,30.8-48.3,53c18.8-4.7,38.7-9.7,58.2-7.6C1076.5,400.2,1089.7,407.5,1104.5,405.4Z"/><path class="cls-12" d="M938,450.5c4.8-4.9,8.6-10.9,12.9-16.3,14.4-18,37.8-29.8,60.4-27.5a2.3,2.3,0,0,0,1.4-4.3,67.5,67.5,0,0,0-18-7.7,81.6,81.6,0,0,0-32.6-2c-20.9,3-41.8,13.7-52.7,32.3-4.7,8-8.9,19.7-2.9,27.8s17.2,8,25,3.1A30.6,30.6,0,0,0,938,450.5Z"/><path class="cls-12" d="M923.8,390.9l-8.4.4c-15.4.8-31.3,1.5-45.7-3.9s-28.4-27.2-17.8-42.5,36.2-20.7,54.2-16.5c13.7,3.2,26.4,9.7,38.4,17,14.4,8.7,28.2,18.9,41.7,28.9a154.4,154.4,0,0,1,17.8,15.5,105.7,105.7,0,0,1,9,9.9h0a2.8,2.8,0,0,1-3.4,4.2,144.1,144.1,0,0,0-35-10.7C957.8,390.5,940.8,390.3,923.8,390.9Z"/><path class="cls-12" d="M1015.7,402.7l-2.4.7c-7.6-14.8-25.2-28.6-35.6-39.2-19.2-19.5-43.1-34.1-65.5-49.5-13.3-9.2-28.1-22.4-23.3-38.6,3.1-10.3,12.8-17,23.5-17.2,28.8-.5,50.2,19,65.1,41.1,10.2,15.1,15.4,31.2,23,47.4A165.5,165.5,0,0,1,1015.7,402.7Z"/><path class="cls-12" d="M1073.8,302.7c7.3-7.5,15.6-14.8,25.6-18s22.4-1.2,28.9,7.1,5.8,17.6,2.2,26-10.2,15.1-17.2,21c-17.6,14.6-38.2,24.9-57.3,37.2-11.1,7.1-22.9,15.7-32.7,26a3.3,3.3,0,0,1-5.5-3.2C1029.9,363.1,1047,330.1,1073.8,302.7Z"/><path class="cls-12" d="M1032.1,384.7a197,197,0,0,1-11.1,20.2,4.1,4.1,0,0,1-7.6-2.5c1-14.4-2-27.2-4.3-42.9a523.4,523.4,0,0,0-14-66.7c-3.5-12.4-7.6-25-6.4-37.8s9.1-26,21.7-28.8c10.5-2.3,21.7,3.4,28.3,12s9.4,19.4,10.8,30.2C1054.8,307.3,1049.2,349.3,1032.1,384.7Z"/><path class="cls-12" d="M1080.6,440.6c8.1,6.5,19.5,13.9,30.1,15.4,17.7,2.4,20.8-13.6,17.1-27.5-4.6-17.2-19.1-31.3-35.2-38.3a55.5,55.5,0,0,0-18.8-4.4c-21.2-1.4-35.7,3.9-50.3,13.9a4.9,4.9,0,0,0,1.8,8.8C1046.9,412.5,1063.5,426.9,1080.6,440.6Z"/><path class="cls-13" d="M1028.1,402.4c33.9-4.3,69.6,13.2,86.8,42.8"/><path class="cls-13" d="M1020,397.5a197.2,197.2,0,0,1,82.3-86.3"/><path class="cls-13" d="M921.6,437.4c17.7-26.4,51.8-40.9,83.1-35.2"/><path class="cls-13" d="M864.1,357.3c49.6-9.2,101.3,5.1,144.4,42.7"/><path class="cls-13" d="M910.2,277.1c23.5,12.4,43.6,30.3,60.5,50.8s30.6,43.3,42.7,66.8"/><path class="cls-13" d="M1018.4,374.3a381.5,381.5,0,0,0-3.7-131.8"/><path class="cls-2" d="M1015.5,400.7c-80.4,145.7-88.3,370.6,9,504.9l10.7-.3h67.4C980,785.8,960.3,568.6,1015.5,400.7Z"/><path class="cls-2" d="M1025.3,468.2c-8.8-3.4-17.7-6.6-25.2-12.2s-13.6-14-14.1-23.3c-.5-11.4,7.6-22,18-26.5s22.5-3.8,33.2-.2c23.7,8,41.5,28.6,51.5,51.5,9.3,21.3,13,44.7,15.4,67.7C1087.1,495.5,1056.3,480,1025.3,468.2Z"/><path class="cls-2" d="M1062.5,542.8c-6,5.7-10.3,13.4-11.1,21.6-.5,4.7.7,10.1,4.7,12.4a10.4,10.4,0,0,0,4.9,1.1c6.3.2,12.3-3.3,16.8-7.8s8-9.9,12-14.9,11.1-11.9,18.4-15.2,16.1-4.2,23.5-1.1C1107,528.7,1084.5,521.8,1062.5,542.8Z"/><path class="cls-2" d="M1202.4,533.4c12.6-1.8,24.9-11.9,24.6-24.5-.2-6.9-4.1-13.3-8.9-18.2-17-17.5-45.8-19.8-68-9.5s-38.1,30.8-48.2,53c18.8-4.7,38.6-9.7,58.2-7.6C1174.4,528.2,1187.6,535.5,1202.4,533.4Z"/><path class="cls-2" d="M1124.8,530h-15c-58.6,113.9-72.6,250-38.5,373.4l88.6,1.9C1114.9,857.1,1071.7,665.9,1124.8,530Z"/><path class="cls-12" d="M1036,578.5c4.8-4.9,8.5-10.9,12.8-16.3,14.4-18,37.9-29.8,60.5-27.5a2.3,2.3,0,0,0,1.4-4.3,68.9,68.9,0,0,0-18-7.7,80.1,80.1,0,0,0-32.7-1.9c-20.8,3-41.7,13.6-52.7,32.2-4.7,8-8.9,19.7-2.8,27.8s17.2,8,25,3.1A33.3,33.3,0,0,0,1036,578.5Z"/><path class="cls-12" d="M1021.7,516.4c-12.4,2.1-24.5,6-37.1,7.1s-26-.8-35.7-8.9c-4.7-4-8.5-9.8-8.2-16s4.9-12.3,10.2-16.4c19.8-15.5,48.1-14.5,72.5-8,36.3,9.7,64.5,26,87.6,53.6a2.4,2.4,0,0,1-2.8,3.7C1080.9,518.4,1052.6,510.9,1021.7,516.4Z"/><path class="cls-12" d="M1113.7,530.7l-2.5.7c-7.6-14.8-25.1-28.6-35.6-39.2-19.1-19.5-43-34-65.5-49.5-13.2-9.2-28.1-22.4-23.2-38.6,3.1-10.3,12.8-17,23.5-17.2,28.8-.5,50.1,19,65.1,41.1,10.1,15.1,15.3,31.2,23,47.4A165.5,165.5,0,0,1,1113.7,530.7Z"/><path class="cls-12" d="M1150.2,423c5.8-8.8,12.5-17.5,21.8-22.6s21.7-5.6,29.7,1.3,9,16.2,7.1,25.2-7,16.8-12.8,23.9c-14.5,17.7-32.7,31.7-49.1,47.5-9.5,9.1-19.4,19.8-27.1,31.9a3.3,3.3,0,0,1-6-2.2C1118.9,490.7,1129.3,455,1150.2,423Z"/><path class="cls-12" d="M1130,512.7a195.3,195.3,0,0,1-11,20.2,4.1,4.1,0,0,1-7.6-2.5c1-14.4-2.1-27.1-4.3-42.8a521.6,521.6,0,0,0-14.1-66.8c-3.5-12.4-7.5-25-6.3-37.8s9.1-26,21.6-28.7c10.6-2.4,21.7,3.3,28.3,11.9s9.4,19.4,10.9,30.2C1152.8,435.3,1147.2,477.3,1130,512.7Z"/><path class="cls-12" d="M1178.5,568.6c8.2,6.5,19.6,13.9,30.1,15.4,17.8,2.4,20.8-13.6,17.1-27.5-4.5-17.2-19-31.3-35.1-38.3a58.6,58.6,0,0,0-18.9-4.4c-21.2-1.4-35.6,3.9-50.3,13.9a4.9,4.9,0,0,0,1.9,8.8C1144.8,540.5,1161.4,554.9,1178.5,568.6Z"/><path class="cls-13" d="M1126.1,530.4c33.9-4.3,69.6,13.3,86.8,42.8"/><path class="cls-13" d="M1115.8,526.3a197.4,197.4,0,0,1,64-100.5"/><path class="cls-13" d="M1019.5,565.4c17.7-26.4,51.8-40.8,83.2-35.1"/><path class="cls-13" d="M965.4,497.8c42.8-13.6,98.9-4.9,141.1,30.2"/><path class="cls-13" d="M1008.2,405.1c23.4,12.4,43.6,30.3,60.5,50.8s30.5,43.3,42.7,66.8"/><path class="cls-13" d="M1116.3,502.3a379,379,0,0,0-3.6-131.8"/><path class="cls-10" d="M1685.6,364.9c-48.5,36.6-14.5,126.1,41.6,133.4,6.7.9,13.6.7,19.8-1.9C1814.8,467.4,1758.7,309.6,1685.6,364.9Z"/><path class="cls-14" d="M1811.3,914.5c-3.3-4.8-10.8-9-17.6-11.1-33.6-10.5-70.1-11.2-106.3-13.2-43.6-2.5-95.4-6.5-139.2-6.7-28.1-.1-53.4-5.5-79.5-10.2-12.2-2.2-24.6-4.3-37.5-5.6-20.3-2.1-40.8-3-61.3-3.9-59.7-2.5-119.4-5-179.2-6.5-28.7-.7-59.2-.8-83.9,9.9-6.9,3-13.1,6.8-20.1,9.6-26,10.7-58.1,7.1-87.9,4.8a904.8,904.8,0,0,0-165.4,2c-25.5,2.6-30.2,22.8-9.7,33.1,33,16.8,81.7,16.7,118.8,18.8q37.2,2.1,74.6,2.5c15.8.2,33.1-2.2,47.8,4.4,3.7,1.7,6.6,5.3,5.5,8.8s-3.5,4.4-4.4,7,.3,5.8,2.6,7.9,7.5,4.5,11.8,5.4c13.9,2.9,41.2,2,59.8,2h385.2c5.7,0,11.3-.3,16.9-.7,15.9.3,31.9.5,47.8.6s35.4-1.6,40.4-12.4c1.6-3.5,1.4-7.5,4.4-10.5s8.9-4,14.2-4.7c39.3-5.4,82.8-2.2,122.4-5.4,10.5-.9,21.5-1.9,30.2-6.1S1815.9,921.4,1811.3,914.5Z"/><path class="cls-15" d="M1272.5,480.7a1.5,1.5,0,0,0-1.5,1.5v88.5h3V482.2A1.5,1.5,0,0,0,1272.5,480.7Z"/><path class="cls-14" d="M1204.2,698.7l1.5-79.8c.4-21.7.2-43.2,1.7-64.9.3-3.7.8-7.9,4-9.9,1.4-1,3.3-1.2,5-1.4,4.5-.5,9.1-.8,13.4.7s7.9,5.3,8,9.8-1.5,7.1.8,9.3,2.9,1.4,4.5,1.5,6.1.4,8.5-1.2,3.7-7.4,4.2-11.6c.8-5.8,4-9.3,9.7-10.1s8.5.5,12.7,1.6,3.8,2.1,3.9,5.3.4,4.9.7,7.4a11.5,11.5,0,0,0,1.7,5c2.8,3.9,8.2,4.1,12.4,2.7s8.4-7.1,9.1-12.7a12.7,12.7,0,0,1,.4-2.6,5.4,5.4,0,0,1,3.8-2.9,16.8,16.8,0,0,1,5,.1c6,.7,15.5-.4,18.3,6.4,1,2.3,1,4.9,1,7.4-.4,55.6-1.3,111.2.3,166.7"/><path class="cls-14" d="M1401.3,927.8H1149.6c.8-47.8-1.2-84.7-2.4-127.1l-1.8-63.6c-.5-20-2.6-40.4.3-60.3.1-.5.1-.9.2-1.3.6-4,1.6-8.4,4.6-11.2s15-4.7,20.7-5.2c7.3-.6,15.2,2.6,18,9.8,1.9,5.1,1.1,10.8,1.7,16.2s3.9,11.5,9.4,11.9c9.1.6,10.8-12.3,14.3-20.7a23.9,23.9,0,0,1,45,2.3c.9,3,1.2,6.1,2.3,8.9,4.5,10.9,22.6,12,28.3,1.7,1.8-3.3,2.4-7.1,3.8-10.6a22.2,22.2,0,0,1,22-12.8,22,22,0,0,1,18.7,17.2c1.6,8,.1,15.3,9.5,16.3,7.1.8,14.1-7.4,13.5-14-.4-4.1-2.5-8.7.1-11.9s4.4-2.5,6.9-2.8c13-1.8,29.9-1.6,35,10.6,1.6,3.7,1.6,7.9,1.5,11.9C1400.8,766.7,1401.7,854.2,1401.3,927.8Z"/><path class="cls-16" d="M1329.8,927.8H1214.7c.2-24.8,1.4-49.8,8.5-73.5,3.7-12.5,9.2-24.8,18.6-33.7a48.9,48.9,0,0,1,72.8,6.1c8.3,11,11.5,25,13.5,38.7A265.8,265.8,0,0,1,1329.8,927.8Z"/><path class="cls-17" d="M1204.6,696c1.6-.3,3-2.6,3.8-3.8a29.8,29.8,0,0,0,2.4-5.1c1.4-3.5,2.3-7.3,3.8-10.8a23.9,23.9,0,0,1,45,2.3c.9,3,1.2,6.1,2.3,8.9,4.5,10.9,22.6,12,28.3,1.7,1.8-3.3,2.4-7.1,3.8-10.6a22.2,22.2,0,0,1,22-12.8,21.5,21.5,0,0,1,11.3,5,22.8,22.8,0,0,1,7,11.3"/><path class="cls-14" d="M1151.6,795.6c-20.7-2-43-.2-63.8-1.2-.1,42.4,1.4,90.4,6.6,132.5l57.7.9Z"/><path class="cls-14" d="M1398.1,795.6c20.7-2,43.1-.2,63.9-1.2.1,42.4-1.4,90.4-6.7,132.5l-57.7.9Z"/><circle class="cls-16" cx="1163.2" cy="894" r="5.4"/><circle class="cls-16" cx="1176.3" cy="883.9" r="3.2"/><circle class="cls-16" cx="1199.2" cy="910.3" r="5"/><circle class="cls-16" cx="1213.9" cy="862.8" r="3.3"/><circle class="cls-16" cx="1108" cy="916.7" r="5.4"/><circle class="cls-16" cx="1130.3" cy="910.6" r="2.5"/><circle class="cls-16" cx="1121.9" cy="899" r="2"/><circle class="cls-16" cx="1128.7" cy="901.9" r="0.9"/><circle class="cls-16" cx="1159.9" cy="905.2" r="0.4"/><circle class="cls-16" cx="1177.2" cy="901.9" r="0.9"/><circle class="cls-16" cx="1205.8" cy="887" r="1.5"/><circle class="cls-16" cx="1184.1" cy="857.9" r="1.6"/><circle class="cls-16" cx="1120.1" cy="847.3" r="2.5"/><circle class="cls-16" cx="1115.8" cy="841" r="1.2"/><circle class="cls-16" cx="1138.5" cy="829" r="0.8"/><circle class="cls-16" cx="1341.9" cy="907.6" r="3.7"/><circle class="cls-16" cx="1343.4" cy="889.6" r="1.5"/><circle class="cls-16" cx="1354.4" cy="907" r="1.7"/><circle class="cls-16" cx="1367.6" cy="898.6" r="1.5"/><circle class="cls-16" cx="1381.7" cy="914.2" r="3.9"/><circle class="cls-16" cx="1381" cy="878.3" r="4.6"/><circle class="cls-16" cx="1348" cy="856.7" r="2.3"/><circle class="cls-16" cx="1415.5" cy="912.3" r="1.9"/><circle class="cls-16" cx="1437.4" cy="889.3" r="4.1"/><circle class="cls-16" cx="1449.6" cy="914.4" r="2.1"/><circle class="cls-16" cx="1435.7" cy="916.9" r="1.5"/><circle class="cls-16" cx="1438.3" cy="838.3" r="1.6"/><circle class="cls-16" cx="1427.1" cy="830" r="0.9"/><line class="cls-17" x1="1147.2" y1="800.7" x2="1147.2" y2="887.1"/><line class="cls-17" x1="1398.1" y1="800.7" x2="1398.1" y2="880.7"/><path class="cls-16" d="M1193.4,734.4h0a13.9,13.9,0,0,1,13.9,13.9v24.5a0,0,0,0,1,0,0h-27.9a0,0,0,0,1,0,0V748.3a13.9,13.9,0,0,1,13.9-13.9Z"/><path class="cls-16" d="M1272.8,734.4h0a13.9,13.9,0,0,1,13.9,13.9v24.5a0,0,0,0,1,0,0h-27.9a0,0,0,0,1,0,0V748.3a13.9,13.9,0,0,1,13.9-13.9Z"/><path class="cls-16" d="M1352.1,734.4h0a13.9,13.9,0,0,1,13.9,13.9v24.5a0,0,0,0,1,0,0h-27.9a0,0,0,0,1,0,0V748.3a13.9,13.9,0,0,1,13.9-13.9Z"/><path class="cls-16" d="M1236.8,591.6h0a13.9,13.9,0,0,1,13.9,13.9v24.5a0,0,0,0,1,0,0h-27.9a0,0,0,0,1,0,0V605.6a13.9,13.9,0,0,1,13.9-13.9Z"/><path class="cls-16" d="M1302.2,591.6h0a13.9,13.9,0,0,1,13.9,13.9v24.5a0,0,0,0,1,0,0h-27.9a0,0,0,0,1,0,0V605.6A13.9,13.9,0,0,1,1302.2,591.6Z"/><circle class="cls-16" cx="1272" cy="687.3" r="3.2"/><circle class="cls-16" cx="1278.2" cy="681.9" r="0.9"/><circle class="cls-16" cx="1269.5" cy="674.9" r="2.1"/><circle class="cls-16" cx="1289.1" cy="672.3" r="0.7"/><circle class="cls-16" cx="1289.8" cy="677.1" r="1.4"/><circle class="cls-16" cx="1283.9" cy="686.8" r="0.4"/><circle class="cls-16" cx="1258.2" cy="664.3" r="0.9"/><circle class="cls-16" cx="1308.1" cy="662.7" r="1.3"/><circle class="cls-16" cx="1301.3" cy="664.6" r="0.6"/><circle class="cls-16" cx="1208.3" cy="679.1" r="2.1"/><circle class="cls-16" cx="1209.7" cy="671.8" r="0.6"/><circle class="cls-16" cx="1214.6" cy="671.2" r="0.4"/><circle class="cls-16" cx="1211.9" cy="662.8" r="1.5"/><circle class="cls-16" cx="1283.5" cy="667.3" r="1.7"/><circle class="cls-16" cx="1329.4" cy="660" r="0.8"/><circle class="cls-16" cx="1222.6" cy="659.4" r="0.6"/><path class="cls-12" d="M1325.7,506.4a17.5,17.5,0,0,1-7.8-4.7c-6.8-7.1-10.7-14.5-20.7-17.5A39.2,39.2,0,0,0,1282,483a78.1,78.1,0,0,0-9.3,1.5,6.4,6.4,0,0,0-5.1,6.2v16.9a6.1,6.1,0,0,0,6.4,6.1h.1c2.8-.1,5.3-1.5,7.8-2.7,4.2-2.2,9.8-4.9,14.6-5.1s10.8,4.1,16.1,5.1a19.6,19.6,0,0,0,13.4-2A1.4,1.4,0,0,0,1325.7,506.4Z"/><path class="cls-17" d="M1095.1,923.6c-3-18-6.2-66.9-7.9-86.9"/><path class="cls-17" d="M1455.8,923.6c2.9-18,5-66.9,5.7-86.9"/><ellipse class="cls-16" cx="1563.9" cy="915.4" rx="100" ry="6.5"/><polyline class="cls-18" points="1572.9 768.8 1573.8 842.1 1573.7 903.4"/><circle class="cls-11" cx="1573.7" cy="841.6" r="12.9"/><circle class="cls-15" cx="1573.7" cy="841.6" r="6.7"/><path class="cls-15" d="M1556,892.5h35.4a0,0,0,0,1,0,0v4a17.7,17.7,0,0,1-17.7,17.7h0a17.7,17.7,0,0,1-17.7-17.7v-4A0,0,0,0,1,1556,892.5Z" transform="translate(3147.4 1806.7) rotate(180)"/><line class="cls-18" x1="1528.4" y1="768.8" x2="1528.4" y2="903.4"/><path class="cls-15" d="M1510.8,892.5h35.4a0,0,0,0,1,0,0v4a17.7,17.7,0,0,1-17.7,17.7h0a17.7,17.7,0,0,1-17.7-17.7v-4A0,0,0,0,1,1510.8,892.5Z" transform="translate(3056.9 1806.7) rotate(-180)"/><circle class="cls-11" cx="1528.3" cy="841.6" r="12.9"/><circle class="cls-15" cx="1528.3" cy="841.6" r="6.7"/><path class="cls-19" d="M1496.1,729.1h64.5L1549,792.9a13.2,13.2,0,0,1-12.9,10.7h-17a13.1,13.1,0,0,1-12.9-11Z"/><path class="cls-12" d="M1540,729.6l64.5-.8-10.9,64.1a12.8,12.8,0,0,1-12.4,10.6l-17.5.2a12.8,12.8,0,0,1-12.7-10.6Z"/><path class="cls-18" d="M1516.9,559.6c.6,19.1-5.5,44.4-23.1,51.7-29.9,12.6-28.7-11.7-15.8-21.2"/><circle class="cls-11" cx="1516.8" cy="555.7" r="12.9"/><circle class="cls-15" cx="1516.8" cy="555.7" r="6.7"/><path class="cls-12" d="M1489.1,754.5c15.3,22.8,38.2,30.4,61.4,30.6a133,133,0,0,0,25.3-2.2c38.9-7.1,61.3-42.2,61.9-81.9.7-43.6-14-87.3-25.9-129.6-1.5-5.5-3-11-4.4-16.5-5.3-20.3-10.5-40.6-13.6-61.4-3.6-23.8-3.9-48.8-4-73.3-.1-8.3-.1-16.5-.2-24.6,0-1.4-.1-2.7-.2-4.1h0a102.1,102.1,0,0,0-1.6-14.5c-2.9-14.3-9.9-27.1-26.1-30.6-14-3-24.9,3.6-31.2,16-5.4,10.7-6.3,14.5-6.3,21.3h0c0,3,.2,6.6.2,11.8.3,39.6-7.1,91.8-16.5,130.1-11.9,49-29.2,94.9-34.2,145.2C1471.2,695.5,1469.6,725.5,1489.1,754.5Z"/><path class="cls-19" d="M1550.5,785.1a133,133,0,0,0,25.3-2.2c38.9-7.1,61.3-42.2,61.9-81.9.7-43.6-14-87.3-25.9-129.6-1.5-5.5-3-11-4.4-16.5-5.3-20.3-10.5-40.6-13.6-61.4-3.6-23.8-3.9-48.8-4-73.3-12.4,74.6,10.1,168,14.6,185.4,9.7,37.7,25.1,83.4,12.6,120.3C1607.6,753.5,1594.1,775.9,1550.5,785.1Z"/><path class="cls-12" d="M1512.7,343.1a23.9,23.9,0,0,1,1.3-2.1l4.6-7.5c-1.5,0-2.6-1.5-2.8-3a8.6,8.6,0,0,1,1-4.4c2.5-6.2,5.8-12.1,7.7-18.6s3.8-12.1,7.5-17a20.3,20.3,0,0,1,7.9-6.3c4-1.9,8-1.7,12.2-2,7.8-.5,16.7,1.9,21.4,8.3s6.3,13.1,9.3,19.7,7.4,14.5,11.5,21.5a12.5,12.5,0,0,1,1.8,4.1,4.2,4.2,0,0,1-1.3,4.1c-1.2.9-3.3.6-3.8-.8a47.8,47.8,0,0,1,6.4,19.5c.3,2.4.3,5.9-2.6,6.7a6.4,6.4,0,0,1-4.1-.7,10.6,10.6,0,0,1-.2,4.7c-.5,1.5-2.1,2.8-3.6,2.5a10.9,10.9,0,0,1-1.3,6,11.5,11.5,0,0,1-4.8,4.2,54.6,54.6,0,0,1-13.6,4.6c-2.5.5-4.9.8-7.4,1.1a41.7,41.7,0,0,1-7.1.7c-13.2-1.1-28.2-2.3-36.9-13.4a18.9,18.9,0,0,1-3.2-7.9c-.2-1.2-.8-8.3.8-8.8a3.6,3.6,0,0,1-4-1.9,7.5,7.5,0,0,1-.4-4.7A25.2,25.2,0,0,1,1512.7,343.1Z"/><path class="cls-12" d="M1560,274.2l-.3-.2a4.6,4.6,0,0,0-2.9-1.1c-1.8,0-3.2,1.9-3.2,3.8a11.1,11.1,0,0,0,1.5,5.2l-5.9-7a24.6,24.6,0,0,0-5.9-5.7c-1.9-1.2-4.6-2.4-7-2s-3.3,3.9-2.6,6.4a14.9,14.9,0,0,0,1.9,4.5l3.3,6a15.2,15.2,0,0,0-3.3-3.4,4.6,4.6,0,0,0-4.4-.5c-3.5,1.8-2.5,6.9-1.5,9.7a21.9,21.9,0,0,0,23.4,13.6c2.6-.5,5.2-1.4,7.8-1.4,6.3-.1,11.1,5.1,12,11,4.6-3.3,5.6-11.2,3.9-16.3a44.1,44.1,0,0,0-7.3-12.6C1566.7,280.5,1563.8,276.9,1560,274.2Z"/><path class="cls-12" d="M1506.6,295.6c-2.9-11-.4-22.9,5.2-33.3,1.4-2.7,3.8-5.7,7-5.3,5.8.6,6.2,8.8,6.4,12.6a82.1,82.1,0,0,0,3.2,19c2.2,7.8,6.8,14.8,9,22.5a5.1,5.1,0,0,1,.3,2.1c-.4,1.8-2.6,3-4.6,3.4a18.3,18.3,0,0,1-9.3-1.2C1514.4,311.6,1509,304.6,1506.6,295.6Z"/><path class="cls-15" d="M1524.9,303.9a3.1,3.1,0,0,1-2.6.8,6.3,6.3,0,0,1-2.7-1,17.5,17.5,0,0,1-7.3-9.6,34.9,34.9,0,0,1-.9-11.6c.4-3.3.9-8,3.4-10.5a2.8,2.8,0,0,1,3.6-.6c1.1.8,1.1,2.2,1.3,3.4a43.4,43.4,0,0,0,.7,5.2,84,84,0,0,0,2.3,10.2c.8,2.8,2.2,5.3,3,8S1526.3,302.6,1524.9,303.9Z"/><path class="cls-12" d="M1599.8,293.3c.9-11.4-3.6-22.7-10.9-31.9-1.9-2.4-4.9-4.9-8-4-5.5,1.6-4.4,9.7-4,13.5a83.1,83.1,0,0,1,.2,19.3c-.8,8.1-4.1,15.8-4.9,23.7a4.9,4.9,0,0,0,.1,2.1c.7,1.8,3,2.6,5.1,2.6a17.2,17.2,0,0,0,9-2.9C1594.9,310.4,1599.1,302.6,1599.8,293.3Z"/><path class="cls-15" d="M1583.2,304.7a3.4,3.4,0,0,0,2.8.3,6.1,6.1,0,0,0,2.4-1.5,17.1,17.1,0,0,0,5.5-10.7,31.8,31.8,0,0,0-1.2-11.5c-.9-3.3-2.2-7.9-5.1-9.9a3,3,0,0,0-3.7.1c-.9,1-.7,2.4-.6,3.6s.2,3.5.2,5.2a92.3,92.3,0,0,1-.5,10.5c-.3,2.8-1.2,5.6-1.5,8.4S1581.6,303.7,1583.2,304.7Z"/><circle class="cls-15" cx="1564" cy="316.9" r="4.1"/><circle class="cls-15" cx="1533.7" cy="316.9" r="4.1"/><path class="cls-11" d="M1526.1,351a62.4,62.4,0,0,1,2-6.9c2.7-8.4,8.1-23.3,18.8-23.3,6.5.1,11.9,5.7,14.7,12.1.7,1.7,1.5,3.3,2.2,4.9,2.7,6.4,9.9,24.8-1.9,26.5a8.6,8.6,0,0,0-1.7.3,9.4,9.4,0,0,0-1,1,15.1,15.1,0,0,1-24.5,0l-1-1a8.6,8.6,0,0,0-1.7-.3,7.6,7.6,0,0,1-5.9-5.3A15.5,15.5,0,0,1,1526.1,351Z"/><path class="cls-15" d="M1546.3,345.9c-.4.4-.6-.4-.7-.8a9.2,9.2,0,0,1,1.1-4.3,10.5,10.5,0,0,1,6.5-5.4c1.4-.4,3.6-.9,4.9-.1s0,3.6-1.3,4.4a11.2,11.2,0,0,1-4.4,1.3,4.9,4.9,0,0,0-2.4.5c-1.8.8-2.4,3-3.6,4.4Z"/><path class="cls-15" d="M1545.6,345.9c.4.4.7-.4.7-.8a7.3,7.3,0,0,0-1.1-4.3,10.5,10.5,0,0,0-6.5-5.4c-1.4-.4-3.6-.9-4.9-.1s.1,3.6,1.4,4.4a10.8,10.8,0,0,0,4.3,1.3,5.3,5.3,0,0,1,2.5.5c1.7.8,2.3,3,3.6,4.4Z"/><path class="cls-13" d="M1546.4,344c-.4,7.1-.3,4.6-.4,11.8"/><path class="cls-13" d="M1546,354.6c0,1.1,0,2.4-.8,3.2a4.5,4.5,0,0,1-3.2.7,10,10,0,0,1-6.6-3.3"/><path class="cls-13" d="M1546,354.6c0,1.1,0,2.4.9,3.2a4.4,4.4,0,0,0,3.2.7,10,10,0,0,0,6.6-3.3"/><path class="cls-15" d="M1537.7,356.9a9.4,9.4,0,0,0,12.2,3.3c2.1-1.1,3.7-2.9,5.8-4a26,26,0,0,1-4.9,1.8,7.2,7.2,0,0,1-2.5.3,2.8,2.8,0,0,1-2.2-1.4,4.5,4.5,0,0,1-4.1,1.4A9.1,9.1,0,0,1,1537.7,356.9Z"/><path class="cls-13" d="M1561.4,383c-10.8,5.8-22.1,4.7-31.5-1"/><polygon class="cls-2" points="1458.8 546.4 1558.9 546.4 1542.5 642.9 1475.1 642.9 1458.8 546.4"/><path class="cls-12" d="M1458.8,546.4c0,1.1,2,2.2,5.6,3.1,8.4,2.2,25.1,3.7,44.4,3.7,17.6,0,33.1-1.3,42.1-3.1,5-1.1,8-2.3,8-3.7s-6-3.7-15.7-4.9a296.6,296.6,0,0,0-34.4-1.8c-14.8,0-28,.8-37.2,2.2S1458.8,544.7,1458.8,546.4Z"/><path class="cls-14" d="M1464.4,549.5c8.4,2.2,25.1,3.7,44.4,3.7,17.6,0,33.1-1.3,42.1-3.1-2.5-2.9-5.1-5.8-7.7-8.6-4.8-5.3-9.9-10.4-15-15.4s-8.9-8.3-14.7-9.8c-9.9-2.5-19.9,3.6-27.1,10.8-4.3,4.4-9.6,9.5-14.8,14.8C1469.1,544.4,1466.7,547,1464.4,549.5Z"/><ellipse class="cls-2" cx="1508.8" cy="642.9" rx="33.7" ry="3.6"/><path class="cls-20" d="M1465.2,549.7a43.8,43.8,0,0,0,43.6,44h0a43.8,43.8,0,0,0,43.6-44h0"/><path class="cls-18" d="M1595.4,557.5c29.9,85.7-23.1,103.2-66.3,79.3"/><circle class="cls-11" cx="1593.8" cy="553.9" r="12.9"/><circle class="cls-15" cx="1593.8" cy="553.9" r="6.7"/><polyline class="cls-21" points="1527.4 636.1 1510.3 642.9 1501.3 637.8"/><polyline class="cls-21" points="1527.6 635.6 1524.6 617.5 1515.5 612.4"/><circle class="cls-11" cx="1529.1" cy="636.8" r="12.9"/><circle class="cls-15" cx="1529.1" cy="636.8" r="6.7"/><polyline class="cls-21" points="1478.9 588.5 1474.3 570.7 1480.5 562.4"/><polyline class="cls-21" points="1479.3 588.9 1497.7 588.1 1503.9 579.8"/><path class="cls-18" d="M1468.4,612.4c-1-10.4,4.3-18.7,9.6-22.3"/><circle class="cls-11" cx="1478" cy="590.1" r="12.9"/><circle class="cls-15" cx="1478" cy="590.1" r="6.7"/><path class="cls-22" d="M1403.4,370.9a13.1,13.1,0,0,0-13.5,5.1c-.5-5.8-1.1-11.8-3.5-17.1s-7.4-10-13.2-10.5-12.1,4.3-11.7,10.2c-1.6-13.5-6.5-26.2-15.5-34.7-12.7-12-35.6-12.5-50.1-1.6-8,6.1-19.2,26.4-15.5,44.3-7.5-6.3-21.4-.8-22.5,9-5.6-4.8-16-1.2-17.4,6H1413A13.1,13.1,0,0,0,1403.4,370.9Z"/><path class="cls-22" d="M1458.8,235.4a9.2,9.2,0,0,0-11,2.5c-3.2-8.3-8.9-16-17-19.5s-18.9-1.7-23.9,5.5-3.9,13.3-3.6,20.3c-3.7-2.9-10-1.2-11.8,3.1l70.1.2A8.4,8.4,0,0,0,1458.8,235.4Z"/></g></svg>