<svg xmlns="http://www.w3.org/2000/svg" xmlns:xlink="http://www.w3.org/1999/xlink" viewBox="0 0 1920 1080"><defs><style>.cls-1,.cls-13,.cls-18,.cls-19,.cls-20{fill:none;}.cls-2{fill:#cba6ff;}.cls-3{clip-path:url(#clip-path);}.cls-4{fill:#110b1d;}.cls-5,.cls-8{fill:#6122b2;}.cls-6,.cls-7{fill:#666;}.cls-6{fill-rule:evenodd;}.cls-8{font-size:80px;font-family:Monosten-Regular, Monosten;}.cls-9{fill:#250d45;}.cls-10{fill:#e6d4ff;}.cls-11{fill:#d4bcf5;}.cls-12{fill:#f2e8ff;}.cls-13{stroke:#fffcf5;}.cls-13,.cls-18,.cls-19,.cls-20{stroke-linecap:round;stroke-linejoin:round;}.cls-13,.cls-19{stroke-width:2px;}.cls-14{fill:#ffe699;}.cls-15{fill:#d6bb69;}.cls-16{fill:#fffcf5;}.cls-17{fill:#260d46;}.cls-18,.cls-19,.cls-20{stroke:#260d46;}.cls-18{stroke-width:17px;}.cls-20{stroke-width:7px;}.cls-21{fill:#e8d7ff;}.cls-22{fill:#973bfc;}.cls-23{fill:#6b1fbf;}</style><clipPath id="clip-path"><rect class="cls-1" x="78.3" y="65.9" width="353.3" height="91.34"/></clipPath></defs><g id="may_1" data-name="may 1"><rect class="cls-2" x="0.5" y="-0.9" width="1920" height="1080"/><g class="cls-3"><g class="cls-3"><path class="cls-4" d="M202,90a2.2,2.2,0,0,1,4.4-.4v.9a4.3,4.3,0,0,1,1.6-2.4,4.5,4.5,0,0,1,3-1c3.1,0,4.9,1.2,5.6,3.5a5.1,5.1,0,0,1,1.8-2.5,6,6,0,0,1,3.5-1c4,0,6.1,2.5,6.1,6.6v15.8a2.2,2.2,0,0,1-2,2.4,2.2,2.2,0,0,1-2.4-1.9V94.9c0-2.7-.8-3.9-2.8-3.9s-3.6,2.2-3.6,6.6v11.9a2.2,2.2,0,0,1-2,2.4,2.2,2.2,0,0,1-2.4-1.9V94.9c0-2.7-.8-3.9-2.8-3.9s-3.6,2.4-3.6,7.1v11.4a2.2,2.2,0,0,1-2,2.4A2.1,2.1,0,0,1,202,110V90Z"/><path class="cls-4" d="M255.2,104.7a2,2,0,0,0-1.7.9,9.3,9.3,0,0,1-7.3,2.9,6.9,6.9,0,0,1-5.1-2,7.9,7.9,0,0,1-2.4-5h16.8a2.2,2.2,0,0,0,2.4-2c.1-.2.1-.3,0-.4a11.9,11.9,0,0,0-3.3-8.6,12.3,12.3,0,0,0-17.2.2,14.3,14.3,0,0,0,0,18.1,11.3,11.3,0,0,0,8.8,3.6c4.3,0,7.8-1.2,10.4-3.7a2.3,2.3,0,0,0,.2-3.2h-.1a1.8,1.8,0,0,0-1.5-.8Zm-14-11.8a7.4,7.4,0,0,1,5-1.9,6.2,6.2,0,0,1,4.7,1.9,10.7,10.7,0,0,1,2.5,4.7H238.7a8.1,8.1,0,0,1,2.5-4.7"/><path class="cls-4" d="M271.5,77.4a2.2,2.2,0,0,1,2.2,2.4v7.8h8.8c1.5,0,2.2.6,2.2,1.9s-.7,1.9-2.2,1.9h-8.8v12.8c0,2.9,1.5,4.3,3.7,4.3a8.1,8.1,0,0,0,3.4-.8l1.4-1a2.1,2.1,0,0,1,1.3-.5,2,2,0,0,1,2,1.9v.2a2.9,2.9,0,0,1-1.4,2.1,12.3,12.3,0,0,1-6.9,2,9,9,0,0,1-5.8-1.9c-1.4-1.3-2.1-3.2-2.1-5.9V91.5H263c-1.6,0-2.3-.6-2.3-1.9s.7-1.9,2.3-1.9h6.3V79.8a2.2,2.2,0,0,1,2-2.4Z"/><path class="cls-4" d="M311.1,87.6c-1.2,0-2,1-2.1,2.5a7.3,7.3,0,0,0-3-2.2,10.5,10.5,0,0,0-3.9-.8,10.1,10.1,0,0,0-8.3,3.8,14.5,14.5,0,0,0-.1,17.8,10.9,10.9,0,0,0,12.3,2.9,6.5,6.5,0,0,0,3-2.2c.1,1.6.9,2.5,2.2,2.5a2.2,2.2,0,0,0,2.3-2.1V90a2.2,2.2,0,0,0-2-2.4h-.4m-3.9,18.5a6.6,6.6,0,0,1-9.2,1l-1-1a10.2,10.2,0,0,1-1.9-6.3,10.5,10.5,0,0,1,1.9-6.4,6.5,6.5,0,0,1,9.1-1l1.1,1a10.5,10.5,0,0,1,1.9,6.4,10.2,10.2,0,0,1-1.9,6.3"/><path class="cls-5" d="M329.7,108V81.8h-5.4c-1.4,0-2.4-.7-2.4-2s1-1.9,2.4-1.9h7.6a2.2,2.2,0,0,1,2.2,1.9v28.3h7c1.4,0,2.4.7,2.4,1.9s-1,1.9-2.4,1.9H322.6c-1.3,0-2.3-.7-2.3-1.9s1-1.9,2.3-1.9Z"/><path class="cls-5" d="M366.4,87.6c-1.3,0-2.1,1-2.2,2.5a7.3,7.3,0,0,0-3-2.2,10,10,0,0,0-3.8-.8,10.3,10.3,0,0,0-8.4,3.8,13.5,13.5,0,0,0-3,8.9,13.7,13.7,0,0,0,3,8.9,10.1,10.1,0,0,0,8.4,3.7,10.9,10.9,0,0,0,3.9-.8,6.3,6.3,0,0,0,2.9-2.2c.1,1.6,1,2.5,2.2,2.5a2.3,2.3,0,0,0,2.4-2.1V90a2.2,2.2,0,0,0-2.1-2.4h-.3m-4,18.5a6.6,6.6,0,0,1-9.2,1l-1-1a10.2,10.2,0,0,1-1.9-6.3,10.5,10.5,0,0,1,1.9-6.4,6.6,6.6,0,0,1,9.2-1l1,1a10.5,10.5,0,0,1,1.9,6.4,10.2,10.2,0,0,1-1.9,6.3"/><path class="cls-5" d="M376.3,90a2.2,2.2,0,0,1,2-2.4,2.2,2.2,0,0,1,2.4,2c.1.1.1.2,0,.4v.5a4.9,4.9,0,0,1,1.6-2.4,5,5,0,0,1,3.1-1c3,0,4.9,1.2,5.5,3.5a5.3,5.3,0,0,1,1.9-2.5,5.9,5.9,0,0,1,3.4-1c4.1,0,6.1,2.5,6.1,6.6v15.8a2.2,2.2,0,0,1-4.4.5V94.9c0-2.7-.8-3.9-2.7-3.9s-3.7,2.2-3.7,6.6v11.9a2.2,2.2,0,0,1-4.4.5V94.9c0-2.7-.7-3.9-2.7-3.9s-3.7,2.4-3.7,7.1v11.4a2.1,2.1,0,0,1-2,2.4,2.1,2.1,0,0,1-2.4-1.9V90Z"/><path class="cls-5" d="M429.2,87.6c-1.2,0-2,1-2.2,2.5a5.8,5.8,0,0,0-2.9-2.2,10.6,10.6,0,0,0-12.2,3,13.5,13.5,0,0,0-3,8.9,13.2,13.2,0,0,0,3,8.9,10.1,10.1,0,0,0,8.4,3.7,10,10,0,0,0,3.8-.8,6.5,6.5,0,0,0,3-2.2c.1,1.6.9,2.5,2.2,2.5a2.2,2.2,0,0,0,2.3-2.1V90a2.2,2.2,0,0,0-2.1-2.4h-.3m-3.9,18.5a6.6,6.6,0,0,1-9.2,1,4.7,4.7,0,0,1-1-1,10.2,10.2,0,0,1-1.9-6.3,10,10,0,0,1,1.9-6.3,6.4,6.4,0,0,1,9.1-1.1,5.7,5.7,0,0,1,1.1,1.1,10,10,0,0,1,1.9,6.3,10.2,10.2,0,0,1-1.9,6.3"/><path class="cls-6" d="M428.6,148.2a7,7,0,0,1-5.5,2.3,7.6,7.6,0,0,1-2.7-.5,4.2,4.2,0,0,1-1.9-1.5v6.4a1.3,1.3,0,0,1-1.4,1.5,1.4,1.4,0,0,1-1.4-1.5V136.1a1.4,1.4,0,1,1,2.8,0,4,4,0,0,1,1.9-1.4,8.4,8.4,0,0,1,2.7-.4,7.1,7.1,0,0,1,5.5,2.1,9.7,9.7,0,0,1,0,11.8m-2.1-9.9a3.9,3.9,0,0,0-3.4-1.6,4.1,4.1,0,0,0-3.4,1.6,6.3,6.3,0,0,0-1.1,4.1,7.1,7.1,0,0,0,1.1,4.1,4.3,4.3,0,0,0,3.4,1.5,4.1,4.1,0,0,0,3.4-1.5,6.5,6.5,0,0,0,1.2-4.1,6.3,6.3,0,0,0-1.2-4.1m-14.7,1.1a1.4,1.4,0,0,1-1.3-.8,2.9,2.9,0,0,0-2.8-1.8,4.3,4.3,0,0,0-3.7,1.8,7.4,7.4,0,0,0-1.2,4.4v5.6a1.4,1.4,0,0,1-1.4,1.6,1.5,1.5,0,0,1-1.4-1.6V136.1a1.4,1.4,0,1,1,2.8,0v.7a5.8,5.8,0,0,1,2-1.7,4.9,4.9,0,0,1,2.9-.8c2.7,0,4.5.9,5.5,2.9a1.1,1.1,0,0,1,.2.7,1.6,1.6,0,0,1-1.6,1.5m-17.9,10.7a1.4,1.4,0,0,1-1.4-1.6,4.3,4.3,0,0,1-2,1.4,6.2,6.2,0,0,1-2.6.6,6.8,6.8,0,0,1-5.6-2.4,8.8,8.8,0,0,1-2-5.7,8,8,0,0,1,2.1-5.7,6.8,6.8,0,0,1,5.5-2.4,7.5,7.5,0,0,1,2.6.4,4.5,4.5,0,0,1,2,1.4c.1-1,.6-1.6,1.4-1.6a1.5,1.5,0,0,1,1.6,1.6v12.5a1.4,1.4,0,0,1-1.6,1.5m-2.6-11.8a4.1,4.1,0,0,0-3.4-1.6,4,4,0,0,0-3.4,1.6,6.1,6.1,0,0,0-1.3,4.1,6.9,6.9,0,0,0,1.3,4.1,4.2,4.2,0,0,0,3.4,1.5,4.3,4.3,0,0,0,3.4-1.5,6.9,6.9,0,0,0,1.3-4.1,6.7,6.7,0,0,0-1.3-4.1m-14.8,11.9a1.5,1.5,0,0,1-1.4-1.6v-7.7a5.2,5.2,0,0,0-.7-3.2,2.8,2.8,0,0,0-2.5-1,4,4,0,0,0-3.4,1.7,7.1,7.1,0,0,0-1.2,4.3v5.9a1.4,1.4,0,0,1-1.4,1.5,1.4,1.4,0,0,1-1.5-1.5V129.8a1.5,1.5,0,0,1,1.4-1.5,1.5,1.5,0,0,1,1.5,1.5v6.9A3.1,3.1,0,0,1,369,135a5.5,5.5,0,0,1,2.8-.7c4.1,0,6.2,2,6.2,6v8.4a1.5,1.5,0,0,1-1.5,1.5Zm-21.6-8.9,1.9.2,1.6.5a4.8,4.8,0,0,1,1.6.7,3.7,3.7,0,0,1,1.3,2.8,4.4,4.4,0,0,1-2,3.8,8.7,8.7,0,0,1-5,1.3c-3-.1-5.2-1-6.7-2.8a1.8,1.8,0,0,1-.4-1,1.3,1.3,0,0,1,1.4-1.4,1.7,1.7,0,0,1,1.4.7,5,5,0,0,0,4.2,2c2.7,0,4.1-.9,4.1-2.5s-.3-1.1-1.3-1.4l-1.3-.3-1.6-.3-2.3-.3a7.7,7.7,0,0,1-1.9-.8,3.3,3.3,0,0,1-2.1-3.3,4.1,4.1,0,0,1,1.9-3.6,8,8,0,0,1,4.5-1.3,7,7,0,0,1,5.9,2.6,1.7,1.7,0,0,1,.3,1,1.5,1.5,0,0,1-1.6,1.4,1.4,1.4,0,0,1-1.1-.7,3.9,3.9,0,0,0-3.5-1.8c-2.2,0-3.4.8-3.4,2.3S352.3,140.9,354.9,141.3Z"/><path class="cls-6" d="M290.3,148.2a7.1,7.1,0,0,1-5.6,2.3,8.6,8.6,0,0,1-2.7-.5,4.5,4.5,0,0,1-1.8-1.5v6.4a1.4,1.4,0,0,1-1.4,1.5,1.4,1.4,0,0,1-1.5-1.5V136.1a1.5,1.5,0,0,1,1.5-1.6,1.6,1.6,0,0,1,1.4,1.6,3.5,3.5,0,0,1,1.9-1.4,7.7,7.7,0,0,1,2.7-.4,7.2,7.2,0,0,1,5.5,2.1,8.6,8.6,0,0,1,1.9,6,8.5,8.5,0,0,1-1.9,5.8m-2.1-9.9a4.6,4.6,0,0,0-6.8,0,6.5,6.5,0,0,0-1.2,4.1,7.5,7.5,0,0,0,1.2,4.2,4.8,4.8,0,0,0,6.8,0,6.8,6.8,0,0,0,1.2-4.2,6.5,6.5,0,0,0-1.2-4.1"/><path class="cls-6" d="M308.2,148.3a7.5,7.5,0,0,1-5.6,2.2,7.2,7.2,0,0,1-5.6-2.2,8.2,8.2,0,0,1-2.2-5.9,7.9,7.9,0,0,1,2.2-5.8,7,7,0,0,1,5.6-2.3,7.2,7.2,0,0,1,5.6,2.3,8.3,8.3,0,0,1,2.1,5.8,8.5,8.5,0,0,1-2.1,5.9m-2.1-10a4.5,4.5,0,0,0-3.5-1.5,4.4,4.4,0,0,0-3.5,1.5,6,6,0,0,0-1.4,4.1,6.3,6.3,0,0,0,1.4,4.2,4.3,4.3,0,0,0,3.5,1.4,4.5,4.5,0,0,0,3.5-1.4,6.4,6.4,0,0,0,1.3-4.2,5.9,5.9,0,0,0-1.3-4.1"/><path class="cls-6" d="M313.1,147.8a1.8,1.8,0,0,1-.4-1,1.3,1.3,0,0,1,1.4-1.4,1.6,1.6,0,0,1,1.4.7,5.1,5.1,0,0,0,4.3,2c2.6,0,4-.8,4-2.5s-.3-1.1-1.3-1.4l-1.3-.3-1.6-.2-2.3-.4-1.9-.7a3.3,3.3,0,0,1-2-3.4,4.3,4.3,0,0,1,1.8-3.6,7.9,7.9,0,0,1,4.5-1.2c2.6,0,4.6.8,5.9,2.6a1.2,1.2,0,0,1,.3.9,1.4,1.4,0,0,1-1.6,1.4,1.2,1.2,0,0,1-1.1-.7,3.8,3.8,0,0,0-3.5-1.7c-2.2,0-3.4.8-3.4,2.2s1.5,1.8,4.1,2.2l1.9.3,1.7.4a5.2,5.2,0,0,1,1.5.7,3.5,3.5,0,0,1,1.3,2.9,4.4,4.4,0,0,1-2,3.7,9.7,9.7,0,0,1-11.7-1.5Z"/><path class="cls-6" d="M333.6,129.6a1.4,1.4,0,0,1,1.4-1.5,1.4,1.4,0,0,1,1.5,1.5v5h5.8c1.1,0,1.6.4,1.6,1.3s-.5,1.2-1.6,1.2h-5.8v8.2c0,1.9,1,2.7,2.5,2.7a4,4,0,0,0,2.2-.5l1-.6a.9.9,0,0,1,.8-.4,1.4,1.4,0,0,1,1.4,1.4c0,.5-.4.9-1,1.4a8.2,8.2,0,0,1-4.5,1.2,5.9,5.9,0,0,1-3.9-1.2c-1-.7-1.4-2-1.4-3.7v-8.5h-4.2c-1.1,0-1.6-.4-1.6-1.3s.5-1.3,1.6-1.3h4.2v-4.9Z"/><path class="cls-7" d="M238,151a7,7,0,0,0,5.4-2.1,9.4,9.4,0,0,0,1.9-6,9,9,0,0,0-1.9-5.8,6.5,6.5,0,0,0-5.4-2.3,5.8,5.8,0,0,0-2.6.5,5.4,5.4,0,0,0-1.8,1.4v-6.4a1.4,1.4,0,0,0-1.4-1.5,1.5,1.5,0,0,0-1.4,1.5v18.9a1.4,1.4,0,1,0,2.8,0,4.7,4.7,0,0,0,1.9,1.4,6.9,6.9,0,0,0,2.5.4m4.5-8.1a6.5,6.5,0,0,1-1.2,4.1,3.7,3.7,0,0,1-3.2,1.5,3.9,3.9,0,0,1-3.3-1.5,7.6,7.6,0,0,1,0-8.2,3.9,3.9,0,0,1,3.3-1.5,3.7,3.7,0,0,1,3.2,1.5,6.3,6.3,0,0,1,1.2,4.1"/><path class="cls-7" d="M251.1,157.3a5.1,5.1,0,0,0,3.9-1.7,20.6,20.6,0,0,0,3.2-5.4l5.9-13,.2-.6a1.6,1.6,0,0,0-.9-1.4h-.6a1.4,1.4,0,0,0-1.4.9l-4.6,10.5L252.2,136a1.5,1.5,0,0,0-1.4-.9h-.6a1.3,1.3,0,0,0-.9,1.4,1.3,1.3,0,0,0,.1.6l5.8,13-.2.4a9,9,0,0,1-1.8,3.2,2.4,2.4,0,0,1-2.1,1l-1.5-.3a1.1,1.1,0,0,0-1.2,1.2c0,1,.9,1.6,2.7,1.6Z"/><path class="cls-5" d="M95.2,123.2h-16a.9.9,0,0,0-.9.9v14.2a.9.9,0,0,0,.9.9H89.6a1.1,1.1,0,0,0,.9-.5l5.6-14.2a1,1,0,0,0-.9-1.3"/><path class="cls-5" d="M150.1,123.2H115L124.9,67a.9.9,0,0,0-.9-1.1H109.8a1.1,1.1,0,0,0-.9.8l-3.6,20.4H85.6a1.1,1.1,0,0,0-1,1v14.1a1,1,0,0,0,1,1h16.9l-9.3,53a.9.9,0,0,0,.9,1.1h14.1a1.1,1.1,0,0,0,1-.8l3-17.2h20.2l-3,16.9a.9.9,0,0,0,.9,1.1h14.1a1,1,0,0,0,1-.8l5.6-32.2a.9.9,0,0,0-.9-1.1"/><path class="cls-5" d="M168.7,123.2H157.8a1,1,0,0,0-.9.6L151.3,138a.9.9,0,0,0,.9,1.2h16.5a.9.9,0,0,0,.9-.9V124.1a.9.9,0,0,0-.9-.9"/><path class="cls-5" d="M175,87.1H157.6L161.1,67a1,1,0,0,0-.9-1.1H146a1.1,1.1,0,0,0-.9.8l-3.6,20.4H128a1,1,0,0,0-.9.6l-5.6,14.2a.9.9,0,0,0,.8,1.3h16.4l-2.3,13.2a.8.8,0,0,0,.7,1l13.6,3.2a.9.9,0,0,0,1.1-.8l2.9-16.6H175a.9.9,0,0,0,1-1V88.1a.9.9,0,0,0-1-1"/></g></g><text class="cls-8" transform="translate(78.3 512.9)">Status Update<tspan class="cls-9"><tspan x="0" y="95.2">July 2024</tspan></tspan></text></g><g id="Isolation_Mode" data-name="Isolation Mode"><path class="cls-10" d="M1685,840.3H962.8c-74-43.6-144.6-133.2-85.9-213.4a140.2,140.2,0,0,1,15.5-18c5-4.9,10.4-9.6,16-14.1,24-19.3,51.6-36.5,60.5-63.6a56.1,56.1,0,0,0,2.2-9.2c4.8-30.7-16.3-58.5-31.9-85.4-35.4-60.9-44.7-138.2-16.9-202.9s95.1-112.7,165.4-110.1c77.4,2.8,146.5,61.6,223.7,56.1,41.6-2.9,79.2-24.2,118.9-37,74.8-24,163.8,11.5,213.6,69.2,74.7,86.4,12.4,148.3-5.2,241.2A121.6,121.6,0,0,0,1668.9,557c14,14.8,31.3,25.7,47.7,37.8,2.7,2,5.5,4.1,8.1,6.2,15.2,12,28.1,30.1,36.9,51.4C1787.9,715.5,1778.2,805.6,1685,840.3Z"/><path class="cls-11" d="M1761.6,652.4a562.4,562.4,0,0,1-165.2,33.2c-40.5,1.9-81-.5-121.5-1.1-145.4-2.1-290.4,19.8-435.7,16.4-34.1-.8-68.5-3-101.2-12.6-29.3-8.5-60.9-28.8-61.2-59.3a14.8,14.8,0,0,1,.1-2.1,140.2,140.2,0,0,1,15.5-18c5-4.9,10.4-9.6,16-14.1,24-19.3,51.6-36.5,60.5-63.6a156,156,0,0,1,30-15.1c10.4-3.7,21.4-6.6,32.3-5.2,32.9,4.5,48.7,44.4,78.9,58.5,21.4,10.1,47.2,5.3,68.4-5s39.6-25.9,59.6-38.5c6.4-4.1,13.3-7.9,20.9-8.6,13.5-1.2,25.5,7.9,36,16.5l91.9,75.1c7.8,6.4,15.9,12.9,25.5,15.8s22.3,1.6,33.4,2.9,22.1,5.9,33.4,5.2c15.9-.9,29.3-11.5,41.5-21.7l74.9-62.3c14.9-12.5,30.8-25.3,48.2-33.4a121.3,121.3,0,0,0,25.1,41.6c14,14.8,31.3,25.7,47.7,37.8,2.7,2,5.5,4.1,8.1,6.2C1739.9,613,1752.8,631.1,1761.6,652.4Z"/><path class="cls-12" d="M1685,840.3H962.8c-79.6-46.9-155.2-147-70.4-231.4,5-4.9,10.4-9.6,16-14.1h808.2c2.7,2,5.5,4.1,8.1,6.2C1784.9,648.6,1809.5,794,1685,840.3Z"/><line class="cls-13" x1="978.2" y1="658.1" x2="1061" y2="658.1"/><line class="cls-13" x1="1074.2" y1="622.4" x2="1111" y2="622.4"/><line class="cls-13" x1="1101.8" y1="639.7" x2="1127.5" y2="639.7"/><line class="cls-13" x1="915.9" y1="631.6" x2="959.1" y2="631.6"/><line class="cls-13" x1="894.5" y1="688.7" x2="915.9" y2="688.7"/><line class="cls-13" x1="1576.7" y1="656.1" x2="1685" y2="656.1"/><line class="cls-13" x1="1566.5" y1="625.4" x2="1592.1" y2="625.4"/><line class="cls-13" x1="1672.7" y1="621.3" x2="1711.5" y2="621.3"/><line class="cls-13" x1="1735" y1="670.4" x2="1749.3" y2="670.4"/><line class="cls-13" x1="1180.4" y1="614.2" x2="1208" y2="614.2"/><path class="cls-14" d="M1680.8,687.6q-96.3-3.6-192.8-3.5c-45.8.1-95.1-10.9-131.2,19.3-4.8,4-9.4,8.6-16.1,9.9a36.2,36.2,0,0,1-10.9,0c-93.2-10.4-184.1-29-277.7-29-30,0-62.4,1.2-86.2,19.6-19.4,15-29.8,39.2-48,55.7-27.9,25.1-68.5,27.9-105.8,32.1-15.7,1.8-33.7,5.8-40.7,20-9.3,19.1,8.7,40.2,26.8,51.3,38.9,23.8,85,32.6,130.1,39.5,90.5,13.8,180.5,19.1,271.9,24.2,34.1,1.8,72.1,2.5,97.8-18.8,7.4-6.2,13.4-14,21.9-18.7s20.5-6.3,31.4-7.1c57.1-4.1,118-8.2,175.1-2.2,58.8,6.3,111.2,13.9,170.1,0,19.2-4.6,44.6-11.4,58.1-27s21.1-35,38-48.8c18.6-15.2,51.7-21.8,64.3-43.1,32.1-54.1-67-58.5-91-65.3C1738.9,688.2,1708.6,688.6,1680.8,687.6Z"/><path class="cls-15" d="M1500,765.4a112.6,112.6,0,0,1,15.8-11.6c12.5-7.7,26.2-13.4,40-18.2,12.2-4.3,25.3-4.7,18.1-19.9-9.8-20.6-37.6-36.7-59.2-40.4-37.2-6.4-72.7,14.9-108.1,28.4-50.5,19.1-107.5,23.2-152.3,53.5-8.9,6-17.4,13.5-21,23.5-14.2,39.9,35.3,56.1,62.1,66.4,2.3.9,4.7,1.8,7.1,1.3s4.4-2.3,6.3-4c40.8-37.5,101.3-52.1,154.7-37.3,2.2.6,4.6,1.2,6.6.2s2.8-3.4,3.5-5.4C1478.9,787.6,1488.4,775.4,1500,765.4Z"/><path class="cls-16" d="M1589.5,348.5c-1.6,1.9-75.2,312-75.2,312-107.2,3.7-144.5,97.5-220.3,194.2l-39.6-10.3-35.6-9.3-1.9-.5L1184,826l-4.3-1.1-34-8.9-10.2-2.6-16.2-4.2-17.1-4.5-19.7-5.1-30.6-8c111.6-129.3,194.7-159,249.5-178.4,18-65.6,80-267.7,80-267.7h198.8C1581.5,345.5,1588.1,348.5,1589.5,348.5Z"/><path class="cls-2" d="M1479.5,345.5c-5.8,25.8-11.7,51.5-18,77.1-9.7,40.3-20.1,80.5-30.9,120.6q-7.9,29.8-16.4,59.7c-4.4,15.7-5.8,39.6-21.6,47.8C1311.7,692.9,1247,760,1184,826l-4.3-1.1-34-8.9c62.1-64.6,156.1-141.2,234.1-173.3,25.5-98.5,54.1-198.5,80.1-297.2Z"/><path class="cls-2" d="M1425.1,345.5c-2,0-12.2,48.2-13.4,53-10.4,41-21,82-31.4,123L1364.7,583c-4.5,18.1-7.1,37.8-21,51.5-5.5,5.3-12,9.4-18.5,13.5a1282.3,1282.3,0,0,0-205.9,161.2l-17.1-4.5-19.7-5.1c45.7-48.2,97.1-93.1,153.9-127.3,22-13.2,45.1-24.3,67.9-36.2,5.4-2.7,10.8-5.6,15-10,7.9-8.1,9.1-24.8,12.1-35.5l68.1-245.1Z"/><path class="cls-17" d="M1474.5,816a7.5,7.5,0,0,1-2.1-.2,8.6,8.6,0,0,1-6.1-10.4l114.9-459.1a8.5,8.5,0,1,1,16.5,4.3L1482.8,809.7A8.6,8.6,0,0,1,1474.5,816Z"/><path class="cls-18" d="M1051.9,794c67.9-90.1,163.1-154.8,262.8-183.2"/><path class="cls-18" d="M1291.3,859.9c89-172.2,229.2-249.1,285.9-134.5"/><path class="cls-2" d="M1545.2,345.5q-44,136.2-78.4,275.1c-1.7,6.9-3.5,13.9-7.2,20s-12.4,9-17.8,12.7-13,9-19.4,13.8q-19.2,14.1-37.2,29.6a835.6,835.6,0,0,0-67.7,65.4c-23.6,25.3-43.8,53.5-63.1,82.3l-35.6-9.3c54.7-76,132.6-149.5,210.3-189.1,30-99.6,59.7-200.3,88-300.5Z"/><path class="cls-19" d="M1333.6,640.6s113.4,8.6,144.3,6.7"/><polyline class="cls-20" points="1477.8 403.5 1480.4 385.3 1473.3 377.7"/><polyline class="cls-20" points="1477.4 403.9 1459 405.1 1452 397.6"/><circle class="cls-21" cx="1478.9" cy="405" r="12.9"/><circle class="cls-17" cx="1478.9" cy="405" r="6.7"/><path class="cls-18" d="M1503.1,470.1c2.7-27.9-8.5-56.4-24.2-65.1"/><path class="cls-21" d="M1291.3,365.5v61.8c0,1.5,8.4,2.8,18.8,2.8s18.8-1.3,18.8-2.8V365.5Z"/><path class="cls-16" d="M1291.3,365.5v61.8c0,1.5,8.4,2.8,18.8,2.8s18.8-1.3,18.8-2.8V365.5Z"/><path class="cls-22" d="M1323.9,400.3v23.8a76.6,76.6,0,0,1-13.8,1,75.7,75.7,0,0,1-13.8-1V399c2.6-.1,5.4,3.7,8.1,3.7s3.3-1.2,4.8-2.2,3.4-1.8,5-1,2,2.3,3.4,2.9S1321.7,401,1323.9,400.3Z"/><ellipse class="cls-17" cx="1310.1" cy="365.5" rx="18.8" ry="2.7"/><path class="cls-19" d="M1309,413c0-.4,12.8-67.5,12.8-67.5l15.8,2.9"/><path class="cls-19" d="M1321.1,344.9v-.2a16.4,16.4,0,0,1,1.4,2.2"/><path class="cls-19" d="M1320.3,347.8l1.8.7"/><path class="cls-19" d="M1324.4,345a2.3,2.3,0,0,1,.4,1.4"/><path class="cls-18" d="M1358.1,510.6c-55,10.3-84.7-40.7-73-88.6"/><circle class="cls-21" cx="1361.2" cy="508.1" r="12.9"/><circle class="cls-17" cx="1361.2" cy="508.1" r="6.7"/><polyline class="cls-20" points="1286.5 420.8 1287.6 402.4 1296.1 396.4"/><circle class="cls-21" cx="1285.1" cy="422" r="12.9"/><circle class="cls-17" cx="1285.1" cy="422" r="6.7"/><line class="cls-18" x1="1262" y1="672.7" x2="1169.3" y2="770.3"/><path class="cls-17" d="M1151.6,759.4H1187a0,0,0,0,1,0,0v4a17.7,17.7,0,0,1-17.7,17.7h0a17.7,17.7,0,0,1-17.7-17.7v-4A0,0,0,0,1,1151.6,759.4Z" transform="translate(1486 2134.2) rotate(-136.4)"/><circle class="cls-21" cx="1211.8" cy="725.4" r="12.9"/><circle class="cls-17" cx="1211.8" cy="725.4" r="6.7"/><path class="cls-23" d="M1265.9,621.7l46.7,44.4-52.3,38.2a13,13,0,0,1-16.7-1.1l-12.3-11.7a13.1,13.1,0,0,1-1.8-16.8Z"/><polyline class="cls-18" points="1296.3 687.7 1243.3 710.4 1225.1 756.3"/><circle class="cls-21" cx="1243.3" cy="710.4" r="12.9"/><circle class="cls-17" cx="1243.3" cy="710.4" r="6.7"/><path class="cls-17" d="M1202.6,751.6H1238a0,0,0,0,1,0,0v4a17.7,17.7,0,0,1-17.7,17.7h0a17.7,17.7,0,0,1-17.7-17.7v-4a0,0,0,0,1,0,0Z" transform="translate(2051.7 1936.8) rotate(-157.3)"/><path class="cls-22" d="M1325.1,637.7l28.8,57.6-62.4,18.2a12.7,12.7,0,0,1-15-6.5l-7.8-15.7a12.8,12.8,0,0,1,3.9-16.1Z"/><path class="cls-22" d="M1487.3,360.5a99.3,99.3,0,0,1-2.1,14.5l-.9,3.9c-2,7.9-4,15.9-6.1,23.9-6.8,26-11.9,50.7-13.4,77.3-1.7,30.7.4,59.9-3.6,90.5s-14.2,62.1-33.3,87.4c-16.1,21.1-39.2,37.6-64.9,44.7-22.9,6.4-47.2,3.5-66.7-8.3a76.8,76.8,0,0,1-27-28.1c-10.7-19-9.4-43.1-1.3-63.3s22.5-37.4,37.5-53.4c25-26.7,50.1-52.3,69.6-83.4s36.7-67,46.2-104c1.3-4.9,2-8.5,2.8-11.4h0c1.8-6.6,3.7-10,11.6-19s21.5-13.9,34.3-7.4C1484.7,331.8,1488.2,346,1487.3,360.5Z"/><path class="cls-23" d="M1478.2,402.8c-6.8,26-11.9,50.7-13.4,77.3-1.7,30.7.4,59.9-3.6,90.5s-14.2,62.1-33.3,87.4c-16.1,21.1-39.2,37.6-64.9,44.7-22.9,6.4-47.2,3.5-66.7-8.3,30.7,5.9,61.8-1.4,83.8-15.5,47.6-30.6,67.8-90.3,72.4-146.1,1.9-23.2.7-45.1,5.7-68.4C1462.9,443,1472.8,423.6,1478.2,402.8Z"/><path class="cls-22" d="M1420.5,308.1l1.3-2.1,4.7-7.4a3.5,3.5,0,0,1-2.9-3.1,9.4,9.4,0,0,1,1-4.3c2.6-6.2,5.9-12.2,7.8-18.6s3.8-12.2,7.4-17.1a20.3,20.3,0,0,1,7.9-6.3c4-1.8,8-1.7,12.3-2,7.7-.5,16.7,1.9,21.3,8.3s6.3,13.1,9.4,19.8,7.3,14.4,11.4,21.4a10.7,10.7,0,0,1,1.8,4.1,4.1,4.1,0,0,1-1.3,4.1,2.6,2.6,0,0,1-3.8-.8,50,50,0,0,1,6.5,19.5c.2,2.4.3,5.9-2.7,6.7a6.7,6.7,0,0,1-4.1-.7,9.3,9.3,0,0,1-.2,4.7,3.4,3.4,0,0,1-3.6,2.5,11.1,11.1,0,0,1-1.2,6,10.8,10.8,0,0,1-4.8,4.2,55.3,55.3,0,0,1-13.7,4.6c-2.4.5-4.9.8-7.3,1.1a43.8,43.8,0,0,1-7.1.7c-13.2-1.1-28.3-2.3-37-13.4a17.5,17.5,0,0,1-3.1-7.9c-.2-1.2-.8-8.3.7-8.8a3.4,3.4,0,0,1-3.9-1.9,7.5,7.5,0,0,1-.5-4.7A27.3,27.3,0,0,1,1420.5,308.1Z"/><path class="cls-22" d="M1467.9,239.2l-.4-.2a4.3,4.3,0,0,0-2.8-1.1c-1.9,0-3.2,1.9-3.3,3.8a10.8,10.8,0,0,0,1.5,5.2l-5.8-7a28.9,28.9,0,0,0-5.9-5.7c-2-1.2-4.7-2.4-7.1-2s-3.2,4-2.6,6.4a18.2,18.2,0,0,0,2,4.5l3.2,6a14.7,14.7,0,0,0-3.2-3.4,4.8,4.8,0,0,0-4.5-.5c-3.4,1.8-2.5,6.9-1.4,9.7,3.3,9.2,13.7,15.2,23.3,13.6,2.6-.4,5.2-1.4,7.9-1.4,6.2-.1,11.1,5.1,11.9,11,4.6-3.3,5.7-11.2,3.9-16.3a45.5,45.5,0,0,0-7.3-12.6C1474.5,245.5,1471.7,241.9,1467.9,239.2Z"/><path class="cls-22" d="M1414.4,260.6c-2.9-10.9-.4-22.9,5.2-33.3,1.4-2.7,3.9-5.7,7.1-5.3,5.8.6,6.1,8.8,6.3,12.6a93.2,93.2,0,0,0,3.2,19c2.2,7.8,6.9,14.8,9.1,22.5a5,5,0,0,1,.2,2.1c-.3,1.9-2.5,3-4.6,3.4a16.5,16.5,0,0,1-9.3-1.2C1422.3,276.6,1416.8,269.6,1414.4,260.6Z"/><path class="cls-17" d="M1432.8,269a3.6,3.6,0,0,1-2.7.7,7.4,7.4,0,0,1-2.7-1,17.6,17.6,0,0,1-7.3-9.6,34.2,34.2,0,0,1-.8-11.5c.3-3.4.8-8.1,3.3-10.6,1-1,2.6-1.4,3.6-.6s1.2,2.2,1.3,3.4.4,3.5.7,5.2c.6,3.5,1.4,6.9,2.3,10.2s2.3,5.3,3,8.1S1434.2,267.6,1432.8,269Z"/><path class="cls-22" d="M1507.7,258.3c.9-11.3-3.7-22.7-11-31.9-1.9-2.4-4.8-4.9-7.9-4-5.6,1.6-4.5,9.8-4,13.6a88,88,0,0,1,.2,19.2c-.8,8.1-4.2,15.8-5,23.8a5,5,0,0,0,.1,2.1c.7,1.7,3.1,2.5,5.2,2.5a17.3,17.3,0,0,0,8.9-2.8C1502.8,275.4,1506.9,267.6,1507.7,258.3Z"/><path class="cls-17" d="M1491.1,269.7a3.2,3.2,0,0,0,2.7.3,6.4,6.4,0,0,0,2.5-1.5,18.2,18.2,0,0,0,5.5-10.7,34.2,34.2,0,0,0-1.2-11.5c-.9-3.2-2.3-7.8-5.2-9.9a3,3,0,0,0-3.6.1c-1,1-.8,2.4-.7,3.6s.2,3.5.2,5.3a90.4,90.4,0,0,1-.4,10.4c-.3,2.9-1.3,5.6-1.6,8.4S1489.5,268.7,1491.1,269.7Z"/><circle class="cls-17" cx="1471.9" cy="281.9" r="4.1"/><path class="cls-17" d="M1423.2,281.5a174.7,174.7,0,0,1,30.4-3.4c-2.4,5.2-4.5,10.4-6.5,15.7a7.1,7.1,0,0,1-6.2,4.8l-6.3.9a7.3,7.3,0,0,1-8.2-5.3C1425.3,290,1424.3,285.8,1423.2,281.5Z"/><path class="cls-17" d="M1488.7,281a168.9,168.9,0,0,0-30.2-2.9c2.4,5.1,4.5,10.3,6.4,15.6a7.6,7.6,0,0,0,6.3,4.7l6.2.7a7.4,7.4,0,0,0,8.1-5.4C1486.5,289.5,1487.6,285.2,1488.7,281Z"/><path class="cls-17" d="M1422.5,278.5a175.8,175.8,0,0,1,72.6,1,1.6,1.6,0,0,1,1.4,1.9c-.1.5-.3,1-.4,1.5a1.7,1.7,0,0,1-2.1,1.1c-22.8-5-47.4-5.7-70.7-.9a1.6,1.6,0,0,1-2-1.2l-.3-1.5A1.7,1.7,0,0,1,1422.5,278.5Z"/><circle class="cls-17" cx="1441.5" cy="281.9" r="4.1"/><path class="cls-21" d="M1433.9,316a69.5,69.5,0,0,1,2-6.9c2.8-8.4,8.2-23.3,18.9-23.2,6.5,0,11.8,5.6,14.6,12.1l2.2,4.8c2.7,6.4,9.9,24.8-1.9,26.5a4.2,4.2,0,0,0-1.6.4c-.5.2-.7.6-1,.9a16,16,0,0,1-12.5,6.3,16.7,16.7,0,0,1-12.1-6.3,4.3,4.3,0,0,0-1-.9,4.7,4.7,0,0,0-1.6-.4,7.6,7.6,0,0,1-6-5.3A18,18,0,0,1,1433.9,316Z"/><path class="cls-17" d="M1454.2,310.9c-.4.4-.7-.4-.7-.8a7.3,7.3,0,0,1,1.1-4.3,10.3,10.3,0,0,1,6.5-5.4c1.4-.4,3.5-.9,4.9-.1s-.1,3.7-1.4,4.5a10.6,10.6,0,0,1-4.3,1.2,7,7,0,0,0-2.5.5c-1.7.8-2.3,3-3.6,4.4Z"/><path class="cls-17" d="M1453.5,310.9c.4.4.6-.4.7-.8a9.2,9.2,0,0,0-1.1-4.3,10.9,10.9,0,0,0-6.5-5.4c-1.4-.4-3.6-.9-4.9-.1s0,3.7,1.3,4.5a11.1,11.1,0,0,0,4.4,1.2,6.4,6.4,0,0,1,2.4.5c1.8.8,2.3,3,3.6,4.4Z"/><path class="cls-19" d="M1454.2,309.1c-.4,7-.2,4.5-.4,11.7"/><path class="cls-19" d="M1453.9,319.6c0,1.1,0,2.5-.9,3.2a4.4,4.4,0,0,1-3.2.7,10,10,0,0,1-6.6-3.3"/><path class="cls-19" d="M1453.8,319.6c0,1.1.1,2.5.9,3.2a4.5,4.5,0,0,0,3.2.7,10,10,0,0,0,6.6-3.3"/><path class="cls-17" d="M1445.6,321.9a9.5,9.5,0,0,0,5.4,4,9.2,9.2,0,0,0,6.7-.7c2.1-1,3.8-2.9,5.8-4a21.5,21.5,0,0,1-4.8,1.8,5.8,5.8,0,0,1-2.6.3,2.6,2.6,0,0,1-2.1-1.4,5,5,0,0,1-4.2,1.5A10.1,10.1,0,0,1,1445.6,321.9Z"/><path class="cls-19" d="M1469.2,348.1a30.7,30.7,0,0,1-31.4-1.1"/><path class="cls-18" d="M1449.5,530.6c46.4-10.6,58.1-50.8,52.9-83.4"/><circle class="cls-21" cx="1445.6" cy="531.1" r="12.9"/><circle class="cls-17" cx="1445.6" cy="531.1" r="6.7"/><circle class="cls-14" cx="1068.1" cy="288.8" r="90.2"/><path class="cls-16" d="M919.5,375.3c2-7.9,5.8-15.9,13-19.7s17.9-1.3,20.3,6.5c4.9-15.1,10.1-30.7,20.9-42.3s28.9-18.2,43-11,19.7,27,22.6,43.8a15.7,15.7,0,0,1,18.7-6.8c6.8,2.6,11.1,10.5,9.5,17.5,5.5-3.5,12.8-.9,14.7-.1,3.8,1.9,12.3,8.4,7.7,20.5H889.1C892.5,368,913.8,364,919.5,375.3Z"/><path class="cls-16" d="M1302.6,251.3a15,15,0,0,0-14.3,5.3c-.6-3.6-2.5-7.2-5.7-8.9s-8-.6-9.4,2.8c-2.2-6.6-4.6-13.2-8.8-18.7s-10.6-9.7-17.5-9.6-14.2,5.4-18,11.9-5.4,14-6.7,21.5c-4.4-2.9-12.3-.3-13,6.1h104.5A14.8,14.8,0,0,0,1302.6,251.3Z"/><ellipse class="cls-15" cx="1675" cy="808.4" rx="69.4" ry="7.7"/><path class="cls-2" d="M1723.6,748v.3a68.1,68.1,0,0,1-.5,7.8,63.4,63.4,0,0,1-12,29.4,45.5,45.5,0,0,1-4.9,5.8,62.8,62.8,0,0,1-31.2,17.9,66.4,66.4,0,0,1-14.2,1.6,62.5,62.5,0,0,1-22.2-4h-.1a62.9,62.9,0,0,1-35.9-35.1A62.2,62.2,0,0,1,1598,748a64.3,64.3,0,0,1,2.8-18.8h0a61.8,61.8,0,0,1,14.5-24.4A62.8,62.8,0,0,1,1723.6,748Z"/><path class="cls-16" d="M1675,809.2a66.4,66.4,0,0,1-14.2,1.6,62.5,62.5,0,0,1-22.2-4h-.1a114.4,114.4,0,0,1-9-80.4,23.3,23.3,0,0,1,.7-2.5l.6-2a4.3,4.3,0,0,1,.1-.5,9.3,9.3,0,0,0,.4-1.3,10.5,10.5,0,0,1,.4,1.7l.6,2.3h0l.3,1c.1.3.1.6.2.9a276,276,0,0,0,21.9,57.1c3.5,6.7,7.3,13.3,12.4,18.9A58.2,58.2,0,0,0,1675,809.2Z"/><path class="cls-16" d="M1723.6,748.3a68.1,68.1,0,0,1-.5,7.8,63.4,63.4,0,0,1-12,29.4,106.3,106.3,0,0,1-44.7-20.9c-14.1-11-25.6-25.1-34.6-40.4h0a5.6,5.6,0,0,0-.5-.8,7.5,7.5,0,0,0-.7-1.2l-1.2-2.2-.5-.9.6.3.9.4,1.6.8h.2l.6.3h.1C1661.6,734.8,1692.1,743.5,1723.6,748.3Z"/><path class="cls-16" d="M1634.9,725a8.5,8.5,0,0,0-2.3.3h-.2a10,10,0,0,0-2.9,1c-8.5,3.8-14.7,14.8-18.8,22.5a88.6,88.6,0,0,0-8.1,22.8A62.2,62.2,0,0,1,1598,748a64.3,64.3,0,0,1,2.8-18.8h0a88.4,88.4,0,0,1,10.2-3.7,46.2,46.2,0,0,1,19.2-1.5l1.6.3h.5Z"/><path class="cls-16" d="M1634.1,723v1.5a2.4,2.4,0,0,0-.4-1.2l-.3-.5c0-.1-.1-.1-.1-.2-2.4-3.6-8.9-9.6-10.4-11.4a64.1,64.1,0,0,0-7.6-6.5,62.5,62.5,0,0,1,25.5-16.3,93.4,93.4,0,0,0-6.7,33Z"/><path class="cls-16" d="M1715.4,717a188.5,188.5,0,0,0-43.7-3.1c-13.9.4-28.5,2.2-39.6,10.5,10.9-17,28.9-29,48-36.2A63.1,63.1,0,0,1,1715.4,717Z"/><ellipse class="cls-22" cx="1630.8" cy="722.4" rx="8" ry="5.4" transform="translate(-33.2 1364.8) rotate(-45)"/></g></svg>