<svg xmlns="http://www.w3.org/2000/svg" xmlns:xlink="http://www.w3.org/1999/xlink" viewBox="0 0 1920 1080"><defs><style>.cls-1,.cls-14,.cls-19,.cls-21{fill:none;}.cls-2{fill:#cba6ff;}.cls-3{clip-path:url(#clip-path);}.cls-4{fill:#110b1d;}.cls-5,.cls-8{fill:#6122b2;}.cls-6,.cls-7{fill:#666;}.cls-6{fill-rule:evenodd;}.cls-8{font-size:80px;font-family:Monosten-Regular, Monosten;}.cls-9{fill:#250d45;}.cls-10{fill:#e6d4ff;}.cls-11{fill:#f6f0ff;}.cls-12{fill:#ffa6ea;}.cls-13{clip-path:url(#clip-path-3);}.cls-14,.cls-19,.cls-21{stroke:#260d46;stroke-linecap:round;stroke-linejoin:round;}.cls-14{stroke-width:17px;}.cls-15{fill:#260d46;}.cls-16{fill:#e8d7ff;}.cls-17{fill:#6b1fbf;}.cls-18{fill:#973bfc;}.cls-19{stroke-width:2px;}.cls-20{fill:#fffcf5;}.cls-21{stroke-width:7px;}.cls-22{fill:#f07fd5;}</style><clipPath id="clip-path"><rect class="cls-1" x="77.5" y="65.8" width="353.3" height="91.34"/></clipPath><clipPath id="clip-path-3"><path class="cls-1" d="M1510.2,708.2c-13.4,23.6-39.4,30.4-62.9,33.9a590.5,590.5,0,0,1-204.9-6.2c-16.9-3.6-35-8.7-46.1-24.6-12.4-17.7-14.5-36-18.5-57.3-11.4-61.8-16.9-125.5-7.5-187.7s34.4-123.2,77.8-168.7c19.6-20.4,43.5-38,71.2-43.6,17.8-3.7,36.1-2.2,54,.8,36.7,6.2,74.1,20.6,97.4,49.6,16.9,21.1,25,47.7,31.3,73.9C1528.5,489,1566.2,609,1510.2,708.2Z"/></clipPath></defs><g id="Isolation_Mode" data-name="Isolation Mode"><rect class="cls-2" width="1920" height="1080"/><g class="cls-3"><g class="cls-3"><path class="cls-4" d="M201.1,89.8a2.2,2.2,0,0,1,4.4-.4.3.3,0,0,1,0,.4v.5a5.3,5.3,0,0,1,1.6-2.3,5.1,5.1,0,0,1,3.1-1.1c3,0,4.9,1.2,5.5,3.5a5,5,0,0,1,1.9-2.4,6,6,0,0,1,3.4-1.1c4.1,0,6.1,2.6,6.1,6.6v15.9a2.2,2.2,0,0,1-2,2.4,2.1,2.1,0,0,1-2.3-2c-.1-.2-.1-.3,0-.4V94.8c0-2.8-.9-4-2.8-4s-3.7,2.2-3.7,6.6v12a2.2,2.2,0,0,1-2,2.4,2.1,2.1,0,0,1-2.3-2c-.1-.2-.1-.3,0-.4V94.8c0-2.8-.8-4-2.8-4s-3.7,2.4-3.7,7.2v11.4a2.1,2.1,0,0,1-1.9,2.4,2.3,2.3,0,0,1-2.5-2v-20Z"/><path class="cls-4" d="M254.4,104.6a2.5,2.5,0,0,0-1.8.8c-1.7,2-4.1,3-7.3,3a7.1,7.1,0,0,1-5.1-2.1,9.1,9.1,0,0,1-2.4-4.9h16.8a2.3,2.3,0,0,0,2.5-2.1v-.4a11.7,11.7,0,0,0-3.3-8.5,10.9,10.9,0,0,0-8.5-3.4,11.5,11.5,0,0,0-8.8,3.6,14.2,14.2,0,0,0,0,18,11.5,11.5,0,0,0,8.8,3.6c4.3,0,7.8-1.2,10.4-3.7a2.3,2.3,0,0,0,.2-3.2h0a1.9,1.9,0,0,0-1.5-.8ZM240.3,92.8a7.4,7.4,0,0,1,5-2,6.3,6.3,0,0,1,4.7,1.9,9.7,9.7,0,0,1,2.5,4.8H237.8a8.3,8.3,0,0,1,2.5-4.7"/><path class="cls-4" d="M270.6,77.2a2.2,2.2,0,0,1,2.2,2.4v7.8h8.8c1.5,0,2.3.7,2.3,2s-.8,1.9-2.3,1.9h-8.8V104c0,3,1.6,4.3,3.8,4.3a5.6,5.6,0,0,0,3.3-.8l1.4-1a2.1,2.1,0,0,1,1.3-.5,2,2,0,0,1,2,2h0a2.9,2.9,0,0,1-1.4,2.1,11.2,11.2,0,0,1-6.9,2,8.5,8.5,0,0,1-5.7-1.9c-1.4-1.2-2.2-3.2-2.2-5.9V91.3h-6.3c-1.5,0-2.3-.6-2.3-1.9s.8-1.9,2.3-1.9h6.3V79.6a2.2,2.2,0,0,1,2.1-2.4Z"/><path class="cls-4" d="M310.3,87.4c-1.2,0-2.1,1-2.2,2.6a6.8,6.8,0,0,0-3-2.3,9.9,9.9,0,0,0-3.8-.7,10.2,10.2,0,0,0-8.4,3.7,14.7,14.7,0,0,0,0,17.8,10.1,10.1,0,0,0,8.4,3.7,10.7,10.7,0,0,0,3.9-.7,7.3,7.3,0,0,0,2.9-2.3c.1,1.6,1,2.6,2.2,2.6a2.4,2.4,0,0,0,2.4-2.2V89.9a2.3,2.3,0,0,0-2.1-2.5h-.3m-4,18.5a6.5,6.5,0,0,1-9.2,1l-.9-1a10.9,10.9,0,0,1,0-12.6,6.5,6.5,0,0,1,9.1-1.1,5.2,5.2,0,0,1,1,1.1,9.4,9.4,0,0,1,1.9,6.3,9.4,9.4,0,0,1-1.9,6.3"/><path class="cls-5" d="M328.9,107.9V81.6h-5.5c-1.3,0-2.4-.7-2.4-1.9s1.1-1.9,2.4-1.9H331a2,2,0,0,1,2.2,1.9v28.2h7.1c1.3,0,2.4.7,2.4,1.9s-1.1,2-2.4,2H321.8c-1.4,0-2.4-.8-2.4-2s1-1.9,2.4-1.9h7.1Z"/><path class="cls-5" d="M365.5,87.4c-1.2,0-2.1,1-2.2,2.6a6.5,6.5,0,0,0-2.9-2.3,10.7,10.7,0,0,0-3.9-.7,10,10,0,0,0-8.3,3.7,14.5,14.5,0,0,0-.1,17.8,11.3,11.3,0,0,0,12.3,3,7.6,7.6,0,0,0,3-2.3c.1,1.6.9,2.6,2.2,2.6a2.3,2.3,0,0,0,2.3-2.2V89.9a2.3,2.3,0,0,0-2-2.5h-.4m-4,18.5a6.4,6.4,0,0,1-9.1,1l-1-1a9.4,9.4,0,0,1-1.9-6.3,9.4,9.4,0,0,1,1.9-6.3,6.5,6.5,0,0,1,9.1-1.1,5.2,5.2,0,0,1,1,1.1,10.9,10.9,0,0,1,0,12.6"/><path class="cls-5" d="M375.5,89.8a2.2,2.2,0,0,1,4.4-.4v.9a4.1,4.1,0,0,1,1.6-2.3,4.6,4.6,0,0,1,3-1.1c3.1,0,4.9,1.2,5.6,3.5a4.8,4.8,0,0,1,1.8-2.4,6,6,0,0,1,3.4-1.1c4.1,0,6.2,2.6,6.2,6.6v15.9a2.3,2.3,0,0,1-2,2.4,2.2,2.2,0,0,1-2.4-2v-15c0-2.8-.9-4-2.8-4s-3.6,2.2-3.6,6.6v12a2.3,2.3,0,0,1-2,2.4,2.2,2.2,0,0,1-2.4-2v-15c0-2.8-.8-4-2.8-4s-3.6,2.4-3.6,7.2v11.4a2.2,2.2,0,1,1-4.4.4v-20Z"/><path class="cls-5" d="M428.4,87.4c-1.2,0-2.1,1-2.2,2.6a6.8,6.8,0,0,0-3-2.3,9.9,9.9,0,0,0-3.8-.7,10,10,0,0,0-8.3,3.7,13.3,13.3,0,0,0-3.1,8.9,13.7,13.7,0,0,0,3,8.9,10.1,10.1,0,0,0,8.4,3.7,9.9,9.9,0,0,0,3.8-.7,6.9,6.9,0,0,0,3-2.3c.1,1.6,1,2.6,2.2,2.6a2.2,2.2,0,0,0,2.3-2.2V89.9a2.3,2.3,0,0,0-2-2.5h-.3m-4,18.5a6.5,6.5,0,0,1-9.2,1,4.3,4.3,0,0,1-.9-1,10.9,10.9,0,0,1,0-12.6,6.5,6.5,0,0,1,9.1-1.1l1,1.1a9.4,9.4,0,0,1,1.9,6.3,9.4,9.4,0,0,1-1.9,6.3"/><path class="cls-6" d="M427.8,148a6.8,6.8,0,0,1-5.6,2.3,8.6,8.6,0,0,1-2.7-.5,3.4,3.4,0,0,1-1.8-1.5v6.4a1.4,1.4,0,0,1-1.4,1.5,1.4,1.4,0,0,1-1.5-1.5V135.9a1.4,1.4,0,0,1,1.5-1.5,1.5,1.5,0,0,1,1.4,1.5,3.5,3.5,0,0,1,1.9-1.4,7.7,7.7,0,0,1,2.7-.4,7.2,7.2,0,0,1,5.5,2.1,9.4,9.4,0,0,1,1.9,6,9,9,0,0,1-1.9,5.8m-2.1-9.9a4.1,4.1,0,0,0-3.4-1.6,3.9,3.9,0,0,0-3.4,1.6,6.5,6.5,0,0,0-1.2,4.1,6.3,6.3,0,0,0,1.2,4.1,4.6,4.6,0,0,0,6.8,0,6.3,6.3,0,0,0,1.2-4.1,6.5,6.5,0,0,0-1.2-4.1m-14.8,1.2a1.3,1.3,0,0,1-1.2-.9,3.1,3.1,0,0,0-2.9-1.8,4,4,0,0,0-3.6,1.8,7.8,7.8,0,0,0-1.2,4.4v5.6a1.4,1.4,0,0,1-1.4,1.6,1.4,1.4,0,0,1-1.5-1.6V136a1.5,1.5,0,0,1,1.5-1.6A1.5,1.5,0,0,1,402,136v.7a4.7,4.7,0,0,1,1.9-1.8,6,6,0,0,1,2.9-.8c2.7,0,4.5,1,5.6,2.9a2.2,2.2,0,0,1,.1.8,1.6,1.6,0,0,1-1.6,1.5m-17.8,10.6a1.4,1.4,0,0,1-1.4-1.6,4.8,4.8,0,0,1-2,1.4,6.6,6.6,0,0,1-2.7.6,6.8,6.8,0,0,1-5.5-2.4,8.1,8.1,0,0,1-2-5.7,8.8,8.8,0,0,1,2-5.7,7.1,7.1,0,0,1,5.6-2.4,8,8,0,0,1,2.6.5,4.8,4.8,0,0,1,2,1.4,1.4,1.4,0,0,1,1.4-1.6,1.4,1.4,0,0,1,1.5,1.5v12.5a1.4,1.4,0,0,1-1.5,1.5m-2.7-11.8a4.1,4.1,0,0,0-3.4-1.6,4.4,4.4,0,0,0-3.4,1.6,7.6,7.6,0,0,0,0,8.2,4.3,4.3,0,0,0,3.4,1.5,4.1,4.1,0,0,0,3.4-1.5,7.1,7.1,0,0,0,0-8.2M375.7,150a1.4,1.4,0,0,1-1.5-1.5v-7.8a5.4,5.4,0,0,0-.7-3.2,3.1,3.1,0,0,0-2.5-1,3.9,3.9,0,0,0-3.3,1.7,7.4,7.4,0,0,0-1.2,4.4v5.8A1.5,1.5,0,0,1,365,150a1.3,1.3,0,0,1-1.4-1.5V129.7a1.4,1.4,0,0,1,1.4-1.6,1.5,1.5,0,0,1,1.4,1.6v6.8a3.5,3.5,0,0,1,1.7-1.7,7.3,7.3,0,0,1,2.9-.7c4.1,0,6.1,2,6.1,6v8.4a1.4,1.4,0,0,1-1.4,1.5Zm-21.6-8.9,1.8.3,1.7.4a3.5,3.5,0,0,1,2.8,3.6,4.4,4.4,0,0,1-2,3.7,8.2,8.2,0,0,1-5,1.3c-3-.1-5.1-1-6.6-2.8a1.4,1.4,0,0,1,1-2.4,1.6,1.6,0,0,1,1.3.7,5.2,5.2,0,0,0,4.3,2c2.7,0,4-.8,4-2.5s-.3-1.1-1.3-1.4l-1.2-.3-1.7-.2-2.3-.4-1.9-.7a3.5,3.5,0,0,1-2-3.4,4.3,4.3,0,0,1,1.8-3.6,8.4,8.4,0,0,1,4.5-1.2c2.7,0,4.7.9,5.9,2.6a1.2,1.2,0,0,1,.3.9,1.4,1.4,0,0,1-1.5,1.4,1.3,1.3,0,0,1-1.2-.7,3.7,3.7,0,0,0-3.5-1.7c-2.1,0-3.4.8-3.4,2.2S351.4,140.7,354.1,141.1Z"/><path class="cls-6" d="M289.4,148a6.7,6.7,0,0,1-5.5,2.3,7.6,7.6,0,0,1-2.7-.5,4.1,4.1,0,0,1-1.9-1.4v6.3a1.3,1.3,0,0,1-1.4,1.5,1.4,1.4,0,0,1-1.4-1.5V135.9a1.4,1.4,0,1,1,2.8,0,4.5,4.5,0,0,1,1.9-1.4,8.4,8.4,0,0,1,2.7-.4,6.8,6.8,0,0,1,5.5,2.2,8,8,0,0,1,2,5.9,8.5,8.5,0,0,1-2,5.8m-2-9.9a4.2,4.2,0,0,0-3.4-1.5,4.1,4.1,0,0,0-3.4,1.5,6.6,6.6,0,0,0-1.2,4.2,6.5,6.5,0,0,0,1.2,4.1,4.1,4.1,0,0,0,3.4,1.5,4.2,4.2,0,0,0,3.4-1.5,6.4,6.4,0,0,0,1.1-4.1,7.2,7.2,0,0,0-1.1-4.2"/><path class="cls-6" d="M307.3,148.1a7.4,7.4,0,0,1-5.6,2.3,7.5,7.5,0,0,1-5.6-2.3,8.3,8.3,0,0,1-2.1-5.8,8.5,8.5,0,0,1,2.1-5.9,7.2,7.2,0,0,1,5.6-2.3,7,7,0,0,1,5.6,2.3,8.6,8.6,0,0,1,2.2,5.9,8.3,8.3,0,0,1-2.2,5.8m-2.1-10a4.3,4.3,0,0,0-3.5-1.5,4.5,4.5,0,0,0-3.5,1.5,6,6,0,0,0-1.3,4.2,5.9,5.9,0,0,0,1.3,4.1,4.5,4.5,0,0,0,3.5,1.5,4.4,4.4,0,0,0,3.5-1.5,6,6,0,0,0,1.4-4.1,6.1,6.1,0,0,0-1.4-4.2"/><path class="cls-6" d="M312.3,147.7a1.8,1.8,0,0,1-.5-1.1,1.5,1.5,0,0,1,1.5-1.4,1.6,1.6,0,0,1,1.3.7,5.2,5.2,0,0,0,4.3,2c2.7,0,4-.8,4-2.4s-.3-1.1-1.3-1.4l-1.2-.3-1.7-.3-2.3-.4-1.9-.7a3.4,3.4,0,0,1-2-3.3,4,4,0,0,1,1.8-3.6,7.7,7.7,0,0,1,4.5-1.3c2.7,0,4.7.9,5.9,2.6a1.4,1.4,0,0,1-1.2,2.3,1.4,1.4,0,0,1-1.2-.6,3.8,3.8,0,0,0-3.5-1.8c-2.1,0-3.4.8-3.4,2.2s1.5,1.8,4.2,2.2l1.9.3,1.6.4a5.3,5.3,0,0,1,1.5.7,3.8,3.8,0,0,1,1.3,2.9,4.2,4.2,0,0,1-1.9,3.7,8.7,8.7,0,0,1-5,1.4c-3-.2-5.2-1.1-6.7-2.8Z"/><path class="cls-6" d="M332.8,129.4a1.4,1.4,0,1,1,2.8,0v5h5.9c1,0,1.5.4,1.5,1.3s-.5,1.3-1.5,1.3h-5.9v8.1c0,1.9,1.1,2.8,2.5,2.8a4,4,0,0,0,2.3-.6l.9-.6.9-.3a1.3,1.3,0,0,1,1.3,1.3,1.7,1.7,0,0,1-.9,1.4,8.6,8.6,0,0,1-4.6,1.3,5.6,5.6,0,0,1-3.8-1.2,4.6,4.6,0,0,1-1.5-3.8v-8.5h-4.2c-1,0-1.5-.4-1.5-1.3s.5-1.2,1.5-1.2h4.2v-5Z"/><path class="cls-7" d="M237.2,150.8a6.8,6.8,0,0,0,5.3-2.1c1.3-1.4,1.9-3.4,1.9-6a8.6,8.6,0,0,0-1.9-5.8,6.5,6.5,0,0,0-5.3-2.3,7.5,7.5,0,0,0-2.6.5,3.5,3.5,0,0,0-1.8,1.5v-6.4a1.5,1.5,0,0,0-1.4-1.6,1.4,1.4,0,0,0-1.4,1.6V149a1.4,1.4,0,0,0,1.4,1.5,1.5,1.5,0,0,0,1.4-1.5,3.7,3.7,0,0,0,1.8,1.4,7.5,7.5,0,0,0,2.6.4m4.4-8.1a7.1,7.1,0,0,1-1.1,4.1,4.4,4.4,0,0,1-6.6,0,8.2,8.2,0,0,1,0-8.2,4.4,4.4,0,0,1,6.6,0,7.1,7.1,0,0,1,1.1,4.1"/><path class="cls-7" d="M250.2,157.1a4.9,4.9,0,0,0,3.9-1.7,21.5,21.5,0,0,0,3.2-5.3l6-13.1a1.8,1.8,0,0,0,.1-.6,1.5,1.5,0,0,0-.9-1.4h-.6a1.5,1.5,0,0,0-1.4.9l-4.6,10.5-4.6-10.5a1.4,1.4,0,0,0-1.4-.9h-.6a1.4,1.4,0,0,0-.7,2l5.7,13v.4a15,15,0,0,1-1.8,3.3,2.9,2.9,0,0,1-2.2.9l-1.5-.3a1.2,1.2,0,0,0-1.2,1.2c0,1.1.9,1.6,2.7,1.6Z"/><path class="cls-5" d="M94.4,123h-16a1,1,0,0,0-1,1v14.1a1,1,0,0,0,1,1H88.7a1,1,0,0,0,.9-.6l5.6-14.2a.9.9,0,0,0-.8-1.3"/><path class="cls-5" d="M149.2,123h-35l9.9-56.1a1,1,0,0,0-1-1.1H109a.8.8,0,0,0-.9.7L104.5,87H84.7a.9.9,0,0,0-.9.9v14.2a.9.9,0,0,0,.9.9h16.9l-9.3,53a1,1,0,0,0,1,1.1h14.1a.9.9,0,0,0,.9-.8l3.1-17.2h20.1l-3,16.9a1,1,0,0,0,1,1.1h14.1a.9.9,0,0,0,.9-.8l5.7-32.2a1,1,0,0,0-.9-1.1"/><path class="cls-5" d="M167.8,123H157a1,1,0,0,0-.9.6l-5.6,14.2a.9.9,0,0,0,.9,1.3h16.4a1,1,0,0,0,1-1V124a.9.9,0,0,0-1-1"/><path class="cls-5" d="M174.2,87H156.7l3.5-20.1a.9.9,0,0,0-.9-1.1H145.2a1,1,0,0,0-1,.7L140.7,87H127.1a1,1,0,0,0-.9.6l-5.6,14.1a1,1,0,0,0,.9,1.3h16.3l-2.3,13.2a.9.9,0,0,0,.7,1.1l13.6,3.1a.9.9,0,0,0,1.2-.7l2.9-16.7h20.3a.9.9,0,0,0,.9-.9V87.9a.9.9,0,0,0-.9-.9"/></g></g><text class="cls-8" transform="translate(77.5 512.7)">Status Update<tspan class="cls-9"><tspan x="0" y="95.2">August 2024</tspan></tspan></text><path class="cls-10" d="M978,821.2c-54.1-.2-106.2-37.4-123.9-88.6s.4-112.7,43-146.2c10.3-8.1,22-14.9,29.5-25.7,13.5-19.5,8.9-46.8-2.6-67.5s-29.1-37.5-42.5-57.2c-31.5-46.2-37.8-109.2-13.7-159.7s78.6-85.6,134.5-84.3c76.1,1.8,150.5,64.3,221.1,36.2,38.2-15.2,61.8-53,92.2-80.7,61.1-55.6,157-69,231-32.2S1667.8,236.7,1660.3,319c-5,54.8-30.8,114.3-2.4,161.5,26.8,44.3,87.6,52.5,127.6,85.5,34.7,28.5,51.3,75.6,48,120.4s-25,87-55.3,120.1"/><path class="cls-11" d="M1693,779.2l-19.1,1.8c-20.5,1.6-41.2,3.2-61.6,1.4-27.7-2.6-54.2-11.4-81.2-17.5a422.2,422.2,0,0,0-194.9,2.4c-37.7,9.4-74.9,24.2-113.8,22.6-35.1-1.4-68-16.3-101.5-26.5s-71.7-15.7-102.7.5c-22.9,12.1-39,34.6-62.8,44.7-36.6,15.6-147.3-11.5-150.6,49.6-2,36.5,57.5,56.6,87,60.3,51.4,6.3,107.9-3.8,152.2,22.7,12.6,7.6,23.5,17.8,36.2,25.2,57.2,33.5,148.6,23.3,212.4,23.4,77.3.3,154.6-2.9,231.7-7.6,29.1-1.8,60-4.4,86.9-16.4,32.8-14.6,35.2-39.3,59-60.8,9.2-8.2,22-11.2,34.2-13.5,26.1-5.1,52.5-9.2,77.5-18.1,32.5-11.6,96.9-52.7,38.6-79.8-15.9-10.4-49.3-12.8-68.3-15.7S1712.8,777.1,1693,779.2Z"/><path class="cls-11" d="M1024.8,959.4c8,3.3,17,9.2,16.1,17.8-.7,7.1-8.2,11.4-15,13.7a91.7,91.7,0,0,1-74.5-7.7c-5.6-3.3-10.9-7.3-14.4-12.7s-4.9-12.4-2.6-18.4C944.4,927.3,1008.1,952.4,1024.8,959.4Z"/><path class="cls-11" d="M1699.3,906.1c6.4-1.1,12.4.7,16.5,6.7,14.9,22-26.9,52.1-43.3,32.7C1660.9,931.8,1686.8,908.1,1699.3,906.1Z"/><path class="cls-12" d="M1107.8,825.1a100.9,100.9,0,0,0,13.2,14c39.1,34.7,95.6,36.5,145.1,40.6a948.3,948.3,0,0,0,176.7-1.8c43.9-4.6,111.1-11.6,142.9-46.2,27.7-30.2,41.2-87.6,4.1-115.3s-92.8-37.1-139.3-41.9c-89.4-9.3-206.7-3.5-290.8,25.6C1102.7,719.9,1070.9,777.3,1107.8,825.1Z"/><g class="cls-13"><ellipse class="cls-2" cx="1335.3" cy="960.5" rx="157" ry="6.6"/><polyline class="cls-14" points="1343.5 821.4 1368.4 890.3 1421.6 891.4"/><path class="cls-15" d="M1412.2,878.6h35.4a0,0,0,0,1,0,0v4a17.7,17.7,0,0,1-17.7,17.7h0a17.7,17.7,0,0,1-17.7-17.7v-4a0,0,0,0,1,0,0Z" transform="translate(1918.4 -722.1) rotate(75)"/><circle class="cls-16" cx="1368.2" cy="889.9" r="12.9"/><circle class="cls-15" cx="1368.2" cy="889.9" r="6.7"/><line class="cls-14" x1="1294.8" y1="814.3" x2="1294.8" y2="948.8"/><path class="cls-15" d="M1277.2,938h35.4a0,0,0,0,1,0,0v4a17.7,17.7,0,0,1-17.7,17.7h0a17.7,17.7,0,0,1-17.7-17.7v-4A0,0,0,0,1,1277.2,938Z" transform="translate(2589.7 1897.6) rotate(-180)"/><circle class="cls-16" cx="1294.7" cy="887" r="12.9"/><circle class="cls-15" cx="1294.7" cy="887" r="6.7"/><path class="cls-17" d="M1262.5,774.6H1327l-11.7,63.7a13,13,0,0,1-12.8,10.7h-17a13,13,0,0,1-12.9-11Z"/><path class="cls-18" d="M1299.5,795.2l60.7-22,10.8,64.1a12.8,12.8,0,0,1-8.2,14.1l-16.5,6a12.7,12.7,0,0,1-15.5-5.8Z"/><path class="cls-14" d="M1283.3,605.1c-46.7,26.5-102.1-17.2-87-41.4"/><circle class="cls-16" cx="1283.1" cy="601.2" r="12.9"/><circle class="cls-15" cx="1283.1" cy="601.2" r="6.7"/><path class="cls-18" d="M1255.5,800c15.3,22.8,38.2,30.3,61.4,30.6a133.8,133.8,0,0,0,25.3-2.3c38.9-7,61.2-42.1,61.9-81.8.6-43.6-14-87.3-25.9-129.6-1.5-5.5-3-11.1-4.4-16.5-5.3-20.3-10.5-40.7-13.6-61.4-3.6-23.9-3.9-48.8-4-73.4-.1-8.2-.1-16.5-.2-24.6-.1-1.3-.1-2.7-.2-4h0a103.5,103.5,0,0,0-1.6-14.6c-2.9-14.2-9.9-27.1-26.1-30.5-14-3.1-24.9,3.5-31.2,15.9-5.4,10.7-6.3,14.5-6.3,21.4h0c0,3.1.1,6.7.2,11.8.3,39.7-7.1,91.9-16.5,130.2-11.9,49-29.2,94.9-34.2,145.2C1237.6,741,1236,771,1255.5,800Z"/><path class="cls-17" d="M1316.9,830.6a133.8,133.8,0,0,0,25.3-2.3c38.9-7,61.2-42.1,61.9-81.8.6-43.6-14-87.3-25.9-129.6-1.5-5.5-3-11.1-4.4-16.5-5.3-20.3-10.5-40.7-13.6-61.4-3.6-23.9-3.9-48.8-4-73.4-12.4,74.6,10.1,168.1,14.6,185.5,9.7,37.7,25.1,83.4,12.6,120.3C1374,799,1360.5,821.3,1316.9,830.6Z"/><path class="cls-18" d="M1279,388.6l1.4-2.2,4.6-7.4c-1.5,0-2.6-1.5-2.8-3a9.7,9.7,0,0,1,.9-4.4c2.6-6.2,5.9-12.1,7.8-18.6s3.8-12.1,7.4-17.1a20.6,20.6,0,0,1,8-6.3c4-1.8,8-1.6,12.2-1.9,7.8-.5,16.7,1.9,21.4,8.2s6.3,13.1,9.3,19.8a230.7,230.7,0,0,0,11.5,21.4,16.5,16.5,0,0,1,1.8,4.1,4.3,4.3,0,0,1-1.3,4.1,2.7,2.7,0,0,1-3.9-.8,47.4,47.4,0,0,1,6.5,19.6c.2,2.4.3,5.9-2.6,6.6a6.2,6.2,0,0,1-4.2-.6,10.7,10.7,0,0,1-.1,4.7c-.6,1.5-2.1,2.8-3.6,2.5a10.7,10.7,0,0,1-1.3,5.9,11.7,11.7,0,0,1-4.8,4.3,58.9,58.9,0,0,1-13.6,4.6l-7.4,1.1c-2.2.2-4.8.8-7.1.6-13.2-1-28.3-2.3-36.9-13.4a17.9,17.9,0,0,1-3.2-7.9c-.2-1.1-.8-8.3.8-8.7a3.8,3.8,0,0,1-4-2,7.3,7.3,0,0,1-.4-4.6A27.1,27.1,0,0,1,1279,388.6Z"/><path class="cls-18" d="M1312.7,319.6l.3-.2a5.5,5.5,0,0,1,2.9-1.1c1.8.1,3.2,2,3.3,3.8a12.6,12.6,0,0,1-1.6,5.3l5.9-7c1.8-2.1,3.6-4.3,5.9-5.7s4.6-2.5,7-2.1,3.3,4,2.7,6.5a20,20,0,0,1-2,4.5l-3.3,5.9a14.8,14.8,0,0,1,3.3-3.3,4.6,4.6,0,0,1,4.5-.5c3.4,1.7,2.4,6.8,1.4,9.7-3.4,9.1-13.7,15.2-23.3,13.5-2.7-.4-5.2-1.3-7.9-1.4-6.3-.1-11.1,5.2-12,11.1-4.6-3.4-5.6-11.2-3.8-16.3s4.3-8.8,7.2-12.7S1308.9,322.3,1312.7,319.6Z"/><path class="cls-18" d="M1273,341.1c-2.9-11-.5-23,5.1-33.3,1.5-2.7,3.9-5.7,7.1-5.4,5.8.6,6.2,8.8,6.4,12.7a82.1,82.1,0,0,0,3.2,19c2.2,7.8,6.8,14.7,9,22.4a5.1,5.1,0,0,1,.3,2.1c-.4,1.9-2.6,3.1-4.6,3.4a16.8,16.8,0,0,1-9.4-1.2C1280.8,357.1,1275.3,350.1,1273,341.1Z"/><path class="cls-15" d="M1291.3,349.4a3.6,3.6,0,0,1-2.7.8,6.4,6.4,0,0,1-2.6-1,17.5,17.5,0,0,1-7.3-9.6,34.9,34.9,0,0,1-.9-11.6c.3-3.3.9-8.1,3.4-10.6a3.1,3.1,0,0,1,3.6-.6c1.1.8,1.1,2.3,1.3,3.5a49.7,49.7,0,0,0,.7,5.2,74.8,74.8,0,0,0,2.3,10.2c.8,2.7,2.2,5.3,2.9,8S1292.7,348.1,1291.3,349.4Z"/><path class="cls-18" d="M1366.2,338.7c.9-11.3-3.6-22.6-11-31.9-1.8-2.3-4.8-4.9-7.9-4-5.6,1.7-4.4,9.8-4,13.6a83.1,83.1,0,0,1,.2,19.3c-.8,8.1-4.1,15.7-5,23.7a5,5,0,0,0,.2,2.1c.6,1.8,3,2.5,5.1,2.5a17,17,0,0,0,9-2.8C1361.3,355.9,1365.4,348,1366.2,338.7Z"/><path class="cls-15" d="M1349.6,350.2a3.4,3.4,0,0,0,2.8.2,5.8,5.8,0,0,0,2.4-1.4,17.1,17.1,0,0,0,5.5-10.7,32.6,32.6,0,0,0-1.2-11.6c-.9-3.2-2.2-7.8-5.1-9.8a2.9,2.9,0,0,0-3.7.1c-.9.9-.7,2.3-.6,3.6s.2,3.5.2,5.2a92.3,92.3,0,0,1-.5,10.5c-.3,2.8-1.3,5.6-1.5,8.4S1348,349.1,1349.6,350.2Z"/><path class="cls-15" d="M1282.2,359.9a164.6,164.6,0,0,1,30.4-3.4c-2.4,5.2-4.6,10.4-6.5,15.7a7.4,7.4,0,0,1-6.2,4.8l-6.3.8a7.2,7.2,0,0,1-8.2-5.2C1284.3,368.4,1283.3,364.1,1282.2,359.9Z"/><path class="cls-15" d="M1347.7,359.4a170.8,170.8,0,0,0-30.2-3c2.3,5.2,4.5,10.4,6.4,15.6a7.4,7.4,0,0,0,6.3,4.7l6.2.7a7.4,7.4,0,0,0,8.1-5.3C1345.5,367.8,1346.6,363.6,1347.7,359.4Z"/><path class="cls-15" d="M1281.4,356.9c24-5,49.2-4.2,72.7.9a1.7,1.7,0,0,1,1.4,1.9,8.3,8.3,0,0,0-.4,1.5,1.7,1.7,0,0,1-2.1,1.2c-22.8-5-47.4-5.8-70.7-1a1.6,1.6,0,0,1-2-1.1l-.3-1.5A1.7,1.7,0,0,1,1281.4,356.9Z"/><path class="cls-16" d="M1292.5,396.5a62.4,62.4,0,0,1,2-6.9c2.7-8.5,8.1-23.3,18.8-23.3,6.5,0,11.9,5.7,14.7,12.1l2.2,4.9c2.7,6.3,9.8,24.8-2,26.4a4.7,4.7,0,0,0-1.6.4,3.2,3.2,0,0,0-1,1,16.6,16.6,0,0,1-12.5,6.3,17,17,0,0,1-12.1-6.3,2.2,2.2,0,0,0-.9-1,4.7,4.7,0,0,0-1.7-.4,7.5,7.5,0,0,1-5.9-5.3A15.1,15.1,0,0,1,1292.5,396.5Z"/><path class="cls-15" d="M1312.7,391.4c-.4.4-.7-.5-.7-.8a7.6,7.6,0,0,1,1.1-4.4,11.2,11.2,0,0,1,6.5-5.4c1.4-.3,3.6-.9,4.9-.1s0,3.7-1.4,4.5a8.9,8.9,0,0,1-4.3,1.2,11.1,11.1,0,0,0-2.5.5c-1.7.9-2.3,3-3.5,4.4Z"/><path class="cls-15" d="M1312,391.4c.4.4.7-.5.7-.8a7.6,7.6,0,0,0-1.1-4.4,11.2,11.2,0,0,0-6.5-5.4c-1.4-.3-3.6-.9-4.9-.1s.1,3.7,1.4,4.5a9.3,9.3,0,0,0,4.3,1.2,10.1,10.1,0,0,1,2.5.5c1.7.9,2.3,3,3.6,4.4Z"/><path class="cls-19" d="M1312.7,389.5c-.4,7.1-.2,4.6-.3,11.7"/><path class="cls-19" d="M1312.4,400.1c0,1,0,2.4-.8,3.2a4.5,4.5,0,0,1-3.2.6,10.4,10.4,0,0,1-6.6-3.2"/><path class="cls-19" d="M1312.4,400.1c0,1,0,2.4.9,3.2a4.2,4.2,0,0,0,3.1.6,9.9,9.9,0,0,0,6.6-3.2"/><path class="cls-15" d="M1304.1,402.3a9.5,9.5,0,0,0,12.1,3.4c2.2-1.1,3.8-2.9,5.8-4.1a25.3,25.3,0,0,1-4.8,1.9,5.7,5.7,0,0,1-2.6.2,2.7,2.7,0,0,1-2.1-1.3,4.9,4.9,0,0,1-4.2,1.4A9.3,9.3,0,0,1,1304.1,402.3Z"/><path class="cls-19" d="M1327.8,428.5a30.8,30.8,0,0,1-31.5-1.1"/><path class="cls-19" d="M1324.8,360.2a5.2,5.2,0,0,0,4.7,4.1,5.5,5.5,0,0,0,5.5-4.5"/><path class="cls-19" d="M1295,360.2a5.1,5.1,0,0,0,4.7,4.1,5.4,5.4,0,0,0,5.4-4.5"/></g><path class="cls-12" d="M1107.8,825.1c-24.1-27.8-18.1-65.9-5.6-95.8s35.3-54.4,54-81c22.3-31.9,39.1-67.5,52.5-104.1,6.2-16.6,11.6-35.1,5.4-51.7s-29.4-27.2-42.3-14.9c3.9,29.8-13.7,62.6-42.6,71.4-17.5,5.3-44.4-.9-56.1-16.1-38.6-49.8.1-113.7,65.5-134.9,27.5-8.9,72.9-1.3,94.9,17.5,34,29.1,31.2,81.6,25.5,126.1-6.9,54.5-43.4,136.5-17.3,138.5"/><path class="cls-19" d="M1196.3,711.3c11.1,15.9,29.2,21,46.1,24.6a590.5,590.5,0,0,0,204.9,6.2c23.5-3.5,49.5-10.3,62.9-33.9"/><path class="cls-20" d="M1121.2,612.2a109.2,109.2,0,0,0,13.3,43.2c-28.2,0-53.9-22.8-62.9-43.1-6.4-14.5-8.7-31.2-7.7-47.6a119.1,119.1,0,0,1,7.2-34.4c15.4-.3,20.4-10.9,27.9-21.5s20,.9,19.7,10.5c-.5,17.6,16.1,21.3,23.2,23.2C1127.1,559.5,1118.9,585.2,1121.2,612.2Z"/><circle class="cls-15" cx="1122.2" cy="488.5" r="8.8"/><polyline class="cls-21" points="1204.2 561.2 1219 572.1 1229 569.4"/><polyline class="cls-21" points="1204 560.7 1211.5 543.9 1221.5 541.2"/><circle class="cls-16" cx="1202.3" cy="561.5" r="12.9"/><circle class="cls-15" cx="1202.3" cy="561.5" r="6.7"/><path class="cls-22" d="M1086.2,457.9a8.4,8.4,0,0,0,7.4-2.4c6.4-6,3.6-16.3-6.1-11.6C1082.1,446.5,1077.5,455.9,1086.2,457.9Z"/><path class="cls-22" d="M1098.9,430.9c-1.5-4.6-11.4,2.1-7.3,5.3S1100,434.2,1098.9,430.9Z"/><path class="cls-22" d="M1121.8,413.4c-5.8.2-16.7,8.7-9.9,12.3C1121.4,430.7,1128.1,413.3,1121.8,413.4Z"/><path class="cls-14" d="M1360.2,599.3c-14.5,31.4-73.2,71.1-139.6,31.2"/><circle class="cls-16" cx="1360.2" cy="599.3" r="12.9"/><circle class="cls-15" cx="1360.2" cy="599.3" r="6.7"/><polyline class="cls-21" points="1220.6 630.5 1217.7 612.3 1208.7 607.2"/><polyline class="cls-21" points="1220.3 631 1203.2 637.6 1194.2 632.4"/><circle class="cls-16" cx="1222.1" cy="631.6" r="12.9"/><circle class="cls-15" cx="1222.1" cy="631.6" r="6.7"/><path class="cls-11" d="M1216.4,853.8c-2.8-7.5-4-15.7-9-22-12.3-15.6-31,3-44.4-8-9.2-7.6-13.1-19.9-22-27.7-6.8-6-17.3-9-24.9-4.2-5.3,3.4-8,9.9-8,16.2s2.2,12.4,5,18c16.7,33.1,60.5,52.2,95.2,59.3,5,1.1,18.1,3.7,22-1.4C1235.9,876.6,1219.1,861.3,1216.4,853.8Z"/><path class="cls-11" d="M1248.4,862.3c-.9-3-1.5-6.4-.2-9.4s4.7-5.2,8.1-6.3c12.7-3.9,26.7,3.8,34.4,14.6,2.6,3.6,4.7,7.7,5,12,.9,12.9-13.1,20-24.4,16.7S1251.5,873,1248.4,862.3Z"/><path class="cls-11" d="M1181.6,809.5c2.9,2.8,7.2,3.6,10.5-.1s2-16.9-6-15a10.3,10.3,0,0,0-6.3,4.9C1177.7,802.9,1179,807,1181.6,809.5Z"/><path class="cls-11" d="M1407.3,855.4c2.8-2.6,7-4,10.5-2.6s4.8,3.9,7.4,5.7c7.1,4.6,17.2-.2,21.6-7.4s4.9-16.1,6.4-24.5a100.1,100.1,0,0,1,6.3-21.5c3.1-7.2,7.6-14.7,15-17.4s17.8,1,23.3,7.9,7.3,16,7.6,24.7-.9,17.6-.7,26.3c.1,3,.3,6.1,1.6,8.8a18.1,18.1,0,0,0,5.9,6.4c11.3,7.6,26.9,5.7,38.9-.9s21-18.2,17.9-30.5c-1.5-5.7-5.5-10.4-8.7-15.4-4.2-6.6-7.1-14.4-6.8-22.2s4.4-15.8,11.3-19.6c12.5-6.9,28.2,1.9,36.5,13.5a60.7,60.7,0,0,1-13.4,84c-8.5,6.3-18.6,10.3-28.6,14-42.8,15.8-89.5,27.9-133.8,16.8C1406.8,896.8,1389.2,871.8,1407.3,855.4Z"/><path class="cls-11" d="M1477,636.8c-2.8-24.4-44.6-19.1-40.2,5.5S1479.7,660.1,1477,636.8Z"/><path class="cls-11" d="M1521,646.6c-5.4-10.1-24.5-7.7-18.7,5.7C1506.7,662.4,1527.2,658,1521,646.6Z"/><path class="cls-11" d="M1044.8,698.6c-6.1,8.5-3.6,21.5,6.8,24.9,19.1,6.1,31.9-21.2,13.4-30.1A16.9,16.9,0,0,0,1044.8,698.6Z"/><path class="cls-15" d="M1134.5,655.4c-28.2,0-53.9-22.8-62.9-43.1-6.4-14.5-8.7-31.2-7.7-47.6a75.3,75.3,0,0,0,57.3,47.5A109.2,109.2,0,0,0,1134.5,655.4Z"/><path class="cls-20" d="M1604.6,462.7a17,17,0,0,0-19.2,7.9,15.2,15.2,0,0,0-28.2-8.6c-3.8-9.7-8.3-19.3-15.1-27.1s-16.3-13.9-26.6-14.4-21.3,4.9-28.3,13-10.8,18.8-12.1,29.5a15.4,15.4,0,0,0-27.3,9c-7.1-4.8-19.1-2.1-19.8,7.8h188.3A17.1,17.1,0,0,0,1604.6,462.7Z"/><path class="cls-20" d="M1072.4,339.1a13.5,13.5,0,0,0-16.5,6.9c-.3-7.5-2.3-15.7-8.5-19.9s-17-.8-17,6.7c-1.2-7.6-2.4-15.3-5.6-22.3s-8.7-13.2-16-15.6c-10.7-3.5-23,2.6-28.9,12.2s-6.5,21.8-4.1,32.8a8.9,8.9,0,0,0-16,6.2,9.2,9.2,0,0,0-9.7-2.9,8.6,8.6,0,0,0-6,9.5h136.8C1082.7,346.4,1078.5,341.3,1072.4,339.1Z"/><path class="cls-20" d="M1489.2,225.3a8.2,8.2,0,0,0-9.8,3.5,10.1,10.1,0,0,0-19.1-5.5c-1.2-7.8-4.7-15.5-11.1-20s-16.3-5.7-22.8-.5c-3.6,2.8-5.7,6.5-7.2,10.8a36.7,36.7,0,0,0-1.2,18.9,7.3,7.3,0,0,0-7.3-3.1c-2.7.5-6.1,2.7-5.6,6.9h88.5A8.1,8.1,0,0,0,1489.2,225.3Z"/><path class="cls-11" d="M1414.4,834.4c4.2-.5,8.2-3.5,9.2-7.6s-1.2-8.9-5.1-10.5-12.4,1.7-13.1,7.5S1408.5,835,1414.4,834.4Z"/></g></svg>