<svg xmlns="http://www.w3.org/2000/svg" xmlns:xlink="http://www.w3.org/1999/xlink" viewBox="0 0 1920 1080"><defs><style>.cls-1,.cls-10,.cls-11,.cls-16,.cls-17,.cls-20,.cls-21,.cls-22{fill:none;}.cls-2{fill:#250d45;}.cls-3{clip-path:url(#clip-path);}.cls-4{fill:#fff;}.cls-5,.cls-8{fill:#973bfc;}.cls-6,.cls-7{fill:#a0a0a0;}.cls-6{fill-rule:evenodd;}.cls-8{font-size:80px;font-family:Monosten-Regular, Monosten;}.cls-9{fill:#cba6ff;}.cls-10,.cls-11{stroke:#fffcf5;}.cls-10,.cls-11,.cls-16,.cls-17,.cls-20,.cls-21,.cls-22{stroke-linecap:round;stroke-linejoin:round;}.cls-10,.cls-11,.cls-16,.cls-20{stroke-width:2px;}.cls-11{stroke-dasharray:5.98 5.98;}.cls-12{fill:#e6d4ff;}.cls-13{fill:#a6deff;}.cls-14{fill:#6b1fbf;}.cls-15{fill:#fffcf5;}.cls-16{stroke:#cba6ff;}.cls-17,.cls-20,.cls-21{stroke:#260d46;}.cls-17{stroke-width:17px;}.cls-18{fill:#e8d7ff;}.cls-19{fill:#260d46;}.cls-21{stroke-width:7px;}.cls-22{stroke:#973bfc;stroke-width:5px;}</style><clipPath id="clip-path"><rect class="cls-1" x="77.5" y="65.8" width="353.3" height="91.34"/></clipPath></defs><g id="may_1" data-name="may 1"><rect class="cls-2" width="1920" height="1080"/><g class="cls-3"><g class="cls-3"><path class="cls-4" d="M201.1,89.8a2.2,2.2,0,0,1,4.4-.4.3.3,0,0,1,0,.4v.5a5.3,5.3,0,0,1,1.6-2.3,5.1,5.1,0,0,1,3.1-1.1c3,0,4.9,1.2,5.5,3.5a5,5,0,0,1,1.9-2.4,6,6,0,0,1,3.4-1.1c4.1,0,6.1,2.6,6.1,6.6v15.9a2.2,2.2,0,0,1-2,2.4,2.1,2.1,0,0,1-2.3-2c-.1-.2-.1-.3,0-.4V94.8c0-2.8-.9-4-2.8-4s-3.7,2.2-3.7,6.6v12a2.2,2.2,0,0,1-2,2.4,2.1,2.1,0,0,1-2.3-2c-.1-.2-.1-.3,0-.4V94.8c0-2.8-.8-4-2.8-4s-3.7,2.4-3.7,7.2v11.4a2.1,2.1,0,0,1-1.9,2.4,2.3,2.3,0,0,1-2.5-2v-20Z"/><path class="cls-4" d="M254.4,104.6a2.5,2.5,0,0,0-1.8.8c-1.7,2-4.1,3-7.3,3a7.1,7.1,0,0,1-5.1-2.1,9.1,9.1,0,0,1-2.4-4.9h16.8a2.3,2.3,0,0,0,2.5-2.1v-.4a11.7,11.7,0,0,0-3.3-8.5,10.9,10.9,0,0,0-8.5-3.4,11.5,11.5,0,0,0-8.8,3.6,14.2,14.2,0,0,0,0,18,11.5,11.5,0,0,0,8.8,3.6c4.3,0,7.8-1.2,10.4-3.7a2.3,2.3,0,0,0,.2-3.2h0a1.9,1.9,0,0,0-1.5-.8ZM240.3,92.8a7.4,7.4,0,0,1,5-2,6.3,6.3,0,0,1,4.7,1.9,9.7,9.7,0,0,1,2.5,4.8H237.8a8.3,8.3,0,0,1,2.5-4.7"/><path class="cls-4" d="M270.6,77.2a2.2,2.2,0,0,1,2.2,2.4v7.8h8.8c1.5,0,2.3.7,2.3,2s-.8,1.9-2.3,1.9h-8.8V104c0,3,1.6,4.3,3.8,4.3a5.6,5.6,0,0,0,3.3-.8l1.4-1a2.1,2.1,0,0,1,1.3-.5,2,2,0,0,1,2,2h0a2.9,2.9,0,0,1-1.4,2.1,11.2,11.2,0,0,1-6.9,2,8.5,8.5,0,0,1-5.7-1.9c-1.4-1.2-2.2-3.2-2.2-5.9V91.3h-6.3c-1.5,0-2.3-.6-2.3-1.9s.8-1.9,2.3-1.9h6.3V79.6a2.2,2.2,0,0,1,2.1-2.4Z"/><path class="cls-4" d="M310.3,87.4c-1.2,0-2.1,1-2.2,2.6a6.8,6.8,0,0,0-3-2.3,9.9,9.9,0,0,0-3.8-.7,10.2,10.2,0,0,0-8.4,3.7,14.7,14.7,0,0,0,0,17.8,10.1,10.1,0,0,0,8.4,3.7,10.7,10.7,0,0,0,3.9-.7,7.3,7.3,0,0,0,2.9-2.3c.1,1.6,1,2.6,2.2,2.6a2.4,2.4,0,0,0,2.4-2.2V89.9a2.3,2.3,0,0,0-2.1-2.5h-.3m-4,18.5a6.5,6.5,0,0,1-9.2,1l-.9-1a10.9,10.9,0,0,1,0-12.6,6.5,6.5,0,0,1,9.1-1.1,5.2,5.2,0,0,1,1,1.1,9.4,9.4,0,0,1,1.9,6.3,9.4,9.4,0,0,1-1.9,6.3"/><path class="cls-5" d="M328.9,107.9V81.6h-5.5c-1.3,0-2.4-.7-2.4-1.9s1.1-1.9,2.4-1.9H331a2,2,0,0,1,2.2,1.9v28.2h7.1c1.3,0,2.4.7,2.4,1.9s-1.1,2-2.4,2H321.8c-1.4,0-2.4-.8-2.4-2s1-1.9,2.4-1.9h7.1Z"/><path class="cls-5" d="M365.5,87.4c-1.2,0-2.1,1-2.2,2.6a6.5,6.5,0,0,0-2.9-2.3,10.7,10.7,0,0,0-3.9-.7,10,10,0,0,0-8.3,3.7,14.5,14.5,0,0,0-.1,17.8,11.3,11.3,0,0,0,12.3,3,7.6,7.6,0,0,0,3-2.3c.1,1.6.9,2.6,2.2,2.6a2.3,2.3,0,0,0,2.3-2.2V89.9a2.3,2.3,0,0,0-2-2.5h-.4m-4,18.5a6.4,6.4,0,0,1-9.1,1l-1-1a9.4,9.4,0,0,1-1.9-6.3,9.4,9.4,0,0,1,1.9-6.3,6.5,6.5,0,0,1,9.1-1.1,5.2,5.2,0,0,1,1,1.1,10.9,10.9,0,0,1,0,12.6"/><path class="cls-5" d="M375.5,89.8a2.2,2.2,0,0,1,4.4-.4v.9a4.1,4.1,0,0,1,1.6-2.3,4.6,4.6,0,0,1,3-1.1c3.1,0,4.9,1.2,5.6,3.5a4.8,4.8,0,0,1,1.8-2.4,6,6,0,0,1,3.4-1.1c4.1,0,6.2,2.6,6.2,6.6v15.9a2.3,2.3,0,0,1-2,2.4,2.2,2.2,0,0,1-2.4-2v-15c0-2.8-.9-4-2.8-4s-3.6,2.2-3.6,6.6v12a2.3,2.3,0,0,1-2,2.4,2.2,2.2,0,0,1-2.4-2v-15c0-2.8-.8-4-2.8-4s-3.6,2.4-3.6,7.2v11.4a2.2,2.2,0,1,1-4.4.4v-20Z"/><path class="cls-5" d="M428.4,87.4c-1.2,0-2.1,1-2.2,2.6a6.8,6.8,0,0,0-3-2.3,9.9,9.9,0,0,0-3.8-.7,10,10,0,0,0-8.3,3.7,13.3,13.3,0,0,0-3.1,8.9,13.7,13.7,0,0,0,3,8.9,10.1,10.1,0,0,0,8.4,3.7,9.9,9.9,0,0,0,3.8-.7,6.9,6.9,0,0,0,3-2.3c.1,1.6,1,2.6,2.2,2.6a2.2,2.2,0,0,0,2.3-2.2V89.9a2.3,2.3,0,0,0-2-2.5h-.3m-4,18.5a6.5,6.5,0,0,1-9.2,1,4.3,4.3,0,0,1-.9-1,10.9,10.9,0,0,1,0-12.6,6.5,6.5,0,0,1,9.1-1.1l1,1.1a9.4,9.4,0,0,1,1.9,6.3,9.4,9.4,0,0,1-1.9,6.3"/><path class="cls-6" d="M427.8,148a6.8,6.8,0,0,1-5.6,2.3,8.6,8.6,0,0,1-2.7-.5,3.4,3.4,0,0,1-1.8-1.5v6.4a1.4,1.4,0,0,1-1.4,1.5,1.4,1.4,0,0,1-1.5-1.5V135.9a1.4,1.4,0,0,1,1.5-1.5,1.5,1.5,0,0,1,1.4,1.5,3.5,3.5,0,0,1,1.9-1.4,7.7,7.7,0,0,1,2.7-.4,7.2,7.2,0,0,1,5.5,2.1,9.4,9.4,0,0,1,1.9,6,9,9,0,0,1-1.9,5.8m-2.1-9.9a4.1,4.1,0,0,0-3.4-1.6,3.9,3.9,0,0,0-3.4,1.6,6.5,6.5,0,0,0-1.2,4.1,6.3,6.3,0,0,0,1.2,4.1,4.6,4.6,0,0,0,6.8,0,6.3,6.3,0,0,0,1.2-4.1,6.5,6.5,0,0,0-1.2-4.1m-14.8,1.2a1.3,1.3,0,0,1-1.2-.9,3.1,3.1,0,0,0-2.9-1.8,4,4,0,0,0-3.6,1.8,7.8,7.8,0,0,0-1.2,4.4v5.6a1.4,1.4,0,0,1-1.4,1.6,1.4,1.4,0,0,1-1.5-1.6V136a1.5,1.5,0,0,1,1.5-1.6A1.5,1.5,0,0,1,402,136v.7a4.7,4.7,0,0,1,1.9-1.8,6,6,0,0,1,2.9-.8c2.7,0,4.5,1,5.6,2.9a2.2,2.2,0,0,1,.1.8,1.6,1.6,0,0,1-1.6,1.5m-17.8,10.6a1.4,1.4,0,0,1-1.4-1.6,4.8,4.8,0,0,1-2,1.4,6.6,6.6,0,0,1-2.7.6,6.8,6.8,0,0,1-5.5-2.4,8.1,8.1,0,0,1-2-5.7,8.8,8.8,0,0,1,2-5.7,7.1,7.1,0,0,1,5.6-2.4,8,8,0,0,1,2.6.5,4.8,4.8,0,0,1,2,1.4,1.4,1.4,0,0,1,1.4-1.6,1.4,1.4,0,0,1,1.5,1.5v12.5a1.4,1.4,0,0,1-1.5,1.5m-2.7-11.8a4.1,4.1,0,0,0-3.4-1.6,4.4,4.4,0,0,0-3.4,1.6,7.6,7.6,0,0,0,0,8.2,4.3,4.3,0,0,0,3.4,1.5,4.1,4.1,0,0,0,3.4-1.5,7.1,7.1,0,0,0,0-8.2M375.7,150a1.4,1.4,0,0,1-1.5-1.5v-7.8a5.4,5.4,0,0,0-.7-3.2,3.1,3.1,0,0,0-2.5-1,3.9,3.9,0,0,0-3.3,1.7,7.4,7.4,0,0,0-1.2,4.4v5.8A1.5,1.5,0,0,1,365,150a1.3,1.3,0,0,1-1.4-1.5V129.7a1.4,1.4,0,0,1,1.4-1.6,1.5,1.5,0,0,1,1.4,1.6v6.8a3.5,3.5,0,0,1,1.7-1.7,7.3,7.3,0,0,1,2.9-.7c4.1,0,6.1,2,6.1,6v8.4a1.4,1.4,0,0,1-1.4,1.5Zm-21.6-8.9,1.8.3,1.7.4a3.5,3.5,0,0,1,2.8,3.6,4.4,4.4,0,0,1-2,3.7,8.2,8.2,0,0,1-5,1.3c-3-.1-5.1-1-6.6-2.8a1.4,1.4,0,0,1,1-2.4,1.6,1.6,0,0,1,1.3.7,5.2,5.2,0,0,0,4.3,2c2.7,0,4-.8,4-2.5s-.3-1.1-1.3-1.4l-1.2-.3-1.7-.2-2.3-.4-1.9-.7a3.5,3.5,0,0,1-2-3.4,4.3,4.3,0,0,1,1.8-3.6,8.4,8.4,0,0,1,4.5-1.2c2.7,0,4.7.9,5.9,2.6a1.2,1.2,0,0,1,.3.9,1.4,1.4,0,0,1-1.5,1.4,1.3,1.3,0,0,1-1.2-.7,3.7,3.7,0,0,0-3.5-1.7c-2.1,0-3.4.8-3.4,2.2S351.4,140.7,354.1,141.1Z"/><path class="cls-6" d="M289.4,148a6.7,6.7,0,0,1-5.5,2.3,7.6,7.6,0,0,1-2.7-.5,4.1,4.1,0,0,1-1.9-1.4v6.3a1.3,1.3,0,0,1-1.4,1.5,1.4,1.4,0,0,1-1.4-1.5V135.9a1.4,1.4,0,1,1,2.8,0,4.5,4.5,0,0,1,1.9-1.4,8.4,8.4,0,0,1,2.7-.4,6.8,6.8,0,0,1,5.5,2.2,8,8,0,0,1,2,5.9,8.5,8.5,0,0,1-2,5.8m-2-9.9a4.2,4.2,0,0,0-3.4-1.5,4.1,4.1,0,0,0-3.4,1.5,6.6,6.6,0,0,0-1.2,4.2,6.5,6.5,0,0,0,1.2,4.1,4.1,4.1,0,0,0,3.4,1.5,4.2,4.2,0,0,0,3.4-1.5,6.4,6.4,0,0,0,1.1-4.1,7.2,7.2,0,0,0-1.1-4.2"/><path class="cls-6" d="M307.3,148.1a7.4,7.4,0,0,1-5.6,2.3,7.5,7.5,0,0,1-5.6-2.3,8.3,8.3,0,0,1-2.1-5.8,8.5,8.5,0,0,1,2.1-5.9,7.2,7.2,0,0,1,5.6-2.3,7,7,0,0,1,5.6,2.3,8.6,8.6,0,0,1,2.2,5.9,8.3,8.3,0,0,1-2.2,5.8m-2.1-10a4.3,4.3,0,0,0-3.5-1.5,4.5,4.5,0,0,0-3.5,1.5,6,6,0,0,0-1.3,4.2,5.9,5.9,0,0,0,1.3,4.1,4.5,4.5,0,0,0,3.5,1.5,4.4,4.4,0,0,0,3.5-1.5,6,6,0,0,0,1.4-4.1,6.1,6.1,0,0,0-1.4-4.2"/><path class="cls-6" d="M312.3,147.7a1.8,1.8,0,0,1-.5-1.1,1.5,1.5,0,0,1,1.5-1.4,1.6,1.6,0,0,1,1.3.7,5.2,5.2,0,0,0,4.3,2c2.7,0,4-.8,4-2.4s-.3-1.1-1.3-1.4l-1.2-.3-1.7-.3-2.3-.4-1.9-.7a3.4,3.4,0,0,1-2-3.3,4,4,0,0,1,1.8-3.6,7.7,7.7,0,0,1,4.5-1.3c2.7,0,4.7.9,5.9,2.6a1.4,1.4,0,0,1-1.2,2.3,1.4,1.4,0,0,1-1.2-.6,3.8,3.8,0,0,0-3.5-1.8c-2.1,0-3.4.8-3.4,2.2s1.5,1.8,4.2,2.2l1.9.3,1.6.4a5.3,5.3,0,0,1,1.5.7,3.8,3.8,0,0,1,1.3,2.9,4.2,4.2,0,0,1-1.9,3.7,8.7,8.7,0,0,1-5,1.4c-3-.2-5.2-1.1-6.7-2.8Z"/><path class="cls-6" d="M332.8,129.4a1.4,1.4,0,1,1,2.8,0v5h5.9c1,0,1.5.4,1.5,1.3s-.5,1.3-1.5,1.3h-5.9v8.1c0,1.9,1.1,2.8,2.5,2.8a4,4,0,0,0,2.3-.6l.9-.6.9-.3a1.3,1.3,0,0,1,1.3,1.3,1.7,1.7,0,0,1-.9,1.4,8.6,8.6,0,0,1-4.6,1.3,5.6,5.6,0,0,1-3.8-1.2,4.6,4.6,0,0,1-1.5-3.8v-8.5h-4.2c-1,0-1.5-.4-1.5-1.3s.5-1.2,1.5-1.2h4.2v-5Z"/><path class="cls-7" d="M237.2,150.8a6.8,6.8,0,0,0,5.3-2.1c1.3-1.4,1.9-3.4,1.9-6a8.6,8.6,0,0,0-1.9-5.8,6.5,6.5,0,0,0-5.3-2.3,7.5,7.5,0,0,0-2.6.5,3.5,3.5,0,0,0-1.8,1.5v-6.4a1.5,1.5,0,0,0-1.4-1.6,1.4,1.4,0,0,0-1.4,1.6V149a1.4,1.4,0,0,0,1.4,1.5,1.5,1.5,0,0,0,1.4-1.5,3.7,3.7,0,0,0,1.8,1.4,7.5,7.5,0,0,0,2.6.4m4.4-8.1a7.1,7.1,0,0,1-1.1,4.1,4.4,4.4,0,0,1-6.6,0,8.2,8.2,0,0,1,0-8.2,4.4,4.4,0,0,1,6.6,0,7.1,7.1,0,0,1,1.1,4.1"/><path class="cls-7" d="M250.2,157.1a4.9,4.9,0,0,0,3.9-1.7,21.5,21.5,0,0,0,3.2-5.3l6-13.1a1.8,1.8,0,0,0,.1-.6,1.5,1.5,0,0,0-.9-1.4h-.6a1.5,1.5,0,0,0-1.4.9l-4.6,10.5-4.6-10.5a1.4,1.4,0,0,0-1.4-.9h-.6a1.4,1.4,0,0,0-.7,2l5.7,13v.4a15,15,0,0,1-1.8,3.3,2.9,2.9,0,0,1-2.2.9l-1.5-.3a1.2,1.2,0,0,0-1.2,1.2c0,1.1.9,1.6,2.7,1.6Z"/><path class="cls-5" d="M94.4,123h-16a1,1,0,0,0-1,1v14.1a1,1,0,0,0,1,1H88.7a1,1,0,0,0,.9-.6l5.6-14.2a.9.9,0,0,0-.8-1.3"/><path class="cls-5" d="M149.2,123h-35l9.9-56.1a1,1,0,0,0-1-1.1H109a.8.8,0,0,0-.9.7L104.5,87H84.7a.9.9,0,0,0-.9.9v14.2a.9.9,0,0,0,.9.9h16.9l-9.3,53a1,1,0,0,0,1,1.1h14.1a.9.9,0,0,0,.9-.8l3.1-17.2h20.1l-3,16.9a1,1,0,0,0,1,1.1h14.1a.9.9,0,0,0,.9-.8l5.7-32.2a1,1,0,0,0-.9-1.1"/><path class="cls-5" d="M167.8,123H157a1,1,0,0,0-.9.6l-5.6,14.2a.9.9,0,0,0,.9,1.3h16.4a1,1,0,0,0,1-1V124a.9.9,0,0,0-1-1"/><path class="cls-5" d="M174.2,87H156.7l3.5-20.1a.9.9,0,0,0-.9-1.1H145.2a1,1,0,0,0-1,.7L140.7,87H127.1a1,1,0,0,0-.9.6l-5.6,14.1a1,1,0,0,0,.9,1.3h16.3l-2.3,13.2a.9.9,0,0,0,.7,1.1l13.6,3.1a.9.9,0,0,0,1.2-.7l2.9-16.7h20.3a.9.9,0,0,0,.9-.9V87.9a.9.9,0,0,0-.9-.9"/></g></g><text class="cls-8" transform="translate(77.5 512.7)">Status Update<tspan class="cls-4"><tspan x="0" y="95.2">September 2024</tspan></tspan></text></g><g id="Isolation_Mode" data-name="Isolation Mode"><path class="cls-9" d="M931.8,810c-32.5-17-55.1-51.6-57.6-88.2s15.4-73.8,45.4-95c21.8-15.4,50.4-23.6,64.3-46.5,17.8-29.2,2.8-66.4-8.9-98.6-25.1-68.9-33.3-147.3-4.1-214.6S1073.4,149,1145.5,162.2c48.3,8.8,88.3,43.1,135.3,57.3,59.7,18.1,114-5.6,165.9-34s110.2-43.7,163-27.5c57.7,17.8,103.7,59.4,119.4,119.1,18.9,71.8-30.2,140.1-32.6,213.1-.8,25.6,1.3,51.8,10.7,75.6,16.8,42,54.5,72.4,74.9,112.8,26.6,52.7,8.9,122.3-48.8,139.7"/><path class="cls-10" d="M1090.8,361.4c.1-1,.3-2,.4-3"/><path class="cls-11" d="M1092.5,352.6a63.1,63.1,0,0,1,18.2-30c24.6-22.7,64.5-21.7,93.8-5.7s50,44.2,67.2,72.9,32,59.2,54,84.4c30.8,35.3,77.9,58.7,124.3,52.5,34.1-4.6,71.2-34.1,84.1-65.8,6.8-16.9,5.8-32.7-4.3-47.9-12.8-19.2-39.1-21-47.8,4.4-12.6,36.3,20.1,52.4,48.9,62.6,31.1,11,83.8,5.1,108.7-18.7,43.5-41.7,34.9-124.4-21.8-150.3-19.4-8.8-41.4-8.6-62.8-7.5"/><path class="cls-10" d="M1552.1,303.7l-3,.2"/><path class="cls-12" d="M1037.7,880c.5,3.9.6,7.9,1.6,11.7,3.9,14,20,21.1,34.5,21.3,34.2.5,69.8-4.5,104-8.1,69.2-7.3,140-13.1,207.7,2.9,19.4,4.6,38.7,11,58.6,11.1s41.3-7.8,51.2-25.1c4-7.2,5.9-15.6,10.8-22.2,7.1-9.6,19.4-14,31.3-14.3,43.5-1,85.9,18.1,128.5,24.8,51,8.1,109,1.6,144.4-36.1a18.4,18.4,0,0,0,3.4-4.5c5.1-10.7-9.6-20-21.3-20.7s-26.6-.6-31.4-11.3c-2-4.4-1.6-9.6-3.6-14-4.2-9.5-16.7-11.2-27.2-11.5l-294-9.4-149-4.7c-17.7-.6-36.2-1-53.4,4.3s-32,17.3-49.5,22.5-33.9,3.4-50.9,1.9c-56.7-5.1-112.1-9.8-168.9-9.7-21.7,0-43.7,1.4-65,5.8-15.4,3.2-40.7,9.1-43.5,28.1-4.2,29.1,37.3,28.1,55.8,28.9l83.8,3.6c16.1.6,35.8,3.9,40.9,19.2A24.4,24.4,0,0,1,1037.7,880Z"/><path class="cls-13" d="M1225.6,782.2v23.2a15.5,15.5,0,0,1-.4,3.1,13,13,0,0,1-12.5,9.8H1005.4a12.9,12.9,0,0,1-12.9-12.9V782.2a12.8,12.8,0,0,1,12.8-12.9h207.4a13,13,0,0,1,12.5,9.8A15.5,15.5,0,0,1,1225.6,782.2Z"/><rect class="cls-14" x="945.6" y="697.8" width="249.4" height="37.66" rx="6.6"/><path class="cls-15" d="M1225.2,779.1H1035.5a4.4,4.4,0,0,0-4.4,4.3v20.8a4.4,4.4,0,0,0,4.4,4.3h189.7a15.5,15.5,0,0,0,.4-3.1V782.2A15.5,15.5,0,0,0,1225.2,779.1Z"/><rect class="cls-12" x="996.1" y="735.4" width="254.5" height="33.89" rx="5.6"/><rect class="cls-15" x="1016.4" y="735.4" width="5.4" height="34.12"/><rect class="cls-15" x="1025.7" y="735.4" width="5.4" height="34.12"/><rect class="cls-15" x="1216.3" y="735.4" width="5.4" height="34.12"/><rect class="cls-15" x="1225.6" y="735.4" width="5.4" height="34.12"/><path class="cls-15" d="M1113.1,706H945.6v21.2h167.5a3.5,3.5,0,0,0,3.5-3.5V709.5A3.5,3.5,0,0,0,1113.1,706Z"/><line class="cls-16" x1="1073.3" y1="786.8" x2="1130" y2="786.8"/><line class="cls-16" x1="1123.4" y1="797.7" x2="1153.9" y2="797.7"/><line class="cls-16" x1="1183.1" y1="786.8" x2="1219" y2="786.8"/><line class="cls-16" x1="956.6" y1="712.1" x2="1015.3" y2="712.1"/><line class="cls-16" x1="1021.8" y1="722.3" x2="1063.3" y2="722.3"/><line class="cls-16" x1="1061.3" y1="712.1" x2="1083.7" y2="712.1"/><rect class="cls-13" x="1443.3" y="763" width="270.6" height="60.67" rx="10.1"/><path class="cls-15" d="M1443.3,774.8h150.2a7,7,0,0,1,7,7V805a7,7,0,0,1-7,7H1443.3a0,0,0,0,1,0,0V774.8A0,0,0,0,1,1443.3,774.8Z"/><line class="cls-16" x1="1457.9" y1="784.2" x2="1519.1" y2="784.2"/><line class="cls-16" x1="1480.7" y1="801.4" x2="1534.4" y2="801.4"/><line class="cls-16" x1="1549.7" y1="793" x2="1582.6" y2="793"/><rect class="cls-5" x="1485.9" y="720.9" width="255.9" height="42.13" rx="10.1"/><rect class="cls-15" x="1577.1" y="743.8" width="73.6" height="4"/><rect class="cls-15" x="1547.9" y="733.1" width="131.9" height="4.2"/><ellipse class="cls-9" cx="1382.2" cy="851.2" rx="122" ry="9.3"/><polyline class="cls-17" points="1386.6 707.4 1387.5 780.6 1387.4 841.9"/><circle class="cls-18" cx="1387.4" cy="780.1" r="12.9"/><circle class="cls-19" cx="1387.4" cy="780.1" r="6.7"/><path class="cls-19" d="M1369.7,831h35.4a0,0,0,0,1,0,0v4a17.7,17.7,0,0,1-17.7,17.7h0a17.7,17.7,0,0,1-17.7-17.7v-4a0,0,0,0,1,0,0Z" transform="translate(2774.8 1683.8) rotate(180)"/><line class="cls-17" x1="1342.2" y1="707.3" x2="1342.2" y2="841.9"/><path class="cls-19" d="M1324.5,831h35.4a0,0,0,0,1,0,0v4a17.7,17.7,0,0,1-17.7,17.7h0a17.7,17.7,0,0,1-17.7-17.7v-4A0,0,0,0,1,1324.5,831Z" transform="translate(2684.3 1683.8) rotate(-180)"/><circle class="cls-18" cx="1342.1" cy="780.1" r="12.9"/><circle class="cls-19" cx="1342.1" cy="780.1" r="6.7"/><path class="cls-14" d="M1309.8,667.7h64.5l-11.6,63.7a13.2,13.2,0,0,1-12.9,10.7h-17a13.1,13.1,0,0,1-12.9-11Z"/><path class="cls-5" d="M1353.8,668.1l64.4-.8-10.8,64.1a12.8,12.8,0,0,1-12.5,10.6l-17.5.2a12.8,12.8,0,0,1-12.7-10.5Z"/><path class="cls-17" d="M1330.6,498.2c.6,19.1-5.4,44.3-23,51.7-30,12.5-28.8-11.8-15.9-21.2"/><circle class="cls-18" cx="1330.5" cy="494.2" r="12.9"/><circle class="cls-19" cx="1330.5" cy="494.2" r="6.7"/><path class="cls-5" d="M1302.8,693.1c15.3,22.8,38.2,30.3,61.4,30.6a133,133,0,0,0,25.3-2.3c38.9-7,61.3-42.1,61.9-81.8.7-43.6-14-87.3-25.8-129.6-1.6-5.6-3.1-11.1-4.5-16.6-5.2-20.3-10.5-40.6-13.6-61.3-3.6-23.9-3.9-48.8-4-73.4,0-8.3-.1-16.5-.2-24.6,0-1.3-.1-2.7-.1-4h0a90.8,90.8,0,0,0-1.7-14.6c-2.9-14.2-9.9-27.1-26.1-30.6-14-3-24.9,3.6-31.1,16-5.4,10.7-6.4,14.5-6.4,21.4h0c0,3,.2,6.7.2,11.8.3,39.7-7.1,91.9-16.4,130.2-12,49-29.3,94.9-34.3,145.2C1284.9,634.1,1283.4,664.1,1302.8,693.1Z"/><path class="cls-14" d="M1364.2,723.7a133,133,0,0,0,25.3-2.3c38.9-7,61.3-42.1,61.9-81.8.7-43.6-14-87.3-25.8-129.6-1.6-5.6-3.1-11.1-4.5-16.6-5.2-20.3-10.5-40.6-13.6-61.3-3.6-23.9-3.9-48.8-4-73.4-12.4,74.6,10.1,168,14.6,185.4,9.7,37.8,25.1,83.5,12.6,120.4C1421.3,692,1407.8,714.4,1364.2,723.7Z"/><path class="cls-5" d="M1326.4,281.7c.4-.8.9-1.5,1.3-2.2l4.7-7.4a3.3,3.3,0,0,1-2.9-3,8.6,8.6,0,0,1,1-4.4c2.6-6.2,5.9-12.1,7.8-18.6s3.7-12.2,7.4-17.1a20.3,20.3,0,0,1,7.9-6.3c4-1.8,8-1.7,12.2-1.9,7.8-.5,16.7,1.9,21.4,8.2s6.3,13.1,9.4,19.8a219.3,219.3,0,0,0,11.4,21.4,10.7,10.7,0,0,1,1.8,4.1,4.1,4.1,0,0,1-1.3,4.1c-1.2.9-3.3.6-3.8-.8a48.7,48.7,0,0,1,6.4,19.6c.3,2.4.4,5.9-2.6,6.6a5.4,5.4,0,0,1-4.1-.7,9.7,9.7,0,0,1-.2,4.8,3.4,3.4,0,0,1-3.6,2.4,10.3,10.3,0,0,1-6,10.3,61.4,61.4,0,0,1-13.7,4.6c-2.4.4-4.9.8-7.3,1s-4.9.9-7.1.7c-13.2-1-28.3-2.3-37-13.4a18.4,18.4,0,0,1-3.2-7.9c-.1-1.1-.7-8.3.8-8.7a3.8,3.8,0,0,1-4-2,7.5,7.5,0,0,1-.4-4.7A27.8,27.8,0,0,1,1326.4,281.7Z"/><path class="cls-5" d="M1373.7,212.7l-.3-.2a4.9,4.9,0,0,0-2.9-1.1c-1.8.1-3.1,2-3.2,3.8a10.8,10.8,0,0,0,1.5,5.2l-5.9-7a23.7,23.7,0,0,0-5.8-5.6c-2-1.3-4.7-2.5-7.1-2.1s-3.2,4-2.6,6.5a24.4,24.4,0,0,0,1.9,4.4l3.3,6a14.4,14.4,0,0,0-3.2-3.3,4.6,4.6,0,0,0-4.5-.5c-3.4,1.7-2.5,6.8-1.5,9.7,3.4,9.1,13.8,15.1,23.4,13.5,2.6-.4,5.2-1.3,7.8-1.4,6.3-.1,11.2,5.2,12,11.1,4.6-3.4,5.6-11.2,3.9-16.3a44.7,44.7,0,0,0-7.3-12.7C1380.4,219,1377.6,215.4,1373.7,212.7Z"/><path class="cls-5" d="M1320.3,234.2c-2.9-11-.4-23,5.2-33.4,1.4-2.6,3.9-5.6,7.1-5.3,5.8.6,6.1,8.8,6.3,12.6a87.7,87.7,0,0,0,3.2,19.1c2.2,7.8,6.9,14.7,9.1,22.4a5,5,0,0,1,.2,2.1c-.3,1.9-2.5,3.1-4.6,3.4a16.4,16.4,0,0,1-9.3-1.2C1328.2,250.2,1322.7,243.2,1320.3,234.2Z"/><path class="cls-19" d="M1338.7,242.5a3.8,3.8,0,0,1-2.7.8,7.9,7.9,0,0,1-2.7-1,18,18,0,0,1-7.3-9.6,32.4,32.4,0,0,1-.8-11.6c.3-3.3.8-8.1,3.3-10.6a2.9,2.9,0,0,1,3.6-.6c1.1.8,1.2,2.2,1.3,3.5s.4,3.4.7,5.2c.6,3.4,1.4,6.8,2.3,10.2s2.2,5.3,3,8S1340.1,241.2,1338.7,242.5Z"/><path class="cls-5" d="M1413.5,231.8c1-11.3-3.6-22.6-10.9-31.9-1.9-2.4-4.8-4.9-7.9-4-5.6,1.6-4.5,9.8-4,13.6a95.7,95.7,0,0,1,.2,19.3c-.9,8-4.2,15.7-5,23.7a5,5,0,0,0,.1,2.1c.7,1.8,3.1,2.5,5.1,2.5a17.4,17.4,0,0,0,9-2.8C1408.6,249,1412.8,241.1,1413.5,231.8Z"/><path class="cls-19" d="M1396.9,243.2a3.5,3.5,0,0,0,2.8.3,6.9,6.9,0,0,0,2.5-1.4,17.5,17.5,0,0,0,5.4-10.8,32,32,0,0,0-1.1-11.5c-.9-3.2-2.3-7.8-5.2-9.8a2.9,2.9,0,0,0-3.6,0c-1,1-.8,2.4-.7,3.7s.2,3.4.2,5.2a89.4,89.4,0,0,1-.5,10.4c-.2,2.9-1.2,5.7-1.5,8.5S1395.3,242.2,1396.9,243.2Z"/><circle class="cls-19" cx="1377.8" cy="260.4" r="4.1"/><circle class="cls-19" cx="1347.4" cy="260.4" r="4.1"/><path class="cls-18" d="M1339.8,289.5a69.5,69.5,0,0,1,2-6.9c2.8-8.4,8.2-23.2,18.8-23.2,6.5,0,11.9,5.6,14.7,12.1.7,1.6,1.5,3.2,2.2,4.9,2.7,6.3,9.9,24.8-1.9,26.4a4.7,4.7,0,0,0-1.7.4,2.2,2.2,0,0,0-.9,1,15.3,15.3,0,0,1-24.6,0,3.2,3.2,0,0,0-1-1,4.7,4.7,0,0,0-1.6-.4,7.5,7.5,0,0,1-6-5.3A18,18,0,0,1,1339.8,289.5Z"/><path class="cls-19" d="M1360.1,284.5c-.5.3-.7-.5-.8-.8a9.6,9.6,0,0,1,1.1-4.4,10.9,10.9,0,0,1,6.5-5.4c1.4-.3,3.6-.9,4.9-.1s0,3.7-1.3,4.5a11.1,11.1,0,0,1-4.4,1.2,6.4,6.4,0,0,0-2.4.5c-1.7.9-2.3,3-3.6,4.4Z"/><path class="cls-19" d="M1359.3,284.5c.5.3.7-.5.8-.8a8.6,8.6,0,0,0-1.2-4.4,10.3,10.3,0,0,0-6.5-5.4c-1.3-.3-3.5-.9-4.9-.1s.1,3.7,1.4,4.5a10.7,10.7,0,0,0,4.4,1.2,6.4,6.4,0,0,1,2.4.5c1.7.9,2.3,3,3.6,4.4Z"/><path class="cls-20" d="M1360.1,282.6c-.4,7.1-.3,4.6-.4,11.7"/><path class="cls-20" d="M1359.8,293.2c0,1,0,2.4-.9,3.1a4.5,4.5,0,0,1-3.2.7,10,10,0,0,1-6.6-3.3"/><path class="cls-20" d="M1359.7,293.2c0,1,0,2.4.9,3.1a4.5,4.5,0,0,0,3.2.7,10,10,0,0,0,6.6-3.3"/><path class="cls-19" d="M1351.4,295.4a9.6,9.6,0,0,0,5.5,4,9.7,9.7,0,0,0,6.7-.6c2.1-1.1,3.7-2.9,5.8-4.1a28.2,28.2,0,0,1-4.8,1.9,7.8,7.8,0,0,1-2.6.2,3.2,3.2,0,0,1-2.2-1.3,4.8,4.8,0,0,1-4.1,1.4A9.6,9.6,0,0,1,1351.4,295.4Z"/><path class="cls-20" d="M1375.1,321.6a30.6,30.6,0,0,1-31.4-1.1"/><polygon class="cls-15" points="1266 497.8 1266 495 1291.1 517.9 1357 499.9 1358 504 1291.2 519.1 1266 497.8"/><path class="cls-15" d="M1360.7,503.2l11.9,97.6-69.9,16.3c-3.7-33.1-8.5-71.1-11.6-99.2C1311.2,514.3,1341.1,508.4,1360.7,503.2Z"/><polygon class="cls-12" points="1302.7 617.1 1275.4 596 1263.7 496 1291.1 517.9 1302.7 617.1"/><polygon class="cls-15" points="1291.1 517.9 1268.8 493.7 1268.8 497.6 1291.1 517.9"/><path class="cls-17" d="M1409.1,496c29.9,85.7-23.1,103.2-66.3,79.4"/><circle class="cls-18" cx="1407.5" cy="492.4" r="12.9"/><circle class="cls-19" cx="1407.5" cy="492.4" r="6.7"/><polyline class="cls-21" points="1341.1 574.6 1324 581.4 1315 576.3"/><polyline class="cls-21" points="1341.4 574.1 1338.3 556 1329.3 550.9"/><circle class="cls-18" cx="1342.8" cy="575.4" r="12.9"/><circle class="cls-19" cx="1342.8" cy="575.4" r="6.7"/><polyline class="cls-21" points="1269.2 552.1 1264.6 534.3 1270.8 525.9"/><polyline class="cls-21" points="1269.7 552.4 1288 551.6 1294.2 543.3"/><path class="cls-17" d="M1268.8,575.4c-6.5-6.1-5.7-18.2-.5-21.7"/><circle class="cls-18" cx="1268.3" cy="553.7" r="12.9"/><circle class="cls-19" cx="1268.3" cy="553.7" r="6.7"/><circle class="cls-20" cx="1378.8" cy="260.6" r="12.8"/><circle class="cls-20" cx="1345.2" cy="259.7" r="12.8"/><path class="cls-20" d="M1357.5,256.4c2.7-2.1,7-1.4,9-.4"/><line class="cls-20" x1="1391.3" y1="257.8" x2="1399.7" y2="255"/><path class="cls-5" d="M1135.8,688.6h-53.3a9.2,9.2,0,0,0-9.2,9.2H1145A9.2,9.2,0,0,0,1135.8,688.6Z"/><path class="cls-22" d="M1089.3,649.5a99,99,0,0,0,19.7,2,97.8,97.8,0,1,0-21-193.3"/><line class="cls-22" x1="1109" y1="632.3" x2="1109" y2="694.5"/><line class="cls-22" x1="1109" y1="478.2" x2="1109" y2="448.8"/><path class="cls-13" d="M1189.3,553.7a78.3,78.3,0,0,1-2.3,18.9,80.2,80.2,0,0,1-78,61.3,79.1,79.1,0,0,1-20.1-2.5,80.3,80.3,0,0,1-60.2-77.7h0a81.3,81.3,0,0,1,6.1-30.5,79.1,79.1,0,0,1,8.4-15.4,80.3,80.3,0,0,1,65.8-34.3,77.2,77.2,0,0,1,16.8,1.8,80.2,80.2,0,0,1,63.3,73.3C1189.2,550.2,1189.3,551.9,1189.3,553.7Z"/><path class="cls-15" d="M1109,473.4a77.2,77.2,0,0,1,16.8,1.8c-.9,2.6-3.6,4.5-6.3,5.5s-6.8,1.3-9.9,2.8-5.8,4.7-4.8,8,5.6,4.9,8.3,7.6c5,5.2,2,13.9-2.4,19.6s-10,11.5-9.8,18.6,3.8,12.2-.2,16.2c-2.2,2.1-5.7,2.2-8.6,1.1s-5.3-2.9-8.1-4.2c-6.3-3.2-13.5-3.3-20.4-4.8s-14.1-5.4-15.9-12.1c-1.2-4.4.1-9,.5-13.5a13.6,13.6,0,0,0-3.9-11.2l-1.1-1.1A80.3,80.3,0,0,1,1109,473.4Z"/><path class="cls-15" d="M1189.1,548.5c-5.8-3.2-10.4-10.2-16.9-9-2.5.5-4.7,2.3-6.9,3.5a13.1,13.1,0,0,1-10.9,1.3c-3.4-1.4-6-5.3-5.1-8.9s6.1-8.3,3.5-11.8c-.5-.7-1.4-1.2-2-1.9-2.5-2.9-.2-7.4,2.5-10.2a38.4,38.4,0,0,1,15.4-9.5l1.3-.5A79.4,79.4,0,0,1,1189.1,548.5Z"/><path class="cls-15" d="M1187,572.6a80.2,80.2,0,0,1-78,61.3,79.1,79.1,0,0,1-20.1-2.5,22.7,22.7,0,0,1,3-7.8c3.1-4.3,9-5.3,12.3-9.4s2.8-11.1,3.4-16.9c.9-8.4,5.3-16.1,9.6-23.4,1.4-2.5,2.9-5,5.3-6.6s5.9-1.8,7.9.2,1.5,2.8,2.2,4.3a16.5,16.5,0,0,0,16.9,9.8c8.6-1.2,14.9-8.8,23.2-11A18.8,18.8,0,0,1,1187,572.6Z"/><path class="cls-15" d="M1095.7,592.8c0-2.8-.9-5.8-3.1-7.5s-6.6-2-9.2-4.1-1.9-2.1-3.1-3a8,8,0,0,0-7.9-.8,12.3,12.3,0,0,0-5.9,5.8,7,7,0,0,0-1,3.4c.1,4,5.1,6.1,6.3,9.9s-.4,5.4.4,8,5.4,5,9.2,5C1091.1,609.6,1095.5,601.8,1095.7,592.8Z"/><path class="cls-15" d="M1168.9,551.1c0,2.3,1.8,4.3,4,5.2a12.1,12.1,0,0,0,6.8.4,2.9,2.9,0,0,0,1-.3,4.7,4.7,0,0,0,.5-1c.5-1.8.6-3.9-.4-5.4C1178.5,546.6,1168.8,545.1,1168.9,551.1Z"/><path class="cls-15" d="M1040.6,546.8a6.2,6.2,0,0,1-2,4.2,10.3,10.3,0,0,1-7.2,3.1,8.6,8.6,0,0,1-2.7-.5,81.3,81.3,0,0,1,6.1-30.5,8.7,8.7,0,0,1,3.7,7.4c-.1,2.2-.9,4.2-.9,6.4a12.1,12.1,0,0,0,1.6,6.1A9.3,9.3,0,0,1,1040.6,546.8Z"/><path class="cls-15" d="M1123.5,484.7a7.4,7.4,0,0,0-2.3,2c-1.1,1.5-2.1,5.2-.2,6.5a5.9,5.9,0,0,0,5.6.4,7.3,7.3,0,0,0,2.9-2.3,4.8,4.8,0,0,0-1-6.5A4.7,4.7,0,0,0,1123.5,484.7Z"/><polygon class="cls-15" points="1469.9 302.1 1575.1 278.1 1604.1 319.7 1469.9 302.1"/><polygon class="cls-9" points="1579.2 327.9 1485.1 304.1 1583.8 317 1579.2 327.9"/><polygon class="cls-12" points="1586.4 294.3 1502.3 298.9 1593.2 304.1 1586.4 294.3"/></g></svg>