<svg xmlns="http://www.w3.org/2000/svg" xmlns:xlink="http://www.w3.org/1999/xlink" viewBox="0 0 1920 1080"><defs><style>.cls-1,.cls-16,.cls-17,.cls-23{fill:none;}.cls-2{fill:#cba6ff;}.cls-3{clip-path:url(#clip-path);}.cls-4{fill:#110b1d;}.cls-5,.cls-8{fill:#6122b2;}.cls-6,.cls-7{fill:#666;}.cls-6{fill-rule:evenodd;}.cls-8{font-size:80px;font-family:Monosten-Regular, Monosten;}.cls-9{fill:#250d45;}.cls-10{fill:#e6d4ff;}.cls-11{fill:#ffbc5e;}.cls-12{fill:#ff9054;}.cls-13{fill:#fff;}.cls-14{fill:#785f99;}.cls-15{fill:#553d75;}.cls-16,.cls-17,.cls-23{stroke:#260d46;stroke-linecap:round;stroke-linejoin:round;}.cls-16{stroke-width:17px;}.cls-17{stroke-width:7px;}.cls-18{fill:#e8d7ff;}.cls-19{fill:#260d46;}.cls-20{fill:#6b1fbf;}.cls-21{fill:#973bfc;}.cls-22{fill:#fffcf5;}.cls-23{stroke-width:2px;}</style><clipPath id="clip-path"><rect class="cls-1" x="77.5" y="65.8" width="353.3" height="91.34"/></clipPath></defs><g id="Isolation_Mode" data-name="Isolation Mode"><rect class="cls-2" width="1920" height="1080"/><g class="cls-3"><g class="cls-3"><path class="cls-4" d="M201.1,89.8a2.2,2.2,0,0,1,4.4-.4.3.3,0,0,1,0,.4v.5a5.3,5.3,0,0,1,1.6-2.3,5.1,5.1,0,0,1,3.1-1.1c3,0,4.9,1.2,5.5,3.5a5,5,0,0,1,1.9-2.4,6,6,0,0,1,3.4-1.1c4.1,0,6.1,2.6,6.1,6.6v15.9a2.2,2.2,0,0,1-2,2.4,2.1,2.1,0,0,1-2.3-2c-.1-.2-.1-.3,0-.4V94.8c0-2.8-.9-4-2.8-4s-3.7,2.2-3.7,6.6v12a2.2,2.2,0,0,1-2,2.4,2.1,2.1,0,0,1-2.3-2c-.1-.2-.1-.3,0-.4V94.8c0-2.8-.8-4-2.8-4s-3.7,2.4-3.7,7.2v11.4a2.1,2.1,0,0,1-1.9,2.4,2.3,2.3,0,0,1-2.5-2v-20Z"/><path class="cls-4" d="M254.4,104.6a2.5,2.5,0,0,0-1.8.8c-1.7,2-4.1,3-7.3,3a7.1,7.1,0,0,1-5.1-2.1,9.1,9.1,0,0,1-2.4-4.9h16.8a2.3,2.3,0,0,0,2.5-2.1v-.4a11.7,11.7,0,0,0-3.3-8.5,10.9,10.9,0,0,0-8.5-3.4,11.5,11.5,0,0,0-8.8,3.6,14.2,14.2,0,0,0,0,18,11.5,11.5,0,0,0,8.8,3.6c4.3,0,7.8-1.2,10.4-3.7a2.3,2.3,0,0,0,.2-3.2h0a1.9,1.9,0,0,0-1.5-.8ZM240.3,92.8a7.4,7.4,0,0,1,5-2,6.3,6.3,0,0,1,4.7,1.9,9.7,9.7,0,0,1,2.5,4.8H237.8a8.3,8.3,0,0,1,2.5-4.7"/><path class="cls-4" d="M270.6,77.2a2.2,2.2,0,0,1,2.2,2.4v7.8h8.8c1.5,0,2.3.7,2.3,2s-.8,1.9-2.3,1.9h-8.8V104c0,3,1.6,4.3,3.8,4.3a5.6,5.6,0,0,0,3.3-.8l1.4-1a2.1,2.1,0,0,1,1.3-.5,2,2,0,0,1,2,2h0a2.9,2.9,0,0,1-1.4,2.1,11.2,11.2,0,0,1-6.9,2,8.5,8.5,0,0,1-5.7-1.9c-1.4-1.2-2.2-3.2-2.2-5.9V91.3h-6.3c-1.5,0-2.3-.6-2.3-1.9s.8-1.9,2.3-1.9h6.3V79.6a2.2,2.2,0,0,1,2.1-2.4Z"/><path class="cls-4" d="M310.3,87.4c-1.2,0-2.1,1-2.2,2.6a6.8,6.8,0,0,0-3-2.3,9.9,9.9,0,0,0-3.8-.7,10.2,10.2,0,0,0-8.4,3.7,14.7,14.7,0,0,0,0,17.8,10.1,10.1,0,0,0,8.4,3.7,10.7,10.7,0,0,0,3.9-.7,7.3,7.3,0,0,0,2.9-2.3c.1,1.6,1,2.6,2.2,2.6a2.4,2.4,0,0,0,2.4-2.2V89.9a2.3,2.3,0,0,0-2.1-2.5h-.3m-4,18.5a6.5,6.5,0,0,1-9.2,1l-.9-1a10.9,10.9,0,0,1,0-12.6,6.5,6.5,0,0,1,9.1-1.1,5.2,5.2,0,0,1,1,1.1,9.4,9.4,0,0,1,1.9,6.3,9.4,9.4,0,0,1-1.9,6.3"/><path class="cls-5" d="M328.9,107.9V81.6h-5.5c-1.3,0-2.4-.7-2.4-1.9s1.1-1.9,2.4-1.9H331a2,2,0,0,1,2.2,1.9v28.2h7.1c1.3,0,2.4.7,2.4,1.9s-1.1,2-2.4,2H321.8c-1.4,0-2.4-.8-2.4-2s1-1.9,2.4-1.9h7.1Z"/><path class="cls-5" d="M365.5,87.4c-1.2,0-2.1,1-2.2,2.6a6.5,6.5,0,0,0-2.9-2.3,10.7,10.7,0,0,0-3.9-.7,10,10,0,0,0-8.3,3.7,14.5,14.5,0,0,0-.1,17.8,11.3,11.3,0,0,0,12.3,3,7.6,7.6,0,0,0,3-2.3c.1,1.6.9,2.6,2.2,2.6a2.3,2.3,0,0,0,2.3-2.2V89.9a2.3,2.3,0,0,0-2-2.5h-.4m-4,18.5a6.4,6.4,0,0,1-9.1,1l-1-1a9.4,9.4,0,0,1-1.9-6.3,9.4,9.4,0,0,1,1.9-6.3,6.5,6.5,0,0,1,9.1-1.1,5.2,5.2,0,0,1,1,1.1,10.9,10.9,0,0,1,0,12.6"/><path class="cls-5" d="M375.5,89.8a2.2,2.2,0,0,1,4.4-.4v.9a4.1,4.1,0,0,1,1.6-2.3,4.6,4.6,0,0,1,3-1.1c3.1,0,4.9,1.2,5.6,3.5a4.8,4.8,0,0,1,1.8-2.4,6,6,0,0,1,3.4-1.1c4.1,0,6.2,2.6,6.2,6.6v15.9a2.3,2.3,0,0,1-2,2.4,2.2,2.2,0,0,1-2.4-2v-15c0-2.8-.9-4-2.8-4s-3.6,2.2-3.6,6.6v12a2.3,2.3,0,0,1-2,2.4,2.2,2.2,0,0,1-2.4-2v-15c0-2.8-.8-4-2.8-4s-3.6,2.4-3.6,7.2v11.4a2.2,2.2,0,1,1-4.4.4v-20Z"/><path class="cls-5" d="M428.4,87.4c-1.2,0-2.1,1-2.2,2.6a6.8,6.8,0,0,0-3-2.3,9.9,9.9,0,0,0-3.8-.7,10,10,0,0,0-8.3,3.7,13.3,13.3,0,0,0-3.1,8.9,13.7,13.7,0,0,0,3,8.9,10.1,10.1,0,0,0,8.4,3.7,9.9,9.9,0,0,0,3.8-.7,6.9,6.9,0,0,0,3-2.3c.1,1.6,1,2.6,2.2,2.6a2.2,2.2,0,0,0,2.3-2.2V89.9a2.3,2.3,0,0,0-2-2.5h-.3m-4,18.5a6.5,6.5,0,0,1-9.2,1,4.3,4.3,0,0,1-.9-1,10.9,10.9,0,0,1,0-12.6,6.5,6.5,0,0,1,9.1-1.1l1,1.1a9.4,9.4,0,0,1,1.9,6.3,9.4,9.4,0,0,1-1.9,6.3"/><path class="cls-6" d="M427.8,148a6.8,6.8,0,0,1-5.6,2.3,8.6,8.6,0,0,1-2.7-.5,3.4,3.4,0,0,1-1.8-1.5v6.4a1.4,1.4,0,0,1-1.4,1.5,1.4,1.4,0,0,1-1.5-1.5V135.9a1.4,1.4,0,0,1,1.5-1.5,1.5,1.5,0,0,1,1.4,1.5,3.5,3.5,0,0,1,1.9-1.4,7.7,7.7,0,0,1,2.7-.4,7.2,7.2,0,0,1,5.5,2.1,9.4,9.4,0,0,1,1.9,6,9,9,0,0,1-1.9,5.8m-2.1-9.9a4.1,4.1,0,0,0-3.4-1.6,3.9,3.9,0,0,0-3.4,1.6,6.5,6.5,0,0,0-1.2,4.1,6.3,6.3,0,0,0,1.2,4.1,4.6,4.6,0,0,0,6.8,0,6.3,6.3,0,0,0,1.2-4.1,6.5,6.5,0,0,0-1.2-4.1m-14.8,1.2a1.3,1.3,0,0,1-1.2-.9,3.1,3.1,0,0,0-2.9-1.8,4,4,0,0,0-3.6,1.8,7.8,7.8,0,0,0-1.2,4.4v5.6a1.4,1.4,0,0,1-1.4,1.6,1.4,1.4,0,0,1-1.5-1.6V136a1.5,1.5,0,0,1,1.5-1.6A1.5,1.5,0,0,1,402,136v.7a4.7,4.7,0,0,1,1.9-1.8,6,6,0,0,1,2.9-.8c2.7,0,4.5,1,5.6,2.9a2.2,2.2,0,0,1,.1.8,1.6,1.6,0,0,1-1.6,1.5m-17.8,10.6a1.4,1.4,0,0,1-1.4-1.6,4.8,4.8,0,0,1-2,1.4,6.6,6.6,0,0,1-2.7.6,6.8,6.8,0,0,1-5.5-2.4,8.1,8.1,0,0,1-2-5.7,8.8,8.8,0,0,1,2-5.7,7.1,7.1,0,0,1,5.6-2.4,8,8,0,0,1,2.6.5,4.8,4.8,0,0,1,2,1.4,1.4,1.4,0,0,1,1.4-1.6,1.4,1.4,0,0,1,1.5,1.5v12.5a1.4,1.4,0,0,1-1.5,1.5m-2.7-11.8a4.1,4.1,0,0,0-3.4-1.6,4.4,4.4,0,0,0-3.4,1.6,7.6,7.6,0,0,0,0,8.2,4.3,4.3,0,0,0,3.4,1.5,4.1,4.1,0,0,0,3.4-1.5,7.1,7.1,0,0,0,0-8.2M375.7,150a1.4,1.4,0,0,1-1.5-1.5v-7.8a5.4,5.4,0,0,0-.7-3.2,3.1,3.1,0,0,0-2.5-1,3.9,3.9,0,0,0-3.3,1.7,7.4,7.4,0,0,0-1.2,4.4v5.8A1.5,1.5,0,0,1,365,150a1.3,1.3,0,0,1-1.4-1.5V129.7a1.4,1.4,0,0,1,1.4-1.6,1.5,1.5,0,0,1,1.4,1.6v6.8a3.5,3.5,0,0,1,1.7-1.7,7.3,7.3,0,0,1,2.9-.7c4.1,0,6.1,2,6.1,6v8.4a1.4,1.4,0,0,1-1.4,1.5Zm-21.6-8.9,1.8.3,1.7.4a3.5,3.5,0,0,1,2.8,3.6,4.4,4.4,0,0,1-2,3.7,8.2,8.2,0,0,1-5,1.3c-3-.1-5.1-1-6.6-2.8a1.4,1.4,0,0,1,1-2.4,1.6,1.6,0,0,1,1.3.7,5.2,5.2,0,0,0,4.3,2c2.7,0,4-.8,4-2.5s-.3-1.1-1.3-1.4l-1.2-.3-1.7-.2-2.3-.4-1.9-.7a3.5,3.5,0,0,1-2-3.4,4.3,4.3,0,0,1,1.8-3.6,8.4,8.4,0,0,1,4.5-1.2c2.7,0,4.7.9,5.9,2.6a1.2,1.2,0,0,1,.3.9,1.4,1.4,0,0,1-1.5,1.4,1.3,1.3,0,0,1-1.2-.7,3.7,3.7,0,0,0-3.5-1.7c-2.1,0-3.4.8-3.4,2.2S351.4,140.7,354.1,141.1Z"/><path class="cls-6" d="M289.4,148a6.7,6.7,0,0,1-5.5,2.3,7.6,7.6,0,0,1-2.7-.5,4.1,4.1,0,0,1-1.9-1.4v6.3a1.3,1.3,0,0,1-1.4,1.5,1.4,1.4,0,0,1-1.4-1.5V135.9a1.4,1.4,0,1,1,2.8,0,4.5,4.5,0,0,1,1.9-1.4,8.4,8.4,0,0,1,2.7-.4,6.8,6.8,0,0,1,5.5,2.2,8,8,0,0,1,2,5.9,8.5,8.5,0,0,1-2,5.8m-2-9.9a4.2,4.2,0,0,0-3.4-1.5,4.1,4.1,0,0,0-3.4,1.5,6.6,6.6,0,0,0-1.2,4.2,6.5,6.5,0,0,0,1.2,4.1,4.1,4.1,0,0,0,3.4,1.5,4.2,4.2,0,0,0,3.4-1.5,6.4,6.4,0,0,0,1.1-4.1,7.2,7.2,0,0,0-1.1-4.2"/><path class="cls-6" d="M307.3,148.1a7.4,7.4,0,0,1-5.6,2.3,7.5,7.5,0,0,1-5.6-2.3,8.3,8.3,0,0,1-2.1-5.8,8.5,8.5,0,0,1,2.1-5.9,7.2,7.2,0,0,1,5.6-2.3,7,7,0,0,1,5.6,2.3,8.6,8.6,0,0,1,2.2,5.9,8.3,8.3,0,0,1-2.2,5.8m-2.1-10a4.3,4.3,0,0,0-3.5-1.5,4.5,4.5,0,0,0-3.5,1.5,6,6,0,0,0-1.3,4.2,5.9,5.9,0,0,0,1.3,4.1,4.5,4.5,0,0,0,3.5,1.5,4.4,4.4,0,0,0,3.5-1.5,6,6,0,0,0,1.4-4.1,6.1,6.1,0,0,0-1.4-4.2"/><path class="cls-6" d="M312.3,147.7a1.8,1.8,0,0,1-.5-1.1,1.5,1.5,0,0,1,1.5-1.4,1.6,1.6,0,0,1,1.3.7,5.2,5.2,0,0,0,4.3,2c2.7,0,4-.8,4-2.4s-.3-1.1-1.3-1.4l-1.2-.3-1.7-.3-2.3-.4-1.9-.7a3.4,3.4,0,0,1-2-3.3,4,4,0,0,1,1.8-3.6,7.7,7.7,0,0,1,4.5-1.3c2.7,0,4.7.9,5.9,2.6a1.4,1.4,0,0,1-1.2,2.3,1.4,1.4,0,0,1-1.2-.6,3.8,3.8,0,0,0-3.5-1.8c-2.1,0-3.4.8-3.4,2.2s1.5,1.8,4.2,2.2l1.9.3,1.6.4a5.3,5.3,0,0,1,1.5.7,3.8,3.8,0,0,1,1.3,2.9,4.2,4.2,0,0,1-1.9,3.7,8.7,8.7,0,0,1-5,1.4c-3-.2-5.2-1.1-6.7-2.8Z"/><path class="cls-6" d="M332.8,129.4a1.4,1.4,0,1,1,2.8,0v5h5.9c1,0,1.5.4,1.5,1.3s-.5,1.3-1.5,1.3h-5.9v8.1c0,1.9,1.1,2.8,2.5,2.8a4,4,0,0,0,2.3-.6l.9-.6.9-.3a1.3,1.3,0,0,1,1.3,1.3,1.7,1.7,0,0,1-.9,1.4,8.6,8.6,0,0,1-4.6,1.3,5.6,5.6,0,0,1-3.8-1.2,4.6,4.6,0,0,1-1.5-3.8v-8.5h-4.2c-1,0-1.5-.4-1.5-1.3s.5-1.2,1.5-1.2h4.2v-5Z"/><path class="cls-7" d="M237.2,150.8a6.8,6.8,0,0,0,5.3-2.1c1.3-1.4,1.9-3.4,1.9-6a8.6,8.6,0,0,0-1.9-5.8,6.5,6.5,0,0,0-5.3-2.3,7.5,7.5,0,0,0-2.6.5,3.5,3.5,0,0,0-1.8,1.5v-6.4a1.5,1.5,0,0,0-1.4-1.6,1.4,1.4,0,0,0-1.4,1.6V149a1.4,1.4,0,0,0,1.4,1.5,1.5,1.5,0,0,0,1.4-1.5,3.7,3.7,0,0,0,1.8,1.4,7.5,7.5,0,0,0,2.6.4m4.4-8.1a7.1,7.1,0,0,1-1.1,4.1,4.4,4.4,0,0,1-6.6,0,8.2,8.2,0,0,1,0-8.2,4.4,4.4,0,0,1,6.6,0,7.1,7.1,0,0,1,1.1,4.1"/><path class="cls-7" d="M250.2,157.1a4.9,4.9,0,0,0,3.9-1.7,21.5,21.5,0,0,0,3.2-5.3l6-13.1a1.8,1.8,0,0,0,.1-.6,1.5,1.5,0,0,0-.9-1.4h-.6a1.5,1.5,0,0,0-1.4.9l-4.6,10.5-4.6-10.5a1.4,1.4,0,0,0-1.4-.9h-.6a1.4,1.4,0,0,0-.7,2l5.7,13v.4a15,15,0,0,1-1.8,3.3,2.9,2.9,0,0,1-2.2.9l-1.5-.3a1.2,1.2,0,0,0-1.2,1.2c0,1.1.9,1.6,2.7,1.6Z"/><path class="cls-5" d="M94.4,123h-16a1,1,0,0,0-1,1v14.1a1,1,0,0,0,1,1H88.7a1,1,0,0,0,.9-.6l5.6-14.2a.9.9,0,0,0-.8-1.3"/><path class="cls-5" d="M149.2,123h-35l9.9-56.1a1,1,0,0,0-1-1.1H109a.8.8,0,0,0-.9.7L104.5,87H84.7a.9.9,0,0,0-.9.9v14.2a.9.9,0,0,0,.9.9h16.9l-9.3,53a1,1,0,0,0,1,1.1h14.1a.9.9,0,0,0,.9-.8l3.1-17.2h20.1l-3,16.9a1,1,0,0,0,1,1.1h14.1a.9.9,0,0,0,.9-.8l5.7-32.2a1,1,0,0,0-.9-1.1"/><path class="cls-5" d="M167.8,123H157a1,1,0,0,0-.9.6l-5.6,14.2a.9.9,0,0,0,.9,1.3h16.4a1,1,0,0,0,1-1V124a.9.9,0,0,0-1-1"/><path class="cls-5" d="M174.2,87H156.7l3.5-20.1a.9.9,0,0,0-.9-1.1H145.2a1,1,0,0,0-1,.7L140.7,87H127.1a1,1,0,0,0-.9.6l-5.6,14.1a1,1,0,0,0,.9,1.3h16.3l-2.3,13.2a.9.9,0,0,0,.7,1.1l13.6,3.1a.9.9,0,0,0,1.2-.7l2.9-16.7h20.3a.9.9,0,0,0,.9-.9V87.9a.9.9,0,0,0-.9-.9"/></g></g><text class="cls-8" transform="translate(77.5 512.7)">Status Update<tspan class="cls-9"><tspan x="0" y="95.2">October 2024</tspan></tspan></text><path class="cls-10" d="M1783,763.1a47.1,47.1,0,0,1-.3,5.3c-3.7,43.3-42.9,89.3-88,93.2L1036.1,875c-44.5-5.1-85.7-14-121.8-42.1a172.4,172.4,0,0,1-32.7-34.3c-22.4-30.9-36.4-69.7-36.1-106.1.5-49.3,17.6-96.3,55.5-127.9,53.6-44.9,148.4-57.2,180.9-125.7,16.3-34.1,8.8-74.1,5.6-111.7-6.3-74.3,39.5-149.4,116.8-163.6,55.6-10.3,112.6,17.5,152.1,57.8,30.2,30.8,56.4,71.3,98.6,80.9,52,11.8,101.4-29.2,154.6-32.6,42.5-2.8,95.2,13.6,121.9,47.3,31.5,39.7,40.7,94.9,28.1,143.5-12,46-53.6,71.2-69.2,114.3C1659.9,659.8,1784.1,686.1,1783,763.1Z"/><path class="cls-2" d="M1783,763.1a47.1,47.1,0,0,1-.3,5.3c-3.7,43.3-42.9,89.3-88,93.2L1036.1,875c-44.5-5.1-85.7-14-121.8-42.1a172.4,172.4,0,0,1-32.7-34.3,15.4,15.4,0,0,1,14.5-2.3c-4.5-9.9,8.3-22.2,18-17.4C904,764,895,747.7,892.2,729.8s1.6-37.7,14.9-49.9,33.2-15,50.2-9.6,31,18.3,40.5,33.4c-2.3-11.6,13.5-20.1,24.6-15.8s17.7,15.5,23.3,26c2.1-9.6,14.1-14.2,23.6-11.8s17,9.6,23.9,16.5c-4.9-17.6-5.6-36.6.5-53.7s19.8-32,37.3-37.1,38.4.4,52.6,12.7,22.7,30.4,25.5,49.1c5.8-10,18.9-15,29.8-11.3s18.5,15.5,17.2,26.9c9.2-8.5,24.7-5.9,34.2,2.2s14.5,20.2,19.2,31.8c5.3-12.2,22.1-15.6,34.1-10.2s20,17.1,26.2,28.8c-1.9-20.9,12.4-42.1,32.5-48.2s43.8,3.4,53.9,21.8c-6.3-34.9,28.4-69.8,63.7-66.2s62,41.6,56.1,76.5c4.4-17,29.8-20.2,43.4-9.2s18,29.9,20,47.4a23.2,23.2,0,0,1,43.1,3.6c.2-10.7,9.4-20.5,20.1-21.3s21.3,7.5,23,18.1c6.6-9.6,20.1-16.1,31.5-18.8A47.6,47.6,0,0,1,1783,763.1Z"/><path class="cls-10" d="M968.1,464.2c-16.6,5.2-35.1,6.6-51.1-.5-27.2-12.3-40.1-46.2-39.3-77.1,1.2-44.9,26.7-88.2,64.6-109.6,41.1-23.1,98.4-2,113,45.6C1073.4,381.4,1019.9,447.7,968.1,464.2Z"/><path class="cls-11" d="M1699.1,887.5c-15.5-.4-31.1-1-45.2,4.9-20.2,8.6-33,29.1-52.1,39.9-17.4,9.9-38.3,10.8-58.3,10.6-83.8-1-167.3-4.8-251.3-5.7-19.3-.2-38.8-.4-57.4-5.3-13.7-3.6-26.7-9.7-40.6-12.6-27.9-5.9-56.7,1.4-85.2,4-19.2,1.7-39.6.8-57.4-7.1-6.7-3-14.9-6-20.1-11s-7.4-15.2-13.8-20.8c-4.3-3.8-10-5.4-15.5-6.7-43.9-10-91.6-3.2-132.8-21.3-8.1-3.5-16.1-8.2-21.2-15.5s-6.4-17.7-1.4-25c2.8-4.1,7.2-6.8,11.8-8.8,12-5.2,25.5-6.1,38.7-6.7,70.6-3.5,141.4-1.2,212.1.2,44.4.9,88.8.5,133.2-.7,28.9-.7,58-4.9,86.9-1.6s49.2,19.9,75.7,23.9c23.5,3.5,48.4,2.1,72.2,1.8,53.2-.5,106.4-3.1,159.6-3.3,42.7,0,85.6,1.6,128.1,6.5,21.2,2.4,41.1,30,18.4,46-16,11.3-52.9,14.1-71.9,14.5C1707.5,887.7,1703.3,887.7,1699.1,887.5Z"/><ellipse class="cls-12" cx="1293.4" cy="840.3" rx="114.9" ry="16"/><path class="cls-11" d="M1241.9,417.3c9.1,17.6,13.5,46.9,1.9,64.2s-35.2,15.1-45.1,29.9c-6.3,9.2,0,18.3-9.4,27.6-16.2,15.9-48,14-68,9-25.6-6.5-51.7-17.3-77.3-11.1-10.6,2.6-20.5,7.6-30.8,11.1-69.6,24-128.9-25.4-93.4-73.3,5.8-7.9,16-13.4,17.7-23.1,1.5-8.1-4.1-16.2-11-20.9s-15.2-7-22.9-10.4c-22.5-10.2-39.8-31.2-45.2-55.1a80.2,80.2,0,0,1,17-69c19.9-23.4,52.2-33.6,83.1-33.3,10.7.1,21.7,1.2,31.6-2.4,20.6-7.5,20.9-39,7.5-53.3-5-5.3-11.8-8.6-17-13.7s-8.6-13.4-4.8-19.6c5.5-8.7,20.2-6.4,26.6-14.4,3.4-4.1,3.5-9.9,4.8-15,4.2-17.5,23.6-29.3,41.7-27s33.2,17.1,37.7,34.5c2.4,8.8,2.4,18.3,6.6,26.4,8.3,16,29,20.1,46.7,24.2s35.9,10.3,48.8,23,19.4,33.5,10.9,49.5c-5.9,11.2-17.5,18-27.9,25.3s-21.2,16.6-26.7,28.5-5,27.2,4.1,36.7c10.9,11.4,29,10.7,44.5,14.3A73.2,73.2,0,0,1,1241.9,417.3Z"/><path class="cls-13" d="M1053,809.9l-1.6-162.1-1.2-162.1-.8-81.1-.2-40.5V323.6l.5-40.6c.2-13.5.3-27,.7-40.5.5-27,1.2-54.1,2.4-81.1a.4.4,0,0,1,.8,0c1.1,27,1.8,54.1,2.4,81.1.3,13.5.5,27,.7,40.5l.5,40.6v40.5l-.2,40.5-.7,81.1-1.2,162.1-1.6,162.1a.4.4,0,1,1-.8,0Z"/><path class="cls-13" d="M1052.4,356.4a34.6,34.6,0,0,0,7.9-3.5,36.5,36.5,0,0,0,7.1-5.3,77.3,77.3,0,0,0,11.9-14.1c3.6-5.2,6.8-10.7,10-16.3s6.3-11.1,9.3-16.7c6.1-11.3,11.8-22.8,17-34.5s10.2-23.6,14.8-35.6c-3.9,12.2-8.2,24.4-12.9,36.4s-9.8,23.8-15.3,35.5c-2.7,5.8-5.5,11.6-8.5,17.3s-5.9,11.5-9.3,17.1c-1.7,2.8-3.5,5.6-5.5,8.3a79.1,79.1,0,0,1-6.6,7.7,52.1,52.1,0,0,1-8,6.6,45.9,45.9,0,0,1-9.4,4.7,4,4,0,0,1-2.7-7.5.1.1,0,0,0,.1-.1Z"/><path class="cls-13" d="M1108.2,284.1a11.2,11.2,0,0,1-4.5-4.9,19.9,19.9,0,0,1-1.9-6c-.4-2.1-.5-4.1-.7-6.1s-.2-4-.2-6c-.2-8,.3-16,.7-23.9.1,7.9.1,15.9.8,23.8a56.1,56.1,0,0,0,.6,5.9,54,54,0,0,0,1,5.8,17.1,17.1,0,0,0,2,5.2,8.9,8.9,0,0,0,3.6,3.6,1.4,1.4,0,0,1,.7,2,1.6,1.6,0,0,1-2,.7Z"/><path class="cls-13" d="M1095.2,308.9a50.5,50.5,0,0,0,22.7-7.8,53.3,53.3,0,0,1-21.7,12.7h0a2.5,2.5,0,1,1-1.5-4.8Z"/><path class="cls-13" d="M1049.5,328.7a47.2,47.2,0,0,1-11.1-14.9,73.7,73.7,0,0,1-5.9-16.9c-2.5-11.6-2.9-23.1-4.1-34.6,2.5,11.2,4.3,22.8,8,33.5a67.6,67.6,0,0,0,7.2,15.1,41.7,41.7,0,0,0,10.9,11.6,4.1,4.1,0,0,1,1,5.6,4,4,0,0,1-5.6.9l-.4-.2Z"/><path class="cls-13" d="M1053.4,465.9a80.7,80.7,0,0,1-21.8-3.5,77.7,77.7,0,0,1-19.7-9.4c-12.2-8.1-21.8-19.4-29-31.7A115.4,115.4,0,0,1,969,381.2a152.2,152.2,0,0,1-.5-42.1,154.1,154.1,0,0,0,2.5,41.8,114.2,114.2,0,0,0,15.4,38.3c7.5,11.5,17.1,21.7,28.7,28.7a73.4,73.4,0,0,0,18.5,7.8,69.2,69.2,0,0,0,19.8,2.2h0a4.1,4.1,0,0,1,4.1,3.9,4,4,0,0,1-3.9,4.1Z"/><path class="cls-13" d="M976.2,410.4a28.6,28.6,0,0,1-8.6-2.6,32,32,0,0,1-7.1-4.9,52.7,52.7,0,0,1-10.4-13.3,85.2,85.2,0,0,1-6.8-15.1,109.1,109.1,0,0,1-4.1-15.9,103.7,103.7,0,0,0,5.3,15.4,85.6,85.6,0,0,0,7.7,14.3A51.6,51.6,0,0,0,962.8,400a26.6,26.6,0,0,0,13.9,5.5,2.4,2.4,0,0,1,2.3,2.6,2.5,2.5,0,0,1-2.6,2.4Z"/><path class="cls-13" d="M969,377.1a46.8,46.8,0,0,0,15.6-22.2,46.7,46.7,0,0,1-14.3,23.7,1,1,0,1,1-1.3-1.4Z"/><path class="cls-13" d="M1017.2,453.5a196.8,196.8,0,0,1,6.3-48,192.2,192.2,0,0,0,1.7,47.4,4.1,4.1,0,0,1-3.4,4.6,4.2,4.2,0,0,1-4.6-3.4v-.6Z"/><path class="cls-13" d="M1056.6,513.3a26.8,26.8,0,0,0,15.2-3.5,38,38,0,0,0,12.3-11,69.9,69.9,0,0,0,8.3-15.2c2.3-5.4,4.1-11.1,6-16.9a407,407,0,0,0,15.5-70.2,411.1,411.1,0,0,1-11.7,71.3c-1.5,5.9-3.1,11.8-5.1,17.6a73.8,73.8,0,0,1-8,16.8,45.6,45.6,0,0,1-13.7,13.6,34,34,0,0,1-19.3,5.5h0a4,4,0,0,1-3.8-4.2,3.9,3.9,0,0,1,4.1-3.8Z"/><path class="cls-13" d="M1102.1,459.5a15.6,15.6,0,0,1-6-2.7,20.8,20.8,0,0,1-4.4-4.5,47.8,47.8,0,0,1-5.3-10.6,74.3,74.3,0,0,1-4.4-22.8,71.3,71.3,0,0,0,6.2,22,46.6,46.6,0,0,0,5.9,9.6c2.3,2.7,5.4,4.7,8.6,5a2.1,2.1,0,0,1,1.8,2.2,2,2,0,0,1-2.2,1.8Z"/><path class="cls-13" d="M1033.8,819c9.6-40.4,10.2-82.3,10.1-123.8-.2-106.9,6-217,9.5-323.9,6,83,9.8,169.8,8.3,252.9-1.2,64.2,3.2,135.8,16.4,194.8"/><rect class="cls-14" x="1007.6" y="707.3" width="654.4" height="28.61"/><path class="cls-15" d="M1383.1,707.3c-.3,2.1-.8,4.2-1.3,6.3a90,90,0,0,1-9.9,22.3H1281a35.7,35.7,0,0,1,2.6-15.1,61.7,61.7,0,0,1,7.6-13.5Z"/><rect class="cls-14" x="1031.6" y="651.9" width="606.4" height="20.29"/><rect class="cls-14" x="1031.6" y="611.1" width="606.4" height="20.29"/><rect class="cls-14" x="1031.6" y="569" width="606.4" height="20.29"/><path class="cls-15" d="M1481.5,569a66.9,66.9,0,0,1-2,7.7,45.5,45.5,0,0,1-7.2,12.6h-21c1.7-7.2,5.1-14.8,6.5-18.1l1-2.2Z"/><rect class="cls-14" x="1073.9" y="719.6" width="22.4" height="131.74"/><rect class="cls-14" x="1030.2" y="628.6" width="173.6" height="22.37" transform="translate(1756.7 -477.2) rotate(90)"/><rect class="cls-14" x="1458.3" y="628.6" width="173.6" height="22.37" transform="translate(2184.8 -905.3) rotate(90)"/><rect class="cls-14" x="1573.4" y="719.6" width="22.4" height="131.74"/><rect class="cls-15" x="1073.9" y="735.9" width="22.4" height="21.01"/><rect class="cls-15" x="1573.4" y="735.9" width="22.4" height="21.01"/><path class="cls-16" d="M1311.1,512.5c-43.3-80.1-1.8-166.1-3.5-174.5"/><polyline class="cls-17" points="1308.1 335.3 1300.3 318.6 1304.9 309.3"/><polyline class="cls-17" points="1308.6 335.5 1326.5 331.4 1331.1 322.1"/><circle class="cls-18" cx="1307.5" cy="337" r="12.9"/><circle class="cls-19" cx="1307.5" cy="337" r="6.7"/><polyline class="cls-16" points="1332.2 702.7 1304.1 770.3 1301.2 835"/><circle class="cls-18" cx="1304.2" cy="769.8" r="12.9"/><circle class="cls-19" cx="1304.2" cy="769.8" r="6.7"/><path class="cls-19" d="M1283.6,824.2h35.4a0,0,0,0,1,0,0v4a17.7,17.7,0,0,1-17.7,17.7h0a17.7,17.7,0,0,1-17.7-17.7v-4a0,0,0,0,1,0,0Z" transform="translate(2681.2 1532.4) rotate(174.1)"/><polyline class="cls-16" points="1296 690.3 1267.8 757.4 1264.1 813.1"/><path class="cls-19" d="M1244.4,804.9h35.4a0,0,0,0,1,0,0v4a17.7,17.7,0,0,1-17.7,17.7h0a17.7,17.7,0,0,1-17.7-17.7v-4a0,0,0,0,1,0,0Z" transform="translate(2452.8 1732.5) rotate(-175.3)"/><circle class="cls-18" cx="1267.8" cy="757.4" r="12.9"/><circle class="cls-19" cx="1267.8" cy="757.4" r="6.7"/><path class="cls-20" d="M1281.6,641.2l59.4,25-35.4,54.2a12.8,12.8,0,0,1-15.9,4.9l-15.7-6.6a13,13,0,0,1-7.7-15.1Z"/><path class="cls-21" d="M1317.6,653.6l59.6,24.8L1341.8,733a12.8,12.8,0,0,1-15.6,4.8l-16.2-6.7a12.9,12.9,0,0,1-7.5-14.8Z"/><circle class="cls-18" cx="1315.1" cy="519.1" r="12.9"/><circle class="cls-19" cx="1315.1" cy="519.1" r="6.7"/><path class="cls-21" d="M1422.7,631.2c-.1,2.3-.2,4.7-.5,6.9a80.8,80.8,0,0,1-51.9,65.8c-23.8,9.1-50.5,8.3-72.3-1.5a77.6,77.6,0,0,1-24-16.8c-49.8-51.8,16.1-130.8,28.3-183.4,8.9-38.4,15.6-90.7,14.8-130.4-.1-5.1-.3-8.7-.3-11.8h0c-.1-6.9.8-10.7,6.1-21.4,6-12.5,16.9-19.2,30.9-16.4,16.3,3.3,23.4,16.1,26.5,30.3a88.4,88.4,0,0,1,1.8,14.5c.1,1.3.2,2.7.2,4,.2,8.1.4,16.3.5,24.6.4,24.6,1,49.5,4.9,73.3,3.4,20.7,8.9,41,14.4,61.2,1.4,5.5,3,11,4.6,16.5a21.7,21.7,0,0,1,.7,2.4C1415.3,575.7,1423.8,603.2,1422.7,631.2Z"/><path class="cls-20" d="M1422.2,638.1a80.8,80.8,0,0,1-51.9,65.8c-23.8,9.1-50.5,8.3-72.3-1.5,21.7,3.6,45.4-1.4,65.3-11.7a86.2,86.2,0,0,0,21.5-15.4c12.3-12.9,18.2-30.9,19.5-48.7,2.5-36-11.8-71.4-17.5-106.8-6.7-40.7-10.3-83.2-4-124.2.4,24.6,1,49.5,4.9,73.3,3.4,20.7,8.9,41,14.4,61.2,1.4,5.5,3,11,4.6,16.5a21.7,21.7,0,0,1,.7,2.4C1415.7,577.7,1422.2,608,1422.2,638.1Z"/><path class="cls-22" d="M1303.9,281.3c-1.3,5.3-1.4,10.3,2,15.5s9.5,8.4,15.6,5.8,7-7,8.6-11.6a58,58,0,0,0,3-14.2c.3-3.7.1-7.6-2.4-10.4s-8.1-4-12.5-2.8C1310.3,266,1305.6,274.7,1303.9,281.3Z"/><path class="cls-19" d="M1308.4,282.4c-1.4,5.4-1.4,10.5,2,15.8s9.8,8.6,16.1,5.9,7.1-7.1,8.8-11.7a62.4,62.4,0,0,0,3-14.5c.3-3.9.1-7.9-2.4-10.7s-8.4-4.1-12.9-2.8C1314.8,266.7,1310.1,275.7,1308.4,282.4Z"/><path class="cls-20" d="M1307.7,274a51.7,51.7,0,0,1,1.2-17.1,31.1,31.1,0,0,1,5.4-12c2-2.8,4.8-8.1,9-6.9s4.5,9.8,4,13.6a88,88,0,0,0-.2,19.2c.8,8.1,4.2,15.8,5,23.8a3.8,3.8,0,0,1-.2,2.1c-2.4,6.7-12-.9-15.1-3.8C1311.3,287.9,1308.5,281.2,1307.7,274Z"/><path class="cls-21" d="M1306.8,322.8l1.4-2.1,4.6-7.5c-1.5,0-2.6-1.5-2.8-3a9.7,9.7,0,0,1,.9-4.4c2.6-6.1,5.9-12.1,7.8-18.5s3.8-12.2,7.4-17.1a20.6,20.6,0,0,1,8-6.3c4-1.8,8-1.7,12.2-2,7.8-.5,16.7,1.9,21.4,8.3s6.3,13.1,9.3,19.8,7.4,14.4,11.5,21.4a15,15,0,0,1,1.8,4.1,4.3,4.3,0,0,1-1.3,4.1,2.7,2.7,0,0,1-3.9-.8,46.5,46.5,0,0,1,6.5,19.5c.2,2.4.3,5.9-2.6,6.7a6.9,6.9,0,0,1-4.2-.7,10.6,10.6,0,0,1-.1,4.7c-.5,1.5-2.1,2.8-3.6,2.5a10,10,0,0,1-6.1,10.2,54.6,54.6,0,0,1-13.6,4.6c-2.5.5-4.9.8-7.4,1.1a41.7,41.7,0,0,1-7.1.7c-13.2-1.1-28.3-2.3-36.9-13.4a18.9,18.9,0,0,1-3.2-7.9c-.2-1.2-.8-8.3.8-8.8a3.6,3.6,0,0,1-4-1.9,7.5,7.5,0,0,1-.4-4.7A27.1,27.1,0,0,1,1306.8,322.8Z"/><path class="cls-21" d="M1352.3,249.3c-4.7-3.3-10.6-7-16.6-6.7-2.3.1-5,1.2-5.6,3.6s2.3,5.5,5,7.1c-3.2-.9-6.6-1.9-9.9-.9s-6.7,6-3.3,9.1,8.8,4.7,13.3,6.2a236,236,0,0,1,26.7,10.7c3.8,1.8,8,4.2,9,8.4-.8-3.5,1.3-6.7.1-10.3s-2.9-7.2-3.8-11.1-1.3-7.7-3-11.2a17.9,17.9,0,0,0-5.8-6.7,6,6,0,0,0-4-1.3C1353,246.5,1351.7,248,1352.3,249.3Z"/><path class="cls-21" d="M1394,273c.9-11.3-3.6-22.7-11-31.9-1.8-2.4-4.8-4.9-7.9-4-5.6,1.6-4.4,9.7-4,13.5a83.1,83.1,0,0,1,.2,19.3c-.8,8.1-4.1,15.8-5,23.7a4.9,4.9,0,0,0,.2,2.1c.6,1.8,3,2.6,5.1,2.6a18,18,0,0,0,9-2.8A27.9,27.9,0,0,0,1394,273Z"/><path class="cls-19" d="M1377.4,284.4a3.4,3.4,0,0,0,2.8.3,6.1,6.1,0,0,0,2.4-1.5,17.1,17.1,0,0,0,5.5-10.7,31.8,31.8,0,0,0-1.2-11.5c-.9-3.3-2.2-7.8-5.1-9.9-1.1-.7-2.8-.9-3.7.1s-.7,2.4-.6,3.6.2,3.5.2,5.2a92.3,92.3,0,0,1-.5,10.5c-.3,2.8-1.3,5.6-1.5,8.4S1375.8,283.4,1377.4,284.4Z"/><path class="cls-18" d="M1320.3,330.7a62.4,62.4,0,0,1,2-6.9c2.7-8.4,8.1-23.3,18.8-23.3,6.5.1,11.9,5.7,14.7,12.1.7,1.7,1.5,3.3,2.2,4.9,2.7,6.4,9.8,24.8-2,26.5a9,9,0,0,0-1.6.3,9.4,9.4,0,0,0-1,1,16,16,0,0,1-12.5,6.3,16.7,16.7,0,0,1-12.1-6.3,4.1,4.1,0,0,0-.9-1,8.6,8.6,0,0,0-1.7-.3,7.6,7.6,0,0,1-5.9-5.3A15.5,15.5,0,0,1,1320.3,330.7Z"/><path class="cls-19" d="M1340.5,325.6c-.4.4-.7-.4-.7-.8a7.3,7.3,0,0,1,1.1-4.3,10.5,10.5,0,0,1,6.5-5.4c1.4-.4,3.6-.9,4.9-.1s0,3.7-1.4,4.5a11.9,11.9,0,0,1-4.3,1.2,5.6,5.6,0,0,0-2.5.5c-1.7.8-2.3,3-3.5,4.4Z"/><path class="cls-19" d="M1339.8,325.6c.4.4.7-.4.7-.8a7.3,7.3,0,0,0-1.1-4.3,10.5,10.5,0,0,0-6.5-5.4c-1.4-.4-3.6-.9-4.9-.1s.1,3.7,1.4,4.5a12.5,12.5,0,0,0,4.3,1.2,5.3,5.3,0,0,1,2.5.5c1.7.8,2.3,3,3.6,4.4Z"/><path class="cls-23" d="M1340.5,323.8c-.4,7-.2,4.5-.3,11.7"/><path class="cls-23" d="M1340.2,334.3c0,1.1,0,2.5-.8,3.2a4.6,4.6,0,0,1-3.2.7,10,10,0,0,1-6.6-3.3"/><path class="cls-23" d="M1340.2,334.3c0,1.1,0,2.5.9,3.2a4.2,4.2,0,0,0,3.1.7,9.6,9.6,0,0,0,6.6-3.3"/><path class="cls-19" d="M1331.9,336.6a9.4,9.4,0,0,0,12.2,3.3c2.1-1,3.7-2.9,5.7-4a25,25,0,0,1-4.8,1.8,7.4,7.4,0,0,1-2.6.3,2.8,2.8,0,0,1-2.1-1.4,4.6,4.6,0,0,1-4.2,1.4A9.1,9.1,0,0,1,1331.9,336.6Z"/><path class="cls-23" d="M1355.6,362.7c-10.9,5.8-22.1,4.7-31.5-1"/><path class="cls-23" d="M1352.8,300.2a5.1,5.1,0,0,0,10.1-.3"/><path class="cls-23" d="M1323,300.2a5.1,5.1,0,0,0,4.7,4.1,5.3,5.3,0,0,0,5.4-4.4"/><path class="cls-16" d="M1447.4,597.2c2.7-6.3,24.1-31.3,17.9-34.2-25.8-11.8-51.1-21.1-75.4-35.8"/><circle class="cls-18" cx="1388.5" cy="529.3" r="12.9"/><circle class="cls-19" cx="1388.5" cy="529.3" r="6.7"/><polyline class="cls-17" points="1444.6 603.9 1460.8 612.6 1462.7 622.8"/><polyline class="cls-17" points="1444 604 1432.1 618 1434 628.2"/><circle class="cls-18" cx="1444" cy="602.1" r="12.9"/><circle class="cls-19" cx="1444" cy="602.1" r="6.7"/><path class="cls-19" d="M1324.4,268.9a21.5,21.5,0,0,1,14.6-15.1c8.2-2.7,16.8-.7,23.6,4.1,3.6,2.4,12,8.3,6.7,12.7s-9-1.5-12.3-3.7c-8.9-6.1-25.9-7.1-33.1,6.7A18.3,18.3,0,0,1,1324.4,268.9Z"/><path class="cls-19" d="M1394.8,281.6c1.4,5.4,1.4,10.6-2,15.9s-9.8,8.5-16.1,5.9c-4.8-2.1-7.2-7.1-8.8-11.8a60.3,60.3,0,0,1-3-14.5c-.3-3.8-.1-7.8,2.4-10.7s8.4-4.1,12.9-2.8C1388.4,266,1393.1,274.9,1394.8,281.6Z"/><path class="cls-22" d="M1380.3,261.3a13,13,0,0,1,11.7,5.8c3.9,6,5.8,13.5,6.9,20.3a13,13,0,0,1-6.3,13.2c-8.6,4.9-15.4-.4-18.9-10.8a68.3,68.3,0,0,1-3.3-13.7,21.2,21.2,0,0,1,.3-8,9.8,9.8,0,0,1,6.7-6.4A13.5,13.5,0,0,1,1380.3,261.3Z"/><path class="cls-10" d="M1384.1,291.7a9.2,9.2,0,0,1-2.9-3.5,23.2,23.2,0,0,1-2.6-11.8c.1-3.1,2.4-8.8,6.7-7.6s6.2,5.7,7.2,8.7,2.8,12.5-2.6,14.7A5.4,5.4,0,0,1,1384.1,291.7Z"/><path class="cls-11" d="M1381.8,525.7a92,92,0,0,0-3,34.6,97.7,97.7,0,0,0,10.9,36.4c-18.9-.5-36.1,8.1-54.8,11.4-9.5-16.5-6.5-37.6.5-55.5s17.4-34.2,22.7-52.6a99.8,99.8,0,0,0-2.9-61.8,95.8,95.8,0,0,0-13.6-24.4l29.5-.3c20.1,22.8,27.7,56,19.6,85.3C1388.2,507.9,1384.3,516.6,1381.8,525.7Z"/><path class="cls-12" d="M1390.7,498.8c-2.5,9.1-6.4,17.8-8.9,26.9a92,92,0,0,0-3,34.6,62.7,62.7,0,0,1-2.8-14.2c-1.3-15.6,2.4-31.1,6.9-46.1,2.2-7.3,4.6-14.6,5.4-22.2,1.4-14.7-4-29.8-13.7-41-3.2-3.7-7.8-7.3-12.7-6.1s-5.7,3.9-6.7,7.5a95.8,95.8,0,0,0-13.6-24.4l29.5-.3C1391.2,436.3,1398.8,469.5,1390.7,498.8Z"/><path class="cls-11" d="M1388.3,418.3c-3.8,6.9-11.8,5.1-18.2,4.4-14.2-1.5-27.2,1-41,2.6l-7.2.7c-4.1.3-9.1-.1-11.2-3.6s-1.2-5.4-.8-8.2c1.1-7.5,2.1-15,3.2-22.5a9.9,9.9,0,0,1,1.4-4.5c1.3-1.9,3.6-2.7,5.8-3,5.6-.9,11.2.4,16.8,1.4a183.9,183.9,0,0,0,39.2,2.8l4.8-.2a7.6,7.6,0,0,1,3.7.3c1.7.8,2.6,2.8,3.1,4.7C1390.1,400.2,1392.1,411.5,1388.3,418.3Z"/><path class="cls-12" d="M1388.3,418.3c-3.8,6.9-11.8,5.1-18.2,4.4-14.2-1.5-27.2,1-41,2.6l2.3-1.2a76.8,76.8,0,0,1,10.9-3.4c7.2-1.6,14.6-1.4,21.9-2.6,5.4-.9,11.1-3.4,13.6-8.3a17,17,0,0,0,1.6-5.3c.7-5.3-.9-10.7-2.9-15.6-.1-.1-.1-.3-.2-.5l4.8-.2a7.6,7.6,0,0,1,3.7.3c1.7.8,2.6,2.8,3.1,4.7C1390.1,400.2,1392.1,411.5,1388.3,418.3Z"/><ellipse class="cls-19" cx="1424.8" cy="341.4" rx="7.5" ry="4.9" transform="translate(-40.1 365.6) rotate(-14.4)"/><line class="cls-23" x1="1431.6" y1="340.3" x2="1431.6" y2="304.9"/><ellipse class="cls-19" cx="1590.7" cy="326.7" rx="7.5" ry="4.9" transform="translate(-31.2 406.4) rotate(-14.4)"/><line class="cls-23" x1="1597.5" y1="325.6" x2="1597.5" y2="290.2"/><ellipse class="cls-19" cx="1516.2" cy="407" rx="7.5" ry="4.9" transform="translate(-53.6 390.4) rotate(-14.4)"/><path class="cls-23" d="M1523,405.9V370.5a7.9,7.9,0,0,0,1.6,3c1,1,2.4,1.4,3.5,2.3a4.6,4.6,0,0,1,1.5,3.7"/><ellipse class="cls-19" cx="1713.8" cy="345.2" rx="7.5" ry="4.9" transform="translate(-32 437.7) rotate(-14.4)"/><path class="cls-23" d="M1720.6,344.2V308.8a11.1,11.1,0,0,0,1.7,3c.9,1,2.4,1.3,3.4,2.2a4.1,4.1,0,0,1,1.5,3.7"/><ellipse class="cls-19" cx="1499.9" cy="330.6" rx="7.5" ry="4.9" transform="matrix(0.97, -0.25, 0.25, 0.97, -35.08, 383.96)"/><ellipse class="cls-19" cx="1528" cy="330.3" rx="7.5" ry="4.9" transform="translate(-34.4 383) rotate(-14.1)"/><polyline class="cls-23" points="1534.8 329.3 1534.8 294.2 1506.7 294.2 1506.7 329.6"/><ellipse class="cls-19" cx="1628.2" cy="257.3" rx="7.5" ry="4.9" transform="translate(-12.8 413.6) rotate(-14.4)"/><ellipse class="cls-19" cx="1656.2" cy="257" rx="7.5" ry="4.9" transform="translate(-12.6 412.1) rotate(-14.1)"/><polyline class="cls-23" points="1663 255.9 1663 220.8 1635 220.8 1635 256.2"/><line class="cls-23" x1="1663" y1="226.1" x2="1635" y2="226.1"/><path class="cls-23" d="M1404.8,316.2c17.2,12.9,36.7,23.2,57.8,27.2s43.9,1.3,62.2-10,30.6-29.6,48-41.7a84.9,84.9,0,0,1,54.9-14.7,83.9,83.9,0,0,1,51.7,23.5"/><path class="cls-23" d="M1466.8,366.5c30.3,8.4,64.4,1.5,89.1-18,10.4-8.3,19.2-18.5,29.5-26.9a57,57,0,0,1,16.2-9.8c15.9-5.9,33.7-1.2,49,6"/><path class="cls-23" d="M1425.3,355.5a30.3,30.3,0,0,0,11.5,4.6"/><path class="cls-13" d="M1696.6,473a12.8,12.8,0,0,0-23.8-3.8c-1.9-12.4-5.9-24.8-14.1-34.2s-21.1-13.7-33.5-12.4c-15.7,1.8-37.3,13.9-36.8,44.9a14.7,14.7,0,0,0-26.3,11c-5.1-4-13.4-1.2-14.2,5.4h164.3C1714.6,472.5,1703.6,468.2,1696.6,473Z"/><path class="cls-22" d="M1532.5,209.3a9.4,9.4,0,0,0-11.1,4,11.5,11.5,0,0,0-21.7-6.3c-1.3-8.7-5.3-17.5-12.5-22.6s-18.4-6.4-25.8-.5c-4,3.1-6.4,7.4-8.2,12.2a42,42,0,0,0-1.3,21.4,8.1,8.1,0,0,0-8.2-3.5c-3.1.6-7,3.1-6.3,7.8h100.1C1540,215.6,1536.5,210.8,1532.5,209.3Z"/><path class="cls-11" d="M953.5,609.7a48.4,48.4,0,0,1-14.1,9.2c2.7-4.7,5-17.3,1.3-25.7-4.6,4.1-9.9,9.7-11.7,13.4-4.5-8.4-8.5-12.7-16.2-19.9-2.1,8.1-2.3,19,2.7,27.6-2.3-.4-11.2-.4-17.8,3.4,4.5,6.7,12.2,10.6,21.5,12a37.2,37.2,0,0,0-15.9,8.5c6.4,2.3,10.7,3.8,17.8,2.4,3.9-.8,11.7-3.5,12.3-5.3,5.9-1.3,12.6-3.7,16.9-8.3C952.4,624.7,956,616.1,953.5,609.7Z"/><path class="cls-23" d="M922,608.7c6.9,17.6,9.2,22.5,18.1,39.1"/><path class="cls-23" d="M924,626.5a30.9,30.9,0,0,0,5.9,1.8"/><path class="cls-23" d="M932.2,632.7a20.1,20.1,0,0,0,4.6-4.1"/><path class="cls-11" d="M1453.7,423.7a31.1,31.1,0,0,0-22.2-4.8,44.4,44.4,0,0,0,13.7,12.9,66.9,66.9,0,0,0-22.5,14.5,66.7,66.7,0,0,0,26.7-.3,44.6,44.6,0,0,0-4.3,18.3,30.7,30.7,0,0,0,15.9-16.2c1.4,5.1,2.9,10.1,4.7,15.1,3.7-6.5,9.3-18.1,2.7-29.6h0c-2.3-14.8-12.4-21.6-19.1-25C1450.6,413.7,1452.1,418.7,1453.7,423.7Z"/><path class="cls-23" d="M1478.8,429.7a355.6,355.6,0,0,1-39.1,12.5"/><path class="cls-23" d="M1460.3,440.2a36.6,36.6,0,0,0,1.8-4.6"/><path class="cls-23" d="M1457.2,437a28.2,28.2,0,0,1-3.8-2.1"/><path class="cls-11" d="M1170.8,767.1a34.3,34.3,0,0,0,19.9-12.1,82.1,82.1,0,0,0-16.9-3.6,51.9,51.9,0,0,0,6.7-21.1c-6,1.8-13.6,6.4-18.8,11.6a89.1,89.1,0,0,0-7.6-15.5,34.1,34.1,0,0,0-6.9,22.2,77.6,77.6,0,0,0-11.7-7.1,44.9,44.9,0,0,0,45.1,35.2A74.1,74.1,0,0,0,1170.8,767.1Z"/><path class="cls-23" d="M1144.2,777c8.2-9.8,18.9-23.8,26.5-34.1"/><path class="cls-23" d="M1152.2,758.2a13,13,0,0,0,1.4,6.8"/><path class="cls-23" d="M1158.4,759.2a7.8,7.8,0,0,0,5.8-1.4"/><path class="cls-11" d="M1650.3,675.4a33.6,33.6,0,0,0-2.3-22.9,85.9,85.9,0,0,0-10.4,13.6,48.6,48.6,0,0,0-15.9-14.9c-.9,6,0,14.7,2.4,21.6a81.5,81.5,0,0,0-17.1.2,34.2,34.2,0,0,0,16.9,15.6,70.9,70.9,0,0,0-11.3,7.4,34.8,34.8,0,0,0,29.7-3.5c11.4-4.2,18.5-14,20.7-21.7A74.3,74.3,0,0,0,1650.3,675.4Z"/><path class="cls-23" d="M1647.9,703.3c-5.3-11.5-13.2-27-19.2-38.1"/><path class="cls-23" d="M1634.5,688.2a12.2,12.2,0,0,0,6.6,1.6"/><path class="cls-23" d="M1638,683.1a7.6,7.6,0,0,0,1.2-5.8"/></g></svg>