<svg xmlns="http://www.w3.org/2000/svg" xmlns:xlink="http://www.w3.org/1999/xlink" viewBox="0 0 1920 1080"><defs><style>.cls-1,.cls-14,.cls-19,.cls-20{fill:none;}.cls-2{fill:#250d45;}.cls-3{clip-path:url(#clip-path);}.cls-4{fill:#fff;}.cls-5,.cls-8{fill:#973bfc;}.cls-6,.cls-7{fill:#a0a0a0;}.cls-6{fill-rule:evenodd;}.cls-8{font-size:80px;font-family:Monosten-Regular, Monosten;}.cls-9{fill:#cba6ff;}.cls-10{fill:#a880e0;}.cls-11{fill:#e6d4ff;}.cls-12{fill:#fffefd;}.cls-13{fill:#fd3736;}.cls-14,.cls-19,.cls-20{stroke:#260d46;stroke-linecap:round;stroke-linejoin:round;}.cls-14{stroke-width:17px;}.cls-15{fill:#e8d7ff;}.cls-16{fill:#260d46;}.cls-17{fill:#6b1fbf;}.cls-18{fill:#c42a2a;}.cls-19{stroke-width:2px;}.cls-20{stroke-width:7px;}</style><clipPath id="clip-path"><rect class="cls-1" x="77.5" y="65.8" width="353.3" height="91.34"/></clipPath></defs><g id="December"><rect class="cls-2" width="1920" height="1080"/><g class="cls-3"><g class="cls-3"><path class="cls-4" d="M201.1,89.8a2.2,2.2,0,0,1,4.4-.4.3.3,0,0,1,0,.4v.5a5.3,5.3,0,0,1,1.6-2.3,5.1,5.1,0,0,1,3.1-1.1c3,0,4.9,1.2,5.5,3.5a5,5,0,0,1,1.9-2.4,6,6,0,0,1,3.4-1.1c4.1,0,6.1,2.6,6.1,6.6v15.9a2.2,2.2,0,0,1-2,2.4,2.1,2.1,0,0,1-2.3-2c-.1-.2-.1-.3,0-.4V94.8c0-2.8-.9-4-2.8-4s-3.7,2.2-3.7,6.6v12a2.2,2.2,0,0,1-2,2.4,2.1,2.1,0,0,1-2.3-2c-.1-.2-.1-.3,0-.4V94.8c0-2.8-.8-4-2.8-4s-3.7,2.4-3.7,7.2v11.4a2.1,2.1,0,0,1-1.9,2.4,2.3,2.3,0,0,1-2.5-2v-20Z"/><path class="cls-4" d="M254.4,104.6a2.5,2.5,0,0,0-1.8.8c-1.7,2-4.1,3-7.3,3a7.1,7.1,0,0,1-5.1-2.1,9.1,9.1,0,0,1-2.4-4.9h16.8a2.3,2.3,0,0,0,2.5-2.1v-.4a11.7,11.7,0,0,0-3.3-8.5,10.9,10.9,0,0,0-8.5-3.4,11.5,11.5,0,0,0-8.8,3.6,14.2,14.2,0,0,0,0,18,11.5,11.5,0,0,0,8.8,3.6c4.3,0,7.8-1.2,10.4-3.7a2.3,2.3,0,0,0,.2-3.2h0a1.9,1.9,0,0,0-1.5-.8ZM240.3,92.8a7.4,7.4,0,0,1,5-2,6.3,6.3,0,0,1,4.7,1.9,9.7,9.7,0,0,1,2.5,4.8H237.8a8.3,8.3,0,0,1,2.5-4.7"/><path class="cls-4" d="M270.6,77.2a2.2,2.2,0,0,1,2.2,2.4v7.8h8.8c1.5,0,2.3.7,2.3,2s-.8,1.9-2.3,1.9h-8.8V104c0,3,1.6,4.3,3.8,4.3a5.6,5.6,0,0,0,3.3-.8l1.4-1a2.1,2.1,0,0,1,1.3-.5,2,2,0,0,1,2,2h0a2.9,2.9,0,0,1-1.4,2.1,11.2,11.2,0,0,1-6.9,2,8.5,8.5,0,0,1-5.7-1.9c-1.4-1.2-2.2-3.2-2.2-5.9V91.3h-6.3c-1.5,0-2.3-.6-2.3-1.9s.8-1.9,2.3-1.9h6.3V79.6a2.2,2.2,0,0,1,2.1-2.4Z"/><path class="cls-4" d="M310.3,87.4c-1.2,0-2.1,1-2.2,2.6a6.8,6.8,0,0,0-3-2.3,9.9,9.9,0,0,0-3.8-.7,10.2,10.2,0,0,0-8.4,3.7,14.7,14.7,0,0,0,0,17.8,10.1,10.1,0,0,0,8.4,3.7,10.7,10.7,0,0,0,3.9-.7,7.3,7.3,0,0,0,2.9-2.3c.1,1.6,1,2.6,2.2,2.6a2.4,2.4,0,0,0,2.4-2.2V89.9a2.3,2.3,0,0,0-2.1-2.5h-.3m-4,18.5a6.5,6.5,0,0,1-9.2,1l-.9-1a10.9,10.9,0,0,1,0-12.6,6.5,6.5,0,0,1,9.1-1.1,5.2,5.2,0,0,1,1,1.1,9.4,9.4,0,0,1,1.9,6.3,9.4,9.4,0,0,1-1.9,6.3"/><path class="cls-5" d="M328.9,107.9V81.6h-5.5c-1.3,0-2.4-.7-2.4-1.9s1.1-1.9,2.4-1.9H331a2,2,0,0,1,2.2,1.9v28.2h7.1c1.3,0,2.4.7,2.4,1.9s-1.1,2-2.4,2H321.8c-1.4,0-2.4-.8-2.4-2s1-1.9,2.4-1.9h7.1Z"/><path class="cls-5" d="M365.5,87.4c-1.2,0-2.1,1-2.2,2.6a6.5,6.5,0,0,0-2.9-2.3,10.7,10.7,0,0,0-3.9-.7,10,10,0,0,0-8.3,3.7,14.5,14.5,0,0,0-.1,17.8,11.3,11.3,0,0,0,12.3,3,7.6,7.6,0,0,0,3-2.3c.1,1.6.9,2.6,2.2,2.6a2.3,2.3,0,0,0,2.3-2.2V89.9a2.3,2.3,0,0,0-2-2.5h-.4m-4,18.5a6.4,6.4,0,0,1-9.1,1l-1-1a9.4,9.4,0,0,1-1.9-6.3,9.4,9.4,0,0,1,1.9-6.3,6.5,6.5,0,0,1,9.1-1.1,5.2,5.2,0,0,1,1,1.1,10.9,10.9,0,0,1,0,12.6"/><path class="cls-5" d="M375.5,89.8a2.2,2.2,0,0,1,4.4-.4v.9a4.1,4.1,0,0,1,1.6-2.3,4.6,4.6,0,0,1,3-1.1c3.1,0,4.9,1.2,5.6,3.5a4.8,4.8,0,0,1,1.8-2.4,6,6,0,0,1,3.4-1.1c4.1,0,6.2,2.6,6.2,6.6v15.9a2.3,2.3,0,0,1-2,2.4,2.2,2.2,0,0,1-2.4-2v-15c0-2.8-.9-4-2.8-4s-3.6,2.2-3.6,6.6v12a2.3,2.3,0,0,1-2,2.4,2.2,2.2,0,0,1-2.4-2v-15c0-2.8-.8-4-2.8-4s-3.6,2.4-3.6,7.2v11.4a2.2,2.2,0,1,1-4.4.4v-20Z"/><path class="cls-5" d="M428.4,87.4c-1.2,0-2.1,1-2.2,2.6a6.8,6.8,0,0,0-3-2.3,9.9,9.9,0,0,0-3.8-.7,10,10,0,0,0-8.3,3.7,13.3,13.3,0,0,0-3.1,8.9,13.7,13.7,0,0,0,3,8.9,10.1,10.1,0,0,0,8.4,3.7,9.9,9.9,0,0,0,3.8-.7,6.9,6.9,0,0,0,3-2.3c.1,1.6,1,2.6,2.2,2.6a2.2,2.2,0,0,0,2.3-2.2V89.9a2.3,2.3,0,0,0-2-2.5h-.3m-4,18.5a6.5,6.5,0,0,1-9.2,1,4.3,4.3,0,0,1-.9-1,10.9,10.9,0,0,1,0-12.6,6.5,6.5,0,0,1,9.1-1.1l1,1.1a9.4,9.4,0,0,1,1.9,6.3,9.4,9.4,0,0,1-1.9,6.3"/><path class="cls-6" d="M427.8,148a6.8,6.8,0,0,1-5.6,2.3,8.6,8.6,0,0,1-2.7-.5,3.4,3.4,0,0,1-1.8-1.5v6.4a1.4,1.4,0,0,1-1.4,1.5,1.4,1.4,0,0,1-1.5-1.5V135.9a1.4,1.4,0,0,1,1.5-1.5,1.5,1.5,0,0,1,1.4,1.5,3.5,3.5,0,0,1,1.9-1.4,7.7,7.7,0,0,1,2.7-.4,7.2,7.2,0,0,1,5.5,2.1,9.4,9.4,0,0,1,1.9,6,9,9,0,0,1-1.9,5.8m-2.1-9.9a4.1,4.1,0,0,0-3.4-1.6,3.9,3.9,0,0,0-3.4,1.6,6.5,6.5,0,0,0-1.2,4.1,6.3,6.3,0,0,0,1.2,4.1,4.6,4.6,0,0,0,6.8,0,6.3,6.3,0,0,0,1.2-4.1,6.5,6.5,0,0,0-1.2-4.1m-14.8,1.2a1.3,1.3,0,0,1-1.2-.9,3.1,3.1,0,0,0-2.9-1.8,4,4,0,0,0-3.6,1.8,7.8,7.8,0,0,0-1.2,4.4v5.6a1.4,1.4,0,0,1-1.4,1.6,1.4,1.4,0,0,1-1.5-1.6V136a1.5,1.5,0,0,1,1.5-1.6A1.5,1.5,0,0,1,402,136v.7a4.7,4.7,0,0,1,1.9-1.8,6,6,0,0,1,2.9-.8c2.7,0,4.5,1,5.6,2.9a2.2,2.2,0,0,1,.1.8,1.6,1.6,0,0,1-1.6,1.5m-17.8,10.6a1.4,1.4,0,0,1-1.4-1.6,4.8,4.8,0,0,1-2,1.4,6.6,6.6,0,0,1-2.7.6,6.8,6.8,0,0,1-5.5-2.4,8.1,8.1,0,0,1-2-5.7,8.8,8.8,0,0,1,2-5.7,7.1,7.1,0,0,1,5.6-2.4,8,8,0,0,1,2.6.5,4.8,4.8,0,0,1,2,1.4,1.4,1.4,0,0,1,1.4-1.6,1.4,1.4,0,0,1,1.5,1.5v12.5a1.4,1.4,0,0,1-1.5,1.5m-2.7-11.8a4.1,4.1,0,0,0-3.4-1.6,4.4,4.4,0,0,0-3.4,1.6,7.6,7.6,0,0,0,0,8.2,4.3,4.3,0,0,0,3.4,1.5,4.1,4.1,0,0,0,3.4-1.5,7.1,7.1,0,0,0,0-8.2M375.7,150a1.4,1.4,0,0,1-1.5-1.5v-7.8a5.4,5.4,0,0,0-.7-3.2,3.1,3.1,0,0,0-2.5-1,3.9,3.9,0,0,0-3.3,1.7,7.4,7.4,0,0,0-1.2,4.4v5.8A1.5,1.5,0,0,1,365,150a1.3,1.3,0,0,1-1.4-1.5V129.7a1.4,1.4,0,0,1,1.4-1.6,1.5,1.5,0,0,1,1.4,1.6v6.8a3.5,3.5,0,0,1,1.7-1.7,7.3,7.3,0,0,1,2.9-.7c4.1,0,6.1,2,6.1,6v8.4a1.4,1.4,0,0,1-1.4,1.5Zm-21.6-8.9,1.8.3,1.7.4a3.5,3.5,0,0,1,2.8,3.6,4.4,4.4,0,0,1-2,3.7,8.2,8.2,0,0,1-5,1.3c-3-.1-5.1-1-6.6-2.8a1.4,1.4,0,0,1,1-2.4,1.6,1.6,0,0,1,1.3.7,5.2,5.2,0,0,0,4.3,2c2.7,0,4-.8,4-2.5s-.3-1.1-1.3-1.4l-1.2-.3-1.7-.2-2.3-.4-1.9-.7a3.5,3.5,0,0,1-2-3.4,4.3,4.3,0,0,1,1.8-3.6,8.4,8.4,0,0,1,4.5-1.2c2.7,0,4.7.9,5.9,2.6a1.2,1.2,0,0,1,.3.9,1.4,1.4,0,0,1-1.5,1.4,1.3,1.3,0,0,1-1.2-.7,3.7,3.7,0,0,0-3.5-1.7c-2.1,0-3.4.8-3.4,2.2S351.4,140.7,354.1,141.1Z"/><path class="cls-6" d="M289.4,148a6.7,6.7,0,0,1-5.5,2.3,7.6,7.6,0,0,1-2.7-.5,4.1,4.1,0,0,1-1.9-1.4v6.3a1.3,1.3,0,0,1-1.4,1.5,1.4,1.4,0,0,1-1.4-1.5V135.9a1.4,1.4,0,1,1,2.8,0,4.5,4.5,0,0,1,1.9-1.4,8.4,8.4,0,0,1,2.7-.4,6.8,6.8,0,0,1,5.5,2.2,8,8,0,0,1,2,5.9,8.5,8.5,0,0,1-2,5.8m-2-9.9a4.2,4.2,0,0,0-3.4-1.5,4.1,4.1,0,0,0-3.4,1.5,6.6,6.6,0,0,0-1.2,4.2,6.5,6.5,0,0,0,1.2,4.1,4.1,4.1,0,0,0,3.4,1.5,4.2,4.2,0,0,0,3.4-1.5,6.4,6.4,0,0,0,1.1-4.1,7.2,7.2,0,0,0-1.1-4.2"/><path class="cls-6" d="M307.3,148.1a7.4,7.4,0,0,1-5.6,2.3,7.5,7.5,0,0,1-5.6-2.3,8.3,8.3,0,0,1-2.1-5.8,8.5,8.5,0,0,1,2.1-5.9,7.2,7.2,0,0,1,5.6-2.3,7,7,0,0,1,5.6,2.3,8.6,8.6,0,0,1,2.2,5.9,8.3,8.3,0,0,1-2.2,5.8m-2.1-10a4.3,4.3,0,0,0-3.5-1.5,4.5,4.5,0,0,0-3.5,1.5,6,6,0,0,0-1.3,4.2,5.9,5.9,0,0,0,1.3,4.1,4.5,4.5,0,0,0,3.5,1.5,4.4,4.4,0,0,0,3.5-1.5,6,6,0,0,0,1.4-4.1,6.1,6.1,0,0,0-1.4-4.2"/><path class="cls-6" d="M312.3,147.7a1.8,1.8,0,0,1-.5-1.1,1.5,1.5,0,0,1,1.5-1.4,1.6,1.6,0,0,1,1.3.7,5.2,5.2,0,0,0,4.3,2c2.7,0,4-.8,4-2.4s-.3-1.1-1.3-1.4l-1.2-.3-1.7-.3-2.3-.4-1.9-.7a3.4,3.4,0,0,1-2-3.3,4,4,0,0,1,1.8-3.6,7.7,7.7,0,0,1,4.5-1.3c2.7,0,4.7.9,5.9,2.6a1.4,1.4,0,0,1-1.2,2.3,1.4,1.4,0,0,1-1.2-.6,3.8,3.8,0,0,0-3.5-1.8c-2.1,0-3.4.8-3.4,2.2s1.5,1.8,4.2,2.2l1.9.3,1.6.4a5.3,5.3,0,0,1,1.5.7,3.8,3.8,0,0,1,1.3,2.9,4.2,4.2,0,0,1-1.9,3.7,8.7,8.7,0,0,1-5,1.4c-3-.2-5.2-1.1-6.7-2.8Z"/><path class="cls-6" d="M332.8,129.4a1.4,1.4,0,1,1,2.8,0v5h5.9c1,0,1.5.4,1.5,1.3s-.5,1.3-1.5,1.3h-5.9v8.1c0,1.9,1.1,2.8,2.5,2.8a4,4,0,0,0,2.3-.6l.9-.6.9-.3a1.3,1.3,0,0,1,1.3,1.3,1.7,1.7,0,0,1-.9,1.4,8.6,8.6,0,0,1-4.6,1.3,5.6,5.6,0,0,1-3.8-1.2,4.6,4.6,0,0,1-1.5-3.8v-8.5h-4.2c-1,0-1.5-.4-1.5-1.3s.5-1.2,1.5-1.2h4.2v-5Z"/><path class="cls-7" d="M237.2,150.8a6.8,6.8,0,0,0,5.3-2.1c1.3-1.4,1.9-3.4,1.9-6a8.6,8.6,0,0,0-1.9-5.8,6.5,6.5,0,0,0-5.3-2.3,7.5,7.5,0,0,0-2.6.5,3.5,3.5,0,0,0-1.8,1.5v-6.4a1.5,1.5,0,0,0-1.4-1.6,1.4,1.4,0,0,0-1.4,1.6V149a1.4,1.4,0,0,0,1.4,1.5,1.5,1.5,0,0,0,1.4-1.5,3.7,3.7,0,0,0,1.8,1.4,7.5,7.5,0,0,0,2.6.4m4.4-8.1a7.1,7.1,0,0,1-1.1,4.1,4.4,4.4,0,0,1-6.6,0,8.2,8.2,0,0,1,0-8.2,4.4,4.4,0,0,1,6.6,0,7.1,7.1,0,0,1,1.1,4.1"/><path class="cls-7" d="M250.2,157.1a4.9,4.9,0,0,0,3.9-1.7,21.5,21.5,0,0,0,3.2-5.3l6-13.1a1.8,1.8,0,0,0,.1-.6,1.5,1.5,0,0,0-.9-1.4h-.6a1.5,1.5,0,0,0-1.4.9l-4.6,10.5-4.6-10.5a1.4,1.4,0,0,0-1.4-.9h-.6a1.4,1.4,0,0,0-.7,2l5.7,13v.4a15,15,0,0,1-1.8,3.3,2.9,2.9,0,0,1-2.2.9l-1.5-.3a1.2,1.2,0,0,0-1.2,1.2c0,1.1.9,1.6,2.7,1.6Z"/><path class="cls-5" d="M94.4,123h-16a1,1,0,0,0-1,1v14.1a1,1,0,0,0,1,1H88.7a1,1,0,0,0,.9-.6l5.6-14.2a.9.9,0,0,0-.8-1.3"/><path class="cls-5" d="M149.2,123h-35l9.9-56.1a1,1,0,0,0-1-1.1H109a.8.8,0,0,0-.9.7L104.5,87H84.7a.9.9,0,0,0-.9.9v14.2a.9.9,0,0,0,.9.9h16.9l-9.3,53a1,1,0,0,0,1,1.1h14.1a.9.9,0,0,0,.9-.8l3.1-17.2h20.1l-3,16.9a1,1,0,0,0,1,1.1h14.1a.9.9,0,0,0,.9-.8l5.7-32.2a1,1,0,0,0-.9-1.1"/><path class="cls-5" d="M167.8,123H157a1,1,0,0,0-.9.6l-5.6,14.2a.9.9,0,0,0,.9,1.3h16.4a1,1,0,0,0,1-1V124a.9.9,0,0,0-1-1"/><path class="cls-5" d="M174.2,87H156.7l3.5-20.1a.9.9,0,0,0-.9-1.1H145.2a1,1,0,0,0-1,.7L140.7,87H127.1a1,1,0,0,0-.9.6l-5.6,14.1a1,1,0,0,0,.9,1.3h16.3l-2.3,13.2a.9.9,0,0,0,.7,1.1l13.6,3.1a.9.9,0,0,0,1.2-.7l2.9-16.7h20.3a.9.9,0,0,0,.9-.9V87.9a.9.9,0,0,0-.9-.9"/></g></g><text class="cls-8" transform="translate(77.5 512.7)">Status Update<tspan class="cls-4"><tspan x="0" y="95.2">December 2024</tspan></tspan></text><path class="cls-9" d="M920.7,807.4c-63.9-31.4-104-110.5-98.3-180.7,4.4-55.6,35.8-108.4,82.5-138.8,29.4-19.2,65.5-31,85.5-59.7,27.5-39.2,16-85,22-128.4,9.5-68.6,39.5-123.8,88.7-162.2,61.5-48,154.2-58.2,229.5-37.9,53.2,14.3,100.8,48.5,131.9,94s22.8,107.7,75.1,139.6c41.9,25.7,96.3,19.1,141.8,37.7a135.3,135.3,0,0,1,72.9,179.1c-8.9,20.5-22.7,38.5-31.6,58.9-26,59.6,27.4,88,41.4,138.4,5.4,19.7,2,41.1-7,59.4s-23,33.7-38.8,46.4"/><polygon class="cls-10" points="1026.9 821.8 1090.2 426 1153.4 821.8 1026.9 821.8"/><polygon class="cls-10" points="1207.6 821.8 1286.9 462.9 1366.2 821.8 1207.6 821.8"/><polygon class="cls-10" points="1100.1 821.8 1163.3 577.5 1226.5 821.8 1100.1 821.8"/><polygon class="cls-10" points="917.5 821.8 964.4 626.9 1011.4 821.8 917.5 821.8"/><polygon class="cls-10" points="1509.6 821.8 1560.3 465.9 1611.1 821.8 1509.6 821.8"/><polygon class="cls-10" points="1632.3 821.8 1676.9 590.5 1721.5 821.8 1632.3 821.8"/><polygon class="cls-10" points="1388.4 821.8 1439.2 568.2 1490.1 821.8 1388.4 821.8"/><path class="cls-11" d="M1754.4,826.6l-4.9-1.3c-17.1-4.1-34-2.9-51.2-4.8-12.1-1.4-17.1-11.6-27.6-15.1-8.6-3-18.6-3.4-28.2-3.7-106.5-3.8-211.7-7.6-318-7.6H1002.1c-23.5-.7-46.6-1.4-70.1-.9-19.5.4-39.2,1.1-58.1,4.6-8.6,1.6-18.3,4.7-20.3,10.8-2.9,8.7,11.5,15.1,23.8,17.8,36.7,7.9,76,9.1,111.8,18.8,6.8,1.8,14.5,7.3,9.4,10.9-1.6,1.1-3.9,1.4-5.9,2.2-7.5,2.6-8.7,10.2-4.7,15.4,16.1,20.9,60.6,26.9,91,29,87.3,6,175.4,4.3,262.7,4.5q45.3.1,90.4-.6c36.1-.6,79.9,6.8,107.2-10.5,31-19.6,77.6-18.4,119.4-20a657.8,657.8,0,0,0,107.4-12.6c7.1-1.4,14.3-3.1,19.6-6.7C1804.4,844.1,1768.7,830.8,1754.4,826.6Z"/><ellipse class="cls-9" cx="1350.9" cy="856.8" rx="139.1" ry="14.8"/><ellipse class="cls-9" cx="1148.5" cy="859.7" rx="104.9" ry="13.8"/><rect class="cls-5" x="1060.7" y="696.9" width="122.1" height="163.81"/><rect class="cls-12" x="1116.5" y="696.9" width="11.6" height="163.81"/><rect class="cls-12" x="1115.9" y="717.8" width="11.6" height="122.07" transform="translate(1900.6 -342.9) rotate(90)"/><path class="cls-12" d="M1097.9,652.6c-5.6-4.9-13.8-7.5-20.6-4.4a7.9,7.9,0,0,0-3.7,3,8.7,8.7,0,0,0-1.1,4.8c0,6.2,2.6,11.9,6.7,17.1,11.3,14.1,33.8,24.5,46.2,31.3C1116.7,687.5,1112.7,665.6,1097.9,652.6Zm-5.1,21.1a41.3,41.3,0,0,1-6.4-11.4c-.7-1.8-1.2-3.9-.1-5.5s3.6-1.9,5.4-1,3,2.4,4.2,4.1c4.4,6.2,15.2,26,20.9,36.1-4.7-3.9-9.4-7.9-14-12A74.8,74.8,0,0,1,1092.8,673.7Z"/><path class="cls-12" d="M1166.9,651.8c-1.8-4-6-6.9-10.2-6.4s-6,2.7-8.4,5.1c-13.6,13.8-20,33.2-25.6,52,3.8-1.4,30.4-17.4,37.7-26.7,2.7-3.4,5.3-7,6.7-11.2S1168.8,655.8,1166.9,651.8Zm-4.9,10.9c-1.3,5.1-5.5,8.8-9.5,12.2s-20.6,16.9-24.7,20.5a212.2,212.2,0,0,1,25.1-36.4c1.6-1.9,3.9-4,6.3-3.3a4.1,4.1,0,0,1,2.8,2.9A8.1,8.1,0,0,1,1162,662.7Z"/><path class="cls-1" d="M1152.5,674.9c4-3.4,8.2-7.1,9.5-12.2a8.1,8.1,0,0,0,0-4.1,4.1,4.1,0,0,0-2.8-2.9c-2.4-.7-4.7,1.4-6.3,3.3a212.2,212.2,0,0,0-25.1,36.4C1131.9,691.8,1148.4,678.4,1152.5,674.9Z"/><path class="cls-12" d="M1122.5,698.5a35.7,35.7,0,0,0-26.5,17.3c-1.8,3-3.1,6.9-1.3,9.8s4.5,3.4,6.5,5.3a9.4,9.4,0,0,1,2.3,10,9.1,9.1,0,0,1-8.5,5.7c2.5,2.8,4.7,6.2,7.2,9a21.4,21.4,0,0,0,8.2-7.6,13.8,13.8,0,0,0,1.1-10.7c-1.9-5.6-7.6-9.1-9.6-14.6a11.4,11.4,0,0,1,1.7-11.3,39.8,39.8,0,0,1,18.4-13.2"/><path class="cls-12" d="M1120.8,700.3c6.9-1.1,14.1,4.9,14.4,11.9.2,4.4-1.9,8.6-3.2,12.8s-1.8,9.4,1.3,12.6,10,3.5,12.3,7.8a6.1,6.1,0,0,1-1.2,7.1c4.3.7,8.3,1.5,12.6,1.1,1.3-3.9-.1-8.6-2.9-11.7s-8.6-4.9-12-8.4-4.5-9.8-3.3-15c.7-2.9,1.8-5.9,1.2-8.8a10.6,10.6,0,0,0-2.3-4.3A16.4,16.4,0,0,0,1120.8,700.3Z"/><rect class="cls-13" x="1147.6" y="777.4" width="83.3" height="83.31"/><rect class="cls-12" x="1184.1" y="777.4" width="10.2" height="83.31"/><rect class="cls-12" x="1184.1" y="777.4" width="10.2" height="83.31" transform="translate(2008.3 -370.1) rotate(90)"/><path class="cls-12" d="M1184.1,764.3a42.8,42.8,0,0,0-3.9-8.4c-2.5-4.1-5.9-8-10.5-9.4s-10.3.4-12.1,4.8.7,9.2,3.8,12.7c7.6,8.8,18.7,12.8,29,17.7C1188.2,775.9,1186.1,770.2,1184.1,764.3Zm-11.1,2.6c-2.5-2.3-5.1-4.8-6.3-8-.6-1.6-.6-3.9.9-4.7a3.6,3.6,0,0,1,3.6.6c3.3,2.1,5.2,5.7,7,9.1.9,1.8,4.4,10,5.3,11.7C1179.9,772.9,1176.4,769.9,1173,766.9Z"/><path class="cls-12" d="M1218.9,756.8c-.4-2.7-1.6-5.4-3.8-6.8s-6.8-1.2-9.6.7-4.7,4.8-6.5,7.7c-5.1,8.5-7.6,17.3-11.3,26.4l14.9-7.7c3.9-2,9.2-3.7,12.2-7A16.2,16.2,0,0,0,1218.9,756.8Zm-7.8,9.7c-2.5,2.7-5.8,4.3-8.9,6.1s-6.6,4.1-9.8,6.3a118.4,118.4,0,0,1,13.2-18.9,10,10,0,0,1,3.3-2.9,4,4,0,0,1,4.2.4C1215.7,759.9,1213.1,764.5,1211.1,766.5Z"/><path class="cls-1" d="M1178.2,763.9c-1.8-3.4-3.7-7-7-9.1a3.6,3.6,0,0,0-3.6-.6c-1.5.8-1.5,3.1-.9,4.7,1.2,3.2,3.8,5.7,6.3,8s6.9,6,10.5,8.7C1182.6,773.9,1179.1,765.7,1178.2,763.9Z"/><path class="cls-12" d="M1186.5,778.1a14.8,14.8,0,0,0-10.3,6.7,6.9,6.9,0,0,0-1.1,3.6,16.6,16.6,0,0,0,1.2,3.1,6.4,6.4,0,0,1,.3,4.1c-.7,2.1-2.8,3.3-4.7,4.5s-3.8,2.9-3.8,5.1a42.7,42.7,0,0,1,8.2,4.3,6.6,6.6,0,0,1,2.2-5c1.3-1.3,2.8-2.5,3.5-4.2s0-4.9-.6-7.4-1.1-8.2,1.2-11.4A10.7,10.7,0,0,1,1186.5,778.1Z"/><path class="cls-12" d="M1190.4,778.3a21.6,21.6,0,0,1,5.5,2.1,7.9,7.9,0,0,1,3.5,4.7,23.6,23.6,0,0,1,.1,4.6,4.7,4.7,0,0,0,1.7,4.1,7.5,7.5,0,0,0,3.4,1c2.9.3,5.9,1.2,7.6,3.5a6.5,6.5,0,0,1-.1,7.2,75,75,0,0,1-8.2-.4,3.1,3.1,0,0,0,.7-3.8c-1.4-2.1-4.7-1.7-6.8-3.1a6.3,6.3,0,0,1-2.3-5,55.1,55.1,0,0,1,.6-5.7,8.3,8.3,0,0,0-.8-5.6A8.8,8.8,0,0,0,1190.4,778.3Z"/><path class="cls-1" d="M1095.9,659.9c-1.2-1.7-2.4-3.3-4.2-4.1s-4.3-.6-5.4,1-.6,3.7.1,5.5a41.3,41.3,0,0,0,6.4,11.4,74.8,74.8,0,0,0,10,10.3c4.6,4.1,9.3,8.1,14,12C1111.1,685.9,1100.3,666.1,1095.9,659.9Z"/><circle class="cls-12" cx="1140.8" cy="194.2" r="4.9"/><circle class="cls-12" cx="1050.7" cy="169.4" r="6"/><circle class="cls-12" cx="984.6" cy="273.5" r="4.5"/><circle class="cls-12" cx="1040.9" cy="334.1" r="7.1"/><circle class="cls-12" cx="1105.8" cy="345.5" r="2.9"/><circle class="cls-12" cx="1166.5" cy="284.3" r="2.9"/><circle class="cls-12" cx="1214.2" cy="173.3" r="4.1"/><circle class="cls-12" cx="1140.8" cy="139.7" r="2.1"/><circle class="cls-12" cx="1095.2" cy="420.6" r="2"/><circle class="cls-12" cx="1033.8" cy="441.2" r="3.7"/><circle class="cls-12" cx="1092" cy="511.2" r="3.2"/><circle class="cls-12" cx="1044.1" cy="521" r="6.6"/><circle class="cls-12" cx="1163.6" cy="552.1" r="5.9"/><circle class="cls-12" cx="1199.3" cy="525.3" r="4.3"/><circle class="cls-12" cx="882.7" cy="665.1" r="7.5"/><circle class="cls-12" cx="970.7" cy="601.6" r="3.2"/><circle class="cls-12" cx="1079.1" cy="639.2" r="3.2"/><circle class="cls-12" cx="1265.1" cy="297.3" r="5"/><circle class="cls-12" cx="1233.2" cy="379.5" r="2.2"/><circle class="cls-12" cx="1289.9" cy="445.8" r="5.3"/><circle class="cls-12" cx="1421.3" cy="377.3" r="4.8"/><circle class="cls-12" cx="1330.6" cy="371.8" r="4"/><circle class="cls-12" cx="1411.9" cy="436.6" r="4"/><circle class="cls-12" cx="1088.8" cy="824.2" r="5"/><circle class="cls-12" cx="1238.6" cy="731" r="5.2"/><circle class="cls-12" cx="906.3" cy="771.3" r="4.7"/><circle class="cls-12" cx="987" cy="716.5" r="6.9"/><circle class="cls-12" cx="1038.7" cy="728.7" r="0.4"/><circle class="cls-12" cx="1044.7" cy="762.3" r="2.2"/><circle class="cls-12" cx="925" cy="521.7" r="5.9"/><circle class="cls-12" cx="925" cy="418.6" r="3.6"/><circle class="cls-12" cx="1275" cy="128.1" r="7.1"/><circle class="cls-12" cx="1347.9" cy="155.9" r="3.4"/><circle class="cls-12" cx="1458.2" cy="148.6" r="5.3"/><circle class="cls-12" cx="1421.3" cy="257.1" r="5.4"/><circle class="cls-12" cx="1398.7" cy="386.6" r="3.7"/><circle class="cls-12" cx="1327.9" cy="628.4" r="7.7"/><circle class="cls-12" cx="1341.9" cy="651.5" r="3.6"/><circle class="cls-12" cx="1425.7" cy="613.2" r="7.5"/><circle class="cls-12" cx="1418.4" cy="757.3" r="7.3"/><circle class="cls-12" cx="1468.6" cy="694.9" r="5.7"/><circle class="cls-12" cx="1473.3" cy="532.9" r="4.7"/><circle class="cls-12" cx="1501.9" cy="553.8" r="7.5"/><circle class="cls-12" cx="1578.3" cy="467.5" r="2.5"/><circle class="cls-12" cx="1527.9" cy="395.4" r="5.2"/><circle class="cls-12" cx="1588" cy="349.8" r="7.3"/><circle class="cls-12" cx="1481.9" cy="292.3" r="3.9"/><circle class="cls-12" cx="1544.9" cy="242.3" r="9.3"/><circle class="cls-12" cx="1611.2" cy="433.1" r="7.5"/><circle class="cls-12" cx="1699.7" cy="433.1" r="7.4"/><circle class="cls-12" cx="1631.2" cy="522.8" r="5.4"/><circle class="cls-12" cx="1620.9" cy="617" r="6.9"/><circle class="cls-12" cx="1656.1" cy="586.9" r="3.6"/><circle class="cls-12" cx="1625" cy="704.2" r="7.3"/><circle class="cls-12" cx="1742.5" cy="646.6" r="4.3"/><circle class="cls-12" cx="1754.4" cy="673.9" r="7.7"/><circle class="cls-12" cx="1680.8" cy="750" r="3.9"/><circle class="cls-12" cx="1540.9" cy="764.7" r="7"/><circle class="cls-12" cx="1699.7" cy="786.8" r="4.9"/><circle class="cls-12" cx="1714.3" cy="507.4" r="4"/><path class="cls-14" d="M1321.5,499.2C1256.3,534,1216,454.4,1214.4,446"/><polyline class="cls-14" points="1365.7 707.4 1366.7 780.7 1389.7 841.3"/><circle class="cls-15" cx="1366.5" cy="780.2" r="12.9"/><circle class="cls-16" cx="1366.5" cy="780.2" r="6.7"/><path class="cls-16" d="M1372,830.4h35.4a0,0,0,0,1,0,0v4a17.7,17.7,0,0,1-17.7,17.7h0a17.7,17.7,0,0,1-17.7-17.7v-4a0,0,0,0,1,0,0Z" transform="translate(3013.2 897.2) rotate(150.8)"/><line class="cls-14" x1="1321.3" y1="707.4" x2="1321.3" y2="842"/><path class="cls-16" d="M1303.6,831.1H1339a0,0,0,0,1,0,0v4a17.7,17.7,0,0,1-17.7,17.7h0a17.7,17.7,0,0,1-17.7-17.7v-4A0,0,0,0,1,1303.6,831.1Z" transform="translate(2642.6 1684) rotate(180)"/><circle class="cls-15" cx="1321.2" cy="780.2" r="12.9"/><circle class="cls-16" cx="1321.2" cy="780.2" r="6.7"/><path class="cls-17" d="M1288.9,667.8h64.5l-11.6,63.7a13,13,0,0,1-12.8,10.7h-17a13,13,0,0,1-12.9-11Z"/><path class="cls-5" d="M1332.9,668.2l64.5-.8-10.9,64.1a12.7,12.7,0,0,1-12.4,10.6l-17.5.2a12.8,12.8,0,0,1-12.8-10.6Z"/><path class="cls-13" d="M1550.3,593.9c-2.6,10.1-8,19.9-14.7,28.6a115.3,115.3,0,0,1-19.5,19.4c-31.2,24.1-75.9,31.1-111.7,13-31.9-16.3-45.5-61.8-50.4-97.5-.5-3.8-.9-7.5-1.2-11-2.4-24.3.1-53.5,10.1-77.7,11.1-26.6,31.4-47.1,64.8-48,11.4-.3,22.6,2.4,33.5,5.9,42.2,13.5,72.3,40.7,85.2,84C1553.9,535.9,1556.9,568.1,1550.3,593.9Z"/><path class="cls-18" d="M1535.6,622.5a115.3,115.3,0,0,1-19.5,19.4c-31.2,24.1-75.9,31.1-111.7,13-31.9-16.3-45.5-61.8-50.4-97.5a34.7,34.7,0,0,0,5-1.4l36.4-8.1a219.8,219.8,0,0,0,23.9,46.5c6.4,9.3,13.6,18.3,22.6,25.2,21.8,16.6,52.4,19.3,78.2,10A98.6,98.6,0,0,0,1535.6,622.5Z"/><path class="cls-5" d="M1282,693.2c15.3,22.7,38.2,30.3,61.4,30.6a132,132,0,0,0,25.2-2.3c39-7,61.3-42.1,61.9-81.8.7-43.6-14-87.3-25.8-129.6-1.6-5.6-3.1-11.1-4.5-16.6-5.2-20.3-10.4-40.6-13.6-61.3-3.6-23.9-3.8-48.8-4-73.4,0-8.3,0-16.5-.2-24.6,0-1.3,0-2.7-.1-4.1h0a89.6,89.6,0,0,0-1.7-14.5c-2.8-14.2-9.9-27.1-26.1-30.6-14-3-24.9,3.6-31.1,16-5.4,10.7-6.3,14.5-6.3,21.4h0c-.1,3,.1,6.7.2,11.8.3,39.7-7.1,91.9-16.5,130.2-12,48.9-29.2,94.9-34.3,145.1C1264.1,634.2,1262.5,664.2,1282,693.2Z"/><path class="cls-17" d="M1343.4,723.8a132,132,0,0,0,25.2-2.3c39-7,61.3-42.1,61.9-81.8.7-43.6-14-87.3-25.8-129.6-1.6-5.6-3.1-11.1-4.5-16.6-5.2-20.3-10.4-40.6-13.6-61.3-3.6-23.9-3.8-48.8-4-73.4-12.3,74.6,10.2,168,14.6,185.4,9.8,37.8,25.2,83.4,12.6,120.4C1400.5,692.1,1387,714.5,1343.4,723.8Z"/><path class="cls-13" d="M1336.4,436.7c-4.5-.3-9.1-.6-13.4.6s-8.5,4.1-10,8.3-.6,6.3.2,9.4a60.8,60.8,0,0,0,8.3,17.2c2.8,4.3,6.8,8.9,11.9,8.5,3.2-.2,5.9-2.5,8.3-4.7,4.9-4.6,9.7-9.5,12.9-15.3s6.8-15.6,2.3-20.8c-1.6-1.9-4.2-2.1-6.5-2.4C1345.7,437.1,1341,436.9,1336.4,436.7Z"/><path class="cls-5" d="M1305.5,281.7l1.3-2.1,4.7-7.4a3.3,3.3,0,0,1-2.8-3.1,8.2,8.2,0,0,1,.9-4.3c2.6-6.2,5.9-12.2,7.8-18.6s3.8-12.2,7.4-17.1a20.6,20.6,0,0,1,8-6.3c3.9-1.8,7.9-1.7,12.2-1.9,7.7-.6,16.7,1.8,21.4,8.2s6.3,13.1,9.3,19.8,7.3,14.4,11.4,21.4a12.8,12.8,0,0,1,1.9,4.1,4.4,4.4,0,0,1-1.4,4.1,2.6,2.6,0,0,1-3.8-.8,50,50,0,0,1,6.5,19.5c.2,2.5.3,5.9-2.6,6.7a6.2,6.2,0,0,1-4.2-.7,11.1,11.1,0,0,1-.1,4.8c-.6,1.4-2.1,2.7-3.7,2.4a10.2,10.2,0,0,1-1.2,6,11.7,11.7,0,0,1-4.8,4.3,64.9,64.9,0,0,1-13.7,4.6c-2.4.4-4.8.8-7.3,1s-4.9.9-7.1.7c-13.2-1.1-28.3-2.3-37-13.4a17.5,17.5,0,0,1-3.1-7.9c-.2-1.2-.8-8.3.7-8.8a3.4,3.4,0,0,1-3.9-1.9,6.9,6.9,0,0,1-.4-4.7A25,25,0,0,1,1305.5,281.7Z"/><circle class="cls-16" cx="1356.9" cy="260.5" r="4.1"/><circle class="cls-16" cx="1326.5" cy="260.5" r="4.1"/><path class="cls-15" d="M1319,289.6c.5-2.4,1.3-4.7,1.9-6.9,2.8-8.4,8.2-23.3,18.9-23.2,6.5,0,11.8,5.6,14.6,12.1.8,1.6,1.5,3.2,2.2,4.9,2.7,6.3,9.9,24.8-1.9,26.4a4.7,4.7,0,0,0-1.6.4,3.2,3.2,0,0,0-1,1,16.2,16.2,0,0,1-12.5,6.2c-4.5,0-9.3-2.7-12.1-6.2-.3-.4-.5-.8-1-1a4.2,4.2,0,0,0-1.6-.4,7.3,7.3,0,0,1-5.9-5.3A15.5,15.5,0,0,1,1319,289.6Z"/><path class="cls-16" d="M1339.2,284.6c-.4.3-.7-.5-.7-.8a7.4,7.4,0,0,1,1.1-4.4,10.9,10.9,0,0,1,6.5-5.4c1.4-.3,3.6-.9,4.9-.1s-.1,3.7-1.4,4.5a10.6,10.6,0,0,1-4.3,1.2,7,7,0,0,0-2.5.5c-1.7.9-2.3,3-3.6,4.4Z"/><path class="cls-16" d="M1338.5,284.6c.4.3.7-.5.7-.8a7.4,7.4,0,0,0-1.1-4.4,10.9,10.9,0,0,0-6.5-5.4c-1.4-.3-3.6-.9-4.9-.1s0,3.7,1.3,4.5a11.1,11.1,0,0,0,4.4,1.2,6.4,6.4,0,0,1,2.4.5c1.8.9,2.4,3,3.6,4.4A.1.1,0,0,1,1338.5,284.6Z"/><path class="cls-19" d="M1339.2,282.7c-.4,7-.2,4.6-.3,11.7"/><path class="cls-19" d="M1338.9,293.2c0,1.1,0,2.5-.9,3.2a4.2,4.2,0,0,1-3.1.7,9.6,9.6,0,0,1-6.6-3.3"/><path class="cls-19" d="M1338.9,293.2c0,1.1,0,2.5.8,3.2a4.5,4.5,0,0,0,3.2.7,10,10,0,0,0,6.6-3.3"/><path class="cls-16" d="M1330.6,295.5a9.5,9.5,0,0,0,5.4,4,9.2,9.2,0,0,0,6.7-.7c2.1-1,3.8-2.8,5.8-4a21.5,21.5,0,0,1-4.8,1.8,5.7,5.7,0,0,1-2.6.3,2.8,2.8,0,0,1-2.1-1.3,5.3,5.3,0,0,1-4.2,1.4A8.9,8.9,0,0,1,1330.6,295.5Z"/><path class="cls-19" d="M1354.3,321.7a30.8,30.8,0,0,1-31.5-1.1"/><path class="cls-13" d="M1510.6,562c-19.8,11.4-44.9,9.9-64.3-1.7-23.2-13.9-26.2-40.5-39.7-61.9-8.4-13.3-19.9-25.1-34.4-31.3-6.7-2.9-14.1-4.6-20.3-8.5s-11.3-11-9.8-18.2,7.7-11,13.8-14.1c55.8-28.8,127.3-8.1,166.8,38.7a80,80,0,0,1,12.4,18.7c12,25.9,2.7,59.9-20.9,76A31.7,31.7,0,0,1,1510.6,562Z"/><path class="cls-14" d="M1390.6,503.9c-2.7,9.6-9,29.6-22.8,27a12.3,12.3,0,0,1-7.6-5.8c-1.8-2.7-2.7-5.9-3.6-9.1a252.6,252.6,0,0,1-6.9-36.7"/><circle class="cls-15" cx="1389" cy="500.3" r="12.9"/><circle class="cls-16" cx="1389" cy="500.3" r="6.7"/><polyline class="cls-20" points="1348 469.9 1354.6 452.8 1349.5 443.8"/><circle class="cls-15" cx="1348.6" cy="471.7" r="12.9"/><circle class="cls-16" cx="1348.6" cy="471.7" r="6.7"/><polyline class="cls-20" points="1213.5 444.3 1195.9 438.9 1192.1 429.3"/><rect class="cls-13" x="1169.5" y="360.1" width="84.2" height="77.2"/><rect class="cls-12" x="1206.1" y="360.1" width="10.9" height="77.2"/><rect class="cls-12" x="1206.1" y="356.6" width="10.9" height="84.19" transform="translate(1610.3 -812.8) rotate(90)"/><path class="cls-12" d="M1198.7,337.5c-2.3-3.6-5-7.4-9.1-8.6a19.8,19.8,0,0,0-5.4-.5c-4.7.3-10.1,1.8-11.5,6.2s.3,6.2,2.1,8.8c3.6,5.2,9.2,8.7,14.9,11.5a82.2,82.2,0,0,0,23,8.3S1204,345.7,1198.7,337.5Zm-13.4,8.3a8.6,8.6,0,0,1-2.3-3.6,4.1,4.1,0,0,1,.8-4c1.3-1.2,3.4-1,5-.2s3.7,2.7,5.2,4.4c4.2,5.1,10.2,14.9,15.8,18.1C1201.5,355.7,1191.8,352.8,1185.3,345.8Z"/><path class="cls-12" d="M1245.7,343.9c-.4-3-1.8-6.9-4.4-8.6s-8.5-.7-12,2l-1,.8a51.8,51.8,0,0,0-11.3,13.8c-2.9,5.3-4.8,11.1-6.9,16.8.4-1.1,2.5-2.3,3.3-2.9a47.8,47.8,0,0,1,4.2-2.6,30.9,30.9,0,0,1,8.5-3.7c4.9-1.3,9.9-2.8,14.3-5.5,2.1-1.3,4.2-2.9,5-5.2A9.1,9.1,0,0,0,1245.7,343.9Zm-9.6,5.7a30.9,30.9,0,0,1-3.2,1.4,50,50,0,0,0-4.8,2.1,50.7,50.7,0,0,0-8.5,4.7l-2.7,2c-.5.5-1.6,1.1-2,1.8,3.7-6.7,7.9-13.4,14.4-17.6a8.8,8.8,0,0,1,5.2-1.8c1.9.1,3.8,1.5,4,3.3A3.9,3.9,0,0,1,1236.1,349.6Z"/><polyline class="cls-20" points="1214 444.1 1223 428.1 1219.1 418.5"/><circle class="cls-15" cx="1214.4" cy="446" r="12.9"/><circle class="cls-16" cx="1214.4" cy="446" r="6.7"/><path class="cls-12" d="M1196.8,374.3c-2.5-7.2,5.4-13.6,13.3-13.5a17.8,17.8,0,0,0-17.6,6.7c-1.3,1.6-2.2,3.7-1.6,5.6s4.3,4.5,5,7.4-1.8,5.4-4.5,6.3a58.9,58.9,0,0,0,10,3.4c2.3-2.1,1.7-5.7.2-8.2S1197.9,377.1,1196.8,374.3Z"/><path class="cls-12" d="M1211.6,362.5a17.3,17.3,0,0,1,11.5,1.5c2.8,1.6,4.9,4.7,4.6,7.8s-1.9,4.8-2.5,7.3a3.7,3.7,0,0,0,.1,2.1,3.8,3.8,0,0,0,3.1,2,15.5,15.5,0,0,1,3.7.4,3,3,0,0,1,2.4,2.6,26.1,26.1,0,0,0,8.1-5.8,5.6,5.6,0,0,0-4.1-2.7c-1.6-.1-3.1.2-4.6.1a2.6,2.6,0,0,1-1.5-.4,2.5,2.5,0,0,1-.9-2.7,11.1,11.1,0,0,1,1-2.9c1.4-3.6.1-8.3-3.4-10.2a11.9,11.9,0,0,0-3.8-1.1C1221.3,359.9,1216,359.5,1211.6,362.5Z"/><path class="cls-13" d="M1404.2,210.8c-6.9,13.3-19.9,22-23.1,37.3l-57.7-12.7-5.1-1.1c.7-12.4,2.1-20.3,8.2-29,3.4-4.8,10.2-9.1,15.4-11.9,7.5-4.2,16.2-5.9,24.5-8s16.9-5.2,23-11.4c2.9-3,5.1-6.7,8.1-9.8s4.3-2.2,6.8-.3a11.2,11.2,0,0,1,3.3,4.9c.1.2.1.4.2.6h0a38.8,38.8,0,0,1,1.6,10.2C1409.9,190.2,1409.2,201.3,1404.2,210.8Z"/><path class="cls-18" d="M1404.2,210.8c-6.9,13.3-19.9,22-23.1,37.3l-57.7-12.7c.3-9.4,21.7-11.2,28.5-11,9.3.3,18.8,1.7,27.9-.6,17.6-4.5,26.9-24.4,28.2-41.2a64.7,64.7,0,0,0-.2-13.2,38.8,38.8,0,0,1,1.6,10.2C1409.9,190.2,1409.2,201.3,1404.2,210.8Z"/><path class="cls-12" d="M1377.1,256l-.3-.2c-8.6-4-17.2-8.4-26.8-10.3s-21.9-2.3-30.6-1.1c-3.1.4-5.8-3.3-4.8-9.7.5-3.2,1.5-5.9,3.8-7.5,8.2-5.7,25.8-2,34.2,0a163.6,163.6,0,0,1,23.1,7.4c4.2,1.7,9.2,4,10.5,8.5S1384.9,259.2,1377.1,256Z"/><path class="cls-12" d="M1415.4,155.9a5.3,5.3,0,0,1,.1,8.8s5.7,4.2,1.9,9.7c-1.4,2.1-6.6,1.7-8.5.1a9.1,9.1,0,0,1-3.8,5.7,7.1,7.1,0,0,1-8.4-1.1,9,9,0,0,1-2.5-8.4c-1.6.2-4.1-.5-4.9-1.9a8,8,0,0,1-.3-7.2c1.3-3.2,4.9-3.8,6.8-2.2a16.2,16.2,0,0,1,.5-6.2,6.5,6.5,0,0,1,4.1-4.4c4.8-1.3,6.9,3.8,8.1,7.6C1410.3,155.1,1413.7,154.8,1415.4,155.9Z"/></g></svg>