<svg id="Illustration" xmlns="http://www.w3.org/2000/svg" xmlns:xlink="http://www.w3.org/1999/xlink" viewBox="0 0 1920 1080"><defs><style>
      .cls-1 {
        fill: #23233b;
      }
      .cls-1, .cls-2, .cls-3, .cls-4, .cls-5, .cls-6, .cls-7, .cls-8, .cls-9, .cls-10, .cls-11, .cls-12, .cls-13, .cls-14, .cls-15, .cls-16, .cls-17, .cls-18, .cls-19, .cls-20, .cls-21 {
        stroke-width: 0px;
      }
      .cls-2 {
        fill: #b35f47;
      }
      .cls-3 {
        fill: #34344d;
      }
      .cls-4 {
        fill: #f5edff;
      }
      .cls-5 {
        fill: #181829;
      }
      .cls-6, .cls-22 {
        fill: none;
      }
      .cls-23 {
        clip-path: url(#clippath-1);
      }
      .cls-7 {
        fill: #7324c9;
      }
      .cls-8 {
        fill: #cba6ff;
      }
      .cls-9 {
        fill: #e9d9ff;
      }
      .cls-10 {
        fill: #fff;
      }
      .cls-11 {
        fill: #cab6e6;
      }
      .cls-12 {
        fill: #4d342d;
      }
      .cls-13, .cls-20 {
        fill: #a0a0a0;
      }
      .cls-14 {
        fill: #d8cfe0;
      }
      .cls-24 {
        clip-path: url(#clippath);
      }
      .cls-22 {
        stroke: #34344d;
        stroke-linecap: round;
        stroke-linejoin: round;
      }
      .cls-15 {
        fill: #e08065;
      }
      .cls-16, .cls-25 {
        fill: #973bfc;
      }
      .cls-25 {
        font-family: Monosten-Bold, Monosten;
        font-size: 86px;
        font-weight: 700;
      }
      .cls-17 {
        fill: #b085eb;
      }
      .cls-18 {
        fill: #7a3320;
      }
      .cls-19 {
        fill: #250d45;
      }
      .cls-20 {
        fill-rule: evenodd;
      }
      .cls-21 {
        fill: #fdab95;
      }
    </style><clipPath id="clippath"><rect class="cls-6" x="78.35" y="65.77" width="353.29" height="91.34"></rect></clipPath><clipPath id="clippath-1"><rect class="cls-6" x="78.35" y="65.77" width="353.29" height="91.34"></rect></clipPath></defs><rect id="Bg" class="cls-19" width="1920" height="1080"></rect><g id="Logo"><g class="cls-24"><g class="cls-23"><g><path class="cls-10" d="m202.03,89.81c-.11-1.22.78-2.29,1.99-2.41,1.22-.11,2.29.78,2.41,1.99.02.14.02.27,0,.41v.54c.26-.95.82-1.78,1.6-2.38.87-.7,1.96-1.06,3.06-1.02,3.01,0,4.86,1.15,5.55,3.45.33-.98.98-1.83,1.83-2.43,1-.7,2.2-1.06,3.42-1.02,4.08,0,6.13,2.52,6.13,6.6v15.82c.11,1.21-.77,2.27-1.98,2.39-1.21.11-2.27-.77-2.39-1.98-.02-.14-.02-.27,0-.41v-14.61c0-2.78-.86-3.95-2.78-3.95-2.45,0-3.65,2.19-3.65,6.58v11.97c.11,1.21-.77,2.27-1.98,2.39-1.21.11-2.28-.77-2.39-1.98-.02-.14-.02-.27,0-.41v-14.61c0-2.78-.76-3.95-2.78-3.95-2.44,0-3.66,2.39-3.63,7.15v11.4c.11,1.22-.78,2.29-1.99,2.41s-2.29-.78-2.41-1.99c-.02-.14-.02-.27,0-.41v-19.57h0Z"></path><path class="cls-10" d="m255.24,104.56c-.66.02-1.29.32-1.71.83-1.71,1.97-4.13,2.97-7.29,2.97-1.91.05-3.76-.69-5.12-2.04-1.34-1.34-2.18-3.08-2.4-4.96h16.82c1.24.11,2.34-.81,2.45-2.05.01-.13.01-.26,0-.4.09-3.17-1.1-6.25-3.3-8.53-2.2-2.29-5.27-3.54-8.44-3.42-3.69,0-6.63,1.22-8.81,3.62-4.34,5.24-4.34,12.83,0,18.07,2.18,2.4,5.12,3.58,8.81,3.58,4.3,0,7.77-1.24,10.35-3.73.94-.82,1.03-2.23.22-3.17-.01-.01-.02-.02-.03-.03-.36-.48-.94-.76-1.54-.74h0Zm-14.02-11.8c1.35-1.28,3.16-1.97,5.01-1.92,1.75-.08,3.45.6,4.68,1.85,1.24,1.34,2.11,2.99,2.52,4.77h-14.71c.29-1.8,1.17-3.46,2.5-4.71"></path><path class="cls-10" d="m271.51,77.22c1.36,0,2.19,1,2.19,2.43v7.8h8.81c1.51,0,2.28.64,2.28,1.92s-.76,1.92-2.28,1.92h-8.81v12.73c0,2.97,1.57,4.3,3.75,4.3,1.18.05,2.34-.23,3.37-.81l1.4-1c.37-.28.82-.46,1.28-.5,1.09-.02,1.99.86,2,1.96v.14c0,.73-.47,1.44-1.4,2.11-2.02,1.38-4.43,2.07-6.86,1.97-2.4,0-4.32-.64-5.76-1.87s-2.16-3.2-2.16-5.89v-13.08h-6.32c-1.52,0-2.28-.64-2.28-1.92s.75-1.92,2.28-1.92h6.32v-7.85c-.1-1.23.81-2.31,2.05-2.42.05,0,.1,0,.15,0h0Z"></path><path class="cls-10" d="m311.18,87.44c-1.21,0-2.07.97-2.18,2.51-.76-1-1.79-1.77-2.97-2.21-1.23-.52-2.54-.79-3.87-.79-3.52,0-6.3,1.24-8.32,3.73-2.06,2.51-3.15,5.67-3.06,8.9-.09,3.25.98,6.42,2.99,8.96,2.02,2.44,4.82,3.68,8.41,3.68,1.33,0,2.64-.26,3.87-.76,1.18-.45,2.21-1.23,2.97-2.23.12,1.55.95,2.52,2.18,2.52,1.24.07,2.29-.88,2.36-2.11,0-.11,0-.21,0-.31v-19.48c.1-1.23-.82-2.31-2.05-2.42-.11-.01-.22-.01-.32,0m-3.97,18.5c-2.27,2.81-6.38,3.24-9.19.97-.36-.29-.68-.62-.97-.97-1.34-1.84-2.01-4.07-1.92-6.34-.1-2.26.58-4.49,1.92-6.32,2.23-2.81,6.32-3.27,9.12-1.03.38.3.73.65,1.03,1.03,1.35,1.82,2.03,4.05,1.92,6.32.1,2.27-.57,4.51-1.92,6.34"></path><path class="cls-16" d="m329.75,107.86v-26.27h-5.44c-1.36,0-2.4-.71-2.4-1.92s1.04-1.92,2.4-1.92h7.62c1.13-.07,2.11.79,2.19,1.92v28.21h7.04c1.36,0,2.4.71,2.4,1.95s-1.04,1.92-2.4,1.92h-18.47c-1.35,0-2.38-.71-2.38-1.92s1.02-1.95,2.38-1.95l7.06-.03h.01Z"></path><path class="cls-16" d="m366.4,87.44c-1.21,0-2.07.97-2.18,2.51-.76-1-1.79-1.77-2.97-2.21-1.22-.51-2.52-.78-3.84-.79-3.52,0-6.3,1.24-8.32,3.73-2.06,2.51-3.15,5.67-3.06,8.9-.09,3.25.97,6.42,2.99,8.96,2.02,2.44,4.82,3.68,8.41,3.68,1.33,0,2.64-.26,3.87-.76,1.18-.45,2.21-1.23,2.97-2.23.12,1.55.95,2.52,2.18,2.52,1.24.07,2.29-.88,2.36-2.11,0-.11,0-.21,0-.31v-19.48c.1-1.23-.81-2.31-2.05-2.42-.12-.01-.24-.01-.36,0m-3.97,18.5c-2.27,2.81-6.38,3.24-9.19.97-.36-.29-.68-.62-.97-.97-1.34-1.84-2.01-4.07-1.92-6.34-.1-2.26.58-4.49,1.92-6.32,2.23-2.81,6.32-3.27,9.12-1.03.38.3.73.65,1.03,1.03,1.35,1.82,2.03,4.05,1.92,6.32.1,2.27-.57,4.51-1.92,6.34"></path><path class="cls-16" d="m376.39,89.81c-.11-1.22.78-2.29,1.99-2.41,1.22-.11,2.29.78,2.41,1.99.02.14.02.27,0,.41v.54c.25-.94.8-1.78,1.58-2.38.87-.7,1.96-1.06,3.06-1.02,3.02,0,4.87,1.15,5.56,3.45.33-.98.97-1.83,1.83-2.43,1-.7,2.2-1.06,3.41-1.02,4.09,0,6.13,2.52,6.13,6.6v15.82c.11,1.21-.77,2.27-1.98,2.39-1.21.11-2.27-.77-2.39-1.98-.02-.14-.02-.27,0-.41v-14.61c0-2.78-.86-3.95-2.78-3.95-2.45,0-3.66,2.19-3.66,6.58v11.97c.11,1.21-.77,2.27-1.98,2.39-1.21.11-2.27-.77-2.39-1.98-.02-.14-.02-.27,0-.41v-14.61c0-2.78-.76-3.95-2.78-3.95-2.45,0-3.65,2.39-3.63,7.15v11.4c.11,1.22-.78,2.29-1.99,2.41s-2.29-.78-2.41-1.99c-.02-.14-.02-.27,0-.41l.02-19.57h0Z"></path><path class="cls-16" d="m429.27,87.44c-1.21,0-2.06.97-2.18,2.51-.76-1-1.79-1.77-2.97-2.21-1.22-.51-2.52-.78-3.84-.79-3.52,0-6.3,1.24-8.32,3.73-2.06,2.51-3.14,5.67-3.06,8.9-.09,3.25.98,6.42,2.99,8.96,2.02,2.44,4.82,3.68,8.41,3.68,1.32-.01,2.62-.27,3.84-.76,1.18-.45,2.21-1.23,2.97-2.23.12,1.55.95,2.52,2.18,2.52,1.24.06,2.28-.9,2.34-2.13v-19.76c.1-1.23-.82-2.31-2.05-2.42-.1-.01-.2-.01-.3,0m-3.96,18.5c-2.27,2.81-6.39,3.24-9.2.97-.35-.29-.68-.61-.97-.97-1.33-1.84-2.01-4.07-1.92-6.34-.1-2.26.58-4.49,1.92-6.32,2.24-2.81,6.33-3.27,9.14-1.03.38.3.73.65,1.03,1.03,1.35,1.82,2.02,4.05,1.92,6.32.1,2.27-.58,4.51-1.92,6.34"></path><path class="cls-20" d="m428.64,148.04c-1.3,1.53-3.18,2.28-5.55,2.28-.94,0-1.83-.18-2.68-.53s-1.47-.83-1.83-1.45v6.36c0,.88-.58,1.53-1.43,1.53s-1.43-.66-1.43-1.53v-18.81c0-.88.58-1.53,1.43-1.53.76,0,1.39.66,1.43,1.53.41-.61,1.03-1.05,1.88-1.36.85-.31,1.74-.44,2.68-.44,2.37,0,4.2.7,5.5,2.15s1.97,3.42,1.97,5.96c0,2.37-.67,4.3-1.97,5.83m-2.06-9.95c-.81-1.01-1.92-1.53-3.4-1.53s-2.59.48-3.4,1.53c-.81,1.01-1.16,2.37-1.16,4.12s.41,3.12,1.16,4.12c.81,1.01,1.92,1.49,3.4,1.49s2.59-.48,3.4-1.49c.76-1.01,1.16-2.37,1.16-4.12s-.41-3.12-1.16-4.12m-14.76,1.19c-.54,0-.98-.31-1.25-.88-.58-1.19-1.57-1.8-2.86-1.8-1.61,0-2.82.61-3.62,1.8-.81,1.19-1.21,2.67-1.21,4.43v5.61c0,.92-.58,1.58-1.43,1.58s-1.43-.66-1.43-1.58v-12.45c0-.92.58-1.58,1.43-1.58s1.43.66,1.43,1.58v.7c.41-.66,1.03-1.27,1.92-1.8.9-.53,1.88-.79,2.91-.79,2.68,0,4.52.96,5.55,2.94.14.26.18.48.18.74,0,.88-.81,1.49-1.61,1.49m-17.85,10.65c-.81,0-1.39-.61-1.43-1.62-.49.61-1.12,1.1-1.97,1.45-.9.4-1.75.57-2.64.57-2.37,0-4.25-.79-5.59-2.37-1.34-1.58-1.97-3.51-1.97-5.74s.67-4.12,2.06-5.7c1.34-1.62,3.22-2.41,5.55-2.41.9,0,1.74.18,2.59.48.85.31,1.52.79,1.97,1.4.09-1.01.62-1.62,1.43-1.62.9,0,1.57.57,1.57,1.53v12.5c0,1.01-.67,1.53-1.57,1.53m-2.64-11.79c-.85-1.05-1.97-1.58-3.4-1.58s-2.55.53-3.4,1.58c-.85,1.05-1.25,2.41-1.25,4.08s.45,3.02,1.25,4.08c.85,1.05,1.97,1.53,3.4,1.53s2.55-.53,3.4-1.53c.85-1.05,1.3-2.41,1.3-4.08s-.45-3.02-1.3-4.08m-14.76,11.88c-.85,0-1.43-.66-1.43-1.53v-7.76c0-1.49-.22-2.54-.71-3.2s-1.3-.97-2.51-.97c-1.43,0-2.55.57-3.35,1.67-.81,1.09-1.21,2.54-1.21,4.34v5.88c0,.88-.58,1.53-1.43,1.53-.9.05-1.48-.61-1.48-1.49v-18.81c0-.88.58-1.53,1.43-1.53s1.43.66,1.43,1.53v6.88c.22-.66.81-1.27,1.7-1.71.9-.48,1.83-.74,2.86-.74,4.07,0,6.13,2.02,6.13,6.01v8.38c0,.88-.58,1.53-1.43,1.53h0Zm-21.61-8.9c.81.09,1.43.22,1.88.26.45.09.98.22,1.65.44.67.22,1.16.44,1.52.7.67.53,1.3,1.53,1.3,2.85,0,1.58-.67,2.85-1.97,3.73-1.3.92-3,1.36-5.01,1.36-3-.13-5.19-1.05-6.67-2.81-.27-.35-.45-.66-.45-1.01,0-.79.54-1.45,1.43-1.45.54,0,.98.22,1.34.7,1.03,1.31,2.46,2.02,4.3,2.02,2.68,0,4.03-.84,4.03-2.46,0-.66-.31-1.1-1.3-1.4-.5-.13-.9-.26-1.26-.3-.31-.05-.89-.13-1.66-.26-.89-.13-1.65-.26-2.28-.4-.62-.18-1.25-.4-1.92-.7-1.34-.61-2.02-1.75-2.02-3.33s.63-2.77,1.83-3.6c1.26-.84,2.73-1.27,4.48-1.27,2.68,0,4.65.88,5.91,2.59.22.26.31.57.31.92,0,.83-.63,1.4-1.57,1.4-.49,0-.85-.22-1.12-.66-.76-1.19-1.92-1.75-3.54-1.75-2.15,0-3.4.79-3.4,2.24,0,1.27,1.52,1.8,4.16,2.19Z"></path><path class="cls-20" d="m290.3,148.04c-1.3,1.53-3.18,2.28-5.55,2.28-.94,0-1.83-.18-2.68-.53s-1.47-.83-1.83-1.44v6.36c0,.88-.58,1.53-1.43,1.53s-1.43-.66-1.43-1.53v-18.81c0-.88.58-1.53,1.43-1.53.76,0,1.39.66,1.43,1.53.41-.61,1.03-1.05,1.88-1.36.85-.3,1.74-.44,2.68-.44,2.37,0,4.2.7,5.51,2.15,1.34,1.44,1.97,3.42,1.97,5.96,0,2.37-.67,4.3-1.97,5.83m-2.06-9.91c-.81-1.05-1.97-1.53-3.4-1.53s-2.59.48-3.4,1.53c-.81,1.01-1.16,2.37-1.16,4.12s.41,3.11,1.16,4.12c.81,1.01,1.92,1.49,3.4,1.49s2.6-.48,3.4-1.49c.81-1.01,1.16-2.37,1.16-4.12s-.41-3.12-1.16-4.12"></path><path class="cls-20" d="m308.21,148.09c-1.43,1.53-3.27,2.28-5.59,2.28s-4.16-.74-5.59-2.28c-1.43-1.53-2.15-3.46-2.15-5.83s.71-4.3,2.15-5.83c1.43-1.58,3.31-2.32,5.59-2.32s4.16.74,5.59,2.32c1.43,1.53,2.15,3.46,2.15,5.83s-.71,4.3-2.15,5.83m-2.1-9.95c-.85-1.05-2.06-1.53-3.49-1.53s-2.59.48-3.49,1.53c-.89,1.01-1.34,2.37-1.34,4.12s.45,3.11,1.34,4.12c.9,1.01,2.06,1.49,3.49,1.49s2.59-.48,3.49-1.49,1.34-2.41,1.34-4.12-.45-3.12-1.34-4.12"></path><path class="cls-20" d="m313.17,147.65c-.27-.35-.45-.66-.45-1.01,0-.79.54-1.45,1.43-1.45.54,0,.98.22,1.34.7,1.03,1.31,2.46,2.02,4.3,2.02,2.68,0,4.03-.84,4.03-2.46,0-.66-.31-1.1-1.3-1.4-.49-.13-.9-.26-1.25-.3-.31-.05-.9-.13-1.66-.26-.9-.13-1.66-.26-2.28-.39-.63-.18-1.25-.4-1.92-.7-1.34-.61-2.01-1.75-2.01-3.33s.63-2.77,1.83-3.6c1.25-.84,2.73-1.27,4.47-1.27,2.68,0,4.65.88,5.91,2.59.22.26.31.57.31.92,0,.83-.63,1.4-1.57,1.4-.49,0-.85-.22-1.12-.66-.76-1.19-1.92-1.75-3.53-1.75-2.15,0-3.4.79-3.4,2.24,0,1.27,1.52,1.8,4.16,2.19.81.09,1.43.22,1.88.26.45.09.98.22,1.66.44.67.22,1.16.44,1.52.7.67.53,1.3,1.53,1.3,2.85,0,1.58-.67,2.85-1.97,3.73-1.3.92-3,1.36-5.01,1.36-2.95-.13-5.15-1.05-6.67-2.81h-.01Z"></path><path class="cls-20" d="m333.66,129.41c0-.88.58-1.53,1.43-1.53.9,0,1.43.66,1.43,1.53v5h5.86c1.03,0,1.52.4,1.52,1.27s-.49,1.27-1.52,1.27h-5.86v8.15c0,1.88,1.03,2.76,2.5,2.76,1.03,0,1.83-.26,2.24-.53l.94-.66c.27-.22.58-.31.85-.31.81,0,1.34.61,1.34,1.36,0,.48-.31.92-.94,1.36-1.25.84-2.78,1.27-4.56,1.27-1.61,0-2.86-.4-3.85-1.19-.98-.79-1.43-2.06-1.43-3.77v-8.5h-4.2c-1.03,0-1.52-.4-1.52-1.27s.49-1.27,1.52-1.27h4.2v-4.95h.05,0Z"></path><path class="cls-13" d="m238.07,150.84c2.27,0,4.05-.72,5.33-2.15,1.28-1.43,1.92-3.42,1.92-5.97,0-2.35-.64-4.29-1.91-5.82-1.27-1.54-3.05-2.3-5.34-2.3-.92,0-1.79.18-2.61.55-.83.36-1.42.84-1.77,1.42v-6.38c0-.87-.56-1.54-1.4-1.54s-1.4.67-1.4,1.54v18.83c0,.87.57,1.53,1.4,1.53.72,0,1.36-.66,1.4-1.53.4.6,1.01,1.05,1.82,1.37.81.3,1.67.46,2.57.46m4.44-8.12c0,1.73-.38,3.1-1.14,4.12-.76,1.01-1.85,1.51-3.27,1.51s-2.51-.5-3.27-1.51c-.76-1.02-1.14-2.4-1.14-4.12s.38-3.13,1.14-4.12c.76-1.01,1.85-1.51,3.27-1.51s2.5.5,3.27,1.51c.76.99,1.14,2.37,1.14,4.12"></path><path class="cls-13" d="m251.1,157.1c1.64,0,2.95-.55,3.94-1.67.99-1.1,2.06-2.89,3.19-5.38l5.94-13.07c.08-.26.12-.44.12-.56,0-.66-.3-1.13-.9-1.41-.17-.08-.36-.12-.6-.12-.64,0-1.1.3-1.37.9l-4.6,10.56-4.63-10.56c-.27-.6-.73-.9-1.37-.9-.23,0-.43.05-.6.12-.6.26-.9.73-.9,1.41,0,.21.05.4.12.56l5.79,13.04-.17.38c-.66,1.58-1.27,2.67-1.8,3.27-.54.61-1.25.92-2.17.92-.49,0-1.1-.3-1.46-.3-.67,0-1.19.47-1.19,1.22,0,1.05.89,1.59,2.66,1.59h0Z"></path><path class="cls-16" d="m95.25,123.02h-15.96c-.52,0-.95.42-.95.95v14.16c0,.52.42.95.95.95h10.34c.39,0,.73-.24.88-.6l5.62-14.16c.25-.62-.21-1.29-.88-1.29"></path><path class="cls-16" d="m150.14,123.02h-35.07l9.88-56.15c.1-.58-.34-1.11-.93-1.11h-14.14c-.46,0-.85.33-.93.78l-3.59,20.41h-19.73c-.52,0-.95.43-.95.95v14.17c0,.52.42.95.95.95h16.9l-9.31,52.97c-.1.58.34,1.11.93,1.11h14.13c.46,0,.85-.33.93-.78l3.03-17.24h20.14l-2.97,16.92c-.1.58.34,1.11.93,1.11h14.13c.46,0,.85-.33.93-.78l5.66-32.19c.1-.58-.34-1.11-.93-1.11"></path><path class="cls-16" d="m168.73,123.02h-10.87c-.39,0-.73.24-.88.6l-5.61,14.16c-.25.62.21,1.29.88,1.29h16.48c.52,0,.95-.43.95-.95v-14.16c0-.52-.43-.95-.95-.95"></path><path class="cls-16" d="m175.07,86.96h-17.47l3.53-20.08c.1-.58-.34-1.11-.93-1.11h-14.13c-.46,0-.85.33-.93.78l-3.59,20.41h-13.55c-.39,0-.73.24-.88.6l-5.61,14.17c-.24.62.21,1.29.88,1.29h16.34l-2.31,13.17c-.09.5.23.97.72,1.08l13.58,3.15c.53.12,1.05-.22,1.14-.75l2.92-16.65h20.3c.52,0,.95-.43.95-.95v-14.17c0-.52-.43-.95-.95-.95"></path></g></g></g></g><text id="Text_1" class="cls-25" transform="translate(77.88 390.98)"><tspan x="0" y="0">X Ways to </tspan><tspan x="0" y="100">Implement</tspan><tspan x="0" y="200">WPF Commands</tspan></text><g id="Illustration-2"><path class="cls-8" d="m1018.73,866.19c-35.49-21.7-60.35-53.52-70.18-91.96-10.23-39.98,1.08-86.02,31.84-114.23,17.86-16.38,40.21-28.64,55.64-47.56,21.72-26.63,26.57-63.27,25.21-97.61s-8.03-68.54-5.81-102.84c3.43-52.82,29.62-104.58,72.63-135.44,43.01-30.86,102.57-38.74,150.64-16.57,39.33,18.14,68.33,53.6,106.81,73.49,24.89,12.86,53.34,18.76,81.29,16.84,45.75-3.14,91.47-26.51,135.59-13.99,65.4,18.55,105.07,78.97,91.8,147.24-3.2,16.44-9.42,32.11-14.22,48.16-8,26.75-13.02,57.44-1.93,83.98,10.82,25.89,28.27,48.63,48.67,67.72,16.17,15.13,34.37,28.26,48.36,45.42,30.4,37.32,35.36,93.06,16.52,137.36"></path><rect class="cls-14" x="927.98" y="863.38" width="885.79" height="5.62" rx="2.81" ry="2.81"></rect><g><path class="cls-21" d="m1288.65,554.12c-5.1-.8-10.32-.92-15.51-1.34,1.98-.17,3.82-.23,5.76-.64,1.19-.25,4.97-1.08,3.96-2.6-.86-1.3-4.27-1.41-5.83-1.41-1.62,0-3.46.18-5.09.26-3.54.17-7.09.48-10.6.93-.89.11-1.82.23-2.74.39-3.42.59-6.81,1.73-7.34,4.9-.32,1.88,1.37,3.59,3.21,4.75,1.56.98,3.46,1.63,5.5,2.07.07.02.13.03.21.05,7.31,1.52,15.25,1.58,22.8,1.15,3.21-.18,9.68-.54,11.62-3.13,2.5-3.32-2.89-4.88-5.93-5.37Z"></path><path class="cls-15" d="m1258.59,549.71c-3.42.59-6.81,1.73-7.34,4.9-.32,1.88,1.37,3.59,3.21,4.75,1.56.98,3.46,1.63,5.5,2.07.68-3.92.23-7.96-1.37-11.71Z"></path><path class="cls-10" d="m1200.99,553.83c.73,3.5-.43,7.2-2.56,10.4-3.21,4.82-10.14,6.6-15.39,4.17-1.82-.84-3.42-2.1-4.95-3.41-6.18-5.32-10.85-11.79-16.36-17.72-5.48-5.89-10.43-12.37-15.28-18.83-3.13-4.18-6.54-8.4-9.23-13.15-1.44-2.54-2.66-5.22-3.54-8.12-2.22-7.39-1.89-15.14,2.88-19.34,4.65-4.1,11.39-4.01,16.93-.3,4.08,2.73,7.4,7.12,10.64,11.42,9.9,13.14,20.24,26.59,29.3,40.26,3.1,4.67,6.38,9.03,7.55,14.62Z"></path><path class="cls-10" d="m1254.51,543.89s-56.18-3.12-61.52-2.9c-7.66.32-11.92.74-14.95,5.45-3.47,5.41-4.76,18.82,7.15,22.71,9.89,3.24,69.06-1.12,69.47-1.92,4.21-8.21,2.82-20.7-.15-23.35Z"></path><g><g><path class="cls-5" d="m1117.5,851.94c-.8,3.45.35,7.3,2.75,9.61,19.51,0,39.62,1.72,59.07,0,5.09-.45,5.68-5.89,1.78-9.08-5.15-4.21-12.82-5.99-19.22-7.14-10.08-1.81-19.91-4.66-29.83-6.91-3.58-.81-8.5-1.39-10.2,2.18-1.45,3.04-3.56,7.92-4.35,11.34Z"></path><path class="cls-5" d="m1083.52,851.94c-.8,3.45.35,7.3,2.75,9.61,19.51,0,39.62,1.72,59.07,0,5.09-.45,5.68-5.89,1.78-9.08-5.15-4.21-12.82-5.99-19.22-7.14-10.08-1.81-19.91-4.66-29.83-6.91-3.58-.81-8.5-1.39-10.2,2.18-1.45,3.04-3.56,7.92-4.35,11.34Z"></path><path class="cls-3" d="m1159.28,603.39h0c0,4.79-.03,9.62-.04,14.53-.01,1.64-.01,3.27-.02,4.91v2.71c0,.27,0,.53-.01.79.01.15,0,.31,0,.46v.48c-.03,3.33-.05,6.69-.09,10.04-.02,2.75-.05,5.54-.09,8.3v.02c-.35,30.13-1.09,60.04-2.26,83.42-1.82,36.1-8.26,74.11-10.34,110.3-1.95,1.35-4.25,2.39-6.68,3.12-5.15,1.56-10.92,1.76-15.53.43-1.86-.53-3.54-1.3-4.93-2.36l-.68-9.58-1.92-27.9-.52-7.56-4.65-67.38-1.39-19.97-2.59-40.7-.04-.6-1.48-23.39-.51-7.92v-.18s-.02-.13-.02-.13v-.02l-2.03-31.82h0s55.83-.01,55.83-.01Z"></path><path class="cls-1" d="m1103.45,603.38l6.67,104.8,9.16,132.38c1.38,1.05,3.06,1.84,4.92,2.37,4.61,1.32,10.39,1.13,15.53-.44-.24-.26-.57-.48-.67-.82-9.55-32.29-15.99-87.52-14.04-237.85l-21.58-.44Z"></path></g><path class="cls-3" d="m1127.96,603.4c0,1.61-.48,13.72-1.17,29.98v.1c-1.35,32.04-3.49,80.09-4.27,95.58-1.1,21.73-6.29,94.91-8.04,111.34-7.71,3.39-23.4,2.81-29.45.16l-.67-9.58-1.92-27.9-5.18-74.94s-1.1-15.82-1.33-19.3c0-.07-.01-.14-.02-.23-.02-.29-.03-.44-.03-.44-1.12-16.09-2.06-31.73-3.62-47.8-.78-8.1-1.28-16.3-1.2-24.47.12-12.57,1.62-25.1,5.55-37.12,1.79.16,25.27,3.36,39.85,4.61,6.69.57,11.5.74,11.5.01Z"></path><path class="cls-1" d="m1159.28,603.39h0c0,4.79-.03,9.62-.04,14.53-.01,1.64-.01,3.27-.02,4.91v2.71c0,.27,0,.53-.01.79.01.15,0,.31,0,.46v.44c-32.84,16.08-78.53,10.3-88.15,8.66.12-12.57,1.62-25.1,5.55-37.12,1.79.16,25.27,3.36,39.85,4.61h42.82Z"></path></g><path class="cls-10" d="m1159.97,602.4c-.47,5.61-1.08,9.57-1.82,11.08-.39,6.84-73.46,11.24-84.97,3.93,2.57-22.88-2.14-43.1-3.15-66.07-.47-10.81-1.74-21.54-2.6-32.33-.59-7.22-2.59-15.24-1.7-22.64.33-2.69,1.04-5.3,2.34-7.76,2.82-5.27,17.99-9.54,26.35-10.75,12.87-1.85,26.28-2.56,38.78,1.67,5.75,1.97,14.52,3.82,18.85,7.94,6.16,5.85,6.91,14.88,7.6,23.67,1.83,23.63,2.12,69.65.33,91.26Z"></path><path class="cls-5" d="m1117.04,493.58c1.12-.03,2.23-.55,3.03-1.33,1.71-1.67.88-4.68-1.22-5.58-2.2-.94-4.92-.4-5.78,2.08-.9,2.6,1.42,4.89,3.97,4.82Z"></path><path class="cls-5" d="m1115.22,536.13c.48-15.38-.13-30.75-.63-46.13.61-.05,3.57-.22,4.18-.26,2.46,6.7,8.77,37.12,9.5,46.49"></path><path class="cls-17" d="m1159.97,602.4c-.47,5.61-1.08,9.57-1.82,11.08-.39,6.84-73.46,11.24-84.97,3.93,2.57-22.88-2.14-43.1-3.15-66.07-.47-10.81-1.74-21.54-2.6-32.33-.59-7.22-2.59-15.24-1.7-22.64.38-1.61.79-3.23,1.19-4.84,4.27,17.95,7.89,36.06,10.87,54.27,3.71,22.73,9.24,46.73,31.43,58.29,10.26,5.33,22.35,6.98,33.69,4.77,4.82-.94,10.1-2.88,14.52-5.07.35-.17,1.3-.7,2.54-1.39Z"></path><path class="cls-16" d="m1164.73,626.16c-10.2,2.95-20.98,5.06-33.59,6.12-2.72-4.61-6.6-13.04-8.49-18.93-1.38,6.6-4.89,15.24-7.02,19.04-8.66.21-18.63-.11-27.03-.83-7.95-.66-15.61-1.76-22.67-3.28,2.57-22.88,5.11-53.96,4.1-76.94-.47-10.81-1.74-21.54-2.6-32.32-.12-1.43-.34-2.93-.61-4.46-1.06-6.17-2.91-12.95-2.2-18.88.33-2.69.88-4.74,2.29-7.32,1.28-2.36,6.97-5.68,18.24-9.16,17.83,12.81,30.56,33.29,37.05,48.28,3.62-18.13,8.58-38.61,12.42-47.59,5.07,1.18,15.25,4.49,17.73,6.85,6.17,5.84,6.6,15.61,7.29,24.4,2.31,29.76,1.73,59.55,3.61,89.34.37,6.01.87,19.67,1.48,25.68Z"></path><path class="cls-7" d="m1065.93,628.28c2.57-22.88,5.11-53.96,4.1-76.94-.47-10.81-1.74-21.54-2.6-32.32-.12-1.43-.34-2.93-.61-4.46,1.74-4.81,3.68-9.56,5.85-14.22.92-1.97,1.89-3.94,3.22-5.67,1.12,31.87,3.02,63.7,5.68,95.47.54,6.34,1.1,12.68,2.04,18.98,1.02,6.9,2.5,13.73,4.42,20.44.19.65.37,1.32.57,2-7.95-.66-15.61-1.76-22.67-3.28Z"></path><path class="cls-7" d="m1122.33,610.52c-1.4-26.58-1.41-53.24,0-79.82,1.41,26.58,1.4,53.24,0,79.82h0Z"></path><g><circle class="cls-5" cx="1127.16" cy="542.77" r="2.25"></circle><circle class="cls-5" cx="1127.16" cy="573.99" r="2.25"></circle><circle class="cls-5" cx="1127.16" cy="605.64" r="2.25"></circle></g><g><path class="cls-21" d="m1096.03,477.64c2.86,6.42,11.81,8.87,16.11,8.57,7.31-.52,11.11-4.34,10.8-9.11-1.64-1.02-3.31-3.21-4.2-6.47-.24-.85-.43-1.79-.54-2.81-.55-4.9-.38-9.99-.05-14.73h-17.82s0,4.42-.04,8.47c0,2.03-.04,3.97-.08,5.21-.03.53-.05.94-.07,1.17-.51,5.19-1.5,7.57-4.12,9.7Z"></path><path class="cls-15" d="m1100.21,466.77c5.64,3.54,13.05,4.36,18.52,3.86-.24-.85-.43-1.79-.54-2.81-.55-4.9-.38-9.99-.05-14.73h-17.82s0,4.42-.04,8.47c0,2.03-.04,3.97-.08,5.21Z"></path></g><path class="cls-4" d="m1098.11,474.97c.04,5.83,9.65,10.28,17.01,10.39,0,0,7.02-2.6,7.31-8.96l13.2,2.86s.83,10.56-9.6,17.32l-10.04-9.02-6.52,10.81c-16.66-2.42-26.75-18.82-26.75-18.82l15.39-4.57Z"></path><path class="cls-21" d="m1014.58,666.56c3.02,3.73,6.67-.67,8.27-3.34,2.67-4.45,4.57-9.31,6.82-14.02-.49,1.95-1.04,3.69-1.21,5.7-.11,1.21-.42,5.12,1.7,4.82,1.81-.26,3.08-3.43,3.62-4.89.56-1.52.97-3.33,1.42-4.9,1-3.41,1.85-6.87,2.52-10.37.1-.5.19-1.01.27-1.53.65-3.78.9-8.13-3.02-10.18-2.08-1.09-4.65-.21-6.62,1.02-1.73,1.1-3.17,2.67-4.4,4.48-.52.77-1.04,1.57-1.51,2.38-3.42,5.7-5.78,12.21-7.57,18.59-.87,3.09-2.65,9.33-.29,12.25Z"></path><path class="cls-15" d="m1022.44,635.72c1.76.89,3.64,1.51,5.58,1.86,2.72.49,5.79.85,8.53.59.4-.04.91-.07,1.45-.15.65-3.78.9-8.13-3.02-10.18-2.08-1.09-4.65-.21-6.62,1.02-1.73,1.1-3.17,2.67-4.4,4.48-.52.77-1.04,1.57-1.51,2.38Z"></path><path class="cls-21" d="m1136.6,449.29c-.71,5.65-2.2,11.52-6.19,15.58-6.96,7.08-19.52,5.76-26.99-.76-7.47-6.53-10.67-16.74-11.71-26.61-1.7-16.09,6.45-27.61,22.99-27.91,9.41-.17,16.38,1.7,19.56,10.77,3.46,9.88,3.65,18.54,2.34,28.92Z"></path><path class="cls-12" d="m1139.44,407.66c.02-.16,2.22.14,2.42.17.87.16,1.73.42,2.53.8,1.87.9,3.61,2.82,4.26,4.8.97,2.99.51,6.29-.72,9.13-1.95,4.48-6,9.44-10.81,10.8-.12-1.7-.55-3.54-1-5-3.75,1.79-11.18-.86-13.36-4.47-3.58,8.26-12.59,16.09-20.56,17.31-1.54-3.13-5.62-3.67-7.63-1.86-.87.79-2.28,3.06-.53,6.8s3.28,4.84,4.78,5.99c0,0,.46,6.17,1.38,8.64-2.54-2.24-5.17-4.8-7.72-7.04-2.33-2.05-4.67-4.11-6.76-6.42-3.56-3.93-6.37-8.61-7.62-13.75-1.13-4.68-1.2-10.65,1.57-14.78,1.26-1.87,3.05-3.42,5.01-4.51.52-.29,6.12-2,6.08-1.81,2.42-8.06,5.72-12.88,10.86-16.02,5.14-3.14,19.19-7.57,30.97-.61,4.17,2.46,7.45,7.03,6.85,11.83Z"></path><path class="cls-10" d="m1043.92,570.25c.57,3.53,2.98,6.57,6.12,8.8,4.72,3.35,11.83,2.53,15.87-1.62,1.4-1.44,2.44-3.19,3.4-4.96,3.86-7.18,18.17-42.79,19.96-59.51,1.44-13.46-2.09-21.43-8.36-25.95-5.77-4.16-13-.45-16.37,4.32-2.83,4.01-4.36,9.3-5.85,14.48-4.53,15.81-9.37,32.08-12.94,48.08-1.22,5.47-2.73,10.72-1.82,16.35Z"></path><path class="cls-10" d="m1021.69,627.99s19.01-60.47,21.01-65.44c2.87-7.11,4.68-10.99,10.14-12.26,6.26-1.46,19.32,1.81,19.01,14.34-.26,10.4-27.32,71.2-28.21,71.32-9.14,1.22-20.45-4.27-21.96-7.96Z"></path><g><path class="cls-3" d="m1355.58,552.21c0-3.87-31.14-7.01-69.56-7.01s-69.56,3.14-69.56,7.01,31.14,10.19,69.56,10.19,69.56-6.32,69.56-10.19Z"></path><path class="cls-16" d="m1334.95,546.48c0,1.18-.05,2.34-.14,3.49-13.61,4.23-31.27,5.21-48.78,5.21s-34.82-1.24-48.79-5.21c-.09-1.15-.14-2.31-.14-3.49,0-25.6,21.91-46.36,48.93-46.36s48.92,20.77,48.92,46.36Z"></path><path class="cls-3" d="m1287.82,496.81v5.01c-.57.07-1.17.11-1.79.11s-1.22-.04-1.79-.11v-5.01c0-.98.81-1.78,1.79-1.78s1.79.8,1.79,1.78Z"></path><path class="cls-9" d="m1329.07,545.45c-2.85-24.79-18.41-37.34-33.42-40.46,13.11,9.4,18.22,25.06,17.22,42.99,2.7.62,14.71.15,16.2-2.53Z"></path></g><path class="cls-6" d="m1133.18,632.24c.1-.01.22-.02.32-.03-.07.07-.07.42-.18.34-.04-.1-.09-.2-.13-.31Z"></path></g><g><rect class="cls-3" x="1208.27" y="649.17" width="375.32" height="13.79" rx="3.83" ry="3.83"></rect><path class="cls-14" d="m1378.14,662.96h35.57v9.32c0,2.47-2,4.47-4.47,4.47h-26.64c-2.47,0-4.47-2-4.47-4.47v-9.32h0Z"></path><rect class="cls-14" x="1388.52" y="676.74" width="14.81" height="179.74"></rect><rect class="cls-3" x="1333.2" y="849.59" width="125.45" height="13.79" rx="2.89" ry="2.89"></rect></g><g><path class="cls-16" d="m1463.55,619.49c-1.72-2.83-4.09-5.23-5.74-8.13-2.89-5.11-2.34-14.16.06-18.6h-29.15c2.4,4.44,2.95,13.48.06,18.6-1.64,2.89-4.02,5.29-5.74,8.13-3,4.92-3.88,11.07-2.39,16.63,1.5,5.56,5.46,10.45,11.18,13.05h22.93c5.71-2.61,9.68-7.49,11.18-13.05,1.49-5.56.61-11.71-2.39-16.63Z"></path><ellipse class="cls-3" cx="1443.29" cy="592.77" rx="14.58" ry="1.39"></ellipse><path class="cls-22" d="m1436.33,593.06c-5.21-12.48-14.45-19.72-24.66-20.57"></path><path class="cls-22" d="m1442.34,592.05c-3.86-8.4-4.81-18.1-2.64-27.09,2.16-8.99,7.42-17.2,14.68-22.92"></path><path class="cls-22" d="m1444.74,592.92c.76-6.7,3.37-13.18,7.47-18.54"></path><path class="cls-22" d="m1438.12,593.25c-.34-12.01-3.97-23.92-10.38-34.08"></path><g><circle class="cls-10" cx="1425.2" cy="553.44" r="11.37"></circle><path class="cls-22" d="m1421.09,562.97c1.28-2.35,3.27-4.36,5.74-5.4s5.42-1.02,7.76.28"></path><path class="cls-22" d="m1430.6,555.6c-3.12-1.17-4.54-4.91-3.8-8.03"></path><path class="cls-22" d="m1423.46,559.41c-.06.17-.18.32-.33.42.57-2.43.29-5.04-.78-7.29s-2.94-4.11-5.19-5.18"></path><path class="cls-22" d="m1420.4,547.76c3.73,1.02,7.97-.09,10.73-2.82"></path></g><g><circle class="cls-10" cx="1453.49" cy="570.34" r="11.37"></circle><path class="cls-22" d="m1446,578.19c-.22-2.74.87-5.59,2.97-7.35s5.19-2.35,7.73-1.31c2.85,1.16,4.75,4.07,4.41,7.13"></path><path class="cls-22" d="m1458.15,569.06c-.99-.89-1.66-2.14-1.84-3.46-.12-.84-.04-1.75.41-2.47s1.32-1.22,2.16-1.07"></path><path class="cls-22" d="m1448.19,570.17c.32-.89.56-1.83.5-2.77s-.43-1.9-1.16-2.5c-.62-.51-1.43-.72-2.22-.82"></path><path class="cls-22" d="m1449.11,562.88c.15.54.77.79,1.32.86,1.58.21,3.25-.5,4.18-1.79"></path><path class="cls-22" d="m1453.46,564.62c-.55.56-.81,1.39-.67,2.16s.66,1.46,1.37,1.8"></path><path class="cls-22" d="m1451.48,580.58c.5-1.57,1.15-2.53,2.4-3.61s2.94-1.7,4.57-1.44c1.3.2,2.2.72,3.22,1.55"></path></g><g><circle class="cls-10" cx="1458.95" cy="535.25" r="11.37"></circle><path class="cls-22" d="m1449.68,529.75c8.34,1.39,10.41,9.91,7.74,16.24"></path><path class="cls-22" d="m1458.6,540.32c.64-2.19,2.05-4.16,3.92-5.46s4.2-1.95,6.48-1.79"></path><path class="cls-22" d="m1456.66,532.97c2.53-1.43,3.9-4.66,3.17-7.48"></path><path class="cls-22" d="m1461.21,528.17c.28,1.78,1.72,3.33,3.47,3.73"></path></g><path class="cls-22" d="m1448.24,592.84c2.85-3.41,6.83-5.86,11.15-6.89,2.54-.6,5.16-.73,7.77-.85"></path><path class="cls-3" d="m1480.79,588.82c-3.54.89-7.37,1.52-10.76.19-1.55-.61-2.93-1.6-4.4-2.37s-3.16-1.35-4.8-1.03c3.14-.74,6.16-1.59,9.34-1.05,1.57.27,3.07.84,4.54,1.45,2,.82,4.15,1.86,6.09,2.82Z"></path><path class="cls-3" d="m1473.54,599.4c-2.98-.42-6.14-.91-8.44-2.86-1.29-1.09-2.19-2.55-3.23-3.88-1.98-2.55-4.86-4.81-8.08-4.58,3.33-.58,6.89-.09,9.79,1.66,1.38.84,2.61,1.91,3.79,3.01,2.23,2.1,4.25,4.26,6.18,6.65Z"></path><path class="cls-3" d="m1468.25,579.54c-2.06.26-4.12.66-6,1.54-4.12,1.92-6.93,5.88-10.86,8.16,6.16-2.14,11.54-5.91,16.85-9.7Z"></path><path class="cls-3" d="m1416.77,574.64c-2.48-.13-4.98.1-7.46-.05-4.71-.28-9.34-1.94-13.15-4.72,4.32.14,8.64.37,12.95.69,2.09.16,4.2.34,6.18,1.02,1.56.54,2.99,1.37,4.38,2.25,1.6,1.02,3.16,2.1,4.66,3.26-2.3-1.61-4.76-2.32-7.56-2.47Z"></path><path class="cls-3" d="m1417.54,579.09c5.6-.23,10.27,1.49,14.2,5.38-3.87-3.83-10.52-1.06-15.32-1.09-3.37-.03-6.83-.63-9.7-2.39,3.56-.87,7.15-1.74,10.82-1.89Z"></path><path class="cls-3" d="m1415.08,565.12c.41.49,2.21.81,2.84,1.11.99.47,1.94,1.02,2.85,1.63,1.82,1.22,3.46,2.72,4.85,4.41,3,3.63,3.53,7.99,5.94,11.85-2.44-3.04-5.58-5.49-7.76-8.67-2.49-3.65-5.86-6.94-8.72-10.32Z"></path><path class="cls-3" d="m1431.38,587.27c-1.35-.34-2.77-.24-4.13.05-3.94.85-7.73,3.7-8.4,7.67-.43,2.53.44,5.1,1.55,7.41-.78-1.6.36-3.86,1.51-4.96,1.08-1.03,2.41-1.79,3.37-2.94,1.27-1.52,1.82-3.64,3.37-4.88,1-.8,2.37-1.13,3.63-.88s2.39,1.08,3.01,2.21c-.97-1.77-1.8-3.15-3.91-3.69Z"></path></g><g><rect class="cls-16" x="1359.72" y="628.23" width="35.37" height="20.94"></rect><rect class="cls-7" x="1345.13" y="628.23" width="14.59" height="20.94"></rect><polygon class="cls-10" points="1351.65 628.23 1365.26 605.76 1373.6 605.76 1388.75 628.23 1361.37 628.23 1351.65 628.23"></polygon><polygon class="cls-11" points="1365.26 605.76 1373.6 605.76 1361.37 628.23 1351.65 628.23 1365.26 605.76"></polygon></g><g><g><g><polygon class="cls-16" points="1646.54 732.66 1636.67 732.66 1661.39 863.38 1666.07 863.38 1646.54 732.66"></polygon><polygon class="cls-16" points="1596.72 732.66 1606.6 732.66 1581.87 863.38 1577.19 863.38 1596.72 732.66"></polygon></g><path class="cls-9" d="m1640.94,608.59c-.82,3.57-1.41,7.17-1.97,10.59-1.61,9.81-2.53,19.71-3.8,29.56-.91,7.08-1.91,14.15-3.31,21.16-1.1,5.51-1.87,12.32-4.91,17.12-4.09,6.47-12.6,9.77-19.68,11.83-7.56,2.2-15.63,4-22.62,7.72-10.3,5.48-19.53,22.52-8.09,31.82,5.94,4.82,14.62,5.38,21.9,6.29,12.65,1.57,25.49.66,38.12-.64,16.71-1.73,38.15-6.04,45.18-23.67,1.87-4.69,2.34-9.82,2.38-14.86.08-12.87-1.27-22.57-2.42-35.39-1.53-17.11-1.99-53.02-2.23-58.6-.26-6.02-1.24-12.75-3.84-18.19-2.1-4.41-5.72-7.93-10.79-8.62-8.51-1.15-14.1,2.74-17.67,8.04-3.13,4.64-4.97,10.2-6.26,15.85Z"></path></g><path class="cls-5" d="m1635.25,493.57c-7.56-5.53-19.13.73-22.67,5.08-6.13,7.52-7.4,21.07-7.94,23.78-.84,4.2-2.18,7.81-4.3,11.54-2.12,3.72-3.75,8.2-2.3,12.24.8,2.24,2.48,4.08,3.26,6.32,1.22,3.54-.01,7.5-1.95,10.7s-4.54,5.97-6.45,9.2-3.06,7.22-1.75,10.72c.98,2.61,3.24,4.71,3.65,7.47,6.86,1.38,14.1.85,20.69-1.51-.4-5.06,1.93-9.94,4.77-14.15s6.25-8.07,8.46-12.63,3.07-10.19.62-14.63c-1.35-2.44-3.55-4.28-5.41-6.35-5.64-6.27-8.27-15.14-6.95-23.47,1.25-7.96,5.61-19.44,15.04-20.62"></path><g><path class="cls-2" d="m1505.75,775.66c3.35-17.43,6.71-34.9,11.81-51.82,1.98-6.57,5.01-13.89,11.11-15.74,4.88-1.49,10.26,1.38,13.24,5.86,4.89,7.35,5.34,19.37,3.14,27.79-2.79,10.69-7.53,20.61-12.22,30.42-7.72,16.15-14.83,32.44-21.74,49.02-1.05,2.51-2.14,5.09-3.98,6.98-5.19,5.31-12.06.42-11.53-6.41.36-4.66,2.4-9.44,3.26-13.98,2.05-10.9,4.84-21.24,6.93-32.12Z"></path><path class="cls-2" d="m1549.01,773.8c-2.92-16.56-5.84-33.16-7.02-49.87-.46-6.49-.23-14,4.59-17.73,3.86-2.99,9.65-2.3,13.83.64,6.87,4.82,11.35,15.3,12.24,23.49,1.13,10.41.25,20.81-.61,31.09-1.43,16.93-.74,33.52-1.29,50.55-.08,2.58-.44,5.44-1.45,7.74-2.84,6.47-10.81,4.26-12.66-1.96-1.26-4.24-1.46-8.61-2.24-12.92-1.87-10.34-3.57-20.7-5.39-31.04Z"></path><g><path class="cls-2" d="m1460.41,856.22c-1.92,1.57-3.5,3.67-.87,4.89,2.62,1.22,5.68,1.05,8.21.96,2.53-.09,7.17-.26,10.75-.44,3.58-.17,6.82-.44,9.79-2.01,2.97-1.57,4.81-4.98,7.08-7.69,2.84-3.43,6.55-6.03,10.75-7.52,1.1-.31,2.15-.75,3.15-1.31,1.49-1.12,2.54-2.73,2.97-4.54.77-2.63.71-5.44-.17-8.04-.7-2.18-1.22-3.76-.96-6.03.26-2.27,2.1-7.3,3.29-11.41.17-1.75-15.28-4.72-16.25-1.56-1.67,5.44-5.11,17.01-11.34,26.68-2.95,3.65-6.46,6.8-10.4,9.35-4.37,2.45-9,4.37-13.37,6.82-.93.52-1.81,1.14-2.62,1.84Z"></path><path class="cls-5" d="m1446.17,863.38h44.22c4.63-6.69,10.44-12.49,17.13-17.13.44,1.92,1.66,17.13,1.66,17.13h3.06c.17-2.62.96-10.31,1.31-14.94.35-4.63,2.18-9.44,2.1-13.81-.03-4.05-1.97-7.84-5.24-10.22-5.33,6.64-10.66,13.11-16.17,19.57-1.14,1.22-2.27,2.53-3.5,3.67-5.48,4.92-13.01,6.87-20.19,5.24-1.15-.15-2.23-.67-3.06-1.49-3.67.79-15.2,5.07-21.32,11.97Z"></path></g><g><path class="cls-2" d="m1542.56,856.4c-1.86,1.53-3.38,3.57-.83,4.75,2.54,1.18,5.51,1,7.96.91,2.46-.09,6.94-.27,10.42-.45,3.47-.18,3.25-4.15,5.26-6.71,2.01-2.57,2.28-6.31,3.22-9.6,1.15-4.16,3.41-7.93,6.54-10.9.85-.71,1.61-1.51,2.27-2.4.87-1.58,1.17-3.42.83-5.2-.36-2.64-1.52-5.1-3.33-7.05-1.48-1.66-2.57-2.84-3.23-4.96-.67-2.11-1.03-7.29-1.59-11.4-.54-1.62-15.39,1.87-14.99,5.04.68,5.47,2.2,17.07.51,28.1-.83,3.12-2.77,11.07-5.84,15.49-1.26,1.81-6.4,3.7-7.18,4.38Z"></path><path class="cls-5" d="m1528.77,863.38l36.39-.08s7.85-21.09,11.93-27.84c1.15,1.53,8.24,14.5,8.24,14.5l2.71-1.21c-.88-2.39-3.23-9.51-4.75-13.74-1.52-4.24-1.8-9.22-3.6-13.05-1.62-3.57-4.85-6.16-8.68-6.98-2.09,7.98-4.25,15.81-6.57,23.71-.52,1.53-1.01,3.14-1.64,4.63-2.91,6.52-3.46,11.38-10.42,9.82-1.12-.14-2.16-.64-2.97-1.43-3.56.77-14.72,4.95-20.64,11.66Z"></path></g><path class="cls-3" d="m1667.82,701.78c.04,7.26-2.23,14.85-7.62,19.72-5,4.53-12.36,7.41-19.06,8.27-18.84,2.42-34.82,6.06-51.8,6.21h0s-2.67,32.68,3.91,63.27l-6.37-1.51-5.71,6.6-10.51-4.53-8.7,6.84-6.96-6.17-6.75,6.09-8.06-5.34-7.67,6.15c-2.84-2.04-8.56-6.97-8.56-6.97l-8.62,6.73-6.45-7.72-9.7,5.28-6.11-7.56c-2.52,2.02-4.68,3.43-7.19,5.45,0,0-2.58-4.96-3.85-7.44,6.31-18.95,12.61-37.9,18.92-56.84,2.59-7.8,5.19-15.6,8.12-23.28,3.53-9.28,7.33-17.98,16.89-22.25,4.85-2.17,36.7-13.89,73.77-23.84,2.71-.73,5.44-1.45,8.2-2.15,24.31,10.64,52.94,8.31,52.94,8.31,3.02,4.37,4.99,13.02,6.03,19.33.62,3.68.91,6.57.92,7.35Z"></path><path class="cls-1" d="m1666.9,694.43c-11.86,1.19-24.07-.86-35.39-4.81-12.04-4.21-23.72-11.02-31.78-20.68,2.71-.73,5.44-1.45,8.2-2.15,24.31,10.64,52.94,8.31,52.94,8.31,3.02,4.37,4.99,13.02,6.03,19.33Z"></path><polygon class="cls-1" points="1493.06 797.13 1512.78 727.72 1499.18 804.69 1493.06 797.13"></polygon><polygon class="cls-1" points="1515.33 807.14 1508.88 799.42 1523.95 727.04 1515.33 807.14"></polygon><polygon class="cls-1" points="1532.51 807.38 1523.95 800.41 1534.9 729.6 1532.51 807.38"></polygon><polygon class="cls-1" points="1540.18 801.23 1548.24 727.72 1548.24 806.57 1540.18 801.23"></polygon><polygon class="cls-1" points="1561.95 806.65 1554.99 800.47 1558.95 734.06 1561.95 806.65"></polygon><polygon class="cls-1" points="1570.65 799.81 1571.27 730.62 1581.16 804.34 1570.65 799.81"></polygon></g><path class="cls-16" d="m1665.21,680.66c-6.89,2.64-14.28,3.84-21.68,3.86-3.71.01-7.42-.27-11.08-.81-10.98-1.62-25.85-5.35-35.07-15.39,0,0,7.91-18.61,4.62-35.26-.1-.53-.2-1.07-.5-1.51-.31-.47-.8-.78-1.26-1.1-5.52-3.97-6.29-12.81-4.44-18.88.88-2.87,2.44-5.47,4.01-8.03,5.46-8.95,10.68-19.98,17.9-27.59,0,0,2.65-2.58,4.26-3.67,3.35-2.27,7.24-3.06,11.69-3.33,4.8-.28,8.88-1.24,13.04,1.11,1.3.74,2.53,1.59,3.67,2.55,3.46,2.92,5.54,6.4,6.83,10.18,1.86,5.46,2.05,11.55,2.32,17.52,1.18,26.38-1,54.77,5.69,80.35Z"></path><path class="cls-7" d="m1665.21,680.66c-6.89,2.64-14.28,3.84-21.68,3.86,1.49-4.23,2.55-8.47,3.37-11.49,1.42-5.3,2.39-10.71,3.29-16.13,4.08-24.49,6.77-49.3,7.01-74.11,1.86,5.46,2.05,11.55,2.32,17.52,1.18,26.38-1,54.77,5.69,80.35Z"></path><g><g><path class="cls-2" d="m1647.33,570.4c-16.76,10.69-29,8.68-29.62,5.55,1.43-1.43,5.62-5.12,7.2-9.16.08-.19.11-.41.15-.62,1.52-6.42.48-15.73.16-20.32h17.81s0,4.42.04,8.47c.01,1.4.02,2.76.05,3.88.01.5.02.95.03,1.33.03.53.05.93.06,1.16.52,5.19,1.5,7.57,4.12,9.71Z"></path><path class="cls-18" d="m1643.12,558.2c-3.94,6.34-11.89,8.55-18.06,7.97,1.52-6.42.48-15.73.16-20.32h17.81s0,4.42.04,8.47c.01,1.4.02,2.76.05,3.88Z"></path></g><path class="cls-2" d="m1608.77,538.92c.19,5.69,1.12,11.68,4.72,16.09,6.27,7.69,18.9,7.54,26.95,1.73,8.04-5.81,12.17-15.68,14.12-25.41,3.18-15.86-3.87-28.09-20.31-29.91-9.35-1.04-16.47.18-20.48,8.92-4.36,9.51-5.34,18.13-5,28.58Z"></path></g><path class="cls-5" d="m1668.69,517.15c1.37,3.71,5.03,6.06,7.09,9.43,2.02,3.3,2.39,7.45,1.55,11.24-1.16,5.29-3.87,9.91-1.97,15.4,1.5,4.34,5.12,7.74,5.89,12.37.93,5.57-2.62,10.59-4.16,15.7-.75,2.49-2.24,9.43,5.71,12.43-.24-.09-2.66,1.89-3.04,2.11-1.14.69-2.32,1.3-3.54,1.82-2.35,1.01-4.83,1.72-7.37,2.06-4.61.62-10.28-1.04-13.57-4.48-2.83-2.95-3.7-6.99-5.32-10.59-1.45-3.23-5.65-4.92-9.05-4.33-5.65.97-9.11,7.01-14.52,8.92-2.18.77-4.55.81-6.86.84-1.72.02-9.63-.16-8.71,3.47-.49-1.91.12-4.05,1.53-5.42,1.74-1.68,4.22-3.05,4.09-5.8-.06-1.35-.55-2.65-.66-3.99-.23-3.02,1.71-6.09,4.54-7.17,2.49-.95,5.29-.43,7.92-.87,2.77-.46,5.34-2.03,7.01-4.29,1.96-2.65,2.85-6.69,1.74-9.86-1.7-4.84-3.61-11.07-2.17-16.16.46-1.64,1.23-3.3.95-4.98-.3-1.77-1.73-3.15-3.31-4.01s-3.34-1.32-4.98-2.04c-5.75-2.54-9.17-6.61-8.54-14.3-3.21,12.01-11.13,11.55-10.87,9.66.41-2.99.57-6,.95-8.99.79-6.06,3.05-11.41,6.55-16.39,5.5-7.82,14.49-8.63,19.67-5.33,7.32-3.31,14.94-2.36,19.96-.37,12.92,5.13,12,19.96,13.48,23.95Z"></path><path class="cls-10" d="m1581.98,633.57c-.91,2.99,0,6.27,1.86,9.18,2.81,4.38,9.39,6.38,14.6,4.62,1.81-.61,3.42-1.6,4.97-2.63,6.27-4.21,11.15-9.51,16.82-14.28,5.63-4.75,10.78-10.04,15.83-15.32,3.27-3.42,6.8-6.85,9.68-10.79,1.53-2.1,2.87-4.35,3.89-6.8,2.57-6.26,2.71-12.99-1.65-16.95-4.24-3.85-10.75-4.22-16.31-1.37-4.09,2.1-7.55,5.68-10.93,9.2-10.31,10.74-21.08,21.72-30.61,32.97-3.26,3.85-6.68,7.41-8.14,12.17Z"></path><path class="cls-2" d="m1501.02,649.5c5.38-.04,37.79-.45,37.79-.45,6.2-6.48-3.77-11.71-3.85-11.71-3.24.18-34.79,2.72-39.59,10.12-1.36,2.09,2.16,2.05,5.65,2.03Z"></path><path class="cls-10" d="m1534.39,632.66s49.22-9.11,54.39-9.31c7.41-.29,11.47.11,14.7,3.97,3.7,4.43,5.84,15.94-5.39,20.19-9.32,3.53-67.34,1.74-67.34,1.74-2.72-4.6-.28-14.98,3.64-16.6Z"></path><path class="cls-1" d="m1593.24,799.25l-6.37-1.51s-1.75-43.63,2.46-61.76c0,0-2.67,32.68,3.91,63.27Z"></path></g><g><path class="cls-10" d="m1596.96,444.09c0-12.8-10.38-23.18-23.18-23.18h-88.36c-12.8,0-23.18,10.38-23.18,23.18s10.38,23.18,23.18,23.18h73.25c4.4,6.9,10.29,12.87,17.15,17.35,3.27,2.14,7.44-1.27,5.96-4.89-.73-1.8-1.33-3.65-1.82-5.53-.63-2.45-1.06-4.93-1.38-7.44,10.5-2.21,18.38-11.52,18.38-22.68Z"></path><path class="cls-16" d="m1512.06,443.89c0,2.64-2.14,4.77-4.77,4.77-2.64,0-4.77-2.14-4.77-4.77,0-2.64,2.14-4.77,4.77-4.77s4.77,2.14,4.77,4.77Z"></path><path class="cls-16" d="m1531.29,443.89c0,2.64-2.14,4.77-4.77,4.77-2.64,0-4.77-2.14-4.77-4.77,0-2.64,2.14-4.77,4.77-4.77,2.64,0,4.77,2.14,4.77,4.77Z"></path><path class="cls-16" d="m1550.51,443.89c0,2.64-2.14,4.77-4.77,4.77-2.64,0-4.77-2.14-4.77-4.77,0-2.64,2.14-4.77,4.77-4.77,2.64,0,4.77,2.14,4.77,4.77Z"></path></g><g><path class="cls-10" d="m1145.6,345.17c0-12.8,10.38-23.18,23.18-23.18h88.36c12.8,0,23.18,10.38,23.18,23.18,0,12.8-10.38,23.18-23.18,23.18h-73.25c-4.4,6.9-10.29,12.87-17.15,17.35-3.27,2.14-7.44-1.27-5.96-4.89.73-1.8,1.33-3.65,1.82-5.53.63-2.45,1.06-4.93,1.38-7.44-10.5-2.21-18.38-11.52-18.38-22.68Z"></path><circle class="cls-16" cx="1235.28" cy="344.97" r="4.77"></circle><circle class="cls-16" cx="1216.05" cy="344.97" r="4.77"></circle><circle class="cls-16" cx="1196.82" cy="344.97" r="4.77"></circle></g><g><circle class="cls-10" cx="1589.8" cy="379.55" r="5.36"></circle><circle class="cls-10" cx="1607.56" cy="379.55" r="5.36"></circle><circle class="cls-10" cx="1625.32" cy="379.55" r="5.36"></circle></g></g></svg>