<svg xmlns="http://www.w3.org/2000/svg" xmlns:xlink="http://www.w3.org/1999/xlink" viewBox="0 0 1920 1080"><defs><style>.cls-1,.cls-12,.cls-13,.cls-15,.cls-21,.cls-7{fill:none;}.cls-2{fill:#fff;}.cls-3{fill:#f6f0ff;}.cls-4{fill:#dfd3f0;}.cls-5{fill:#d0adff;}.cls-6{fill:#bc95f0;}.cls-12,.cls-13,.cls-7{stroke:#260d46;}.cls-12,.cls-13,.cls-15,.cls-21,.cls-7{stroke-linecap:round;stroke-linejoin:round;}.cls-7{stroke-width:17px;}.cls-8{fill:#260d46;}.cls-9{fill:#e8d7ff;}.cls-10{fill:#411180;}.cls-11,.cls-20{fill:#6122b2;}.cls-12,.cls-15,.cls-21{stroke-width:2px;}.cls-13{stroke-width:7px;}.cls-14{fill:#91db9b;}.cls-15{stroke:#f6f0ff;}.cls-16{clip-path:url(#clip-path);}.cls-17{fill:#110b1d;}.cls-18,.cls-19{fill:#666;}.cls-18{fill-rule:evenodd;}.cls-20{font-size:80px;font-family:Monosten-Bold, Monosten;font-weight:700;}.cls-21{stroke:#fff;}.cls-22{fill:#cba6ff;}</style><clipPath id="clip-path"><rect class="cls-1" x="77.5" y="65.8" width="353.3" height="91.34"/></clipPath></defs><g id="Illustration"><rect class="cls-2" width="1920" height="1080"/><path class="cls-3" d="M848.7,891.3C774.9,865.2,786,771.1,837,732.1c53.2-40.8,110.7-86.1,120-155,8.1-59.4-23.8-110.1-34.4-166.4-11-58.4-.8-121,29.8-172.1,40.3-67.5,114.8-113.3,193.1-118.7,24.3-1.6,49.1.4,72,8.4,87.8,30.4,131.4,138,219.8,166.1,63.4,20.2,132.9-6.3,198.3,5.7,51.5,9.4,97.4,43.4,123.9,88.6,33.3,56.7,34.5,115.8,7.8,173.4-22.8,48.9-79.9,110.7-68.4,167.9,6.5,32.4,33.9,56.7,52,84.9s23.4,71.2-5.9,88.9"/><path class="cls-3" d="M932.2,587.5a81.2,81.2,0,0,1-34.3,45.9c-6.2,3.9-13,7-20.3,7.9-36,4.7-53.7-28.6-54.1-60.6-.5-46,19.2-74.4,64.8-74C927.7,506.9,941.3,555.5,932.2,587.5Z"/><path class="cls-3" d="M1515.2,270.7c31.7-9.9,48.2-42.9,38.4-72.2-20.2-61-127-80.5-160.8-26.9C1355,231.4,1451.8,290.5,1515.2,270.7Z"/><path class="cls-4" d="M1108,912.6a802.4,802.4,0,0,1,103.7-363.5c10.8-19,27.4-40.1,49-37.2a1932.5,1932.5,0,0,0-70.1,389.8"/><path class="cls-4" d="M1022.3,904.7q-3-157.2,7.5-314.5c.4-6.2.9-12.6,4.3-17.8s10.7-8.4,16-5.2c2.8,1.8,4.5,4.8,5.9,7.8,10.4,21.7,15.4,45.6,19.5,69.3,14.7,85.9,18,173.3,20.3,260.5"/><path class="cls-4" d="M1416.7,927.7a899.5,899.5,0,0,1,78-309.5c7.3-16.1,15.2-32.1,26.6-45.6,3-3.5,6.4-7,10.9-8,7.3-1.6,14.5,4.3,17,11.3s1.6,14.6.5,22c-15.8,105.6-49.5,209.1-51.2,315.9a629.7,629.7,0,0,1,52.3-171.2c8.5-18.1,19.1-37,37.3-45.5,2.5-1.2,5.3-2.2,8.1-1.8s6.7,3.2,8.9,6.2c9.7,13.4,6.6,31.8,3.1,47.9q-17.5,81.5-35.2,162.7"/><path class="cls-4" d="M1643.5,923.2q3.6-61.5,8.5-122.8c.4-5.8.9-11.8,3.8-16.8s8.9-8.8,14.5-7.2c4,1.1,6.9,4.7,9.3,8.2,23.4,34.4,25,78.5,25.8,120.1"/><path class="cls-4" d="M911.4,907.1l-11-58.6c-5.1-27.2-10.3-54.4-11.2-82-.5-13.7,2.5-30.8,15.6-34.7,10.6-3.2,21.3,4.5,28.9,12.6,40.5,43,52.7,104.7,63.1,162.8"/><path class="cls-5" d="M1786.1,904.1c-3.5-7.9-15.4-10.1-25.3-11-70.3-6.3-141-4.5-211.4-1.9-35,1.3-62.3,2.3-95.6-5.3-28.6-6.5-58.9-7-88.3-7.5h-1.8c-105.3-1.6-217.1-6.8-322.4-4.8-53.5,1-253.5-3.4-257.4,18.5s69.2,17.4,83.6,19.3c12.6,1.6,26,4.8,33.2,13.5,3,3.7,4.7,8.1,7.9,11.6,7.6,8.6,21.6,10.7,34.2,11.9a992.3,992.3,0,0,0,188,.2c23.9-2.2,47.8-5.8,71.9-4.9s50,7.1,74.8,12.8c26.8,6.2,53.9,11.2,81.1,15,40.5,5.7,83.4,8.4,120.9-7.9,19.2-8.4,32.3-16.7,53.1-18.2,24.5-1.7,49-4.1,73.5-6.2l147-12.5c8.3-.7,16.8-1.5,23.8-5.2S1788.9,910.5,1786.1,904.1Z"/><ellipse class="cls-6" cx="1314.4" cy="915" rx="157" ry="6.6"/><polyline class="cls-7" points="1322.5 776 1347.5 844.8 1400.7 846"/><path class="cls-8" d="M1391.2,833.1h35.4a0,0,0,0,1,0,0v4a17.7,17.7,0,0,1-17.7,17.7h0a17.7,17.7,0,0,1-17.7-17.7v-4A0,0,0,0,1,1391.2,833.1Z" transform="translate(1858.9 -735.5) rotate(75)"/><circle class="cls-9" cx="1347.2" cy="844.4" r="12.9"/><circle class="cls-8" cx="1347.2" cy="844.4" r="6.7"/><line class="cls-7" x1="1273.9" y1="768.8" x2="1273.9" y2="903.4"/><path class="cls-8" d="M1256.2,892.5h35.4a0,0,0,0,1,0,0v4a17.7,17.7,0,0,1-17.7,17.7h0a17.7,17.7,0,0,1-17.7-17.7v-4A0,0,0,0,1,1256.2,892.5Z" transform="translate(2547.8 1806.7) rotate(-180)"/><circle class="cls-9" cx="1273.8" cy="841.6" r="12.9"/><circle class="cls-8" cx="1273.8" cy="841.6" r="6.7"/><path class="cls-10" d="M1241.5,729.1H1306l-11.6,63.8a13,13,0,0,1-12.8,10.7h-17.1a13,13,0,0,1-12.8-11Z"/><path class="cls-11" d="M1278.6,749.7l60.6-22,10.8,64.1a12.7,12.7,0,0,1-8.2,14.2l-16.5,5.9a12.7,12.7,0,0,1-15.5-5.8Z"/><path class="cls-7" d="M1262.3,559.6c-76.7,48-104.5-24-67-94.5"/><circle class="cls-9" cx="1262.2" cy="555.7" r="12.9"/><circle class="cls-8" cx="1262.2" cy="555.7" r="6.7"/><path class="cls-11" d="M1234.6,754.5c15.3,22.8,38.2,30.4,61.3,30.6a133,133,0,0,0,25.3-2.2c38.9-7.1,61.3-42.2,61.9-81.9.7-43.6-14-87.3-25.8-129.6q-2.4-8.2-4.5-16.5c-5.2-20.3-10.4-40.6-13.6-61.4-3.6-23.8-3.9-48.8-4-73.3,0-8.3-.1-16.5-.2-24.6,0-1.4,0-2.7-.1-4.1h0a89.6,89.6,0,0,0-1.7-14.5c-2.9-14.3-9.9-27.1-26.1-30.6-14-3-24.9,3.6-31.1,16-5.4,10.7-6.3,14.5-6.4,21.3h0c0,3,.2,6.6.2,11.8.3,39.6-7.1,91.8-16.4,130.1-12,49-29.3,94.9-34.3,145.2C1216.7,695.5,1215.1,725.5,1234.6,754.5Z"/><path class="cls-10" d="M1295.9,785.1a133,133,0,0,0,25.3-2.2c38.9-7.1,61.3-42.2,61.9-81.9.7-43.6-14-87.3-25.8-129.6q-2.4-8.2-4.5-16.5c-5.2-20.3-10.4-40.6-13.6-61.4-3.6-23.8-3.9-48.8-4-73.3-12.3,74.6,10.1,168,14.6,185.4,9.7,37.7,25.1,83.4,12.6,120.3C1353.1,753.5,1339.5,775.9,1295.9,785.1Z"/><path class="cls-11" d="M1258.1,343.1l1.3-2.1,4.7-7.5c-1.5,0-2.7-1.5-2.9-3a9.8,9.8,0,0,1,1-4.4c2.6-6.2,5.9-12.1,7.8-18.6s3.8-12.1,7.4-17a20.3,20.3,0,0,1,7.9-6.3c4-1.9,8-1.7,12.3-2,7.7-.5,16.6,1.9,21.3,8.3s6.3,13.1,9.4,19.7,7.3,14.5,11.4,21.5a10.7,10.7,0,0,1,1.8,4.1,4.2,4.2,0,0,1-1.3,4.1,2.6,2.6,0,0,1-3.8-.8,47.8,47.8,0,0,1,6.4,19.5c.3,2.4.4,5.9-2.6,6.7a6.7,6.7,0,0,1-4.1-.7,9.3,9.3,0,0,1-.2,4.7,3.4,3.4,0,0,1-3.6,2.5,11.1,11.1,0,0,1-1.2,6,11.5,11.5,0,0,1-4.8,4.2,55.3,55.3,0,0,1-13.7,4.6c-2.4.5-4.9.8-7.3,1.1a43.8,43.8,0,0,1-7.1.7c-13.2-1.1-28.3-2.3-37-13.4a17.5,17.5,0,0,1-3.1-7.9c-.2-1.2-.8-8.3.7-8.8a3.4,3.4,0,0,1-3.9-1.9,7.5,7.5,0,0,1-.5-4.7A27.3,27.3,0,0,1,1258.1,343.1Z"/><path class="cls-11" d="M1291.8,274.2l.3-.2a4.4,4.4,0,0,1,2.9-1.1c1.8,0,3.1,1.9,3.2,3.8a11.1,11.1,0,0,1-1.5,5.2l5.9-7a26.1,26.1,0,0,1,5.8-5.7c2-1.2,4.7-2.4,7.1-2s3.2,3.9,2.6,6.4a22.5,22.5,0,0,1-1.9,4.5l-3.3,6a13,13,0,0,1,3.2-3.4,4.9,4.9,0,0,1,4.5-.5c3.4,1.8,2.5,6.9,1.4,9.7-3.3,9.2-13.7,15.2-23.3,13.6-2.6-.5-5.2-1.4-7.8-1.4-6.3-.1-11.2,5.1-12,11-4.6-3.3-5.6-11.2-3.9-16.3a44.1,44.1,0,0,1,7.3-12.6C1285.1,280.5,1287.9,276.9,1291.8,274.2Z"/><path class="cls-11" d="M1252,295.6c-2.9-11-.4-22.9,5.2-33.3,1.4-2.7,3.9-5.7,7.1-5.3,5.8.6,6.1,8.8,6.3,12.6a94.3,94.3,0,0,0,3.2,19c2.2,7.8,6.9,14.8,9.1,22.5a5,5,0,0,1,.2,2.1c-.3,1.8-2.5,3-4.6,3.4a18.5,18.5,0,0,1-9.3-1.2C1259.9,311.6,1254.4,304.6,1252,295.6Z"/><path class="cls-8" d="M1270.4,303.9a3.4,3.4,0,0,1-2.7.8,7.4,7.4,0,0,1-2.7-1,18,18,0,0,1-7.3-9.6,32.4,32.4,0,0,1-.8-11.6c.3-3.3.8-8,3.3-10.5a2.8,2.8,0,0,1,3.6-.6c1.1.8,1.2,2.2,1.3,3.4s.4,3.5.7,5.2c.6,3.5,1.4,6.9,2.3,10.2s2.3,5.3,3,8S1271.8,302.6,1270.4,303.9Z"/><path class="cls-11" d="M1345.3,293.3c.9-11.4-3.7-22.7-11-31.9-1.9-2.4-4.8-4.9-7.9-4-5.6,1.6-4.5,9.7-4,13.5a89,89,0,0,1,.2,19.3c-.8,8.1-4.2,15.8-5,23.7a4.9,4.9,0,0,0,.1,2.1c.7,1.8,3.1,2.6,5.2,2.6a16.5,16.5,0,0,0,8.9-2.9C1340.4,310.4,1344.5,302.6,1345.3,293.3Z"/><path class="cls-8" d="M1328.7,304.7a3.2,3.2,0,0,0,2.7.3,7.3,7.3,0,0,0,2.5-1.5,18.2,18.2,0,0,0,5.5-10.7,34.2,34.2,0,0,0-1.2-11.5c-.9-3.3-2.3-7.9-5.2-9.9-1.1-.7-2.7-.9-3.6.1s-.8,2.4-.7,3.6.2,3.5.2,5.2a92.1,92.1,0,0,1-.4,10.5c-.3,2.8-1.3,5.6-1.6,8.4S1327,303.7,1328.7,304.7Z"/><path class="cls-9" d="M1271.5,351a62.4,62.4,0,0,1,2-6.9c2.8-8.4,8.2-23.3,18.9-23.3,6.5.1,11.8,5.7,14.6,12.1.7,1.7,1.5,3.3,2.2,4.9,2.7,6.4,9.9,24.8-1.9,26.5a6.5,6.5,0,0,0-1.6.3,4.7,4.7,0,0,0-1,1c-2.9,3.7-7.8,6.4-12.5,6.3a16.5,16.5,0,0,1-12.1-6.3,9.4,9.4,0,0,0-1-1,9,9,0,0,0-1.6-.3,7.8,7.8,0,0,1-6-5.3A18,18,0,0,1,1271.5,351Z"/><path class="cls-8" d="M1291.8,345.9c-.4.4-.7-.4-.7-.8a7.3,7.3,0,0,1,1.1-4.3,10,10,0,0,1,6.5-5.4c1.4-.4,3.5-.9,4.9-.1s-.1,3.6-1.4,4.4a10.8,10.8,0,0,1-4.3,1.3,5.3,5.3,0,0,0-2.5.5c-1.7.8-2.3,3-3.6,4.4Z"/><path class="cls-8" d="M1291.1,345.9c.4.4.6-.4.7-.8a9.2,9.2,0,0,0-1.1-4.3,10.5,10.5,0,0,0-6.5-5.4c-1.4-.4-3.6-.9-4.9-.1s0,3.6,1.3,4.4a11.2,11.2,0,0,0,4.4,1.3,4.9,4.9,0,0,1,2.4.5c1.7.8,2.3,3,3.6,4.4Z"/><path class="cls-12" d="M1291.8,344c-.4,7.1-.3,4.6-.4,11.8"/><path class="cls-12" d="M1291.5,354.6c0,1.1,0,2.4-.9,3.2a4.5,4.5,0,0,1-3.2.7,10,10,0,0,1-6.6-3.3"/><path class="cls-12" d="M1291.4,354.6a3.2,3.2,0,0,0,4.1,3.9,10,10,0,0,0,6.6-3.3"/><path class="cls-8" d="M1283.2,356.9a9.5,9.5,0,0,0,5.4,4,9.7,9.7,0,0,0,6.7-.7c2.1-1.1,3.7-2.9,5.8-4a27.8,27.8,0,0,1-4.8,1.8,7.7,7.7,0,0,1-2.6.3,2.6,2.6,0,0,1-2.1-1.4,4.7,4.7,0,0,1-4.2,1.4A8.7,8.7,0,0,1,1283.2,356.9Z"/><path class="cls-12" d="M1306.8,383c-10.8,5.8-22,4.7-31.4-1"/><path class="cls-12" d="M1303.9,314.7a5.1,5.1,0,0,0,4.7,4.1,5.3,5.3,0,0,0,5.4-4.4"/><path class="cls-12" d="M1274,314.7a5.2,5.2,0,0,0,4.7,4.1,5.4,5.4,0,0,0,5.5-4.4"/><path class="cls-7" d="M1340.9,557.5c5.1,61.8,52.7,99.8,90.8,111.7"/><circle class="cls-9" cx="1339.2" cy="553.9" r="12.9"/><circle class="cls-8" cx="1339.2" cy="553.9" r="6.7"/><polyline class="cls-13" points="1433.5 669.8 1450.2 662.2 1459.5 666.8"/><polyline class="cls-13" points="1433.2 670.3 1437.2 688.3 1446.5 692.9"/><circle class="cls-9" cx="1431.7" cy="669.2" r="12.9"/><circle class="cls-8" cx="1431.7" cy="669.2" r="6.7"/><path class="cls-12" d="M1199.5,500.3c-1.9-20.7-3.2-40.4,4.3-60,8.3-22,23.8-36.9,42.8-51.6"/><path class="cls-5" d="M1286.5,378.7c-6.7,7.8-13.5,17.7-27.5,17.6-4.5,0-12.1-1.9-15.1-5.7-4.4-5.5-4.9-15.7.1-22.3a42.3,42.3,0,0,1,23-15.1,53.7,53.7,0,0,0-4.3,12.2,62.2,62.2,0,0,0,14.3-1c-1.2,3.9-3,8.3-4.2,12.2A94.7,94.7,0,0,0,1286.5,378.7Z"/><path class="cls-12" d="M1244.6,390.3c8.4-1.9,15.1-8.4,17.8-23.3"/><path class="cls-14" d="M1189.3,435.8c1-23.6,8.2-47.5,23.5-65.5.7-.9,1.8-1.8,2.9-1.5s1.4,1.7,1.4,2.8c.4,4.3-.4,8.6-1.3,12.9-5.8,28-14.3,55.6-15.7,84.2-.5,11.5,1,23,.7,34.4-4.4-.2-8.2-27.6-9-32A167.4,167.4,0,0,1,1189.3,435.8Z"/><path class="cls-15" d="M1199.4,498.2c-2.1-20.8-3.2-41.8-1.4-62.7s6.4-41.6,15.2-60.6"/><path class="cls-12" d="M1258,380.2c3.6-3.4,9.1-4.8,13-3.7"/><path class="cls-7" d="M1179.7,511.6a140.2,140.2,0,0,1,15.6-46.5"/><polyline class="cls-13" points="1196.3 463.5 1214.2 459.5 1205.9 446"/><polyline class="cls-13" points="1195.8 463.3 1188.1 446.6 1202.7 444.5"/><path class="cls-14" d="M1217.9,415.4c-8.2,4.2-15,21.5-19.2,33.8a57.4,57.4,0,0,0-2,7.4c-3.1,14.2-2.3,31.3,3,44.5a92.6,92.6,0,0,1,1.4-18.9c.6-3.6,1.4-7.2,2.3-10.8s2.7-7.4,2.7-10.6q2.9-9.4,6-18.9c2.3-7.3,4.7-14.7,7.4-21.8a11.9,11.9,0,0,0,.7-2.7A1.8,1.8,0,0,0,1217.9,415.4Z"/><path class="cls-15" d="M1199,498.2c-2.6-25.3,4.3-55.3,18.9-79.1"/><circle class="cls-9" cx="1195.3" cy="465.1" r="12.9"/><circle class="cls-8" cx="1195.3" cy="465.1" r="6.7"/><g class="cls-16"><g class="cls-16"><path class="cls-17" d="M201.1,89.8a2.2,2.2,0,0,1,4.4-.4.3.3,0,0,1,0,.4v.5a5.3,5.3,0,0,1,1.6-2.3,5.1,5.1,0,0,1,3.1-1.1c3,0,4.9,1.2,5.5,3.5a5,5,0,0,1,1.9-2.4,6,6,0,0,1,3.4-1.1c4.1,0,6.1,2.6,6.1,6.6v15.9a2.2,2.2,0,0,1-2,2.4,2.1,2.1,0,0,1-2.3-2c-.1-.2-.1-.3,0-.4V94.8c0-2.8-.9-4-2.8-4s-3.7,2.2-3.7,6.6v12a2.2,2.2,0,0,1-2,2.4,2.1,2.1,0,0,1-2.3-2c-.1-.2-.1-.3,0-.4V94.8c0-2.8-.8-4-2.8-4s-3.7,2.4-3.7,7.2v11.4a2.1,2.1,0,0,1-1.9,2.4,2.3,2.3,0,0,1-2.5-2v-20Z"/><path class="cls-17" d="M254.4,104.6a2.5,2.5,0,0,0-1.8.8c-1.7,2-4.1,3-7.3,3a7.1,7.1,0,0,1-5.1-2.1,9.1,9.1,0,0,1-2.4-4.9h16.8a2.3,2.3,0,0,0,2.5-2.1v-.4a11.7,11.7,0,0,0-3.3-8.5,10.9,10.9,0,0,0-8.5-3.4,11.5,11.5,0,0,0-8.8,3.6,14.2,14.2,0,0,0,0,18,11.5,11.5,0,0,0,8.8,3.6c4.3,0,7.8-1.2,10.4-3.7a2.3,2.3,0,0,0,.2-3.2h0a1.9,1.9,0,0,0-1.5-.8ZM240.3,92.8a7.4,7.4,0,0,1,5-2,6.3,6.3,0,0,1,4.7,1.9,9.7,9.7,0,0,1,2.5,4.8H237.8a8.3,8.3,0,0,1,2.5-4.7"/><path class="cls-17" d="M270.6,77.2a2.2,2.2,0,0,1,2.2,2.4v7.8h8.8c1.5,0,2.3.7,2.3,2s-.8,1.9-2.3,1.9h-8.8V104c0,3,1.6,4.3,3.8,4.3a5.6,5.6,0,0,0,3.3-.8l1.4-1a2.1,2.1,0,0,1,1.3-.5,2,2,0,0,1,2,2h0a2.9,2.9,0,0,1-1.4,2.1,11.2,11.2,0,0,1-6.9,2,8.5,8.5,0,0,1-5.7-1.9c-1.4-1.2-2.2-3.2-2.2-5.9V91.3h-6.3c-1.5,0-2.3-.6-2.3-1.9s.8-1.9,2.3-1.9h6.3V79.6a2.2,2.2,0,0,1,2.1-2.4Z"/><path class="cls-17" d="M310.3,87.4c-1.2,0-2.1,1-2.2,2.6a6.8,6.8,0,0,0-3-2.3,9.9,9.9,0,0,0-3.8-.7,10.2,10.2,0,0,0-8.4,3.7,14.7,14.7,0,0,0,0,17.8,10.1,10.1,0,0,0,8.4,3.7,10.7,10.7,0,0,0,3.9-.7,7.3,7.3,0,0,0,2.9-2.3c.1,1.6,1,2.6,2.2,2.6a2.4,2.4,0,0,0,2.4-2.2V89.9a2.3,2.3,0,0,0-2.1-2.5h-.3m-4,18.5a6.5,6.5,0,0,1-9.2,1l-.9-1a10.9,10.9,0,0,1,0-12.6,6.5,6.5,0,0,1,9.1-1.1,5.2,5.2,0,0,1,1,1.1,9.4,9.4,0,0,1,1.9,6.3,9.4,9.4,0,0,1-1.9,6.3"/><path class="cls-11" d="M328.9,107.9V81.6h-5.5c-1.3,0-2.4-.7-2.4-1.9s1.1-1.9,2.4-1.9H331a2,2,0,0,1,2.2,1.9v28.2h7.1c1.3,0,2.4.7,2.4,1.9s-1.1,2-2.4,2H321.8c-1.4,0-2.4-.8-2.4-2s1-1.9,2.4-1.9h7.1Z"/><path class="cls-11" d="M365.5,87.4c-1.2,0-2.1,1-2.2,2.6a6.5,6.5,0,0,0-2.9-2.3,10.7,10.7,0,0,0-3.9-.7,10,10,0,0,0-8.3,3.7,14.5,14.5,0,0,0-.1,17.8,11.3,11.3,0,0,0,12.3,3,7.6,7.6,0,0,0,3-2.3c.1,1.6.9,2.6,2.2,2.6a2.3,2.3,0,0,0,2.3-2.2V89.9a2.3,2.3,0,0,0-2-2.5h-.4m-4,18.5a6.4,6.4,0,0,1-9.1,1l-1-1a9.4,9.4,0,0,1-1.9-6.3,9.4,9.4,0,0,1,1.9-6.3,6.5,6.5,0,0,1,9.1-1.1,5.2,5.2,0,0,1,1,1.1,10.9,10.9,0,0,1,0,12.6"/><path class="cls-11" d="M375.5,89.8a2.2,2.2,0,0,1,4.4-.4v.9a4.1,4.1,0,0,1,1.6-2.3,4.6,4.6,0,0,1,3-1.1c3.1,0,4.9,1.2,5.6,3.5a4.8,4.8,0,0,1,1.8-2.4,6,6,0,0,1,3.4-1.1c4.1,0,6.2,2.6,6.2,6.6v15.9a2.3,2.3,0,0,1-2,2.4,2.2,2.2,0,0,1-2.4-2v-15c0-2.8-.9-4-2.8-4s-3.6,2.2-3.6,6.6v12a2.3,2.3,0,0,1-2,2.4,2.2,2.2,0,0,1-2.4-2v-15c0-2.8-.8-4-2.8-4s-3.6,2.4-3.6,7.2v11.4a2.2,2.2,0,1,1-4.4.4v-20Z"/><path class="cls-11" d="M428.4,87.4c-1.2,0-2.1,1-2.2,2.6a6.8,6.8,0,0,0-3-2.3,9.9,9.9,0,0,0-3.8-.7,10,10,0,0,0-8.3,3.7,13.3,13.3,0,0,0-3.1,8.9,13.7,13.7,0,0,0,3,8.9,10.1,10.1,0,0,0,8.4,3.7,9.9,9.9,0,0,0,3.8-.7,6.9,6.9,0,0,0,3-2.3c.1,1.6,1,2.6,2.2,2.6a2.2,2.2,0,0,0,2.3-2.2V89.9a2.3,2.3,0,0,0-2-2.5h-.3m-4,18.5a6.5,6.5,0,0,1-9.2,1,4.3,4.3,0,0,1-.9-1,10.9,10.9,0,0,1,0-12.6,6.5,6.5,0,0,1,9.1-1.1l1,1.1a9.4,9.4,0,0,1,1.9,6.3,9.4,9.4,0,0,1-1.9,6.3"/><path class="cls-18" d="M427.8,148a6.8,6.8,0,0,1-5.6,2.3,8.6,8.6,0,0,1-2.7-.5,3.4,3.4,0,0,1-1.8-1.5v6.4a1.4,1.4,0,0,1-1.4,1.5,1.4,1.4,0,0,1-1.5-1.5V135.9a1.4,1.4,0,0,1,1.5-1.5,1.5,1.5,0,0,1,1.4,1.5,3.5,3.5,0,0,1,1.9-1.4,7.7,7.7,0,0,1,2.7-.4,7.2,7.2,0,0,1,5.5,2.1,9.4,9.4,0,0,1,1.9,6,9,9,0,0,1-1.9,5.8m-2.1-9.9a4.1,4.1,0,0,0-3.4-1.6,3.9,3.9,0,0,0-3.4,1.6,6.5,6.5,0,0,0-1.2,4.1,6.3,6.3,0,0,0,1.2,4.1,4.6,4.6,0,0,0,6.8,0,6.3,6.3,0,0,0,1.2-4.1,6.5,6.5,0,0,0-1.2-4.1m-14.8,1.2a1.3,1.3,0,0,1-1.2-.9,3.1,3.1,0,0,0-2.9-1.8,4,4,0,0,0-3.6,1.8,7.8,7.8,0,0,0-1.2,4.4v5.6a1.4,1.4,0,0,1-1.4,1.6,1.4,1.4,0,0,1-1.5-1.6V136a1.5,1.5,0,0,1,1.5-1.6A1.5,1.5,0,0,1,402,136v.7a4.7,4.7,0,0,1,1.9-1.8,6,6,0,0,1,2.9-.8c2.7,0,4.5,1,5.6,2.9a2.2,2.2,0,0,1,.1.8,1.6,1.6,0,0,1-1.6,1.5m-17.8,10.6a1.4,1.4,0,0,1-1.4-1.6,4.8,4.8,0,0,1-2,1.4,6.6,6.6,0,0,1-2.7.6,6.8,6.8,0,0,1-5.5-2.4,8.1,8.1,0,0,1-2-5.7,8.8,8.8,0,0,1,2-5.7,7.1,7.1,0,0,1,5.6-2.4,8,8,0,0,1,2.6.5,4.8,4.8,0,0,1,2,1.4,1.4,1.4,0,0,1,1.4-1.6,1.4,1.4,0,0,1,1.5,1.5v12.5a1.4,1.4,0,0,1-1.5,1.5m-2.7-11.8a4.1,4.1,0,0,0-3.4-1.6,4.4,4.4,0,0,0-3.4,1.6,7.6,7.6,0,0,0,0,8.2,4.3,4.3,0,0,0,3.4,1.5,4.1,4.1,0,0,0,3.4-1.5,7.1,7.1,0,0,0,0-8.2M375.7,150a1.4,1.4,0,0,1-1.5-1.5v-7.8a5.4,5.4,0,0,0-.7-3.2,3.1,3.1,0,0,0-2.5-1,3.9,3.9,0,0,0-3.3,1.7,7.4,7.4,0,0,0-1.2,4.4v5.8A1.5,1.5,0,0,1,365,150a1.3,1.3,0,0,1-1.4-1.5V129.7a1.4,1.4,0,0,1,1.4-1.6,1.5,1.5,0,0,1,1.4,1.6v6.8a3.5,3.5,0,0,1,1.7-1.7,7.3,7.3,0,0,1,2.9-.7c4.1,0,6.1,2,6.1,6v8.4a1.4,1.4,0,0,1-1.4,1.5Zm-21.6-8.9,1.8.3,1.7.4a3.5,3.5,0,0,1,2.8,3.6,4.4,4.4,0,0,1-2,3.7,8.2,8.2,0,0,1-5,1.3c-3-.1-5.1-1-6.6-2.8a1.4,1.4,0,0,1,1-2.4,1.6,1.6,0,0,1,1.3.7,5.2,5.2,0,0,0,4.3,2c2.7,0,4-.8,4-2.5s-.3-1.1-1.3-1.4l-1.2-.3-1.7-.2-2.3-.4-1.9-.7a3.5,3.5,0,0,1-2-3.4,4.3,4.3,0,0,1,1.8-3.6,8.4,8.4,0,0,1,4.5-1.2c2.7,0,4.7.9,5.9,2.6a1.2,1.2,0,0,1,.3.9,1.4,1.4,0,0,1-1.5,1.4,1.3,1.3,0,0,1-1.2-.7,3.7,3.7,0,0,0-3.5-1.7c-2.1,0-3.4.8-3.4,2.2S351.4,140.7,354.1,141.1Z"/><path class="cls-18" d="M289.4,148a6.7,6.7,0,0,1-5.5,2.3,7.6,7.6,0,0,1-2.7-.5,4.1,4.1,0,0,1-1.9-1.4v6.3a1.3,1.3,0,0,1-1.4,1.5,1.4,1.4,0,0,1-1.4-1.5V135.9a1.4,1.4,0,1,1,2.8,0,4.5,4.5,0,0,1,1.9-1.4,8.4,8.4,0,0,1,2.7-.4,6.8,6.8,0,0,1,5.5,2.2,8,8,0,0,1,2,5.9,8.5,8.5,0,0,1-2,5.8m-2-9.9a4.2,4.2,0,0,0-3.4-1.5,4.1,4.1,0,0,0-3.4,1.5,6.6,6.6,0,0,0-1.2,4.2,6.5,6.5,0,0,0,1.2,4.1,4.1,4.1,0,0,0,3.4,1.5,4.2,4.2,0,0,0,3.4-1.5,6.4,6.4,0,0,0,1.1-4.1,7.2,7.2,0,0,0-1.1-4.2"/><path class="cls-18" d="M307.3,148.1a7.4,7.4,0,0,1-5.6,2.3,7.5,7.5,0,0,1-5.6-2.3,8.3,8.3,0,0,1-2.1-5.8,8.5,8.5,0,0,1,2.1-5.9,7.2,7.2,0,0,1,5.6-2.3,7,7,0,0,1,5.6,2.3,8.6,8.6,0,0,1,2.2,5.9,8.3,8.3,0,0,1-2.2,5.8m-2.1-10a4.3,4.3,0,0,0-3.5-1.5,4.5,4.5,0,0,0-3.5,1.5,6,6,0,0,0-1.3,4.2,5.9,5.9,0,0,0,1.3,4.1,4.5,4.5,0,0,0,3.5,1.5,4.4,4.4,0,0,0,3.5-1.5,6,6,0,0,0,1.4-4.1,6.1,6.1,0,0,0-1.4-4.2"/><path class="cls-18" d="M312.3,147.7a1.8,1.8,0,0,1-.5-1.1,1.5,1.5,0,0,1,1.5-1.4,1.6,1.6,0,0,1,1.3.7,5.2,5.2,0,0,0,4.3,2c2.7,0,4-.8,4-2.4s-.3-1.1-1.3-1.4l-1.2-.3-1.7-.3-2.3-.4-1.9-.7a3.4,3.4,0,0,1-2-3.3,4,4,0,0,1,1.8-3.6,7.7,7.7,0,0,1,4.5-1.3c2.7,0,4.7.9,5.9,2.6a1.4,1.4,0,0,1-1.2,2.3,1.4,1.4,0,0,1-1.2-.6,3.8,3.8,0,0,0-3.5-1.8c-2.1,0-3.4.8-3.4,2.2s1.5,1.8,4.2,2.2l1.9.3,1.6.4a5.3,5.3,0,0,1,1.5.7,3.8,3.8,0,0,1,1.3,2.9,4.2,4.2,0,0,1-1.9,3.7,8.7,8.7,0,0,1-5,1.4c-3-.2-5.2-1.1-6.7-2.8Z"/><path class="cls-18" d="M332.8,129.4a1.4,1.4,0,1,1,2.8,0v5h5.9c1,0,1.5.4,1.5,1.3s-.5,1.3-1.5,1.3h-5.9v8.1c0,1.9,1.1,2.8,2.5,2.8a4,4,0,0,0,2.3-.6l.9-.6.9-.3a1.3,1.3,0,0,1,1.3,1.3,1.7,1.7,0,0,1-.9,1.4,8.6,8.6,0,0,1-4.6,1.3,5.6,5.6,0,0,1-3.8-1.2,4.6,4.6,0,0,1-1.5-3.8v-8.5h-4.2c-1,0-1.5-.4-1.5-1.3s.5-1.2,1.5-1.2h4.2v-5Z"/><path class="cls-19" d="M237.2,150.8a6.8,6.8,0,0,0,5.3-2.1c1.3-1.4,1.9-3.4,1.9-6a8.6,8.6,0,0,0-1.9-5.8,6.5,6.5,0,0,0-5.3-2.3,7.5,7.5,0,0,0-2.6.5,3.5,3.5,0,0,0-1.8,1.5v-6.4a1.5,1.5,0,0,0-1.4-1.6,1.4,1.4,0,0,0-1.4,1.6V149a1.4,1.4,0,0,0,1.4,1.5,1.5,1.5,0,0,0,1.4-1.5,3.7,3.7,0,0,0,1.8,1.4,7.5,7.5,0,0,0,2.6.4m4.4-8.1a7.1,7.1,0,0,1-1.1,4.1,4.4,4.4,0,0,1-6.6,0,8.2,8.2,0,0,1,0-8.2,4.4,4.4,0,0,1,6.6,0,7.1,7.1,0,0,1,1.1,4.1"/><path class="cls-19" d="M250.2,157.1a4.9,4.9,0,0,0,3.9-1.7,21.5,21.5,0,0,0,3.2-5.3l6-13.1a1.8,1.8,0,0,0,.1-.6,1.5,1.5,0,0,0-.9-1.4h-.6a1.5,1.5,0,0,0-1.4.9l-4.6,10.5-4.6-10.5a1.4,1.4,0,0,0-1.4-.9h-.6a1.4,1.4,0,0,0-.7,2l5.7,13v.4a15,15,0,0,1-1.8,3.3,2.9,2.9,0,0,1-2.2.9l-1.5-.3a1.2,1.2,0,0,0-1.2,1.2c0,1.1.9,1.6,2.7,1.6Z"/><path class="cls-11" d="M94.4,123h-16a1,1,0,0,0-1,1v14.1a1,1,0,0,0,1,1H88.7a1,1,0,0,0,.9-.6l5.6-14.2a.9.9,0,0,0-.8-1.3"/><path class="cls-11" d="M149.2,123h-35l9.9-56.1a1,1,0,0,0-1-1.1H109a.8.8,0,0,0-.9.7L104.5,87H84.7a.9.9,0,0,0-.9.9v14.2a.9.9,0,0,0,.9.9h16.9l-9.3,53a1,1,0,0,0,1,1.1h14.1a.9.9,0,0,0,.9-.8l3.1-17.2h20.1l-3,16.9a1,1,0,0,0,1,1.1h14.1a.9.9,0,0,0,.9-.8l5.7-32.2a1,1,0,0,0-.9-1.1"/><path class="cls-11" d="M167.8,123H157a1,1,0,0,0-.9.6l-5.6,14.2a.9.9,0,0,0,.9,1.3h16.4a1,1,0,0,0,1-1V124a.9.9,0,0,0-1-1"/><path class="cls-11" d="M174.2,87H156.7l3.5-20.1a.9.9,0,0,0-.9-1.1H145.2a1,1,0,0,0-1,.7L140.7,87H127.1a1,1,0,0,0-.9.6l-5.6,14.1a1,1,0,0,0,.9,1.3h16.3l-2.3,13.2a.9.9,0,0,0,.7,1.1l13.6,3.1a.9.9,0,0,0,1.2-.7l2.9-16.7h20.3a.9.9,0,0,0,.9-.9V87.9a.9.9,0,0,0-.9-.9"/></g></g><text class="cls-20" transform="translate(77.5 512.7)">Status Update<tspan x="0" y="95.2" xml:space="preserve"> - April 2024</tspan></text><path class="cls-12" d="M1062.5,898.8c-22.4-87.2-25-171.6-11.2-260.6"/><path class="cls-14" d="M1085.2,700.2a3.6,3.6,0,0,0-6.9-1.2c-1.7,4-3.5,7.9-5.2,11.9a280.4,280.4,0,0,0-14,43,284.4,284.4,0,0,0-7.6,79.6,290.8,290.8,0,0,0,4.2,39.5q-1.4-6.9-2.7-14.1c-5.9-30.7-19.7-148.6-23.6-189.1a2.4,2.4,0,0,0-4.7-.5c-10.3,31.3-18.7,63.5-20.6,96.4-2,36.7,4.8,74.8,24.8,105.7a147.9,147.9,0,0,0,26.9,31.1,8.3,8.3,0,0,0,13.8-4.6c2.4-12.3,4.2-24.8,6.6-36.8s5.2-26.6,7-40C1088.7,781.1,1087.3,740.6,1085.2,700.2Z"/><path class="cls-11" d="M1089.4,581.6c.7,17.1-1.2,43-16.7,53.5-17.6,11.9-44,4.3-46.3-18.4a68.5,68.5,0,0,1,10.9-44,80.7,80.7,0,0,0,8.5,19.5A105.5,105.5,0,0,0,1062,575c2.9,6.1,5.6,13.4,8.6,19.4C1077.1,591,1083.9,585.9,1089.4,581.6Z"/><path class="cls-12" d="M1050.1,638.2c-.8-19.6,13-35.8,19-42"/><path class="cls-12" d="M1046.2,594.9a45.8,45.8,0,0,1,5.1,13.3"/><path class="cls-21" d="M1057.4,895.4c-32.9-62-46.4-112.6-31.3-218.7"/><path class="cls-21" d="M1063.5,895.2c2.6-53,8-132.4,17.7-192.1"/><path class="cls-12" d="M1361.8,946c15.7-60.8,17.5-119.7,7.8-181.7"/><path class="cls-14" d="M1346,807.7a2.6,2.6,0,0,1,4.9-.9c1.2,2.7,2.4,5.4,3.5,8.2a183.4,183.4,0,0,1,9.8,29.9,199.7,199.7,0,0,1,5.3,55.5,183.4,183.4,0,0,1-3,27.6c.7-3.2,1.3-6.5,1.9-9.8,3.9-20.2,12.7-94.2,16-126.4a2.8,2.8,0,0,1,5.5-.6c6.4,20.2,11.5,40.8,12.6,61.9,1.4,25.7-3.3,52.2-17.2,73.8a108.3,108.3,0,0,1-18.8,21.7,5.9,5.9,0,0,1-9.7-3.3c-1.6-8.5-2.9-17.3-4.5-25.6s-3.6-18.5-4.9-27.9C1343.6,864,1344.5,835.8,1346,807.7Z"/><path class="cls-5" d="M1343,724.8c-.4,11.9.9,30,11.7,37.3,12.3,8.3,30.7,3,32.3-12.8a48.3,48.3,0,0,0-7.6-30.7,56.9,56.9,0,0,1-6,13.6,79.6,79.6,0,0,1-11.2-12c-2.1,4.2-4,9.3-6,13.5A101.6,101.6,0,0,1,1343,724.8Z"/><path class="cls-12" d="M1370.4,764.3c.6-13.7-9-25-13.2-29.3"/><path class="cls-12" d="M1373.2,734.1a31,31,0,0,0-3.6,9.3"/><path class="cls-21" d="M1365.3,943.6c23-43.2,32.4-75.2,21.9-149.2"/><path class="cls-21" d="M1361.1,943.5c-1.8-37-5.3-90.9-12.1-132.5"/><path class="cls-12" d="M1689.3,916c-3.5-69.4-9.7-115.5,3.6-163.5"/><path class="cls-14" d="M1662.3,809.7l1.4.5c4.3,1.5,7.5,5.2,10.2,9,14.5,19.8,13.1,47.6,16.5,71.1-.4-32.8,7.6-79.2,9.3-88.9s2.9-16.8,4.2-25.2a2.1,2.1,0,0,1,4.1-.2c5.2,20.3,9.1,40.9,9,61.8-.1,28.2-9.5,55.6-23.8,79.8a4.3,4.3,0,0,1-1.9,2.1c-5.3,2.1-12.7-11.1-14.6-14.4a102.6,102.6,0,0,1-9.3-21.2c-3.8-12.1-6-24.6-8.7-37-1-4.7-2.6-10-7-11.9s-10.1.7-15-.7a3.3,3.3,0,0,1-2.1-1.4,4.9,4.9,0,0,1-.3-2.1c.5-6.4,4.9-11.8,9.9-15.8S1656.1,808.2,1662.3,809.7Z"/><path class="cls-11" d="M1684,708.1c-4.9,10.1-10.5,26.2-3.9,36.6s25.4,14.1,32.7.9c4.9-8.8,7.3-20.1,8.3-28.2-4.5,1.7-9.9,4.3-13.6,8.4a33.9,33.9,0,0,0-3.6-14.1c-4.3,2.4-9,5.5-11.9,9A89,89,0,0,1,1684,708.1Z"/><path class="cls-12" d="M1692.9,752.5c5.6-11.6,1.5-25-.5-30.3"/><path class="cls-12" d="M1706.6,727.4a26.3,26.3,0,0,0-6.6,6.7"/><path class="cls-21" d="M1691.5,911.3c11.3-27.3,16.2-70.3,15.1-129.4"/><path class="cls-21" d="M1688.6,908.9c-11.2-18.6-14-39.5-18.3-60.6-1.1-5.2-2.2-10.6-4.3-15.5a17.1,17.1,0,0,0-4-5.9,13.4,13.4,0,0,0-11.1-2.6c-3.9.6-7.4,2.6-10.6,4.9"/><path class="cls-12" d="M1511.1,898.9c22-85.7,24.6-168.6,11-256"/><path class="cls-14" d="M1488.9,702.8a3.3,3.3,0,0,1,6.3-1.1l5.5,12.6a285.1,285.1,0,0,1,13.8,42.2,282.2,282.2,0,0,1,7.4,78.2,264.6,264.6,0,0,1-4.2,38.8l2.7-13.8c5.6-29.2,18.5-138.7,22.8-181.7.4-3.5,5.3-4,6.3-.7,9.6,29.6,17.2,59.8,18.9,90.8,2,36.1-4.6,73.5-24.3,103.9a148.3,148.3,0,0,1-26.4,30.6,8.2,8.2,0,0,1-13.6-4.6c-2.3-12-4.1-24.4-6.4-36.2s-5.1-26-6.9-39.2C1485.4,783,1486.7,742.8,1488.9,702.8Z"/><path class="cls-11" d="M1484.6,587.2c-.6,16.8,1.2,42.3,16.4,52.6,17.4,11.7,43.3,4.3,45.5-18.1a67.4,67.4,0,0,0-10.6-43.2,82.3,82.3,0,0,1-8.4,19.2,105.9,105.9,0,0,1-15.9-16.9c-2.9,5.9-5.6,13.1-8.4,19A129.1,129.1,0,0,1,1484.6,587.2Z"/><path class="cls-12" d="M1523.2,642.9c-.5-8.8-1-18.5-4.8-26.3"/><path class="cls-21" d="M1516.1,895.6c32.3-60.9,45.4-108.2,30.6-212.5"/><path class="cls-21" d="M1510.1,895.4c-2.5-52.1-8-131-17.5-189.8"/><path class="cls-12" d="M1503.7,600.8l12.1,13.8c.6.7,1.6,1.6,2.6,1.3a2.8,2.8,0,0,0,1.2-1.2,64.8,64.8,0,0,0,7.8-15"/><path class="cls-12" d="M1219,930.9c-19.5-75.8-33.2-154.5,9-228.4"/><path class="cls-5" d="M1275.9,669.2l4.1-.3c-3.9,3.6-12,18.1-14.2,21.8-4.4,7-10.4,13.7-18.6,16s-20.6,0-27.5-7.2c-8.5-9-6.5-22.4-2.6-33.1,3-8,7-15.8,9-24.1,4.9,6.5,8,13.2,12,20.3,2.8-1.9,14.2-7.7,16.8-8.3.7,5.7,1,12.5,1.7,18.3C1256.5,671.6,1269.1,670,1275.9,669.2Z"/><path class="cls-12" d="M1227.8,703.1c4.6-16.4,20.5-26,27.1-29.4"/><path class="cls-12" d="M1237.8,666.6a39.6,39.6,0,0,1,.5,12.4"/><path class="cls-14" d="M1160.1,767.6c-2.7-8-5.3-16-7.9-24a3,3,0,0,0-5.9.6c-2.7,27.1-3.7,54.4.6,81.2,4.9,31.6,17.6,62.7,40.2,85.4,3.5,3.5,29.5,27.3,33.7,22.4a4.1,4.1,0,0,0,.8-3.2c-.4-7.6-4.1-14.5-7.6-21-7.5-14.1-17-28.4-20.4-44.2-9.3-25.7-18.2-51.5-26.9-77.4Z"/><path class="cls-21" d="M1215.7,925.9c-39.2-46.6-59.2-84-65.7-176.8"/><path class="cls-14" d="M1271.5,758c-7.6-3.4-17.3-3.5-23.5,2-2.9,2.6-4.8,6.1-6.5,9.6-24.1,49.5-26.5,106.9-21.7,161.7,3.1-1.8,3.4-3,4.1-6.6a365.4,365.4,0,0,1,52.6-128.2c2.2-3.4,4.9-7,8.9-7.7,2.3-.4,4.6.3,6.9.2,8.4-.3,3.5-10,.5-13.6C1287.3,768.6,1279.4,761.6,1271.5,758Z"/><path class="cls-21" d="M1221.7,922.7a586.9,586.9,0,0,1,22.4-112.2c3-9.8,6.2-19.6,12-28s14.6-15.2,24.7-16.5"/><path class="cls-12" d="M910.3,919.7c-16-62.4-13.9-120.6-8-186.4"/><path class="cls-14" d="M925.2,768.6c-2.8.6-4.2,4.8-5,7-1.9,5-3.5,10-5.2,15.1-2.7,8.4-5.1,16.8-7.1,25.3a202.5,202.5,0,0,0-5.4,57,191.4,191.4,0,0,0,3,28.2c-.7-3.3-1.3-6.6-2-10.1s-1.3-8-2-12c-6.3-42.3-20.7-82.9-36.7-122.5-.7-1.8-1.7-3.7-3.5-4.2-3.5-1.1-5.5,3.9-5.8,7.6a259.9,259.9,0,0,0,9.7,88.1c7.9,27.3,18.9,55.1,40.3,74.2a6,6,0,0,0,9.9-3.3c1.7-8.8,3-17.7,4.7-26.3s3.7-19,5-28.6c.7-4.9,1.2-9.9,1.6-14.9a348.8,348.8,0,0,0,1.1-35.4c-.1-11.5.6-23,.4-34.5C928.2,777.8,928.6,768,925.2,768.6Z"/><path class="cls-5" d="M929.6,692.8c.5,12.2-.9,30.8-11.9,38.3-12.7,8.5-31.5,3.1-33.2-13.2a48.6,48.6,0,0,1,7.8-31.4,63.8,63.8,0,0,0,6.1,13.9A75.1,75.1,0,0,0,910,688.1c2.1,4.4,4,9.6,6.1,13.9A94.2,94.2,0,0,0,929.6,692.8Z"/><path class="cls-12" d="M901.5,733.3c-.6-14,9.3-25.6,13.6-30"/><path class="cls-12" d="M898.7,702.3a32.7,32.7,0,0,1,3.6,9.6"/><path class="cls-21" d="M906.7,917.2c-19.6-39-34.4-90.7-46.1-155.9"/><path class="cls-21" d="M911,917.1c1.9-37.9,7-102.6,13.9-145.4"/><path class="cls-14" d="M994,865.6c-1.3-2.3-3.3-4.8-5.9-4.4a6,6,0,0,0-3.5,2.4,31.4,31.4,0,0,0-5.2,9.5,202,202,0,0,0-12.5-30c-.8-1.6-1.8-3.4-3.5-4-3.6-1.4-6.7,2.7-8,6.2-10.1,25.7-5.2,55.4.2,82.4H1004C1004.4,906.7,1004.4,883.8,994,865.6Z"/><path class="cls-21" d="M979.1,923.6a285,285,0,0,1,1.1-46.2"/><path class="cls-21" d="M990,921.9c.7-18.2.6-36.5-.5-54.8"/><path class="cls-21" d="M966.7,920.9a526,526,0,0,1-6.2-75.2"/><path class="cls-14" d="M1621.2,897.4c-1.8-2.6-5.3-3.8-8.5-3.9-6.6-.4-13.1,2.8-17.9,7.4s-8.1,10.5-10.7,16.6c5.2-17.8,10.4-36.5,6.2-54.6-.6-2.6-1.5-5.4-3.7-7.1s-7.7-1.9-10.9.4-5.3,5.8-7.1,9.3c-10,19.8-15.3,41.6-20.5,63.1h66.1a41.5,41.5,0,0,0,8.7-23.4C1623,902.5,1622.8,899.7,1621.2,897.4Z"/><path class="cls-21" d="M1563.8,921.8q7.7-28.5,17.9-56.3"/><path class="cls-21" d="M1597.5,924.9a174.3,174.3,0,0,1,16.5-25.3"/><path class="cls-22" d="M1659.1,436.9a18.2,18.2,0,0,0-17.8,7.8c-2.2-8.9-8.9-17.1-17.8-19.2s-19.5,2.9-21.9,11.7c-5.5-18-11.2-36.5-22.5-51.6s-29.7-26.4-48.4-24.1c-15.6,1.9-29.2,13.2-35.9,27.4s-6.9,30.9-2.7,46c-2.5-7.8-11.6-12.8-19.5-10.7s-13.3,11-11.6,19c-5.4-5.3-17.3-3.4-17.9,6.7h230.5A18.4,18.4,0,0,0,1659.1,436.9Z"/><path class="cls-22" d="M1174.4,309.9a13.1,13.1,0,0,0-10.6-10.2,12.9,12.9,0,0,0-13.2,6.4c-1.9-12.3-5.9-24.8-14.1-34.2s-21.1-13.7-33.5-12.3c-15.7,1.7-37.3,13.9-36.8,44.9a14.7,14.7,0,0,0-26.3,11c-5-4-13.4-1.3-14.2,5.4H1190C1192.4,309.5,1181.4,305.1,1174.4,309.9Z"/><path class="cls-22" d="M1021,439.5a8.8,8.8,0,0,0-8.2.4c.1-5.8-2.8-11.9-7.9-14.8s-13.3-1.1-16.8,3.6-3.9,11.1-2.3,17.3h40.3A9.1,9.1,0,0,0,1021,439.5Z"/></g></svg>