<?xml version="1.0" encoding="UTF-8"?>
<svg id="Artwork" xmlns="http://www.w3.org/2000/svg" xmlns:xlink="https://www.w3.org/1999/xlink" viewBox="0 0 739.17 651.7">
  <defs>
    <style>
      .cls-1, .cls-2, .cls-3 {
        fill: none;
      }

      .cls-2 {
        clip-path: url(#clippath-1);
      }

      .cls-4, .cls-5 {
        fill: #666;
      }

      .cls-6 {
        fill: #110b1d;
      }

      .cls-7 {
        fill: #6122b2;
      }

      .cls-5 {
        fill-rule: evenodd;
      }

      .cls-3 {
        clip-path: url(#clippath);
      }
    </style>
    <clipPath id="clippath">
      <rect class="cls-1" x="110.49" y="102.45" width="518.19" height="446.8"/>
    </clipPath>
    <clipPath id="clippath-1">
      <rect class="cls-1" x="110.49" y="102.45" width="518.19" height="446.8"/>
    </clipPath>
  </defs>
  <g id="_003_Logo_Mark" data-name="003 Logo Mark">
    <g class="cls-3">
      <g class="cls-2">
        <path class="cls-7" d="m421.38,231.67h-79.14l22.29-126.72c.23-1.31-.78-2.5-2.1-2.5h-31.92c-1.03,0-1.92.74-2.1,1.76l-8.09,46.07h-44.53c-1.18,0-2.13.96-2.13,2.13v31.98c0,1.18.96,2.13,2.13,2.13h38.15l-21.01,119.54c-.23,1.3.77,2.5,2.1,2.5h31.9c1.04,0,1.92-.75,2.1-1.77l6.84-38.92h45.46l-6.71,38.18c-.23,1.3.78,2.5,2.1,2.5h31.89c1.04,0,1.92-.75,2.1-1.77l12.78-72.64c.23-1.31-.78-2.5-2.1-2.5"/>
        <path class="cls-7" d="m297.51,231.67h-36.02c-1.18,0-2.13.96-2.13,2.13v31.96c0,1.18.95,2.13,2.13,2.13h23.33c.88,0,1.66-.54,1.98-1.35l12.68-31.96c.56-1.4-.47-2.92-1.98-2.92"/>
        <path class="cls-7" d="m463.33,231.67h-24.53c-.88,0-1.66.54-1.98,1.35l-12.66,31.96c-.56,1.4.48,2.92,1.98,2.92h37.19c1.18,0,2.13-.96,2.13-2.13v-31.96c0-1.18-.96-2.13-2.13-2.13"/>
        <path class="cls-7" d="m477.66,150.28h-39.43l7.97-45.33c.23-1.3-.77-2.5-2.1-2.5h-31.9c-1.04,0-1.92.74-2.1,1.76l-8.09,46.07h-30.59c-.88,0-1.66.54-1.98,1.35l-12.66,31.98c-.55,1.4.48,2.92,1.98,2.92h36.87l-5.22,29.73c-.2,1.11.52,2.19,1.62,2.45l30.64,7.11c1.19.28,2.37-.5,2.59-1.71l6.6-37.58h45.8c1.18,0,2.13-.96,2.13-2.13v-31.98c0-1.18-.96-2.13-2.13-2.13"/>
        <path class="cls-6" d="m110.51,413.56c-.26-2.74,1.76-5.17,4.5-5.42,2.74-.26,5.17,1.76,5.42,4.5.03.31.03.62,0,.93v1.23c.58-2.13,1.84-4.01,3.6-5.36,1.95-1.58,4.41-2.4,6.92-2.31,6.79,0,10.97,2.59,12.53,7.78.76-2.22,2.2-4.14,4.13-5.47,2.26-1.58,4.97-2.39,7.73-2.31,9.21,0,13.83,5.69,13.83,14.9v35.71c.26,2.72-1.74,5.14-4.47,5.39-2.72.26-5.14-1.74-5.39-4.47-.03-.31-.03-.62,0-.93v-32.97c0-6.28-1.93-8.91-6.28-8.91-5.52,0-8.24,4.94-8.24,14.86v27.02c.26,2.72-1.74,5.14-4.47,5.39-2.73.26-5.14-1.74-5.4-4.47-.03-.31-.03-.62,0-.93v-32.97c0-6.28-1.72-8.91-6.28-8.91-5.51,0-8.25,5.38-8.2,16.14v25.73c.26,2.74-1.76,5.17-4.5,5.42-2.74.26-5.17-1.76-5.42-4.5-.03-.31-.03-.62,0-.93v-44.17Z"/>
        <path class="cls-6" d="m230.59,446.84c-1.5.03-2.92.72-3.87,1.88-3.86,4.45-9.31,6.7-16.45,6.7-4.32.12-8.49-1.55-11.55-4.6-3.01-3.02-4.92-6.97-5.41-11.2h37.95c2.8.25,5.28-1.82,5.53-4.63.03-.3.03-.59,0-.89.21-7.16-2.47-14.1-7.45-19.25-4.97-5.17-11.9-7.98-19.06-7.73-8.32,0-14.96,2.74-19.88,8.16-9.8,11.83-9.8,28.96,0,40.79,4.92,5.41,11.55,8.09,19.88,8.09,9.7,0,17.53-2.79,23.36-8.42,2.11-1.84,2.33-5.04.49-7.15-.02-.02-.04-.04-.06-.07-.82-1.09-2.12-1.71-3.48-1.68Zm-31.64-26.64c3.05-2.88,7.12-4.44,11.32-4.33,3.96-.18,7.8,1.35,10.56,4.19,2.8,3.03,4.77,6.74,5.69,10.77h-33.21c.65-4.07,2.64-7.81,5.65-10.63"/>
        <path class="cls-6" d="m267.31,385.14c3.06,0,4.94,2.25,4.94,5.47v17.59h19.88c3.42,0,5.14,1.44,5.14,4.33s-1.72,4.33-5.14,4.33h-19.88v28.73c0,6.7,3.54,9.7,8.46,9.7,2.65.1,5.28-.53,7.61-1.82l3.16-2.25c.84-.64,1.84-1.03,2.89-1.13,2.46-.03,4.49,1.95,4.51,4.41,0,.1,0,.21,0,.31,0,1.66-1.07,3.26-3.16,4.77-4.55,3.1-9.99,4.66-15.49,4.45-5.42,0-9.75-1.44-13-4.23-3.25-2.79-4.87-7.22-4.87-13.3v-29.53h-14.27c-3.43,0-5.14-1.44-5.14-4.33s1.71-4.33,5.14-4.33h14.27v-17.7c-.23-2.78,1.83-5.22,4.62-5.46.11,0,.22-.01.33-.02Z"/>
        <path class="cls-6" d="m356.83,408.2c-2.73,0-4.67,2.2-4.93,5.67-1.71-2.26-4.04-3.99-6.7-4.98-2.76-1.17-5.74-1.77-8.74-1.78-7.94,0-14.21,2.79-18.77,8.42-4.64,5.65-7.1,12.79-6.92,20.1-.19,7.32,2.2,14.48,6.76,20.22,4.55,5.51,10.87,8.3,18.97,8.3,2.99-.01,5.96-.6,8.73-1.72,2.66-1.02,4.98-2.77,6.7-5.04.26,3.49,2.14,5.69,4.92,5.69,2.79.15,5.17-1.98,5.32-4.77.01-.23,0-.47-.01-.7v-43.95c.23-2.78-1.84-5.22-4.62-5.45-.24-.02-.49-.02-.73,0m-8.95,41.74c-5.12,6.33-14.4,7.31-20.73,2.2-.81-.65-1.54-1.39-2.2-2.2-3.01-4.15-4.54-9.19-4.33-14.31-.21-5.1,1.32-10.13,4.33-14.25,5.04-6.33,14.26-7.38,20.59-2.34.86.69,1.65,1.47,2.34,2.34,3.04,4.11,4.57,9.14,4.33,14.25.23,5.12-1.29,10.17-4.33,14.31"/>
        <path class="cls-7" d="m398.75,454.29v-59.29h-12.27c-3.06,0-5.41-1.6-5.41-4.33s2.35-4.33,5.41-4.33h17.2c2.56-.16,4.76,1.78,4.94,4.33v63.68h15.88c3.06,0,5.41,1.62,5.41,4.4s-2.35,4.33-5.41,4.33h-41.67c-3.04,0-5.36-1.6-5.36-4.33s2.31-4.4,5.36-4.4l15.93-.06Z"/>
        <path class="cls-7" d="m481.46,408.2c-2.73,0-4.67,2.2-4.93,5.67-1.72-2.26-4.04-3.99-6.7-4.98-2.74-1.16-5.69-1.76-8.66-1.78-7.94,0-14.21,2.79-18.77,8.42-4.64,5.65-7.1,12.79-6.92,20.1-.19,7.32,2.2,14.48,6.76,20.22,4.55,5.51,10.87,8.3,18.97,8.3,2.99-.01,5.96-.6,8.73-1.72,2.66-1.02,4.98-2.77,6.7-5.04.26,3.49,2.14,5.69,4.92,5.69,2.79.15,5.17-1.98,5.32-4.77.01-.23.01-.47-.01-.7v-43.95c.23-2.78-1.83-5.22-4.62-5.46-.27-.02-.54-.02-.81,0m-8.95,41.74c-5.12,6.33-14.4,7.31-20.73,2.2-.81-.65-1.54-1.39-2.2-2.2-3.01-4.15-4.54-9.19-4.33-14.31-.21-5.1,1.32-10.13,4.33-14.25,5.04-6.33,14.26-7.38,20.59-2.34.86.69,1.65,1.47,2.34,2.34,3.04,4.11,4.57,9.14,4.33,14.25.23,5.12-1.29,10.17-4.33,14.31"/>
        <path class="cls-7" d="m504.01,413.56c-.26-2.74,1.76-5.17,4.5-5.42,2.74-.26,5.17,1.76,5.42,4.5.03.31.03.62,0,.93v1.23c.56-2.13,1.81-4.01,3.55-5.36,1.95-1.57,4.41-2.4,6.92-2.31,6.82,0,11,2.59,12.55,7.78.75-2.22,2.2-4.14,4.13-5.47,2.25-1.58,4.96-2.4,7.71-2.31,9.23,0,13.83,5.69,13.83,14.9v35.71c.26,2.72-1.74,5.14-4.47,5.39s-5.14-1.74-5.39-4.47c-.03-.31-.03-.62,0-.93v-32.97c0-6.28-1.93-8.91-6.27-8.91-5.53,0-8.26,4.94-8.26,14.86v27.02c.26,2.72-1.74,5.14-4.47,5.39-2.72.26-5.14-1.74-5.39-4.47-.03-.31-.03-.62,0-.93v-32.97c0-6.28-1.72-8.91-6.28-8.91-5.52,0-8.24,5.38-8.19,16.14v25.73c.26,2.74-1.76,5.17-4.5,5.42s-5.17-1.76-5.42-4.5c-.03-.31-.03-.62,0-.93l.03-44.17Z"/>
        <path class="cls-7" d="m623.35,408.2c-2.73,0-4.65,2.2-4.92,5.67-1.71-2.27-4.04-4-6.7-4.98-2.74-1.16-5.69-1.76-8.66-1.78-7.94,0-14.21,2.79-18.77,8.42-4.64,5.66-7.09,12.79-6.92,20.1-.19,7.32,2.2,14.48,6.76,20.22,4.55,5.51,10.87,8.3,18.97,8.3,2.97-.02,5.91-.6,8.66-1.72,2.66-1.01,4.99-2.76,6.7-5.04.27,3.49,2.14,5.69,4.92,5.69,2.79.13,5.15-2.03,5.28-4.82.01-.2,0-.41,0-.61v-44c.23-2.78-1.84-5.22-4.63-5.45-.23-.02-.46-.02-.69-.01m-8.94,41.74c-5.13,6.34-14.42,7.32-20.75,2.19-.8-.65-1.54-1.39-2.19-2.19-3.01-4.15-4.54-9.19-4.33-14.31-.21-5.1,1.31-10.13,4.33-14.25,5.05-6.34,14.28-7.38,20.62-2.33.86.69,1.64,1.47,2.33,2.33,3.04,4.11,4.57,9.15,4.33,14.25.23,5.12-1.3,10.17-4.33,14.31"/>
        <path class="cls-5" d="m552.45,532.33c-2.42,2.87-5.93,4.26-10.36,4.26-1.76,0-3.43-.33-5.02-.99-1.59-.65-2.76-1.56-3.43-2.7v11.88c0,1.63-1.09,2.87-2.68,2.87s-2.68-1.23-2.68-2.87v-35.14c0-1.64,1.09-2.87,2.68-2.87,1.42,0,2.59,1.23,2.68,2.87.75-1.15,1.92-1.96,3.51-2.54,1.59-.57,3.26-.82,5.02-.82,4.43,0,7.86,1.31,10.28,4.01,2.42,2.7,3.68,6.39,3.68,11.14,0,4.42-1.25,8.03-3.68,10.89m-3.84-18.59c-1.51-1.88-3.6-2.87-6.35-2.87s-4.85.9-6.35,2.87c-1.5,1.88-2.17,4.42-2.17,7.7s.75,5.82,2.17,7.7c1.51,1.88,3.6,2.79,6.35,2.79s4.85-.9,6.35-2.79c1.42-1.88,2.17-4.42,2.17-7.7s-.75-5.81-2.17-7.7m-27.58,2.21c-1,0-1.84-.57-2.34-1.64-1.09-2.21-2.92-3.36-5.35-3.36-3.01,0-5.27,1.15-6.77,3.36-1.51,2.21-2.26,4.99-2.26,8.27v10.48c0,1.72-1.09,2.95-2.68,2.95s-2.67-1.23-2.67-2.95v-23.26c0-1.72,1.09-2.95,2.67-2.95s2.68,1.23,2.68,2.95v1.31c.75-1.23,1.92-2.37,3.6-3.36,1.67-.98,3.51-1.48,5.43-1.48,5.01,0,8.44,1.8,10.36,5.49.25.49.34.9.34,1.39,0,1.64-1.51,2.78-3.01,2.78m-33.35,19.9c-1.51,0-2.59-1.15-2.67-3.03-.92,1.15-2.09,2.05-3.68,2.7-1.67.74-3.26,1.06-4.93,1.06-4.43,0-7.94-1.48-10.45-4.43-2.5-2.95-3.68-6.55-3.68-10.73s1.25-7.7,3.85-10.65c2.51-3.03,6.01-4.51,10.36-4.51,1.67,0,3.26.33,4.84.9,1.59.57,2.84,1.48,3.68,2.62.17-1.88,1.17-3.03,2.67-3.03,1.67,0,2.93,1.06,2.93,2.87v23.34c0,1.88-1.25,2.87-2.93,2.87m-4.93-22.03c-1.59-1.96-3.68-2.95-6.35-2.95s-4.76.99-6.35,2.95c-1.59,1.97-2.34,4.5-2.34,7.62s.84,5.65,2.34,7.62c1.59,1.97,3.68,2.87,6.35,2.87s4.76-.99,6.35-2.87c1.59-1.97,2.42-4.5,2.42-7.62s-.84-5.65-2.42-7.62m-27.58,22.2c-1.59,0-2.68-1.23-2.68-2.87v-14.5c0-2.78-.42-4.75-1.34-5.98-.92-1.23-2.42-1.81-4.68-1.81-2.68,0-4.76,1.07-6.27,3.12-1.5,2.05-2.26,4.75-2.26,8.1v10.98c0,1.64-1.09,2.87-2.67,2.87-1.67.08-2.76-1.15-2.76-2.78v-35.14c0-1.64,1.09-2.87,2.67-2.87s2.68,1.23,2.68,2.87v12.85c.42-1.23,1.51-2.37,3.18-3.19,1.67-.9,3.43-1.39,5.35-1.39,7.6,0,11.45,3.77,11.45,11.22v15.65c0,1.64-1.09,2.87-2.67,2.87Zm-40.37-16.63c1.51.16,2.68.41,3.51.49.83.16,1.84.41,3.09.82,1.25.41,2.17.82,2.84,1.31,1.25.98,2.42,2.87,2.42,5.32,0,2.95-1.25,5.32-3.68,6.96-2.42,1.72-5.6,2.54-9.36,2.54-5.6-.24-9.69-1.96-12.45-5.24-.5-.66-.84-1.23-.84-1.88,0-1.48,1-2.7,2.68-2.7,1,0,1.84.41,2.51,1.31,1.92,2.45,4.6,3.77,8.02,3.77,5.01,0,7.52-1.56,7.52-4.59,0-1.23-.59-2.05-2.42-2.62-.92-.25-1.67-.49-2.34-.57-.59-.08-1.67-.25-3.09-.49-1.67-.25-3.09-.49-4.26-.74-1.17-.33-2.34-.74-3.59-1.31-2.51-1.15-3.76-3.28-3.76-6.22s1.17-5.16,3.43-6.72c2.34-1.56,5.1-2.37,8.36-2.37,5.01,0,8.69,1.64,11.03,4.83.42.49.59,1.06.59,1.72,0,1.56-1.17,2.62-2.92,2.62-.92,0-1.59-.41-2.09-1.23-1.42-2.21-3.6-3.28-6.6-3.28-4.01,0-6.35,1.48-6.35,4.18,0,2.37,2.84,3.36,7.77,4.1Z"/>
        <path class="cls-5" d="m294.04,532.33c-2.42,2.87-5.94,4.26-10.36,4.26-1.76,0-3.43-.33-5.02-.99-1.59-.65-2.76-1.56-3.43-2.7v11.88c0,1.64-1.09,2.87-2.67,2.87s-2.68-1.23-2.68-2.87v-35.14c0-1.64,1.09-2.87,2.68-2.87,1.42,0,2.59,1.23,2.67,2.87.75-1.15,1.92-1.97,3.51-2.54,1.59-.57,3.26-.82,5.01-.82,4.43,0,7.86,1.31,10.28,4.01,2.51,2.7,3.68,6.39,3.68,11.14,0,4.42-1.25,8.03-3.68,10.89m-3.85-18.51c-1.51-1.97-3.68-2.87-6.35-2.87s-4.85.9-6.35,2.87c-1.5,1.88-2.17,4.42-2.17,7.7s.75,5.81,2.17,7.7c1.51,1.88,3.59,2.78,6.35,2.78s4.85-.9,6.35-2.78c1.51-1.88,2.17-4.43,2.17-7.7s-.75-5.82-2.17-7.7"/>
        <path class="cls-5" d="m327.47,532.41c-2.68,2.86-6.1,4.26-10.45,4.26s-7.78-1.4-10.45-4.26c-2.68-2.87-4.01-6.47-4.01-10.89s1.34-8.03,4.01-10.9c2.67-2.95,6.18-4.34,10.45-4.34s7.77,1.39,10.45,4.34c2.67,2.87,4.01,6.47,4.01,10.9s-1.34,8.02-4.01,10.89m-3.93-18.59c-1.59-1.97-3.85-2.87-6.52-2.87s-4.85.9-6.52,2.87c-1.67,1.88-2.51,4.42-2.51,7.7s.84,5.81,2.51,7.7c1.67,1.88,3.85,2.78,6.52,2.78s4.84-.9,6.52-2.78c1.67-1.88,2.51-4.51,2.51-7.7s-.84-5.82-2.51-7.7"/>
        <path class="cls-5" d="m336.75,531.59c-.5-.66-.84-1.23-.84-1.88,0-1.48,1-2.7,2.68-2.7,1,0,1.84.41,2.51,1.31,1.92,2.45,4.6,3.77,8.02,3.77,5.01,0,7.52-1.56,7.52-4.59,0-1.23-.59-2.05-2.42-2.62-.92-.25-1.67-.49-2.34-.57-.59-.08-1.67-.25-3.09-.5-1.67-.24-3.09-.49-4.26-.74-1.17-.33-2.34-.74-3.6-1.31-2.5-1.15-3.76-3.28-3.76-6.22s1.17-5.16,3.43-6.72c2.34-1.56,5.1-2.37,8.36-2.37,5.01,0,8.69,1.64,11.03,4.83.42.49.59,1.06.59,1.72,0,1.56-1.17,2.62-2.93,2.62-.92,0-1.59-.41-2.09-1.23-1.42-2.21-3.59-3.28-6.6-3.28-4.01,0-6.35,1.48-6.35,4.18,0,2.37,2.84,3.36,7.77,4.1,1.51.16,2.68.41,3.51.49.83.16,1.84.41,3.09.82,1.26.41,2.17.82,2.84,1.3,1.25.99,2.42,2.87,2.42,5.33,0,2.95-1.25,5.32-3.68,6.96-2.42,1.72-5.6,2.54-9.36,2.54-5.52-.24-9.61-1.97-12.45-5.24Z"/>
        <path class="cls-5" d="m375.02,497.52c0-1.64,1.09-2.87,2.68-2.87,1.67,0,2.68,1.23,2.68,2.87v9.34h10.95c1.92,0,2.84.74,2.84,2.37s-.92,2.37-2.84,2.37h-10.95v15.23c0,3.52,1.92,5.16,4.68,5.16,1.92,0,3.43-.49,4.18-.98l1.75-1.23c.5-.41,1.09-.57,1.59-.57,1.5,0,2.5,1.14,2.5,2.54,0,.9-.58,1.72-1.75,2.54-2.34,1.56-5.18,2.37-8.53,2.37-3.01,0-5.35-.74-7.19-2.21-1.84-1.47-2.68-3.85-2.68-7.05v-15.89h-7.85c-1.92,0-2.84-.74-2.84-2.37s.92-2.38,2.84-2.38h7.85v-9.25h.08Z"/>
        <path class="cls-4" d="m196.47,537.55c4.25,0,7.56-1.34,9.96-4.02,2.4-2.68,3.6-6.39,3.6-11.15,0-4.39-1.2-8.02-3.57-10.87-2.37-2.88-5.71-4.31-9.99-4.31-1.71,0-3.34.34-4.88,1.03-1.54.69-2.65,1.57-3.31,2.65v-11.92c0-1.63-1.06-2.88-2.63-2.88s-2.63,1.26-2.63,2.88v35.17c0,1.63,1.06,2.85,2.63,2.85,1.34,0,2.54-1.23,2.63-2.85.74,1.11,1.88,1.97,3.39,2.57,1.51.57,3.11.85,4.79.85m8.3-15.18c0,3.22-.71,5.79-2.14,7.7-1.43,1.88-3.45,2.83-6.1,2.83s-4.68-.94-6.1-2.83c-1.43-1.91-2.14-4.48-2.14-7.7s.71-5.85,2.14-7.7c1.43-1.88,3.45-2.83,6.1-2.83s4.68.94,6.1,2.83c1.43,1.85,2.14,4.42,2.14,7.7"/>
        <path class="cls-4" d="m220.81,549.25c3.05,0,5.51-1.03,7.36-3.11,1.85-2.05,3.85-5.39,5.96-10.04l11.1-24.42c.14-.48.23-.83.23-1.06,0-1.23-.57-2.11-1.68-2.62-.31-.14-.69-.23-1.11-.23-1.2,0-2.05.57-2.57,1.68l-8.59,19.71-8.65-19.71c-.51-1.11-1.37-1.68-2.57-1.68-.43,0-.8.09-1.11.23-1.11.48-1.68,1.37-1.68,2.62,0,.4.09.74.23,1.06l10.81,24.36-.31.71c-1.23,2.94-2.37,4.99-3.37,6.1-1,1.14-2.34,1.71-4.05,1.71-.91,0-2.05-.57-2.74-.57-1.25,0-2.22.89-2.22,2.28,0,1.97,1.65,2.97,4.96,2.97Z"/>
      </g>
    </g>
  </g>
</svg>