<?xml version="1.0" encoding="utf-8"?>
<!-- Generator: Adobe Illustrator 27.9.0, SVG Export Plug-In . SVG Version: 6.00 Build 0)  -->
<svg version="1.1" id="Illustration" xmlns="http://www.w3.org/2000/svg" xmlns:xlink="http://www.w3.org/1999/xlink" x="0px"
	 y="0px" viewBox="0 0 1920 1080" style="enable-background:new 0 0 1920 1080;" xml:space="preserve">
<style type="text/css">
	.st0{fill:#250D45;}
	.st1{fill:#973BFC;}
	.st2{font-family:'Monosten-Bold';}
	.st3{font-size:86px;}
	.st4{clip-path:url(#SVGID_00000061462609169366704850000006168082106738969238_);}
	.st5{clip-path:url(#SVGID_00000005965555223531294640000005652896708888670116_);}
	.st6{fill:#FFFFFF;}
	.st7{fill-rule:evenodd;clip-rule:evenodd;fill:#A0A0A0;}
	.st8{fill:#A0A0A0;}
	.st9{fill:#CBA6FF;}
	.st10{fill:#E9D9FF;}
	.st11{fill:#9986A8;}
	.st12{fill:none;stroke:#34344D;stroke-linecap:round;stroke-linejoin:round;}
	.st13{fill:none;stroke:#250D45;stroke-width:4;stroke-linecap:round;stroke-linejoin:round;}
	.st14{fill:#D8CFE0;}
	.st15{fill:none;stroke:#34344D;stroke-width:3;stroke-linecap:round;stroke-linejoin:round;}
	.st16{fill:#FDAB95;}
	.st17{fill:#7324C9;}
	.st18{fill:#34344D;}
	.st19{fill:#181829;}
	.st20{fill:#E08065;}
	.st21{fill:#4D342D;}
	.st22{fill:#A67AE6;}
</style>
<rect id="Bg" class="st0" width="1920" height="1080"/>
<g id="Text_1">
	<text transform="matrix(1 0 0 1 77.88 390.98)" class="st1 st2 st3">Overcoming</text>
	<text transform="matrix(1 0 0 1 77.88 490.98)" class="st1 st2 st3">the Broken</text>
	<text transform="matrix(1 0 0 1 77.88 590.98)" class="st1 st2 st3">Window Syndrome</text>
</g>
<g id="Logo">
	<g>
		<defs>
			<rect id="SVGID_1_" x="78.3" y="65.8" width="353.3" height="91.3"/>
		</defs>
		<clipPath id="SVGID_00000140010309575421773110000009544324027593753474_">
			<use xlink:href="#SVGID_1_"  style="overflow:visible;"/>
		</clipPath>
		<g style="clip-path:url(#SVGID_00000140010309575421773110000009544324027593753474_);">
			<g>
				<defs>
					<rect id="SVGID_00000175298152939623898200000000401448240820438680_" x="78.3" y="65.8" width="353.3" height="91.3"/>
				</defs>
				<clipPath id="SVGID_00000096037289348449515920000008853855784307077283_">
					<use xlink:href="#SVGID_00000175298152939623898200000000401448240820438680_"  style="overflow:visible;"/>
				</clipPath>
				<g style="clip-path:url(#SVGID_00000096037289348449515920000008853855784307077283_);">
					<g>
						<path class="st6" d="M202,89.8c-0.1-1.2,0.8-2.3,2-2.4c1.2-0.1,2.3,0.8,2.4,2c0,0.1,0,0.3,0,0.4v0.5c0.3-0.9,0.8-1.8,1.6-2.4
							c0.9-0.7,2-1.1,3.1-1c3,0,4.9,1.2,5.6,3.4c0.3-1,1-1.8,1.8-2.4c1-0.7,2.2-1.1,3.4-1c4.1,0,6.1,2.5,6.1,6.6v15.8
							c0.1,1.2-0.8,2.3-2,2.4c-1.2,0.1-2.3-0.8-2.4-2c0-0.1,0-0.3,0-0.4V94.7c0-2.8-0.9-3.9-2.8-3.9c-2.4,0-3.6,2.2-3.6,6.6v12
							c0.1,1.2-0.8,2.3-2,2.4c-1.2,0.1-2.3-0.8-2.4-2c0-0.1,0-0.3,0-0.4V94.7c0-2.8-0.8-3.9-2.8-3.9c-2.4,0-3.7,2.4-3.6,7.2v11.4
							c0.1,1.2-0.8,2.3-2,2.4s-2.3-0.8-2.4-2c0-0.1,0-0.3,0-0.4L202,89.8L202,89.8L202,89.8z"/>
						<path class="st6" d="M255.2,104.6c-0.7,0-1.3,0.3-1.7,0.8c-1.7,2-4.1,3-7.3,3c-1.9,0.1-3.8-0.7-5.1-2c-1.3-1.3-2.2-3.1-2.4-5
							h16.8c1.2,0.1,2.3-0.8,2.5-2.1c0-0.1,0-0.3,0-0.4c0.1-3.2-1.1-6.2-3.3-8.5c-2.2-2.3-5.3-3.5-8.4-3.4c-3.7,0-6.6,1.2-8.8,3.6
							c-4.3,5.2-4.3,12.8,0,18.1c2.2,2.4,5.1,3.6,8.8,3.6c4.3,0,7.8-1.2,10.3-3.7c0.9-0.8,1-2.2,0.2-3.2c0,0,0,0,0,0
							C256.4,104.8,255.9,104.5,255.2,104.6L255.2,104.6L255.2,104.6z M241.2,92.8c1.4-1.3,3.2-2,5-1.9c1.8-0.1,3.4,0.6,4.7,1.8
							c1.2,1.3,2.1,3,2.5,4.8h-14.7C239,95.7,239.9,94,241.2,92.8"/>
						<path class="st6" d="M271.5,77.2c1.4,0,2.2,1,2.2,2.4v7.8h8.8c1.5,0,2.3,0.6,2.3,1.9s-0.8,1.9-2.3,1.9h-8.8V104
							c0,3,1.6,4.3,3.8,4.3c1.2,0.1,2.3-0.2,3.4-0.8l1.4-1c0.4-0.3,0.8-0.5,1.3-0.5c1.1,0,2,0.9,2,2v0.1c0,0.7-0.5,1.4-1.4,2.1
							c-2,1.4-4.4,2.1-6.9,2c-2.4,0-4.3-0.6-5.8-1.9s-2.2-3.2-2.2-5.9V91.4H263c-1.5,0-2.3-0.6-2.3-1.9s0.8-1.9,2.3-1.9h6.3v-7.8
							c-0.1-1.2,0.8-2.3,2-2.4C271.4,77.2,271.5,77.2,271.5,77.2L271.5,77.2L271.5,77.2z"/>
						<path class="st6" d="M311.2,87.4c-1.2,0-2.1,1-2.2,2.5c-0.8-1-1.8-1.8-3-2.2c-1.2-0.5-2.5-0.8-3.9-0.8c-3.5,0-6.3,1.2-8.3,3.7
							c-2.1,2.5-3.1,5.7-3.1,8.9c-0.1,3.2,1,6.4,3,9c2,2.4,4.8,3.7,8.4,3.7c1.3,0,2.6-0.3,3.9-0.8c1.2-0.4,2.2-1.2,3-2.2
							c0.1,1.6,1,2.5,2.2,2.5c1.2,0.1,2.3-0.9,2.4-2.1c0-0.1,0-0.2,0-0.3V89.9c0.1-1.2-0.8-2.3-2-2.4
							C311.4,87.4,311.3,87.4,311.2,87.4 M307.2,105.9c-2.3,2.8-6.4,3.2-9.2,1c-0.4-0.3-0.7-0.6-1-1c-1.3-1.8-2-4.1-1.9-6.3
							c-0.1-2.3,0.6-4.5,1.9-6.3c2.2-2.8,6.3-3.3,9.1-1c0.4,0.3,0.7,0.7,1,1c1.4,1.8,2,4.1,1.9,6.3
							C309.2,101.9,308.6,104.1,307.2,105.9"/>
						<path class="st1" d="M329.8,107.9V81.6h-5.4c-1.4,0-2.4-0.7-2.4-1.9s1-1.9,2.4-1.9h7.6c1.1-0.1,2.1,0.8,2.2,1.9v28.2h7
							c1.4,0,2.4,0.7,2.4,1.9s-1,1.9-2.4,1.9h-18.5c-1.4,0-2.4-0.7-2.4-1.9s1-1.9,2.4-1.9L329.8,107.9L329.8,107.9L329.8,107.9z"/>
						<path class="st1" d="M366.4,87.4c-1.2,0-2.1,1-2.2,2.5c-0.8-1-1.8-1.8-3-2.2c-1.2-0.5-2.5-0.8-3.8-0.8c-3.5,0-6.3,1.2-8.3,3.7
							c-2.1,2.5-3.1,5.7-3.1,8.9c-0.1,3.2,1,6.4,3,9c2,2.4,4.8,3.7,8.4,3.7c1.3,0,2.6-0.3,3.9-0.8c1.2-0.4,2.2-1.2,3-2.2
							c0.1,1.6,1,2.5,2.2,2.5c1.2,0.1,2.3-0.9,2.4-2.1c0-0.1,0-0.2,0-0.3V89.9c0.1-1.2-0.8-2.3-2-2.4
							C366.6,87.4,366.5,87.4,366.4,87.4 M362.4,105.9c-2.3,2.8-6.4,3.2-9.2,1c-0.4-0.3-0.7-0.6-1-1c-1.3-1.8-2-4.1-1.9-6.3
							c-0.1-2.3,0.6-4.5,1.9-6.3c2.2-2.8,6.3-3.3,9.1-1c0.4,0.3,0.7,0.7,1,1c1.4,1.8,2,4.1,1.9,6.3
							C364.4,101.9,363.8,104.1,362.4,105.9"/>
						<path class="st1" d="M376.4,89.8c-0.1-1.2,0.8-2.3,2-2.4c1.2-0.1,2.3,0.8,2.4,2c0,0.1,0,0.3,0,0.4v0.5
							c0.2-0.9,0.8-1.8,1.6-2.4c0.9-0.7,2-1.1,3.1-1c3,0,4.9,1.2,5.6,3.4c0.3-1,1-1.8,1.8-2.4c1-0.7,2.2-1.1,3.4-1
							c4.1,0,6.1,2.5,6.1,6.6v15.8c0.1,1.2-0.8,2.3-2,2.4c-1.2,0.1-2.3-0.8-2.4-2c0-0.1,0-0.3,0-0.4V94.7c0-2.8-0.9-3.9-2.8-3.9
							c-2.5,0-3.7,2.2-3.7,6.6v12c0.1,1.2-0.8,2.3-2,2.4c-1.2,0.1-2.3-0.8-2.4-2c0-0.1,0-0.3,0-0.4V94.7c0-2.8-0.8-3.9-2.8-3.9
							c-2.5,0-3.6,2.4-3.6,7.2v11.4c0.1,1.2-0.8,2.3-2,2.4s-2.3-0.8-2.4-2c0-0.1,0-0.3,0-0.4L376.4,89.8L376.4,89.8L376.4,89.8z"/>
						<path class="st1" d="M429.3,87.4c-1.2,0-2.1,1-2.2,2.5c-0.8-1-1.8-1.8-3-2.2c-1.2-0.5-2.5-0.8-3.8-0.8c-3.5,0-6.3,1.2-8.3,3.7
							c-2.1,2.5-3.1,5.7-3.1,8.9c-0.1,3.2,1,6.4,3,9c2,2.4,4.8,3.7,8.4,3.7c1.3,0,2.6-0.3,3.8-0.8c1.2-0.4,2.2-1.2,3-2.2
							c0.1,1.6,1,2.5,2.2,2.5c1.2,0.1,2.3-0.9,2.3-2.1V89.9c0.1-1.2-0.8-2.3-2-2.4C429.5,87.4,429.4,87.4,429.3,87.4 M425.3,105.9
							c-2.3,2.8-6.4,3.2-9.2,1c-0.4-0.3-0.7-0.6-1-1c-1.3-1.8-2-4.1-1.9-6.3c-0.1-2.3,0.6-4.5,1.9-6.3c2.2-2.8,6.3-3.3,9.1-1
							c0.4,0.3,0.7,0.7,1,1c1.4,1.8,2,4.1,1.9,6.3C427.3,101.9,426.7,104.1,425.3,105.9"/>
						<path class="st7" d="M428.6,148c-1.3,1.5-3.2,2.3-5.5,2.3c-0.9,0-1.8-0.2-2.7-0.5s-1.5-0.8-1.8-1.4v6.4c0,0.9-0.6,1.5-1.4,1.5
							s-1.4-0.7-1.4-1.5v-18.8c0-0.9,0.6-1.5,1.4-1.5c0.8,0,1.4,0.7,1.4,1.5c0.4-0.6,1-1.1,1.9-1.4s1.7-0.4,2.7-0.4
							c2.4,0,4.2,0.7,5.5,2.1s2,3.4,2,6C430.6,144.6,429.9,146.5,428.6,148 M426.6,138.1c-0.8-1-1.9-1.5-3.4-1.5s-2.6,0.5-3.4,1.5
							c-0.8,1-1.2,2.4-1.2,4.1s0.4,3.1,1.2,4.1c0.8,1,1.9,1.5,3.4,1.5s2.6-0.5,3.4-1.5c0.8-1,1.2-2.4,1.2-4.1
							S427.3,139.1,426.6,138.1 M411.8,139.3c-0.5,0-1-0.3-1.2-0.9c-0.6-1.2-1.6-1.8-2.9-1.8c-1.6,0-2.8,0.6-3.6,1.8
							c-0.8,1.2-1.2,2.7-1.2,4.4v5.6c0,0.9-0.6,1.6-1.4,1.6s-1.4-0.7-1.4-1.6V136c0-0.9,0.6-1.6,1.4-1.6s1.4,0.7,1.4,1.6v0.7
							c0.4-0.7,1-1.3,1.9-1.8c0.9-0.5,1.9-0.8,2.9-0.8c2.7,0,4.5,1,5.5,2.9c0.1,0.3,0.2,0.5,0.2,0.7
							C413.4,138.7,412.6,139.3,411.8,139.3 M394,149.9c-0.8,0-1.4-0.6-1.4-1.6c-0.5,0.6-1.1,1.1-2,1.4c-0.9,0.4-1.8,0.6-2.6,0.6
							c-2.4,0-4.2-0.8-5.6-2.4s-2-3.5-2-5.7s0.7-4.1,2.1-5.7c1.3-1.6,3.2-2.4,5.5-2.4c0.9,0,1.7,0.2,2.6,0.5c0.9,0.3,1.5,0.8,2,1.4
							c0.1-1,0.6-1.6,1.4-1.6c0.9,0,1.6,0.6,1.6,1.5v12.5C395.6,149.4,394.9,149.9,394,149.9 M391.3,138.1c-0.9-1.1-2-1.6-3.4-1.6
							s-2.5,0.5-3.4,1.6s-1.2,2.4-1.2,4.1s0.5,3,1.2,4.1c0.9,1.1,2,1.5,3.4,1.5s2.5-0.5,3.4-1.5c0.9-1.1,1.3-2.4,1.3-4.1
							S392.2,139.2,391.3,138.1 M376.6,150c-0.9,0-1.4-0.7-1.4-1.5v-7.8c0-1.5-0.2-2.5-0.7-3.2s-1.3-1-2.5-1c-1.4,0-2.5,0.6-3.4,1.7
							c-0.8,1.1-1.2,2.5-1.2,4.3v5.9c0,0.9-0.6,1.5-1.4,1.5c-0.9,0.1-1.5-0.6-1.5-1.5v-18.8c0-0.9,0.6-1.5,1.4-1.5s1.4,0.7,1.4,1.5
							v6.9c0.2-0.7,0.8-1.3,1.7-1.7c0.9-0.5,1.8-0.7,2.9-0.7c4.1,0,6.1,2,6.1,6v8.4C378,149.4,377.4,150,376.6,150L376.6,150
							L376.6,150z M355,141.1c0.8,0.1,1.4,0.2,1.9,0.3c0.5,0.1,1,0.2,1.6,0.4c0.7,0.2,1.2,0.4,1.5,0.7c0.7,0.5,1.3,1.5,1.3,2.9
							c0,1.6-0.7,2.9-2,3.7c-1.3,0.9-3,1.4-5,1.4c-3-0.1-5.2-1.1-6.7-2.8c-0.3-0.4-0.5-0.7-0.5-1c0-0.8,0.5-1.4,1.4-1.4
							c0.5,0,1,0.2,1.3,0.7c1,1.3,2.5,2,4.3,2c2.7,0,4-0.8,4-2.5c0-0.7-0.3-1.1-1.3-1.4c-0.5-0.1-0.9-0.3-1.3-0.3
							c-0.3-0.1-0.9-0.1-1.7-0.3c-0.9-0.1-1.6-0.3-2.3-0.4c-0.6-0.2-1.2-0.4-1.9-0.7c-1.3-0.6-2-1.8-2-3.3s0.6-2.8,1.8-3.6
							c1.3-0.8,2.7-1.3,4.5-1.3c2.7,0,4.6,0.9,5.9,2.6c0.2,0.3,0.3,0.6,0.3,0.9c0,0.8-0.6,1.4-1.6,1.4c-0.5,0-0.9-0.2-1.1-0.7
							c-0.8-1.2-1.9-1.8-3.5-1.8c-2.1,0-3.4,0.8-3.4,2.2C350.8,140.2,352.3,140.7,355,141.1L355,141.1z"/>
						<path class="st7" d="M290.3,148c-1.3,1.5-3.2,2.3-5.5,2.3c-0.9,0-1.8-0.2-2.7-0.5s-1.5-0.8-1.8-1.4v6.4c0,0.9-0.6,1.5-1.4,1.5
							s-1.4-0.7-1.4-1.5v-18.8c0-0.9,0.6-1.5,1.4-1.5c0.8,0,1.4,0.7,1.4,1.5c0.4-0.6,1-1.1,1.9-1.4c0.9-0.3,1.7-0.4,2.7-0.4
							c2.4,0,4.2,0.7,5.5,2.1c1.3,1.4,2,3.4,2,6C292.3,144.6,291.6,146.5,290.3,148 M288.3,138.1c-0.8-1.1-2-1.5-3.4-1.5
							s-2.6,0.5-3.4,1.5c-0.8,1-1.2,2.4-1.2,4.1s0.4,3.1,1.2,4.1c0.8,1,1.9,1.5,3.4,1.5s2.6-0.5,3.4-1.5c0.8-1,1.2-2.4,1.2-4.1
							S289,139.1,288.3,138.1"/>
						<path class="st7" d="M308.2,148.1c-1.4,1.5-3.3,2.3-5.6,2.3s-4.2-0.7-5.6-2.3c-1.4-1.5-2.1-3.5-2.1-5.8s0.7-4.3,2.1-5.8
							c1.4-1.6,3.3-2.3,5.6-2.3s4.2,0.7,5.6,2.3c1.4,1.5,2.1,3.5,2.1,5.8S309.6,146.6,308.2,148.1 M306.1,138.1
							c-0.9-1.1-2.1-1.5-3.5-1.5s-2.6,0.5-3.5,1.5c-0.9,1-1.3,2.4-1.3,4.1s0.5,3.1,1.3,4.1c0.9,1,2.1,1.5,3.5,1.5s2.6-0.5,3.5-1.5
							c0.9-1,1.3-2.4,1.3-4.1S307,139.1,306.1,138.1"/>
						<path class="st7" d="M313.2,147.6c-0.3-0.4-0.5-0.7-0.5-1c0-0.8,0.5-1.4,1.4-1.4c0.5,0,1,0.2,1.3,0.7c1,1.3,2.5,2,4.3,2
							c2.7,0,4-0.8,4-2.5c0-0.7-0.3-1.1-1.3-1.4c-0.5-0.1-0.9-0.3-1.2-0.3c-0.3-0.1-0.9-0.1-1.7-0.3c-0.9-0.1-1.7-0.3-2.3-0.4
							c-0.6-0.2-1.2-0.4-1.9-0.7c-1.3-0.6-2-1.8-2-3.3s0.6-2.8,1.8-3.6c1.2-0.8,2.7-1.3,4.5-1.3c2.7,0,4.6,0.9,5.9,2.6
							c0.2,0.3,0.3,0.6,0.3,0.9c0,0.8-0.6,1.4-1.6,1.4c-0.5,0-0.9-0.2-1.1-0.7c-0.8-1.2-1.9-1.8-3.5-1.8c-2.1,0-3.4,0.8-3.4,2.2
							c0,1.3,1.5,1.8,4.2,2.2c0.8,0.1,1.4,0.2,1.9,0.3c0.5,0.1,1,0.2,1.7,0.4c0.7,0.2,1.2,0.4,1.5,0.7c0.7,0.5,1.3,1.5,1.3,2.9
							c0,1.6-0.7,2.9-2,3.7c-1.3,0.9-3,1.4-5,1.4C316.9,150.3,314.7,149.4,313.2,147.6L313.2,147.6L313.2,147.6z"/>
						<path class="st7" d="M333.7,129.4c0-0.9,0.6-1.5,1.4-1.5c0.9,0,1.4,0.7,1.4,1.5v5h5.9c1,0,1.5,0.4,1.5,1.3s-0.5,1.3-1.5,1.3
							h-5.9v8.1c0,1.9,1,2.8,2.5,2.8c1,0,1.8-0.3,2.2-0.5l0.9-0.7c0.3-0.2,0.6-0.3,0.9-0.3c0.8,0,1.3,0.6,1.3,1.4
							c0,0.5-0.3,0.9-0.9,1.4c-1.2,0.8-2.8,1.3-4.6,1.3c-1.6,0-2.9-0.4-3.9-1.2c-1-0.8-1.4-2.1-1.4-3.8v-8.5h-4.2
							c-1,0-1.5-0.4-1.5-1.3s0.5-1.3,1.5-1.3h4.2L333.7,129.4L333.7,129.4L333.7,129.4L333.7,129.4z"/>
						<path class="st8" d="M238.1,150.8c2.3,0,4.1-0.7,5.3-2.1s1.9-3.4,1.9-6c0-2.4-0.6-4.3-1.9-5.8c-1.3-1.5-3.1-2.3-5.3-2.3
							c-0.9,0-1.8,0.2-2.6,0.6c-0.8,0.4-1.4,0.8-1.8,1.4v-6.4c0-0.9-0.6-1.5-1.4-1.5s-1.4,0.7-1.4,1.5V149c0,0.9,0.6,1.5,1.4,1.5
							c0.7,0,1.4-0.7,1.4-1.5c0.4,0.6,1,1.1,1.8,1.4C236.3,150.7,237.2,150.8,238.1,150.8 M242.5,142.7c0,1.7-0.4,3.1-1.1,4.1
							c-0.8,1-1.9,1.5-3.3,1.5s-2.5-0.5-3.3-1.5c-0.8-1-1.1-2.4-1.1-4.1s0.4-3.1,1.1-4.1c0.8-1,1.9-1.5,3.3-1.5s2.5,0.5,3.3,1.5
							C242.1,139.6,242.5,141,242.5,142.7"/>
						<path class="st8" d="M251.1,157.1c1.6,0,2.9-0.6,3.9-1.7c1-1.1,2.1-2.9,3.2-5.4l5.9-13.1c0.1-0.3,0.1-0.4,0.1-0.6
							c0-0.7-0.3-1.1-0.9-1.4c-0.2-0.1-0.4-0.1-0.6-0.1c-0.6,0-1.1,0.3-1.4,0.9l-4.6,10.6l-4.6-10.6c-0.3-0.6-0.7-0.9-1.4-0.9
							c-0.2,0-0.4,0.1-0.6,0.1c-0.6,0.3-0.9,0.7-0.9,1.4c0,0.2,0.1,0.4,0.1,0.6l5.8,13l-0.2,0.4c-0.7,1.6-1.3,2.7-1.8,3.3
							c-0.5,0.6-1.2,0.9-2.2,0.9c-0.5,0-1.1-0.3-1.5-0.3c-0.7,0-1.2,0.5-1.2,1.2C248.4,156.6,249.3,157.1,251.1,157.1L251.1,157.1
							L251.1,157.1z"/>
						<path class="st1" d="M95.2,123h-16c-0.5,0-0.9,0.4-0.9,0.9v14.2c0,0.5,0.4,0.9,0.9,0.9h10.3c0.4,0,0.7-0.2,0.9-0.6l5.6-14.2
							C96.4,123.7,95.9,123,95.2,123"/>
						<path class="st1" d="M150.1,123h-35.1l9.9-56.2c0.1-0.6-0.3-1.1-0.9-1.1h-14.1c-0.5,0-0.8,0.3-0.9,0.8l-3.6,20.4H85.6
							c-0.5,0-0.9,0.4-0.9,0.9v14.2c0,0.5,0.4,0.9,0.9,0.9h16.9l-9.3,53c-0.1,0.6,0.3,1.1,0.9,1.1h14.1c0.5,0,0.8-0.3,0.9-0.8
							l3-17.2h20.1l-3,16.9c-0.1,0.6,0.3,1.1,0.9,1.1h14.1c0.5,0,0.9-0.3,0.9-0.8l5.7-32.2C151.2,123.6,150.7,123,150.1,123"/>
						<path class="st1" d="M168.7,123h-10.9c-0.4,0-0.7,0.2-0.9,0.6l-5.6,14.2c-0.2,0.6,0.2,1.3,0.9,1.3h16.5c0.5,0,0.9-0.4,0.9-0.9
							V124C169.7,123.4,169.2,123,168.7,123"/>
						<path class="st1" d="M175.1,87h-17.5l3.5-20.1c0.1-0.6-0.3-1.1-0.9-1.1h-14.1c-0.5,0-0.9,0.3-0.9,0.8L141.6,87H128
							c-0.4,0-0.7,0.2-0.9,0.6l-5.6,14.2c-0.2,0.6,0.2,1.3,0.9,1.3h16.3l-2.3,13.2c-0.1,0.5,0.2,1,0.7,1.1l13.6,3.2
							c0.5,0.1,1.1-0.2,1.1-0.8l2.9-16.7h20.3c0.5,0,0.9-0.4,0.9-0.9V87.9C176,87.4,175.6,86.9,175.1,87"/>
					</g>
				</g>
			</g>
		</g>
	</g>
</g>
<g id="Illustration-2">
	<path class="st9" d="M1018.7,866.2c-37.8-13.1-68.8-46-79.5-84.6c-10.6-38.6-1.1-82.2,24.7-112.8c39.2-46.5,110.7-62.7,137.2-117.4
		c25.6-53-3.3-115.9,2.6-174.4c7.5-74.4,72.4-139.6,148.1-141c48.9-0.9,92.9,25,124.3,60.7c9.7,11,19.6,22.1,31.6,30.5
		c45.3,31.4,107,22.3,158.1,16.6c40.8-4.5,80.6-2.8,115.9,19.9c50.3,32.2,84.6,89.9,71.2,151c-7.3,33.1-27.5,62.3-33.4,95.7
		c-6.8,38.3,9.1,74.8,31.3,105.2c8.3,11.4,17.9,22,24.9,34.2c24.8,43.5-1.5,99.9-47.1,116.5"/>
	<path class="st1" d="M1134.1,621.9c3.4-7,5.9-14.4,7.5-22c1.5-7.6,2-15.5,1.5-23.2c9.6-1.4,19.2-3,28.7-4.9
		c-0.8-9.3-2.8-18.5-5.8-27.3c-1.5-4.4-3.3-8.7-5.3-12.9c-2.1-4.2-4.3-8.3-6.8-12.2c-8.7,4.3-17.3,8.9-25.7,13.7
		c-4.4-6.4-9.5-12.4-15.4-17.5c-2.9-2.6-6-4.9-9.3-7.1c-1.6-1.1-3.3-2.1-5-3.1c-0.8-0.5-1.7-1-2.6-1.4l-2.6-1.3
		c3.6-9,6.9-18.1,10.1-27.3c-8.5-3.9-17.4-6.8-26.5-8.6c-9.1-1.8-18.5-2.5-27.8-2.1c-0.6,9.7-0.9,19.4-1.1,29.1l-2.9,0.2
		c-1,0.1-1.9,0.2-2.9,0.4c-1.9,0.2-3.8,0.6-5.8,0.9c-3.8,0.8-7.6,1.8-11.3,3c-7.4,2.5-14.4,6-20.9,10.3c-6-7.6-12.2-15.1-18.6-22.4
		c-3.8,2.6-7.4,5.6-10.9,8.7c-3.4,3.1-6.8,6.4-9.8,10c-6.2,7-11.5,14.8-15.8,23.1c8.1,5.4,16.4,10.5,24.7,15.4
		c-3.5,7-5.9,14.4-7.5,22c-1.5,7.6-2,15.5-1.5,23.2c-9.6,1.4-19.2,3-28.7,4.9c0.8,9.3,2.8,18.5,5.8,27.3c1.5,4.4,3.3,8.7,5.3,12.9
		c2.1,4.2,4.3,8.3,6.8,12.2c8.7-4.3,17.3-8.9,25.7-13.7c4.4,6.4,9.5,12.4,15.4,17.5c2.9,2.6,6,4.9,9.2,7.1c1.6,1.1,3.3,2.1,5,3.1
		c0.8,0.5,1.7,1,2.5,1.4l2.6,1.3c-3.6,9-6.9,18.1-10.1,27.3c8.5,3.9,17.4,6.8,26.5,8.6c9.1,1.8,18.5,2.5,27.8,2.2
		c0.6-9.7,0.9-19.4,1.1-29.1l2.9-0.2c1-0.1,1.9-0.2,2.9-0.3c1.9-0.2,3.8-0.6,5.8-0.9c3.8-0.8,7.6-1.8,11.3-3
		c7.4-2.5,14.4-6,20.9-10.3c6,7.6,12.2,15.1,18.6,22.4c3.8-2.7,7.4-5.6,10.9-8.7c3.4-3.2,6.8-6.4,9.8-10c6.2-7,11.5-14.8,15.8-23
		C1150.7,632,1142.5,626.8,1134.1,621.9L1134.1,621.9z M1096.2,603.3l-0.7,1.4c-0.2,0.5-0.5,0.9-0.8,1.3c-0.5,0.9-1.1,1.7-1.6,2.6
		c-1.2,1.7-2.3,3.3-3.7,4.8c-2.7,3.1-5.8,5.8-9.2,8.1c-3.4,2.2-7.1,4.2-11,5.4c-1.9,0.7-3.9,1.2-5.9,1.6c-1,0.2-2,0.4-3,0.5
		c-0.5,0-1,0.2-1.5,0.2l-1.5,0.1c-4.1,0.3-8.2,0-12.3-0.8c-4.1-0.9-8-2.1-11.6-3.9l-1.4-0.7c-0.5-0.2-0.9-0.5-1.3-0.8
		c-0.9-0.5-1.7-1.1-2.6-1.6c-1.7-1.2-3.3-2.4-4.8-3.7c-3.1-2.7-5.8-5.8-8.1-9.2c-2.2-3.5-4.2-7.1-5.4-11c-0.7-1.9-1.2-3.9-1.6-5.9
		c-0.2-1-0.4-2-0.5-3c0-0.5-0.2-1-0.2-1.5l-0.1-1.5c-0.3-4.1,0-8.2,0.8-12.3c0.9-4.1,2.1-8,3.9-11.6l0.7-1.4
		c0.2-0.5,0.5-0.9,0.8-1.3c0.5-0.9,1.1-1.7,1.6-2.6c1.2-1.7,2.3-3.3,3.7-4.9c2.7-3.1,5.9-5.8,9.2-8.1c3.4-2.2,7.1-4.2,11-5.4
		c1.9-0.7,3.9-1.2,5.9-1.6c1-0.2,2-0.4,3-0.5c0.5-0.1,1-0.2,1.5-0.2l1.5-0.1c4.1-0.3,8.2,0,12.3,0.8c4.1,0.9,8,2.1,11.6,3.9l1.4,0.7
		c0.5,0.2,0.9,0.5,1.3,0.8c0.9,0.5,1.7,1.1,2.6,1.6c1.7,1.2,3.3,2.3,4.8,3.7c3.1,2.7,5.8,5.8,8.1,9.2c2.2,3.5,4.2,7.1,5.4,11
		c0.7,1.9,1.2,3.9,1.6,5.9c0.2,1,0.4,2,0.5,3c0.1,0.5,0.2,1,0.2,1.5l0.1,1.5c0.3,4.1,0,8.2-0.8,12.3
		C1099.3,595.7,1098,599.6,1096.2,603.3L1096.2,603.3z"/>
	<path class="st1" d="M1164.4,433.8c2.7-4.7,4.8-9.8,6.2-15c1.4-5.2,2.1-10.7,2.1-16.1c6.8-0.5,13.5-1.2,20.2-2.1
		c-0.1-6.5-1.1-13-2.8-19.3c-0.8-3.1-1.9-6.2-3.1-9.3c-1.2-3-2.6-6-4.2-8.8c-6.3,2.6-12.4,5.4-18.5,8.3c-2.8-4.7-6-9.1-9.9-12.9
		c-1.9-2-4-3.7-6.1-5.4c-1.1-0.8-2.2-1.6-3.3-2.4c-0.6-0.4-1.1-0.8-1.7-1.1l-1.8-1c2.9-6.1,5.7-12.3,8.3-18.6
		c-5.7-3.1-11.8-5.5-18.1-7.2c-6.2-1.7-12.7-2.6-19.3-2.8c-0.9,6.7-1.6,13.5-2.1,20.2l-2,0c-0.7,0-1.4,0.1-2,0.1
		c-1.4,0.1-2.7,0.2-4.1,0.4c-2.7,0.4-5.4,0.9-8,1.6c-5.3,1.4-10.3,3.5-15,6.2c-3.8-5.6-7.8-11.1-11.9-16.5c-2.8,1.7-5.4,3.6-8,5.5
		c-2.5,2-5,4.2-7.3,6.5c-4.6,4.6-8.7,9.7-12.1,15.3c5.4,4.1,10.9,8.1,16.5,11.9c-2.7,4.7-4.8,9.8-6.2,15c-1.4,5.2-2.1,10.7-2.1,16.1
		c-6.8,0.5-13.5,1.2-20.2,2.1c0.1,6.5,1.1,13,2.8,19.3c0.8,3.1,1.9,6.2,3.1,9.3c1.2,3,2.6,6,4.2,8.8c6.3-2.6,12.4-5.4,18.5-8.3
		c2.8,4.7,6,9.1,9.9,12.9c1.9,1.9,4,3.7,6.1,5.4c1.1,0.8,2.2,1.6,3.3,2.4c0.6,0.4,1.1,0.8,1.7,1.1l1.8,1c-2.9,6.1-5.7,12.3-8.3,18.6
		c5.7,3.1,11.8,5.5,18.1,7.2c6.2,1.7,12.7,2.6,19.3,2.8c0.9-6.7,1.6-13.5,2.1-20.2l2,0c0.7,0,1.4-0.1,2-0.1c1.4-0.1,2.7-0.2,4.1-0.4
		c2.7-0.4,5.4-0.9,8-1.6c5.3-1.4,10.3-3.5,15-6.2c3.8,5.6,7.8,11.1,11.9,16.5c2.8-1.7,5.4-3.6,8-5.5c2.5-2,5-4.2,7.3-6.5
		c4.6-4.6,8.7-9.7,12.1-15.3C1175.5,441.6,1170,437.7,1164.4,433.8L1164.4,433.8z M1138.9,419.1l-0.5,0.9c-0.2,0.3-0.4,0.6-0.6,0.9
		c-0.4,0.6-0.8,1.2-1.2,1.7c-0.9,1.1-1.8,2.2-2.8,3.2c-2,2-4.3,3.8-6.8,5.2c-2.5,1.4-5.2,2.6-7.9,3.3c-1.4,0.4-2.8,0.6-4.2,0.8
		c-0.7,0.1-1.4,0.2-2.1,0.2c-0.3,0-0.7,0.1-1.1,0.1h-1.1c-2.8,0-5.7-0.4-8.5-1.1c-2.8-0.8-5.5-1.9-7.9-3.3l-0.9-0.5
		c-0.3-0.2-0.6-0.4-0.9-0.6c-0.6-0.4-1.2-0.8-1.7-1.2c-1.1-0.9-2.2-1.8-3.2-2.8c-2-2-3.8-4.3-5.2-6.8c-1.4-2.5-2.6-5.2-3.3-7.9
		c-0.4-1.4-0.6-2.8-0.8-4.2c-0.1-0.7-0.2-1.4-0.2-2.1c0-0.4-0.1-0.7-0.1-1.1l0-1.1c0-2.9,0.4-5.7,1.1-8.5c0.8-2.8,1.9-5.5,3.3-7.9
		l0.6-0.9c0.2-0.3,0.4-0.6,0.6-0.9c0.4-0.6,0.8-1.2,1.2-1.7c0.9-1.1,1.8-2.2,2.8-3.2c2-2,4.3-3.8,6.8-5.2c2.5-1.4,5.2-2.6,7.9-3.3
		c1.4-0.4,2.8-0.6,4.2-0.8c0.7-0.1,1.4-0.2,2.1-0.2c0.4,0,0.7-0.1,1.1-0.1l1.1,0c2.8,0,5.7,0.4,8.5,1.1c2.8,0.8,5.5,1.9,7.9,3.3
		l0.9,0.5c0.3,0.2,0.6,0.4,0.9,0.6c0.6,0.4,1.2,0.8,1.7,1.2c1.1,0.9,2.2,1.8,3.2,2.8c2,2,3.8,4.3,5.2,6.8c1.4,2.5,2.6,5.2,3.3,7.9
		c0.4,1.4,0.6,2.8,0.8,4.2c0.1,0.7,0.2,1.4,0.2,2.1c0,0.4,0.1,0.7,0.1,1.1v1.1c0,2.9-0.4,5.7-1.1,8.5
		C1141.4,413.9,1140.3,416.6,1138.9,419.1L1138.9,419.1z"/>
	<rect x="1043.8" y="495.7" class="st10" width="559.7" height="370.5"/>
	<path class="st11" d="M1619.2,477.6l-288-289.9c-4.2-4.2-10.9-4.2-15.1,0l-288,289.9c-6.7,6.7-1.9,18.1,7.5,18.1h576
		C1621.1,495.7,1625.9,484.3,1619.2,477.6L1619.2,477.6z"/>
	<polygon class="st10" points="1538.2,396.1 1538.2,291.5 1465.9,291.5 1465.9,323.3 	"/>
	<g>
		<rect x="1084.3" y="564.2" class="st0" width="117.4" height="98.7"/>
		<rect x="1259.8" y="558.8" class="st11" width="127.7" height="109.5"/>
		<rect x="1440.4" y="558.8" class="st11" width="127.7" height="109.5"/>
		<rect x="1264.9" y="564.2" class="st0" width="117.4" height="98.7"/>
		<rect x="1445.5" y="564.2" class="st0" width="117.4" height="98.7"/>
		<rect x="1079.5" y="558.8" class="st11" width="127.7" height="109.5"/>
		<rect x="1259.8" y="695.4" class="st11" width="127.7" height="109.5"/>
		<rect x="1440.4" y="695.4" class="st11" width="127.7" height="109.5"/>
		<rect x="1079.5" y="695.4" class="st11" width="127.7" height="109.5"/>
		<rect x="1084.6" y="564.2" class="st0" width="117.4" height="98.7"/>
		<rect x="1084.3" y="700.7" class="st0" width="117.4" height="98.7"/>
		<rect x="1264.9" y="700.7" class="st0" width="117.4" height="98.7"/>
		<polygon class="st6" points="1264.9,741.2 1274.4,754.4 1299.4,724.2 1295.8,766.4 1310.9,755.4 1326.5,776.1 1339,750.2 
			1351.5,763.3 1359.4,758.2 1363.2,761 1382.4,744.9 1382.4,799.4 1264.9,800.6 		"/>
		<rect x="1445.5" y="700.7" class="st0" width="117.4" height="98.7"/>
	</g>
	<polygon class="st6" points="1084.3,584.8 1088.3,595.5 1094.4,569.2 1100.5,582.9 1107.7,569.2 1117,599.5 1127.4,573.7 
		1139.2,582 1153.9,564.2 1084.3,564.2 	"/>
	<polygon class="st6" points="1084.6,653.1 1090.4,636 1097.5,647.9 1105,625.4 1116.8,650.3 1124.4,645.5 1132.9,651.3 1150,606.4 
		1161.3,647.3 1172,639.7 1185.7,650.3 1202.1,634.6 1202.1,662.9 1084.6,662.9 	"/>
	<g>
		<path class="st1" d="M1065.6,583.2v21.5c0,1.2,0.9,2.2,2,2.3l146.8,20.8c1.4,0.2,2.7-0.9,2.7-2.3v-25.8c0-1.2-0.9-2.2-2.1-2.3
			l-146.8-16.5C1066.9,580.7,1065.6,581.8,1065.6,583.2L1065.6,583.2z"/>
		<path class="st1" d="M1065.2,643.6l7.4,29c0.3,1.2,1.5,2,2.7,1.9l156.8-17.8c1.4-0.2,2.4-1.5,2.2-2.9l-4.6-28
			c-0.2-1.3-1.4-2.2-2.7-2.1l-159.6,16.8C1065.9,640.7,1064.9,642.1,1065.2,643.6L1065.2,643.6z"/>
		<path class="st12" d="M1231.6,637l-1.9-11.3c-0.2-1.3-1.4-2.2-2.7-2.1l-42.9,4.5"/>
		<line class="st12" x1="1077.5" y1="651" x2="1159" y2="641.8"/>
		<line class="st12" x1="1132.4" y1="657.3" x2="1217.1" y2="647.6"/>
		<line class="st12" x1="1079.2" y1="590" x2="1150.3" y2="598.7"/>
		<line class="st12" x1="1107.8" y1="603.6" x2="1187.7" y2="613.5"/>
	</g>
	<path class="st1" d="M1427.2,590.5l3.3,18.5c0.3,1.5,1.6,2.5,3.1,2.3l137.6-18.5c1.5-0.2,2.6-1.6,2.4-3.2l-2.6-17.2
		c-0.2-1.5-1.6-2.5-3.1-2.3l-138.3,17.2C1428,587.5,1426.9,588.9,1427.2,590.5L1427.2,590.5z"/>
	<line class="st12" x1="1443.9" y1="593.8" x2="1528.4" y2="582.9"/>
	<line class="st12" x1="1510.4" y1="593.8" x2="1557.8" y2="587.6"/>
	<g>
		<path class="st1" d="M1249.1,771.8v37.6c0,1.6,1.7,2.7,3.2,1.9l146.1-78.6c0.7-0.4,1.1-1.1,1.1-1.9v-24c0-1.6-1.6-2.6-3-2
			l-146.1,65C1249.6,770.2,1249.1,771,1249.1,771.8L1249.1,771.8z"/>
		<path class="st1" d="M1286,807.4l10.6,18c0.8,1.3,2.4,1.8,3.7,1.2l101.1-45.9c1.1-0.5,1.7-1.5,1.7-2.7v-26.4
			c0-2.2-2.3-3.6-4.2-2.6l-111.7,54.3C1285.7,804,1285.1,805.9,1286,807.4L1286,807.4z"/>
		<line class="st12" x1="1266.8" y1="774.9" x2="1355.8" y2="732.7"/>
		<line class="st12" x1="1327.8" y1="759.5" x2="1384.9" y2="730.2"/>
		<line class="st12" x1="1300.2" y1="806.7" x2="1355.8" y2="779.8"/>
		<line class="st12" x1="1335.6" y1="802.8" x2="1386.3" y2="778.3"/>
	</g>
	<polygon class="st6" points="1445.5,756.2 1458.5,729.1 1466.9,764.3 1475.8,759.7 1475.8,785.3 1485,789.8 1495,774.8 
		1499.3,789.8 1506.2,787.8 1510.3,792.9 1520.5,792.9 1536.9,799.4 1445.5,799.4 	"/>
	<polygon class="st6" points="1264.9,585.6 1281,575.9 1281,592.2 1323.7,579.7 1289.6,619 1309.4,616.7 1294.3,639.1 1305,631.9 
		1299.7,648.4 1320.7,638.8 1326.1,653.6 1326.1,628.2 1334.4,627.2 1353.8,643.3 1357,634 1343.2,619.7 1379.3,613.5 1346.1,611.3 
		1363,590.7 1344.3,599.9 1346.4,592.7 1354.8,576.7 1348.8,575.9 1336.6,582.3 1350.1,564.2 1382.4,564.2 1382.4,662.9 
		1264.9,662.9 	"/>
	<g>
		<polygon class="st6" points="1084.3,781.7 1116.6,770.2 1107.2,791.9 1125.8,783.7 1119.9,791.9 1131.2,791.9 1139.6,783.5 
			1144.9,791.9 1149.8,786 1155.4,796.5 1163.1,793.7 1157.2,783.3 1171.8,788.8 1178.7,785 1188.9,788.3 1195,780.4 1173.3,758.2 
			1191.9,737 1171.8,738 1186.1,708.9 1153.4,723.7 1158.2,700.7 1201.8,700.7 1201.8,799.4 1084.3,799.4 		"/>
		<polygon class="st6" points="1148.7,700.7 1135.1,705.1 1139,713.4 1128.6,725.7 1099.2,708.8 1118.6,741 1089.6,747.8 
			1110.9,750.1 1084.3,769.3 1084.3,700.7 		"/>
	</g>
	<g>
		<g>
			<polyline class="st13" points="1707.7,865.1 1665.8,645.3 1600.3,645.3 1642.3,866.2 			"/>
			<g>
				<line class="st13" x1="1606.1" y1="675.8" x2="1671.6" y2="675.8"/>
				<line class="st13" x1="1614.5" y1="719.2" x2="1680" y2="719.2"/>
				<line class="st13" x1="1622.8" y1="762.7" x2="1688.2" y2="762.7"/>
				<line class="st13" x1="1630.9" y1="806.1" x2="1696.4" y2="806.1"/>
				<line class="st13" x1="1639.2" y1="849.5" x2="1704.7" y2="849.5"/>
			</g>
		</g>
		<g>
			<polyline class="st13" points="1558.4,865.1 1600.3,645.3 1665.8,645.3 1623.9,866.2 			"/>
			<g>
				<line class="st13" x1="1660" y1="675.8" x2="1594.5" y2="675.8"/>
				<line class="st13" x1="1651.7" y1="719.2" x2="1586.2" y2="719.2"/>
				<line class="st13" x1="1643.4" y1="762.7" x2="1577.9" y2="762.7"/>
				<line class="st13" x1="1635.2" y1="806.1" x2="1569.7" y2="806.1"/>
				<line class="st13" x1="1626.9" y1="849.5" x2="1561.4" y2="849.5"/>
			</g>
		</g>
	</g>
	<path class="st14" d="M930.8,863.4H1811c1.6,0,2.8,1.3,2.8,2.8l0,0c0,1.6-1.3,2.8-2.8,2.8H930.8c-1.6,0-2.8-1.3-2.8-2.8l0,0
		C928,864.6,929.2,863.4,930.8,863.4z"/>
	<g>
		<path class="st15" d="M1079,462.9c2.5,6.5,8.8,9.8,14.6,9s10.9-5,14.9-10.2c5.4,8.5,13.9,13.8,22.6,14.2s17.5-4.1,23.4-12.1
			c5.4,8,13.7,12.8,22.1,12.9c8.4,0.1,16.8-4.5,22.3-12.2c7.6,6.9,19,7.7,27.2,2"/>
		<path class="st15" d="M1430.2,456.8c2.5,6.5,24.3,19.3,42.4-1.2c5.4,8.5,13.9,13.8,22.6,14.2s17.5-4.1,23.4-12.1
			c5.4,8,13.7,12.8,22.1,12.9c8.4,0.1,16.8-4.5,22.3-12.2"/>
		<path class="st15" d="M1217.1,331.7c2.5,6.5,24.3,19.3,42.4-1.2c5.4,8.5,13.9,13.8,22.6,14.2s17.5-4.1,23.4-12.1
			c5.4,8,13.7,12.8,22.1,12.9c8.4,0.1,16.8-4.5,22.3-12.2"/>
		<path class="st15" d="M1174.8,397.3c2.5,6.5,24.3,19.3,42.4-1.2c5.4,8.5,13.9,13.8,22.6,14.2s17.5-4.1,23.4-12.1
			c5.4,8,13.7,12.8,22.1,12.9c8.4,0.1,16.8-4.5,22.3-12.2"/>
		<path class="st15" d="M1279.9,463c5.9,12.1,18.2,13.6,23.9,12.9s13.2-5,17.6-12.9c6.3,9.5,13.9,12.5,22.6,12.8
			c8.7,0.4,18.6-4.7,23.4-11"/>
		<path class="st15" d="M1396.7,378.6c5.9,12.1,18.2,13.6,23.9,12.9c5.8-0.7,13.2-5,17.6-12.9c6.3,9.5,13.9,12.5,22.6,12.8
			c8.7,0.4,18.6-4.7,23.4-11"/>
		<path class="st15" d="M1312.3,281.4c5.9,12.1,18.2,13.6,23.9,12.9c5.8-0.7,13.2-5,17.6-12.9c6.3,9.5,14.1,13.3,22.8,13.6
			c8.7,0.4,18.4-5.5,23.2-11.7"/>
		<path class="st15" d="M1286.9,238.4c5.3,7.8,11.7,10.1,19,10.4c7.3,0.3,15.6-3.8,19.7-8.9"/>
	</g>
	<g>
		<path class="st16" d="M1616.2,616.7c-0.4-0.1-0.8-0.2-1.1,0c-0.6,0.2-0.8,0.9-0.7,1.5s0.5,1.1,0.8,1.6c0.9,1.1,1.9,2.2,3,3.2
			c0.7,0.6,1.4,1.2,2.2,1.5c0.9,0.3,2,0.3,2.9,0.2c2.7-0.3,5.9-3.1,2.3-4.8C1622.6,618.4,1619.3,617.5,1616.2,616.7L1616.2,616.7z"
			/>
		<path class="st17" d="M1624.9,617.8c0,0,28.8,3.3,31.5,3.9c3.9,0.8,6,1.4,7.1,4c1.3,3,0.8,9.9-5.6,10.8c-5.3,0.8-34.9-6.5-35.1-7
			C1621.3,625,1623.1,618.9,1624.9,617.8L1624.9,617.8z"/>
		<path class="st17" d="M1651.8,626.5c-0.8,1.6-0.6,3.6,0,5.4c1.2,3.5,5.2,5.1,8.1,4.5c1-0.2,1.9-0.6,2.8-1.1
			c3.7-1.8,25.6-15.6,27.5-17.6c1-1.1,1.9-2.2,2.7-3.5c1.6-2.7,1-6.8-0.1-9.5c-1.5-3.4-5.7-7.4-9.5-6.4c-2.7,0.7-19.9,16.4-26.1,22
			C1655.2,622.1,1653,623.9,1651.8,626.5L1651.8,626.5z"/>
		<path d="M1698.9,799.8c0.4,2.1-0.1,4.2-1.5,5.8c-10.5,0-21.3,1.1-31.8,0c-2.8-0.3-3.1-3.6-1-5.5s6.9-3.6,10.3-4.3
			c5.4-1.1,10.7-2.8,16.1-4.2c1.9-0.5,4.6-0.9,5.5,1.3C1697.5,795.1,1698.3,797.4,1698.9,799.8L1698.9,799.8z"/>
		<path d="M1701.5,799.8c0.4,2.1-0.1,4.2-1.5,5.8c-10.5,0-21.3,1.1-31.8,0c-2.8-0.3-3.1-3.6-1-5.5s6.9-3.6,10.3-4.3
			c5.4-1.1,10.7-2.8,16.1-4.2c1.9-0.5,4.6-0.9,5.5,1.3C1700.1,795.1,1700.9,797.4,1701.5,799.8L1701.5,799.8z"/>
		<path d="M1677,798.8c0.4,2.1-0.2,4.2-1.6,5.8c-11,0-22.3,1.1-33.2,0c-2.9-0.3-3.2-3.6-1-5.5c2.2-1.9,7.2-3.6,10.8-4.3
			c5.7-1.1,11.2-2.8,16.8-4.2c2-0.5,4.8-0.9,5.8,1.3C1675.6,794.1,1676.4,796.4,1677,798.8L1677,798.8z"/>
		<path class="st18" d="M1706.5,682.6c-0.2,7.2-0.1,18.7-0.9,35.2c-0.6,11.3-0.7,23.1-1.2,34.2c-0.8,15.8-1.6,30.8-2.6,40.3
			c-1.7,1.3-10.2,2-14.1,1.7c-2.5-0.2-4.8-0.7-5.8-1.1c0-0.1,0-0.1-0.1-0.2c-0.1-2.8-0.9-26-0.9-45.3c0-5.5,0.1-10.7,0.2-14.9
			c-0.3,5.2-1,18.1-1.5,25.9c-0.2,3.2-0.3,5.7-0.4,6.2c-0.9,14.2-2.7,28.5-2.7,28.5c-2.6,1.6-13.7,1.8-16.4-0.8
			c0,0-3.2-58.2-3.2-66.6c-0.1-16.7-0.2-19.8,0.2-38.8c0.1-5.1,0.3-13.5,0.5-21.8c0.3-12.1,0.7-23.8,0.7-23.8
			c21.1,8.5,39.5,0,39.5,0c2.1,4.4,6.9,18.8,8.2,32.8C1706.4,677.1,1706.5,679.9,1706.5,682.6L1706.5,682.6z"/>
		<path class="st19" d="M1706.2,674.3c-4,0.8-8.2,1.1-12.2,0.8c-2.9-0.2-5.8-0.7-8.6-1.2c-6.6-1.2-13.2-2.5-19.4-4.8
			c-2.8-1-5.5-2.3-8.1-3.8c0.3-12.1,0.7-23.8,0.7-23.8c21.1,8.5,39.5,0,39.5,0C1700,645.8,1704.8,660.2,1706.2,674.3L1706.2,674.3z"
			/>
		<path class="st19" d="M1687.8,794.1c-2.5-0.2-4.8-0.7-5.8-1.1c0-0.1,0-0.2-0.1-0.2l0,0c-0.1-3.7-1.5-41.2-0.7-60.5
			c-0.3,5.1-1,18.2-1.5,26.2v-0.3c0,0,1.2-21.1,1.3-23.8c0,0,2.5-27.9,3.7-35.4C1685.6,743.2,1687.8,762.3,1687.8,794.1
			L1687.8,794.1z"/>
		<g>
			<path class="st1" d="M1705.7,663.2c-5.5,2-16.4,2.8-26.1,2.7c-8-0.1-16.1-1.2-22.2-3.3c-0.6-8.9-0.8-35.4-0.6-49
				c0.1-9.7,1.6-14.9,3.9-17c0.5-0.5,1.1-0.9,1.7-1.2c2.7-1.6,6.5-2.5,9.9-3c4.8-0.8,8.9-0.9,12.5-0.7c4.3,0.3,12.2,1.9,13.9,4.5
				c0.8,1.2,1.2,2.5,1.5,3.9C1700.9,603.8,1703.3,641.7,1705.7,663.2L1705.7,663.2z"/>
			<path class="st17" d="M1679.7,665.9c-8-0.1-16.1-1.2-22.2-3.3c-0.6-8.9-0.8-35.4-0.6-49c0.1-9.7,1.6-14.9,3.9-17
				c0.5-0.5,1.1-0.9,1.7-1.2c-0.1,0.7-0.2,1.4-0.2,2c-0.4,5.6-0.4,11.2-0.1,16.9c0.7,10.8,2.4,22.3,6.3,32.5c0.6,1.8,1.2,3.5,2,5.2
				c1,2,2.2,3.8,3.4,5.7C1675.7,660.4,1677.5,663.3,1679.7,665.9L1679.7,665.9z"/>
			<g>
				<path class="st16" d="M1685.4,588.4c0.2,1.1,0.8,2.4,1.2,3.4c-0.4,1.7-5.2,3-7.4,3c-3.8,0-6.8-1.7-7-2.5c0.5-0.7,0.8-1.4,1-2.2
					c0.1-0.4,0.2-0.8,0.2-1.3c0.3-2.7-0.4-5.7-1.5-9.5l14.7-1.2c-0.5,1.5-1.6,5-1.4,8.9v0C1685.3,587.5,1685.4,587.9,1685.4,588.4
					L1685.4,588.4z"/>
				<path class="st20" d="M1685.3,587L1685.3,587c-3.7,1.6-8.2,2.5-11.8,1.8c0.3-2.7-0.4-5.7-1.5-9.5l14.7-1.2
					C1686.1,579.6,1685.1,583.1,1685.3,587z"/>
			</g>
		</g>
		<g>
			<path class="st16" d="M1663.4,575c0.1,3.2,1,6.6,3.2,9c3.8,4.2,10.9,3.7,15.3,0.2c4.3-3.5,6.4-9.3,7.2-14.9
				c1.3-9.1-3-16.9-12.4-17.4c-5.3-0.3-9,2.4-11,7.2S1663.2,568.7,1663.4,575L1663.4,575z"/>
			<path class="st21" d="M1685,549.5c-2.5-2.5-4.7-2.6-6.8-2.5c-2.1,0.1-4.3,1.6-6.1,2.7s-2.8,1.7-4.2,2.5c-1.4,0.8-2.8,1-4.2,1.6
				c-3.5,1.7-6.7,4.3-6.9,8.4c-0.1,1.6,0.3,3.3,1.2,4.7c1.4,2.1,4.9,4.1,7.2,2.1c1.2-1,1.5-2.5,1.9-4c0.4-1.5,0.9-3.1,2.2-3.8
				s3.3-0.3,4.6,0.6c2.7,1.9,2.6,6.1,2.6,10.1c0.5-2.4,1.4-3.3,2.3-3.8c0.9-0.5,2-0.2,2.6,0.5c2,2.1-0.5,5.4-1.8,7
				c0.4,1.8,1.1,3.5,2,5.1c0.9,1.6,2.2,2.9,3.9,3.7c2.6-2.4,5.4-4.8,7.4-7.8c1.5-2.4,2.7-5,3.5-7.7c2.4-7.2,1.2-19.2-8.5-19.6
				C1686.8,549.3,1685.9,549.4,1685,549.5L1685,549.5z"/>
		</g>
		<path class="st1" d="M1633.5,626.1c-0.7,1.7-0.3,3.6,0.4,5.4c1.5,3.4,5.6,4.6,8.4,3.8c1-0.3,1.9-0.8,2.7-1.3
			c3.5-2.2,24.2-17.7,25.9-19.9c0.9-1.2,1.8-2.4,2.4-3.8c1.3-2.8,0.4-6.9-0.9-9.5c-1.8-3.3-6.3-6.9-10-5.6
			c-2.7,0.9-18.5,18-24.1,24.1C1636.5,621.5,1634.6,623.4,1633.5,626.1L1633.5,626.1z"/>
		<g>
			<g>
				<path class="st22" d="M1574.7,538.7l25.3-12.6c2.6-1.3,5.8-0.2,7.1,2.4l8.6,17.3c1.3,2.6,0.2,5.8-2.4,7.1l-25.3,12.6
					c-2.6,1.3-5.8,0.2-7.1-2.4l-8.6-17.3C1571,543.2,1572.1,540,1574.7,538.7z"/>
				<path class="st9" d="M1559.2,546.4l28.8-14.4c2.6-1.3,5.8-0.2,7.1,2.4l8.6,17.3c1.3,2.6,0.2,5.8-2.4,7.1l-28.8,14.4
					c-2.6,1.3-5.8,0.2-7.1-2.4l-8.6-17.3C1555.6,550.9,1556.6,547.7,1559.2,546.4z"/>
			</g>
			<path class="st18" d="M1589.2,564.9l38.7,77.5c0.9,1.8,3.1,2.5,4.8,1.6c1.8-0.9,2.5-3.1,1.6-4.8l-38.7-77.5L1589.2,564.9
				L1589.2,564.9z"/>
		</g>
		<path class="st16" d="M1619.8,625.5c1,0,2-0.2,2.4-1.2c0.3-0.8,0-1.9-0.3-2.9c-0.8-2.1-2.1-4-3.6-5.4c-1.2-1.2-2.8-2.2-4.3-2
			c-1.6,0.2-1.8,1.9-1.6,3.7C1613.1,622.5,1616.2,625.5,1619.8,625.5L1619.8,625.5z"/>
		<path class="st16" d="M1608.9,609.7c0.6,0.5,1.3,1,2.1,1.4c1.3,0.7,3.1,1.1,4.3,0.2c0.6-0.4,0.9-1.1,1.1-1.8
			c0.3-1.2,0.2-2.5-0.2-3.7c-0.4-1.1-1-2.2-1.6-3.2c-0.6-0.9-4.4-7.4-6.3-8.7c-1.3-1-1.6,0.7-1.3,1.7c0.3,1.2,0.7,2.4,1.2,3.5
			c-1.7-2-3.3-4.2-4.7-6.5c-0.5-0.9-2.7-3.9-3.4-1.6c-0.8,2.7,0.1,5.8,1.1,8.3c1,2.5,2.5,4.5,4.1,6.6
			C1606.4,607.3,1607.6,608.6,1608.9,609.7L1608.9,609.7z"/>
		<path class="st1" d="M1617.2,602.6c0,0,23.6,16.7,25.7,18.5c3,2.6,4.6,4.1,4.3,7c-0.3,3.3-4.1,9-10.1,6.8
			c-5-1.9-27.5-22.5-27.4-23C1610.6,607.2,1615.2,602.7,1617.2,602.6L1617.2,602.6z"/>
	</g>
</g>
</svg>
