<svg xmlns="http://www.w3.org/2000/svg" xmlns:xlink="http://www.w3.org/1999/xlink" viewBox="0 0 1920 1080"><defs><style>.cls-1,.cls-21,.cls-22,.cls-23,.cls-24,.cls-25{fill:none;}.cls-2{fill:#250d45;}.cls-3,.cls-5{fill:#973bfc;}.cls-4{font-size:47.87px;font-family:Monosten-Bold, Monosten;font-weight:700;}.cls-10,.cls-4,.cls-7{fill:#fff;}.cls-5{font-size:86px;}.cls-10,.cls-5{font-family:Monosten-Regular, Monosten;}.cls-6{clip-path:url(#clip-path);}.cls-8,.cls-9{fill:#a0a0a0;}.cls-8{fill-rule:evenodd;}.cls-10{font-size:57.45px;}.cls-11{fill:#cba6ff;}.cls-12{fill:#7324c9;}.cls-13{fill:#34344d;}.cls-14{fill:#23233b;}.cls-15{fill:#fdab95;}.cls-16{fill:#e08065;}.cls-17{fill:#b87267;}.cls-18{fill:#f5edff;}.cls-19{fill:#e9d9ff;}.cls-20{fill:#9a6dd6;}.cls-21{stroke:#34344d;stroke-width:6px;}.cls-21,.cls-22,.cls-23,.cls-24,.cls-25{stroke-linecap:round;stroke-linejoin:round;}.cls-22,.cls-23{stroke:#cba6ff;}.cls-22,.cls-23,.cls-24{stroke-width:2px;}.cls-23{stroke-dasharray:7.05 13.1;}.cls-24{stroke:#f5edff;}.cls-25{stroke:#973bfc;stroke-width:3px;}.cls-26{fill:#d8cfe0;}</style><clipPath id="clip-path"><rect class="cls-1" x="77.5" y="65.8" width="353.3" height="91.34"/></clipPath></defs><g id="Banner_7" data-name="Banner 7"><rect class="cls-2" width="1920" height="1080"/><g id="Button"><rect class="cls-3" x="77.5" y="833.1" width="328.8" height="76.26" rx="38.1"/><text class="cls-4" transform="translate(120.7 888.8)">READ NOW</text></g><text class="cls-5" transform="translate(80.9 387.1)">Factory and<tspan x="0" y="100">Abstract Factory</tspan><tspan x="0" y="200">patterns</tspan></text><g class="cls-6"><g class="cls-6"><path class="cls-7" d="M201.1,89.8a2.2,2.2,0,0,1,4.4-.4.3.3,0,0,1,0,.4v.5a5.3,5.3,0,0,1,1.6-2.3,5.1,5.1,0,0,1,3.1-1.1c3,0,4.9,1.2,5.5,3.5a5,5,0,0,1,1.9-2.4,6,6,0,0,1,3.4-1.1c4.1,0,6.1,2.6,6.1,6.6v15.9a2.2,2.2,0,0,1-2,2.4,2.1,2.1,0,0,1-2.3-2c-.1-.2-.1-.3,0-.4V94.8c0-2.8-.9-4-2.8-4s-3.7,2.2-3.7,6.6v12a2.2,2.2,0,0,1-2,2.4,2.1,2.1,0,0,1-2.3-2c-.1-.2-.1-.3,0-.4V94.8c0-2.8-.8-4-2.8-4s-3.7,2.4-3.7,7.2v11.4a2.1,2.1,0,0,1-1.9,2.4,2.3,2.3,0,0,1-2.5-2v-20Z"/><path class="cls-7" d="M254.4,104.6a2.5,2.5,0,0,0-1.8.8c-1.7,2-4.1,3-7.3,3a7.1,7.1,0,0,1-5.1-2.1,9.1,9.1,0,0,1-2.4-4.9h16.8a2.3,2.3,0,0,0,2.5-2.1v-.4a11.7,11.7,0,0,0-3.3-8.5,10.9,10.9,0,0,0-8.5-3.4,11.5,11.5,0,0,0-8.8,3.6,14.2,14.2,0,0,0,0,18,11.5,11.5,0,0,0,8.8,3.6c4.3,0,7.8-1.2,10.4-3.7a2.3,2.3,0,0,0,.2-3.2h0a1.9,1.9,0,0,0-1.5-.8ZM240.3,92.8a7.4,7.4,0,0,1,5-2,6.3,6.3,0,0,1,4.7,1.9,9.7,9.7,0,0,1,2.5,4.8H237.8a8.3,8.3,0,0,1,2.5-4.7"/><path class="cls-7" d="M270.6,77.2a2.2,2.2,0,0,1,2.2,2.4v7.8h8.8c1.5,0,2.3.7,2.3,2s-.8,1.9-2.3,1.9h-8.8V104c0,3,1.6,4.3,3.8,4.3a5.6,5.6,0,0,0,3.3-.8l1.4-1a2.1,2.1,0,0,1,1.3-.5,2,2,0,0,1,2,2h0a2.9,2.9,0,0,1-1.4,2.1,11.2,11.2,0,0,1-6.9,2,8.5,8.5,0,0,1-5.7-1.9c-1.4-1.2-2.2-3.2-2.2-5.9V91.3h-6.3c-1.5,0-2.3-.6-2.3-1.9s.8-1.9,2.3-1.9h6.3V79.6a2.2,2.2,0,0,1,2.1-2.4Z"/><path class="cls-7" d="M310.3,87.4c-1.2,0-2.1,1-2.2,2.6a6.8,6.8,0,0,0-3-2.3,9.9,9.9,0,0,0-3.8-.7,10.2,10.2,0,0,0-8.4,3.7,14.7,14.7,0,0,0,0,17.8,10.1,10.1,0,0,0,8.4,3.7,10.7,10.7,0,0,0,3.9-.7,7.3,7.3,0,0,0,2.9-2.3c.1,1.6,1,2.6,2.2,2.6a2.4,2.4,0,0,0,2.4-2.2V89.9a2.3,2.3,0,0,0-2.1-2.5h-.3m-4,18.5a6.5,6.5,0,0,1-9.2,1l-.9-1a10.9,10.9,0,0,1,0-12.6,6.5,6.5,0,0,1,9.1-1.1,5.2,5.2,0,0,1,1,1.1,9.4,9.4,0,0,1,1.9,6.3,9.4,9.4,0,0,1-1.9,6.3"/><path class="cls-3" d="M328.9,107.9V81.6h-5.5c-1.3,0-2.4-.7-2.4-1.9s1.1-1.9,2.4-1.9H331a2,2,0,0,1,2.2,1.9v28.2h7.1c1.3,0,2.4.7,2.4,1.9s-1.1,2-2.4,2H321.8c-1.4,0-2.4-.8-2.4-2s1-1.9,2.4-1.9h7.1Z"/><path class="cls-3" d="M365.5,87.4c-1.2,0-2.1,1-2.2,2.6a6.5,6.5,0,0,0-2.9-2.3,10.7,10.7,0,0,0-3.9-.7,10,10,0,0,0-8.3,3.7,14.5,14.5,0,0,0-.1,17.8,11.3,11.3,0,0,0,12.3,3,7.6,7.6,0,0,0,3-2.3c.1,1.6.9,2.6,2.2,2.6a2.3,2.3,0,0,0,2.3-2.2V89.9a2.3,2.3,0,0,0-2-2.5h-.4m-4,18.5a6.4,6.4,0,0,1-9.1,1l-1-1a9.4,9.4,0,0,1-1.9-6.3,9.4,9.4,0,0,1,1.9-6.3,6.5,6.5,0,0,1,9.1-1.1,5.2,5.2,0,0,1,1,1.1,10.9,10.9,0,0,1,0,12.6"/><path class="cls-3" d="M375.5,89.8a2.2,2.2,0,0,1,4.4-.4v.9a4.1,4.1,0,0,1,1.6-2.3,4.6,4.6,0,0,1,3-1.1c3.1,0,4.9,1.2,5.6,3.5a4.8,4.8,0,0,1,1.8-2.4,6,6,0,0,1,3.4-1.1c4.1,0,6.2,2.6,6.2,6.6v15.9a2.3,2.3,0,0,1-2,2.4,2.2,2.2,0,0,1-2.4-2v-15c0-2.8-.9-4-2.8-4s-3.6,2.2-3.6,6.6v12a2.3,2.3,0,0,1-2,2.4,2.2,2.2,0,0,1-2.4-2v-15c0-2.8-.8-4-2.8-4s-3.6,2.4-3.6,7.2v11.4a2.2,2.2,0,1,1-4.4.4v-20Z"/><path class="cls-3" d="M428.4,87.4c-1.2,0-2.1,1-2.2,2.6a6.8,6.8,0,0,0-3-2.3,9.9,9.9,0,0,0-3.8-.7,10,10,0,0,0-8.3,3.7,13.3,13.3,0,0,0-3.1,8.9,13.7,13.7,0,0,0,3,8.9,10.1,10.1,0,0,0,8.4,3.7,9.9,9.9,0,0,0,3.8-.7,6.9,6.9,0,0,0,3-2.3c.1,1.6,1,2.6,2.2,2.6a2.2,2.2,0,0,0,2.3-2.2V89.9a2.3,2.3,0,0,0-2-2.5h-.3m-4,18.5a6.5,6.5,0,0,1-9.2,1,4.3,4.3,0,0,1-.9-1,10.9,10.9,0,0,1,0-12.6,6.5,6.5,0,0,1,9.1-1.1l1,1.1a9.4,9.4,0,0,1,1.9,6.3,9.4,9.4,0,0,1-1.9,6.3"/><path class="cls-8" d="M427.8,148a6.8,6.8,0,0,1-5.6,2.3,8.6,8.6,0,0,1-2.7-.5,3.4,3.4,0,0,1-1.8-1.5v6.4a1.4,1.4,0,0,1-1.4,1.5,1.4,1.4,0,0,1-1.5-1.5V135.9a1.4,1.4,0,0,1,1.5-1.5,1.5,1.5,0,0,1,1.4,1.5,3.5,3.5,0,0,1,1.9-1.4,7.7,7.7,0,0,1,2.7-.4,7.2,7.2,0,0,1,5.5,2.1,9.4,9.4,0,0,1,1.9,6,9,9,0,0,1-1.9,5.8m-2.1-9.9a4.1,4.1,0,0,0-3.4-1.6,3.9,3.9,0,0,0-3.4,1.6,6.5,6.5,0,0,0-1.2,4.1,6.3,6.3,0,0,0,1.2,4.1,4.6,4.6,0,0,0,6.8,0,6.3,6.3,0,0,0,1.2-4.1,6.5,6.5,0,0,0-1.2-4.1m-14.8,1.2a1.3,1.3,0,0,1-1.2-.9,3.1,3.1,0,0,0-2.9-1.8,4,4,0,0,0-3.6,1.8,7.8,7.8,0,0,0-1.2,4.4v5.6a1.4,1.4,0,0,1-1.4,1.6,1.4,1.4,0,0,1-1.5-1.6V136a1.5,1.5,0,0,1,1.5-1.6A1.5,1.5,0,0,1,402,136v.7a4.7,4.7,0,0,1,1.9-1.8,6,6,0,0,1,2.9-.8c2.7,0,4.5,1,5.6,2.9a2.2,2.2,0,0,1,.1.8,1.6,1.6,0,0,1-1.6,1.5m-17.8,10.6a1.4,1.4,0,0,1-1.4-1.6,4.8,4.8,0,0,1-2,1.4,6.6,6.6,0,0,1-2.7.6,6.8,6.8,0,0,1-5.5-2.4,8.1,8.1,0,0,1-2-5.7,8.8,8.8,0,0,1,2-5.7,7.1,7.1,0,0,1,5.6-2.4,8,8,0,0,1,2.6.5,4.8,4.8,0,0,1,2,1.4,1.4,1.4,0,0,1,1.4-1.6,1.4,1.4,0,0,1,1.5,1.5v12.5a1.4,1.4,0,0,1-1.5,1.5m-2.7-11.8a4.1,4.1,0,0,0-3.4-1.6,4.4,4.4,0,0,0-3.4,1.6,7.6,7.6,0,0,0,0,8.2,4.3,4.3,0,0,0,3.4,1.5,4.1,4.1,0,0,0,3.4-1.5,7.1,7.1,0,0,0,0-8.2M375.7,150a1.4,1.4,0,0,1-1.5-1.5v-7.8a5.4,5.4,0,0,0-.7-3.2,3.1,3.1,0,0,0-2.5-1,3.9,3.9,0,0,0-3.3,1.7,7.4,7.4,0,0,0-1.2,4.4v5.8A1.5,1.5,0,0,1,365,150a1.3,1.3,0,0,1-1.4-1.5V129.7a1.4,1.4,0,0,1,1.4-1.6,1.5,1.5,0,0,1,1.4,1.6v6.8a3.5,3.5,0,0,1,1.7-1.7,7.3,7.3,0,0,1,2.9-.7c4.1,0,6.1,2,6.1,6v8.4a1.4,1.4,0,0,1-1.4,1.5Zm-21.6-8.9,1.8.3,1.7.4a3.5,3.5,0,0,1,2.8,3.6,4.4,4.4,0,0,1-2,3.7,8.2,8.2,0,0,1-5,1.3c-3-.1-5.1-1-6.6-2.8a1.4,1.4,0,0,1,1-2.4,1.6,1.6,0,0,1,1.3.7,5.2,5.2,0,0,0,4.3,2c2.7,0,4-.8,4-2.5s-.3-1.1-1.3-1.4l-1.2-.3-1.7-.2-2.3-.4-1.9-.7a3.5,3.5,0,0,1-2-3.4,4.3,4.3,0,0,1,1.8-3.6,8.4,8.4,0,0,1,4.5-1.2c2.7,0,4.7.9,5.9,2.6a1.2,1.2,0,0,1,.3.9,1.4,1.4,0,0,1-1.5,1.4,1.3,1.3,0,0,1-1.2-.7,3.7,3.7,0,0,0-3.5-1.7c-2.1,0-3.4.8-3.4,2.2S351.4,140.7,354.1,141.1Z"/><path class="cls-8" d="M289.4,148a6.7,6.7,0,0,1-5.5,2.3,7.6,7.6,0,0,1-2.7-.5,4.1,4.1,0,0,1-1.9-1.4v6.3a1.3,1.3,0,0,1-1.4,1.5,1.4,1.4,0,0,1-1.4-1.5V135.9a1.4,1.4,0,1,1,2.8,0,4.5,4.5,0,0,1,1.9-1.4,8.4,8.4,0,0,1,2.7-.4,6.8,6.8,0,0,1,5.5,2.2,8,8,0,0,1,2,5.9,8.5,8.5,0,0,1-2,5.8m-2-9.9a4.2,4.2,0,0,0-3.4-1.5,4.1,4.1,0,0,0-3.4,1.5,6.6,6.6,0,0,0-1.2,4.2,6.5,6.5,0,0,0,1.2,4.1,4.1,4.1,0,0,0,3.4,1.5,4.2,4.2,0,0,0,3.4-1.5,6.4,6.4,0,0,0,1.1-4.1,7.2,7.2,0,0,0-1.1-4.2"/><path class="cls-8" d="M307.3,148.1a7.4,7.4,0,0,1-5.6,2.3,7.5,7.5,0,0,1-5.6-2.3,8.3,8.3,0,0,1-2.1-5.8,8.5,8.5,0,0,1,2.1-5.9,7.2,7.2,0,0,1,5.6-2.3,7,7,0,0,1,5.6,2.3,8.6,8.6,0,0,1,2.2,5.9,8.3,8.3,0,0,1-2.2,5.8m-2.1-10a4.3,4.3,0,0,0-3.5-1.5,4.5,4.5,0,0,0-3.5,1.5,6,6,0,0,0-1.3,4.2,5.9,5.9,0,0,0,1.3,4.1,4.5,4.5,0,0,0,3.5,1.5,4.4,4.4,0,0,0,3.5-1.5,6,6,0,0,0,1.4-4.1,6.1,6.1,0,0,0-1.4-4.2"/><path class="cls-8" d="M312.3,147.7a1.8,1.8,0,0,1-.5-1.1,1.5,1.5,0,0,1,1.5-1.4,1.6,1.6,0,0,1,1.3.7,5.2,5.2,0,0,0,4.3,2c2.7,0,4-.8,4-2.4s-.3-1.1-1.3-1.4l-1.2-.3-1.7-.3-2.3-.4-1.9-.7a3.4,3.4,0,0,1-2-3.3,4,4,0,0,1,1.8-3.6,7.7,7.7,0,0,1,4.5-1.3c2.7,0,4.7.9,5.9,2.6a1.4,1.4,0,0,1-1.2,2.3,1.4,1.4,0,0,1-1.2-.6,3.8,3.8,0,0,0-3.5-1.8c-2.1,0-3.4.8-3.4,2.2s1.5,1.8,4.2,2.2l1.9.3,1.6.4a5.3,5.3,0,0,1,1.5.7,3.8,3.8,0,0,1,1.3,2.9,4.2,4.2,0,0,1-1.9,3.7,8.7,8.7,0,0,1-5,1.4c-3-.2-5.2-1.1-6.7-2.8Z"/><path class="cls-8" d="M332.8,129.4a1.4,1.4,0,1,1,2.8,0v5h5.9c1,0,1.5.4,1.5,1.3s-.5,1.3-1.5,1.3h-5.9v8.1c0,1.9,1.1,2.8,2.5,2.8a4,4,0,0,0,2.3-.6l.9-.6.9-.3a1.3,1.3,0,0,1,1.3,1.3,1.7,1.7,0,0,1-.9,1.4,8.6,8.6,0,0,1-4.6,1.3,5.6,5.6,0,0,1-3.8-1.2,4.6,4.6,0,0,1-1.5-3.8v-8.5h-4.2c-1,0-1.5-.4-1.5-1.3s.5-1.2,1.5-1.2h4.2v-5Z"/><path class="cls-9" d="M237.2,150.8a6.8,6.8,0,0,0,5.3-2.1c1.3-1.4,1.9-3.4,1.9-6a8.6,8.6,0,0,0-1.9-5.8,6.5,6.5,0,0,0-5.3-2.3,7.5,7.5,0,0,0-2.6.5,3.5,3.5,0,0,0-1.8,1.5v-6.4a1.5,1.5,0,0,0-1.4-1.6,1.4,1.4,0,0,0-1.4,1.6V149a1.4,1.4,0,0,0,1.4,1.5,1.5,1.5,0,0,0,1.4-1.5,3.7,3.7,0,0,0,1.8,1.4,7.5,7.5,0,0,0,2.6.4m4.4-8.1a7.1,7.1,0,0,1-1.1,4.1,4.4,4.4,0,0,1-6.6,0,8.2,8.2,0,0,1,0-8.2,4.4,4.4,0,0,1,6.6,0,7.1,7.1,0,0,1,1.1,4.1"/><path class="cls-9" d="M250.2,157.1a4.9,4.9,0,0,0,3.9-1.7,21.5,21.5,0,0,0,3.2-5.3l6-13.1a1.8,1.8,0,0,0,.1-.6,1.5,1.5,0,0,0-.9-1.4h-.6a1.5,1.5,0,0,0-1.4.9l-4.6,10.5-4.6-10.5a1.4,1.4,0,0,0-1.4-.9h-.6a1.4,1.4,0,0,0-.7,2l5.7,13v.4a15,15,0,0,1-1.8,3.3,2.9,2.9,0,0,1-2.2.9l-1.5-.3a1.2,1.2,0,0,0-1.2,1.2c0,1.1.9,1.6,2.7,1.6Z"/><path class="cls-3" d="M94.4,123h-16a1,1,0,0,0-1,1v14.1a1,1,0,0,0,1,1H88.7a1,1,0,0,0,.9-.6l5.6-14.2a.9.9,0,0,0-.8-1.3"/><path class="cls-3" d="M149.2,123h-35l9.9-56.1a1,1,0,0,0-1-1.1H109a.8.8,0,0,0-.9.7L104.5,87H84.7a.9.9,0,0,0-.9.9v14.2a.9.9,0,0,0,.9.9h16.9l-9.3,53a1,1,0,0,0,1,1.1h14.1a.9.9,0,0,0,.9-.8l3.1-17.2h20.1l-3,16.9a1,1,0,0,0,1,1.1h14.1a.9.9,0,0,0,.9-.8l5.7-32.2a1,1,0,0,0-.9-1.1"/><path class="cls-3" d="M167.8,123H157a1,1,0,0,0-.9.6l-5.6,14.2a.9.9,0,0,0,.9,1.3h16.4a1,1,0,0,0,1-1V124a.9.9,0,0,0-1-1"/><path class="cls-3" d="M174.2,87H156.7l3.5-20.1a.9.9,0,0,0-.9-1.1H145.2a1,1,0,0,0-1,.7L140.7,87H127.1a1,1,0,0,0-.9.6l-5.6,14.1a1,1,0,0,0,.9,1.3h16.3l-2.3,13.2a.9.9,0,0,0,.7,1.1l13.6,3.1a.9.9,0,0,0,1.2-.7l2.9-16.7h20.3a.9.9,0,0,0,.9-.9V87.9a.9.9,0,0,0-.9-.9"/></g></g><text class="cls-10" transform="translate(85.7 676.5)">Lorem ipsum dolor </text><path class="cls-11" d="M1751.9,866.6l-776.1,1c-42-27.9-44.1-90.6-11.2-127.9,10.5-11.9,23.9-20.9,36.5-30.8q3.8-2.9,7.5-6l2.9-2.4c18.4-16.2,22.3-34.3,17.2-53.5-.6-2-1.2-4-1.9-6a122.9,122.9,0,0,0-11.3-22.7c-9.9-15.7-22.1-29.8-30.4-46.4-22.6-45-23.1-94.4-6.1-138.6a192.3,192.3,0,0,1,29.9-51.5,297.9,297.9,0,0,1,69.8-63.2l2-1.3q5.8-3.7,12-7.2l2-1.2a268,268,0,0,1,87.5-31.2c42-7.1,81.8-2.5,121.5,11.3,37.1,13,66,42.5,91.3,71.4l11,12.6c4.7,5.4,9.4,10.8,14.1,16l2.9,3.2c5.2,5.7,10.5,11.3,16,16.6,10.2,9.8,20.9,19,32.8,26.7,33.7,22.1,71.7,23.2,110.8,20.1,60.9-4.8,122.5-.7,161.9,52.4,18.4,25,25.1,59.7,16.1,89.5-6.3,20.8-17.5,39.6-25.9,59.6-5.4,13-9.6,28.3-3.3,40.8s19.4,18.7,31,25.7c31.3,18.9,38.9,38.8,39.7,63.3S1788.3,846.9,1751.9,866.6Z"/><path class="cls-11" d="M1541.8,304c-13.5-4.1-28.1-4.1-42.8-.9-43.8,9.6-45.6,74.2-16.9,100.1,21.4,19.4,59.1,22.7,84.8,10.5,37.5-17.9,29.1-67.1,3.2-92.7A68.9,68.9,0,0,0,1541.8,304Z"/><path class="cls-12" d="M1616.1,468.4c-11,4.8-15.9,16.1-21.6,25.6-4.7,7.8-9,15.7-13.8,23.4-5.9,9.5-15,22.7-13.4,34.2.4,3.1,1,6.3,3.4,8.5s11.7,1.5,16.2.3,8.3-4.2,11.6-7.3a90.6,90.6,0,0,0,14.5-17.7c7-11.3,11.5-23.9,15.6-36.4.8-2.6,2.3-4.7,2.6-7.4a48.6,48.6,0,0,0,.3-6.6c0-4.2-.2-8.8-2-12.7C1626.8,466.7,1621.5,466,1616.1,468.4Z"/><path d="M1651.4,852.5a11.2,11.2,0,0,1-2.9,10.1c-20.4,0-41.5,1.8-61.9,0-5.3-.5-5.9-6.2-1.8-9.5s13.4-6.3,20.1-7.5c10.6-1.9,20.9-4.9,31.3-7.3,3.7-.8,8.9-1.4,10.7,2.3A67.9,67.9,0,0,1,1651.4,852.5Z"/><path class="cls-13" d="M1666.1,592.1l-2.1,33.5v.2l-.5,8.3-1.6,24.5v.6l-2.8,42.7-6.8,99.4-2.1,29.2-.7,10.1a16.2,16.2,0,0,1-5.1,2.5,31.3,31.3,0,0,1-16.3-.5,28.1,28.1,0,0,1-7-3.3c-2.2-37.9-8.9-77.7-10.8-115.5-1.3-24.5-2-55.9-2.4-87.5h0c0-2.9-.1-5.8-.1-8.7s-.1-7-.1-10.5v-4.7c0-6.9-.1-13.7-.1-20.3Z"/><path class="cls-14" d="M1666.1,592l-7,109.9-9.6,138.7a16.2,16.2,0,0,1-5.1,2.5,31.3,31.3,0,0,1-16.3-.5c.3-.3.6-.5.7-.9,10-33.8,16.8-91.7,14.7-249.2Z"/><path d="M1687.3,852.5a11.2,11.2,0,0,1-2.9,10.1c-20.4,0-41.5,1.8-61.9,0-5.3-.5-5.9-6.2-1.9-9.5s13.5-6.3,20.2-7.5c10.5-1.9,20.8-4.9,31.2-7.3,3.8-.8,8.9-1.4,10.7,2.3A61.1,61.1,0,0,1,1687.3,852.5Z"/><path class="cls-13" d="M1702,592.1s-1.1,13.6-2.5,33.1c0,.1-.1.2-.1.3-.7,9.4-1.5,20.2-2.4,31.5-1.1,14.7-2.3,30.3-3.3,44.6-.5,6.7-1,13.1-1.5,19.1-2.6,34.6-6.8,119.9-6.8,119.9a15.7,15.7,0,0,1-5.2,2.5c-7.1,2-16.9.6-23.2-3.8l-1.1-8.8c-.9-6.9-2.2-17.3-3.6-29.2-2.7-22.9-5.9-51.6-7.3-72-1.7-26.1-1.7-53.6-2-80.1-.2-8.8-.3-17.4-.6-25.9v-.9c-.3-10.5-.9-20.7-1.7-30.3Z"/><path class="cls-14" d="M1702,592s-1,13.7-2.5,33.2c0,.1-.1.2-.1.3a168.7,168.7,0,0,1-22.5.7l-10.7-.5H1664c-7.2-.5-14.4-1.3-21.6-2.3-3-.4-24.1-3.9-34.7-10.9,0-6.9-.1-13.7-.1-20.4Z"/><path class="cls-3" d="M1706.4,609.7c-31.4,6.8-74,5.4-102.8-2.9q.9-9.4,1.5-18.9c2-31.2,1.4-62.5,3.8-93.6.7-9.3,1.5-18.7,8-24.9,4.5-4.3,13.7-6.2,19.7-8.3,13.1-4.4,27.2-3.7,40.7-1.7a84.1,84.1,0,0,1,20.1,5.7c3.6,1.7,6.4,3.5,7.5,5.6a23,23,0,0,1,2.4,8.1c.9,6.9-.7,14.3-1.5,21.1l-.3,2.6c-.9,11.3-2.2,22.5-2.7,33.9C1701.8,560.5,1703.7,585.7,1706.4,609.7Z"/><path class="cls-12" d="M1706.4,609.7c-31.4,6.8-74,5.4-102.8-2.9q.9-9.4,1.5-18.9l6.1,3.4a65.7,65.7,0,0,0,15.2,5.4,54.9,54.9,0,0,0,35.4-5,55.5,55.5,0,0,0,16.3-13.8c7.5-8.7,12.4-21.9,13.9-32.6,3.2-23.5,2.4-51.1,7.5-72.4.1-.7.9-1.2,1.5-1.4a2.3,2.3,0,0,1,2.7,1.2,8.2,8.2,0,0,1,.7,3.1c.6,10.2,1.7,21,.9,31.3s-2,19.5-2.5,29.3C1701.8,560.5,1703.7,585.7,1706.4,609.7Z"/><path class="cls-15" d="M1675.6,459.1c-3,6.8-12.4,9.3-16.9,9-7.7-.5-11.6-4.5-11.3-9.5a11.5,11.5,0,0,0,4.4-6.8l.6-2.9a89.1,89.1,0,0,0,0-15.5h18.7v8.9c0,2.1.1,4.2.1,5.5a4.1,4.1,0,0,0,.1,1.2C1671.8,454.4,1672.8,456.9,1675.6,459.1Z"/><path class="cls-16" d="M1671.2,447.8c-5.9,3.7-13.7,4.5-19.4,4l.6-2.9a89.1,89.1,0,0,0,0-15.5h18.7v8.9C1671.1,444.4,1671.2,446.5,1671.2,447.8Z"/><path class="cls-17" d="M1650.4,414.6c-2,4.9-7.8,11.5-13.9,9.7-2.7-.8-4.5-3.3-5.8-5.8-2.2-4.1-2.2-9-1.7-13.4a28,28,0,0,1,9.1-17.9c2.4-2,5.7-3.6,8.6-2.5s3.7,3.4,4.4,5.8a35.1,35.1,0,0,1,1.5,9.7C1652.7,405.1,1652.3,410.1,1650.4,414.6Z"/><path class="cls-3" d="M1735.1,552.5a13.5,13.5,0,0,1-.4,2.9c-3.7,14-16.2,12.5-23.7,4.8a46.4,46.4,0,0,1-3.6-4l-3.3-4.4a108.4,108.4,0,0,1-10-18.3c-3.6-8-6.8-16.1-9.8-24.4-1.9-5.2-4-10.5-5.1-16a34.6,34.6,0,0,1-.7-9.1c.6-7.8,4.2-15.1,11.6-17.2a19.2,19.2,0,0,1,19.8,6.2c3.5,4.1,5.5,9.5,7.5,14.9,5.7,15.7,11.5,31.5,15.4,48C1734.1,541.6,1734.6,543.4,1735.1,552.5Z"/><path class="cls-3" d="M1734.6,555.8c-1,5.8-6.5,10-12.1,11h-.1l-1.6.3c-12.2,1.1-51.1-23.6-62.5-33.2a30.7,30.7,0,0,1,3.5-11.8,19.6,19.6,0,0,1,3.5-5,12.6,12.6,0,0,1,2-2c6,2.1,44.3,15.1,49.8,17.5l2,.9a24.9,24.9,0,0,1,4.3,2.2l.7.4a25.2,25.2,0,0,1,6.4,5.8,33,33,0,0,1,3.1,5.1A14.9,14.9,0,0,1,1734.6,555.8Z"/><path class="cls-12" d="M1722.4,566.8l-1.6.3c-12.2,1.1-51.1-23.6-62.5-33.2a30.7,30.7,0,0,1,3.5-11.8,27.1,27.1,0,0,0,3.9,8c3.3,4.7,8,8.2,12.5,11.7,9.9,7.4,19.8,14.6,30.6,20.5a37.3,37.3,0,0,0,7.9,3.5A22.8,22.8,0,0,0,1722.4,566.8Z"/><path class="cls-12" d="M1730.5,541.9c-6.3-5-14-7.7-21.3-10.7l-24.4-10.1c10.5,4.4,21.8,6.9,32.3,11.5l2,.9a24.9,24.9,0,0,1,4.3,2.2l.7.4A25.2,25.2,0,0,1,1730.5,541.9Z"/><path class="cls-3" d="M1594.4,558.1a78.2,78.2,0,0,0,9.8-5.4c8.8-5.7,17.4-11.6,25.7-17.9-.3-6.1-3.4-13.5-8.4-17.5-.4-.3-6.2,1.6-6.9,1.8-9.3,2.7-18.9,4.5-28.3,6.7a33,33,0,0,0-6.5,2.1,22.1,22.1,0,0,0-7.4,6.2c-3.6,5.1-5.4,11.4-6.2,17.6s.9,9.2,6.2,10.6a16.3,16.3,0,0,0,6.6.2A47.1,47.1,0,0,0,1594.4,558.1Z"/><path class="cls-15" d="M1633.1,429.4c.7,6,2.3,12.1,6.4,16.4,7.3,7.4,20.5,6,28.3-.8s11.2-17.6,12.3-27.9c1.8-16.9-6.8-29-24.1-29.3-9.8-.1-17.2,1.8-20.5,11.3S1631.7,418.6,1633.1,429.4Z"/><path class="cls-17" d="M1626.1,383c-3.9,4.3-3.1,11.5,1.1,15.8a15.2,15.2,0,0,0,13.2,3.7c3.5-.6,7-1.8,10.6-1.8a17.4,17.4,0,0,1,12,4.8,17.6,17.6,0,0,1,5.2,11.7c1.2-2.9,4.4-6.2,7.6-3.4,1.3,1.1,1.5,2.8,1.4,4.5a10.2,10.2,0,0,1-1.4,4.7c-1.3,2.4-3,4.5-3.7,7.2s-1,8.1-1.4,12c4.6-5.7,9.8-11,14.1-16.9a35.8,35.8,0,0,0,6.4-20.8c.1-13.6-12.7-22.9-21.6-18.4-2.5-6.8-6.1-12-13.6-13.4a16.9,16.9,0,0,0-17.5,8.2,10.8,10.8,0,0,0-10.6.6A11.9,11.9,0,0,0,1626.1,383Z"/><path class="cls-17" d="M1672.2,408.6a6.3,6.3,0,0,0-6.9-1.3,27.8,27.8,0,0,1,.9,17.1c-.8,3.2-2.6,6.6-6,7.7s-7.8,1.7-11.2.2-3.9-2.5-6.1-2.2-3.1,1.6-5.3,1.3c-.7-.1-3.7-1.2-4.6-2.6a48.4,48.4,0,0,0,1.4,16.6,15.9,15.9,0,0,0,14.4,11.1,31,31,0,0,0,12.1-1.5c2.8-.9,5.6-2,7.6-4.2a18.8,18.8,0,0,0,3-6,33.9,33.9,0,0,0,1.3-13.8A119.7,119.7,0,0,1,1672.2,408.6Z"/><path class="cls-18" d="M1647.5,458.5a98.7,98.7,0,0,0-16.1,4s-1.1,11.8,14.8,17.4l7.5-13S1646.8,463.6,1647.5,458.5Z"/><path class="cls-18" d="M1674.8,458.2l15.5,3.3s-8.8,19.4-33.4,21l-3.2-15.6S1669,467.8,1674.8,458.2Z"/><polygon class="cls-13" points="1655.4 487.7 1604.7 487.7 1626 555.1 1676.7 555.1 1655.4 487.7"/><path class="cls-15" d="M1619.1,542.5a7.3,7.3,0,0,1-4.7-1.9,11.9,11.9,0,0,1-3.2-4.8,22.9,22.9,0,0,1-1.5-8.2c.1-2.4.7-5.2,2.3-7s6.2-2.2,8.9-2.4c4.9-.2,10.3,1.8,11.7,6.7s-.6,8.1-3.1,11.1-6.1,6.1-9.8,6.5Z"/><path class="cls-15" d="M1665.6,537.9a7.7,7.7,0,0,0,3.9-3.2,13.7,13.7,0,0,0,1.5-5.6,21.3,21.3,0,0,0-1-8.3c-.8-2.2-2.2-4.7-4.3-6s-6.6-.2-9.2.5c-4.7,1.2-9.2,4.7-9.1,9.8s2.9,7.5,6.3,9.7,7.6,4,11.3,3.3Z"/><path class="cls-3" d="M1477.8,640.6h167a34,34,0,0,1,34,34v0a34,34,0,0,1-34,34h-167a0,0,0,0,1,0,0V640.6A0,0,0,0,1,1477.8,640.6Z"/><rect class="cls-19" x="1039.2" y="432.9" width="181.3" height="207.73"/><rect class="cls-13" x="1061.7" y="473.8" width="140.9" height="166.88"/><path class="cls-20" d="M1039.2,432.9V640.7h-12.4a117,117,0,0,0-11.3-22.7c-9.9-15.7-22.1-29.9-30.4-46.5-22.6-45-23.1-94.4-6.1-138.6Z"/><polyline class="cls-21" points="1429.2 510.8 1414.8 521.6 1419.1 534.5"/><polyline class="cls-21" points="1432.7 510.8 1447.2 521.6 1442.8 534.5"/><path class="cls-19" d="M1567.7,650.6a34,34,0,0,0-24-9.9H1026.8c.7,2,1.3,4,1.9,6,5.1,19.1,1.2,37.2-17.2,53.4l-2.9,2.5-7.5,6h542.6a34,34,0,0,0,24-58Z"/><line class="cls-22" x1="1032.7" y1="646.7" x2="1036.2" y2="646.7"/><path class="cls-23" d="M1049.3,646.7h494.4a28,28,0,0,1,0,55.9H1023.9"/><line class="cls-22" x1="1017.3" y1="702.6" x2="1013.8" y2="702.6"/><circle class="cls-11" cx="1094.7" cy="674.6" r="18.4"/><path class="cls-20" d="M1094.7,680a5.4,5.4,0,1,1,5.4-5.4A5.4,5.4,0,0,1,1094.7,680Z"/><circle class="cls-11" cx="1183.9" cy="674.6" r="18.4"/><path class="cls-20" d="M1183.9,680a5.4,5.4,0,1,1,5.4-5.4A5.4,5.4,0,0,1,1183.9,680Z"/><circle class="cls-11" cx="1273.1" cy="674.6" r="18.4"/><path class="cls-20" d="M1273.1,680a5.4,5.4,0,1,1,5.4-5.4A5.4,5.4,0,0,1,1273.1,680Z"/><circle class="cls-11" cx="1362.3" cy="674.6" r="18.4"/><path class="cls-20" d="M1362.3,680a5.4,5.4,0,1,1,0-10.8,5.4,5.4,0,1,1,0,10.8Z"/><circle class="cls-11" cx="1451.5" cy="674.6" r="18.4"/><path class="cls-20" d="M1451.5,680a5.4,5.4,0,0,1,0-10.8,5.4,5.4,0,1,1,0,10.8Z"/><circle class="cls-11" cx="1540.7" cy="674.6" r="18.4"/><path class="cls-20" d="M1540.7,680a5.4,5.4,0,1,1,5.3-5.4A5.4,5.4,0,0,1,1540.7,680Z"/><path class="cls-20" d="M1092.7,309.7V432.9h-12v-116Q1086.5,313.2,1092.7,309.7Z"/><rect class="cls-20" x="1126.4" y="372.7" width="11.5" height="60.26"/><rect class="cls-20" x="1425.8" y="372.7" width="10.5" height="138.13"/><rect class="cls-20" x="1275.4" y="223.7" width="11.9" height="309.89" transform="translate(1660 -902.7) rotate(90)"/><rect class="cls-19" x="1121.7" y="424.2" width="20.9" height="8.68"/><rect class="cls-19" x="1419.7" y="502.9" width="22.6" height="9.94"/><rect class="cls-18" x="1110.9" y="708.6" width="16" height="142.9"/><rect class="cls-18" x="1094.7" y="849.3" width="48.3" height="15.74"/><rect class="cls-18" x="1367.8" y="708.6" width="16" height="142.9"/><rect class="cls-18" x="1351.6" y="849.3" width="48.3" height="15.74"/><rect class="cls-20" x="1232.7" y="708.6" width="16" height="142.9"/><rect class="cls-20" x="1216.5" y="849.3" width="48.3" height="15.74"/><rect class="cls-20" x="1489.6" y="708.6" width="16" height="142.9"/><rect class="cls-20" x="1473.5" y="849.3" width="48.3" height="15.74"/><rect class="cls-3" x="1140.2" y="602.3" width="140.4" height="38.31"/><rect class="cls-12" x="1151.2" y="590.9" width="118.3" height="11.37"/><rect class="cls-3" x="1140.2" y="552.6" width="140.4" height="38.31"/><circle class="cls-18" cx="1222.5" cy="571.7" r="4.2"/><circle class="cls-18" cx="1241.2" cy="571.7" r="4.2"/><circle class="cls-18" cx="1259.8" cy="571.7" r="4.2"/><line class="cls-24" x1="1151.2" y1="564.5" x2="1199.1" y2="564.5"/><line class="cls-24" x1="1151.2" y1="571.7" x2="1199.1" y2="571.7"/><line class="cls-24" x1="1151.2" y1="578.9" x2="1182" y2="578.9"/><circle class="cls-18" cx="1222.5" cy="621.5" r="4.2"/><circle class="cls-18" cx="1241.2" cy="621.5" r="4.2"/><circle class="cls-18" cx="1259.8" cy="621.5" r="4.2"/><line class="cls-24" x1="1151.2" y1="614.3" x2="1199.1" y2="614.3"/><line class="cls-24" x1="1151.2" y1="621.5" x2="1199.1" y2="621.5"/><line class="cls-24" x1="1151.2" y1="628.7" x2="1182" y2="628.7"/><rect class="cls-3" x="1358.1" y="602.3" width="140.4" height="38.31"/><rect class="cls-12" x="1369.2" y="590.9" width="118.3" height="11.37"/><rect class="cls-3" x="1358.1" y="552.6" width="140.4" height="38.31"/><circle class="cls-18" cx="1440.5" cy="571.7" r="4.2"/><circle class="cls-18" cx="1459.1" cy="571.7" r="4.2"/><circle class="cls-18" cx="1477.8" cy="571.7" r="4.2"/><line class="cls-24" x1="1369.2" y1="564.5" x2="1417.1" y2="564.5"/><line class="cls-24" x1="1369.2" y1="571.7" x2="1417.1" y2="571.7"/><line class="cls-24" x1="1369.2" y1="578.9" x2="1400" y2="578.9"/><circle class="cls-18" cx="1440.5" cy="621.5" r="4.2"/><circle class="cls-18" cx="1459.1" cy="621.5" r="4.2"/><circle class="cls-18" cx="1477.8" cy="621.5" r="4.2"/><line class="cls-24" x1="1369.2" y1="614.3" x2="1417.1" y2="614.3"/><line class="cls-24" x1="1369.2" y1="621.5" x2="1417.1" y2="621.5"/><line class="cls-24" x1="1369.2" y1="628.7" x2="1400" y2="628.7"/><path class="cls-18" d="M1285.6,465.6a32.4,32.4,0,0,0-19.2,58.5v11.2a3.1,3.1,0,0,0,5.3,2.2l7.6-7.7a33.6,33.6,0,0,0,6.3.6,32.4,32.4,0,1,0,0-64.8Z"/><polyline class="cls-25" points="1271.3 496.6 1285.6 511.4 1299.9 487.7"/><path class="cls-18" d="M1506,465.6a32.4,32.4,0,0,0-19.2,58.5v11.2a3.1,3.1,0,0,0,5.3,2.2l7.6-7.7a33.6,33.6,0,0,0,6.3.6,32.4,32.4,0,1,0,0-64.8Z"/><polyline class="cls-25" points="1491.7 496.6 1506 511.4 1520.3 487.7"/><rect class="cls-26" x="922.5" y="863.4" width="885.8" height="5.62" rx="2.8"/></g></svg>