<svg id="Illustration" xmlns="http://www.w3.org/2000/svg" xmlns:xlink="http://www.w3.org/1999/xlink" viewBox="0 0 1920 1080"><defs><style>
      .cls-1 {
        fill: #23233b;
      }
      .cls-1, .cls-2, .cls-3, .cls-4, .cls-5, .cls-6, .cls-7, .cls-8, .cls-9, .cls-10, .cls-11, .cls-12, .cls-13, .cls-14, .cls-15, .cls-16, .cls-17, .cls-18, .cls-19, .cls-20 {
        stroke-width: 0px;
      }
      .cls-2 {
        fill: #34344d;
      }
      .cls-3 {
        fill: #954ff0;
      }
      .cls-5 {
        fill: #f5edff;
      }
      .cls-6 {
        fill: none;
      }
      .cls-21 {
        clip-path: url(#clippath-1);
      }
      .cls-7 {
        fill: #7324c9;
      }
      .cls-8 {
        fill: #cba6ff;
      }
      .cls-9 {
        fill: #e9d9ff;
      }
      .cls-10 {
        fill: #fff;
      }
      .cls-11 {
        fill: #4d342d;
      }
      .cls-12, .cls-19 {
        fill: #a0a0a0;
      }
      .cls-13 {
        fill: #d8cfe0;
      }
      .cls-22 {
        clip-path: url(#clippath);
      }
      .cls-14 {
        fill: #9986a8;
      }
      .cls-15 {
        fill: #a77ae6;
      }
      .cls-16 {
        fill: #e08065;
      }
      .cls-17, .cls-23 {
        fill: #973bfc;
      }
      .cls-23 {
        font-family: Monosten-Bold, Monosten;
        font-size: 86px;
        font-weight: 700;
      }
      .cls-18 {
        fill: #250d45;
      }
      .cls-19 {
        fill-rule: evenodd;
      }
      .cls-20 {
        fill: #fdab95;
      }
    </style><clipPath id="clippath"><rect class="cls-6" x="78.35" y="65.77" width="353.29" height="91.34"></rect></clipPath><clipPath id="clippath-1"><rect class="cls-6" x="78.35" y="65.77" width="353.29" height="91.34"></rect></clipPath></defs><rect id="Bg" class="cls-18" width="1920" height="1080"></rect><g id="Logo"><g class="cls-22"><g class="cls-21"><g><path class="cls-10" d="m202.03,89.81c-.11-1.22.78-2.29,1.99-2.41,1.22-.11,2.29.78,2.41,1.99.02.14.02.27,0,.41v.54c.26-.95.82-1.78,1.6-2.38.87-.7,1.96-1.06,3.06-1.02,3.01,0,4.86,1.15,5.55,3.45.33-.98.98-1.83,1.83-2.43,1-.7,2.2-1.06,3.42-1.02,4.08,0,6.13,2.52,6.13,6.6v15.82c.11,1.21-.77,2.27-1.98,2.39-1.21.11-2.27-.77-2.39-1.98-.02-.14-.02-.27,0-.41v-14.61c0-2.78-.86-3.95-2.78-3.95-2.45,0-3.65,2.19-3.65,6.58v11.97c.11,1.21-.77,2.27-1.98,2.39-1.21.11-2.28-.77-2.39-1.98-.02-.14-.02-.27,0-.41v-14.61c0-2.78-.76-3.95-2.78-3.95-2.44,0-3.66,2.39-3.63,7.15v11.4c.11,1.22-.78,2.29-1.99,2.41s-2.29-.78-2.41-1.99c-.02-.14-.02-.27,0-.41v-19.57h0Z"></path><path class="cls-10" d="m255.24,104.56c-.66.02-1.29.32-1.71.83-1.71,1.97-4.13,2.97-7.29,2.97-1.91.05-3.76-.69-5.12-2.04-1.34-1.34-2.18-3.08-2.4-4.96h16.82c1.24.11,2.34-.81,2.45-2.05.01-.13.01-.26,0-.4.09-3.17-1.1-6.25-3.3-8.53-2.2-2.29-5.27-3.54-8.44-3.42-3.69,0-6.63,1.22-8.81,3.62-4.34,5.24-4.34,12.83,0,18.07,2.18,2.4,5.12,3.58,8.81,3.58,4.3,0,7.77-1.24,10.35-3.73.94-.82,1.03-2.23.22-3.17-.01-.01-.02-.02-.03-.03-.36-.48-.94-.76-1.54-.74h0Zm-14.02-11.8c1.35-1.28,3.16-1.97,5.01-1.92,1.75-.08,3.45.6,4.68,1.85,1.24,1.34,2.11,2.99,2.52,4.77h-14.71c.29-1.8,1.17-3.46,2.5-4.71"></path><path class="cls-10" d="m271.51,77.22c1.36,0,2.19,1,2.19,2.43v7.8h8.81c1.51,0,2.28.64,2.28,1.92s-.76,1.92-2.28,1.92h-8.81v12.73c0,2.97,1.57,4.3,3.75,4.3,1.18.05,2.34-.23,3.37-.81l1.4-1c.37-.28.82-.46,1.28-.5,1.09-.02,1.99.86,2,1.96v.14c0,.73-.47,1.44-1.4,2.11-2.02,1.38-4.43,2.07-6.86,1.97-2.4,0-4.32-.64-5.76-1.87s-2.16-3.2-2.16-5.89v-13.08h-6.32c-1.52,0-2.28-.64-2.28-1.92s.75-1.92,2.28-1.92h6.32v-7.85c-.1-1.23.81-2.31,2.05-2.42.05,0,.1,0,.15,0h0Z"></path><path class="cls-10" d="m311.18,87.44c-1.21,0-2.07.97-2.18,2.51-.76-1-1.79-1.77-2.97-2.21-1.23-.52-2.54-.79-3.87-.79-3.52,0-6.3,1.24-8.32,3.73-2.06,2.51-3.15,5.67-3.06,8.9-.09,3.25.98,6.42,2.99,8.96,2.02,2.44,4.82,3.68,8.41,3.68,1.33,0,2.64-.26,3.87-.76,1.18-.45,2.21-1.23,2.97-2.23.12,1.55.95,2.52,2.18,2.52,1.24.07,2.29-.88,2.36-2.11,0-.11,0-.21,0-.31v-19.48c.1-1.23-.82-2.31-2.05-2.42-.11-.01-.22-.01-.32,0m-3.97,18.5c-2.27,2.81-6.38,3.24-9.19.97-.36-.29-.68-.62-.97-.97-1.34-1.84-2.01-4.07-1.92-6.34-.1-2.26.58-4.49,1.92-6.32,2.23-2.81,6.32-3.27,9.12-1.03.38.3.73.65,1.03,1.03,1.35,1.82,2.03,4.05,1.92,6.32.1,2.27-.57,4.51-1.92,6.34"></path><path class="cls-17" d="m329.75,107.86v-26.27h-5.44c-1.36,0-2.4-.71-2.4-1.92s1.04-1.92,2.4-1.92h7.62c1.13-.07,2.11.79,2.19,1.92v28.21h7.04c1.36,0,2.4.71,2.4,1.95s-1.04,1.92-2.4,1.92h-18.47c-1.35,0-2.38-.71-2.38-1.92s1.02-1.95,2.38-1.95l7.06-.03h.01Z"></path><path class="cls-17" d="m366.4,87.44c-1.21,0-2.07.97-2.18,2.51-.76-1-1.79-1.77-2.97-2.21-1.22-.51-2.52-.78-3.84-.79-3.52,0-6.3,1.24-8.32,3.73-2.06,2.51-3.15,5.67-3.06,8.9-.09,3.25.97,6.42,2.99,8.96,2.02,2.44,4.82,3.68,8.41,3.68,1.33,0,2.64-.26,3.87-.76,1.18-.45,2.21-1.23,2.97-2.23.12,1.55.95,2.52,2.18,2.52,1.24.07,2.29-.88,2.36-2.11,0-.11,0-.21,0-.31v-19.48c.1-1.23-.81-2.31-2.05-2.42-.12-.01-.24-.01-.36,0m-3.97,18.5c-2.27,2.81-6.38,3.24-9.19.97-.36-.29-.68-.62-.97-.97-1.34-1.84-2.01-4.07-1.92-6.34-.1-2.26.58-4.49,1.92-6.32,2.23-2.81,6.32-3.27,9.12-1.03.38.3.73.65,1.03,1.03,1.35,1.82,2.03,4.05,1.92,6.32.1,2.27-.57,4.51-1.92,6.34"></path><path class="cls-17" d="m376.39,89.81c-.11-1.22.78-2.29,1.99-2.41,1.22-.11,2.29.78,2.41,1.99.02.14.02.27,0,.41v.54c.25-.94.8-1.78,1.58-2.38.87-.7,1.96-1.06,3.06-1.02,3.02,0,4.87,1.15,5.56,3.45.33-.98.97-1.83,1.83-2.43,1-.7,2.2-1.06,3.41-1.02,4.09,0,6.13,2.52,6.13,6.6v15.82c.11,1.21-.77,2.27-1.98,2.39-1.21.11-2.27-.77-2.39-1.98-.02-.14-.02-.27,0-.41v-14.61c0-2.78-.86-3.95-2.78-3.95-2.45,0-3.66,2.19-3.66,6.58v11.97c.11,1.21-.77,2.27-1.98,2.39-1.21.11-2.27-.77-2.39-1.98-.02-.14-.02-.27,0-.41v-14.61c0-2.78-.76-3.95-2.78-3.95-2.45,0-3.65,2.39-3.63,7.15v11.4c.11,1.22-.78,2.29-1.99,2.41s-2.29-.78-2.41-1.99c-.02-.14-.02-.27,0-.41l.02-19.57h0Z"></path><path class="cls-17" d="m429.27,87.44c-1.21,0-2.06.97-2.18,2.51-.76-1-1.79-1.77-2.97-2.21-1.22-.51-2.52-.78-3.84-.79-3.52,0-6.3,1.24-8.32,3.73-2.06,2.51-3.14,5.67-3.06,8.9-.09,3.25.98,6.42,2.99,8.96,2.02,2.44,4.82,3.68,8.41,3.68,1.32-.01,2.62-.27,3.84-.76,1.18-.45,2.21-1.23,2.97-2.23.12,1.55.95,2.52,2.18,2.52,1.24.06,2.28-.9,2.34-2.13v-19.76c.1-1.23-.82-2.31-2.05-2.42-.1-.01-.2-.01-.3,0m-3.96,18.5c-2.27,2.81-6.39,3.24-9.2.97-.35-.29-.68-.61-.97-.97-1.33-1.84-2.01-4.07-1.92-6.34-.1-2.26.58-4.49,1.92-6.32,2.24-2.81,6.33-3.27,9.14-1.03.38.3.73.65,1.03,1.03,1.35,1.82,2.02,4.05,1.92,6.32.1,2.27-.58,4.51-1.92,6.34"></path><path class="cls-19" d="m428.64,148.04c-1.3,1.53-3.18,2.28-5.55,2.28-.94,0-1.83-.18-2.68-.53s-1.47-.83-1.83-1.45v6.36c0,.88-.58,1.53-1.43,1.53s-1.43-.66-1.43-1.53v-18.81c0-.88.58-1.53,1.43-1.53.76,0,1.39.66,1.43,1.53.41-.61,1.03-1.05,1.88-1.36.85-.31,1.74-.44,2.68-.44,2.37,0,4.2.7,5.5,2.15s1.97,3.42,1.97,5.96c0,2.37-.67,4.3-1.97,5.83m-2.06-9.95c-.81-1.01-1.92-1.53-3.4-1.53s-2.59.48-3.4,1.53c-.81,1.01-1.16,2.37-1.16,4.12s.41,3.12,1.16,4.12c.81,1.01,1.92,1.49,3.4,1.49s2.59-.48,3.4-1.49c.76-1.01,1.16-2.37,1.16-4.12s-.41-3.12-1.16-4.12m-14.76,1.19c-.54,0-.98-.31-1.25-.88-.58-1.19-1.57-1.8-2.86-1.8-1.61,0-2.82.61-3.62,1.8s-1.21,2.67-1.21,4.43v5.61c0,.92-.58,1.58-1.43,1.58s-1.43-.66-1.43-1.58v-12.45c0-.92.58-1.58,1.43-1.58s1.43.66,1.43,1.58v.7c.41-.66,1.03-1.27,1.92-1.8.9-.53,1.88-.79,2.91-.79,2.68,0,4.52.96,5.55,2.94.14.26.18.48.18.74,0,.88-.81,1.49-1.61,1.49m-17.85,10.65c-.81,0-1.39-.61-1.43-1.62-.49.61-1.12,1.1-1.97,1.45-.9.4-1.75.57-2.64.57-2.37,0-4.25-.79-5.59-2.37-1.34-1.58-1.97-3.51-1.97-5.74s.67-4.12,2.06-5.7c1.34-1.62,3.22-2.41,5.55-2.41.9,0,1.74.18,2.59.48.85.31,1.52.79,1.97,1.4.09-1.01.62-1.62,1.43-1.62.9,0,1.57.57,1.57,1.53v12.5c0,1.01-.67,1.53-1.57,1.53m-2.64-11.79c-.85-1.05-1.97-1.58-3.4-1.58s-2.55.53-3.4,1.58c-.85,1.05-1.25,2.41-1.25,4.08s.45,3.02,1.25,4.08c.85,1.05,1.97,1.53,3.4,1.53s2.55-.53,3.4-1.53c.85-1.05,1.3-2.41,1.3-4.08s-.45-3.02-1.3-4.08m-14.76,11.88c-.85,0-1.43-.66-1.43-1.53v-7.76c0-1.49-.22-2.54-.71-3.2s-1.3-.97-2.51-.97c-1.43,0-2.55.57-3.35,1.67-.81,1.09-1.21,2.54-1.21,4.34v5.88c0,.88-.58,1.53-1.43,1.53-.9.05-1.48-.61-1.48-1.49v-18.81c0-.88.58-1.53,1.43-1.53s1.43.66,1.43,1.53v6.88c.22-.66.81-1.27,1.7-1.71.9-.48,1.83-.74,2.86-.74,4.07,0,6.13,2.02,6.13,6.01v8.38c0,.88-.58,1.53-1.43,1.53h0Zm-21.61-8.9c.81.09,1.43.22,1.88.26.45.09.98.22,1.65.44.67.22,1.16.44,1.52.7.67.53,1.3,1.53,1.3,2.85,0,1.58-.67,2.85-1.97,3.73-1.3.92-3,1.36-5.01,1.36-3-.13-5.19-1.05-6.67-2.81-.27-.35-.45-.66-.45-1.01,0-.79.54-1.45,1.43-1.45.54,0,.98.22,1.34.7,1.03,1.31,2.46,2.02,4.3,2.02,2.68,0,4.03-.84,4.03-2.46,0-.66-.31-1.1-1.3-1.4-.5-.13-.9-.26-1.26-.3-.31-.05-.89-.13-1.66-.26-.89-.13-1.65-.26-2.28-.4-.62-.18-1.25-.4-1.92-.7-1.34-.61-2.02-1.75-2.02-3.33s.63-2.77,1.83-3.6c1.26-.84,2.73-1.27,4.48-1.27,2.68,0,4.65.88,5.91,2.59.22.26.31.57.31.92,0,.83-.63,1.4-1.57,1.4-.49,0-.85-.22-1.12-.66-.76-1.19-1.92-1.75-3.54-1.75-2.15,0-3.4.79-3.4,2.24,0,1.27,1.52,1.8,4.16,2.19Z"></path><path class="cls-19" d="m290.3,148.04c-1.3,1.53-3.18,2.28-5.55,2.28-.94,0-1.83-.18-2.68-.53s-1.47-.83-1.83-1.44v6.36c0,.88-.58,1.53-1.43,1.53s-1.43-.66-1.43-1.53v-18.81c0-.88.58-1.53,1.43-1.53.76,0,1.39.66,1.43,1.53.41-.61,1.03-1.05,1.88-1.36.85-.3,1.74-.44,2.68-.44,2.37,0,4.2.7,5.51,2.15,1.34,1.44,1.97,3.42,1.97,5.96,0,2.37-.67,4.3-1.97,5.83m-2.06-9.91c-.81-1.05-1.97-1.53-3.4-1.53s-2.59.48-3.4,1.53c-.81,1.01-1.16,2.37-1.16,4.12s.41,3.11,1.16,4.12c.81,1.01,1.92,1.49,3.4,1.49s2.6-.48,3.4-1.49c.81-1.01,1.16-2.37,1.16-4.12s-.41-3.12-1.16-4.12"></path><path class="cls-19" d="m308.21,148.09c-1.43,1.53-3.27,2.28-5.59,2.28s-4.16-.74-5.59-2.28c-1.43-1.53-2.15-3.46-2.15-5.83s.71-4.3,2.15-5.83c1.43-1.58,3.31-2.32,5.59-2.32s4.16.74,5.59,2.32c1.43,1.53,2.15,3.46,2.15,5.83s-.71,4.3-2.15,5.83m-2.1-9.95c-.85-1.05-2.06-1.53-3.49-1.53s-2.59.48-3.49,1.53c-.89,1.01-1.34,2.37-1.34,4.12s.45,3.11,1.34,4.12c.9,1.01,2.06,1.49,3.49,1.49s2.59-.48,3.49-1.49,1.34-2.41,1.34-4.12-.45-3.12-1.34-4.12"></path><path class="cls-19" d="m313.17,147.65c-.27-.35-.45-.66-.45-1.01,0-.79.54-1.45,1.43-1.45.54,0,.98.22,1.34.7,1.03,1.31,2.46,2.02,4.3,2.02,2.68,0,4.03-.84,4.03-2.46,0-.66-.31-1.1-1.3-1.4-.49-.13-.9-.26-1.25-.3-.31-.05-.9-.13-1.66-.26-.9-.13-1.66-.26-2.28-.39-.63-.18-1.25-.4-1.92-.7-1.34-.61-2.01-1.75-2.01-3.33s.63-2.77,1.83-3.6c1.25-.84,2.73-1.27,4.47-1.27,2.68,0,4.65.88,5.91,2.59.22.26.31.57.31.92,0,.83-.63,1.4-1.57,1.4-.49,0-.85-.22-1.12-.66-.76-1.19-1.92-1.75-3.53-1.75-2.15,0-3.4.79-3.4,2.24,0,1.27,1.52,1.8,4.16,2.19.81.09,1.43.22,1.88.26.45.09.98.22,1.66.44.67.22,1.16.44,1.52.7.67.53,1.3,1.53,1.3,2.85,0,1.58-.67,2.85-1.97,3.73-1.3.92-3,1.36-5.01,1.36-2.95-.13-5.15-1.05-6.67-2.81h-.01Z"></path><path class="cls-19" d="m333.66,129.41c0-.88.58-1.53,1.43-1.53.9,0,1.43.66,1.43,1.53v5h5.86c1.03,0,1.52.4,1.52,1.27s-.49,1.27-1.52,1.27h-5.86v8.15c0,1.88,1.03,2.76,2.5,2.76,1.03,0,1.83-.26,2.24-.53l.94-.66c.27-.22.58-.31.85-.31.81,0,1.34.61,1.34,1.36,0,.48-.31.92-.94,1.36-1.25.84-2.78,1.27-4.56,1.27-1.61,0-2.86-.4-3.85-1.19-.98-.79-1.43-2.06-1.43-3.77v-8.5h-4.2c-1.03,0-1.52-.4-1.52-1.27s.49-1.27,1.52-1.27h4.2v-4.95h.05,0Z"></path><path class="cls-12" d="m238.07,150.84c2.27,0,4.05-.72,5.33-2.15,1.28-1.43,1.92-3.42,1.92-5.97,0-2.35-.64-4.29-1.91-5.82-1.27-1.54-3.05-2.3-5.34-2.3-.92,0-1.79.18-2.61.55-.83.36-1.42.84-1.77,1.42v-6.38c0-.87-.56-1.54-1.4-1.54s-1.4.67-1.4,1.54v18.83c0,.87.57,1.53,1.4,1.53.72,0,1.36-.66,1.4-1.53.4.6,1.01,1.05,1.82,1.37.81.3,1.67.46,2.57.46m4.44-8.12c0,1.73-.38,3.1-1.14,4.12-.76,1.01-1.85,1.51-3.27,1.51s-2.51-.5-3.27-1.51c-.76-1.02-1.14-2.4-1.14-4.12s.38-3.13,1.14-4.12c.76-1.01,1.85-1.51,3.27-1.51s2.5.5,3.27,1.51c.76.99,1.14,2.37,1.14,4.12"></path><path class="cls-12" d="m251.1,157.1c1.64,0,2.95-.55,3.94-1.67.99-1.1,2.06-2.89,3.19-5.38l5.94-13.07c.08-.26.12-.44.12-.56,0-.66-.3-1.13-.9-1.41-.17-.08-.36-.12-.6-.12-.64,0-1.1.3-1.37.9l-4.6,10.56-4.63-10.56c-.27-.6-.73-.9-1.37-.9-.23,0-.43.05-.6.12-.6.26-.9.73-.9,1.41,0,.21.05.4.12.56l5.79,13.04-.17.38c-.66,1.58-1.27,2.67-1.8,3.27-.54.61-1.25.92-2.17.92-.49,0-1.1-.3-1.46-.3-.67,0-1.19.47-1.19,1.22,0,1.05.89,1.59,2.66,1.59h0Z"></path><path class="cls-17" d="m95.25,123.02h-15.96c-.52,0-.95.42-.95.95v14.16c0,.52.42.95.95.95h10.34c.39,0,.73-.24.88-.6l5.62-14.16c.25-.62-.21-1.29-.88-1.29"></path><path class="cls-17" d="m150.14,123.02h-35.07l9.88-56.15c.1-.58-.34-1.11-.93-1.11h-14.14c-.46,0-.85.33-.93.78l-3.59,20.41h-19.73c-.52,0-.95.43-.95.95v14.17c0,.52.42.95.95.95h16.9l-9.31,52.97c-.1.58.34,1.11.93,1.11h14.13c.46,0,.85-.33.93-.78l3.03-17.24h20.14l-2.97,16.92c-.1.58.34,1.11.93,1.11h14.13c.46,0,.85-.33.93-.78l5.66-32.19c.1-.58-.34-1.11-.93-1.11"></path><path class="cls-17" d="m168.73,123.02h-10.87c-.39,0-.73.24-.88.6l-5.61,14.16c-.25.62.21,1.29.88,1.29h16.48c.52,0,.95-.43.95-.95v-14.16c0-.52-.43-.95-.95-.95"></path><path class="cls-17" d="m175.07,86.96h-17.47l3.53-20.08c.1-.58-.34-1.11-.93-1.11h-14.13c-.46,0-.85.33-.93.78l-3.59,20.41h-13.55c-.39,0-.73.24-.88.6l-5.61,14.17c-.24.62.21,1.29.88,1.29h16.34l-2.31,13.17c-.09.5.23.97.72,1.08l13.58,3.15c.53.12,1.05-.22,1.14-.75l2.92-16.65h20.3c.52,0,.95-.43.95-.95v-14.17c0-.52-.43-.95-.95-.95"></path></g></g></g></g><g id="Text_1"><text class="cls-23" transform="translate(77.88 340.76)"><tspan x="0" y="0">X Ways to</tspan><tspan x="0" y="100">Implement</tspan><tspan x="0" y="200">INotify</tspan><tspan x="0" y="300">Property</tspan><tspan x="0" y="400">Changed</tspan></text></g><g id="Illustration-2"><g id="Illustration-3"><path class="cls-8" d="m973.54,866.19c-66.33-39.06-96.65-121.35-56.5-193.91,23.08-41.71,65.08-67.48,100.72-97.23,16.87-14.08,38.22-31.31,47.38-51.83,11.76-26.35,16.54-55.24,17.03-84,.47-27.86-1.69-55.89,2.06-83.5,5.29-39,23.26-77.11,53.7-102.07,48.36-39.66,108.68-28.42,161.38-4.46,33.53,15.25,65.47,34.86,101.15,44,27.53,7.05,56.71,7.57,84.47,1.49,46.5-10.19,89.6-38.53,137.17-36.74,44,1.65,81.3,28.14,101.07,66.9,24.78,48.56,3.54,106.75-12.35,154.87-13.28,40.2-23.04,86.43-1.88,123.09,21.19,36.71,67.08,52.3,92.15,86.48,17.82,24.3,23.29,55.98,20.68,86-2.61,30.02-25.72,67.81-40.27,90.92"></path><path class="cls-8" d="m1002.59,363.1c-22.36,3.22-41.94,17.51-56.11,35.11-8.1,10.06-14.75,21.33-19.32,33.41-12.14,32.15-11.81,69.74,4.97,100.13,12.34,22.35,35.07,33.5,60.56,30.51,17.76-2.09,32.19-14.52,43-27.96,24.18-30.08,35.94-69.56,33.29-107.98-1.25-18.05-4.57-36.02-18.28-48.88-12.6-11.82-31.17-16.77-48.11-14.33Z"></path></g><g><path class="cls-17" d="m1662.45,442.75c3.01-5.19,5.28-10.79,6.87-16.56,1.51-5.79,2.36-11.78,2.36-17.78,7.44-.57,14.89-1.34,22.32-2.3-.15-7.2-1.22-14.36-3.07-21.3-.9-3.48-2.09-6.87-3.38-10.21-1.37-3.31-2.85-6.59-4.59-9.72-6.9,2.9-13.73,5.96-20.46,9.18-3.03-5.17-6.65-10.01-10.91-14.23-2.1-2.15-4.38-4.09-6.75-5.95-1.2-.89-2.39-1.81-3.65-2.62-.63-.41-1.24-.85-1.88-1.23l-1.93-1.15c3.23-6.77,6.27-13.58,9.14-20.49-6.32-3.43-13.04-6.11-19.93-7.98-6.9-1.83-14.05-2.88-21.25-3.08-.96,7.42-1.72,14.85-2.3,22.32l-2.25.03c-.75,0-1.5.08-2.25.12-1.5.07-2.98.26-4.48.43-2.97.42-5.92.95-8.81,1.76-5.8,1.52-11.36,3.89-16.57,6.84-4.22-6.16-8.6-12.21-13.15-18.17-3.08,1.84-5.99,3.94-8.84,6.12-2.8,2.25-5.52,4.59-8.05,7.14-5.08,5.07-9.6,10.74-13.33,16.9,5.97,4.54,12.03,8.92,18.19,13.13-3.01,5.19-5.28,10.79-6.87,16.56-1.51,5.78-2.36,11.77-2.36,17.77-7.44.58-14.89,1.34-22.33,2.3.15,7.2,1.22,14.37,3.07,21.3.91,3.48,2.09,6.87,3.38,10.21,1.37,3.31,2.84,6.59,4.59,9.72,6.9-2.9,13.73-5.96,20.45-9.17,3.03,5.16,6.65,10,10.91,14.23,2.1,2.15,4.39,4.09,6.74,5.94,1.21.9,2.39,1.81,3.66,2.62.63.41,1.23.85,1.88,1.23l1.93,1.16c-3.23,6.76-6.27,13.58-9.15,20.49,6.32,3.43,13.05,6.11,19.93,7.98,6.9,1.84,14.05,2.88,21.24,3.08.96-7.42,1.73-14.84,2.31-22.31l2.25-.03c.75,0,1.5-.08,2.25-.12,1.5-.07,2.98-.26,4.47-.43,2.97-.42,5.93-.95,8.82-1.75,5.8-1.52,11.36-3.89,16.57-6.84,4.22,6.15,8.61,12.21,13.15,18.17,3.07-1.84,5.99-3.94,8.83-6.11,2.79-2.25,5.52-4.59,8.04-7.15,5.09-5.07,9.6-10.74,13.34-16.89-5.97-4.54-12.03-8.91-18.19-13.13Zm-28.16-16.26l-.6,1.01c-.19.35-.44.65-.65.99-.41.67-.91,1.28-1.37,1.92-.98,1.23-1.98,2.44-3.12,3.53-2.21,2.25-4.79,4.15-7.51,5.77-2.77,1.54-5.7,2.82-8.76,3.6-1.51.44-3.07.7-4.62.93-.78.07-1.56.2-2.35.22-.39.01-.78.07-1.17.07h-1.18c-3.14.02-6.28-.44-9.38-1.23-3.08-.87-6.03-2.04-8.74-3.63l-1.01-.6c-.35-.19-.65-.44-.99-.65-.67-.41-1.27-.91-1.91-1.36-1.23-.98-2.44-1.99-3.54-3.13-2.25-2.21-4.14-4.79-5.76-7.51-1.54-2.77-2.82-5.7-3.61-8.76-.44-1.51-.69-3.07-.93-4.62-.08-.78-.2-1.56-.22-2.35-.01-.39-.08-.78-.06-1.18l-.02-1.17c0-3.14.46-6.28,1.25-9.38.88-3.08,2.05-6.03,3.63-8.74l.61-1.01c.19-.35.44-.65.65-.99.41-.67.91-1.28,1.36-1.91.98-1.23,1.98-2.44,3.12-3.54,2.21-2.25,4.79-4.15,7.52-5.77,2.77-1.54,5.69-2.82,8.75-3.61,1.52-.44,3.08-.69,4.63-.92.78-.08,1.56-.2,2.34-.22.4-.02.78-.08,1.18-.06l1.18-.02c3.14,0,6.27.46,9.38,1.25,3.08.88,6.03,2.05,8.74,3.63l1.01.61c.35.19.65.43.98.64.67.41,1.28.91,1.92,1.37,1.23.98,2.44,1.98,3.53,3.12,2.25,2.21,4.15,4.79,5.77,7.51,1.54,2.77,2.83,5.7,3.6,8.76.44,1.52.7,3.07.93,4.63.07.78.2,1.56.22,2.34.01.39.08.78.06,1.18v1.17c.02,3.14-.44,6.28-1.23,9.38-.87,3.08-2.04,6.02-3.63,8.74Z"></path><path class="cls-17" d="m1713.48,546.73c3.13-1.43,6.06-3.3,8.72-5.46,2.63-2.21,5.02-4.73,7.01-7.54,3.67,2.21,7.41,4.32,11.21,6.34,2.33-3.42,4.21-7.13,5.64-10.99.73-1.93,1.31-3.91,1.81-5.9.46-2.01.86-4.03,1.09-6.08-4.2-.94-8.41-1.78-12.63-2.51.3-3.43.22-6.9-.37-10.29-.27-1.7-.69-3.37-1.18-5.03-.26-.82-.52-1.64-.84-2.44-.16-.4-.3-.81-.47-1.2l-.52-1.18c3.76-2.09,7.45-4.27,11.09-6.55-1.82-3.71-4.07-7.2-6.68-10.36-2.62-3.15-5.62-6.02-8.92-8.51-2.92,3.16-5.74,6.38-8.5,9.68l-1.06-.73c-.35-.25-.73-.46-1.09-.69-.72-.47-1.48-.87-2.24-1.29-1.53-.79-3.09-1.52-4.71-2.11-3.22-1.22-6.61-1.96-10.03-2.31.07-4.29.03-8.58-.11-12.88-2.05-.16-4.11-.15-6.17-.07-2.06.12-4.11.31-6.14.67-4.07.68-8.06,1.83-11.86,3.48,1.28,4.11,2.67,8.17,4.15,12.2-3.13,1.43-6.06,3.3-8.72,5.47-2.63,2.2-5.02,4.73-7.01,7.53-3.68-2.2-7.41-4.32-11.21-6.35-2.33,3.42-4.21,7.13-5.64,10.99-.73,1.93-1.31,3.91-1.81,5.91-.46,2.01-.86,4.03-1.09,6.08,4.2.94,8.41,1.78,12.62,2.51-.3,3.42-.21,6.89.37,10.29.27,1.7.69,3.37,1.18,5.02.27.82.52,1.64.84,2.44.16.4.29.81.47,1.2l.52,1.18c-3.76,2.09-7.45,4.27-11.09,6.55,1.82,3.71,4.07,7.2,6.68,10.36,2.62,3.15,5.62,6.02,8.92,8.51,2.92-3.16,5.74-6.37,8.5-9.68l1.06.73c.35.25.73.46,1.09.69.72.47,1.48.87,2.24,1.29,1.53.79,3.09,1.53,4.71,2.11,3.22,1.22,6.61,1.95,10.03,2.31-.07,4.28-.03,8.58.11,12.87,2.05.16,4.11.15,6.17.08,2.06-.12,4.11-.31,6.14-.67,4.07-.68,8.06-1.83,11.86-3.47-1.28-4.11-2.67-8.17-4.15-12.2Zm-7.77-16.97l-.62.27c-.2.1-.42.16-.63.25-.41.18-.85.3-1.28.44-.87.25-1.74.49-2.64.61-1.78.32-3.62.35-5.43.2-1.81-.2-3.61-.57-5.3-1.23-.85-.3-1.67-.69-2.47-1.1-.39-.23-.8-.42-1.17-.68-.19-.12-.39-.22-.57-.36l-.56-.39c-1.47-1.04-2.79-2.3-3.98-3.7-1.15-1.43-2.14-2.96-2.88-4.6l-.27-.62c-.1-.2-.16-.42-.25-.63-.18-.41-.29-.85-.44-1.28-.25-.87-.48-1.74-.62-2.64-.32-1.78-.35-3.62-.2-5.43.2-1.81.57-3.61,1.22-5.3.3-.85.7-1.67,1.1-2.47.22-.39.43-.8.68-1.17.12-.19.22-.39.36-.57l.38-.56c1.04-1.47,2.3-2.79,3.7-3.98,1.43-1.15,2.96-2.14,4.61-2.89l.62-.27c.2-.1.42-.16.63-.25.41-.18.85-.3,1.28-.44.87-.25,1.74-.49,2.64-.62,1.79-.32,3.62-.35,5.44-.2,1.81.2,3.6.57,5.3,1.22.86.3,1.67.7,2.47,1.11.39.22.8.42,1.17.68.19.12.39.22.57.36l.56.38c1.47,1.04,2.79,2.3,3.98,3.7,1.15,1.43,2.14,2.96,2.88,4.6l.27.62c.1.2.16.42.24.63.18.42.3.85.44,1.28.25.87.49,1.74.62,2.64.32,1.79.35,3.62.2,5.43-.2,1.81-.57,3.61-1.23,5.3-.3.86-.69,1.67-1.1,2.48-.22.39-.42.8-.68,1.17-.13.19-.22.39-.36.57l-.38.55c-1.04,1.48-2.3,2.79-3.7,3.98-1.43,1.15-2.96,2.14-4.6,2.88Z"></path></g><g><path class="cls-10" d="m1682.96,428.78h-631.99c-4.39,0-7.96,3.56-7.96,7.96v403.61h647.9v-403.61c0-4.39-3.56-7.96-7.96-7.96Z"></path><rect class="cls-4" x="1059.27" y="444.55" width="615.39" height="387.38"></rect><path class="cls-14" d="m1752.78,840.35c0,14.27-11.57,25.84-25.84,25.84h-719.96c-14.27,0-25.84-11.57-25.84-25.84h771.63Z"></path><path class="cls-8" d="m1424.97,840.35c-2.66,4.9-7.85,8.21-13.81,8.21h-88.38c-5.96,0-11.15-3.32-13.81-8.21h116.01Z"></path><g><rect class="cls-9" x="1095.6" y="505.33" width="61.47" height="11.05"></rect><rect class="cls-9" x="1171.18" y="505.33" width="50.15" height="11.05"></rect><rect class="cls-9" x="1236.89" y="505.33" width="115.22" height="11.05"></rect><rect class="cls-9" x="1366.22" y="505.33" width="62.17" height="11.05"></rect><rect class="cls-9" x="1095.6" y="532.61" width="124.69" height="11.05"></rect><rect class="cls-3" x="1232.4" y="532.61" width="19.14" height="11.05"></rect><rect class="cls-3" x="1266.26" y="532.61" width="58.25" height="11.05"></rect><rect class="cls-9" x="1337.07" y="532.61" width="43.6" height="11.05"></rect><rect class="cls-9" x="1397.34" y="532.61" width="25.95" height="11.05"></rect><rect class="cls-9" x="1136" y="559.89" width="76.54" height="11.05"></rect><rect class="cls-9" x="1225.86" y="559.89" width="45.8" height="11.05"></rect><rect class="cls-3" x="1375.97" y="559.89" width="17.24" height="11.05"></rect><rect class="cls-3" x="1405.22" y="559.89" width="17.24" height="11.05"></rect><rect class="cls-9" x="1285.42" y="559.89" width="78.19" height="11.05"></rect><rect class="cls-3" x="1095.6" y="587.17" width="134.96" height="11.05"></rect><rect class="cls-9" x="1246.89" y="587.17" width="32.35" height="11.05"></rect><rect class="cls-9" x="1292.21" y="587.17" width="55.73" height="11.05"></rect><rect class="cls-9" x="1165.26" y="614.46" width="94.56" height="11.05"></rect><rect class="cls-9" x="1095.6" y="641.74" width="59.77" height="11.05"></rect><rect class="cls-9" x="1170.29" y="641.74" width="87.21" height="11.05"></rect><rect class="cls-9" x="1271.66" y="641.74" width="20.55" height="11.05"></rect><rect class="cls-3" x="1303.96" y="641.74" width="70.09" height="11.05"></rect><rect class="cls-9" x="1388.24" y="641.74" width="43.97" height="11.05"></rect><rect class="cls-3" x="1136" y="669.02" width="71.31" height="11.05"></rect><rect class="cls-9" x="1221.84" y="669.02" width="40.07" height="11.05"></rect><rect class="cls-9" x="1273.15" y="669.02" width="63.98" height="11.05"></rect><rect class="cls-9" x="1349.41" y="669.02" width="77.6" height="11.05"></rect><rect class="cls-9" x="1165.26" y="696.3" width="45.8" height="11.05"></rect><rect class="cls-9" x="1387.33" y="696.3" width="45.8" height="11.05"></rect><rect class="cls-9" x="1223.99" y="696.3" width="92.25" height="11.05"></rect><rect class="cls-3" x="1327.93" y="696.3" width="16.87" height="11.05"></rect><rect class="cls-3" x="1355.17" y="696.3" width="16.87" height="11.05"></rect><rect class="cls-9" x="1165.26" y="723.59" width="92.24" height="11.05"></rect><rect class="cls-9" x="1270.12" y="723.59" width="49.95" height="11.05"></rect><rect class="cls-9" x="1330.19" y="723.59" width="77.29" height="11.05"></rect><rect class="cls-9" x="1094.87" y="750.87" width="62.65" height="11.05"></rect><rect class="cls-9" x="1169.87" y="750.87" width="36.33" height="11.05"></rect><rect class="cls-3" x="1299.69" y="750.87" width="84.54" height="11.05"></rect><rect class="cls-9" x="1218.95" y="750.87" width="69.74" height="11.05"></rect></g></g><g><path class="cls-20" d="m1547,608.31c-.58,1.79-2.54,2.73-4.37,3.13-1.55.33-3.2.25-4.86-.07-.06-.01-.11-.02-.17-.03-5.93-1.19-11.69-3.91-16.95-6.93-2.24-1.28-6.75-3.86-7.03-6.85-.37-3.84,4.2-3.36,6.6-2.73,4.03,1.06,7.84,2.78,11.77,4.21-1.36-.84-2.66-1.54-3.88-2.58-.75-.64-3.12-2.7-1.73-3.71,1.18-.86,3.69.23,4.82.77,1.17.56,2.42,1.37,3.56,2.01,2.48,1.39,4.91,2.9,7.25,4.53.59.41,1.21.84,1.81,1.31,2.21,1.72,4.17,3.92,3.18,6.94Z"></path><path class="cls-16" d="m1547,608.31c-.58,1.79-2.54,2.73-4.37,3.13-1.55.33-3.2.25-4.86-.07,1.2-3.74,3.28-7.2,6.05-10,2.21,1.72,4.17,3.92,3.18,6.94Z"></path><path class="cls-7" d="m1586.15,625.33c.11,2.87,1.74,5.52,4.02,7.59,3.43,3.12,9.17,3.15,12.78.24,1.25-1.01,2.25-2.3,3.18-3.62,3.77-5.34,6.13-11.29,9.26-16.96,3.11-5.65,5.7-11.65,8.2-17.62,1.62-3.86,3.45-7.81,4.61-12.03.62-2.25,1.05-4.57,1.17-7,.28-6.17-1.48-12.14-6.01-14.48-4.41-2.28-9.64-.9-13.22,3.07-2.64,2.92-4.37,6.98-6.05,10.96-5.13,12.15-10.55,24.62-14.93,37.02-1.5,4.24-3.2,8.26-3.02,12.84Z"></path><path class="cls-7" d="m1547.93,598.74s43.57,11.65,47.58,13.15c5.76,2.16,8.9,3.54,10.02,7.89,1.29,4.99-1.07,15.52-11.12,15.51-8.34,0-52.32-18.09-52.44-18.81-1.16-7.3,3.02-16.47,5.95-17.75Z"></path><g><g><path class="cls-4" d="m1642.67,855.07c.64,2.77-.28,5.85-2.2,7.7-15.64,0-31.76,1.38-47.35,0-4.08-.36-4.56-4.72-1.43-7.27,4.13-3.37,10.27-4.8,15.4-5.72,8.08-1.45,15.96-3.74,23.91-5.54,2.87-.65,6.81-1.12,8.18,1.75,1.16,2.44,2.85,6.35,3.48,9.09Z"></path><path class="cls-2" d="m1653.94,655.84l-1.63,25.64v.15s-.42,6.34-.42,6.34l-1.19,18.75-.03.48-2.08,32.63-1.11,16-4.15,60.07-1.54,22.37-.54,7.68c-1.11.84-2.46,1.46-3.95,1.89-3.7,1.06-8.32.9-12.45-.35-1.95-.59-3.79-1.42-5.35-2.5-1.67-29.01-6.83-59.47-8.29-88.41-.95-18.74-1.54-42.71-1.82-66.87h0c-.03-2.23-.05-4.46-.07-6.67-.03-2.69-.05-5.38-.07-8.05v-.39c-.01-.32-.01-.66-.01-1v-2.17c-.01-1.32-.01-2.63-.02-3.94-.01-3.93-.03-7.81-.03-11.64h0s44.75,0,44.75,0Z"></path><path class="cls-1" d="m1653.94,655.83l-5.35,84-7.35,106.11c-1.1.84-2.45,1.47-3.95,1.9-3.7,1.06-8.32.91-12.45-.35.2-.21.45-.38.54-.66,7.65-25.89,12.82-70.15,11.25-190.65l17.3-.35Z"></path></g><g><path class="cls-4" d="m1754.83,763.43c2.84.09,5.59,1.77,6.88,4.1-4,15.12-6.8,31.06-12.12,45.77-1.39,3.85-5.73,3.2-7.4-.48-2.2-4.86-2.01-11.16-1.59-16.36.67-8.18.47-16.38.76-24.53.11-2.94.66-6.87,3.78-7.46,2.66-.5,6.87-1.13,9.68-1.04Z"></path><path class="cls-2" d="m1746.46,766.79c.12,5.66-2.84,12.62-7.3,16.47,0,0-2.5-.33-6.72-.89-5.28-.7-13.22-1.78-22.33-3.06-17.5-2.5-33.39-4.09-49.82-9.63-4.74-1.59-9.11-5.87-12.65-13.5-.05-.11-.11-.23-.16-.35-8.06-17.67-10.26-49.11-12.62-76.63-.71-8.31-1.22-16.25-1.54-23.36h44.44s-.01,11.41.08,25.71c.11,19.93.4,45.49,1.1,53.67l66.71,27.26c.53,1.28.79,2.74.81,4.31Z"></path></g><path class="cls-1" d="m1677.84,681.55c-5.17.51-10.44.54-15.67.39-2.73-.08-5.47-.2-8.21-.35-.55-.03-1.1-.07-1.65-.11-5.53-.39-11.04-.94-16.51-1.7-.52-.07-1.74-.26-3.41-.58-5.75-1.09-16.86-3.64-23.15-7.76h0s-.01-.01-.01-.01c0-1.32-.01-2.63-.01-3.94-.02-3.93-.03-7.81-.03-11.64h0s68.57,0,68.57,0c0,0-.01,11.41.08,25.71Z"></path></g><path class="cls-17" d="m1682.61,669.33c-24.01,5.17-56.64,4.12-78.67-2.25.5-4.82.89-9.64,1.19-14.46,1.51-23.87,1.03-47.76,2.89-71.61.55-7.05,1.15-14.29,6.09-18.98,3.47-3.3,10.5-4.79,15.11-6.36,10.02-3.39,20.77-2.83,31.08-1.34,6.7.97,18.87,4.39,21.12,8.62,1.04,1.97,1.62,4.06,1.88,6.22.72,5.93-.89,12.36-1.36,18.15-.69,8.64-1.71,17.24-2.09,25.91-.81,18.42.7,37.75,2.76,56.09Z"></path><path class="cls-7" d="m1682.61,669.33c-24.01,5.17-56.64,4.12-78.67-2.25.5-4.82.89-9.64,1.19-14.46,2.16,1.3,4.17,2.41,4.67,2.66,3.54,1.76,7.77,3.31,11.63,4.07,9.09,1.77,18.78.45,27.01-3.83,17.79-9.27,22.22-28.5,25.2-46.72,2.38-14.6,5.29-29.11,8.71-43.5.32,1.29.65,2.59.95,3.88.72,5.93-.89,12.36-1.36,18.15-.69,8.64-1.71,17.24-2.09,25.91-.81,18.42.7,37.75,2.76,56.09Z"></path><g><path class="cls-20" d="m1659.01,554.17c-2.3,5.15-9.47,7.11-12.91,6.87-5.86-.42-8.91-3.48-8.65-7.3,1.32-.82,2.65-2.57,3.37-5.19.19-.68.34-1.44.43-2.25.44-3.93.3-8.01.04-11.81h14.28s0,3.54.03,6.79c0,1.63.03,3.19.06,4.17.02.43.04.75.05.94.41,4.16,1.2,6.07,3.3,7.78Z"></path><path class="cls-16" d="m1655.66,545.46c-4.52,2.84-10.46,3.5-14.84,3.09.19-.68.34-1.44.43-2.25.44-3.93.3-8.01.04-11.81h14.28s0,3.54.03,6.79c0,1.63.03,3.19.06,4.17Z"></path></g><path class="cls-5" d="m1657.34,552.03c-.63,4.84-9.62,7.67-12.69,8.56,0,0-7.54-1.34-6.8-7.42l-10.58,2.29s.06,8.62,9.38,14.04l8-8.02,6.62,8.66c13.98-3.32,17.94-13.98,17.94-13.98l-11.86-4.14Z"></path><path class="cls-20" d="m1724.29,705.6c-2.42,2.99-5.35-.54-6.63-2.68-2.14-3.57-3.66-7.46-5.47-11.24.39,1.56.83,2.96.97,4.57.09.97.34,4.1-1.36,3.86-1.45-.21-2.47-2.75-2.9-3.92-.45-1.22-.78-2.67-1.14-3.93-.8-2.73-1.48-5.51-2.02-8.31-.08-.4-.15-.81-.22-1.23-.52-3.03-.72-6.52,2.42-8.16,1.67-.87,3.73-.17,5.31.82,1.39.88,2.54,2.14,3.53,3.59.42.62.83,1.26,1.21,1.91,2.74,4.57,4.63,9.79,6.07,14.9.7,2.48,2.12,7.48.23,9.82Z"></path><path class="cls-16" d="m1717.99,680.88c-1.41.71-2.92,1.21-4.47,1.49-2.18.39-4.64.68-6.84.47-.32-.03-.73-.06-1.16-.12-.52-3.03-.72-6.52,2.42-8.16,1.67-.87,3.73-.17,5.31.82,1.39.88,2.54,2.14,3.53,3.59.42.62.83,1.26,1.21,1.91Z"></path><path class="cls-20" d="m1626.49,531.45c.57,4.53,1.76,9.24,4.96,12.49,5.58,5.67,15.65,4.62,21.64-.61s8.55-13.42,9.39-21.33c1.36-12.9-5.17-22.13-18.43-22.37-7.54-.13-13.13,1.36-15.68,8.64-2.78,7.92-2.92,14.86-1.88,23.18Z"></path><path class="cls-11" d="m1624.21,498.07c-.02-.13-1.78.11-1.94.14-.7.13-1.39.33-2.03.64-1.5.72-2.89,2.26-3.41,3.85-.78,2.39-.41,5.04.58,7.32,1.56,3.59,4.81,7.56,8.66,8.66.09-1.36.44-2.84.81-4,3.01,1.44,8.96-.69,10.71-3.58,2.87,6.62,10.09,12.89,16.48,13.87,1.23-2.51,4.51-2.94,6.11-1.49.7.63,1.82,2.45.43,5.45s-2.63,3.88-3.83,4.8c0,0-.37,4.95-1.11,6.93,2.04-1.79,4.15-3.85,6.18-5.64,1.87-1.65,3.74-3.3,5.42-5.14,2.85-3.15,5.11-6.9,6.11-11.02.91-3.75.96-8.54-1.26-11.84-1.01-1.5-2.44-2.74-4.02-3.61-.41-.23-4.9-1.6-4.87-1.45-1.94-6.46-4.58-10.32-8.71-12.84-4.12-2.52-15.38-6.06-24.82-.49-3.34,1.97-5.97,5.63-5.49,9.48Z"></path><path class="cls-17" d="m1700.78,628.4c-.46,2.83-2.39,5.27-4.9,7.05-3.78,2.68-9.48,2.03-12.72-1.3-1.12-1.15-1.96-2.55-2.72-3.97-3.1-5.75-4.73-11.94-7.16-17.95-2.41-5.98-4.26-12.25-6.03-18.48-1.15-4.03-2.49-8.16-3.14-12.49-.35-2.31-.5-4.67-.32-7.09.46-6.16,2.93-11.87,7.71-13.65,4.65-1.73,9.67.27,12.76,4.63,2.27,3.21,3.5,7.45,4.69,11.6,3.63,12.67,7.51,25.71,10.37,38.54.98,4.39,2.19,8.59,1.46,13.11Z"></path><path class="cls-17" d="m1718.6,674.68s-15.24-48.47-16.84-52.45c-2.3-5.7-3.75-8.81-8.13-9.83-5.02-1.17-15.49,1.45-15.24,11.49.21,8.34,21.9,57.07,22.61,57.17,7.33.98,16.39-3.42,17.6-6.38Z"></path></g><g><path class="cls-2" d="m1484.14,558.79h35.49v10.1c0,1.13-.92,2.06-2.06,2.06h-31.38c-1.13,0-2.06-.92-2.06-2.06v-10.1h0Z"></path><g><rect class="cls-2" x="1365.9" y="477.16" width="16.61" height="68.87" rx="1.31" ry="1.31" transform="translate(159.56 -309.88) rotate(13.65)"></rect><polygon class="cls-8" points="1466.09 509.68 1389.04 485.72 1375.51 541.39 1454.98 555.44 1466.09 509.68"></polygon><polygon class="cls-8" points="1531.89 532.64 1465.35 512.74 1455.72 552.37 1523.98 565.22 1531.89 532.64"></polygon><polygon class="cls-8" points="1598.03 554.19 1592.63 576.41 1532.9 564.15 1524.65 562.45 1531.22 535.41 1534.49 536.33 1598.03 554.19"></polygon><polygon class="cls-15" points="1465.08 554.13 1467.4 513.36 1465.35 512.74 1455.72 552.37 1465.08 554.13"></polygon><polygon class="cls-15" points="1533.33 536 1532.18 563.98 1524.65 562.45 1531.22 535.41 1533.33 536"></polygon><polygon class="cls-15" points="1375.51 541.39 1378.27 541.87 1390.08 486.04 1389.04 485.72 1375.51 541.39"></polygon></g><rect class="cls-2" x="1499.58" y="564.91" width="5.36" height="301.28"></rect><polygon class="cls-2" points="1495.14 567.06 1449.27 866.19 1443.84 866.19 1489.84 566.22 1495.14 567.06"></polygon><polygon class="cls-2" points="1560.68 866.19 1555.25 866.19 1509.39 567.06 1514.68 566.22 1560.68 866.19"></polygon></g><g><g><rect class="cls-17" x="1009.88" y="368.84" width="330.38" height="87.32" rx="9.7" ry="9.7"></rect><path class="cls-17" d="m1257.73,449.52c10.2,7.66,13.77,19.91,8.32,32.67,13.45-4.18,28-16.33,26.73-32.67"></path></g><path class="cls-10" d="m1135.93,420.88c-4.62,0-8.38-3.76-8.38-8.38s3.76-8.38,8.38-8.38,8.38,3.76,8.38,8.38-3.76,8.38-8.38,8.38Z"></path><path class="cls-10" d="m1175.07,420.88c-4.62,0-8.38-3.76-8.38-8.38s3.76-8.38,8.38-8.38,8.38,3.76,8.38,8.38-3.76,8.38-8.38,8.38Z"></path><path class="cls-10" d="m1214.22,420.88c-4.62,0-8.38-3.76-8.38-8.38s3.76-8.38,8.38-8.38,8.38,3.76,8.38,8.38-3.76,8.38-8.38,8.38Z"></path></g><g><circle class="cls-10" cx="1343.69" cy="323.13" r="8.43"></circle><circle class="cls-10" cx="1371.6" cy="323.13" r="8.43"></circle><circle class="cls-10" cx="1399.52" cy="323.13" r="8.43"></circle></g><rect class="cls-13" x="927.98" y="863.38" width="885.79" height="5.62" rx="2.81" ry="2.81"></rect></g></svg>