<svg xmlns="http://www.w3.org/2000/svg" xmlns:xlink="http://www.w3.org/1999/xlink" viewBox="0 0 1920 1080"><defs><style>.cls-1,.cls-22,.cls-27,.cls-28{fill:none;}.cls-2{fill:#250d45;}.cls-3,.cls-5{fill:#973bfc;}.cls-4{font-size:47.87px;font-family:Monosten-Bold, Monosten;font-weight:700;}.cls-10,.cls-4,.cls-7{fill:#fff;}.cls-5{font-size:86px;}.cls-10,.cls-5{font-family:Monosten-Regular, Monosten;}.cls-6{clip-path:url(#clip-path);}.cls-8,.cls-9{fill:#a0a0a0;}.cls-8{fill-rule:evenodd;}.cls-10{font-size:57.45px;}.cls-11{fill:#cba6ff;}.cls-12{fill:#ac83e6;}.cls-13{fill:#fdab95;}.cls-14{fill:#7324c9;}.cls-15{fill:#34344d;}.cls-16{fill:#23233b;}.cls-17{fill:#e08065;}.cls-18{fill:#4d342d;}.cls-19{fill:#f5edff;}.cls-20{fill:#d8cfe0;}.cls-21{fill:#7020c9;}.cls-22{stroke:#e9d9ff;stroke-width:4px;}.cls-22,.cls-28{stroke-linecap:round;stroke-linejoin:round;}.cls-23{fill:#fde0be;}.cls-24{fill:#b35f47;}.cls-25{fill:#803c29;}.cls-26{fill:#181829;}.cls-27,.cls-28{stroke:#fde0be;stroke-width:2px;}.cls-27{stroke-miterlimit:10;}.cls-29{fill:#ff713d;}.cls-30{fill:#e9d9ff;}</style><clipPath id="clip-path"><rect class="cls-1" x="77.5" y="65.8" width="353.3" height="91.34"/></clipPath></defs><g id="Banner_5" data-name="Banner 5"><rect class="cls-2" width="1920" height="1080"/><g id="Button"><rect class="cls-3" x="77.5" y="833.1" width="328.8" height="76.26" rx="38.1"/><text class="cls-4" transform="translate(120.7 888.8)">READ NOW</text></g><text class="cls-5" transform="translate(77 391)">Mediator<tspan x="0" y="100">pattern:</tspan></text><g class="cls-6"><g class="cls-6"><path class="cls-7" d="M201.1,89.8a2.2,2.2,0,0,1,4.4-.4.3.3,0,0,1,0,.4v.5a5.3,5.3,0,0,1,1.6-2.3,5.1,5.1,0,0,1,3.1-1.1c3,0,4.9,1.2,5.5,3.5a5,5,0,0,1,1.9-2.4,6,6,0,0,1,3.4-1.1c4.1,0,6.1,2.6,6.1,6.6v15.9a2.2,2.2,0,0,1-2,2.4,2.1,2.1,0,0,1-2.3-2c-.1-.2-.1-.3,0-.4V94.8c0-2.8-.9-4-2.8-4s-3.7,2.2-3.7,6.6v12a2.2,2.2,0,0,1-2,2.4,2.1,2.1,0,0,1-2.3-2c-.1-.2-.1-.3,0-.4V94.8c0-2.8-.8-4-2.8-4s-3.7,2.4-3.7,7.2v11.4a2.1,2.1,0,0,1-1.9,2.4,2.3,2.3,0,0,1-2.5-2v-20Z"/><path class="cls-7" d="M254.4,104.6a2.5,2.5,0,0,0-1.8.8c-1.7,2-4.1,3-7.3,3a7.1,7.1,0,0,1-5.1-2.1,9.1,9.1,0,0,1-2.4-4.9h16.8a2.3,2.3,0,0,0,2.5-2.1v-.4a11.7,11.7,0,0,0-3.3-8.5,10.9,10.9,0,0,0-8.5-3.4,11.5,11.5,0,0,0-8.8,3.6,14.2,14.2,0,0,0,0,18,11.5,11.5,0,0,0,8.8,3.6c4.3,0,7.8-1.2,10.4-3.7a2.3,2.3,0,0,0,.2-3.2h0a1.9,1.9,0,0,0-1.5-.8ZM240.3,92.8a7.4,7.4,0,0,1,5-2,6.3,6.3,0,0,1,4.7,1.9,9.7,9.7,0,0,1,2.5,4.8H237.8a8.3,8.3,0,0,1,2.5-4.7"/><path class="cls-7" d="M270.6,77.2a2.2,2.2,0,0,1,2.2,2.4v7.8h8.8c1.5,0,2.3.7,2.3,2s-.8,1.9-2.3,1.9h-8.8V104c0,3,1.6,4.3,3.8,4.3a5.6,5.6,0,0,0,3.3-.8l1.4-1a2.1,2.1,0,0,1,1.3-.5,2,2,0,0,1,2,2h0a2.9,2.9,0,0,1-1.4,2.1,11.2,11.2,0,0,1-6.9,2,8.5,8.5,0,0,1-5.7-1.9c-1.4-1.2-2.2-3.2-2.2-5.9V91.3h-6.3c-1.5,0-2.3-.6-2.3-1.9s.8-1.9,2.3-1.9h6.3V79.6a2.2,2.2,0,0,1,2.1-2.4Z"/><path class="cls-7" d="M310.3,87.4c-1.2,0-2.1,1-2.2,2.6a6.8,6.8,0,0,0-3-2.3,9.9,9.9,0,0,0-3.8-.7,10.2,10.2,0,0,0-8.4,3.7,14.7,14.7,0,0,0,0,17.8,10.1,10.1,0,0,0,8.4,3.7,10.7,10.7,0,0,0,3.9-.7,7.3,7.3,0,0,0,2.9-2.3c.1,1.6,1,2.6,2.2,2.6a2.4,2.4,0,0,0,2.4-2.2V89.9a2.3,2.3,0,0,0-2.1-2.5h-.3m-4,18.5a6.5,6.5,0,0,1-9.2,1l-.9-1a10.9,10.9,0,0,1,0-12.6,6.5,6.5,0,0,1,9.1-1.1,5.2,5.2,0,0,1,1,1.1,9.4,9.4,0,0,1,1.9,6.3,9.4,9.4,0,0,1-1.9,6.3"/><path class="cls-3" d="M328.9,107.9V81.6h-5.5c-1.3,0-2.4-.7-2.4-1.9s1.1-1.9,2.4-1.9H331a2,2,0,0,1,2.2,1.9v28.2h7.1c1.3,0,2.4.7,2.4,1.9s-1.1,2-2.4,2H321.8c-1.4,0-2.4-.8-2.4-2s1-1.9,2.4-1.9h7.1Z"/><path class="cls-3" d="M365.5,87.4c-1.2,0-2.1,1-2.2,2.6a6.5,6.5,0,0,0-2.9-2.3,10.7,10.7,0,0,0-3.9-.7,10,10,0,0,0-8.3,3.7,14.5,14.5,0,0,0-.1,17.8,11.3,11.3,0,0,0,12.3,3,7.6,7.6,0,0,0,3-2.3c.1,1.6.9,2.6,2.2,2.6a2.3,2.3,0,0,0,2.3-2.2V89.9a2.3,2.3,0,0,0-2-2.5h-.4m-4,18.5a6.4,6.4,0,0,1-9.1,1l-1-1a9.4,9.4,0,0,1-1.9-6.3,9.4,9.4,0,0,1,1.9-6.3,6.5,6.5,0,0,1,9.1-1.1,5.2,5.2,0,0,1,1,1.1,10.9,10.9,0,0,1,0,12.6"/><path class="cls-3" d="M375.5,89.8a2.2,2.2,0,0,1,4.4-.4v.9a4.1,4.1,0,0,1,1.6-2.3,4.6,4.6,0,0,1,3-1.1c3.1,0,4.9,1.2,5.6,3.5a4.8,4.8,0,0,1,1.8-2.4,6,6,0,0,1,3.4-1.1c4.1,0,6.2,2.6,6.2,6.6v15.9a2.3,2.3,0,0,1-2,2.4,2.2,2.2,0,0,1-2.4-2v-15c0-2.8-.9-4-2.8-4s-3.6,2.2-3.6,6.6v12a2.3,2.3,0,0,1-2,2.4,2.2,2.2,0,0,1-2.4-2v-15c0-2.8-.8-4-2.8-4s-3.6,2.4-3.6,7.2v11.4a2.2,2.2,0,1,1-4.4.4v-20Z"/><path class="cls-3" d="M428.4,87.4c-1.2,0-2.1,1-2.2,2.6a6.8,6.8,0,0,0-3-2.3,9.9,9.9,0,0,0-3.8-.7,10,10,0,0,0-8.3,3.7,13.3,13.3,0,0,0-3.1,8.9,13.7,13.7,0,0,0,3,8.9,10.1,10.1,0,0,0,8.4,3.7,9.9,9.9,0,0,0,3.8-.7,6.9,6.9,0,0,0,3-2.3c.1,1.6,1,2.6,2.2,2.6a2.2,2.2,0,0,0,2.3-2.2V89.9a2.3,2.3,0,0,0-2-2.5h-.3m-4,18.5a6.5,6.5,0,0,1-9.2,1,4.3,4.3,0,0,1-.9-1,10.9,10.9,0,0,1,0-12.6,6.5,6.5,0,0,1,9.1-1.1l1,1.1a9.4,9.4,0,0,1,1.9,6.3,9.4,9.4,0,0,1-1.9,6.3"/><path class="cls-8" d="M427.8,148a6.8,6.8,0,0,1-5.6,2.3,8.6,8.6,0,0,1-2.7-.5,3.4,3.4,0,0,1-1.8-1.5v6.4a1.4,1.4,0,0,1-1.4,1.5,1.4,1.4,0,0,1-1.5-1.5V135.9a1.4,1.4,0,0,1,1.5-1.5,1.5,1.5,0,0,1,1.4,1.5,3.5,3.5,0,0,1,1.9-1.4,7.7,7.7,0,0,1,2.7-.4,7.2,7.2,0,0,1,5.5,2.1,9.4,9.4,0,0,1,1.9,6,9,9,0,0,1-1.9,5.8m-2.1-9.9a4.1,4.1,0,0,0-3.4-1.6,3.9,3.9,0,0,0-3.4,1.6,6.5,6.5,0,0,0-1.2,4.1,6.3,6.3,0,0,0,1.2,4.1,4.6,4.6,0,0,0,6.8,0,6.3,6.3,0,0,0,1.2-4.1,6.5,6.5,0,0,0-1.2-4.1m-14.8,1.2a1.3,1.3,0,0,1-1.2-.9,3.1,3.1,0,0,0-2.9-1.8,4,4,0,0,0-3.6,1.8,7.8,7.8,0,0,0-1.2,4.4v5.6a1.4,1.4,0,0,1-1.4,1.6,1.4,1.4,0,0,1-1.5-1.6V136a1.5,1.5,0,0,1,1.5-1.6A1.5,1.5,0,0,1,402,136v.7a4.7,4.7,0,0,1,1.9-1.8,6,6,0,0,1,2.9-.8c2.7,0,4.5,1,5.6,2.9a2.2,2.2,0,0,1,.1.8,1.6,1.6,0,0,1-1.6,1.5m-17.8,10.6a1.4,1.4,0,0,1-1.4-1.6,4.8,4.8,0,0,1-2,1.4,6.6,6.6,0,0,1-2.7.6,6.8,6.8,0,0,1-5.5-2.4,8.1,8.1,0,0,1-2-5.7,8.8,8.8,0,0,1,2-5.7,7.1,7.1,0,0,1,5.6-2.4,8,8,0,0,1,2.6.5,4.8,4.8,0,0,1,2,1.4,1.4,1.4,0,0,1,1.4-1.6,1.4,1.4,0,0,1,1.5,1.5v12.5a1.4,1.4,0,0,1-1.5,1.5m-2.7-11.8a4.1,4.1,0,0,0-3.4-1.6,4.4,4.4,0,0,0-3.4,1.6,7.6,7.6,0,0,0,0,8.2,4.3,4.3,0,0,0,3.4,1.5,4.1,4.1,0,0,0,3.4-1.5,7.1,7.1,0,0,0,0-8.2M375.7,150a1.4,1.4,0,0,1-1.5-1.5v-7.8a5.4,5.4,0,0,0-.7-3.2,3.1,3.1,0,0,0-2.5-1,3.9,3.9,0,0,0-3.3,1.7,7.4,7.4,0,0,0-1.2,4.4v5.8A1.5,1.5,0,0,1,365,150a1.3,1.3,0,0,1-1.4-1.5V129.7a1.4,1.4,0,0,1,1.4-1.6,1.5,1.5,0,0,1,1.4,1.6v6.8a3.5,3.5,0,0,1,1.7-1.7,7.3,7.3,0,0,1,2.9-.7c4.1,0,6.1,2,6.1,6v8.4a1.4,1.4,0,0,1-1.4,1.5Zm-21.6-8.9,1.8.3,1.7.4a3.5,3.5,0,0,1,2.8,3.6,4.4,4.4,0,0,1-2,3.7,8.2,8.2,0,0,1-5,1.3c-3-.1-5.1-1-6.6-2.8a1.4,1.4,0,0,1,1-2.4,1.6,1.6,0,0,1,1.3.7,5.2,5.2,0,0,0,4.3,2c2.7,0,4-.8,4-2.5s-.3-1.1-1.3-1.4l-1.2-.3-1.7-.2-2.3-.4-1.9-.7a3.5,3.5,0,0,1-2-3.4,4.3,4.3,0,0,1,1.8-3.6,8.4,8.4,0,0,1,4.5-1.2c2.7,0,4.7.9,5.9,2.6a1.2,1.2,0,0,1,.3.9,1.4,1.4,0,0,1-1.5,1.4,1.3,1.3,0,0,1-1.2-.7,3.7,3.7,0,0,0-3.5-1.7c-2.1,0-3.4.8-3.4,2.2S351.4,140.7,354.1,141.1Z"/><path class="cls-8" d="M289.4,148a6.7,6.7,0,0,1-5.5,2.3,7.6,7.6,0,0,1-2.7-.5,4.1,4.1,0,0,1-1.9-1.4v6.3a1.3,1.3,0,0,1-1.4,1.5,1.4,1.4,0,0,1-1.4-1.5V135.9a1.4,1.4,0,1,1,2.8,0,4.5,4.5,0,0,1,1.9-1.4,8.4,8.4,0,0,1,2.7-.4,6.8,6.8,0,0,1,5.5,2.2,8,8,0,0,1,2,5.9,8.5,8.5,0,0,1-2,5.8m-2-9.9a4.2,4.2,0,0,0-3.4-1.5,4.1,4.1,0,0,0-3.4,1.5,6.6,6.6,0,0,0-1.2,4.2,6.5,6.5,0,0,0,1.2,4.1,4.1,4.1,0,0,0,3.4,1.5,4.2,4.2,0,0,0,3.4-1.5,6.4,6.4,0,0,0,1.1-4.1,7.2,7.2,0,0,0-1.1-4.2"/><path class="cls-8" d="M307.3,148.1a7.4,7.4,0,0,1-5.6,2.3,7.5,7.5,0,0,1-5.6-2.3,8.3,8.3,0,0,1-2.1-5.8,8.5,8.5,0,0,1,2.1-5.9,7.2,7.2,0,0,1,5.6-2.3,7,7,0,0,1,5.6,2.3,8.6,8.6,0,0,1,2.2,5.9,8.3,8.3,0,0,1-2.2,5.8m-2.1-10a4.3,4.3,0,0,0-3.5-1.5,4.5,4.5,0,0,0-3.5,1.5,6,6,0,0,0-1.3,4.2,5.9,5.9,0,0,0,1.3,4.1,4.5,4.5,0,0,0,3.5,1.5,4.4,4.4,0,0,0,3.5-1.5,6,6,0,0,0,1.4-4.1,6.1,6.1,0,0,0-1.4-4.2"/><path class="cls-8" d="M312.3,147.7a1.8,1.8,0,0,1-.5-1.1,1.5,1.5,0,0,1,1.5-1.4,1.6,1.6,0,0,1,1.3.7,5.2,5.2,0,0,0,4.3,2c2.7,0,4-.8,4-2.4s-.3-1.1-1.3-1.4l-1.2-.3-1.7-.3-2.3-.4-1.9-.7a3.4,3.4,0,0,1-2-3.3,4,4,0,0,1,1.8-3.6,7.7,7.7,0,0,1,4.5-1.3c2.7,0,4.7.9,5.9,2.6a1.4,1.4,0,0,1-1.2,2.3,1.4,1.4,0,0,1-1.2-.6,3.8,3.8,0,0,0-3.5-1.8c-2.1,0-3.4.8-3.4,2.2s1.5,1.8,4.2,2.2l1.9.3,1.6.4a5.3,5.3,0,0,1,1.5.7,3.8,3.8,0,0,1,1.3,2.9,4.2,4.2,0,0,1-1.9,3.7,8.7,8.7,0,0,1-5,1.4c-3-.2-5.2-1.1-6.7-2.8Z"/><path class="cls-8" d="M332.8,129.4a1.4,1.4,0,1,1,2.8,0v5h5.9c1,0,1.5.4,1.5,1.3s-.5,1.3-1.5,1.3h-5.9v8.1c0,1.9,1.1,2.8,2.5,2.8a4,4,0,0,0,2.3-.6l.9-.6.9-.3a1.3,1.3,0,0,1,1.3,1.3,1.7,1.7,0,0,1-.9,1.4,8.6,8.6,0,0,1-4.6,1.3,5.6,5.6,0,0,1-3.8-1.2,4.6,4.6,0,0,1-1.5-3.8v-8.5h-4.2c-1,0-1.5-.4-1.5-1.3s.5-1.2,1.5-1.2h4.2v-5Z"/><path class="cls-9" d="M237.2,150.8a6.8,6.8,0,0,0,5.3-2.1c1.3-1.4,1.9-3.4,1.9-6a8.6,8.6,0,0,0-1.9-5.8,6.5,6.5,0,0,0-5.3-2.3,7.5,7.5,0,0,0-2.6.5,3.5,3.5,0,0,0-1.8,1.5v-6.4a1.5,1.5,0,0,0-1.4-1.6,1.4,1.4,0,0,0-1.4,1.6V149a1.4,1.4,0,0,0,1.4,1.5,1.5,1.5,0,0,0,1.4-1.5,3.7,3.7,0,0,0,1.8,1.4,7.5,7.5,0,0,0,2.6.4m4.4-8.1a7.1,7.1,0,0,1-1.1,4.1,4.4,4.4,0,0,1-6.6,0,8.2,8.2,0,0,1,0-8.2,4.4,4.4,0,0,1,6.6,0,7.1,7.1,0,0,1,1.1,4.1"/><path class="cls-9" d="M250.2,157.1a4.9,4.9,0,0,0,3.9-1.7,21.5,21.5,0,0,0,3.2-5.3l6-13.1a1.8,1.8,0,0,0,.1-.6,1.5,1.5,0,0,0-.9-1.4h-.6a1.5,1.5,0,0,0-1.4.9l-4.6,10.5-4.6-10.5a1.4,1.4,0,0,0-1.4-.9h-.6a1.4,1.4,0,0,0-.7,2l5.7,13v.4a15,15,0,0,1-1.8,3.3,2.9,2.9,0,0,1-2.2.9l-1.5-.3a1.2,1.2,0,0,0-1.2,1.2c0,1.1.9,1.6,2.7,1.6Z"/><path class="cls-3" d="M94.4,123h-16a1,1,0,0,0-1,1v14.1a1,1,0,0,0,1,1H88.7a1,1,0,0,0,.9-.6l5.6-14.2a.9.9,0,0,0-.8-1.3"/><path class="cls-3" d="M149.2,123h-35l9.9-56.1a1,1,0,0,0-1-1.1H109a.8.8,0,0,0-.9.7L104.5,87H84.7a.9.9,0,0,0-.9.9v14.2a.9.9,0,0,0,.9.9h16.9l-9.3,53a1,1,0,0,0,1,1.1h14.1a.9.9,0,0,0,.9-.8l3.1-17.2h20.1l-3,16.9a1,1,0,0,0,1,1.1h14.1a.9.9,0,0,0,.9-.8l5.7-32.2a1,1,0,0,0-.9-1.1"/><path class="cls-3" d="M167.8,123H157a1,1,0,0,0-.9.6l-5.6,14.2a.9.9,0,0,0,.9,1.3h16.4a1,1,0,0,0,1-1V124a.9.9,0,0,0-1-1"/><path class="cls-3" d="M174.2,87H156.7l3.5-20.1a.9.9,0,0,0-.9-1.1H145.2a1,1,0,0,0-1,.7L140.7,87H127.1a1,1,0,0,0-.9.6l-5.6,14.1a1,1,0,0,0,.9,1.3h16.3l-2.3,13.2a.9.9,0,0,0,.7,1.1l13.6,3.1a.9.9,0,0,0,1.2-.7l2.9-16.7h20.3a.9.9,0,0,0,.9-.9V87.9a.9.9,0,0,0-.9-.9"/></g></g><text class="cls-10" transform="translate(81.8 580.2)">Lorem ipsum dolor </text><path class="cls-11" d="M1022,866.7c-43.4-36-64.6-63-79.9-103.1-11-28.7-12.5-62.3,1.7-89.6,24.7-47.4,89.3-65.8,108.6-115.7,20.4-52.6-20.2-109.9-16.1-166.2a105.7,105.7,0,0,1,128.2-95.5c28.4,6.3,52.9,23.9,80.1,34a158,158,0,0,0,86.4,6.5c56.7-11.8,103.5-54,160.2-66,44-9.3,91.8,1.4,127.7,28.4s59.4,70,62.6,114.9c2.8,38.1-8.2,77.7,3.7,114.1,12.4,38,46.9,63.8,70.8,95.8,20.2,27.2,35.4,59.7,38,93.5,2.2,29.3-3.5,56.8-15.2,84.2-9.8,22.9-37.8,50.2-55.3,64.7"/><path class="cls-11" d="M1038.8,513.9c-2.7-28.4-17.8-54-47.3-50.3-57.6,7.4-64.9,113.9-4.2,123.3C1022,592.4,1042.6,552.8,1038.8,513.9Z"/><path class="cls-11" d="M1342.6,313.3c16.1-7.8,26-21.4,19.2-41.6-3.7-11.2-12.3-20.5-22.4-27.1a82.9,82.9,0,0,0-62.5-11.8c-17.9,3.8-35.5,15.5-39.4,32.8-4.3,19.4,4.1,34.5,25.9,46.2C1281.4,321.5,1319.8,324.4,1342.6,313.3Z"/><path class="cls-12" d="M1349.5,618.4c.5-7.3-.9-15.2-1.9-21.6s-2.3-13.7-3.7-20.5-3.1-14.5-6.2-21.1c-1.8-4-4.3-7.8-7.9-10.2a10.5,10.5,0,0,0-3.5-1.3,26.2,26.2,0,0,0-3.2-2.3,36.9,36.9,0,0,0-3.5-1.9l.6-.3a61.9,61.9,0,0,0-13.1-5.1,6.3,6.3,0,0,1-1.1,1.2l-2.2-.6v-9.4a17.1,17.1,0,0,0,9.5-10.7,15.2,15.2,0,0,0,.9-2.8l.2-.5c2.1.3,5.2-3.2,6.1-4.8s1.9-6.4,1.3-8.6a4,4,0,0,0-2.8-2.8,6.6,6.6,0,0,0,4.4-4.9,4.7,4.7,0,0,0-3.2-5.3,6.2,6.2,0,0,0-4.5-10.6,5.8,5.8,0,0,0-1-5.8,6,6,0,0,0-5.7-1.7,5.8,5.8,0,0,0-3.3-5.6,5.7,5.7,0,0,0-6.3,1.4c-.4-2.7-3.4-4.4-6.1-4a8.1,8.1,0,0,0-5.8,5c-2.1-1.8-5.4-1.6-7.7-.1a10.8,10.8,0,0,0-4.3,6.9,4.7,4.7,0,0,0-5.5.5,7.2,7.2,0,0,0-1.9,5.4,13.7,13.7,0,0,0,1.8,5.6c-2.5-.3-4.7,2.4-4.5,5s1.9,4.7,4,6.2a3.4,3.4,0,0,0,2,5.9c-1.9,1.8-1.3,5.3-.2,7.5s4,5.1,6.2,4.8c.3,1.1.6,2.2,1,3.3a18.4,18.4,0,0,0,1.9,4,17.4,17.4,0,0,0,6.7,6.2V535l-1.8.5a8.6,8.6,0,0,1-1.3-1.4,93.3,93.3,0,0,0-13.6,4.3l.7.3a46,46,0,0,0-8.2,3.5,16.9,16.9,0,0,0-3.2,2.7h-.2c-3.7,2.4-6.1,6.2-8,10.2-3,6.6-4.7,13.9-6.2,21.1s-2.6,13.6-3.6,20.5-2.5,14.3-1.9,21.6a53.9,53.9,0,0,0,.4,11.4c.6,6.4,7.5,42.4,7.5,42.4a3.6,3.6,0,0,0,1.8.3c1.1,6.1,2.4,13.4,3.4,16.8s1.8,5.8,3.8,6.6a3.9,3.9,0,0,0,2.6.1c.6,24,1.4,49.1,2,59.6,1,16.9,3.4,40.6,5.5,59.7,1.1,9.9,2,18.5,2.7,24.2s.9,7.3.9,7.3l1.7,1.1a3.1,3.1,0,0,0-1,.5,17.5,17.5,0,0,0-4.5,4.5c-1.9,2.7-4.5,7.3-3.6,10.5h63.3c.9-3.2-1.7-7.8-3.6-10.5a18.8,18.8,0,0,0-4.4-4.5h-.2a13.5,13.5,0,0,0,2.6-1.5s.3-2.7.9-7.3,1.6-14.3,2.7-24.2c2-19.1,4.4-42.8,5.5-59.7.6-10.5,1.3-35.5,1.9-59.4a6.4,6.4,0,0,0,2-.3c2-.8,3-3.8,3.7-6.6s2.3-10.7,3.4-16.8l.9-.3s6.8-36,7.5-42.4A61.5,61.5,0,0,0,1349.5,618.4Zm-51.1,233.5a.1.1,0,0,0-.1.1,36.9,36.9,0,0,0-3.7,7.8,42.6,42.6,0,0,0-3.7-7.8h-.1a11.5,11.5,0,0,0-2.1-2.3,14,14,0,0,0,3.2-1.8s1.8-40,3.5-72.1c1.8,32.1,3.6,72.1,3.6,72.1a13.7,13.7,0,0,0,2,1.3A11.6,11.6,0,0,0,1298.4,851.9Z"/><path class="cls-13" d="M1509,585.9s-21-4.2-27.7-6.3c-2.8-.9-5.9-2.1-6.6-4.2a3.5,3.5,0,0,1,.2-3c.8-1.1,2.2-1.4,3.6-1.7,3.7-.6,20,.4,20,.4-1.9-1-4.7-2.8-4.6-4.2.2-3.4,19,3,20.8,10.8C1515.8,582.6,1513.6,585.9,1509,585.9Z"/><path class="cls-14" d="M1582.5,530.7c-9.4-.6-15.8,13.1-19.1,24.9s-6.5,24.4-7.6,37c-.6,6-.6,13.6,4.4,18s11.7,4,15.9.4,5.3-9.3,6.4-14.2a362.3,362.3,0,0,0,8-47.5C1591.2,542.7,1592.4,531.4,1582.5,530.7Z"/><path class="cls-14" d="M1541.4,605.9a354.1,354.1,0,0,1-31.4-17.4c-.2-5.2,1.9-11.6,5.8-15.3,5,1,10,2.3,15,3.7l20.1,5.9,9.5,2.6c7.4,2.1,14.6,3.8,19.1,10.8,2.5,3.8,2.1,7.6-.3,11.3a15.3,15.3,0,0,1-10,6.7,20.5,20.5,0,0,1-4.3.1c-4.2-.4-7.8-2.1-11.8-3.4A85.7,85.7,0,0,1,1541.4,605.9Z"/><path d="M1605.6,855.7a9.4,9.4,0,0,1-2.4,8.5c-17.2,0-35,1.5-52.2,0-4.5-.4-5-5.2-1.5-8.1s11.3-5.3,16.9-6.3c8.9-1.6,17.6-4.1,26.4-6.1,3.1-.7,7.5-1.2,9,2A51.8,51.8,0,0,1,1605.6,855.7Z"/><path class="cls-15" d="M1618,636.2l-1.8,28.2v.2l-.4,7-1.3,20.6v.6l-2.3,35.9-5.8,83.8-1.7,24.7-.6,8.4a14.4,14.4,0,0,1-4.3,2.1,24.7,24.7,0,0,1-13.7-.4,21.3,21.3,0,0,1-5.9-2.7c-1.9-32-7.5-65.6-9.1-97.4-1.1-20.7-1.7-47.1-2-73.7h0c-.1-2.5-.1-4.9-.1-7.3s-.1-6-.1-8.9v-3.9c0-5.8-.1-11.6-.1-17.2Z"/><path class="cls-16" d="M1618,636.2l-5.9,92.5L1604,845.6a14.4,14.4,0,0,1-4.3,2.1,24.7,24.7,0,0,1-13.7-.4c.2-.2.5-.4.6-.7,8.4-28.5,14.1-77.3,12.4-210Z"/><path d="M1635.8,855.7a9.1,9.1,0,0,1-2.4,8.5c-17.2,0-35,1.5-52.1,0-4.5-.4-5.1-5.2-1.6-8.1s11.3-5.3,17-6.3c8.9-1.6,17.5-4.1,26.3-6.1,3.2-.7,7.5-1.2,9,2A46,46,0,0,1,1635.8,855.7Z"/><path class="cls-15" d="M1648.2,636.2s-.8,11.5-2.1,27.9v.2c-.6,8-1.3,17.1-2,26.6-1,12.4-2,25.5-2.9,37.6-.4,5.6-.8,11-1.2,16.1-2.2,29.2-5.7,101-5.7,101a13.8,13.8,0,0,1-4.4,2.1,25.6,25.6,0,0,1-19.6-3.1s-.3-2.8-.9-7.4-1.9-14.6-3.1-24.7c-2.2-19.3-4.9-43.5-6-60.6-1.5-22-3.3-106.6-3.7-115.7Z"/><path class="cls-16" d="M1648.2,636.2s-.8,11.5-2.1,27.9v.2a120.3,120.3,0,0,1-19,.6l-9.1-.3-1.8-.2c-6.1-.4-12.1-1-18.2-1.8-2.5-.4-20.3-3.4-29.2-9.2,0-5.8-.1-11.6-.1-17.2Z"/><path class="cls-3" d="M1652,651.1c-26.5,5.7-62.4,4.5-86.7-2.5.6-5.3,1-10.6,1.3-15.9,1.7-26.3,1.2-52.7,3.2-78.9.6-7.8,1.3-15.8,6.7-20.9s11.6-5.3,16.7-7c11-3.8,22.8-3.1,34.2-1.5,7.4,1.1,20.3,3.8,23.3,9.5a18.9,18.9,0,0,1,2,6.8c.8,6.6-.9,13.7-1.5,20-.7,9.5-1.8,19-2.3,28.6C1648,609.6,1649.7,630.9,1652,651.1Z"/><path class="cls-14" d="M1652,651.1c-26.5,5.7-62.4,4.5-86.7-2.5.6-5.3,1-10.6,1.3-15.9l5.2,2.9a57.2,57.2,0,0,0,12.8,4.5,46.2,46.2,0,0,0,29.7-4.2c19.6-10.3,24.5-31.4,27.8-51.5,2.6-16.1,5.8-32.1,9.6-47.9.3,1.4.7,2.8,1,4.2.8,6.6-.9,13.7-1.5,20-.7,9.5-1.8,19-2.3,28.6C1648,609.6,1649.7,630.9,1652,651.1Z"/><path class="cls-13" d="M1626,524.2c-2.5,5.7-10.4,7.8-14.2,7.6-6.5-.5-9.9-3.9-9.6-8.1a8.9,8.9,0,0,0,3.7-5.7,15.8,15.8,0,0,0,.5-2.5,70.6,70.6,0,0,0,.1-13h15.7V510c0,1.8.1,3.5.1,4.6v1C1622.8,520.2,1623.7,522.3,1626,524.2Z"/><path class="cls-17" d="M1622.3,514.6c-5,3.1-11.5,3.8-16.4,3.4a15.8,15.8,0,0,0,.5-2.5,70.6,70.6,0,0,0,.1-13h15.7V510C1622.2,511.8,1622.3,513.5,1622.3,514.6Z"/><path class="cls-13" d="M1590.2,499.2c.6,4.9,1.9,10.1,5.4,13.7,6.2,6.3,17.3,5.1,23.9-.7s9.4-14.7,10.3-23.4c1.5-14.3-5.7-24.4-20.3-24.7-8.3-.1-14.5,1.5-17.3,9.5S1589,490,1590.2,499.2Z"/><path class="cls-18" d="M1622.3,509.3l6.8-6.2a80.8,80.8,0,0,0,6-5.7,29,29,0,0,0,6.7-12.1,19.6,19.6,0,0,0-1.4-13.7,13,13,0,0,0-5.1-5.3,9.1,9.1,0,0,0-7.4-.5c.8-3.2.6-7-1.6-9.4s-6.8-3.3-10.7-3.1-7.8.8-11.2-.8-4-2.8-6.2-3.6a9.2,9.2,0,0,0-4-.5,14.1,14.1,0,0,0-11.2,8.3,17.2,17.2,0,0,0,.5,14.2,10.8,10.8,0,0,0,4,4.7c2.6,1.5,5.9,1.4,8.8.9s5.9-1.5,9-1.6a14.3,14.3,0,0,1,10,4.1,14.7,14.7,0,0,1,4.5,9.9c.9-2.5,3.6-5.3,6.4-2.9,1.1.9,1.2,2.3,1.2,3.7a8.1,8.1,0,0,1-1.2,4c-.7,1.3-1.5,2.4-2.2,3.7s-.8,3.3-.8,5.3A21.9,21.9,0,0,1,1622.3,509.3Z"/><path class="cls-3" d="M1693.1,604.9a20.5,20.5,0,0,1-6.6-1.6l-4.1-2c-1.4-.7-2.7-1.6-4-2.4a89.1,89.1,0,0,1-13.9-11.3c-5.5-5.2-10.7-10.7-15.8-16.3a98.3,98.3,0,0,1-9.3-11,30.9,30.9,0,0,1-3.6-7c-2.2-6.5-2.5-14.3,1-19.7s8.9-5.3,14.2-1.8a118.7,118.7,0,0,1,15.7,12.6,216,216,0,0,1,28.6,32.4c2.9,4.1,5.8,8.5,7,13.4.2.7.3,1.4.5,2.2C1704.1,601.5,1699.2,605.1,1693.1,604.9Z"/><path class="cls-14" d="M1693.1,604.9a20.5,20.5,0,0,1-6.6-1.6l-4.1-2c-1.4-.7-2.7-1.6-4-2.4a89.1,89.1,0,0,1-13.9-11.3c-5.5-5.2-10.7-10.7-15.8-16.3a98.3,98.3,0,0,1-9.3-11c.1,0,.1.1.2.2,4.6,3.4,8.8,7.6,13.1,11.4s10.5,9.7,15.8,14.6c2.2,2.1,4.6,3.8,6.8,6a49.9,49.9,0,0,0,7.6,6.9,16.1,16.1,0,0,0,3,2.1A33.8,33.8,0,0,0,1693.1,604.9Z"/><path class="cls-19" d="M1602.3,523.6a84,84,0,0,0-13.6,3.4s-.9,10,12.5,14.7l6.4-10.9S1601.7,527.9,1602.3,523.6Z"/><path class="cls-19" d="M1625.3,523.4l13.1,2.8s-7.4,16.3-28.1,17.6l-2.7-13S1620.4,531.5,1625.3,523.4Z"/><path class="cls-3" d="M1702.7,599.6a5.9,5.9,0,0,1-.2,1.3c-2.5,9.8-10.6,16.9-18.5,23s-19.2,14.2-29.3,20.6c-4.8-2.1-9.6-6.8-11.3-11.9l2.3-3c2.5-3,5-6,7.7-8.9,4.6-5.2,9.4-10.3,14-15.5l9.5-10.8,1.2-1.3a38.3,38.3,0,0,1,2.8-2.9l.5-.4a21.6,21.6,0,0,1,6.3-3.5h0a21.3,21.3,0,0,1,4.2-1,10.7,10.7,0,0,1,6.8,1.5C1702.6,589.1,1703.5,595,1702.7,599.6Z"/><path class="cls-14" d="M1687.7,586.3c-4.4,3.1-8,7.2-11.4,11.4-5.1,6.1-10.1,12-15.7,17.6s-9.8,9.7-14.9,14.3c2.5-3,5-6,7.7-8.9,4.6-5.2,9.4-10.3,14-15.5l9.5-10.8,1.2-1.3a38.3,38.3,0,0,1,2.8-2.9l.5-.4A21.6,21.6,0,0,1,1687.7,586.3Z"/><path class="cls-14" d="M1681.6,587.3a14.1,14.1,0,0,0-5.9,8.9A105.5,105.5,0,0,0,1681.6,587.3Z"/><path class="cls-13" d="M1652.5,646.7a5.4,5.4,0,0,0,3.1-3,9.5,9.5,0,0,0,1-4.7,16.8,16.8,0,0,0-1.3-7,9,9,0,0,0-4-4.8c-2.2-1.2-5.6.1-7.7.8-4,1.4-7.6,4.6-7.2,8.9s2.9,6.2,5.8,7.9,6.8,2.9,9.8,2.1Z"/><path class="cls-13" d="M1647,626.5c-.1,0-.1-.1-.1-.2-1.3-1.9-.7-4.6.7-6.4a5.5,5.5,0,0,1,1.7-1.3,1.8,1.8,0,0,1,1.9.5,3.6,3.6,0,0,1,.4.9c.3,1.5-.3,3,0,4.4s3.1,5.2,1.4,8.1-3.6,1.8-4.4,0,.2-3.2-.7-4.7Z"/><rect class="cls-20" x="922.5" y="863.4" width="885.8" height="5.62" rx="2.8"/><rect class="cls-7" x="1467.8" y="404.1" width="90.6" height="51.06" rx="12.8"/><path class="cls-7" d="M1545,452.2a38.3,38.3,0,0,0,2.7,12.4,2.6,2.6,0,0,1-3.6,3.2,46,46,0,0,1-16.7-15.8Z"/><circle class="cls-3" cx="1494.3" cy="429.7" r="4.6"/><circle class="cls-3" cx="1513.1" cy="429.7" r="4.6"/><circle class="cls-3" cx="1532" cy="429.7" r="4.6"/><rect class="cls-7" x="1160.2" y="365.6" width="90.6" height="51.06" rx="12.8" transform="translate(2411 782.3) rotate(-180)"/><path class="cls-7" d="M1173.6,413.7a38.3,38.3,0,0,1-2.7,12.4,2.6,2.6,0,0,0,3.7,3.2,47.4,47.4,0,0,0,16.6-15.8Z"/><circle class="cls-3" cx="1224.3" cy="391.1" r="4.6"/><circle class="cls-3" cx="1205.5" cy="391.1" r="4.6"/><circle class="cls-3" cx="1186.7" cy="391.1" r="4.6"/><path class="cls-21" d="M1189.6,586.3c1,2.5,2.3,4.9,2.4,7.6.4,7.6-7.3,11.5-13.6,8-3-1.6-5.3-4.3-7.4-7-9.3-11.8-17.1-24.7-24.3-37.8-3.1-5.7-6.2-11.9-5.2-18.2a15.8,15.8,0,0,1,8.6-11c4.7-2.2,9.9,1.3,12.4,4.9C1162.8,533.3,1181,563.5,1189.6,586.3Z"/><line class="cls-22" x1="1361.1" y1="363.4" x2="1435.3" y2="363.4"/><line class="cls-22" x1="1361.1" y1="375" x2="1435.3" y2="375"/><line class="cls-22" x1="1361.1" y1="386.5" x2="1394.2" y2="386.5"/><line class="cls-22" x1="1211.7" y1="482.8" x2="1285.9" y2="482.8"/><line class="cls-22" x1="1211.7" y1="494.4" x2="1285.9" y2="494.4"/><line class="cls-22" x1="1211.7" y1="505.9" x2="1244.8" y2="505.9"/><path class="cls-23" d="M1142.7,471.3c-5.5,9.8-1.9,22.1-2.7,32.8-.3,4.2-.8,8.4-1.2,12.5-.1,1.7.6,11.3.6,11.3h22.9a8.5,8.5,0,0,0,3.2-9.7c-.5-1.6-1.7-3.1-1.7-4.8a7.7,7.7,0,0,1,1.2-3.6c2.4-4.1,5.9-8.4,4.7-13s-3.8-5.5-5.4-8.4-.5-7.8-.3-11.9-1.8-9.2-5.9-11.1a11.6,11.6,0,0,0-4.5-1.2c-4.1-.2-7.9,2.5-10.2,5.9Z"/><path class="cls-24" d="M1132.8,531.8c-3.8.2-11.7-1.9-14.3-7.6,2.2-1.7,3.1-3.7,3.6-7.6,0-.3.1-.6.1-1v-1c.1-1.1.1-2.8.1-4.6v-7.5h15.8a70.6,70.6,0,0,0,0,13,18.4,18.4,0,0,0,.5,2.5,5.8,5.8,0,0,0,.5,1.4,8.4,8.4,0,0,0,3.2,4.3C1142.6,527.9,1139.2,531.3,1132.8,531.8Z"/><path class="cls-25" d="M1139.1,519.4c-4.9.5-11.4.4-17-2.8,0-.3.1-.6.1-1v-1c.1-1.1.1-2.8.1-4.6v-7.5h15.8a70.6,70.6,0,0,0,0,13,18.4,18.4,0,0,0,.5,2.5A5.8,5.8,0,0,0,1139.1,519.4Z"/><path class="cls-24" d="M1154.4,499.2c-.6,4.9-2,10.1-5.5,13.7-6.1,6.3-17.2,5.1-23.8-.7s-9.4-14.7-10.4-23.4c-1.5-14.3,5.7-24.4,20.3-24.7,8.3-.1,14.5,1.5,17.3,9.5S1155.5,490,1154.4,499.2Z"/><path class="cls-24" d="M1135,845.3c1.2,3.3,3.2,7.8,1.3,11.2a9.9,9.9,0,0,1-7.6,4.9,9.7,9.7,0,0,1-9.2-5.9c-1.1-2.6-1.1-5.6-1.1-8.4,0-7.1.2-13.8-.6-20.8a11.5,11.5,0,0,1-.1-2.6c.7-3.9,5.7-4.7,8.6-2.7a8.4,8.4,0,0,1,2.9,4.4c1.1,3.3,1.5,6.7,2.5,10.1S1133.8,842.1,1135,845.3Z"/><path class="cls-3" d="M1173,579.9c-2.4,2.8-6.7,4.6-9.6,6.9-1.2,8-3.9,21.2-5.5,30.9-11.2,7-36.9,6.7-47.5-1-3.4-14.2-6.7-26.2-10.2-39.5-1.8-6.6-3.5-13.3-5.1-20s-3.9-12.3-3.3-18.3a14.1,14.1,0,0,1,4.2-9.3c3-2.8,7.2-3.8,11.2-4.7l4.4-.8a121.6,121.6,0,0,1,30.7-.4c2,.3,3.8.5,5.6.9,6.6,1.4,11.5,4.2,15.3,11.6a125,125,0,0,1,9.2,22.8C1174.2,564.9,1177.7,574.5,1173,579.9Z"/><path class="cls-24" d="M1129.4,733.2a6.2,6.2,0,0,0-.1,1.3c-.7,16.2,1.6,21.3,2.1,37.5s-2.3,41-2,56c.1,3.7-1.9,6.8-5.9,5.3s-4.6-5.8-5.9-9.3c-6-16.1-12.2-31.5-12.5-49,0-4.2.2-8.5.5-12.7l1.3-24c.3-5.1.7-10.3,3.3-14.7s10.3-9.6,15.6-4.9C1129.6,721.9,1129.5,728.7,1129.4,733.2Z"/><path class="cls-26" d="M1134.2,842.8c.1,2.7-1.6,8.1-6.8,8.5s-8.4-5.6-9-7.7c-2.3,5.1-5.1,12.3-2.6,19.8h22.7C1140.6,856.6,1138,848.7,1134.2,842.8Z"/><path class="cls-24" d="M1215.6,857.4c1.6,1.3,2.9,3.1.7,4.1s-4.7.9-6.8.8-6-.2-8.9-.3-5.7-.4-8.1-1.7-4.1-4.2-5.9-6.4a21.1,21.1,0,0,0-9-6.3,8.5,8.5,0,0,1-2.6-1.1,6.5,6.5,0,0,1-2.5-3.7,11.7,11.7,0,0,1,.2-6.7,15.8,15.8,0,0,0,.9-4.2,13.2,13.2,0,0,0-.9-4.3c-1-3.3-1.8-7.3,1.4-9.7a5.7,5.7,0,0,1,3.7-1.2c2.4.2,3.6,2.4,4.6,4.4,1.9,4.1,3.4,8.3,5.3,12.3a42.2,42.2,0,0,0,6,9.1,35.2,35.2,0,0,0,8.6,7.7c3.6,2.1,7.5,3.7,11.2,5.7Z"/><path class="cls-26" d="M1227.4,863.4h-36.7a58,58,0,0,0-14.2-14.2c-.4,1.6-1.4,14.2-1.4,14.2h-2.6c-.1-2.2-.8-8.6-1.1-12.4s-1.8-7.9-1.7-11.5a10.8,10.8,0,0,1,4.4-8.5c4.4,5.5,8.8,10.9,13.4,16.2a28.7,28.7,0,0,0,2.9,3.1,18.9,18.9,0,0,0,16.8,4.4,4.3,4.3,0,0,0,2.6-1.3C1212.8,854.1,1222.3,857.7,1227.4,863.4Z"/><path class="cls-24" d="M1167.8,731.6c0,.4.1.9.1,1.3,2,16,3.2,32.2,5.5,48.2s7,29.3,9.8,44c.7,3.6-.8,7-5,6.2s-6.6-4.9-8.2-8.1L1159.7,803c-7.2-14.3-14.6-29.3-14.1-45.2.3-7.8.8-15.6,1.6-23.3a75.4,75.4,0,0,1,1.9-9.9c1.3-5.9,6.9-10.5,12.8-6.8C1166.2,720.4,1167.2,727.1,1167.8,731.6Z"/><path class="cls-24" d="M1146.5,562.9c-4.7-11.2-22.4-31.1-34.9-38.8a93.3,93.3,0,0,1,30.7-.7c2,.3,3.8.8,5.6,1.2C1145.3,537.8,1146.2,549.6,1146.5,562.9Z"/><path class="cls-15" d="M1181.6,741.8c-10.4,6.5-28.8,9.2-47.6,8.7-14-.5-28.2-2.7-39.5-6.6,0-21.4.4-38.3-1-57.9-.9-12.7-3.6-27.1-.8-39.5,3.7-16.3,16.1-36.5,16.1-36.5a36.2,36.2,0,0,0,4.3,2.4c18.2,8.8,44.8,5.4,46.2-2.6C1171.4,658.1,1174.9,692.5,1181.6,741.8Z"/><path class="cls-16" d="M1094.5,743.9c0-21.4.4-38.3-1-57.9-.9-12.7-3.6-27.1-.8-39.5,3.7-16.3,16.1-36.5,16.1-36.5a36.2,36.2,0,0,0,4.3,2.4,137.2,137.2,0,0,0-14.3,62c.1,12.5,3.4,24.2,4.7,36.4s5.7,22.6,14.4,30.9a40.4,40.4,0,0,0,16.1,8.8C1120,750,1105.8,747.8,1094.5,743.9Z"/><path class="cls-23" d="M1161.1,470.9a9.8,9.8,0,0,1-4.1,4.7c-2.6,1.5-5.8,1.4-8.8.9s-5.9-1.5-8.9-1.6a14.7,14.7,0,0,0-10.1,4.1,14.2,14.2,0,0,0-4.4,9.9c-1-2.5-3.7-5.3-6.5-2.9s1.6,10,3.6,13a9.2,9.2,0,0,1,2.1,6.1c-.1,2.1-1.3,4.2-.6,6.3s2,2.5,3.1,3.8c4.9,5.8.7,12.7.7,12.7h-9.1a6.9,6.9,0,0,1-1.3-2,7.5,7.5,0,0,1-.1-5.7,8.7,8.7,0,0,0-3.9,4.7,8.6,8.6,0,0,0-.5,3h-17c-1.4-2.3-.6-6.5,1.1-8.6s4-3.7,5.6-5.8a3.7,3.7,0,0,0,.8-1.5c.1-1.6-1.7-2.5-3-3.4a8.2,8.2,0,0,1-3-7.4,11.7,11.7,0,0,1,3.7-7.3,18.2,18.2,0,0,0,3.1-3.1,4.3,4.3,0,0,0,.5-4.2,9.6,9.6,0,0,0-1.7-1.8c-3.5-3.9-.2-9.5,1.8-13.2a12.2,12.2,0,0,1,5-5.3,9.1,9.1,0,0,1,7.4-.5c-.8-3.2-.6-7,1.7-9.4,4.5-5.1,10.8-2.1,16.2-1.3s9.9-1.8,15-1.5a13.4,13.4,0,0,1,10.1,5.5A12.3,12.3,0,0,1,1161.1,470.9Z"/><path class="cls-3" d="M1055.7,579c-1.4,2.3-3.1,4.5-3.8,7.1-1.8,7.4,5,12.7,11.8,10.5,3.3-1.1,6.1-3.3,8.7-5.6a280.2,280.2,0,0,0,31.1-32.4c4.1-4.9,8.3-10.5,8.5-16.9a15,15,0,0,0-6.4-12.3c-4.1-3.1-10-.7-13.1,2.4C1092.1,532.2,1068.6,558.3,1055.7,579Z"/><path class="cls-24" d="M1093.4,625.3l-.5,1a16.9,16.9,0,0,0-3.1,9.7,112.2,112.2,0,0,0,0,11.6c0,.5.1,1.1.5,1.3a1.3,1.3,0,0,0,1.3-.3c2.7-1.8,3.3-4.4,4.1-7.4a34.2,34.2,0,0,1,9.6-16.8q-1,3.5-1.8,6.9a1.7,1.7,0,0,0,.1,1,1,1,0,0,0,1.2.4,2.8,2.8,0,0,0,1.1-.8,19.7,19.7,0,0,0,5.3-14.2,10.9,10.9,0,0,0-1-4.8,5.2,5.2,0,0,0-3.6-2.9c-2.9-.2-6,4.5-7.5,6.5A101.7,101.7,0,0,0,1093.4,625.3Z"/><path class="cls-3" d="M1069.7,579.4c-3.9-2.2-10.5-2.5-14.3.6a16.7,16.7,0,0,0-3.5,5.5c-3.4,11.4,8.6,16.4,17.4,20.7,11,5.4,17.1,8.1,27.6,12.3,3-.7,9.7-6.4,9.1-10C1098.5,603,1075.6,582.6,1069.7,579.4Z"/><path class="cls-24" d="M1249.2,574.5h1.1a33.7,33.7,0,0,0,8.9-1.9,36.9,36.9,0,0,0,8.2-4.1c1.3-1,4.9-4.9,1.8-6s-17.8,2.1-27.6,2.9l3.6-1.3a16.4,16.4,0,0,0,3.3-1.4c1.6-1.1-.4-2-1.5-2.1a15.9,15.9,0,0,0-3.8.2,43.6,43.6,0,0,0-10.7,3,10.8,10.8,0,0,0-4.3,3c-1.4,2-1.4,5.4.8,6.8a12.8,12.8,0,0,0,5.1,1.3c1.6.2,3.1.1,4.7.2A90.5,90.5,0,0,0,1249.2,574.5Z"/><path class="cls-21" d="M1180,582.1c-3.9,2.3-7.4,7.9-6.7,12.7a19.1,19.1,0,0,0,3.1,5.8c8.1,8.6,18.4.8,26.6-4.7,10.1-6.8,19.9-12.1,28.7-19.1.9-3-.7-11.6-4-12.9C1219.1,567.6,1185.6,578.6,1180,582.1Z"/><path class="cls-15" d="M1424.1,636.2c-.1,2.3-.3,9.5-.5,19.3-.7,29-1.9,80.9-2.9,97.5s-3.5,41.8-5.6,61.3c-1.1,10.2-2.2,19-2.8,24.9s-.9,7.5-.9,7.5a21.6,21.6,0,0,1-18.2,3.1,9.6,9.6,0,0,1-4-2.1s-1.9-41.1-3.7-74c-.6-10.8-1.1-20.7-1.6-28-.4-5.1-.8-10.6-1.2-16.3-.8-12.2-1.7-25.4-2.6-37.9-.7-9.6-1.3-18.8-1.9-26.9v-.2c-.2-3.5-.5-6.8-.7-9.9-.7-11.1-1.3-18.3-1.3-18.3Z"/><path class="cls-15" d="M1394.8,636.2s-.5,8-1.4,20.1c-.2,2.5-.4,5.3-.6,8.1v.2c-.6,8.1-1.2,17.3-1.9,26.9-.8,12.5-1.8,25.7-2.6,37.9-.4,5.7-.8,11.2-1.1,16.3-.5,7.3-1.1,17.2-1.7,28-1.8,32.9-3.6,74-3.6,74a10,10,0,0,1-4.1,2.1,21.4,21.4,0,0,1-18.1-3.1s-.4-2.8-.9-7.5-1.7-14.7-2.8-24.9c-2.1-19.5-4.6-43.9-5.6-61.3s-2.5-80.4-3.2-106.2c-.1-5.3-.2-9-.3-10.6Z"/><path class="cls-16" d="M1424.1,636.2c-.1,2.3-.3,9.5-.5,19.3a89.1,89.1,0,0,1-21.3,1.3l-8.9-.5q-8-.6-15.9-1.8l-9.1-1.5a161.8,161.8,0,0,1-21.2-6.2c-.1-5.3-.2-9-.3-10.6Z"/><path d="M1424.5,639.5a318.9,318.9,0,0,1-78.1,0c-.3,1.8-.6,6.7.3,7.4a299.3,299.3,0,0,0,77.4.1C1425.4,645.6,1424.8,641.9,1424.5,639.5Z"/><rect class="cls-27" x="1378.1" y="640.1" width="14.8" height="11.13" rx="1.9"/><line class="cls-28" x1="1392.9" y1="645.7" x2="1387.8" y2="645.7"/><rect class="cls-13" x="1376.8" y="509" width="17.3" height="22.69"/><path class="cls-17" d="M1394.1,509v13.7c-2.7.9-13.4.3-17.3-4.8V509Z"/><path class="cls-13" d="M1385.5,525s-37.9,2.7-39.1,31.1v66.6h78.1V556.1C1423.8,526.4,1385.5,525,1385.5,525Z"/><path class="cls-19" d="M1466.4,582.1a25.8,25.8,0,0,1,3.6,7c2.3,7.4-4.3,13.2-11.5,11.4-3.5-.9-6.4-3-9.3-5.1-12.2-9.2-23.3-19.9-33.8-31-4.5-4.7-9.2-10-9.7-16.5a15,15,0,0,1,5.7-12.9c4.1-3.4,10.2-1.3,13.6,1.6C1425.5,537,1452,561.9,1466.4,582.1Z"/><path class="cls-19" d="M1426.8,632.4a27,27,0,0,1-.4,2.8h0a8.7,8.7,0,0,1-2,4.2l-.8.7a9,9,0,0,1-3.2,1.3c-5.7,1.6-11.7,2-17.6,2.8a112.9,112.9,0,0,1-15.4,1.3h-.4a147.2,147.2,0,0,1-22-1.7c-5.7-.9-16.4-.8-18.7-7.4-.1-.2-.1-.4-.2-.6a26.1,26.1,0,0,1-.3-7.4c1.8-25.6-.8-47.7-2.4-73.3-.3-7,.4-17.1,6.8-21,3.3-2,9.4-3.5,12.9-4.9s9.9-2.9,9.9-2.9c6.8,5.8,21.8,4.2,24.8-.1,4.7,1,17.1,5,21,7.3,6.8,4.2,5.7,14,6,23.3s.2,12.6.5,21.3l1.2,26.6C1427,614,1427.9,623,1426.8,632.4Z"/><path d="M1387.9,530.1h-4.3a2,2,0,0,0-2,2.5l.8,3.9a2,2,0,0,0,2,1.6h2.5a1.9,1.9,0,0,0,1.9-1.5l1.1-3.9A2.1,2.1,0,0,0,1387.9,530.1Z"/><path class="cls-29" d="M1397.2,508.5a17.2,17.2,0,0,0,5.8-3.8,17.7,17.7,0,0,0,2.9-5,63.8,63.8,0,0,0,4.2-33.2,33.4,33.4,0,0,0-1-4.3,17.2,17.2,0,0,0-10.7-11,23.7,23.7,0,0,0-28.8,11.5c-2.1,0-4.7.1-6.4,1.4a9.3,9.3,0,0,0-3.1,4.2,18.9,18.9,0,0,0-.9,8.2c.5,6.6,3,12.9,6.3,18.6a36.7,36.7,0,0,0,8.7,10.5A22.5,22.5,0,0,0,1397.2,508.5Z"/><path class="cls-13" d="M1407.3,480.1v-.5a4.1,4.1,0,0,0-.1-1.1,16,16,0,0,0-.5-2.1,13.4,13.4,0,0,0-1.7-4l-1.2-1.8-1.5-1.6-1.6-1.5-1.8-1.2-2-1.1-2.1-.9-2.2-.6a19.7,19.7,0,0,0-2.4-.3h-6.3a22.2,22.2,0,0,0-5.7.7,20.5,20.5,0,0,0-5.4,2.5,17.9,17.9,0,0,0-4.3,3.9,16.5,16.5,0,0,0-2.8,5,14.4,14.4,0,0,0-.9,4c0,2.1-.1,4.2,0,6.3s.1,2.7.2,4a69.9,69.9,0,0,0,1,8,51.2,51.2,0,0,0,2,7.7,27.1,27.1,0,0,0,2,4.2c3.2,5.3,9.5,8.5,16,8.6s12.8-3.3,16-8.6a20,20,0,0,0,1.9-4.2c.4-.9.7-1.9,1-2.8s.5-2,.7-2.9l.6-3c.1-1,.3-2,.4-3l.3-2.9c.1-1,.1-2,.2-3s.1-2,.2-3,0-2,.1-3v-.9A2.5,2.5,0,0,1,1407.3,480.1Z"/><path class="cls-29" d="M1382.5,458.2a20.5,20.5,0,0,1,7.8-1c5.7.2,11.5,2.8,14.8,7.7,2.1,3,2.9,6.9.2,9.7a12.6,12.6,0,0,1-9.2,3.4c-5.9-.2-11.1-3.6-15.4-7.3a16.8,16.8,0,0,0-4.8-3.2,6.3,6.3,0,0,0-5.2.1,11.9,11.9,0,0,0-6.1,6.4,23.5,23.5,0,0,1,8.4-11.2A36.3,36.3,0,0,1,1382.5,458.2Z"/><path class="cls-13" d="M1360.7,497.1a8,8,0,0,1-.4-7.2,3.9,3.9,0,0,1,1.4-1.7,3.5,3.5,0,0,1,3.9.5,7.2,7.2,0,0,1,2.2,3.5,18.7,18.7,0,0,1,1.2,5.2,8.2,8.2,0,0,1-.3,3.1C1366.9,504.8,1361.8,499.3,1360.7,497.1Z"/><path class="cls-13" d="M1411.3,497.1a8,8,0,0,0,.4-7.2,4.7,4.7,0,0,0-1.4-1.7,3.5,3.5,0,0,0-3.9.5,8.2,8.2,0,0,0-2.3,3.5,18.6,18.6,0,0,0-1.1,5.2,6.6,6.6,0,0,0,.3,3.1C1405,504.8,1410.1,499.3,1411.3,497.1Z"/><path class="cls-30" d="M1397.5,525.5a62.3,62.3,0,0,1,13.5,5.2s-6.8,2.7-19.8,10.5l-5.7-11.4S1393.8,530.4,1397.5,525.5Z"/><path class="cls-30" d="M1373.7,525.5a102.1,102.1,0,0,0-14,4.4s7.7,3.8,20.3,11.3l5.7-11.4S1377.4,530.4,1373.7,525.5Z"/><path class="cls-30" d="M1385.7,543c.2,8.3.3,16.6.4,24.9v62.2l-.3,12.4-.2-12.4-.2-12.5V592.7l.2-24.8Q1385.4,555.5,1385.7,543Z"/><path class="cls-30" d="M1426.4,635.2a8.7,8.7,0,0,1-2,4.2l-.8.7a9,9,0,0,1-3.2,1.3c-5.7,1.6-11.7,2-17.6,2.8a112.9,112.9,0,0,1-15.4,1.3h-.4a147.2,147.2,0,0,1-22-1.7c-5.7-.9-16.4-.8-18.7-7.4-.1-.2-.1-.4-.2-.6a7.5,7.5,0,0,0,4,1.9,25.7,25.7,0,0,1-1.2-9.1c.3-3.1,1.8-6.2,4.6-7.6a19.8,19.8,0,0,0,8.2,18.4c.1-1.1.8-2.4,1.9-2.5a3.6,3.6,0,0,1,2.6,1.4c7.3,7.4,20.3,8.1,28.4,1.6,2.7-2.1,4.8-4.9,7.5-6.9l1.1-.5c.9,0,1.5,1,1.5,1.9a24.8,24.8,0,0,0-.3,2.7,3.8,3.8,0,0,0,3.1,3.2,7.3,7.3,0,0,0,4.6-.8,14.2,14.2,0,0,0,7.2-8.4c.8-2.3,1.4-5.4,3.8-6,0,4,.1,8,.5,12A4.5,4.5,0,0,0,1426.4,635.2Z"/><polyline points="1387.8 536.4 1392.9 607.4 1385.7 626.4 1378.1 607.4 1383.6 536.4"/><polygon class="cls-16" points="1385.5 773.7 1382.9 695.9 1390.5 699.9 1385.5 773.7"/><path class="cls-19" d="M1303.2,582.1a23.3,23.3,0,0,0-3.6,7c-2.3,7.4,4.3,13.2,11.5,11.4,3.5-.9,6.4-3,9.2-5.1,12.3-9.2,23.4-19.9,33.9-31,4.5-4.7,9.2-10,9.7-16.5a15.2,15.2,0,0,0-5.7-12.9c-4.1-3.4-7.7-2.6-13.1,1.7C1344.6,537,1317.6,561.9,1303.2,582.1Z"/><path class="cls-19" d="M1345.9,629.9c-.7,4.6-2.2,9.5-5.1,10.2,0,0-28.3-24.9-32.8-29.6s-10.4-12.8-8.3-21.8c.7-3.3,2.8-6.4,5.9-7.4,6.1-2,11.8,3.8,16.3,9.3,1.8,2.2,3.4,4.3,4.8,5.9,3.6,4.3,17.7,23.9,19.6,27.3A48.8,48.8,0,0,1,1345.9,629.9Z"/><path class="cls-30" d="M1345.9,629.9c-.1-.2-.2-.3-.2-.5-1-2.4-2.3-4.8-3.6-7.2-2.7-4.6-5.9-8.9-8.8-13.4-5.1-7.9-10.5-15.7-17.5-22a30.9,30.9,0,0,1,6.6,4.8,9.3,9.3,0,0,1-.5-1c1.8,2.2,3.4,4.3,4.8,5.9,3.6,4.3,17.7,23.9,19.6,27.3A48.8,48.8,0,0,1,1345.9,629.9Z"/><path class="cls-30" d="M1318.3,585.9a12.7,12.7,0,0,1,4,4c.8,1.5,1.1,3.2,1.8,4.8-.3-.7-1-1.4-1.3-2.1l-1.3-2.4A34.3,34.3,0,0,0,1318.3,585.9Z"/><path class="cls-19" d="M1442.9,596.5c4.8-5.6,12.5-18,21.1-15.2,3.1,1,5.2,4.1,5.9,7.4,2.1,9-2.5,15.7-8.3,21.8s-32.9,29.6-32.9,29.6c-4.2-1.1-5.6-11.5-5.4-16.3C1425.2,620.4,1439.3,600.8,1442.9,596.5Z"/><path class="cls-30" d="M1423.7,629.9c.1-.2.2-.3.2-.5,1-2.4,2.3-4.8,3.6-7.2,2.7-4.6,5.9-8.9,8.8-13.4,5.1-7.9,10.5-15.7,17.5-22a28.6,28.6,0,0,0-6.6,4.8,9.3,9.3,0,0,1,.5-1c-1.8,2.2-3.4,4.3-4.8,5.9-3.6,4.3-17.7,23.9-19.6,27.3A35,35,0,0,0,1423.7,629.9Z"/><path class="cls-30" d="M1451.3,585.9a12.7,12.7,0,0,0-4,4c-.8,1.5-1.1,3.2-1.8,4.8.3-.7,1-1.4,1.3-2.1s.8-1.6,1.3-2.4A34.3,34.3,0,0,1,1451.3,585.9Z"/><path class="cls-13" d="M1430.1,642.6a6.7,6.7,0,0,0,3.2-3,13.3,13.3,0,0,0,1-4.8,18.6,18.6,0,0,0-1.4-7,9.6,9.6,0,0,0-3.9-4.8c-2.2-1.2-5.6.2-7.8.9-4,1.3-7.6,4.5-7.2,8.9s2.9,6.2,5.9,7.8,6.7,3,9.7,2.1Z"/><path class="cls-13" d="M1424.6,622.4c0-.1-.1-.1-.1-.2-1.2-1.9-.7-4.6.7-6.4a3.6,3.6,0,0,1,1.7-1.3,1.9,1.9,0,0,1,2,.5,1.1,1.1,0,0,1,.3.8c.3,1.5-.3,3,0,4.5s3.1,5.2,1.4,8-3.6,1.8-4.4,0,.2-3.2-.7-4.7Z"/><path class="cls-13" d="M1340.9,642.6a6.9,6.9,0,0,1-3.1-3,11.5,11.5,0,0,1-1-4.8,18.5,18.5,0,0,1,1.3-7,10.4,10.4,0,0,1,4-4.8c2.2-1.2,5.6.2,7.8.9,3.9,1.3,7.6,4.5,7.2,8.9s-3,6.2-5.9,7.8-6.7,3-9.8,2.1Z"/><path class="cls-13" d="M1346.5,622.4c0-.1,0-.1.1-.2,1.2-1.9.6-4.6-.8-6.4a3.1,3.1,0,0,0-1.7-1.3,1.7,1.7,0,0,0-1.9.5,2,2,0,0,0-.4.8c-.2,1.5.3,3,0,4.5s-3.1,5.2-1.3,8,3.6,1.8,4.3,0-.1-3.2.8-4.7A9.4,9.4,0,0,1,1346.5,622.4Z"/><path d="M1371,846.4h-.2a14.5,14.5,0,0,0-8.2,2,18.8,18.8,0,0,0-4.4,4.5c-1.9,2.7-4.5,7.3-3.6,10.5h32.2c.2-3-2-7.8-4.2-11.4a.1.1,0,0,1-.1-.1,11.8,11.8,0,0,0-4.4-3.9A19.3,19.3,0,0,0,1371,846.4Z"/><path d="M1401.5,846.4h.2a14.5,14.5,0,0,1,8.2,2,18.8,18.8,0,0,1,4.4,4.5c1.9,2.7,4.5,7.3,3.6,10.5h-32.2c-.2-3,2-7.8,4.2-11.4h.2a10.5,10.5,0,0,1,4.4-3.9A18.4,18.4,0,0,1,1401.5,846.4Z"/></g></svg>