<?xml version="1.0" encoding="utf-8"?>
<!-- Generator: Adobe Illustrator 27.9.0, SVG Export Plug-In . SVG Version: 6.00 Build 0)  -->
<svg version="1.1" id="Illustration" xmlns="http://www.w3.org/2000/svg" xmlns:xlink="http://www.w3.org/1999/xlink" x="0px"
	 y="0px" viewBox="0 0 1920 1080" style="enable-background:new 0 0 1920 1080;" xml:space="preserve">
<style type="text/css">
	.st0{fill:#250D45;}
	.st1{clip-path:url(#SVGID_00000025405283310369885210000011730353779837222070_);}
	.st2{clip-path:url(#SVGID_00000056387983665352600480000003711019498573403066_);}
	.st3{fill:#FFFFFF;}
	.st4{fill:#973BFC;}
	.st5{fill-rule:evenodd;clip-rule:evenodd;fill:#A0A0A0;}
	.st6{fill:#A0A0A0;}
	.st7{font-family:'Monosten-Bold';}
	.st8{font-size:86px;}
	.st9{fill:#CBA6FF;}
	.st10{fill:#FDAB95;}
	.st11{fill:#E08065;}
	.st12{fill:#7324C9;}
	.st13{fill:#181829;}
	.st14{fill:#34344D;}
	.st15{fill:#23233B;}
	.st16{fill:#E9D9FF;}
	.st17{fill:#D8CFE0;}
	.st18{fill:none;stroke:#34344D;stroke-linecap:round;stroke-linejoin:round;}
	.st19{fill:#B35F47;}
	.st20{fill:#803C29;}
	.st21{fill:#F5EDFF;}
	.st22{fill:#4D342D;}
</style>
<rect id="Bg" class="st0" width="1920" height="1080"/>
<g id="Logo">
	<g>
		<defs>
			<rect id="SVGID_1_" x="78.3" y="65.8" width="353.3" height="91.3"/>
		</defs>
		<clipPath id="SVGID_00000096055602723466741350000014643140523167639958_">
			<use xlink:href="#SVGID_1_"  style="overflow:visible;"/>
		</clipPath>
		<g style="clip-path:url(#SVGID_00000096055602723466741350000014643140523167639958_);">
			<g>
				<defs>
					<rect id="SVGID_00000143604307631183974550000013980458396918533264_" x="78.3" y="65.8" width="353.3" height="91.3"/>
				</defs>
				<clipPath id="SVGID_00000078015961423551209950000008470963229886529692_">
					<use xlink:href="#SVGID_00000143604307631183974550000013980458396918533264_"  style="overflow:visible;"/>
				</clipPath>
				<g style="clip-path:url(#SVGID_00000078015961423551209950000008470963229886529692_);">
					<g>
						<path class="st3" d="M202,89.8c-0.1-1.2,0.8-2.3,2-2.4c1.2-0.1,2.3,0.8,2.4,2c0,0.1,0,0.3,0,0.4v0.5c0.3-0.9,0.8-1.8,1.6-2.4
							c0.9-0.7,2-1.1,3.1-1c3,0,4.9,1.2,5.6,3.4c0.3-1,1-1.8,1.8-2.4c1-0.7,2.2-1.1,3.4-1c4.1,0,6.1,2.5,6.1,6.6v15.8
							c0.1,1.2-0.8,2.3-2,2.4c-1.2,0.1-2.3-0.8-2.4-2c0-0.1,0-0.3,0-0.4V94.7c0-2.8-0.9-3.9-2.8-3.9c-2.4,0-3.6,2.2-3.6,6.6v12
							c0.1,1.2-0.8,2.3-2,2.4c-1.2,0.1-2.3-0.8-2.4-2c0-0.1,0-0.3,0-0.4V94.7c0-2.8-0.8-3.9-2.8-3.9c-2.4,0-3.7,2.4-3.6,7.2v11.4
							c0.1,1.2-0.8,2.3-2,2.4s-2.3-0.8-2.4-2c0-0.1,0-0.3,0-0.4L202,89.8L202,89.8L202,89.8z"/>
						<path class="st3" d="M255.2,104.6c-0.7,0-1.3,0.3-1.7,0.8c-1.7,2-4.1,3-7.3,3c-1.9,0.1-3.8-0.7-5.1-2c-1.3-1.3-2.2-3.1-2.4-5
							h16.8c1.2,0.1,2.3-0.8,2.5-2.1c0-0.1,0-0.3,0-0.4c0.1-3.2-1.1-6.2-3.3-8.5c-2.2-2.3-5.3-3.5-8.4-3.4c-3.7,0-6.6,1.2-8.8,3.6
							c-4.3,5.2-4.3,12.8,0,18.1c2.2,2.4,5.1,3.6,8.8,3.6c4.3,0,7.8-1.2,10.3-3.7c0.9-0.8,1-2.2,0.2-3.2c0,0,0,0,0,0
							C256.4,104.8,255.9,104.5,255.2,104.6L255.2,104.6L255.2,104.6z M241.2,92.8c1.4-1.3,3.2-2,5-1.9c1.8-0.1,3.4,0.6,4.7,1.8
							c1.2,1.3,2.1,3,2.5,4.8h-14.7C239,95.7,239.9,94,241.2,92.8"/>
						<path class="st3" d="M271.5,77.2c1.4,0,2.2,1,2.2,2.4v7.8h8.8c1.5,0,2.3,0.6,2.3,1.9s-0.8,1.9-2.3,1.9h-8.8V104
							c0,3,1.6,4.3,3.8,4.3c1.2,0.1,2.3-0.2,3.4-0.8l1.4-1c0.4-0.3,0.8-0.5,1.3-0.5c1.1,0,2,0.9,2,2v0.1c0,0.7-0.5,1.4-1.4,2.1
							c-2,1.4-4.4,2.1-6.9,2c-2.4,0-4.3-0.6-5.8-1.9s-2.2-3.2-2.2-5.9V91.4H263c-1.5,0-2.3-0.6-2.3-1.9s0.8-1.9,2.3-1.9h6.3v-7.8
							c-0.1-1.2,0.8-2.3,2-2.4C271.4,77.2,271.5,77.2,271.5,77.2L271.5,77.2L271.5,77.2z"/>
						<path class="st3" d="M311.2,87.4c-1.2,0-2.1,1-2.2,2.5c-0.8-1-1.8-1.8-3-2.2c-1.2-0.5-2.5-0.8-3.9-0.8c-3.5,0-6.3,1.2-8.3,3.7
							c-2.1,2.5-3.1,5.7-3.1,8.9c-0.1,3.2,1,6.4,3,9c2,2.4,4.8,3.7,8.4,3.7c1.3,0,2.6-0.3,3.9-0.8c1.2-0.4,2.2-1.2,3-2.2
							c0.1,1.6,1,2.5,2.2,2.5c1.2,0.1,2.3-0.9,2.4-2.1c0-0.1,0-0.2,0-0.3V89.9c0.1-1.2-0.8-2.3-2-2.4
							C311.4,87.4,311.3,87.4,311.2,87.4 M307.2,105.9c-2.3,2.8-6.4,3.2-9.2,1c-0.4-0.3-0.7-0.6-1-1c-1.3-1.8-2-4.1-1.9-6.3
							c-0.1-2.3,0.6-4.5,1.9-6.3c2.2-2.8,6.3-3.3,9.1-1c0.4,0.3,0.7,0.7,1,1c1.4,1.8,2,4.1,1.9,6.3
							C309.2,101.9,308.6,104.1,307.2,105.9"/>
						<path class="st4" d="M329.8,107.9V81.6h-5.4c-1.4,0-2.4-0.7-2.4-1.9s1-1.9,2.4-1.9h7.6c1.1-0.1,2.1,0.8,2.2,1.9v28.2h7
							c1.4,0,2.4,0.7,2.4,1.9s-1,1.9-2.4,1.9h-18.5c-1.4,0-2.4-0.7-2.4-1.9s1-1.9,2.4-1.9L329.8,107.9L329.8,107.9L329.8,107.9z"/>
						<path class="st4" d="M366.4,87.4c-1.2,0-2.1,1-2.2,2.5c-0.8-1-1.8-1.8-3-2.2c-1.2-0.5-2.5-0.8-3.8-0.8c-3.5,0-6.3,1.2-8.3,3.7
							c-2.1,2.5-3.1,5.7-3.1,8.9c-0.1,3.2,1,6.4,3,9c2,2.4,4.8,3.7,8.4,3.7c1.3,0,2.6-0.3,3.9-0.8c1.2-0.4,2.2-1.2,3-2.2
							c0.1,1.6,1,2.5,2.2,2.5c1.2,0.1,2.3-0.9,2.4-2.1c0-0.1,0-0.2,0-0.3V89.9c0.1-1.2-0.8-2.3-2-2.4
							C366.6,87.4,366.5,87.4,366.4,87.4 M362.4,105.9c-2.3,2.8-6.4,3.2-9.2,1c-0.4-0.3-0.7-0.6-1-1c-1.3-1.8-2-4.1-1.9-6.3
							c-0.1-2.3,0.6-4.5,1.9-6.3c2.2-2.8,6.3-3.3,9.1-1c0.4,0.3,0.7,0.7,1,1c1.4,1.8,2,4.1,1.9,6.3
							C364.4,101.9,363.8,104.1,362.4,105.9"/>
						<path class="st4" d="M376.4,89.8c-0.1-1.2,0.8-2.3,2-2.4c1.2-0.1,2.3,0.8,2.4,2c0,0.1,0,0.3,0,0.4v0.5
							c0.2-0.9,0.8-1.8,1.6-2.4c0.9-0.7,2-1.1,3.1-1c3,0,4.9,1.2,5.6,3.4c0.3-1,1-1.8,1.8-2.4c1-0.7,2.2-1.1,3.4-1
							c4.1,0,6.1,2.5,6.1,6.6v15.8c0.1,1.2-0.8,2.3-2,2.4c-1.2,0.1-2.3-0.8-2.4-2c0-0.1,0-0.3,0-0.4V94.7c0-2.8-0.9-3.9-2.8-3.9
							c-2.5,0-3.7,2.2-3.7,6.6v12c0.1,1.2-0.8,2.3-2,2.4c-1.2,0.1-2.3-0.8-2.4-2c0-0.1,0-0.3,0-0.4V94.7c0-2.8-0.8-3.9-2.8-3.9
							c-2.5,0-3.6,2.4-3.6,7.2v11.4c0.1,1.2-0.8,2.3-2,2.4s-2.3-0.8-2.4-2c0-0.1,0-0.3,0-0.4L376.4,89.8L376.4,89.8L376.4,89.8z"/>
						<path class="st4" d="M429.3,87.4c-1.2,0-2.1,1-2.2,2.5c-0.8-1-1.8-1.8-3-2.2c-1.2-0.5-2.5-0.8-3.8-0.8c-3.5,0-6.3,1.2-8.3,3.7
							c-2.1,2.5-3.1,5.7-3.1,8.9c-0.1,3.2,1,6.4,3,9c2,2.4,4.8,3.7,8.4,3.7c1.3,0,2.6-0.3,3.8-0.8c1.2-0.4,2.2-1.2,3-2.2
							c0.1,1.6,1,2.5,2.2,2.5c1.2,0.1,2.3-0.9,2.3-2.1V89.9c0.1-1.2-0.8-2.3-2-2.4C429.5,87.4,429.4,87.4,429.3,87.4 M425.3,105.9
							c-2.3,2.8-6.4,3.2-9.2,1c-0.4-0.3-0.7-0.6-1-1c-1.3-1.8-2-4.1-1.9-6.3c-0.1-2.3,0.6-4.5,1.9-6.3c2.2-2.8,6.3-3.3,9.1-1
							c0.4,0.3,0.7,0.7,1,1c1.4,1.8,2,4.1,1.9,6.3C427.3,101.9,426.7,104.1,425.3,105.9"/>
						<path class="st5" d="M428.6,148c-1.3,1.5-3.2,2.3-5.5,2.3c-0.9,0-1.8-0.2-2.7-0.5s-1.5-0.8-1.8-1.4v6.4c0,0.9-0.6,1.5-1.4,1.5
							s-1.4-0.7-1.4-1.5v-18.8c0-0.9,0.6-1.5,1.4-1.5c0.8,0,1.4,0.7,1.4,1.5c0.4-0.6,1-1.1,1.9-1.4s1.7-0.4,2.7-0.4
							c2.4,0,4.2,0.7,5.5,2.1s2,3.4,2,6C430.6,144.6,429.9,146.5,428.6,148 M426.6,138.1c-0.8-1-1.9-1.5-3.4-1.5s-2.6,0.5-3.4,1.5
							c-0.8,1-1.2,2.4-1.2,4.1s0.4,3.1,1.2,4.1c0.8,1,1.9,1.5,3.4,1.5s2.6-0.5,3.4-1.5c0.8-1,1.2-2.4,1.2-4.1
							S427.3,139.1,426.6,138.1 M411.8,139.3c-0.5,0-1-0.3-1.2-0.9c-0.6-1.2-1.6-1.8-2.9-1.8c-1.6,0-2.8,0.6-3.6,1.8
							s-1.2,2.7-1.2,4.4v5.6c0,0.9-0.6,1.6-1.4,1.6s-1.4-0.7-1.4-1.6V136c0-0.9,0.6-1.6,1.4-1.6s1.4,0.7,1.4,1.6v0.7
							c0.4-0.7,1-1.3,1.9-1.8c0.9-0.5,1.9-0.8,2.9-0.8c2.7,0,4.5,1,5.5,2.9c0.1,0.3,0.2,0.5,0.2,0.7
							C413.4,138.7,412.6,139.3,411.8,139.3 M394,149.9c-0.8,0-1.4-0.6-1.4-1.6c-0.5,0.6-1.1,1.1-2,1.4c-0.9,0.4-1.8,0.6-2.6,0.6
							c-2.4,0-4.2-0.8-5.6-2.4s-2-3.5-2-5.7s0.7-4.1,2.1-5.7c1.3-1.6,3.2-2.4,5.5-2.4c0.9,0,1.7,0.2,2.6,0.5c0.9,0.3,1.5,0.8,2,1.4
							c0.1-1,0.6-1.6,1.4-1.6c0.9,0,1.6,0.6,1.6,1.5v12.5C395.6,149.4,394.9,149.9,394,149.9 M391.3,138.1c-0.9-1.1-2-1.6-3.4-1.6
							s-2.5,0.5-3.4,1.6s-1.2,2.4-1.2,4.1s0.5,3,1.2,4.1c0.9,1.1,2,1.5,3.4,1.5s2.5-0.5,3.4-1.5c0.9-1.1,1.3-2.4,1.3-4.1
							S392.2,139.2,391.3,138.1 M376.6,150c-0.9,0-1.4-0.7-1.4-1.5v-7.8c0-1.5-0.2-2.5-0.7-3.2s-1.3-1-2.5-1c-1.4,0-2.5,0.6-3.4,1.7
							c-0.8,1.1-1.2,2.5-1.2,4.3v5.9c0,0.9-0.6,1.5-1.4,1.5c-0.9,0.1-1.5-0.6-1.5-1.5v-18.8c0-0.9,0.6-1.5,1.4-1.5s1.4,0.7,1.4,1.5
							v6.9c0.2-0.7,0.8-1.3,1.7-1.7c0.9-0.5,1.8-0.7,2.9-0.7c4.1,0,6.1,2,6.1,6v8.4C378,149.4,377.4,150,376.6,150L376.6,150
							L376.6,150z M355,141.1c0.8,0.1,1.4,0.2,1.9,0.3c0.5,0.1,1,0.2,1.6,0.4c0.7,0.2,1.2,0.4,1.5,0.7c0.7,0.5,1.3,1.5,1.3,2.9
							c0,1.6-0.7,2.9-2,3.7c-1.3,0.9-3,1.4-5,1.4c-3-0.1-5.2-1.1-6.7-2.8c-0.3-0.4-0.5-0.7-0.5-1c0-0.8,0.5-1.4,1.4-1.4
							c0.5,0,1,0.2,1.3,0.7c1,1.3,2.5,2,4.3,2c2.7,0,4-0.8,4-2.5c0-0.7-0.3-1.1-1.3-1.4c-0.5-0.1-0.9-0.3-1.3-0.3
							c-0.3-0.1-0.9-0.1-1.7-0.3c-0.9-0.1-1.6-0.3-2.3-0.4c-0.6-0.2-1.2-0.4-1.9-0.7c-1.3-0.6-2-1.8-2-3.3s0.6-2.8,1.8-3.6
							c1.3-0.8,2.7-1.3,4.5-1.3c2.7,0,4.6,0.9,5.9,2.6c0.2,0.3,0.3,0.6,0.3,0.9c0,0.8-0.6,1.4-1.6,1.4c-0.5,0-0.9-0.2-1.1-0.7
							c-0.8-1.2-1.9-1.8-3.5-1.8c-2.1,0-3.4,0.8-3.4,2.2C350.8,140.2,352.3,140.7,355,141.1L355,141.1z"/>
						<path class="st5" d="M290.3,148c-1.3,1.5-3.2,2.3-5.5,2.3c-0.9,0-1.8-0.2-2.7-0.5s-1.5-0.8-1.8-1.4v6.4c0,0.9-0.6,1.5-1.4,1.5
							s-1.4-0.7-1.4-1.5v-18.8c0-0.9,0.6-1.5,1.4-1.5c0.8,0,1.4,0.7,1.4,1.5c0.4-0.6,1-1.1,1.9-1.4c0.9-0.3,1.7-0.4,2.7-0.4
							c2.4,0,4.2,0.7,5.5,2.1c1.3,1.4,2,3.4,2,6C292.3,144.6,291.6,146.5,290.3,148 M288.3,138.1c-0.8-1.1-2-1.5-3.4-1.5
							s-2.6,0.5-3.4,1.5c-0.8,1-1.2,2.4-1.2,4.1s0.4,3.1,1.2,4.1c0.8,1,1.9,1.5,3.4,1.5s2.6-0.5,3.4-1.5c0.8-1,1.2-2.4,1.2-4.1
							S289,139.1,288.3,138.1"/>
						<path class="st5" d="M308.2,148.1c-1.4,1.5-3.3,2.3-5.6,2.3s-4.2-0.7-5.6-2.3c-1.4-1.5-2.1-3.5-2.1-5.8s0.7-4.3,2.1-5.8
							c1.4-1.6,3.3-2.3,5.6-2.3s4.2,0.7,5.6,2.3c1.4,1.5,2.1,3.5,2.1,5.8S309.6,146.6,308.2,148.1 M306.1,138.1
							c-0.9-1.1-2.1-1.5-3.5-1.5s-2.6,0.5-3.5,1.5c-0.9,1-1.3,2.4-1.3,4.1s0.5,3.1,1.3,4.1c0.9,1,2.1,1.5,3.5,1.5s2.6-0.5,3.5-1.5
							s1.3-2.4,1.3-4.1S307,139.1,306.1,138.1"/>
						<path class="st5" d="M313.2,147.6c-0.3-0.4-0.5-0.7-0.5-1c0-0.8,0.5-1.4,1.4-1.4c0.5,0,1,0.2,1.3,0.7c1,1.3,2.5,2,4.3,2
							c2.7,0,4-0.8,4-2.5c0-0.7-0.3-1.1-1.3-1.4c-0.5-0.1-0.9-0.3-1.2-0.3c-0.3-0.1-0.9-0.1-1.7-0.3c-0.9-0.1-1.7-0.3-2.3-0.4
							c-0.6-0.2-1.2-0.4-1.9-0.7c-1.3-0.6-2-1.8-2-3.3s0.6-2.8,1.8-3.6c1.2-0.8,2.7-1.3,4.5-1.3c2.7,0,4.6,0.9,5.9,2.6
							c0.2,0.3,0.3,0.6,0.3,0.9c0,0.8-0.6,1.4-1.6,1.4c-0.5,0-0.9-0.2-1.1-0.7c-0.8-1.2-1.9-1.8-3.5-1.8c-2.1,0-3.4,0.8-3.4,2.2
							c0,1.3,1.5,1.8,4.2,2.2c0.8,0.1,1.4,0.2,1.9,0.3c0.5,0.1,1,0.2,1.7,0.4c0.7,0.2,1.2,0.4,1.5,0.7c0.7,0.5,1.3,1.5,1.3,2.9
							c0,1.6-0.7,2.9-2,3.7c-1.3,0.9-3,1.4-5,1.4C316.9,150.3,314.7,149.4,313.2,147.6L313.2,147.6L313.2,147.6z"/>
						<path class="st5" d="M333.7,129.4c0-0.9,0.6-1.5,1.4-1.5c0.9,0,1.4,0.7,1.4,1.5v5h5.9c1,0,1.5,0.4,1.5,1.3s-0.5,1.3-1.5,1.3
							h-5.9v8.1c0,1.9,1,2.8,2.5,2.8c1,0,1.8-0.3,2.2-0.5l0.9-0.7c0.3-0.2,0.6-0.3,0.9-0.3c0.8,0,1.3,0.6,1.3,1.4
							c0,0.5-0.3,0.9-0.9,1.4c-1.2,0.8-2.8,1.3-4.6,1.3c-1.6,0-2.9-0.4-3.9-1.2c-1-0.8-1.4-2.1-1.4-3.8v-8.5h-4.2
							c-1,0-1.5-0.4-1.5-1.3s0.5-1.3,1.5-1.3h4.2L333.7,129.4L333.7,129.4L333.7,129.4L333.7,129.4z"/>
						<path class="st6" d="M238.1,150.8c2.3,0,4.1-0.7,5.3-2.1s1.9-3.4,1.9-6c0-2.4-0.6-4.3-1.9-5.8c-1.3-1.5-3.1-2.3-5.3-2.3
							c-0.9,0-1.8,0.2-2.6,0.6c-0.8,0.4-1.4,0.8-1.8,1.4v-6.4c0-0.9-0.6-1.5-1.4-1.5s-1.4,0.7-1.4,1.5V149c0,0.9,0.6,1.5,1.4,1.5
							c0.7,0,1.4-0.7,1.4-1.5c0.4,0.6,1,1.1,1.8,1.4C236.3,150.7,237.2,150.8,238.1,150.8 M242.5,142.7c0,1.7-0.4,3.1-1.1,4.1
							c-0.8,1-1.9,1.5-3.3,1.5s-2.5-0.5-3.3-1.5c-0.8-1-1.1-2.4-1.1-4.1s0.4-3.1,1.1-4.1c0.8-1,1.9-1.5,3.3-1.5s2.5,0.5,3.3,1.5
							C242.1,139.6,242.5,141,242.5,142.7"/>
						<path class="st6" d="M251.1,157.1c1.6,0,2.9-0.6,3.9-1.7c1-1.1,2.1-2.9,3.2-5.4l5.9-13.1c0.1-0.3,0.1-0.4,0.1-0.6
							c0-0.7-0.3-1.1-0.9-1.4c-0.2-0.1-0.4-0.1-0.6-0.1c-0.6,0-1.1,0.3-1.4,0.9l-4.6,10.6l-4.6-10.6c-0.3-0.6-0.7-0.9-1.4-0.9
							c-0.2,0-0.4,0.1-0.6,0.1c-0.6,0.3-0.9,0.7-0.9,1.4c0,0.2,0.1,0.4,0.1,0.6l5.8,13l-0.2,0.4c-0.7,1.6-1.3,2.7-1.8,3.3
							c-0.5,0.6-1.2,0.9-2.2,0.9c-0.5,0-1.1-0.3-1.5-0.3c-0.7,0-1.2,0.5-1.2,1.2C248.4,156.6,249.3,157.1,251.1,157.1L251.1,157.1
							L251.1,157.1z"/>
						<path class="st4" d="M95.2,123h-16c-0.5,0-0.9,0.4-0.9,0.9v14.2c0,0.5,0.4,0.9,0.9,0.9h10.3c0.4,0,0.7-0.2,0.9-0.6l5.6-14.2
							C96.4,123.7,95.9,123,95.2,123"/>
						<path class="st4" d="M150.1,123h-35.1l9.9-56.2c0.1-0.6-0.3-1.1-0.9-1.1h-14.1c-0.5,0-0.8,0.3-0.9,0.8l-3.6,20.4H85.6
							c-0.5,0-0.9,0.4-0.9,0.9v14.2c0,0.5,0.4,0.9,0.9,0.9h16.9l-9.3,53c-0.1,0.6,0.3,1.1,0.9,1.1h14.1c0.5,0,0.8-0.3,0.9-0.8
							l3-17.2h20.1l-3,16.9c-0.1,0.6,0.3,1.1,0.9,1.1h14.1c0.5,0,0.9-0.3,0.9-0.8l5.7-32.2C151.2,123.6,150.7,123,150.1,123"/>
						<path class="st4" d="M168.7,123h-10.9c-0.4,0-0.7,0.2-0.9,0.6l-5.6,14.2c-0.2,0.6,0.2,1.3,0.9,1.3h16.5c0.5,0,0.9-0.4,0.9-0.9
							V124C169.7,123.4,169.2,123,168.7,123"/>
						<path class="st4" d="M175.1,87h-17.5l3.5-20.1c0.1-0.6-0.3-1.1-0.9-1.1h-14.1c-0.5,0-0.9,0.3-0.9,0.8L141.6,87H128
							c-0.4,0-0.7,0.2-0.9,0.6l-5.6,14.2c-0.2,0.6,0.2,1.3,0.9,1.3h16.3l-2.3,13.2c-0.1,0.5,0.2,1,0.7,1.1l13.6,3.2
							c0.5,0.1,1.1-0.2,1.1-0.8l2.9-16.7h20.3c0.5,0,0.9-0.4,0.9-0.9V87.9C176,87.4,175.6,86.9,175.1,87"/>
					</g>
				</g>
			</g>
		</g>
	</g>
</g>
<text transform="matrix(1 0 0 1 77.88 390.98)" class="st4 st7 st8">Observer</text>
<text transform="matrix(1 0 0 1 77.88 490.98)" class="st4 st7 st8">Pattern</text>
<g id="Illustration-2">
	<path class="st9" d="M986.3,866.5c-28.8-14.2-44.9-46.2-45.8-78.3s13.4-63.4,35-87c16-17.5,36.5-32,46.4-53.6
		c9-19.7,7.8-42.5,3.1-63.6c-4.7-21.1-12.7-41.3-17.1-62.5c-10-48.2,0.8-101.9,34.3-138c23.6-25.3,58.8-40,93.4-38.6
		c39.2,1.7,64,34.7,102.1,36.3c23.5,1,45.8-10.5,64.8-24.4s36-30.6,56.1-42.8c39-23.4,89-27.5,131.3-10.6s75.8,54.2,88,98
		c17.9,64.1-3.2,143.3,50,195.1c24.9,24.3,60.7,32.3,89.1,51.6c36.5,24.9,69.1,67.2,73.1,112.4c1.5,16.7-2.1,66.5-34.3,105.4"/>
	<g>
		<g>
			<path class="st10" d="M1172.8,518.9c-0.9,2.6-2.7,4.5-4.9,5.3c-3.9,1-9.8,1.2-15.3,0.8c-0.8,0-1.6-0.1-2.4-0.2l-0.2,0
				c-1.7-0.2-3.3-0.4-5.1-0.6c-4.7-0.5-9.8-1.2-14.5-1.8l-1.2-0.2c-2.7-0.4-5.4-0.7-8.1-1.2c-2.8-0.5-5.5-1.2-8.1-2.4
				c-0.6-0.3-1.2-0.6-1.8-0.9c-3.1-1.7-5.9-4.2-7.3-7.5c-1.2-2.8-1.5-6-1.1-9c0.2-1.8,0.7-3.7,1.8-5.2c1.2-1.6,3.1-2.7,5.1-3.2
				c0.9-0.2,1.7-0.4,2.4-0.5c2.6-0.3,4.9,0.2,7.6,0.9c3.9,0.9,7.8,1.8,11.8,2.7c3.9,0.9,7.9,1.9,11.7,2.8c7.4,1.8,13.8,3.4,15.9,4.1
				C1168.8,505.9,1174.2,514.9,1172.8,518.9L1172.8,518.9z"/>
			<path class="st11" d="M1152.6,525c-0.8,0-1.6-0.1-2.4-0.2l-0.2,0c-1.7-0.2-3.3-0.4-5.1-0.6c-4.7-0.5-9.8-1.2-14.5-1.8l-1.2-0.2
				l-6.9-1c-0.4-0.1-0.8-0.1-1.2-0.2c-2.8-0.5-5.5-1.2-8.1-2.4c-0.6-0.3-1.2-0.6-1.8-0.9l0.9-25.4c2.6-0.3,4.9,0.2,7.6,0.9
				c3.9,0.9,7.8,1.8,11.8,2.7c3.9,0.9,7.9,1.9,11.7,2.8C1141.8,506.4,1144.7,518.3,1152.6,525z"/>
			<path class="st12" d="M1111.3,520.2c-7.8-2.9-13.1-12.7-13.8-20.8c-0.2-2.6,0.1-5.4,1.8-7.4s6.9-2.6,10.6-2.1
				c10.1,1.4,17.9,3.7,27.9,5.9c0.1,7.1-0.6,20.5-4.5,29C1129,524,1114.7,521.4,1111.3,520.2L1111.3,520.2z"/>
		</g>
		<path class="st10" d="M1176.1,450.3c-1.7,0.9-3.2,2.8-3.8,4.4c-2.1,5.5-3.9,10.9-5.8,16.4c-3.1,9.3-6.1,18.7-9.5,28
			c-2.1,5.4-3.6,11.3-2.9,17.2c0.7,5.4,5.6,9.2,11,8.5c0.2,0,0.4-0.1,0.6-0.1c6.4-1.3,8.9-7.8,10.1-13.4c3.3-14.4,4.2-28.8,5.5-43.5
			c0.4-5,1.2-11-0.8-15.7C1179.4,449.6,1177.7,449.5,1176.1,450.3L1176.1,450.3z"/>
		<g>
			<g>
				<path class="st4" d="M1129,541.4c0,4.6-1.1,9.3-3.8,13c-0.8,1-1.7,1.9-2.7,2.7c-0.2,0.2-0.4,0.4-0.7,0.5
					c-0.8,0.7-1.7,1.2-2.6,1.8c0,0-0.1,0-0.1,0.1c-0.1,0.2-0.1,0.5-0.2,0.6c-2.2,9.7-0.6,21.8,0.6,33.3c-2.4,7.2-15.5,11.7-30.9,9.7
					c-7.8-1-16.2-3.7-24-8.6c-0.2-0.1,0.1-3.7,0.1-3.9c0-3.4,0-6.8-0.2-10.3c-0.2-5.3-0.9-10.6-1.6-15.9c-1.8-12.4-4.1-24.2-8.5-36
					c-2.9-7.6-8-15.7-5.7-23.8c0.2-0.6,0.5-1.6,0.7-2.1c2.8-6.8,14.8-13,17.3-13.8c12.9-4.6,27.3-2.9,40.5,0.7
					c3.8,1,5.8,2.2,7.2,6.1c2.7,7.8,5.5,15.5,8.2,23.3C1125.3,526.1,1129,533.5,1129,541.4L1129,541.4z"/>
				<path class="st12" d="M1121.9,557.7c-0.8,0.7-1.7,1.2-2.6,1.8c-2.7-0.3-5.4-1.2-7.7-2.6C1114.9,557.8,1118.4,558.1,1121.9,557.7
					L1121.9,557.7z"/>
			</g>
			<path class="st10" d="M1101.1,527.3c0,0-24.4-10.7-35.1-38.4c2.1-1.7,4.9-5.9,5.6-9.3l0.1-0.9l0.2-1.5c0.1-0.4,0.1-0.8,0.1-1.1
				c0.1-1.2,0.1-3.1,0.1-5.1v-8.3h17.4c-0.4,4.8-0.3,9.6,0.1,14.4c0.1,0.9,0.2,1.8,0.5,2.7c0,0,0,0,0,0.1c0.9,3.3,3.2,6.2,4.8,7.2
				C1102.5,500.6,1102.5,523.8,1101.1,527.3L1101.1,527.3z"/>
			<path class="st11" d="M1090.1,479.7c-3.9,3.7-13.1,2-18.4-1l0.2-1.5c0.1-0.4,0.1-0.8,0.1-1.1c0.1-1.2,0.1-3.1,0.1-5.1v-8.3h17.4
				c-0.4,4.8-0.3,9.6,0.1,14.4C1089.6,478,1089.8,478.9,1090.1,479.7L1090.1,479.7z"/>
			<path class="st12" d="M1105.7,556.3c-8.2,8.1-16.2,5.1-22.2,9.5c-3.8,2.8-4.5,8.1-4.4,12.9c0.2,5.5,0.9,11,3.1,16
				c1.4,3.2,3.7,6.2,6.4,8.4c-7.8-1-16.2-3.7-24-8.6c-0.2-0.1,0.1-3.7,0.1-3.9c0-3.4,0-6.8-0.2-10.3c-0.2-5.3-0.9-10.6-1.6-15.9
				c-1.8-12.4-4.1-24.2-8.5-36c-2.9-7.6-8-15.7-5.7-23.8c0.7,2,1.4,4.2,2.6,6s2.8,2.4,4.7,3.3c3.8,1.8,7.8,3.2,11.7,4.7
				c3.3,1.2,6.6,2.4,9.9,3.6c6.4,2.3,13.1,4.7,19.9,4.4c-9.3,2.2-18.2,2.7-27.4,3.4c0.3,6.5,1.7,16.1,5.8,21.4
				C1082.6,560.2,1097.2,561.6,1105.7,556.3L1105.7,556.3z"/>
		</g>
		<path class="st10" d="M1108,458.4c-0.3,5.3-1.3,10.8-4.7,14.8c-5.9,7-17.6,6.6-24.9,1s-10.9-14.7-12.6-23.7
			c-2.7-14.7,4.1-25.9,19.3-27.3c8.7-0.8,15.3,0.5,18.8,8.6S1108.5,448.8,1108,458.4L1108,458.4z"/>
		<path d="M1116.6,434.7c0.2,3.3-0.6,6.6-2.1,9.1c-2.2,3.4-6.6,5.6-10.4,4.4c-2.9-0.9-5-3.5-6.7-6.1c-1.3-2-2.5-4.2-4.5-5.4
			c-3.8-2.4-8.4-1.4-11.6,1.4c-1.6,1.4-2.8,3.1-3.5,5.1c-0.5,1.3-0.9,4.2-0.9,7.7c-0.8-3-2.8-5.4-4.8-5.6c-1.9-0.2-3.7,0.7-4.5,2.8
			c-0.6,1.6-0.5,3.3-0.2,5c0.3,1.2,0.8,2.4,1.4,3.5c0.3,0.6,1.7,2.6,1.7,2.6c0,0,0.1,5.1,2.8,10.1c-5,1.4-14.1-0.3-17.5-10.1
			c-1.8-5-6.5-28,10.4-33.7c0.7-5.5,4.8-9.2,9.5-11.8c5.6-3.1,11.5-3,16.8,0.3c4,2.5,7.6,6.1,12.1,7.6c1.9,0.7,3.9,1.2,5.7,2.2
			C1114.4,425.8,1116.4,430.1,1116.6,434.7L1116.6,434.7z"/>
		<g>
			<path class="st10" d="M1119.7,686.3c0,0.1,0,0.3,0,0.4c-0.1,5.5-0.6,18.5-1.1,28.4c-0.3,5.6-0.5,10.2-0.7,11.7
				c0,0-0.3,11.7-11.7,12.3c-6.9,0.4-11.1-6.7-12.9-13.4l0,0c-0.1-0.4-0.2-0.8-0.3-1.2c-0.2-1.1-0.5-2.2-0.7-3.3
				c-0.5-2.1-1-4.2-1.5-6.3c-1-4.7-2-9.4-2.9-14.1c-0.6-2.9-1.1-5.9-1.7-8.8c-1.6-9.3-3-18.7-4.3-28.1c-0.7-4.8-1.3-9.7-1.9-14.6
				c-1.1-9.3-2.1-18.5-1.9-27.7c0.1-4.3,0.7-9,2.6-12.4c0.6-1.1,1.3-2.1,2.2-2.9c6.4-5.7,18.3-0.3,23.7,6.3c3,3.8,5.4,8,7.1,12.6
				c2.9,7.8,4.3,16.5,5,25c0.1,1.1,0.2,2.2,0.2,3.3C1119.6,663,1120,675.3,1119.7,686.3z"/>
			<g>
				<path class="st10" d="M1087.7,776.5c2.2,13.9,9.3,24.3,12.5,46.1c0.8,5.3,0.2,11.9,5.5,13.3c2.5,0.7,5.6,0.1,7.1-2.1
					c1-1.4,1.3-3.3,1.2-5c-2.2-31.3,1.9-86.4,3-94.5c0.7-4.9,1.7-10,0.4-14.9c-1.4-4.8-6.3-9-11.1-7.6c-8.2,2.4-10.7,9.2-12.9,16.4
					c-2.8,9.3-4.8,21.5-6,31.1C1086.5,765.2,1086.8,770.9,1087.7,776.5L1087.7,776.5z"/>
				<g>
					<path class="st10" d="M1144.3,857.2c1.7,1.4,3,3.2,0.8,4.2s-4.9,0.9-7.1,0.8c-2.2-0.1-6.2-0.2-9.3-0.4
						c-3.1-0.2-5.9-0.4-8.5-1.7c-2.6-1.4-4.2-4.3-6.1-6.7c-2.3-2.7-5.2-4.8-8.4-6.2c-2.9-1.2-5.8-3.6-6.7-6.8
						c-0.6-2.1-1.3-6.2-0.6-8.3s1.6-3,2-5.2c0.4-2-0.3-4.8-0.3-8c-0.1-4.8,8.9-7.5,12.3-1.4c1.2,2.2,1.2,4.8,1.6,7.2
						c0.4,2.6,0.8,5.1,1.7,7.6c1.2,3.4,3.5,6.5,5.8,9.2c2.6,3.2,5.6,5.9,9,8.1c3.8,2.1,7.8,3.8,11.6,5.9
						C1142.8,856,1143.6,856.6,1144.3,857.2L1144.3,857.2z"/>
					<path class="st13" d="M1156.6,863.4h-38.3c-4-5.8-9-10.8-14.8-14.8c-0.4,1.7-1.4,14.8-1.4,14.8h-2.7c-0.2-2.3-0.8-8.9-1.1-12.9
						c-0.3-4-3.2-8.2-3.1-12c0-3.5,1.5-7.5,4.3-9.5c1.1,6.1,10.7,12.1,15.5,17.7c1,1.1,2,2.2,3,3.2c4.8,4.3,11.3,6,17.5,4.5
						c1-0.1,1.9-0.6,2.7-1.3C1141.3,853.7,1151.3,857.4,1156.6,863.4L1156.6,863.4z"/>
				</g>
			</g>
			<path class="st10" d="M1054,776.5c2.2,13.9,9.3,24.3,12.5,46.1c0.8,5.3,0.2,11.9,5.5,13.3c2.5,0.7,5.6,0.1,7.1-2.1
				c1-1.4,1.3-3.3,1.2-5c-2.2-31.3,1.9-86.4,3-94.5c0.7-4.9,1.7-10,0.4-14.9c-1.4-4.8-6.3-9-11.1-7.6c-8.2,2.4-10.7,9.2-12.9,16.4
				c-2.8,9.3-4.8,21.5-6,31.1C1052.8,765.2,1053.2,770.9,1054,776.5L1054,776.5z"/>
			<path class="st10" d="M1091.7,653.6c0,1.9-0.1,3.9-0.2,6c-0.3,8.3-0.8,17.9-1.8,26.6c-0.3,3-1,8.5-1.9,14.5
				c-1,7.3-2.1,15.4-2.9,21c-0.3,2.3-0.6,4.2-0.7,5.4c0,0,0,0,0,0c-1.9,6.1-6.8,9.9-12.3,10.6c-6.2,0.8-9.7-6-11.3-12.4l0,0
				c-0.3-1.1-0.5-2.2-0.7-3.2c0-0.2-0.1-0.4-0.1-0.6c-0.4-3-0.9-6.1-1.3-9.1c-1.1-7.7-1.8-15.5-2.6-23.2c-0.4-4.4-0.8-8.8-1.1-13.3
				c-0.7-9.9-1.2-19.8-1.6-29.7c-0.3-9.3-0.6-18.6,0.4-27.7c0.7-5.7,2.1-11.8,6.1-14.8c6-4.5,15.5-0.1,21,5.7
				c0.8,0.8,1.5,1.7,2.1,2.5c2.7,4,4.7,8.5,6,13.1C1091.3,634,1091.8,644.1,1091.7,653.6L1091.7,653.6z"/>
			<path class="st11" d="M1119.7,686.3c0,0.1,0,0.3,0,0.4c-0.1,5.5-0.6,18.5-1.1,28.4c-1.2,0.4-2.8,0.9-3.5,1.2
				c-6.3,2.5-13.3,3.9-20,4.6c-0.2,0-0.3,0-0.5,0.1c-0.8,0.1-1.6,0.2-2.4,0.2c-0.5-2.1-1-4.2-1.5-6.3c-1-4.7-2-9.4-2.9-14.1
				c-1,7.3-2.1,15.4-2.9,21c-0.3,0-0.5,0-0.8,0c-7.4,0.4-14.8,0.3-22.2-0.2c-0.7,0-1.4-0.1-2.2-0.2c-0.4-3-0.9-6.1-1.3-9.1
				c-1.1-7.7-1.8-15.5-2.6-23.2c-0.4-4.4-0.8-8.8-1.1-13.3c8.9-4.2,18.1-8,27.1-12c3.2-1.4,6.5-2.8,9.7-4.3c1.9-0.9,3.8-1.8,5.7-2.7
				c6.8-3.3,14.3-7.1,21.5-6.7c0.1,1.1,0.2,2.2,0.2,3.3C1119.6,663,1120,675.3,1119.7,686.3L1119.7,686.3z"/>
			<path class="st14" d="M1122,708.9c-5.8,7.6-37.6,9.7-60.7,4.9c-4.4-0.9-8.4-2.1-12-3.5c1.1-35.1-3.6-67-1.6-88.5
				c2.4-15.5,5.2-27.1,17.1-40.2c9.7,7.1,27.9,10,40.4,7.9c8-1.3,13.6-4.7,13.1-10.2C1124.1,607,1124.7,639.5,1122,708.9z"/>
			<g>
				<path class="st10" d="M1110.6,857.2c1.7,1.4,3,3.2,0.8,4.2s-4.9,0.9-7.1,0.8c-2.2-0.1-6.2-0.2-9.3-0.4c-3.1-0.2-5.9-0.4-8.5-1.7
					c-2.6-1.4-4.2-4.3-6.1-6.7c-2.3-2.7-5.2-4.8-8.4-6.2c-2.9-1.2-5.8-3.6-6.7-6.8c-0.6-2.1-1.3-6.2-0.6-8.3s1.6-3,2-5.2
					c0.4-2-0.3-4.8-0.3-8c-0.1-4.8,8.9-7.5,12.3-1.4c1.2,2.2,1.2,4.8,1.6,7.2c0.4,2.6,0.8,5.1,1.7,7.6c1.2,3.4,3.5,6.5,5.8,9.2
					c2.6,3.2,5.6,5.9,9,8.1c3.8,2.1,7.8,3.8,11.6,5.9C1109.1,856,1109.9,856.6,1110.6,857.2L1110.6,857.2z"/>
				<path class="st13" d="M1122.9,863.4h-38.3c-4-5.8-9-10.8-14.8-14.8c-0.4,1.7-1.4,14.8-1.4,14.8h-2.7c-0.2-2.3-0.8-8.9-1.1-12.9
					c-0.3-4-3.2-8.2-3.1-12c0-3.5,1.5-7.5,4.3-9.5c1.1,6.1,10.7,12.1,15.5,17.7c1,1.1,2,2.2,3,3.2c4.8,4.3,11.3,6,17.5,4.5
					c1-0.1,1.9-0.6,2.7-1.3C1107.6,853.7,1117.6,857.4,1122.9,863.4L1122.9,863.4z"/>
			</g>
			<path class="st15" d="M1105.1,589.5c-3.4,1.8-7.3,2.8-11.2,3.3c-6.8,0.8-14,0.2-20.8-0.6c-10,18.9-15.3,40-16.8,61.3
				c-1.4,20.2,0.7,40.5,4.9,60.3c-4.4-0.9-8.4-2.1-12-3.5c1.1-35.1-3.6-67-1.6-88.5c2.4-15.5,5.2-27.1,17.1-40.2
				C1074.5,588.7,1092.7,591.5,1105.1,589.5L1105.1,589.5z"/>
		</g>
		<g>
			<g>
				<polygon class="st3" points="1236.1,423 1134.9,442.4 1134.9,462.5 1236.1,481.9 				"/>
				<ellipse class="st3" cx="1134.9" cy="452.5" rx="3.6" ry="10"/>
				<g>
					<ellipse class="st13" cx="1236.1" cy="452.5" rx="15.9" ry="29.4"/>
					<ellipse class="st4" cx="1237.8" cy="452.5" rx="8.5" ry="20.3"/>
				</g>
			</g>
			<g>
				<polygon class="st3" points="1199.9,422.6 1098.8,442 1098.8,462 1199.9,481.4 				"/>
				<ellipse class="st3" cx="1098.8" cy="452" rx="4.3" ry="10"/>
				<g>
					<ellipse class="st13" cx="1199.9" cy="452" rx="15.9" ry="29.4"/>
					<ellipse class="st4" cx="1201.6" cy="452" rx="8.5" ry="20.3"/>
				</g>
			</g>
		</g>
		<path class="st10" d="M1139.6,461.8c-2.4,2.2-3.9,5.3-5.2,8.3c-1.4,3.4-3,6.7-4.5,10.1c-3.5,8-6.9,16-10.8,23.9
			c-2.9,5.6-4.7,10.5-4.3,16.6c0.4,6.1,6.6,9.7,11,9.8c5.1,0,8.1-3.5,10-8.3c1.7-4.2,2.4-8.9,3.4-13.3c1.8-8.3,3.4-16.7,4.9-25
			c0.7-3.7,1.3-7.3,2-11c0.6-3.2,1.4-8.5,0.3-10.4C1145.2,459.6,1141.9,459.8,1139.6,461.8C1139.7,461.8,1139.6,461.8,1139.6,461.8
			L1139.6,461.8z"/>
		<g>
			<path class="st10" d="M1132.6,527c-2.2,2.6-5.5,3.3-6.6,3.5c-4.7,0.7-21.6-1.3-31.8-2.7c-0.4,0-0.7-0.1-1.1-0.2
				c-0.5-0.1-0.9-0.1-1.3-0.2c-1.7-0.2-3.1-0.4-4.1-0.6c-2.4-0.3-4.8-0.7-7.2-1c-0.7-0.1-1.4-0.2-2.1-0.3c-1.6-0.3-3.2-0.5-4.8-0.8
				c-0.1,0-0.2,0-0.2,0c-3.5-0.7-6.9-1.5-10.2-2.9c-2.3-1-4.6-2.2-6.2-3.9c-2.4-2.6-3.1-6.3-1.8-9.4c1.4-3.5,6.1-5.8,10-6.9
				c3.8-1,7.7-0.2,11.5,0.5l2.1,0.4l0.5,0.1l5.2,1l3.1,0.6c3.4,0.7,6.8,1.4,10.2,2.2c0.8,0.2,2,0.4,3.5,0.7c0.1,0,0.1,0,0.2,0
				c0.1,0,0.2,0,0.3,0.1c10.1,2.1,31.9,6.8,32.6,13.2C1134.6,522.6,1134.1,525.2,1132.6,527L1132.6,527z"/>
			<path class="st11" d="M1101.3,507.1c-0.9,8-4.1,14.7-8.2,20.4c-0.5-0.1-0.9-0.1-1.3-0.2c-1.7-0.2-3.1-0.4-4.1-0.6
				c-2.4-0.3-4.8-0.7-7.2-1c-0.7-0.1-1.4-0.2-2.1-0.3c-1.6-0.3-3.2-0.5-4.8-0.8c1-5.6,2.2-11,3.6-16.5c0.5-1.9,1-3.8,1.5-5.7
				l0.5,0.1l5.2,1l3.1,0.6c3.4,0.7,6.8,1.4,10.2,2.2C1098.6,506.6,1099.8,506.8,1101.3,507.1L1101.3,507.1z"/>
			<path class="st4" d="M1061.9,493.8c-6.2,1.1-11.8,4.9-13.1,11.2s3.3,15.4,9.5,18.2c9,4.1,30.1,6.8,30.1,6.8
				c4.5-8.2,7.3-17.6,6.8-27C1095.1,503,1067,492.9,1061.9,493.8L1061.9,493.8z"/>
		</g>
		<path d="M1044.9,428.2c-5.2-5.7-5-17,1.8-21.6c3.2-2.2,7.2-3.5,10.9-2.3c6.1,2,11.5,7.2,12,13.6c0.5,6.7-3,12.4-9.4,14.4
			C1054.3,434.3,1049.1,432.8,1044.9,428.2L1044.9,428.2z"/>
	</g>
	<g>
		<g>
			<g>
				<path class="st16" d="M1494,823.5c-3.3-36.7-6.6-73.5-10-110.2c-0.2-2.2,0-5,2.1-5.6c1.9-0.6,3.6,1.2,4.7,2.8
					c5.1,7.5,7.7,16.4,10,25.2c6.6,25.6,10.3,51.9,11.1,78.3"/>
				<path class="st16" d="M1566.6,838.4c6.5-48.8,2.2-98.1-0.3-147.2c1.7-0.8,3.1-0.2,4.4,1.3s1.9,3.3,2.4,5.2
					c11.9,40.4,16.7,80.7,15.9,122.8"/>
				<path class="st16" d="M1611.3,835.3c-0.1-59.2,2.7-120,26.3-174.3c1.6-3.7,5-8,8.6-6.3c1,2.7-1.2,11.8-2.5,17.6
					c-10.8,48.3-13.8,98.3-9.1,147.6"/>
				<path class="st16" d="M1647.9,817.4c-1.9-70.4,29.8-139,77.2-191.1c4.2-4.6,9.2-9.4,15.4-9.5c-7,11.2-13.9,22.3-20.9,33.5
					c-4.6,7.3-9.2,14.7-13.4,22.2c-24.3,42.5-39.1,90.5-42.9,139.4"/>
				<path class="st16" d="M1713.7,832.6c18.5-33.7,42.8-64.1,71.6-89.5c4.8-4.2,9.9-8.4,16-10.3c1.2-0.4,2.7-0.5,3.4,0.4
					c1,1.3-0.2,3-1.3,4.2c-31.2,31.6-56.4,69.2-73.9,110"/>
			</g>
			<path class="st16" d="M1463,837.8c-1.7-32.7-7.1-65.1-16-96.6c-2.7-9.4-6.7-22.8-7.7-29c3.2-1.3,7.9,1.2,12.1,8.8
				c19.9,36.2,28.8,73.4,33.6,114.4"/>
		</g>
		<g>
			<path class="st4" d="M1693.3,559.5c8.8-6.6,18.3-12.7,28.8-15.8c12.7-3.8,26.4-3,39.3-6c1.9,14.8-8.4,28.9-21.3,36.2
				c-12.9,7.4-28.1,9.4-42.8,11.4c-14.7,2-29.9,4.3-42.6,12c2.4-3,4.7-6,6.7-8.3C1671,578.1,1681.7,568.3,1693.3,559.5L1693.3,559.5
				z"/>
			<path class="st4" d="M1678.9,602.4c3.3-0.4,9.9-1.2,12.3,1.8c3.1,3.8-1.7,9.1-4.1,11.5c-2.6,2.6-5.6,4.9-8.6,7.1
				c-6,4.3-12.5,7.9-18.9,11.5c-6.6,3.6-13.2,7.2-19.4,11.5c-4.8,3.3-13.3,8.7-15.7,14.2c7.9-19.1,19.6-35.8,35.9-48.6
				c4-3.2,8.2-6.1,13-7.8C1674.6,603.1,1676.6,602.7,1678.9,602.4L1678.9,602.4z"/>
			<path class="st4" d="M1623.6,650.4c-1.5,6.5-3,12.9-4.5,19.4c-1.1,4.8-3.4,11.3-2.9,16.2c-0.9-9.5-1.9-19-2-28.6
				c-0.1-6.1-0.5-12.3,0.6-18.4c0.5-2.7,1.2-6,3.4-7.9c4.6-3.8,7.6,0.9,7.6,5.5C1625.7,641.2,1624.7,645.8,1623.6,650.4
				L1623.6,650.4z"/>
			<path class="st4" d="M1674,561.7c-11.2,21.2-25.8,40.5-35.6,62.4c3.7-12.9,7.7-25.7,12-38.4c2.1-6.3,4.3-12.5,6.6-18.7
				c2-5.5,3.3-10.9,7.9-14.8c2.7-2.3,7.1-3.7,9.6-1.2C1677.3,553.6,1675.4,558.9,1674,561.7z"/>
			<path class="st4" d="M1615.8,811.1c-14.8-78.1-10.6-170.4,52.5-227c8.7-7.7,18.3-14.3,28.7-19.3c-19.7,12-36.1,28.6-48.7,47.5
				C1609.1,670.5,1609.3,743.7,1615.8,811.1L1615.8,811.1L1615.8,811.1z"/>
		</g>
		<g>
			<path class="st16" d="M1525.5,866.4c9.5-31.3,43.4-78.6,54.5-90.2c9.1-9.5,23-11.7,23.1,5.1c0,4.7-1.3,9.3-3,13.7
				c10.6-17.2,36.2-46.3,43.9-53.7c12.5-12.2,40.4-31,43.5-5.9c0.5,4.3,0.4,8.6-0.4,12.8c8.3-14.5,19.7-27.2,33.2-37.1
				c6.4-4.7,13.5-8.9,21.4-10.3c6.1-1.1,12.3-0.3,17.8,2.6c6,3.2,8.8,8.4,10.2,14.7c3,13.5,0.4,28.8-4.9,41.6
				c3.6-4.3,11.1-2.8,14.4,1.7c3.4,4.4,3.6,10.5,3,16c-1,10-4,19.7-8.8,28.5c7-7.3,20.4-4.7,26.5,3.4s6.3,19.3,3.6,29.1
				c-2.6,9.8-7.7,18.7-11.2,28.2"/>
			<path class="st4" d="M1400.6,866.4c7.2-22.5,16.2-43.4,33.6-60.1c2.2-2.1,4.6-4.2,7.5-5.1s6.4-0.4,8.3,2c1.4,1.8,1.7,4.2,1.8,6.4
				c0.4,6.7,0.2,13.4-0.5,20.1c14.4-41.6,21-62.9,47.6-96.9c3.9-4.9,17.2-19.9,32.6-25c17.4-5.7,17.9,17.4,17.3,28.2
				c-1.7,29.6-8.7,59-20.5,86.2c9-11.6,17.7-22.7,29.3-32c2.7-2.2,5.6-4.3,8.9-5.5c2.9-1.1,6.5-1.5,9,0.3c3.6,2.6,3.4,7.9,2.5,12.3
				c-1.7,8.3-4.7,16.4-8.8,23.8c6-6.7,12.5-13.5,21-16c2.7-0.8,6.3-0.7,7.3,1.9c0.4,1,0.2,2.2,0,3.2c-0.6,2.8-1.3,5.7-2.2,8.4
				c16.1-22.9,27.8-48.6,48-68.6c5.8-5.8,13.2-10.4,21.8-8c7.2,2,8.6,9.6,9,16.3c1.1,15.3-1.2,30.8-6.7,45.2
				c7.4-19.2,18.9-36.8,33.5-51.3c5.9-5.9,12.5-11.4,20.3-14.3s17.1-3,24.1,1.5c12.9,8.2,13.2,26.8,10.8,41.9
				c-3.1,19.2-8.2,38.2-15.3,56.3c26.6-25.4,40.9,2.1,30.2,28.4"/>
		</g>
	</g>
	<path class="st17" d="M930.8,863.4H1811c1.6,0,2.8,1.3,2.8,2.8l0,0c0,1.6-1.3,2.8-2.8,2.8H930.8c-1.6,0-2.8-1.3-2.8-2.8l0,0
		C928,864.6,929.2,863.4,930.8,863.4z"/>
	<g>
		<path class="st3" d="M1625.6,439.4c-3.7,2.8-12.3,2.6-18.2,2.6h-165.2c-5.5,0-7.8-5.3-8-10.8c-0.2-5.5,4-10.8,9.3-12.3
			s11.3,0.3,15.2,4.3c-3.4-6.8-4.9-15.4-0.6-21.7c3.4-4.9,9.8-7.2,15.6-6.3c5.9,0.9,11.1,4.6,14.5,9.4c-2.9-17.2,0.3-28.8,4.3-36.3
			c5.5-10.3,16-18.5,27.2-21.9c15.5-4.6,33.3-0.1,45,11.1c11.7,11.2,16.9,28.6,13.7,44.5c4-5.2,11.8-7.8,17.7-5
			c4.2,2,7.2,5.9,8.7,10.2s1.7,9,1.2,13.6c3-3.8,8.7-5.4,12.7-4.2c6.5,1.9,10.3,10.6,9.2,17.4C1627.9,436.5,1627,438.4,1625.6,439.4
			L1625.6,439.4z"/>
		<path class="st3" d="M1400,332.1c-0.3-0.1-0.5-0.3-0.8-0.4c-7.8-3.8-18-2.1-24.2,4c0-6.8,0-13.8-2.6-20c-5.3-12.4-21.3-18.6-34-14
			c-4.1,1.5-7.8,4-10.8,7c-3,3.1-5.4,6.8-7.1,10.8c-0.8,2-1.4,4.1-1.8,6.2c-0.4,2-0.8,4.2-0.7,6.2c-2.8-1.9-6.1-3.5-9.6-3.3
			c-3.4,0.2-6.8,2.1-8.6,5c-0.6,1-1,2-1.3,3.1c-0.8,2.4-0.9,5-0.3,7.5c2.5,9.7,13.7,9.2,21.4,9.2h74.5
			C1405.5,353.4,1410.1,337.9,1400,332.1L1400,332.1z"/>
	</g>
	<path class="st10" d="M1151.2,465.1c1.3-0.1,2.6-0.1,3.8-0.1c0.6-4.9,1.9-9.8,3.4-14.1s4.2-8.7,7.7-12c0.6-0.6,1.3-1.2,2.2-1.4
		s1.8-0.2,2.4,0.5c0.7,0.7,0.7,1.7,0.7,2.6c0,1.4-0.1,2.7-0.3,4c-0.4,3-0.4,6,0,9c0.3,2.6,1,5.2,1.1,7.8s-0.7,7-2.5,8.9
		c-1.5,1.6-5.4,1.9-7.8,1.7c-4.6-0.3-13.2-1.7-15.5-4.8C1147.9,465.3,1149.4,465.3,1151.2,465.1L1151.2,465.1z"/>
	<g>
		<path class="st16" d="M1689.9,513.2c4,7,7.2,18.7,6.7,26.7c-0.5,8-3.8,16-9.6,21.6c-8.8,8.4-20.4,8.6-31.5,6.5
			c-2.9,8.2-11.2,32.7-13.4,36.2c-1.6,2.6-5.2,7.1-7.5,2.3c-0.7-1.4-0.7-3-0.6-4.6c0.2-4.5,0.6-9.1,1.4-13.6
			c-1.9,5.5-3.3,11.1-4.7,16.7c-1.2,5.2-3.2,10.2-5.4,15c-0.4,0.8-0.8,1.8-1.7,2.1c-1.2,0.5-2.5-0.3-3.1-1.4
			c-0.6-1.1-0.6-2.4-0.6-3.6c0.3-10.8,2.2-21.5,4.1-32.1c-4.6,16.2-9.1,32.3-13.7,48.5c-1.5,5.2-6.9,6.7-7,0.1
			c-0.2-18.7,2.5-37.5,7.9-55.4c2.7-9,6.2-17.9,10.3-26.4c3.7-7.8,7.5-13.5,12.6-20.4c4.1-5.5,15.4-19.5,26.9-38.6
			c3.1-5.1,7.4-9.5,13-11.5c5.6-2.1,12.7-1.3,17.2,2.5c2.7,2.3,4.5,5.6,5.4,9.1C1698.8,500.3,1696.7,509.5,1689.9,513.2
			L1689.9,513.2z"/>
		<path class="st3" d="M1696.7,539.9c-0.5,8-3.8,16-9.6,21.6c-8.8,8.4-20.4,8.6-31.5,6.5c4.8-0.3,35.9-8.8,25.3-52.1
			c3-0.2,6.8-1.1,9.1-2.7C1693.9,520.2,1697.2,531.8,1696.7,539.9L1696.7,539.9z"/>
		<circle cx="1680.3" cy="498" r="4.1"/>
		<path class="st18" d="M1637.7,533.8c-4.4,3.7-7.7,11-4.1,10.8c0.9,0,1.8-0.4,2.6-1c-1.5,2.4-7.3,13.8-0.2,13.1
			c2.3-0.2,4.5-1.8,6.3-3.2c1.9-1.5,3.7-3.2,5.2-5c0,1.7,0.2,3.6,1.5,4.6c3.9,3,9.1-2.4,11.3-5.2c3.8-4.7,6.8-10,8.1-16
			c0.9-4.3,0.7-9.1-1.6-12.8"/>
		<g>
			<path class="st4" d="M1711.2,506.3c-0.2-3.3-1.3-6.8-3.1-9.5c-2.8-4.1-7.7-6.7-12.3-6.7c0,0-3.1,1.4-4.9,4.9
				c-2.7,5.1-2.4,12.2,1.1,16.6c3.2-0.9,7.8-0.4,10.4,2.3c1.7,1.8,2.7,4,3,6.4c0.2,1.1,1.6,1.5,2.2,0.5
				C1710.2,516.5,1711.5,511.4,1711.2,506.3L1711.2,506.3z"/>
			<path class="st18" d="M1691.5,503.8c4.5,0.1,9,1.1,11.8,4.9c2.5,3.3,3.3,7.8,3.5,11.8"/>
		</g>
		<path class="st18" d="M1610.9,632.2c0.5-2.3,10.4-41.7,17.9-58.7"/>
		<path class="st18" d="M1626.8,617c4.5-13.2,7.4-25.8,11.3-38.5"/>
	</g>
	<g>
		<g>
			<g>
				<path class="st13" d="M1346.6,854.2c-0.8,3.5,0.3,7.3,2.8,9.6c19.5,0,39.6,1.7,59.1,0c5.1-0.5,5.7-5.9,1.8-9.1
					c-5.2-4.2-12.8-6-19.2-7.1c-10.1-1.8-19.9-4.7-29.8-6.9c-3.6-0.8-8.5-1.4-10.2,2.2C1349.5,845.9,1347.3,850.7,1346.6,854.2
					L1346.6,854.2z"/>
				<path class="st14" d="M1375.8,843.4c0,0,2.2-97.7,1.8-103.5c-0.4-5.4-0.8-11.1-3.8-15.6c-3.6-5.6-10.6-8.3-17.2-8
					c-5.1,0.2-10.1,2.1-13.8,5.6c-4.5,4.3-6.8,10.6-7.5,16.8c-0.6,6.2,4.9,73.3,9.3,107C1353.9,849.4,1367.8,848.5,1375.8,843.4
					L1375.8,843.4z"/>
				<path class="st14" d="M1366.8,740.9c-4,4.3-8.2,8.2-12.7,11.8c-6.8,5.6-14.1,10.7-21.3,15.8c-2.9,2-5.8,4-8.7,6.1
					c-5.6,3.9-11.1,7.8-16.6,11.6c-2.5,1.8-5.1,3.5-7.6,5.2c-5.4,3.6-11,6.8-17.1,8.9c-15.8,5.4-33.8-0.8-41.6-16
					c-5-9.7-3.2-19.2,2.7-26.7c2.1-2.7,4.8-5.2,7.8-7.3c0.6-0.5,1.3-0.9,1.9-1.3c0.5-0.3,1.1-0.7,1.6-1c4.8-2.8,10-5,15.2-7.1
					c11.5-4.7,23-9.4,34.8-13.5c11-3.8,22.2-7,33.6-9c7.8-1.3,17.6-3.4,25.4-1.5C1376.2,720,1373.3,733.9,1366.8,740.9L1366.8,740.9
					z"/>
				<path class="st15" d="M1354.1,752.8c-6.8,5.6-14.1,10.7-21.3,15.8c-2.9,2-5.8,4-8.7,6.1c-5.6,3.9-11.1,7.8-16.6,11.6
					c-7.8,5.5-15.7,11-24.7,14.1c-15.8,5.4-33.8-0.8-41.6-16c-6.9-13.2-1-25.9,10.5-34c0.6-0.5,1.3-0.9,1.9-1.3
					c-1.5,9.4,2.9,15.8,4.3,16.3C1281.3,775.6,1324.5,773.6,1354.1,752.8L1354.1,752.8z"/>
			</g>
			<g>
				<path class="st13" d="M1219.5,847.7C1219.5,847.7,1219.5,847.6,1219.5,847.7c-0.2-4.6-4.8-7-9.4-6.5
					c-14.1,1.4-33.1,6.8-48.9,12.1c-4.5,1.5-3.9,6.7,0.5,8.3c5.2,1.9,13.4,1.9,19.5,1.8c11.1-0.1,18.9,0,28.5-0.2
					c3.4-0.1,8.4-1.8,9.1-5.3C1219.3,854.9,1219.6,850.8,1219.5,847.7L1219.5,847.7z"/>
				<path class="st14" d="M1328.5,844.8c-0.3,6.1-20.7,4.7-34.4-1.8c-5.5-2.6-10.8-5.9-16.1-8.9c-11.3-6.5-22.3-13.5-32.7-21.3
					c-9.6-7.1-19.4-13.7-25.3-24.4c-5.7-10.2-5.2-20.6-1.3-31.2c0.2-0.4,0.3-0.8,0.5-1.2c1.4-3.6,3-7.3,4.6-10.8
					c0.7-0.9,1.4-1.6,2.3-2.2c3.4-2,7.5-2.3,11.4-1.6c0.6,0.1,1.3,0.3,1.9,0.4h0c5.8,1.6,10.8,5.5,15.8,8.8c3,2,5.9,4.1,8.7,6.3
					c1.3,1,2.6,2.1,3.8,3.2c11.8,10.2,21.9,22.2,32.2,33.8c1.1,1.3,2.2,2.5,3.4,3.8c1.2,1.4,2.5,2.8,3.7,4.1
					c0.6,0.6,1.1,1.2,1.7,1.8c4.7,5.1,9.2,11.3,12.8,17.2C1325.2,827.4,1328.8,837.3,1328.5,844.8L1328.5,844.8z"/>
				<path class="st14" d="M1321.9,858c-3.9,2.8-8.9,3.4-13.7,3.9c-2.4,0.2-4.8,0.6-7.3,0.8c-2.7,0.3-5.4,0.5-8.1,0.5h-78.3
					c-2.2-2.5-3.6-6.7-4-11.2c-0.5-5.5,0.6-11.5,3.3-15.1c29.6-5,88.7-13.6,94.2-13.2c5.5,0.4,11.2,2.2,15.1,6.2
					c3.2,3.2,5,7.7,5.4,12.3C1328.9,848.2,1326.7,854.6,1321.9,858L1321.9,858z"/>
				<path class="st15" d="M1301,862.8c-2.7,0.3-5.4,0.5-8.1,0.5h-78.3c-2.2-2.5-3.6-6.7-4-11.2
					C1224.5,861.4,1270.6,861.6,1301,862.8L1301,862.8z"/>
			</g>
			<path class="st15" d="M1305.1,727.5c-9.3,10.8-21.2,19.4-34.4,24.6c-2.3,0.9-4.6,1.7-6.9,2.3c-6.5,1.9-13.3,3-20,3.2
				c-8.4,0.3-15.9-0.4-24-2.7c0.2-0.4,3.4-8.4,5-12c0.7-0.9,0.5-2,1.4-2.5c3.4-2,7.5-2.3,11.4-1.6c0.6,0.1,1.3,0.3,1.9,0.4h0
				c2.4,1.6,5,2.8,7.6,4.1c2.8,1.4,5.5,3,8.1,4.7c4.8-2.8,10-5,15.2-7.1C1281.8,736.2,1293.3,731.5,1305.1,727.5L1305.1,727.5z"/>
		</g>
		<path class="st4" d="M1368,643c2.7,1.7,4.1,4.8,4.9,8.1c1.4,6.4-3.2,12.3-8,14.1c-1.7,0.6-3.4,0.8-5.2,1
			c-7.2,0.5-52.4-0.3-57.1-1.6c-2.5-0.7-4.9-1.6-7.3-2.9c-4.8-2.6-7.7-9.3-8.4-14.4c-0.9-6.5,1.7-16.8,8.4-18.2
			c4.2-0.8,44.7,6.6,58.8,9.5C1359,639.6,1363.7,640.3,1368,643L1368,643z"/>
		<path class="st4" d="M1366.7,594.2c0,0-15.9,47.1-17,51.7c-1.5,6.6-2.2,10.3,1.1,14c3.8,4.2,14.9,8.5,21-0.7
			c5.1-7.7,15.3-59,14.7-59.6C1380.6,594.1,1369.7,592.3,1366.7,594.2L1366.7,594.2z"/>
		<path class="st4" d="M1311.5,657.4c-2.2,23.4-4.8,55.1-6.8,70.3c-5.8,6.5-13.7,11.4-22.4,14.8c-19.8,7.8-44.5,8-62.1,1.5
			c5.1-19.7,9.8-40.5,11.8-60.8c0.9-9.5,1.2-19,1.8-28.6c0.4-6.4-0.4-13.7,1.4-20c0.6-2.3,1.6-4.5,3-6.5c3.1-4.3,16.9-6.1,24.4-6.1
			c11.5,0,23.3,1,33.7,6.3c2.5,1.3,5.2,1.8,10.1,5.2C1310.6,636.7,1312,651.7,1311.5,657.4L1311.5,657.4z"/>
		<path class="st12" d="M1282.2,742.5c-19.8,7.8-44.5,8-62.1,1.5c5.1-19.7,9.8-40.5,11.8-60.8c0.9-9.5,1.2-19,1.8-28.6
			c0.4-6.4-0.4-13.7,1.4-20c0.5-1.4,1.1-2.7,1.6-4.1c1.5,16.2,2.4,32.5,2.7,48.8c0.4,20.3,2.2,42,20.2,54.9
			C1266.2,739,1274.1,741.8,1282.2,742.5L1282.2,742.5z"/>
		<g>
			<path class="st19" d="M1287.4,624.9c-0.3,4.2-4.1,7.1-10.6,6.6c-3.8-0.3-11.3-3.5-13-9.5c1.2-2.5,1.9-5.2,2.3-7.8
				c1.1-8.6-1.7-16.6-1.7-16.6l21.8,5.7c-0.9,4.1-1.7,8.5-1.8,12.9c0,0.9,0,1.7,0.1,2.5C1284.9,621.7,1286.1,623.8,1287.4,624.9z"/>
			<path class="st20" d="M1284.4,616.2c0,0.9,0,1.7,0.1,2.5c-3.3,1.1-13.4-0.7-18.5-4.5c1.1-8.6-1.7-16.6-1.7-16.6l21.8,5.7
				C1285.4,607.5,1284.6,611.9,1284.4,616.2z"/>
		</g>
		<path class="st21" d="M1264.7,620c0.4,5.6,7.1,11.7,16.3,10.9c0,0,5.3-2,6-6.6l11.2,4.2c0,0-0.7,11.4-10.5,15.5l-6.3-11.4
			l-6.3,11.4c-21.8-3.8-20.9-21.9-20.9-21.9L1264.7,620L1264.7,620z"/>
		<path class="st19" d="M1203.4,756.9c0,1.3,0,2.5-0.1,3.8c-0.1,1.9-0.2,3.9-0.4,5.8c-0.2,1.5-0.2,3.1-0.5,4.6
			c-0.2,1.4-0.9,4.4-2.4,5c-1.8,0.7-2.2-2.8-2.3-3.9c-0.2-1.8,0-3.5,0.1-5.2c-1.2,4.6-2.1,9.2-3.8,13.6c-1,2.6-3.5,7.2-6.9,4.5
			c-2.6-2.2-2.1-8-1.8-10.9c0.6-6.3,1.7-12.9,4.1-18.8c0.2-0.5,0.4-0.9,0.6-1.4c0.8-1.8,1.8-3.5,3.2-4.8c1.6-1.5,3.7-2.7,5.8-2.1
			C1203.4,748.3,1203.5,753.1,1203.4,756.9L1203.4,756.9z"/>
		<path class="st20" d="M1203.4,756.9c0,1.3,0,2.5-0.1,3.8c-0.9-0.1-1.7-0.2-2.6-0.4c-2.7-0.6-7.8-2.4-11.3-5
			c0.2-0.5,0.4-0.9,0.6-1.4c0.8-1.8,1.8-3.5,3.2-4.8c1.6-1.5,3.7-2.7,5.8-2.1C1203.4,748.3,1203.5,753.1,1203.4,756.9z"/>
		<path class="st4" d="M1197.2,689.5c-0.5,3.1,0.7,6.3,2.7,9.1c3.1,4.1,10.9,5.5,15.4,3.2c1.6-0.8,2.9-2,4.2-3.2
			c5.2-5,20.6-28,24.6-33.9c2.6-3.8,5.4-7.7,7.5-12c1.2-2.3,2.1-4.7,2.8-7.3c1.6-6.6,1-13.4-3.4-16.9c-4.3-3.4-10.2-3-14.9,0.5
			c-3.5,2.6-6.2,6.6-8.9,10.6c-8.1,12-16.6,24.4-24,36.8C1200.7,680.5,1198,684.5,1197.2,689.5L1197.2,689.5z"/>
		<path class="st4" d="M1187.3,751.6c0,0,8.1-55.4,9.2-60c1.5-6.6,2.6-10.2,7.1-12.1c5.3-2.2,17.1-1.1,18.6,9.8
			c1.2,9.1-13.9,65.9-14.6,66.1C1199.8,757.8,1189.1,754.6,1187.3,751.6L1187.3,751.6z"/>
		<g>
			<g>
				<polygon class="st3" points="1417.6,567.7 1319.9,584.1 1320.5,604.8 1418.9,615.9 				"/>
				
					<ellipse transform="matrix(0.9996 -2.704930e-02 2.704930e-02 0.9996 -15.5983 35.9282)" class="st3" cx="1320.2" cy="594.5" rx="4.2" ry="10.3"/>
				<g>
					
						<ellipse transform="matrix(0.9996 -2.704930e-02 2.704930e-02 0.9996 -15.4905 38.5795)" class="st13" cx="1418.3" cy="591.9" rx="15.5" ry="27.4"/>
					
						<ellipse transform="matrix(0.9996 -2.704930e-02 2.704930e-02 0.9996 -15.489 38.623)" class="st4" cx="1419.9" cy="591.8" rx="8.3" ry="17.5"/>
				</g>
			</g>
			<path class="st19" d="M1369.6,577.1c-0.5,1.7-0.7,3.6,0.9,4.8c1.3,0.9,3.3,1,5.1,0.8c4.1-0.4,8-1.6,11.2-3.6
				c2.7-1.6,5.2-3.8,5.7-6.5c0.5-2.8-2.4-4.2-5.7-4.6C1378.2,567,1371.5,570.9,1369.6,577.1L1369.6,577.1z"/>
		</g>
		<g>
			<path class="st19" d="M1304.7,601.6c-0.9,5-2.6,10.2-6.4,13.7c-6.7,6-17.9,4.1-24.2-2.2c-6.3-6.3-8.7-15.6-9-24.6
				c-0.6-14.5,7.3-24.5,22.2-23.8c8.5,0.4,14.6,2.4,17,10.8C1306.8,584.6,1306.5,592.4,1304.7,601.6L1304.7,601.6z"/>
			<path class="st22" d="M1279.4,574.7c5.9,4.1,12.1,6.2,19.3,5.9c2.1-0.1,5.9-0.4,7.3-2.7c1.8-3,1.7-6.7,0.9-9
				c-0.9-2.5-3-5.5-4.9-7.3c-5.1-4.8-15-8.5-25.3-2c0,0-4.8-1.3-9.9,1.8c-4.2,2.6-7.4,6.5-8.8,12.2c-1.6,6.3-0.8,12,1,18.1
				c1.7,5.7,6,11.3,10.8,15.9c-0.5-2-0.9-4.1-0.6-7.5c-4.4-6.5-3.3-9.6-2.6-11.2c0.6-1.4,2.5-3,4.1-2.7c2.3,0.5,3.9,4.4,4.4,7.6
				c0,0,1.3,1.2,2.6,1.9C1275.8,584.6,1276.5,579.9,1279.4,574.7L1279.4,574.7z"/>
		</g>
	</g>
</g>
</svg>
