<svg xmlns="http://www.w3.org/2000/svg" width="45" height="22">
    <path fill="#973eff" d="M34 0H0v22h34zm0 0v22l4.87-4.68 5.82-5.6a1 1 0 000-1.44z"/>
    <path fill="#fff"
          d="M12.11 10.63l-.32 1.74H9.87l.32-1.74zm-4.66 5.66c0 .4.35.71.74.71.6 0 .93-.3 1.02-.87l.37-2.11h1.92l-.37 2.11-.01.16c0 .4.35.71.74.71.6 0 .94-.3 1.03-.87l.37-2.11h1.81c.62 0 .93-.27.93-.82 0-.54-.31-.82-.93-.82h-1.53l.32-1.75h1.21c.62 0 .93-.27.93-.82 0-.54-.31-.82-.93-.82h-.93l.39-2.12.02-.16c0-.2-.07-.37-.23-.5a.76.76 0 00-.51-.21c-.6 0-.94.3-1.03.87l-.39 2.12h-1.91l.38-2.12.02-.16c0-.4-.35-.71-.74-.71-.6 0-.94.3-1.03.87l-.38 2.12h-1.8C6.3 9 6 9.27 6 9.81c0 .55.31.82.93.82h1.51l-.32 1.75h-1.2c-.6 0-.92.28-.92.82 0 .55.31.82.93.82h.9l-.37 2.11z"/>
</svg>