<svg xmlns="http://www.w3.org/2000/svg" width="321" height="158">
    <title>Group 8</title>
    <desc>Created with Sketch.</desc>
    <g fill="none">
        <g>
            <g>
                <g>
                    <g>
                        <path stroke="#973EFF" stroke-width="3.5"
                              d="M2.25 155.75V2.25h225.38l92.6 77.22-92.6 76.28H2.25z" stroke-linecap="round"
                              stroke-linejoin="round"/>
                        <path fill="#973EFF" fill-rule="nonzero"
                              d="M87 114.5c2.2 0 3.53-1.32 3.92-4l2.68-16.6h11.38c2.3 0 3.7-1.28 3.7-3.37 0-2.15-1.4-3.42-3.7-3.42h-10.3l2.53-15.18h7.68c2.3 0 3.7-1.27 3.7-3.42 0-2.14-1.4-3.4-3.7-3.4h-6.6l2.6-16.62v-.68c0-2-1.08-3.32-2.98-3.32-2.2 0-3.52 1.32-3.9 4l-2.7 16.6H76.33L79 48.5v-.68c0-1.9-1.22-3.32-3.12-3.32-2.2 0-3.47 1.32-3.86 4l-2.73 16.6H58c-2.3 0-3.7 1.28-3.7 3.42 0 2.15 1.4 3.42 3.7 3.42h10.2l-2.48 15.2h-7.7c-2.3 0-3.73 1.26-3.73 3.4 0 2.1 1.4 3.37 3.7 3.37h6.6l-2.7 16.6v.68c0 1.9 1.18 3.32 3.1 3.32 2.2 0 3.5-1.32 3.9-4l2.68-16.6h15.04l-2.74 16.6v.68c0 1.9 1.23 3.32 3.13 3.32zm.7-27.4h-15l2.5-15.18h14.98l-2.5 15.2z"/>
                    </g>
                </g>
            </g>
        </g>
    </g>
</svg>