<?xml version="1.0" encoding="utf-8"?>
<!-- Generator: Adobe Illustrator 24.0.3, SVG Export Plug-In . SVG Version: 6.00 Build 0)  -->
<svg version="1.1" id="Vrstva_1" xmlns="http://www.w3.org/2000/svg" xmlns:xlink="http://www.w3.org/1999/xlink" x="0px"
     y="0px"
     viewBox="0 0 101 51" style="enable-background:new 0 0 101 51;" xml:space="preserve">
<style type="text/css">
	.st0{fill-rule:evenodd;clip-rule:evenodd;fill:#FF5E45;}
	.st1{fill:#FFFFFF;}
</style>
    <g id="hash_2_" transform="translate(0.000000, 5.000000)">
	<path id="Combined-Shape-Copy-13_2_" class="st0" d="M25.4,45.5L25.4,45.5h75.2V-4.5H25.4l0,0L0.9,19.5l0,0c-0.6,0.6-0.6,1.4,0,1.9
		l13.6,13.3L25.4,45.5z"/>
</g>
    <g id="web-monitor_1_">
	<g id="our-story_1_" transform="translate(-828.000000, -1397.000000)">
		<g id="_x32_004_1_" transform="translate(340.000000, 1382.000000)">
			<g id="feature_1_">
				<g id="Group-4_1_" transform="translate(414.000000, 0.000000)">
					
						<g id="Group-3-Copy-2_1_"
                           transform="translate(84.500000, 25.788462) scale(1, -1) translate(-84.500000, -25.788462) translate(74.000000, 15.288462)">
						<g id="Group_1_">
							<path id="Line-2-Copy-4_1_" class="st1" d="M84.3,1.4c1.1,1,1.2,2.7,0.1,3.8s-2.7,1.1-3.8,0.1L65.3-9.9
								c-1.1-1-1.2-2.7-0.1-3.8s2.7-1.1,3.8-0.1L84.3,1.4z"/>
                            <path id="Line-2-Copy-5_1_" class="st1" d="M65.3,1.4c-1.1,1-1.2,2.7-0.1,3.8s2.7,1.1,3.8,0.1L84.3-9.9
								c1.1-1,1.2-2.7,0.1-3.8s-2.7-1.1-3.8-0.1L65.3,1.4z"/>
						</g>
					</g>
				</g>
			</g>
		</g>
	</g>
</g>
</svg>
