<?xml version="1.0" encoding="utf-8"?>
<!-- Generator: Adobe Illustrator 24.0.1, SVG Export Plug-In . SVG Version: 6.00 Build 0)  -->
<svg version="1.1" id="Vrstva_1" xmlns="http://www.w3.org/2000/svg" xmlns:xlink="http://www.w3.org/1999/xlink" x="0px"
     y="0px"
     viewBox="0 0 71 36" style="enable-background:new 0 0 71 36;" xml:space="preserve">
<style type="text/css">
	.st0{fill-rule:evenodd;clip-rule:evenodd;fill:#6122B2;}
	.st1{fill:#FFFFFF;}
</style>
    <path id="Combined-Shape-Copy-13" class="st0"
          d="M60.7,28.3l9.6-9.6c0.4-0.4,0.4-1,0-1.4l0,0L53,0v0H0v36h53v0L60.7,28.3z"/>
    <path id="_x23_" class="st1" d="M11.9,24.3l0.5-2.9h-1.2c-0.8,0-1.2-0.4-1.2-1.1s0.4-1.1,1.2-1.1h1.5l0.4-2.4h-2
	c-0.8,0-1.2-0.4-1.2-1.1c0-0.7,0.4-1.1,1.2-1.1h2.3l0.5-2.9c0.1-0.8,0.6-1.2,1.3-1.2c0.5,0,1,0.4,1,1l0,0.2l-0.5,2.9h2.5l0.5-2.9
	c0.1-0.8,0.6-1.2,1.3-1.2c0.2,0,0.5,0.1,0.7,0.3c0.2,0.2,0.3,0.4,0.3,0.7l0,0.2l-0.5,2.9h1.2c0.8,0,1.2,0.4,1.2,1.1
	c0,0.7-0.4,1.1-1.2,1.1h-1.6l-0.4,2.4h2c0.8,0,1.2,0.4,1.2,1.1s-0.4,1.1-1.2,1.1h-2.4L19,24.3c-0.1,0.8-0.6,1.2-1.3,1.2
	c-0.5,0-1-0.4-1-1l0-0.2l0.5-2.9h-2.5l-0.5,2.9c-0.1,0.8-0.6,1.2-1.3,1.2c-0.5,0-1-0.4-1-1L11.9,24.3z M15.4,16.8L15,19.2h2.5
	l0.4-2.4H15.4z"/>
</svg>
