<svg xmlns="http://www.w3.org/2000/svg" width="103" height="53" viewBox="0 0 103 53">
    <g>
        <g>
            <g>
                <path fill="#271c3b"
                      d="M3.047 2.632h74.798l22.032 23.864-22.032 23.872H3.047zm76.264 49.956l23.27-25.18a1.34 1.34 0 0 0 0-1.816L79.31.404A1.292 1.292 0 0 0 78.388 0H1.776C1.074 0 .505.59.505 1.316v50.368c0 .727.57 1.316 1.271 1.316h76.612c.349-.001.683-.15.923-.412z"/>
            </g>
            <g>
                <path fill="#271c3b"
                      d="M28.539 28.842h-5.573l.832-4.56h5.573zm7.095-4.56c.69 0 1.248-.599 1.248-1.337s-.559-1.336-1.248-1.336h-3.327l.832-4.926c.126-.726-.32-1.424-.998-1.56-.678-.134-1.33.344-1.456 1.07l-.948 5.416h-5.532l.832-4.926a1.398 1.398 0 0 0-.369-1.339 1.185 1.185 0 0 0-1.28-.256c-.439.179-.746.606-.796 1.105l-.882 5.416h-4.741c-.69 0-1.248.598-1.248 1.336 0 .738.559 1.336 1.248 1.336h4.275l-.832 4.561h-4.3c-.69 0-1.248.599-1.248 1.337s.559 1.336 1.248 1.336h3.843l-.832 4.917c-.127.728.32 1.429.998 1.568h.233c.597-.005 1.108-.46 1.223-1.087l.948-5.416h5.573l-.832 4.917c-.122.727.322 1.424.999 1.568h.232c.6.002 1.115-.455 1.223-1.087l.957-5.416h4.159c.689 0 1.247-.598 1.247-1.336 0-.738-.558-1.336-1.247-1.336h-3.76l.832-4.561z"/>
            </g>
        </g>
    </g>
</svg>