<svg xmlns="http://www.w3.org/2000/svg" width="82" height="40" viewBox="0 0 82 40">
    <g>
        <g>
            <path fill="#973eff" d="M62.207 0h-62v40h62zm.207.207v40l19.293-19.293a1 1 0 0 0 0-1.414z"/>
        </g>
        <g>
            <g>
                <path fill="#fff"
                      d="M33.994 19.41l-.575 3.194h-3.453l.576-3.194zm-8.39 10.307c0 .725.635 1.283 1.33 1.283 1.08 0 1.686-.53 1.85-1.576l.665-3.85h3.46l-.665 3.85-.03.293c0 .725.636 1.283 1.332 1.283 1.08 0 1.686-.53 1.848-1.576l.666-3.85h3.269c1.109 0 1.671-.488 1.671-1.478s-.562-1.492-1.671-1.492h-2.751l.576-3.194h2.175c1.109 0 1.671-.488 1.671-1.478s-.562-1.493-1.671-1.493h-1.672l.696-3.863.044-.279c0-.363-.133-.67-.414-.92-.281-.251-.592-.377-.932-.377-1.08 0-1.686.53-1.849 1.576l-.695 3.863h-3.446l.695-3.863.03-.279c0-.725-.636-1.297-1.332-1.297-1.08 0-1.686.53-1.848 1.576l-.696 3.863h-3.239c-1.109 0-1.671.502-1.671 1.493 0 .99.562 1.478 1.671 1.478h2.722l-.577 3.194H24.67c-1.109 0-1.671.502-1.671 1.492s.562 1.479 1.671 1.479h1.627l-.665 3.849z"/>
            </g>
        </g>
    </g>
</svg>