<svg xmlns="http://www.w3.org/2000/svg" width="67" height="96">
    <path fill="#1d1d1b"
          d="M63.27 70.28c0 .08-.13 7.9-4.78 12.23a4.72 4.72 0 0 0-1.4 3.36v4.86a1.6 1.6 0 0 1-1.66 1.64H30.6a1.6 1.6 0 0 1-1.6-1.64v-.55a11.33 11.33 0 0 0-3.18-7.78c-1.62-1.55-7.07-7-9.3-12.63-3.27-8.2-9.6-19.3-12.8-22.4a2.08 2.08 0 0 1-.8-2.2 3.25 3.25 0 0 1 2.87-1.6c1-.1 3 1 5.27 3.1a39.66 39.66 0 0 1 6.07 7 28 28 0 0 0 3.63 4.4 4.27 4.27 0 0 0 4.2 1.08 4.8 4.8 0 0 0 3.25-3c.68-2.1.98-4.28.88-6.48v-36a3.2 3.2 0 0 1 3.2-3.2 3.27 3.27 0 0 1 3.2 3.2v32.87a1.45 1.45 0 0 0 2.88 0V32.4a3.2 3.2 0 1 1 6.4 0v14.14a1.45 1.45 0 0 0 2.88 0v-9.4a3.2 3.2 0 1 1 6.4 0V48.1a1.45 1.45 0 0 0 2.88 0v-3a3.2 3.2 0 0 1 .92-2.28 3 3 0 0 1 2.5-.9 3.46 3.46 0 0 1 3 3.5zM26 20.86a9.76 9.76 0 0 1-3.13-7.13 9.37 9.37 0 0 1 4.6-8.38 9.38 9.38 0 0 1 9.56 0 9.37 9.37 0 0 1 4.6 8.38 9.76 9.76 0 0 1-3.13 7.13l-.16.16v-7.3a6.15 6.15 0 0 0-6.1-6.2 6.08 6.08 0 0 0-6.07 6.2V21zM60.72 38.8a5.54 5.54 0 0 0-3.46.86l-.16.1v-2.6a6.3 6.3 0 0 0-2.98-5.34 6 6 0 0 0-6.2.1l-.12.1v-.16A6.26 6.26 0 0 0 44.47 27a6 6 0 0 0-5.87.22l-.15.1v-2.93a12.2 12.2 0 0 0 6.14-10.75 12.4 12.4 0 1 0-24.78 0A12.2 12.2 0 0 0 26 24.35v25.4a19.14 19.14 0 0 1-.78 5.54 1.9 1.9 0 0 1-1.16 1.16 1.78 1.78 0 0 1-1.53-.34 21 21 0 0 1-3.23-3.9C16.8 48.28 10 40.56 5.75 40.56H5.5a5.9 5.9 0 0 0-5.2 3.37 4.7 4.7 0 0 0 1.42 5.3c3 3 9.08 13.8 12.07 21.46 1.63 4 5 8.63 10 13.65a8 8 0 0 1 2.34 5.6v.55a4.6 4.6 0 0 0 4.54 4.65h24.88a4.6 4.6 0 0 0 4.54-4.65v-4.86a1.52 1.52 0 0 1 .47-1.18c5.76-5.3 5.83-14.3 5.83-14.4V45.2a6.3 6.3 0 0 0-5.66-6.4zM20.1 27.32a1.8 1.8 0 0 0 1.66-1 1.55 1.55 0 0 0-.33-1.76 14.75 14.75 0 0 1-.77-21A1.38 1.38 0 0 0 21 2a1.75 1.75 0 0 0-1.33-1 1.82 1.82 0 0 0-1.67.58 17.7 17.7 0 0 0 .88 25.18c.23.45.67.56 1.22.56z"/>
    <path fill="none" stroke="#fff" stroke-width=".5" stroke-miterlimit="50"
          d="M20.1 27.32a1.8 1.8 0 0 0 1.66-1 1.55 1.55 0 0 0-.33-1.76 14.75 14.75 0 0 1-.77-21A1.38 1.38 0 0 0 21 2a1.75 1.75 0 0 0-1.33-1 1.82 1.82 0 0 0-1.67.58 17.7 17.7 0 0 0 .88 25.18c.23.45.67.56 1.22.56z"/>
    <path fill="#1d1d1b"
          d="M46.17 20.7a1.5 1.5 0 0 0 .67 2.1c.4.2.88.23 1.32.1a1.76 1.76 0 0 0 1-.77A17.55 17.55 0 0 0 46.72 1.7a1.62 1.62 0 0 0-1.54-.56 1.77 1.77 0 0 0-1.33 1 1.38 1.38 0 0 0 .33 1.55 14.52 14.52 0 0 1 2 17z"/>
    <path fill="none" stroke="#fff" stroke-width=".5" stroke-miterlimit="50"
          d="M46.17 20.7a1.5 1.5 0 0 0 .67 2.1c.4.2.88.23 1.32.1a1.76 1.76 0 0 0 1-.77A17.55 17.55 0 0 0 46.72 1.7a1.62 1.62 0 0 0-1.54-.56 1.77 1.77 0 0 0-1.33 1 1.38 1.38 0 0 0 .33 1.55 14.52 14.52 0 0 1 2 17z"/>
</svg>