<?xml version="1.0" encoding="utf-8"?>
<svg id="Artwork" xmlns="http://www.w3.org/2000/svg" viewBox="0 0 711.127 115.47">
  <defs>
    <style>
      .cls-1, .cls-2, .cls-3 {
        fill: none;
      }

      .cls-2 {
        clip-path: url(#clippath-1);
      }

      .cls-4 {
        fill: #fff;
      }

      .cls-5 {
        fill: #973bfc;
      }

      .cls-3 {
        clip-path: url(#clippath);
      }
    </style>
    <clipPath id="clippath">
      <rect class="cls-1" x="89.89" y="122.87" width="711.11" height="115.48"/>
    </clipPath>
    <clipPath id="clippath-1">
      <rect class="cls-1" x="89.89" y="122.87" width="711.11" height="115.48"/>
    </clipPath>
  </defs>
  <g id="_003_Landscape" data-name="003 Landscape" transform="matrix(1, 0, 0, 1, -89.88, -122.879993)">
    <g class="cls-3">
      <g class="cls-2">
        <path class="cls-4" d="m273.19,160.99c-.26-2.79,1.79-5.26,4.58-5.53,2.79-.26,5.26,1.79,5.53,4.58.03.31.03.63,0,.95v1.25c.59-2.17,1.88-4.09,3.66-5.46,1.99-1.61,4.49-2.44,7.04-2.35,6.92,0,11.18,2.64,12.77,7.93.77-2.26,2.24-4.21,4.21-5.57,2.3-1.61,5.06-2.44,7.87-2.35,9.38,0,14.09,5.79,14.09,15.18v36.37c.26,2.77-1.78,5.23-4.55,5.49-2.77.26-5.23-1.78-5.49-4.55-.03-.31-.03-.63,0-.94v-33.58c0-6.4-1.97-9.07-6.4-9.07-5.62,0-8.4,5.03-8.4,15.13v27.52c.26,2.77-1.78,5.23-4.55,5.49-2.78.26-5.24-1.78-5.5-4.55-.03-.31-.03-.63,0-.94v-33.58c0-6.4-1.75-9.07-6.4-9.07-5.62,0-8.4,5.48-8.35,16.44v26.21c.26,2.79-1.79,5.26-4.58,5.53s-5.26-1.79-5.53-4.58c-.03-.31-.03-.63,0-.95v-44.99Z"/>
        <path class="cls-4" d="m395.5,194.89c-1.53.03-2.97.73-3.94,1.91-3.93,4.53-9.49,6.82-16.75,6.82-4.4.12-8.65-1.58-11.77-4.69-3.07-3.08-5.01-7.1-5.51-11.41h38.65c2.86.26,5.38-1.86,5.63-4.71.03-.3.03-.6,0-.91.21-7.29-2.52-14.36-7.59-19.6-5.06-5.26-12.12-8.13-19.41-7.87-8.47,0-15.24,2.79-20.25,8.31-9.98,12.05-9.98,29.5,0,41.55,5.02,5.51,11.77,8.24,20.25,8.24,9.88,0,17.86-2.84,23.8-8.58,2.15-1.87,2.38-5.13.5-7.28-.02-.02-.04-.05-.06-.07-.83-1.11-2.16-1.75-3.54-1.71Zm-32.22-27.13c3.11-2.94,7.25-4.52,11.53-4.41,4.03-.18,7.94,1.37,10.75,4.26,2.86,3.09,4.85,6.87,5.79,10.97h-33.83c.66-4.15,2.68-7.95,5.75-10.82"/>
        <path class="cls-4" d="m432.9,132.04c3.12,0,5.03,2.3,5.03,5.57v17.92h20.25c3.48,0,5.24,1.47,5.24,4.41s-1.75,4.41-5.24,4.41h-20.25v29.27c0,6.82,3.6,9.89,8.62,9.89,2.7.1,5.38-.54,7.75-1.85l3.22-2.3c.85-.66,1.87-1.05,2.94-1.15,2.51-.03,4.57,1.98,4.6,4.49,0,.1,0,.21,0,.32,0,1.69-1.09,3.32-3.22,4.85-4.64,3.16-10.17,4.75-15.78,4.53-5.52,0-9.93-1.47-13.24-4.31-3.31-2.84-4.96-7.35-4.96-13.54v-30.08h-14.53c-3.5,0-5.24-1.47-5.24-4.41s1.74-4.41,5.24-4.41h14.53v-18.03c-.24-2.83,1.87-5.32,4.7-5.56.11,0,.23-.01.34-.02Z"/>
        <path class="cls-4" d="m524.09,155.53c-2.78,0-4.75,2.24-5.02,5.78-1.74-2.31-4.11-4.07-6.82-5.07-2.82-1.19-5.84-1.81-8.9-1.81-8.09,0-14.47,2.84-19.12,8.58-4.73,5.76-7.23,13.03-7.04,20.47-.2,7.46,2.24,14.75,6.88,20.59,4.63,5.62,11.07,8.46,19.33,8.46,3.05-.01,6.07-.61,8.9-1.75,2.71-1.04,5.07-2.82,6.82-5.13.26,3.56,2.18,5.79,5.02,5.79,2.84.16,5.27-2.02,5.42-4.86.01-.24,0-.48-.01-.72v-44.77c.23-2.83-1.87-5.32-4.71-5.55-.25-.02-.5-.02-.75,0m-9.12,42.52c-5.21,6.45-14.67,7.45-21.12,2.24-.82-.66-1.57-1.41-2.24-2.24-3.07-4.23-4.62-9.36-4.41-14.58-.22-5.2,1.34-10.32,4.41-14.52,5.14-6.45,14.53-7.51,20.98-2.38.88.7,1.68,1.5,2.38,2.38,3.1,4.19,4.66,9.31,4.41,14.52.24,5.22-1.32,10.36-4.41,14.58"/>
        <path class="cls-5" d="m566.79,202.48v-60.39h-12.5c-3.12,0-5.51-1.63-5.51-4.41s2.4-4.41,5.51-4.41h17.52c2.6-.16,4.85,1.81,5.03,4.41v64.86h16.18c3.12,0,5.51,1.65,5.51,4.49s-2.4,4.41-5.51,4.41h-42.45c-3.1,0-5.46-1.63-5.46-4.41s2.35-4.49,5.46-4.49l16.22-.06Z"/>
        <path class="cls-5" d="m651.03,155.53c-2.78,0-4.75,2.24-5.02,5.78-1.75-2.3-4.11-4.06-6.82-5.07-2.79-1.18-5.79-1.8-8.82-1.81-8.09,0-14.47,2.84-19.12,8.58-4.73,5.76-7.23,13.03-7.04,20.47-.2,7.46,2.24,14.75,6.88,20.59,4.63,5.62,11.07,8.46,19.32,8.46,3.05-.01,6.07-.61,8.9-1.75,2.71-1.04,5.07-2.82,6.82-5.13.27,3.56,2.18,5.79,5.02,5.79,2.84.16,5.27-2.02,5.42-4.86.01-.24.01-.48-.01-.72v-44.77c.24-2.83-1.87-5.32-4.7-5.56-.28-.02-.55-.02-.83,0m-9.12,42.52c-5.21,6.45-14.67,7.45-21.12,2.24-.82-.66-1.57-1.41-2.24-2.24-3.07-4.23-4.62-9.36-4.41-14.58-.22-5.2,1.34-10.32,4.41-14.52,5.14-6.45,14.53-7.51,20.98-2.38.88.7,1.68,1.5,2.38,2.38,3.1,4.19,4.66,9.31,4.41,14.52.24,5.22-1.32,10.36-4.41,14.58"/>
        <path class="cls-5" d="m674,160.99c-.26-2.79,1.79-5.26,4.58-5.53,2.79-.26,5.26,1.79,5.53,4.58.03.31.03.63,0,.95v1.25c.57-2.17,1.84-4.09,3.62-5.46,1.99-1.6,4.49-2.44,7.04-2.35,6.94,0,11.2,2.64,12.78,7.93.76-2.26,2.24-4.22,4.21-5.57,2.29-1.61,5.05-2.44,7.85-2.35,9.4,0,14.09,5.79,14.09,15.18v36.37c.26,2.77-1.78,5.23-4.55,5.49-2.77.26-5.23-1.78-5.49-4.55-.03-.31-.03-.63,0-.94v-33.58c0-6.4-1.97-9.07-6.38-9.07-5.63,0-8.41,5.03-8.41,15.13v27.52c.26,2.77-1.78,5.23-4.55,5.49-2.77.26-5.23-1.78-5.49-4.55-.03-.31-.03-.63,0-.94v-33.58c0-6.4-1.75-9.07-6.4-9.07-5.62,0-8.4,5.48-8.34,16.44v26.21c.26,2.79-1.79,5.26-4.58,5.53s-5.26-1.79-5.53-4.58c-.03-.31-.03-.63,0-.95l.03-44.99Z"/>
        <path class="cls-5" d="m795.56,155.53c-2.78,0-4.74,2.24-5.02,5.78-1.74-2.31-4.11-4.07-6.82-5.07-2.79-1.18-5.79-1.8-8.82-1.81-8.09,0-14.47,2.84-19.12,8.58-4.72,5.76-7.22,13.03-7.04,20.47-.2,7.46,2.24,14.75,6.88,20.59,4.63,5.62,11.07,8.46,19.33,8.46,3.03-.02,6.02-.61,8.82-1.75,2.71-1.03,5.08-2.81,6.82-5.13.28,3.56,2.18,5.79,5.02,5.79,2.84.13,5.25-2.07,5.38-4.91.01-.21,0-.41,0-.62v-44.81c.23-2.83-1.88-5.32-4.71-5.55-.23-.02-.47-.02-.7-.01m-9.1,42.52c-5.22,6.45-14.69,7.45-21.14,2.23-.82-.66-1.57-1.41-2.23-2.23-3.07-4.23-4.62-9.36-4.41-14.58-.22-5.2,1.34-10.32,4.41-14.52,5.14-6.45,14.55-7.51,21-2.37.88.7,1.67,1.49,2.37,2.37,3.09,4.19,4.65,9.32,4.41,14.52.23,5.22-1.33,10.36-4.41,14.58"/>
        <path class="cls-5" d="m111.26,195.27h-20.18c-.66,0-1.2.53-1.2,1.19v17.9c0,.66.54,1.2,1.2,1.2h13.07c.49,0,.93-.3,1.11-.75l7.11-17.9c.31-.79-.27-1.64-1.11-1.64"/>
        <path class="cls-5" d="m180.66,195.27h-44.34l12.49-70.99c.13-.73-.43-1.4-1.18-1.4h-17.88c-.58,0-1.08.42-1.18.99l-4.53,25.81h-24.94c-.66,0-1.19.53-1.19,1.19v17.92c0,.66.53,1.19,1.19,1.19h21.37l-11.77,66.97c-.13.73.43,1.4,1.18,1.4h17.87c.58,0,1.08-.42,1.18-.99l3.83-21.8h25.47l-3.76,21.39c-.13.73.43,1.4,1.18,1.4h17.87c.58,0,1.08-.42,1.18-.99l7.16-40.7c.13-.73-.43-1.4-1.18-1.4"/>
        <path class="cls-5" d="m204.16,195.27h-13.74c-.49,0-.93.3-1.11.75l-7.09,17.9c-.31.79.27,1.64,1.11,1.64h20.84c.66,0,1.2-.54,1.2-1.2v-17.9c0-.66-.54-1.19-1.2-1.19"/>
        <path class="cls-5" d="m212.19,149.67h-22.09l4.46-25.39c.13-.73-.43-1.4-1.18-1.4h-17.87c-.58,0-1.08.42-1.18.99l-4.53,25.81h-17.13c-.49,0-.93.3-1.11.75l-7.09,17.92c-.31.78.27,1.64,1.11,1.64h20.66l-2.92,16.66c-.11.63.29,1.23.91,1.37l17.17,3.99c.67.15,1.33-.28,1.45-.96l3.7-21.06h25.66c.66,0,1.19-.53,1.19-1.19v-17.92c0-.66-.53-1.19-1.19-1.19"/>
      </g>
    </g>
  </g>
</svg>