<svg xmlns="http://www.w3.org/2000/svg" xmlns:xlink="http://www.w3.org/1999/xlink" preserveAspectRatio="xMidYMid"
     width="59" height="50.97" viewBox="0 0 59 50.97">
    <defs>
        <style>
            .cls-1 {
            fill: #7b18ee;
            }

            .cls-1, .cls-2, .cls-3 {
            fill-rule: evenodd;
            }

            .cls-2 {
            fill: #4b138c;
            }

            .cls-3 {
            fill: #ff5e45;
            }
        </style>
    </defs>
    <g>
        <g>
            <path d="M28.154,33.040 L31.214,34.185 L31.154,36.341 L31.095,38.527 L27.975,39.493 C27.675,40.486 27.251,41.437 26.713,42.322 L28.064,45.316 L24.900,48.311 L22.011,46.814 C21.102,47.302 20.134,47.673 19.131,47.914 L17.988,50.983 L13.630,50.863 L12.667,47.727 C11.677,47.426 10.729,47.002 9.846,46.462 L6.935,47.854 L5.442,46.260 L3.950,44.673 L5.442,41.783 C4.956,40.868 4.588,39.895 4.345,38.887 L1.240,37.711 L1.360,33.340 L4.457,32.411 C4.758,31.419 5.182,30.468 5.719,29.582 L4.360,26.587 L5.950,25.090 L7.532,23.593 L10.413,25.090 C11.326,24.603 12.296,24.233 13.302,23.990 L14.473,20.920 L18.832,21.040 L19.795,24.169 C20.783,24.464 21.731,24.881 22.616,25.412 L25.564,24.079 L28.549,27.253 L27.057,30.150 C27.544,31.063 27.913,32.034 28.154,33.040 ZM22.391,30.106 C19.174,26.693 13.808,26.542 10.406,29.769 C7.003,32.995 6.853,38.378 10.070,41.791 C13.287,45.203 18.653,45.354 22.055,42.127 C25.458,38.901 25.608,33.518 22.391,30.106 Z"
                  class="cls-1"/>
            <path d="M10.070,41.790 C6.853,38.378 7.003,32.995 10.406,29.768 L5.980,25.067 L4.390,26.564 L5.749,29.559 C5.212,30.445 4.788,31.396 4.487,32.388 L1.360,33.339 L1.300,35.525 L1.240,37.711 L4.345,38.886 C4.588,39.894 4.956,40.868 5.442,41.783 L3.950,44.673 L5.442,46.259 L6.935,47.854 L9.921,46.491 C10.804,47.031 11.752,47.456 12.742,47.756 L13.630,50.863 L15.809,50.923 L17.988,50.983 L19.131,47.914 C20.134,47.672 21.102,47.302 22.011,46.813 L24.900,48.310 L26.482,46.813 L22.056,42.112 C18.658,45.343 13.291,45.199 10.070,41.790 L10.070,41.790 Z"
                  class="cls-2"/>
        </g>
        <path d="M55.957,32.250 C55.727,33.261 55.371,34.240 54.896,35.161 L56.451,38.053 L53.503,41.262 L50.517,39.970 C49.644,40.522 48.704,40.958 47.720,41.270 L46.794,44.411 L42.438,44.597 L41.259,41.535 C40.251,41.305 39.276,40.947 38.357,40.470 L35.550,42.063 L33.950,40.577 L32.351,39.098 L33.639,36.112 C33.090,35.232 32.655,34.287 32.343,33.298 L29.164,32.343 L28.979,27.974 L32.004,26.831 C32.236,25.820 32.592,24.842 33.066,23.920 L31.502,21.028 L32.984,19.423 L34.458,17.819 L37.436,19.111 C38.313,18.561 39.255,18.124 40.241,17.811 L41.197,14.667 L45.553,14.482 L46.731,17.536 C47.738,17.761 48.712,18.111 49.632,18.578 L52.480,17.043 L55.679,20.000 L54.392,22.995 C54.941,23.871 55.377,24.813 55.687,25.800 L58.819,26.729 L58.910,28.884 L59.002,31.068 L55.957,32.250 ZM49.734,23.277 C46.288,20.098 40.925,20.322 37.755,23.779 C34.584,27.236 34.809,32.616 38.256,35.795 C41.702,38.974 47.066,38.749 50.235,35.292 C53.405,31.836 53.181,26.456 49.734,23.277 Z"
              class="cls-1"/>
        <path d="M-0.015,13.586 L1.247,9.912 L29.941,19.822 L28.680,23.496 L-0.015,13.586 Z" class="cls-3"/>
        <path d="M34.522,7.695 C34.585,8.288 34.574,8.886 34.488,9.476 L35.872,10.755 L34.869,13.051 L33.006,12.910 C32.635,13.373 32.206,13.786 31.729,14.140 L31.812,16.021 L29.481,16.939 L28.269,15.497 C27.679,15.561 27.082,15.549 26.494,15.463 L25.267,16.854 L24.120,16.347 L22.976,15.844 L23.118,13.980 C22.657,13.605 22.244,13.173 21.890,12.695 L19.985,12.772 L19.070,10.434 L20.500,9.245 C20.437,8.653 20.448,8.055 20.534,7.465 L19.145,6.188 L19.651,5.037 L20.153,3.890 L22.011,4.033 C22.385,3.569 22.815,3.155 23.292,2.801 L23.225,0.914 L25.557,-0.004 L26.766,1.434 C27.355,1.367 27.949,1.374 28.536,1.456 L29.797,0.087 L32.086,1.094 L31.945,2.962 C32.407,3.334 32.820,3.765 33.172,4.243 L35.047,4.160 L35.498,5.313 L35.955,6.483 L34.522,7.695 ZM29.468,3.989 C27.003,2.908 24.132,4.036 23.054,6.509 C21.977,8.981 23.102,11.861 25.567,12.942 C28.032,14.022 30.904,12.893 31.981,10.421 C33.058,7.949 31.933,5.069 29.468,3.989 Z"
              class="cls-1"/>
        <path d="M25.567,12.942 C23.102,11.861 21.977,8.981 23.054,6.509 L19.661,5.019 L19.156,6.168 L20.545,7.446 C20.459,8.036 20.448,8.634 20.511,9.227 L19.070,10.434 L19.527,11.603 L19.985,12.772 L21.890,12.695 C22.243,13.173 22.656,13.605 23.118,13.980 L22.976,15.844 L24.120,16.346 L25.266,16.854 L26.540,15.462 C27.128,15.548 27.725,15.559 28.315,15.495 L29.481,16.938 L30.646,16.479 L31.812,16.020 L31.729,14.140 C32.205,13.786 32.635,13.373 33.006,12.910 L34.869,13.051 L35.371,11.903 L31.978,10.414 C30.904,12.887 28.034,14.019 25.567,12.942 L25.567,12.942 Z"
              class="cls-2"/>
    </g>
</svg>
