<svg xmlns="http://www.w3.org/2000/svg" width="53" height="68" viewBox="0 0 53 68">
    <g>
        <g>
            <g>
                <path fill="#201431"
                      d="M26 2.17c6.489.004 11.75 5.073 11.758 11.33.003 4.586-2.86 8.723-7.253 10.48-4.393 1.757-9.452.789-12.816-2.453-3.364-3.242-4.371-8.12-2.552-12.357 1.82-4.237 6.107-7 10.863-7zM40 13.5c0-5.46-3.41-10.382-8.642-12.472C26.126-1.062 20.105.093 16.1 3.954s-5.202 9.668-3.035 14.712C15.233 23.711 20.338 27 26 27c7.729-.008 13.992-6.047 14-13.5z"/>
            </g>
            <g>
                <path fill="#201431"
                      d="M12 66c-.552 0-1-.49-1-1.095v-15.81c0-.605.448-1.095 1-1.095s1 .49 1 1.095v15.81C13 65.51 12.552 66 12 66z"/>
            </g>
            <g>
                <path fill="#201431"
                      d="M41 66c-.552 0-1-.49-1-1.095v-15.81c0-.605.448-1.095 1-1.095s1 .49 1 1.095v15.81C42 65.51 41.552 66 41 66z"/>
            </g>
            <g>
                <path fill="#201431"
                      d="M51.903 68c-.61 0-1.104-.497-1.104-1.11V41.986c-.004-4.288-3.462-7.763-7.73-7.767H9.946c-4.27 0-7.733 3.476-7.737 7.767V66.89c0 .613-.494 1.11-1.104 1.11C.494 68 0 67.503 0 66.89V41.986C.008 36.474 4.453 32.008 9.938 32h33.125c5.484.008 9.929 4.474 9.937 9.986V66.89c0 .61-.49 1.106-1.097 1.11z"/>
            </g>
        </g>
    </g>
</svg>