<svg xmlns="http://www.w3.org/2000/svg" width="70" height="67" viewBox="0 0 70 67">
    <g>
        <g>
            <g>
                <g/>
                <g/>
                <g/>
                <g>
                    <path fill="#fff"
                          d="M67.409 8.472c0-1.315-1.035-2.382-2.311-2.382H56.51v3.248c1.936.467 3.424 2.065 3.797 4.078.058.313.088.632.09.951.001 2.715-2.042 4.964-4.67 5.142-2.629.177-4.94-1.778-5.283-4.47-.343-2.691 1.4-5.195 3.984-5.723V6.09H35.743v3.262c2.482.618 4.111 3.067 3.776 5.676-.336 2.609-2.528 4.536-5.08 4.466-2.553-.07-4.643-2.115-4.843-4.739-.2-2.623 1.553-4.98 4.064-5.46V6.09H14.62v3.212c2.016.375 3.606 1.98 4.012 4.05.07.333.105.673.104 1.015-.004 2.682-2.004 4.912-4.599 5.126-2.594.214-4.913-1.66-5.331-4.307-.418-2.647 1.205-5.182 3.732-5.827V6.09H4.04c-1.276 0-2.311 1.067-2.311 2.382v14.15h65.679z"/>
                </g>
                <g>
                    <path fill="#fff"
                          d="M1.73 62.908c.004 1.295 1.036 2.344 2.31 2.348H65.1c1.274-.004 2.306-1.053 2.31-2.348V25.23H1.73z"/>
                </g>
                <g>
                    <path fill="#1d1d1b"
                          d="M15.007 3.452c0-.727.585-1.316 1.307-1.316s1.308.59 1.308 1.316V4.77H15zm21.154 0a1.32 1.32 0 0 1 .623-1.22 1.3 1.3 0 0 1 1.362 0c.418.257.659.728.623 1.22V4.77h-2.608zm20.807-.02a1.318 1.318 0 0 1 .625-1.22c.42-.258.948-.258 1.368 0 .42.256.66.727.625 1.22v1.337h-2.618zm-.007 11.653V12.22a2.954 2.954 0 0 1 1.774 3.327 2.934 2.934 0 0 1-2.929 2.358 2.936 2.936 0 0 1-2.832-2.474 2.952 2.952 0 0 1 1.904-3.253v2.908c0 .58.467 1.049 1.042 1.049s1.041-.47 1.041-1.049zm-20.807.005v-2.822a2.96 2.96 0 0 1 1.71 3.368 2.938 2.938 0 0 1-2.98 2.303 2.942 2.942 0 0 1-2.788-2.535 2.957 2.957 0 0 1 1.972-3.22v2.927c.012.572.475 1.03 1.043 1.03.576 0 1.043-.47 1.043-1.05zm-22.202 1.05c.575 0 1.041-.47 1.041-1.05v-2.906a2.935 2.935 0 0 1 1.998 3.165 2.92 2.92 0 0 1-2.72 2.559 2.912 2.912 0 0 1-2.99-2.232 2.941 2.941 0 0 1 1.63-3.373v2.801a1.046 1.046 0 0 0 1.041 1.037zM2.086 9.202A2.324 2.324 0 0 1 4.402 6.87h8.512v3.215c-2.531.63-4.158 3.112-3.74 5.703.42 2.592 2.743 4.426 5.342 4.216 2.6-.21 4.604-2.392 4.608-5.018a4.68 4.68 0 0 0-.105-.994A5.024 5.024 0 0 0 15 10.027V6.87h19.075v3.137c-2.52.47-4.28 2.78-4.079 5.352.2 2.572 2.297 4.577 4.858 4.646 2.561.069 4.761-1.82 5.097-4.378.337-2.558-1.299-4.959-3.79-5.564V6.87h18.72v3.144c-2.588.517-4.334 2.968-3.99 5.603.344 2.634 2.659 4.548 5.292 4.374 2.633-.174 4.68-2.376 4.68-5.033a5.061 5.061 0 0 0-3.894-4.895V6.87h8.601a2.324 2.324 0 0 1 2.316 2.332v13.851h-65.8zm65.8 53.366A2.33 2.33 0 0 1 65.57 64.9H4.374a2.331 2.331 0 0 1-2.288-2.332V25.153h65.8zM65.57 4.77h-3.908V3.242C61.58 1.428 60.096 0 58.292 0c-1.802 0-3.287 1.428-3.368 3.242v1.527H40.848V3.242C40.767 1.428 39.282 0 37.48 0c-1.803 0-3.287 1.428-3.37 3.242v1.527H19.702V3.242A3.39 3.39 0 0 0 16.328.057a3.39 3.39 0 0 0-3.373 3.185v1.527H4.402C1.972 4.772.004 6.755 0 9.2v53.366c.004 2.447 1.972 4.43 4.402 4.433h61.196c2.43-.004 4.398-1.986 4.402-4.433V9.201a4.455 4.455 0 0 0-1.301-3.142 4.393 4.393 0 0 0-3.129-1.29z"/>
                </g>
                <g>
                    <path fill="#fff"
                          d="M11.23 15.15c-.001 1.599 1.17 2.94 2.714 3.104 1.542.165 2.956-.901 3.272-2.467.315-1.565-.569-3.123-2.047-3.607v3.103c0 .616-.484 1.114-1.08 1.114-.597 0-1.08-.498-1.08-1.113v-2.97c-1.083.502-1.779 1.612-1.779 2.836z"/>
                </g>
                <g>
                    <path fill="#fff"
                          d="M31.98 15.134c-.002 1.564 1.11 2.89 2.606 3.107 1.495.216 2.916-.743 3.328-2.248.412-1.505-.31-3.094-1.693-3.723v3.028c0 .618-.483 1.119-1.08 1.119-.596 0-1.08-.501-1.08-1.119V12.18c-1.238.414-2.078 1.606-2.081 2.954z"/>
                </g>
                <g>
                    <path fill="#fff"
                          d="M52.72 15.127c-.001 1.577 1.124 2.911 2.63 3.117 1.506.206 2.925-.78 3.317-2.305.391-1.524-.366-3.113-1.77-3.714v3.066c0 .62-.484 1.122-1.08 1.122-.597 0-1.08-.502-1.08-1.122V12.18c-1.206.44-2.013 1.62-2.017 2.947z"/>
                </g>
                <g>
                    <path fill="#fff" d="M15.986 1.74c-.716 0-1.296.78-1.296 1.74h2.593c0-.96-.58-1.74-1.297-1.74z"/>
                </g>
                <g>
                    <path fill="#fff"
                          d="M37.586 1.74c-.713.01-1.286.786-1.286 1.74h2.593c0-.463-.138-.907-.384-1.234-.245-.326-.577-.508-.923-.506z"/>
                </g>
                <g>
                    <path fill="#fff" d="M58.34 1.74c-.718 0-1.3.78-1.3 1.74h2.593c0-.957-.578-1.735-1.293-1.74z"/>
                </g>
                <g>
                    <path fill="#1d1d1b"
                          d="M31.454 52.213c-.273 0-.534-.11-.726-.307l-7.931-8.098a1.056 1.056 0 0 1-.295-1.022c.093-.37.377-.66.74-.754.364-.094.75.02 1.006.3l7.206 7.36 14.33-14.574a1.011 1.011 0 0 1 1.45 0c.397.41.397 1.067 0 1.477L32.18 51.913a1.017 1.017 0 0 1-.725.3z"/>
                </g>
            </g>
        </g>
    </g>
</svg>