<svg xmlns="http://www.w3.org/2000/svg" width="58" height="58" viewBox="0 0 58 58">
    <g>
        <g>
            <path fill="#201431" d="M29 58c16.016 0 29-12.984 29-29S45.016 0 29 0 0 12.984 0 29s12.984 29 29 29z"/>
        </g>
        <g>
            <g>
                <path fill="#8b8b8b"
                      d="M30.419 23.17a.778.778 0 0 0-.227.693l.387 2.233-2.026-1.054a.798.798 0 0 0-.736 0l-2.026 1.055.386-2.233a.778.778 0 0 0-.227-.692l-1.64-1.581 2.265-.327a.79.79 0 0 0 .595-.428l1.013-2.032 1.014 2.032a.79.79 0 0 0 .595.427l2.266.326zm4.09-2.371a.789.789 0 0 0-.639-.533l-3.44-.494-1.539-3.086a.792.792 0 0 0-.709-.436.791.791 0 0 0-.709.437l-1.537 3.086-3.44.496a.788.788 0 0 0-.637.533.778.778 0 0 0 .2.803l2.49 2.401-.587 3.392a.78.78 0 0 0 .315.766.795.795 0 0 0 .832.06l3.076-1.603 3.077 1.6c.266.14.59.116.833-.059a.78.78 0 0 0 .314-.766l-.588-3.392 2.488-2.403a.778.778 0 0 0 .2-.802z"/>
            </g>
            <g>
                <path fill="#8b8b8b"
                      d="M40.108 41.227l-1.265-2.082a.77.77 0 0 0-1.064-.258.784.784 0 0 0-.256 1.074l1.252 2.06-1.395 3.42-5.407-9.444a14.058 14.058 0 0 0 6.436-3.681l5.363 9.407zM28.5 34.885c-6.915 0-12.54-5.68-12.54-12.661 0-6.982 5.625-12.661 12.54-12.661 6.915 0 12.54 5.68 12.54 12.66 0 6.982-5.625 12.662-12.54 12.662zm-8.88 10.557l-1.395-3.421 1.252-2.06a.784.784 0 0 0-.256-1.074.77.77 0 0 0-1.064.258l-1.265 2.082-3.664.496 5.363-9.407a14.059 14.059 0 0 0 6.436 3.681zm26.277-3.116l-6.398-11.232a14.232 14.232 0 0 0 3.09-8.875C42.589 14.379 36.269 8 28.5 8c-7.768 0-14.089 6.379-14.089 14.219 0 3.354 1.158 6.44 3.09 8.875l-6.398 11.232a.788.788 0 0 0 .028.825.772.772 0 0 0 .746.338l4.994-.676 1.916 4.703a.775.775 0 0 0 .716.484.773.773 0 0 0 .67-.39l6.46-11.292c0-.002.001-.003.003-.005a14.028 14.028 0 0 0 3.729 0c0 .002.001.003.003.005l6.459 11.291a.773.773 0 0 0 1.386-.093l1.916-4.703 4.994.676a.771.771 0 0 0 .746-.338.789.789 0 0 0 .028-.825z"/>
            </g>
        </g>
    </g>
</svg>