<svg xmlns="http://www.w3.org/2000/svg" width="206" height="230" viewBox="0 0 206 230">
    <g>
        <g>
            <g>
                <path fill="none" stroke="#000" stroke-miterlimit="50" stroke-width="11.79"
                      d="M95.945 31.645C95.847 17.793 84.637 6.588 70.78 6.49"/>
            </g>
            <g>
                <path fill="none" stroke="#000" stroke-miterlimit="50" stroke-width="11.79"
                      d="M109.31 31.645c.074-13.845 11.266-25.057 25.11-25.155"/>
            </g>
            <g>
                <path fill="#2e2540"
                      d="M204.435 125.79l-20.025 2.025-7.74-28.665-33.66-4.86-.81 8.775 27.36 4.05 7.965 30.645 27.675-2.745-.765-9.225z"/>
            </g>
            <g>
                <path fill="#2e2540"
                      d="M167.77 183.885l-20.753-26.955-7.067 5.49 16.566 22.185-15.576 27.09 21.653 17.505 6.122-6.885-16.026-12.87 15.08-25.56z"/>
            </g>
            <g>
                <path fill="#2e2540"
                      d="M151.785 24.72l18-5.76-2.385-8.64-24.03 7.425-3.6 28.26-23.31 14.76 4.635 7.785 27.225-16.695 3.465-27.135z"/>
            </g>
            <g>
                <path fill="#2e2540"
                      d="M61.605 94.29L28.53 99.15l-7.74 28.665L.765 125.79 0 135.015l27.675 2.745 7.965-30.645 27.54-4.05-1.575-8.775z"/>
            </g>
            <g>
                <path fill="#2e2540"
                      d="M58.188 156.93l-20.753 26.955 15.08 25.56-16.025 12.87 6.122 6.885 21.653-17.505-15.53-27.09 16.52-22.185-7.067-5.49z"/>
            </g>
            <g>
                <path fill="#2e2540"
                      d="M61.835 17.745L34.61 9.15l-2.25 9.09 21.06 6.48 3.465 27.135L84.11 68.55l4.68-7.785-23.355-14.76-3.6-28.26z"/>
            </g>
            <g>
                <path d="M161.998 106.26c-9.405-31.5-34.56-32.58-34.56-32.58h-48.78s-25.56 1.17-34.605 32.58c-9.045 31.41 3.555 102.555 59.445 102.555 54.9.405 67.5-71.1 58.5-102.555z"/>
            </g>
            <g>
                <path fill="#373a33"
                      d="M115.565 32.817a16.965 16.965 0 0 0-12.96-4.5 18 18 0 0 0-12.96 4.5L84.92 52.842h34.605z"/>
            </g>
            <g>
                <path fill="#2c2e28" d="M120.295 52.842l-4.728-20.025a16.98 16.98 0 0 0-12.967-4.5v24.75z"/>
            </g>
            <g>
                <path fill="#2a2d1d"
                      d="M123.03 37.545a6.165 6.165 0 0 0-7.47-4.725l2.745 12.195a6.03 6.03 0 0 0 4.725-7.47z"/>
            </g>
            <g>
                <path fill="#2a2d1d"
                      d="M82.57 37.545a6.165 6.165 0 0 1 7.426-4.725l-2.7 12.195a6.03 6.03 0 0 1-4.725-7.47z"/>
            </g>
            <g>
                <path fill="#1b1625"
                      d="M126.94 73.68s25.56 1.17 34.605 32.58c9.045 31.41-3.555 102.555-59.355 102.555v-135z"/>
            </g>
            <g>
                <path fill="#373a33" d="M120.285 52.84H102.6v20.835h24.345l-6.66-20.835z"/>
            </g>
            <g>
                <path fill="#575757" d="M85.325 52.84h17.28v20.835h13.365-37.71l7.065-20.835z"/>
            </g>
        </g>
    </g>
</svg>