<svg xmlns="http://www.w3.org/2000/svg" xmlns:xlink="http://www.w3.org/1999/xlink" preserveAspectRatio="xMidYMid"
     width="35.844" height="35.88" viewBox="0 0 35.844 35.88">
    <defs>
        <style>
            .cls-1 {
            fill: #973eff;
            fill-rule: evenodd;
            }
        </style>
    </defs>
    <path d="M35.845,28.906 C35.845,28.966 35.840,29.016 35.815,29.066 L35.815,35.166 C35.825,35.311 35.765,35.446 35.665,35.546 C35.560,35.656 35.430,35.706 35.280,35.706 L31.870,35.706 C31.830,35.711 31.790,35.711 31.750,35.706 L22.320,35.706 C22.280,35.711 22.240,35.711 22.200,35.706 L18.267,35.706 C18.172,35.787 18.053,35.841 17.919,35.841 L11.729,35.841 C11.677,35.856 11.623,35.864 11.569,35.866 L6.804,35.861 C6.744,35.861 6.694,35.856 6.644,35.831 L0.544,35.831 C0.399,35.841 0.264,35.781 0.164,35.681 C0.054,35.576 0.004,35.446 0.004,35.296 L0.004,31.886 C-0.001,31.846 -0.001,31.806 0.004,31.766 L0.004,22.336 C-0.001,22.296 -0.001,22.256 0.004,22.216 L0.004,18.036 C-0.002,17.998 -0.002,17.959 0.004,17.921 L0.004,11.689 C0.004,11.682 -0.000,11.673 -0.000,11.666 L-0.000,6.876 C-0.000,6.867 0.004,6.857 0.004,6.847 L0.004,0.571 C0.004,0.340 0.147,0.142 0.350,0.061 C0.403,0.038 0.464,0.030 0.526,0.025 C0.532,0.025 0.538,0.021 0.544,0.021 L0.547,0.021 C0.557,0.021 0.565,0.016 0.575,0.016 L17.925,0.016 C17.974,0.017 18.018,0.033 18.063,0.046 L23.884,0.046 C23.944,0.031 23.994,0.016 24.044,0.016 L28.834,0.016 C28.889,0.016 28.944,0.026 29.004,0.041 L35.154,0.041 C35.299,0.041 35.434,0.101 35.534,0.201 C35.644,0.301 35.694,0.436 35.694,0.591 L35.694,17.450 C35.772,17.543 35.825,17.660 35.825,17.791 L35.825,23.981 C35.840,24.033 35.848,24.087 35.850,24.141 L35.845,28.906 ZM1.104,22.336 C1.108,22.376 1.108,22.416 1.104,22.456 L1.104,31.641 C1.109,31.681 1.109,31.721 1.104,31.761 L1.104,34.761 L6.729,34.761 C6.784,34.761 6.844,34.771 6.894,34.786 L11.499,34.786 C11.554,34.766 11.614,34.766 11.664,34.766 L17.389,34.766 L17.389,28.981 C17.389,28.911 17.409,28.831 17.439,28.761 C17.620,28.357 17.967,28.051 18.391,27.922 C18.814,27.793 19.273,27.852 19.649,28.086 C20.280,28.538 21.062,28.726 21.829,28.611 C22.297,28.483 22.690,28.166 22.914,27.736 C23.515,26.658 23.136,25.298 22.064,24.686 C21.254,24.251 20.524,24.596 19.584,25.136 C19.206,25.349 18.756,25.393 18.344,25.255 C17.933,25.118 17.598,24.813 17.424,24.416 C17.389,24.346 17.374,24.271 17.374,24.196 L17.374,18.481 L11.814,18.481 C11.784,18.495 11.756,18.512 11.729,18.531 L11.694,18.556 C11.650,18.594 11.613,18.640 11.584,18.691 C11.500,18.833 11.500,19.009 11.584,19.151 C12.234,20.176 12.469,21.256 12.234,22.166 C12.040,22.921 11.542,23.561 10.859,23.936 C9.258,24.835 7.232,24.269 6.329,22.671 C5.880,21.820 5.886,20.802 6.344,19.956 L6.344,19.916 L6.394,19.826 C6.504,19.596 6.629,19.371 6.754,19.146 C6.789,19.086 6.814,19.016 6.829,18.946 C6.833,18.855 6.812,18.766 6.769,18.686 C6.718,18.596 6.639,18.526 6.544,18.486 L1.104,18.486 L1.104,22.336 ZM17.209,1.096 L1.094,1.096 L1.094,17.376 L6.399,17.386 C6.506,17.385 6.613,17.393 6.719,17.411 L6.759,17.411 C6.769,17.411 6.759,17.411 6.794,17.411 C6.824,17.431 6.859,17.461 6.894,17.461 C7.297,17.574 7.631,17.857 7.809,18.236 C7.930,18.506 7.968,18.805 7.919,19.096 C7.884,19.298 7.811,19.491 7.704,19.666 C7.553,19.925 7.416,20.192 7.294,20.466 C7.016,20.967 7.016,21.575 7.294,22.076 C7.594,22.616 8.099,23.012 8.694,23.176 C9.239,23.336 9.819,23.261 10.309,22.976 C10.734,22.746 11.054,22.361 11.184,21.896 C11.301,21.129 11.114,20.347 10.664,19.716 C10.405,19.299 10.360,18.784 10.544,18.329 C10.728,17.875 11.118,17.535 11.594,17.416 C11.614,17.413 11.634,17.413 11.654,17.416 C11.759,17.396 11.869,17.381 11.979,17.381 L17.194,17.381 L17.194,11.861 C17.139,11.769 17.054,11.698 16.954,11.661 C16.867,11.636 16.776,11.636 16.689,11.661 C16.649,11.671 16.614,11.686 16.579,11.711 C15.679,12.211 14.444,12.926 13.044,12.161 C12.275,11.732 11.711,11.011 11.479,10.161 C11.444,10.026 11.414,9.891 11.394,9.751 L11.394,9.641 C11.374,9.531 11.374,9.421 11.374,9.321 L11.374,9.221 C11.374,9.091 11.394,8.961 11.394,8.831 L11.394,8.781 C11.404,8.671 11.429,8.566 11.454,8.456 L11.489,8.341 C11.514,8.251 11.549,8.171 11.574,8.071 L11.624,7.971 C11.674,7.856 11.729,7.741 11.794,7.621 C12.170,6.942 12.808,6.446 13.559,6.251 C14.454,6.021 15.534,6.251 16.569,6.901 C16.686,6.973 16.830,6.988 16.959,6.941 C17.064,6.903 17.153,6.828 17.209,6.731 L17.209,1.096 ZM34.619,1.121 L28.899,1.121 C28.834,1.121 28.784,1.116 28.734,1.096 L24.144,1.096 C24.089,1.112 24.031,1.119 23.974,1.116 L18.274,1.116 L18.274,6.846 C18.275,6.905 18.267,6.964 18.249,7.021 C18.094,7.466 17.744,7.817 17.299,7.971 C16.862,8.122 16.380,8.067 15.989,7.821 C15.357,7.367 14.573,7.179 13.804,7.296 C13.339,7.427 12.949,7.743 12.724,8.171 C12.131,9.243 12.505,10.592 13.564,11.206 C14.379,11.651 15.104,11.301 16.054,10.766 C16.446,10.544 16.915,10.505 17.338,10.659 C17.761,10.813 18.096,11.144 18.254,11.566 C18.279,11.626 18.294,11.696 18.294,11.746 L18.294,17.396 L23.799,17.396 C23.905,17.372 23.995,17.305 24.049,17.211 C24.109,17.056 24.089,16.881 23.999,16.741 C23.434,15.701 22.859,14.631 23.584,13.291 C24.023,12.492 24.769,11.905 25.649,11.666 C26.469,11.425 27.352,11.534 28.089,11.966 C28.773,12.339 29.272,12.977 29.469,13.731 C29.694,14.641 29.469,15.706 28.819,16.741 C28.739,16.865 28.724,17.019 28.779,17.156 C28.830,17.272 28.925,17.362 29.044,17.406 L34.619,17.406 L34.619,1.121 ZM34.770,24.211 C34.750,24.156 34.750,24.096 34.750,24.046 L34.750,18.471 L28.949,18.471 C28.909,18.471 28.869,18.471 28.819,18.471 C28.344,18.349 27.955,18.010 27.769,17.556 C27.589,17.101 27.639,16.586 27.889,16.171 C28.342,15.541 28.531,14.759 28.414,13.991 C28.283,13.525 27.964,13.134 27.534,12.911 C27.049,12.632 26.471,12.563 25.934,12.721 C25.526,12.830 25.165,13.054 24.877,13.354 C24.803,13.446 24.730,13.540 24.670,13.646 C24.235,14.456 24.580,15.186 25.120,16.126 C25.333,16.504 25.376,16.954 25.239,17.366 C25.160,17.603 25.014,17.802 24.838,17.972 C24.624,18.232 24.327,18.415 23.989,18.481 C23.952,18.485 23.916,18.485 23.879,18.481 L18.469,18.481 L18.469,23.903 C18.482,23.930 18.497,23.957 18.515,23.981 L18.540,24.016 C18.578,24.060 18.624,24.098 18.675,24.126 C18.817,24.210 18.993,24.210 19.135,24.126 C19.454,23.924 19.778,23.777 20.101,23.656 C20.286,23.582 20.477,23.518 20.676,23.472 C20.689,23.470 20.701,23.469 20.713,23.466 C20.892,23.428 21.077,23.409 21.266,23.406 C21.571,23.391 21.870,23.404 22.150,23.476 C22.904,23.670 23.545,24.168 23.920,24.851 C24.511,25.903 24.458,27.134 23.906,28.115 C23.881,28.164 23.867,28.217 23.839,28.266 C23.462,28.950 22.820,29.450 22.064,29.646 C21.869,29.681 21.673,29.686 21.477,29.692 C21.304,29.702 21.134,29.692 20.962,29.671 C20.286,29.603 19.630,29.382 19.064,28.986 C18.955,28.918 18.822,28.900 18.699,28.936 C18.669,28.947 18.652,28.976 18.625,28.992 C18.562,29.040 18.501,29.092 18.470,29.166 L18.470,34.606 L22.320,34.606 C22.360,34.602 22.400,34.602 22.440,34.606 L31.625,34.606 C31.665,34.601 31.705,34.601 31.745,34.606 L34.745,34.606 L34.745,28.981 C34.745,28.926 34.755,28.866 34.770,28.816 L34.770,24.211 Z"
          class="cls-1"/>
</svg>
