<?xml version="1.0" encoding="UTF-8" standalone="no"?>
<svg
   width="50"
   height="50"
   viewBox="0 0 50 50"
   version="1.1"
   id="svg2686"
   sodipodi:docname="follow-ps-discord.svg"
   inkscape:version="1.2.2 (732a01da63, 2022-12-09)"
   xmlns:inkscape="https://www.inkscape.org/namespaces/inkscape"
   xmlns:sodipodi="https://sodipodi.sourceforge.net/DTD/sodipodi-0.dtd"
   xmlns="http://www.w3.org/2000/svg"
   xmlns:svg="http://www.w3.org/2000/svg">
  <defs
     id="defs2690" />
  <sodipodi:namedview
     id="namedview2688"
     pagecolor="#505050"
     bordercolor="#ffffff"
     borderopacity="1"
     inkscape:showpageshadow="0"
     inkscape:pageopacity="0"
     inkscape:pagecheckerboard="1"
     inkscape:deskcolor="#505050"
     showgrid="false"
     inkscape:zoom="20.54"
     inkscape:cx="24.975657"
     inkscape:cy="24.975657"
     inkscape:window-width="3840"
     inkscape:window-height="2054"
     inkscape:window-x="-11"
     inkscape:window-y="-11"
     inkscape:window-maximized="1"
     inkscape:current-layer="svg2686" />
  <g
     id="g2680"
     style="fill:#37d2e1;fill-opacity:1">
    <path
       fill="#37d2e1"
       d="M 24.97,49.938 C 11.202,49.938 0,38.736 0,24.968 0,11.202 11.203,0 24.97,0 c 13.769,0 24.97,11.201 24.97,24.969 0,13.767 -11.201,24.968 -24.97,24.968 m 0,-47.56 C 12.514,2.377 2.379,12.511 2.379,24.969 2.379,37.425 12.514,47.56 24.97,47.56 37.427,47.56 47.561,37.425 47.561,24.969 47.561,12.511 37.428,2.377 24.97,2.377"
       id="path2678"
       style="fill:#37d2e1;fill-opacity:1" />
  </g>
  <g
     id="图层_2"
     data-name="图层 2"
     style="fill:#973eff;fill-opacity:1"
     transform="matrix(0.22112561,0,0,0.22112561,10.967338,13.212405)">
    <g
       id="Discord_Logos"
       data-name="Discord Logos"
       style="fill:#973eff;fill-opacity:1">
      <g
         id="Discord_Logo_-_Large_-_White"
         data-name="Discord Logo - Large - White"
         style="fill:#973eff;fill-opacity:1">
        <path
           d="M 107.7,8.07 A 105.15,105.15 0 0 0 81.47,0 72.06,72.06 0 0 0 78.11,6.83 97.68,97.68 0 0 0 49,6.83 72.37,72.37 0 0 0 45.64,0 105.89,105.89 0 0 0 19.39,8.09 C 2.79,32.65 -1.71,56.6 0.54,80.21 v 0 A 105.73,105.73 0 0 0 32.71,96.36 77.7,77.7 0 0 0 39.6,85.25 68.42,68.42 0 0 1 28.75,80.07 c 0.91,-0.66 1.8,-1.34 2.66,-2 a 75.57,75.57 0 0 0 64.32,0 c 0.87,0.71 1.76,1.39 2.66,2 a 68.68,68.68 0 0 1 -10.87,5.19 77,77 0 0 0 6.89,11.1 105.25,105.25 0 0 0 32.19,-16.14 v 0 C 129.24,52.84 122.09,29.11 107.7,8.07 Z M 42.45,65.69 C 36.18,65.69 31,60 31,53 31,46 36,40.26 42.43,40.26 48.86,40.26 54,46 53.89,53 53.78,60 48.84,65.69 42.45,65.69 Z m 42.24,0 C 78.41,65.69 73.25,60 73.25,53 c 0,-7 5,-12.74 11.44,-12.74 6.44,0 11.54,5.74 11.43,12.74 -0.11,7 -5.04,12.69 -11.43,12.69 z"
           id="path2"
           style="fill:#973eff;fill-opacity:1" />
      </g>
    </g>
  </g>
  <path
     style="fill:#37d2e1;fill-opacity:1;stroke-width:0.140766"
     d="m 17.332035,34.206713 c -1.309639,-0.461923 -2.433242,-0.958974 -3.542428,-1.567072 -1.224188,-0.671147 -2.637166,-1.612763 -2.682979,-1.787954 -0.01501,-0.05742 -0.05318,-0.612334 -0.08482,-1.233148 -0.106147,-2.083125 0.08306,-4.26017 0.545262,-6.273846 0.611476,-2.66402 1.774785,-5.355265 3.385187,-7.83142 l 0.324509,-0.498966 0.613806,-0.261832 c 1.299646,-0.554393 2.977434,-1.074941 4.384277,-1.360261 0.406137,-0.08237 0.749247,-0.14976 0.762468,-0.14976 0.01322,0 0.190707,0.341089 0.394414,0.757976 0.326347,0.667869 0.382487,0.754995 0.472242,0.732903 0.05603,-0.01379 0.430492,-0.06372 0.832148,-0.110948 1.386208,-0.163005 4.339727,-0.103264 5.387853,0.108981 0.120063,0.02431 0.140065,0.0032 0.266147,-0.280971 0.155181,-0.349753 0.546969,-1.114984 0.601356,-1.174553 0.04735,-0.05186 1.306355,0.207338 2.20806,0.454577 0.901896,0.247291 2.167172,0.684469 2.960942,1.023065 l 0.61618,0.262842 0.403948,0.634486 c 2.502388,3.930529 3.692293,7.683818 3.866906,12.197289 0.02999,0.775156 -0.03917,2.729978 -0.106236,3.002933 -0.03167,0.128875 -0.916308,0.753167 -1.915965,1.352096 -0.822734,0.492929 -2.295013,1.225949 -3.164557,1.575573 -0.666034,0.267797 -1.874008,0.690625 -1.973043,0.690625 -0.09747,0 -0.839176,-1.123413 -1.358005,-2.056896 -0.16706,-0.300576 -0.175003,-0.331282 -0.09326,-0.360506 0.571192,-0.204206 2.307442,-1.060739 2.303124,-1.136185 -0.0021,-0.0367 -0.564578,-0.438623 -0.613831,-0.438623 -0.02321,0 -0.305057,0.111427 -0.626328,0.247616 -1.466194,0.62153 -2.935382,1.00385 -4.698052,1.222551 -0.765296,0.09495 -2.977016,0.07972 -3.773125,-0.02599 -1.689836,-0.224382 -3.345242,-0.680187 -4.735135,-1.30379 -0.17209,-0.07721 -0.339754,-0.140384 -0.372587,-0.140384 -0.06271,0 -0.579573,0.368702 -0.60078,0.428562 -0.02713,0.07657 1.663552,0.92244 2.286339,1.143882 0.07245,0.02576 0.05452,0.08174 -0.138882,0.433534 -0.510801,0.929142 -1.217689,1.987127 -1.325409,1.983714 -0.04371,-0.0014 -0.408094,-0.118429 -0.809749,-0.260097 z m 3.609134,-6.523662 c 0.422565,-0.112515 0.824728,-0.36088 1.160216,-0.716514 1.210495,-1.283189 1.012794,-3.503423 -0.39518,-4.437967 -0.473723,-0.314434 -0.766416,-0.401014 -1.355669,-0.401014 -0.556455,0 -0.866143,0.08303 -1.267601,0.339835 -0.766926,0.490597 -1.288388,1.486086 -1.288388,2.459581 0,1.266608 0.842251,2.447601 1.9603,2.748705 0.328785,0.08855 0.868865,0.0919 1.186322,0.0074 z m 9.339184,-0.0069 c 0.88515,-0.230553 1.59607,-0.986025 1.861351,-1.978002 0.113704,-0.425182 0.111953,-1.236961 -0.0035,-1.620661 -0.271497,-0.902324 -0.90054,-1.596543 -1.685431,-1.860063 -0.368747,-0.123804 -1.140504,-0.123804 -1.509251,0 -1.530157,0.513737 -2.252558,2.496468 -1.4809,4.064541 0.541856,1.101096 1.714805,1.68146 2.817728,1.394185 z"
     id="path4068" />
</svg>
