<svg xmlns="http://www.w3.org/2000/svg" width="108" height="93" viewBox="0 0 108 93">
    <g>
        <g>
            <g>
                <path fill="#1d1d1b"
                      d="M70.72 89.75h.03zM36.826 57.98C35.617 40.125 48.43 24.378 66.16 21.93a34.06 34.06 0 1 1 4.577 67.82c-17.891-.043-32.703-13.917-33.911-31.77zM66.18 12h9v6.89a36.62 36.62 0 0 0-9 0zm-4.63-6a2.72 2.72 0 0 1 2.67-2.77h12.87A2.72 2.72 0 0 1 79.76 6a2.72 2.72 0 0 1-2.67 2.77H64.22A2.72 2.72 0 0 1 61.55 6zm16.89 13.38v-7.55l.56-.18A6 6 0 0 0 77.19 0H64.32a5.94 5.94 0 0 0-5.88 6 5.92 5.92 0 0 0 4.08 5.66l.55.19v7.56A37.12 37.12 0 0 0 40.7 34H15.5a1.5 1.5 0 1 0 0 3h23.25a36.6 36.6 0 0 0-3.38 7.61H1.5a1.5 1.5 0 1 0 0 3h33.08a36.57 36.57 0 0 0-.88 7.6H13a1.5 1.5 0 1 0 0 3h20.79a36.71 36.71 0 0 0 1.32 7.61H10.56a1.5 1.5 0 1 0 0 3h25.55c6.318 16.593 23.517 26.373 41.007 23.32 17.49-3.053 30.358-18.082 30.681-35.834.323-17.752-11.99-33.239-29.358-36.926z"/>
            </g>
            <g>
                <path fill="#1d1d1b"
                      d="M71.779 58.818a3.46 3.46 0 0 1-1 .15 3.33 3.33 0 1 1 0-6.66 3.53 3.53 0 0 1 .56 0 3.32 3.32 0 0 1 2.77 3.28c.013.34-.024.68-.11 1.01a3.3 3.3 0 0 1-2.22 2.22zm18.96-20.94a1.58 1.58 0 0 0-.45-1.11 1.6 1.6 0 0 0-2.2 0l-13.58 13.58-.34-.21a6.43 6.43 0 0 0-8.85 8.86l.21.34-4.74 4.73a1.56 1.56 0 0 0 0 2.21 1.6 1.6 0 0 0 2.21 0l4.88-4.89.31.15a6.45 6.45 0 0 0 8.52-8.54l-.14-.31 13.72-13.69c.292-.299.454-.702.45-1.12z"/>
            </g>
            <g>
                <path fill="#1d1d1b" d="M70.75 31.22a2.1 2.1 0 1 0 0-4.2 2.1 2.1 0 0 0 0 4.2z"/>
            </g>
            <g>
                <path fill="#1d1d1b" d="M70.75 84.26a2.1 2.1 0 1 0 0-4.2 2.1 2.1 0 0 0 0 4.2z"/>
            </g>
            <g>
                <path fill="#1d1d1b" d="M97.27 57.74a2.1 2.1 0 1 0 0-4.2 2.1 2.1 0 0 0 0 4.2z"/>
            </g>
            <g>
                <path fill="#1d1d1b" d="M44.24 57.74a2.1 2.1 0 1 0 0-4.2 2.1 2.1 0 0 0 0 4.2z"/>
            </g>
        </g>
    </g>
</svg>