<svg width="9" height="23" viewBox="0 0 9 23" fill="none" xmlns="http://www.w3.org/2000/svg">
<path d="M4.04637 20.8719C4.04637 20.7802 4.04637 20.6891 4.04637 20.5975C4.04637 14.1374 4.04638 7.67676 4.04695 1.2167C4.04695 1.10888 4.04521 0.999901 4.05855 0.893809C4.08753 0.664905 4.27765 0.500578 4.5014 0.500002C4.72572 0.499425 4.91468 0.661445 4.94656 0.892656C4.96047 0.991829 4.957 1.09331 4.957 1.19421C4.95758 7.66177 4.95758 14.1293 4.95758 20.5969C4.95758 20.6886 4.95758 20.7802 4.95758 20.9325C5.05264 20.8419 5.10712 20.7918 5.15987 20.7393C5.97833 19.9257 6.79679 19.1116 7.61583 18.298C7.67205 18.2421 7.7277 18.1839 7.79204 18.1389C7.97695 18.0103 8.20881 18.034 8.36647 18.1902C8.52124 18.3436 8.545 18.5811 8.41922 18.7628C8.37864 18.8216 8.32647 18.8729 8.27547 18.9236C7.13704 20.0601 5.99746 21.196 4.85846 22.3313C4.63587 22.5532 4.37329 22.5573 4.15187 22.337C3.00185 21.1919 1.853 20.0457 0.70414 18.8988C0.457211 18.6521 0.433446 18.3765 0.637481 18.181C0.841516 17.985 1.10352 18.0155 1.35798 18.2675C2.18223 19.0862 3.00591 19.905 3.82727 20.7255C3.88291 20.7808 3.92117 20.8529 3.96812 20.9175C3.99479 20.9019 4.02029 20.8869 4.04637 20.8719Z" fill="white"/>
</svg>
