<svg xmlns="http://www.w3.org/2000/svg" width="41" height="40" viewBox="0 0 41 40"><defs><clipPath id="avu3a"><path d="M.37.05h39.952V40H.37z"/></clipPath></defs><g><g><g><g/><g clip-path="url(#avu3a)"><path fill="#37d2e1" d="M20.346.05c11.015 0 19.976 8.961 19.976 19.975C40.322 31.039 31.361 40 20.346 40 9.331 40 .37 31.039.37 20.025.37 9.011 9.331.05 20.346.05m0 38.048c9.965 0 18.073-8.107 18.073-18.073 0-9.965-8.108-18.073-18.073-18.073-9.966 0-18.073 8.108-18.073 18.073 0 9.966 8.107 18.073 18.073 18.073"/></g></g><g><path fill="#37d2e1" d="M12.34 9.17v2.916a16.668 16.668 0 0 1 11.229 4.905 16.668 16.668 0 0 1 4.906 11.253h2.915C31.068 17.897 22.688 9.505 12.34 9.17"/></g><g><path fill="#37d2e1" d="M28.475 28.244a16.667 16.667 0 0 0-4.905-11.253 16.678 16.678 0 0 0-11.23-4.906V9.17c10.348.335 18.728 8.726 19.05 19.074z"/></g><g><path fill="#37d2e1" d="M14.506 23.91a2.169 2.169 0 0 0-2.166 2.166 2.17 2.17 0 0 0 2.166 2.167 2.17 2.17 0 0 0 2.166-2.167 2.169 2.169 0 0 0-2.166-2.166"/></g><g><path fill="#37d2e1" d="M14.506 28.243a2.17 2.17 0 0 1-2.166-2.167c0-1.194.972-2.166 2.166-2.166s2.166.972 2.166 2.166a2.17 2.17 0 0 1-2.166 2.167"/></g><g><path fill="#37d2e1" d="M12.34 16.07v2.919c4.926.333 8.922 4.329 9.256 9.255h2.918c-.34-6.535-5.64-11.834-12.174-12.174"/></g><g><path fill="#37d2e1" d="M21.596 28.244c-.334-4.926-4.33-8.922-9.256-9.255V16.07c6.534.34 11.834 5.639 12.174 12.174z"/></g></g></g></svg>