<?xml version="1.0" encoding="UTF-8" standalone="no"?>
<svg
   width="50"
   height="50"
   viewBox="0 0 50 50"
   version="1.1"
   id="svg2686"
   sodipodi:docname="follow-ps-github.svg"
   inkscape:version="1.2.2 (732a01da63, 2022-12-09)"
   xmlns:inkscape="https://www.inkscape.org/namespaces/inkscape"
   xmlns:sodipodi="https://sodipodi.sourceforge.net/DTD/sodipodi-0.dtd"
   xmlns="http://www.w3.org/2000/svg"
   xmlns:svg="http://www.w3.org/2000/svg">
  <defs
     id="defs2690" />
  <sodipodi:namedview
     id="namedview2688"
     pagecolor="#505050"
     bordercolor="#ffffff"
     borderopacity="1"
     inkscape:showpageshadow="0"
     inkscape:pageopacity="0"
     inkscape:pagecheckerboard="1"
     inkscape:deskcolor="#505050"
     showgrid="false"
     inkscape:zoom="20.54"
     inkscape:cx="24.975657"
     inkscape:cy="13.291139"
     inkscape:window-width="3840"
     inkscape:window-height="2054"
     inkscape:window-x="-11"
     inkscape:window-y="-11"
     inkscape:window-maximized="1"
     inkscape:current-layer="svg2686" />
  <g
     id="g2680"
     style="fill:#37d2e1;fill-opacity:1"
     transform="translate(0.05434309,0.10402792)">
    <path
       fill="#37d2e1"
       d="M 24.97,49.938 C 11.202,49.938 0,38.736 0,24.968 0,11.202 11.203,0 24.97,0 c 13.769,0 24.97,11.201 24.97,24.969 0,13.767 -11.201,24.968 -24.97,24.968 m 0,-47.56 C 12.514,2.377 2.379,12.511 2.379,24.969 2.379,37.425 12.514,47.56 24.97,47.56 37.427,47.56 47.561,37.425 47.561,24.969 47.561,12.511 37.428,2.377 24.97,2.377"
       id="path2678"
       style="fill:#37d2e1;fill-opacity:1" />
  </g>
  <path
     style="fill:#37d2e1;fill-opacity:1;stroke-width:0.152879"
     d="m 20.760634,37.120379 c -0.0078,-0.951855 -0.01951,-1.735946 -0.02598,-1.742424 -0.0065,-0.0065 -0.201248,0.02224 -0.432822,0.06383 -1.936068,0.347627 -3.624595,-0.03811 -4.6484,-1.061921 -0.392739,-0.392738 -0.527376,-0.605321 -0.911188,-1.438689 -0.495928,-1.076806 -1.009535,-1.716076 -1.844375,-2.295635 -0.613064,-0.4256 -0.750201,-0.685447 -0.461563,-0.87457 0.198036,-0.129758 0.889731,-0.126997 1.284543,0.0051 0.771602,0.25822 1.416524,0.806922 2.060657,1.753215 0.868985,1.276624 1.635638,1.757123 2.888634,1.810447 0.655677,0.0279 1.202634,-0.05743 1.80922,-0.282272 l 0.354825,-0.131521 0.09675,-0.434687 c 0.134484,-0.604247 0.375216,-1.157854 0.676666,-1.556125 0.1408,-0.186023 0.256001,-0.357378 0.256001,-0.380789 0,-0.02342 -0.220093,-0.07186 -0.489094,-0.107683 -2.236147,-0.297717 -3.91368,-0.99867 -5.098003,-2.130189 -1.36945,-1.308393 -2.075771,-3.035268 -2.245436,-5.489841 -0.15165,-2.193964 0.297611,-3.862909 1.424471,-5.291715 l 0.333499,-0.422864 -0.08258,-0.248623 c -0.162801,-0.490146 -0.240734,-1.074473 -0.240734,-1.804978 0,-0.816224 0.08206,-1.346707 0.326301,-2.109449 l 0.15869,-0.495573 0.590286,0.02459 c 0.504859,0.02103 0.678285,0.05404 1.198348,0.228106 0.695932,0.232925 1.621261,0.690387 2.445875,1.209182 l 0.568813,0.357861 0.567999,-0.134279 c 1.315147,-0.310909 2.308666,-0.421151 3.793375,-0.42092 1.308556,2.06e-4 2.218263,0.08892 3.384,0.329987 0.407137,0.08419 0.800624,0.16859 0.874413,0.187543 0.105076,0.02699 0.219992,-0.02157 0.530057,-0.223982 0.545313,-0.355985 1.363752,-0.804007 1.896055,-1.037921 0.817298,-0.359152 1.863631,-0.60245 2.286842,-0.531749 0.228304,0.03814 0.285837,0.150691 0.4951,0.968542 0.275543,1.076891 0.276782,2.345437 0.0033,3.289951 l -0.123463,0.426267 0.222351,0.273983 c 0.986623,1.215722 1.470728,2.504677 1.542668,4.107422 0.06161,1.372637 -0.146115,2.941824 -0.53937,4.074461 -0.890106,2.563645 -2.785594,4.065565 -5.927635,4.696854 -0.431394,0.08668 -0.933064,0.174128 -1.114821,0.194341 -0.181758,0.02021 -0.330468,0.04401 -0.330468,0.05287 0,0.0089 0.131049,0.190195 0.29122,0.402952 0.348949,0.463512 0.586023,1.008907 0.719353,1.654893 0.0889,0.430747 0.09848,0.756491 0.0991,3.371718 l 6.95e-4,2.894906 h -4.324984 -4.324947 z"
     id="path4913" />
</svg>
