<svg xmlns="http://www.w3.org/2000/svg" width="92" height="67" viewBox="0 0 92 67">
    <g>
        <g>
            <g>
                <path fill="#1d1d1b"
                      d="M73.745 56.284l-.939-.863a1.381 1.381 0 0 0-.938-.358H43.454c-1.221-.004-2.21-.912-2.215-2.033V29.659c.005-1.122.994-2.03 2.215-2.034h43.675c1.222 0 2.214.91 2.214 2.034v23.37c0 1.124-.992 2.034-2.214 2.034h-4.925c-.734 0-1.329.547-1.329 1.22v6.508zM27.52 40.115c-.308.003-.605.11-.832.301L12.037 52.68V41.287c0-.674-.595-1.22-1.329-1.22H4.871c-1.219 0-2.209-.906-2.214-2.027V4.475c0-1.123.992-2.034 2.214-2.034h61.611c1.223 0 2.215.91 2.215 2.034v20.75H43.454c-2.69 0-4.872 2.003-4.872 4.475v10.415zm59.61-14.89H71.354V4.475C71.354 2.004 69.173 0 66.482 0H4.872C2.182.004.004 2.006 0 4.475V38.04c0 2.472 2.181 4.476 4.871 4.476H9.38v12.93c.001.483.314.92.797 1.114.166.07.348.107.531.106.328-.003.643-.116.886-.317l16.492-13.833h10.496v10.52c0 2.473 2.181 4.476 4.872 4.476h27.864l9.947 9.13a1.392 1.392 0 0 0 1.444.26c.496-.187.82-.63.823-1.123v-8.267h3.597c2.69 0 4.871-2.003 4.871-4.475V29.659c-.024-2.455-2.198-4.434-4.871-4.434z"/>
            </g>
            <g>
                <path fill="#1d1d1b"
                      d="M58.673 16H13.327C12.594 16 12 15.328 12 14.5s.594-1.5 1.327-1.5h45.346c.733 0 1.327.672 1.327 1.5s-.594 1.5-1.327 1.5z"/>
            </g>
            <g>
                <path fill="#1d1d1b"
                      d="M31.678 29H13.322c-.73 0-1.322-.672-1.322-1.5s.592-1.5 1.322-1.5h18.356c.73 0 1.322.672 1.322 1.5s-.592 1.5-1.322 1.5z"/>
            </g>
            <g>
                <path fill="#1d1d1b" d="M56 44a2 2 0 1 0 0-4 2 2 0 0 0 0 4z"/>
            </g>
            <g>
                <path fill="#1d1d1b" d="M65 44a2 2 0 1 0 0-4 2 2 0 0 0 0 4z"/>
            </g>
            <g>
                <path fill="#1d1d1b" d="M75 44a2 2 0 1 0 0-4 2 2 0 0 0 0 4z"/>
            </g>
        </g>
    </g>
</svg>