<?xml version="1.0" encoding="UTF-8" standalone="no"?>
<svg
        id="Artwork"
        viewBox="0 0 1064.99 996.33"
        version="1.1"
        sodipodi:docname="metalama-icon-with-gradient.svg"
        inkscape:version="1.2.2 (732a01da63, 2022-12-09)"
        xmlns:inkscape="http://www.inkscape.org/namespaces/inkscape"
        xmlns:sodipodi="http://sodipodi.sourceforge.net/DTD/sodipodi-0.dtd"
        xmlns:xlink="http://www.w3.org/1999/xlink"
        xmlns="http://www.w3.org/2000/svg"
        xmlns:svg="http://www.w3.org/2000/svg">
    <sodipodi:namedview
            id="namedview1073"
            pagecolor="#505050"
            bordercolor="#ffffff"
            borderopacity="1"
            inkscape:showpageshadow="0"
            inkscape:pageopacity="0"
            inkscape:pagecheckerboard="1"
            inkscape:deskcolor="#505050"
            showgrid="false"
            inkscape:zoom="0.54505837"
            inkscape:cx="436.65048"
            inkscape:cy="598.10108"
            inkscape:window-width="1920"
            inkscape:window-height="992"
            inkscape:window-x="3192"
            inkscape:window-y="428"
            inkscape:window-maximized="1"
            inkscape:current-layer="Artwork"/>
    <defs
            id="defs1057">
        <linearGradient
                inkscape:collect="always"
                id="linearGradient3127">
            <stop
                    style="stop-color:#3d1e61;stop-opacity:1;"
                    offset="0"
                    id="stop3123"/>
            <stop
                    style="stop-color:#280e4d;stop-opacity:1;"
                    offset="1"
                    id="stop3125"/>
        </linearGradient>
        <style
                id="style1049">
            .cls-1, .cls-2, .cls-3 {
            fill: none;
            }

            .cls-2 {
            clip-path: url(#clippath-1);
            }

            .cls-4 {
            fill: #973bfc;
            }

            .cls-3 {
            clip-path: url(#clippath);
            }
        </style>
        <clipPath
                id="clippath">
            <rect
                    class="cls-1"
                    x="266.16"
                    y="249.11"
                    width="532.66"
                    height="498.11"
                    id="rect1051"/>
        </clipPath>
        <clipPath
                id="clippath-1">
            <rect
                    class="cls-1"
                    x="266.16"
                    y="249.11"
                    width="532.66"
                    height="498.11"
                    id="rect1054"/>
        </clipPath>
        <linearGradient
                inkscape:collect="always"
                xlink:href="#linearGradient3127"
                id="linearGradient3129"
                x1="273.85901"
                y1="746.18597"
                x2="791.14667"
                y2="257.03946"
                gradientUnits="userSpaceOnUse"/>
    </defs>
    <g
            id="_003_Logo_Mark"
            data-name="003 Logo Mark"
            transform="matrix(1.8407392,0,0,2.0029,-493.09506,-501.98169)"
            style="fill-opacity:1;fill:url(#linearGradient3129)">
        <g
                class="cls-3"
                clip-path="url(#clippath)"
                id="g1069"
                style="fill-opacity:1;fill:url(#linearGradient3129)">
            <g
                    class="cls-2"
                    clip-path="url(#clippath-1)"
                    id="g1067"
                    style="fill-opacity:1;fill:url(#linearGradient3129)">
                <path
                        class="cls-4"
                        d="m 358.36,561.37 h -87.04 c -2.85,0 -5.15,2.31 -5.15,5.16 v 77.23 c 0,2.85 2.31,5.16 5.15,5.16 h 56.39 c 2.11,0 4.01,-1.29 4.8,-3.25 l 30.65,-77.23 c 1.34,-3.38 -1.15,-7.06 -4.79,-7.06"
                        id="path1059"
                        style="fill-opacity:1;fill:url(#linearGradient3129)"/>
                <path
                        class="cls-4"
                        d="M 657.7,561.37 H 466.45 l 53.86,-306.22 c 0.55,-3.15 -1.88,-6.04 -5.08,-6.04 h -77.14 c -2.5,0 -4.64,1.8 -5.08,4.26 L 413.46,364.69 H 305.87 c -2.85,0 -5.15,2.31 -5.15,5.16 v 77.29 c 0,2.85 2.31,5.16 5.15,5.16 h 92.19 l -50.77,288.87 c -0.55,3.15 1.87,6.05 5.08,6.05 h 77.07 c 2.5,0 4.64,-1.8 5.08,-4.27 l 16.52,-94.04 h 109.85 l -16.22,92.26 c -0.55,3.15 1.88,6.05 5.08,6.05 h 77.07 c 2.51,0 4.65,-1.8 5.08,-4.27 l 30.87,-175.53 c 0.55,-3.16 -1.88,-6.05 -5.08,-6.05"
                        id="path1061"
                        style="fill-opacity:1;fill:url(#linearGradient3129)"/>
                <path
                        class="cls-4"
                        d="m 759.05,561.37 h -59.28 c -2.11,0 -4.01,1.29 -4.79,3.25 l -30.6,77.23 c -1.34,3.38 1.15,7.06 4.8,7.06 h 89.87 c 2.85,0 5.16,-2.31 5.16,-5.16 v -77.23 c 0,-2.85 -2.31,-5.16 -5.16,-5.16"
                        id="path1063"
                        style="fill-opacity:1;fill:url(#linearGradient3129)"/>
                <path
                        class="cls-4"
                        d="m 793.67,364.69 h -95.28 l 19.25,-109.54 c 0.55,-3.15 -1.87,-6.04 -5.08,-6.04 h -77.07 c -2.5,0 -4.64,1.8 -5.08,4.26 l -19.56,111.32 h -73.91 c -2.12,0 -4.02,1.29 -4.8,3.26 l -30.6,77.29 c -1.34,3.38 1.15,7.06 4.8,7.06 h 89.1 l -12.62,71.84 c -0.47,2.69 1.25,5.29 3.92,5.92 l 74.05,17.19 c 2.88,0.67 5.74,-1.22 6.25,-4.13 l 15.95,-90.82 h 110.68 c 2.85,0 5.16,-2.31 5.16,-5.16 v -77.29 c 0,-2.85 -2.31,-5.16 -5.16,-5.16"
                        id="path1065"
                        style="fill-opacity:1;fill:url(#linearGradient3129)"/>
            </g>
        </g>
    </g>
</svg>
