<svg width="80" height="81" viewBox="0 0 80 81" fill="none" xmlns="http://www.w3.org/2000/svg">
<path d="M33.3333 10.4199H13.3333C11.4924 10.4199 10 11.9123 10 13.7533V67.0866C10 68.9275 11.4924 70.4199 13.3333 70.4199H33.3333C35.1743 70.4199 36.6667 68.9275 36.6667 67.0866V13.7533C36.6667 11.9123 35.1743 10.4199 33.3333 10.4199Z" stroke="white" stroke-width="2" stroke-linecap="round" stroke-linejoin="round"/>
<path d="M23.3359 10.4199V70.4199" stroke="white" stroke-width="2" stroke-linecap="round" stroke-linejoin="round"/>
<path d="M67.9979 63.4199C68.6645 65.0866 67.6645 67.0866 65.9979 67.7533L59.6645 70.0866C57.9979 70.7533 55.9979 69.7533 55.3312 68.0866L36.9979 17.4199C36.3312 15.7533 37.3312 13.7533 38.9979 13.0866L45.3312 10.7533C46.9979 10.0866 48.9979 11.0866 49.6645 12.7533L67.9979 63.4199Z" stroke="white" stroke-width="2" stroke-linecap="round" stroke-linejoin="round"/>
</svg>
