<?xml version="1.0" encoding="UTF-8" standalone="no"?>
<svg
   width="512px"
   height="512px"
   viewBox="0 0 512 512"
   version="1.1"
   id="svg1"
   sodipodi:docname="nuget-black.svg"
   inkscape:version="1.3.2 (091e20e, 2023-11-25, custom)"
   xmlns:inkscape="http://www.inkscape.org/namespaces/inkscape"
   xmlns:sodipodi="http://sodipodi.sourceforge.net/DTD/sodipodi-0.dtd"
   xmlns:xlink="http://www.w3.org/1999/xlink"
   xmlns="http://www.w3.org/2000/svg"
   xmlns:svg="http://www.w3.org/2000/svg">
  <sodipodi:namedview
     id="namedview1"
     pagecolor="#505050"
     bordercolor="#ffffff"
     borderopacity="1"
     inkscape:showpageshadow="0"
     inkscape:pageopacity="0"
     inkscape:pagecheckerboard="1"
     inkscape:deskcolor="#d1d1d1"
     showgrid="false"
     inkscape:zoom="2.90625"
     inkscape:cx="256"
     inkscape:cy="255.82796"
     inkscape:window-width="3840"
     inkscape:window-height="2054"
     inkscape:window-x="3829"
     inkscape:window-y="1083"
     inkscape:window-maximized="1"
     inkscape:current-layer="svg1" />
  <!-- Generator: Sketch 47.1 (45422) - http://www.bohemiancoding.com/sketch -->
  <title
     id="title1">nuget
    </title>
  <desc
     id="desc1">Created with Sketch.
    </desc>
  <defs
     id="defs1">
    <polygon
       id="path-1"
       points="0 46.021103 0 3.7002935 84.6521577 3.7002935 84.6521577 88.3419125 0 88.3419125" />
  </defs>
  <g
     id="Symbols"
     stroke="none"
     stroke-width="1"
     fill="none"
     fill-rule="evenodd"
     style="fill:#000000;fill-opacity:1">
    <g
       id="nuget"
       style="fill:#000000;fill-opacity:1">
      <g
         id="Global/Logo"
         transform="translate(0.000000, 6.000000)"
         style="fill:#000000;fill-opacity:1">
        <path
           d="M374.424959,454.856991 C327.675805,454.856991 289.772801,416.950177 289.772801,370.196324 C289.772801,323.463635 327.675805,285.535656 374.424959,285.535656 C421.174113,285.535656 459.077116,323.463635 459.077116,370.196324 C459.077116,416.950177 421.174113,454.856991 374.424959,454.856991 M205.565067,260.814741 C176.33891,260.814741 152.657469,237.109754 152.657469,207.901824 C152.657469,178.672728 176.33891,154.988907 205.565067,154.988907 C234.791225,154.988907 258.472666,178.672728 258.472666,207.901824 C258.472666,237.109754 234.791225,260.814741 205.565067,260.814741 M378.170817,95.6417786 L236.886365,95.6417786 C164.889705,95.6417786 106.479717,154.057639 106.479717,226.082702 L106.479717,367.360191 C106.479717,439.40642 164.889705,497.77995 236.886365,497.77995 L378.170817,497.77995 C450.209803,497.77995 508.577466,439.40642 508.577466,367.360191 L508.577466,226.082702 C508.577466,154.057639 450.209803,95.6417786 378.170817,95.6417786"
           id="Fill-12"
           fill="#004880"
           fill-rule="evenodd"
           style="fill:#000000;fill-opacity:1" />
        <mask
           id="mask-2"
           fill="white">
          <use
             xlink:href="#path-1"
             id="use1" />
        </mask>
        <g
           id="Clip-15"
           style="fill:#000000;fill-opacity:1" />
        <path
           d="M84.6521577,46.0115787 C84.6521577,69.3990881 65.6900744,88.3419125 42.3260788,88.3419125 C18.9409203,88.3419125 0,69.3990881 0,46.0115787 C0,22.6452344 18.9409203,3.68124485 42.3260788,3.68124485 C65.6900744,3.68124485 84.6521577,22.6452344 84.6521577,46.0115787"
           id="Fill-14"
           fill="#004880"
           fill-rule="evenodd"
           mask="url(#mask-2)"
           style="fill:#000000;fill-opacity:1" />
      </g>
    </g>
  </g>
</svg>
