<svg xmlns="http://www.w3.org/2000/svg" width="59" height="59" viewBox="0 0 59 59">
    <g>
        <g>
            <g>
                <path fill="#1d1d1b"
                      d="M56.603 29.503a27.107 27.107 0 1 1-27.1-27.107c14.963.018 27.087 12.145 27.1 27.107zM29.508 59C45.788 58.982 58.982 45.789 59 29.508A29.5 29.5 0 1 0 29.508 59z"/>
            </g>
            <g>
                <path fill="#1d1d1b"
                      d="M25.41 40c-.316 0-.618-.127-.84-.352l-9.192-9.282c-.318-.3-.449-.75-.341-1.175.108-.425.436-.758.857-.866.422-.109.868.023 1.164.345l8.351 8.433 16.56-16.755a1.188 1.188 0 0 1 1.68 0 1.198 1.198 0 0 1 0 1.696L26.218 39.648a1.199 1.199 0 0 1-.809.352z"/>
            </g>
        </g>
    </g>
</svg>