<svg xmlns="http://www.w3.org/2000/svg" width="91" height="91">
    <path fill="#1d1d1b"
          d="M49.74 85.76l.07-.04-.02.08zM51.9 78c.7-3.28 1.03-6.64 1-10a94.85 94.85 0 0 0 19.57-15.2A49.93 49.93 0 0 0 76.6 48c-.45 18.23-18.65 32.3-26.8 37.72A60.07 60.07 0 0 0 51.9 78zM21.16 65.17l4.65 4.65A39.32 39.32 0 0 1 17 74a38.96 38.96 0 0 1 4.17-8.83zm-16-24c5.37-8.13 19.47-26.45 37.78-26.87a51.3 51.3 0 0 0-4.74 4.16A94.24 94.24 0 0 0 23 38.08 45 45 0 0 0 13 39a58.12 58.12 0 0 0-7.82 2.16zM19.28 57c0-.15 0-.3.05-.45.08-.6.18-1.2.3-1.82 0-.15.06-.3.1-.45.02-.15.1-.52.17-.78L37.35 71l-.8.18-.44.1c-.62.12-1.23.2-1.83.3l-.43.04c-.63.07-1.24.12-1.84.14l-2.85-2.85L22 61.74l-2.85-2.85c0-.6.06-1.2.12-1.82zM87.9 3c-.13 6.34-1.7 31.7-17.6 47.58-9.45 9.46-20.25 16.47-29.6 19.52L20.8 50.23c3.05-9.36 10.06-20.16 19.52-29.62C56.18 4.76 81.56 3.17 87.92 3zm3-1.53A1.5 1.5 0 0 0 89.46 0c-1.12 0-24-.43-42.53 11.5-11.1-1.2-22.43 3.63-33 14.12A86.4 86.4 0 0 0 .18 43.54a1.5 1.5 0 0 0 2 2.07 53.9 53.9 0 0 1 19.24-4.54 45.84 45.84 0 0 0-5.2 16.24c-.06.72-.1 1.43-.1 2.12v.06a1.48 1.48 0 0 0 .44 1.07L19 63a39.93 39.93 0 0 0-5.65 12.85 1.5 1.5 0 0 0 .4 1.37 1.53 1.53 0 0 0 1.06.44c.1 0 .2 0 .32 0A40.25 40.25 0 0 0 28 71.94l2.42 2.42c.28.3.66.44 1.06.44.7 0 1.44 0 2.18-.1a45.64 45.64 0 0 0 16.24-5.17 54.16 54.16 0 0 1-4.55 19.24 1.5 1.5 0 0 0 1.35 2.15c.25 0 .5-.06.72-.18A86.4 86.4 0 0 0 65.3 77c10.48-10.57 15.3-21.9 14.1-33C91.35 25.48 90.95 2.6 90.9 1.47zM55.9 25.88a9.13 9.13 0 1 1-.02 18.26 9.13 9.13 0 0 1 .02-18.26zM43.76 35a12.14 12.14 0 1 0 3.56-8.6 12 12 0 0 0-3.56 8.6z"/>
</svg>