<svg width="80" height="81" viewBox="0 0 80 81" fill="none" xmlns="http://www.w3.org/2000/svg">
<path d="M15.0026 55.42C10.0026 59.62 8.33594 72.0867 8.33594 72.0867C8.33594 72.0867 20.8026 70.42 25.0026 65.42C27.3693 62.62 27.3359 58.32 24.7026 55.72C23.407 54.4834 21.7002 53.7688 19.91 53.7134C18.1198 53.6581 16.3722 54.2658 15.0026 55.42Z" stroke="#EFEFEF" stroke-width="2" stroke-linecap="round" stroke-linejoin="round"/>
<path d="M40 50.4201L30 40.4201C31.7738 35.8182 34.0073 31.407 36.6667 27.2534C40.5506 21.0434 45.9587 15.9303 52.3767 12.4004C58.7946 8.87054 66.0089 7.04133 73.3333 7.08676C73.3333 16.1534 70.7333 32.0868 53.3333 43.7534C49.123 46.4158 44.6562 48.6492 40 50.4201Z" stroke="#EFEFEF" stroke-width="2" stroke-linecap="round" stroke-linejoin="round"/>
<path d="M30.0026 40.4201H13.3359C13.3359 40.4201 15.1693 30.3201 20.0026 27.0868C25.4026 23.4868 36.6693 27.0868 36.6693 27.0868" stroke="#EFEFEF" stroke-width="2" stroke-linecap="round" stroke-linejoin="round"/>
<path d="M40 50.4201V67.0868C40 67.0868 50.1 65.2534 53.3333 60.4201C56.9333 55.0201 53.3333 43.7534 53.3333 43.7534" stroke="#EFEFEF" stroke-width="2" stroke-linecap="round" stroke-linejoin="round"/>
</svg>
