<svg xmlns="http://www.w3.org/2000/svg" width="27" height="29" viewBox="0 0 27 29">
    <g>
        <g>
            <g>
                <g>
                    <path fill="#973eff"
                          d="M11.577 3.842c4.328 0 7.849 3.612 7.849 8.053 0 4.44-3.521 8.052-7.849 8.052s-7.849-3.612-7.849-8.052c0-4.44 3.521-8.053 7.849-8.053zm14.402 21.736l-6.264-6.68a11.026 11.026 0 0 0 2.493-7.003C22.208 5.887 17.44 1 11.582 1 5.722 1 .956 5.887.956 11.895c0 6.007 4.767 10.894 10.626 10.894 2.2 0 4.296-.68 6.088-1.971l6.311 6.73a1.36 1.36 0 0 0 1.96.04c.55-.544.568-1.445.038-2.01z"/>
                    <path fill="none" stroke="#000" stroke-miterlimit="50" stroke-width=".4"
                          d="M11.577 3.842c4.328 0 7.849 3.612 7.849 8.053 0 4.44-3.521 8.052-7.849 8.052s-7.849-3.612-7.849-8.052c0-4.44 3.521-8.053 7.849-8.053zm14.402 21.736l-6.264-6.68a11.026 11.026 0 0 0 2.493-7.003C22.208 5.887 17.44 1 11.582 1 5.722 1 .956 5.887.956 11.895c0 6.007 4.767 10.894 10.626 10.894 2.2 0 4.296-.68 6.088-1.971l6.311 6.73a1.36 1.36 0 0 0 1.96.04c.55-.544.568-1.445.038-2.01z"/>
                </g>
            </g>
        </g>
    </g>
</svg>