<svg xmlns="http://www.w3.org/2000/svg" width="27" height="29">
    <path fill="#fff"
          d="M11.58 3.84a7.96 7.96 0 017.85 8.06c0 4.44-3.52 8.05-7.85 8.05s-7.85-3.61-7.85-8.05a7.96 7.96 0 017.85-8.06zm14.4 21.74L19.7 18.9a11.03 11.03 0 002.5-7C22.2 5.88 17.44 1 11.58 1 5.72 1 .96 5.89.96 11.9c0 6 4.76 10.89 10.62 10.89 2.2 0 4.3-.68 6.09-1.97l6.31 6.73a1.36 1.36 0 001.96.04c.55-.55.57-1.45.04-2.01z"/>
    <path fill="none" stroke="#000" stroke-miterlimit="50" stroke-width=".4"
          d="M11.58 3.84a7.96 7.96 0 017.85 8.06c0 4.44-3.52 8.05-7.85 8.05s-7.85-3.61-7.85-8.05a7.96 7.96 0 017.85-8.06zm14.4 21.74L19.7 18.9a11.03 11.03 0 002.5-7C22.2 5.88 17.44 1 11.58 1 5.72 1 .96 5.89.96 11.9c0 6 4.76 10.89 10.62 10.89 2.2 0 4.3-.68 6.09-1.97l6.31 6.73a1.36 1.36 0 001.96.04c.55-.55.57-1.45.04-2.01z"/>
</svg>