<?xml version="1.0" encoding="UTF-8" standalone="no"?>
<svg
   width="50"
   height="50"
   viewBox="0 0 50 50"
   version="1.1"
   id="svg2686"
   sodipodi:docname="follow-ps-slack.svg"
   inkscape:version="1.2.2 (732a01da63, 2022-12-09)"
   xmlns:inkscape="https://www.inkscape.org/namespaces/inkscape"
   xmlns:sodipodi="https://sodipodi.sourceforge.net/DTD/sodipodi-0.dtd"
   xmlns="http://www.w3.org/2000/svg"
   xmlns:svg="http://www.w3.org/2000/svg">
  <defs
     id="defs2690" />
  <sodipodi:namedview
     id="namedview2688"
     pagecolor="#505050"
     bordercolor="#ffffff"
     borderopacity="1"
     inkscape:showpageshadow="0"
     inkscape:pageopacity="0"
     inkscape:pagecheckerboard="1"
     inkscape:deskcolor="#505050"
     showgrid="false"
     inkscape:zoom="20.54"
     inkscape:cx="24.975657"
     inkscape:cy="13.291139"
     inkscape:window-width="3840"
     inkscape:window-height="2054"
     inkscape:window-x="-11"
     inkscape:window-y="-11"
     inkscape:window-maximized="1"
     inkscape:current-layer="svg2686" />
  <g
     id="g2680"
     style="fill:#973EFF;fill-opacity:1">
    <path
       fill="#973EFF"
       d="M 24.97,49.938 C 11.202,49.938 0,38.736 0,24.968 0,11.202 11.203,0 24.97,0 c 13.769,0 24.97,11.201 24.97,24.969 0,13.767 -11.201,24.968 -24.97,24.968 m 0,-47.56 C 12.514,2.377 2.379,12.511 2.379,24.969 2.379,37.425 12.514,47.56 24.97,47.56 37.427,47.56 47.561,37.425 47.561,24.969 47.561,12.511 37.428,2.377 24.97,2.377"
       id="path2678"
       style="fill:#973EFF;fill-opacity:1" />
  </g>
  <g
     id="g4588"
     transform="matrix(0.23324315,0,0,0.23324315,10.070301,10.070301)">
    <g
       id="g6"
       style="fill:#973eff;fill-opacity:1"
       transform="translate(-73.6,-73.6)">
		<path
   d="m 99.4,151.2 c 0,7.1 -5.8,12.9 -12.9,12.9 -7.1,0 -12.9,-5.8 -12.9,-12.9 0,-7.1 5.8,-12.9 12.9,-12.9 h 12.9 z"
   id="path2"
   style="fill:#973eff;fill-opacity:1" />

		<path
   d="m 105.9,151.2 c 0,-7.1 5.8,-12.9 12.9,-12.9 7.1,0 12.9,5.8 12.9,12.9 v 32.3 c 0,7.1 -5.8,12.9 -12.9,12.9 -7.1,0 -12.9,-5.8 -12.9,-12.9 0,0 0,-32.3 0,-32.3 z"
   id="path4"
   style="fill:#973eff;fill-opacity:1" />

	</g>
    <g
       id="g12"
       style="fill:#973eff;fill-opacity:1"
       transform="translate(-73.6,-73.6)">
		<path
   d="m 118.8,99.4 c -7.1,0 -12.9,-5.8 -12.9,-12.9 0,-7.1 5.8,-12.9 12.9,-12.9 7.1,0 12.9,5.8 12.9,12.9 v 12.9 z"
   id="path8"
   style="fill:#973eff;fill-opacity:1" />

		<path
   d="m 118.8,105.9 c 7.1,0 12.9,5.8 12.9,12.9 0,7.1 -5.8,12.9 -12.9,12.9 H 86.5 c -7.1,0 -12.9,-5.8 -12.9,-12.9 0,-7.1 5.8,-12.9 12.9,-12.9 0,0 32.3,0 32.3,0 z"
   id="path10"
   style="fill:#973eff;fill-opacity:1" />

	</g>
    <g
       id="g18"
       style="fill:#973eff;fill-opacity:1"
       transform="translate(-73.6,-73.6)">
		<path
   d="m 170.6,118.8 c 0,-7.1 5.8,-12.9 12.9,-12.9 7.1,0 12.9,5.8 12.9,12.9 0,7.1 -5.8,12.9 -12.9,12.9 h -12.9 z"
   id="path14"
   style="fill:#973eff;fill-opacity:1" />

		<path
   d="m 164.1,118.8 c 0,7.1 -5.8,12.9 -12.9,12.9 -7.1,0 -12.9,-5.8 -12.9,-12.9 V 86.5 c 0,-7.1 5.8,-12.9 12.9,-12.9 7.1,0 12.9,5.8 12.9,12.9 z"
   id="path16"
   style="fill:#973eff;fill-opacity:1" />

	</g>
    <g
       id="g24"
       style="fill:#973eff;fill-opacity:1"
       transform="translate(-73.6,-73.6)">
		<path
   d="m 151.2,170.6 c 7.1,0 12.9,5.8 12.9,12.9 0,7.1 -5.8,12.9 -12.9,12.9 -7.1,0 -12.9,-5.8 -12.9,-12.9 v -12.9 z"
   id="path20"
   style="fill:#973eff;fill-opacity:1" />

		<path
   d="m 151.2,164.1 c -7.1,0 -12.9,-5.8 -12.9,-12.9 0,-7.1 5.8,-12.9 12.9,-12.9 h 32.3 c 7.1,0 12.9,5.8 12.9,12.9 0,7.1 -5.8,12.9 -12.9,12.9 z"
   id="path22"
   style="fill:#973eff;fill-opacity:1" />

	</g>
  </g>
  <path
     style="fill:#973EFF;stroke-width:0.140766"
     d="m 12.591468,23.558542 c -1.123347,-0.190507 -2.108123,-1.100561 -2.391997,-2.210498 -0.2680516,-1.048073 0.0126,-2.041479 0.798894,-2.827771 0.293528,-0.293528 0.487181,-0.439621 0.759181,-0.572732 0.680203,-0.332876 0.599576,-0.328073 5.25018,-0.312772 l 4.170463,0.01372 0.357089,0.130439 c 0.913418,0.333657 1.595772,1.014969 1.908339,1.905427 0.147145,0.419194 0.183274,1.16758 0.07683,1.591511 -0.262367,1.044945 -1.044336,1.863092 -2.123176,2.221406 -0.250033,0.08304 -0.541891,0.08949 -4.406037,0.09727 -2.309404,0.0047 -4.253835,-0.01126 -4.399769,-0.03601 z"
     id="path4672" />
  <path
     style="fill:#973EFF;stroke-width:0.140766"
     d="m 19.991765,15.991188 c -1.089267,-0.236353 -1.986109,-1.101147 -2.267952,-2.186908 -0.0955,-0.367918 -0.09696,-1.091213 -0.0029,-1.452252 0.174136,-0.668553 0.684746,-1.37469 1.279513,-1.769473 0.151111,-0.100302 0.461938,-0.247736 0.690725,-0.327631 0.354313,-0.123729 0.488148,-0.145288 0.902832,-0.145434 0.561585,-1.97e-4 0.897595,0.0825 1.411879,0.347472 0.479528,0.247068 1.024607,0.80153 1.258209,1.279869 0.310153,0.635088 0.32407,0.748273 0.32407,2.635618 v 1.693763 l -1.643136,-0.0039 c -1.203585,-0.0028 -1.726085,-0.02187 -1.95322,-0.07115 z"
     id="path4674" />
  <path
     style="fill:#973EFF;stroke-width:0.140766"
     d="m 12.439143,31.082761 c -1.057297,-0.2279 -1.986179,-1.145094 -2.263143,-2.234665 -0.159394,-0.627052 -0.04668,-1.472951 0.278003,-2.08636 0.223697,-0.422622 0.800665,-0.990883 1.230515,-1.211947 0.668267,-0.343677 0.687983,-0.346445 2.619549,-0.367745 l 1.74321,-0.01922 -0.01676,1.841666 c -0.01619,1.778185 -0.02061,1.852109 -0.128439,2.144625 -0.521318,1.414268 -2.011682,2.246465 -3.46293,1.933648 z"
     id="path4676" />
  <path
     style="fill:#973EFF;stroke-width:0.140766"
     d="m 20.17659,38.655696 c -0.371085,-0.05805 -0.871458,-0.253122 -1.187669,-0.463011 -0.583343,-0.387201 -1.095231,-1.098441 -1.268028,-1.761851 -0.108216,-0.415471 -0.108216,-8.570832 0,-8.986303 0.267364,-1.026478 1.190071,-1.935336 2.215816,-2.182557 0.379441,-0.09145 1.082236,-0.07904 1.433314,0.02531 1.064682,0.316459 1.878874,1.149406 2.144338,2.193731 0.110253,0.433736 0.110534,8.477878 2.92e-4,8.913331 -0.257712,1.018123 -1.113804,1.900477 -2.117398,2.182349 -0.348722,0.09794 -0.87986,0.132317 -1.220683,0.079 z"
     id="path4678" />
  <path
     style="fill:#973EFF;stroke-width:0.140766"
     d="m 27.531646,31.082761 c -0.839435,-0.18094 -1.655567,-0.834296 -2.033645,-1.628039 -0.232311,-0.487715 -0.303259,-0.793416 -0.303259,-1.306675 0,-0.796036 0.295597,-1.48047 0.897167,-2.077328 0.41262,-0.409389 0.750683,-0.610748 1.320749,-0.786672 0.271272,-0.08372 0.554531,-0.0893 4.525025,-0.0893 4.73893,0 4.432641,-0.02109 5.160662,0.355351 0.430283,0.222489 0.966795,0.747502 1.209083,1.183169 0.342258,0.615426 0.463289,1.470238 0.299435,2.114834 -0.210051,0.826335 -0.848504,1.628537 -1.581547,1.987179 -0.667898,0.32677 -0.592781,0.322087 -5.111976,0.318724 -3.294164,-0.0024 -4.125263,-0.01596 -4.381694,-0.07124 z"
     id="path4680" />
  <path
     style="fill:#973EFF;stroke-width:0.140766"
     d="m 27.799416,23.581473 c -1.213177,-0.185579 -2.231848,-1.10311 -2.530914,-2.279628 -0.110513,-0.434754 -0.110513,-8.478575 0,-8.91333 0.263095,-1.03501 1.092236,-1.884184 2.14143,-2.19317 0.456502,-0.134439 1.165441,-0.115125 1.655307,0.04509 0.955398,0.312482 1.742481,1.146909 1.99271,2.112575 0.06657,0.256896 0.07642,0.836139 0.07642,4.492165 0,4.615082 0.009,4.462927 -0.300658,5.083741 -0.358428,0.718595 -0.996467,1.26823 -1.754819,1.511681 -0.367935,0.118116 -0.984475,0.185998 -1.279479,0.140871 z"
     id="path4682" />
  <path
     style="fill:#973EFF;stroke-width:0.140766"
     d="m 32.752351,21.778375 c 0.01619,-1.778186 0.02061,-1.852109 0.128439,-2.144625 0.415752,-1.127882 1.461587,-1.911504 2.659619,-1.992794 1.388275,-0.0942 2.710931,0.895192 3.066454,2.29381 0.163854,0.644597 0.04282,1.499408 -0.299435,2.114834 -0.242524,0.436092 -0.778876,0.960805 -1.209083,1.182845 -0.666887,0.344197 -0.687288,0.347066 -2.619549,0.368373 l -1.74321,0.01922 z"
     id="path4684" />
  <path
     style="fill:#973EFF;stroke-width:0.140766"
     d="m 27.713555,38.654283 c -0.893808,-0.138089 -1.805144,-0.809877 -2.202204,-1.623347 -0.301889,-0.61849 -0.316609,-0.740325 -0.316609,-2.620522 V 32.71665 h 1.647519 c 1.480358,0 1.685606,0.0097 2.022905,0.09601 0.981245,0.25096 1.797538,0.986194 2.124567,1.913594 0.149497,0.423948 0.185665,1.255903 0.07331,1.68628 -0.255081,0.977082 -1.04392,1.823754 -1.97346,2.118145 -0.426796,0.135168 -0.979706,0.184836 -1.376026,0.123606 z"
     id="path4686" />
</svg>
