<svg xmlns="http://www.w3.org/2000/svg" width="129" height="226" viewBox="0 0 129 226">
    <g>
        <g>
            <g>
                <path fill="#43127c"
                      d="M58.344 124.216V91.7L24.2 67.984V50.12h80.256v17.864L70.312 91.7v32.516H58.344z"/>
            </g>
            <g>
                <path fill="#2e2540"
                      d="M110.396 150.568v53.108H18.26v-53.108l34.144-23.716V94.82L18.26 71.104V22h92.136v49.104L76.252 94.82v32.032zm10.12-74.184V22h8.14V0H0v22h8.14v54.384L42.284 100.1v21.472L8.14 145.2v58.476H0v22h128.656v-22h-8.14V145.2l-34.144-23.716V100.1z"/>
            </g>
            <g>
                <path fill="#7b18ee" d="M23.98 189.464v9.504h80.08v-9.504L64.328 164.34 23.98 189.464z"/>
            </g>
            <g>
                <path fill="#5a14ab" d="M58.34 130.28h12.012v12.012H58.34z"/>
            </g>
        </g>
    </g>
</svg>