<svg xmlns="http://www.w3.org/2000/svg" width="28" height="28" viewBox="0 0 28 28">
    <g>
        <g>
            <g>
                <path fill="#973eff"
                      d="M9.15 7.172c0-2.792 2.258-5.063 5.033-5.063 2.775 0 5.033 2.271 5.033 5.063 0 2.709-2.126 4.927-4.788 5.056a13.508 13.508 0 0 0-.49 0c-2.662-.13-4.787-2.348-4.787-5.056zM7.656 24.89H3.94c-.448 0-.719-.252-.84-.401a1.106 1.106 0 0 1-.222-.924c1.09-5.261 5.71-9.103 11.043-9.228a7.133 7.133 0 0 0 .537 0c1.304.03 2.578.276 3.79.734a1.048 1.048 0 0 0 1.352-.617 1.056 1.056 0 0 0-.614-1.358 13.497 13.497 0 0 0-.524-.185 7.177 7.177 0 0 0 2.863-5.74C21.325 3.217 18.123 0 14.188 0c-3.935 0-7.136 3.217-7.136 7.172a7.177 7.177 0 0 0 2.867 5.744 13.617 13.617 0 0 0-4.398 2.429 13.771 13.771 0 0 0-4.698 7.79 3.214 3.214 0 0 0 .649 2.685A3.162 3.162 0 0 0 3.94 27h3.715c.58 0 1.05-.472 1.05-1.055 0-.582-.47-1.054-1.05-1.054z"/>
            </g>
            <g>
                <path fill="#973eff"
                      d="M18.9 7.172c0-2.792-2.258-5.063-5.033-5.063-2.775 0-5.033 2.271-5.033 5.063 0 2.709 2.126 4.927 4.788 5.056a13.508 13.508 0 0 1 .49 0c2.662-.13 4.787-2.348 4.787-5.056zm1.495 17.719h3.715c.448 0 .719-.252.84-.401.21-.26.29-.596.222-.924-1.09-5.261-5.71-9.103-11.043-9.228a7.133 7.133 0 0 1-.537 0c-1.304.03-2.578.276-3.79.734a1.048 1.048 0 0 1-1.352-.617 1.056 1.056 0 0 1 .614-1.358c.173-.065.348-.127.524-.185a7.177 7.177 0 0 1-2.863-5.74C6.725 3.217 9.927 0 13.862 0c3.935 0 7.136 3.217 7.136 7.172a7.177 7.177 0 0 1-2.867 5.744 13.617 13.617 0 0 1 4.398 2.429 13.771 13.771 0 0 1 4.698 7.79 3.214 3.214 0 0 1-.649 2.685A3.162 3.162 0 0 1 24.11 27h-3.715c-.58 0-1.05-.472-1.05-1.055 0-.582.47-1.054 1.05-1.054z"/>
            </g>
        </g>
        <g>
            <path fill="none" stroke="#973eff" stroke-linecap="square" stroke-miterlimit="50" stroke-width="2.4"
                  d="M6.725 25.985h16.847"/>
        </g>
    </g>
</svg>