<svg width="750" height="700" viewBox="0 0 750 700" fill="none" xmlns="http://www.w3.org/2000/svg">
<g clip-path="url(#clip0_3015_10558)">
<mask id="mask0_3015_10558" style="mask-type:luminance" maskUnits="userSpaceOnUse" x="-3" y="-3" width="692" height="702">
<path d="M688.265 -2.13531H-2.22656V698.802H688.265V-2.13531Z" fill="white"/>
</mask>
<g mask="url(#mask0_3015_10558)">
<mask id="mask1_3015_10558" style="mask-type:luminance" maskUnits="userSpaceOnUse" x="-3" y="-3" width="692" height="702">
<path d="M688.265 -2.13531H-2.22656V698.802H688.265V-2.13531Z" fill="white"/>
</mask>
<g mask="url(#mask1_3015_10558)">
<path d="M117.296 437.275H4.46504C0.770562 437.275 -2.21094 440.526 -2.21094 444.536V553.214C-2.21094 557.224 0.783525 560.475 4.46504 560.475H77.5638C80.299 560.475 82.762 558.66 83.7861 555.902L123.518 447.224C125.255 442.468 122.027 437.289 117.309 437.289" fill="url(#paint0_linear_3015_10558)"/>
<path d="M505.334 437.275H257.415L327.234 6.36413C327.947 1.93147 324.797 -2.13531 320.649 -2.13531H220.652C217.411 -2.13531 214.637 0.397627 214.067 3.85933L188.724 160.508H49.2541C45.5596 160.508 42.5781 163.759 42.5781 167.769V276.531C42.5781 280.542 45.5726 283.792 49.2541 283.792H168.761L102.947 690.289C102.234 694.721 105.371 698.802 109.532 698.802H209.439C212.68 698.802 215.454 696.269 216.024 692.794L237.439 560.461H379.838L358.812 690.289C358.099 694.721 361.249 698.802 365.398 698.802H465.304C468.558 698.802 471.332 696.269 471.889 692.794L511.906 445.789C512.619 441.342 509.469 437.275 505.321 437.275" fill="url(#paint1_linear_3015_10558)"/>
<path d="M636.713 437.275H559.868C557.133 437.275 554.67 439.09 553.659 441.849L513.992 550.526C512.255 555.282 515.483 560.461 520.214 560.461H636.713C640.408 560.461 643.402 557.21 643.402 553.2V444.522C643.402 440.512 640.408 437.261 636.713 437.261" fill="url(#paint2_linear_3015_10558)"/>
<path d="M681.588 160.508H558.076L583.03 6.36413C583.743 1.93147 580.606 -2.13531 576.445 -2.13531H476.538C473.298 -2.13531 470.524 0.397627 469.953 3.85933L444.597 160.508H348.787C346.039 160.508 343.576 162.324 342.565 165.096L302.898 273.858C301.161 278.614 304.389 283.792 309.12 283.792H424.621L408.262 384.885C407.653 388.671 409.882 392.329 413.344 393.216L509.335 417.406C513.068 418.348 516.776 415.689 517.437 411.594L538.113 283.792H681.588C685.283 283.792 688.277 280.542 688.277 276.531V167.769C688.277 163.759 685.283 160.508 681.588 160.508Z" fill="url(#paint3_linear_3015_10558)"/>
</g>
</g>
</g>
<g clip-path="url(#clip1_3015_10558)">
<g clip-path="url(#clip2_3015_10558)">
<g clip-path="url(#clip3_3015_10558)">
<mask id="mask2_3015_10558" style="mask-type:luminance" maskUnits="userSpaceOnUse" x="55" y="169" width="620" height="102">
<path d="M674.981 169.991H55.0156V270.67H674.981V169.991Z" fill="white"/>
</mask>
<g mask="url(#mask2_3015_10558)">
<mask id="mask3_3015_10558" style="mask-type:luminance" maskUnits="userSpaceOnUse" x="55" y="169" width="620" height="102">
<path d="M674.981 169.991H55.0156V270.67H674.981V169.991Z" fill="white"/>
</mask>
<g mask="url(#mask3_3015_10558)">
<path d="M214.824 203.225C214.598 200.793 216.385 198.64 218.817 198.404C221.25 198.178 223.403 199.965 223.638 202.397C223.665 202.667 223.665 202.946 223.638 203.225V204.315C224.153 202.423 225.278 200.749 226.829 199.555C228.564 198.151 230.744 197.428 232.967 197.506C239 197.506 242.714 199.808 244.1 204.42C244.772 202.449 246.053 200.749 247.771 199.564C249.776 198.16 252.182 197.436 254.632 197.515C262.81 197.515 266.916 202.563 266.916 210.749V242.458C267.143 244.873 265.364 247.017 262.949 247.244C260.534 247.471 258.39 245.692 258.163 243.277C258.137 243.007 258.137 242.728 258.163 242.458V213.182C258.163 207.602 256.445 205.274 252.583 205.274C247.684 205.274 245.26 209.659 245.26 218.465V242.458C245.487 244.873 243.708 247.017 241.293 247.244C238.869 247.471 236.725 245.692 236.498 243.277C236.472 243.007 236.472 242.728 236.498 242.458V213.182C236.498 207.602 234.972 205.274 230.918 205.274C226.019 205.274 223.595 210.052 223.638 219.607V242.458C223.865 244.89 222.078 247.043 219.646 247.279C217.213 247.514 215.06 245.718 214.824 243.286C214.798 243.016 214.798 242.737 214.824 242.458V203.234V203.225Z" fill="white"/>
<path d="M321.453 232.78C320.119 232.807 318.863 233.417 318.018 234.446C314.591 238.395 309.744 240.391 303.415 240.391C299.578 240.496 295.873 239.014 293.153 236.303C290.477 233.617 288.785 230.113 288.349 226.355H322.045C324.539 226.582 326.736 224.733 326.954 222.249C326.98 221.987 326.98 221.726 326.954 221.455C327.137 215.1 324.757 208.936 320.337 204.367C315.925 199.782 309.77 197.28 303.415 197.506C296.03 197.506 290.128 199.939 285.76 204.751C277.059 215.257 277.059 230.47 285.76 240.976C290.137 245.779 296.021 248.159 303.415 248.159C312.028 248.159 318.985 245.683 324.164 240.679C326.038 239.049 326.239 236.207 324.6 234.332C324.583 234.315 324.565 234.289 324.548 234.271C323.824 233.303 322.665 232.746 321.461 232.78H321.453ZM293.362 209.128C296.074 206.564 299.683 205.187 303.415 205.283C306.928 205.126 310.337 206.477 312.787 208.997C315.28 211.691 317.015 214.986 317.835 218.561H288.341C288.916 214.943 290.677 211.63 293.354 209.128" fill="white"/>
<path d="M354.06 177.986C356.78 177.986 358.445 179.991 358.445 182.842V198.465H376.1C379.134 198.465 380.668 199.747 380.668 202.31C380.668 204.873 379.142 206.155 376.1 206.155H358.445V231.673C358.445 237.619 361.584 240.296 365.96 240.296C368.314 240.383 370.651 239.825 372.717 238.683L375.524 236.677C376.265 236.102 377.154 235.762 378.087 235.675C380.276 235.649 382.072 237.401 382.098 239.589C382.098 239.677 382.098 239.772 382.098 239.868C382.098 241.342 381.147 242.763 379.29 244.097C375.245 246.852 370.424 248.238 365.533 248.046C360.721 248.046 356.876 246.764 353.99 244.288C351.104 241.813 349.666 237.881 349.666 232.484V206.259H336.998C333.947 206.259 332.43 204.978 332.43 202.415C332.43 199.851 333.947 198.57 336.998 198.57H349.666V182.851C349.456 180.383 351.296 178.213 353.763 178.003C353.859 178.003 353.964 177.995 354.06 177.986Z" fill="white"/>
<path d="M433.563 198.465C431.139 198.465 429.422 200.418 429.186 203.504C427.669 201.49 425.603 199.956 423.24 199.084C420.782 198.047 418.149 197.506 415.481 197.506C408.428 197.506 402.866 199.982 398.812 204.986C394.688 210.008 392.508 216.346 392.674 222.833C392.5 229.337 394.627 235.692 398.672 240.784C402.709 245.683 408.323 248.159 415.525 248.159C418.184 248.151 420.817 247.628 423.284 246.634C425.647 245.727 427.704 244.175 429.23 242.161C429.456 245.265 431.13 247.209 433.606 247.209C436.082 247.349 438.201 245.448 438.332 242.972C438.34 242.763 438.332 242.554 438.323 242.344V203.313C438.523 200.845 436.693 198.674 434.217 198.474C433.999 198.456 433.781 198.456 433.563 198.474M425.612 235.544C421.069 241.167 412.822 242.039 407.199 237.497C406.484 236.922 405.83 236.268 405.246 235.544C402.569 231.856 401.218 227.384 401.401 222.833C401.209 218.299 402.569 213.836 405.246 210.174C409.727 204.551 417.913 203.626 423.537 208.099C424.304 208.709 425.001 209.407 425.612 210.174C428.314 213.827 429.674 218.291 429.456 222.833C429.666 227.384 428.306 231.865 425.612 235.544Z" fill="white"/>
<path d="M470.792 239.398V186.748H459.894C457.174 186.748 455.09 185.327 455.09 182.903C455.09 180.479 457.183 179.058 459.894 179.058H475.168C477.435 178.919 479.397 180.636 479.554 182.903V239.45H493.66C496.38 239.45 498.464 240.888 498.464 243.364C498.464 245.84 496.371 247.209 493.66 247.209H456.651C453.948 247.209 451.891 245.788 451.891 243.364C451.891 240.941 453.939 239.45 456.651 239.45L470.792 239.398Z" fill="#983BFC"/>
<path d="M544.235 198.465C541.811 198.465 540.094 200.418 539.859 203.504C538.333 201.499 536.275 199.965 533.913 199.084C531.48 198.055 528.865 197.515 526.223 197.506C519.17 197.506 513.608 199.982 509.554 204.986C505.43 210.008 503.251 216.346 503.416 222.833C503.242 229.337 505.369 235.692 509.414 240.784C513.451 245.683 519.065 248.159 526.258 248.159C528.917 248.151 531.55 247.628 534.017 246.634C536.38 245.727 538.438 244.175 539.963 242.161C540.199 245.265 541.864 247.209 544.34 247.209C546.816 247.349 548.934 245.448 549.065 242.972C549.074 242.763 549.074 242.554 549.056 242.344V203.313C549.266 200.845 547.426 198.674 544.959 198.465C544.715 198.448 544.479 198.448 544.235 198.465ZM536.284 235.535C531.742 241.159 523.494 242.03 517.871 237.488C517.156 236.913 516.502 236.259 515.918 235.535C513.242 231.848 511.89 227.375 512.073 222.824C511.882 218.291 513.242 213.827 515.918 210.165C520.399 204.542 528.586 203.618 534.209 208.09C534.976 208.7 535.674 209.398 536.284 210.165C538.987 213.818 540.347 218.282 540.129 222.824C540.338 227.375 538.978 231.856 536.284 235.535Z" fill="#983BFC"/>
<path d="M564.264 203.225C564.037 200.793 565.824 198.64 568.257 198.404C570.689 198.178 572.842 199.965 573.078 202.397C573.104 202.667 573.104 202.946 573.078 203.225V204.315C573.575 202.423 574.682 200.749 576.234 199.555C577.969 198.16 580.148 197.428 582.372 197.506C588.422 197.506 592.136 199.808 593.513 204.42C594.176 202.449 595.466 200.741 597.184 199.564C599.18 198.16 601.587 197.436 604.028 197.515C612.223 197.515 616.312 202.563 616.312 210.749V242.458C616.538 244.873 614.76 247.017 612.345 247.244C609.93 247.471 607.785 245.692 607.559 243.277C607.532 243.007 607.532 242.728 607.559 242.458V213.182C607.559 207.602 605.841 205.274 601.996 205.274C597.088 205.274 594.664 209.659 594.664 218.465V242.458C594.891 244.873 593.112 247.017 590.697 247.244C588.283 247.471 586.138 245.692 585.911 243.277C585.885 243.007 585.885 242.728 585.911 242.458V213.182C585.911 207.602 584.385 205.274 580.331 205.274C575.432 205.274 573.008 210.052 573.06 219.607V242.458C573.287 244.89 571.5 247.043 569.067 247.279C566.635 247.514 564.482 245.718 564.246 243.286C564.22 243.016 564.22 242.737 564.246 242.458L564.272 203.234L564.264 203.225Z" fill="#983BFC"/>
<path d="M670.243 198.465C667.819 198.465 666.111 200.418 665.866 203.504C664.349 201.49 662.283 199.956 659.921 199.084C657.488 198.055 654.873 197.515 652.231 197.506C645.178 197.506 639.616 199.982 635.562 204.986C631.447 210.008 629.267 216.346 629.424 222.833C629.25 229.337 631.377 235.692 635.422 240.784C639.459 245.683 645.073 248.159 652.275 248.159C654.916 248.142 657.523 247.628 659.964 246.634C662.327 245.736 664.393 244.184 665.91 242.161C666.154 245.265 667.811 247.209 670.287 247.209C672.763 247.322 674.864 245.404 674.977 242.928C674.986 242.745 674.977 242.571 674.977 242.388V203.321C675.178 200.854 673.338 198.683 670.871 198.483C670.67 198.465 670.461 198.465 670.26 198.474M662.327 235.544C657.776 241.167 649.52 242.039 643.896 237.488C643.181 236.913 642.528 236.259 641.952 235.544C639.276 231.856 637.924 227.384 638.107 222.833C637.916 218.299 639.276 213.836 641.952 210.174C646.433 204.551 654.637 203.626 660.261 208.108C661.028 208.718 661.716 209.407 662.327 210.174C665.021 213.827 666.381 218.299 666.172 222.833C666.372 227.384 665.012 231.865 662.327 235.544Z" fill="#983BFC"/>
<path d="M73.6475 233.112H56.054C55.4786 233.112 55.0078 233.574 55.0078 234.149V249.755C55.0078 250.33 55.4786 250.801 56.054 250.801H67.4488C67.876 250.801 68.2596 250.54 68.4165 250.147L74.6152 234.541C74.8855 233.853 74.3798 233.112 73.6475 233.112Z" fill="#983BFC"/>
<path d="M134.152 233.112H95.4947L106.384 171.221C106.497 170.584 106.009 170 105.355 170H89.7668C89.2612 170 88.8253 170.366 88.7381 170.863L84.7887 193.365H63.0453C62.4699 193.365 62.0078 193.827 62.0078 194.402V210.026C62.0078 210.601 62.4699 211.063 63.0453 211.063H81.6763L71.4148 269.449C71.3015 270.086 71.7897 270.67 72.4436 270.67H88.0232C88.5288 270.67 88.9647 270.304 89.0519 269.807L92.391 250.801H114.596L111.318 269.449C111.205 270.086 111.693 270.67 112.347 270.67H127.927C128.432 270.67 128.868 270.304 128.955 269.807L135.198 234.324C135.311 233.687 134.823 233.103 134.169 233.103" fill="#983BFC"/>
<path d="M154.639 233.112H142.66C142.233 233.112 141.849 233.373 141.693 233.766L135.511 249.371C135.241 250.06 135.747 250.801 136.479 250.801H154.648C155.223 250.801 155.694 250.33 155.694 249.755V234.149C155.694 233.574 155.223 233.112 154.648 233.112" fill="#983BFC"/>
<path d="M161.637 193.356H142.379L146.267 171.221C146.38 170.584 145.892 170 145.238 170H129.659C129.153 170 128.717 170.366 128.63 170.863L124.681 193.365H109.746C109.319 193.365 108.935 193.627 108.779 194.019L102.597 209.642C102.327 210.322 102.833 211.072 103.565 211.072H121.577L119.031 225.597C118.935 226.146 119.284 226.669 119.825 226.791L134.794 230.27C135.378 230.4 135.953 230.025 136.058 229.433L139.284 211.072H161.655C162.23 211.072 162.692 210.61 162.692 210.034V194.411C162.692 193.836 162.23 193.374 161.655 193.374" fill="#983BFC"/>
</g>
</g>
</g>
</g>
</g>
<defs>
<linearGradient id="paint0_linear_3015_10558" x1="7.75637" y1="697.347" x2="729.931" y2="68.2715" gradientUnits="userSpaceOnUse">
<stop stop-color="#3D1E61"/>
<stop offset="1" stop-color="#280E4D"/>
</linearGradient>
<linearGradient id="paint1_linear_3015_10558" x1="7.75804" y1="697.347" x2="729.932" y2="68.2715" gradientUnits="userSpaceOnUse">
<stop stop-color="#3D1E61"/>
<stop offset="1" stop-color="#280E4D"/>
</linearGradient>
<linearGradient id="paint2_linear_3015_10558" x1="7.75655" y1="697.347" x2="729.931" y2="68.2715" gradientUnits="userSpaceOnUse">
<stop stop-color="#3D1E61"/>
<stop offset="1" stop-color="#280E4D"/>
</linearGradient>
<linearGradient id="paint3_linear_3015_10558" x1="7.7536" y1="697.347" x2="729.928" y2="68.2716" gradientUnits="userSpaceOnUse">
<stop stop-color="#3D1E61"/>
<stop offset="1" stop-color="#280E4D"/>
</linearGradient>
<clipPath id="clip0_3015_10558">
<rect width="750" height="700" fill="white"/>
</clipPath>
<clipPath id="clip1_3015_10558">
<rect width="620" height="100.67" fill="white" transform="translate(55 170)"/>
</clipPath>
<clipPath id="clip2_3015_10558">
<rect width="620" height="100.67" fill="white" transform="translate(55 170)"/>
</clipPath>
<clipPath id="clip3_3015_10558">
<rect width="619.981" height="100.67" fill="white" transform="translate(55.0078 170)"/>
</clipPath>
</defs>
</svg>
