<svg width="900" height="780" viewBox="0 0 900 780" fill="none" xmlns="http://www.w3.org/2000/svg">
<path d="M776.264 345.107C786.757 347.833 797.627 348.209 808.214 344.919C822.298 340.5 835.154 331.381 841.109 317.656C850.278 296.315 847.915 264.916 837.801 244.233C827.686 223.551 809.254 206.065 787.229 197.698C769.175 190.929 747.434 192.057 730.609 201.74C705.465 216.124 698.186 248.652 704.236 275.351C708.489 294.059 720.022 310.323 734.768 322.544C746.394 332.227 760.951 341.158 776.264 345.107Z" fill="#2C0E56"/>
<path d="M138.874 696.708C61.2682 675.743 7.19952 570.545 0.677245 496.464C-6.79029 411.008 48.4127 329.219 121.008 282.872C145.396 267.36 172.052 254.668 192.564 234.268C224.798 202.022 229.429 155.393 251.927 117.224C274.424 79.0561 308.264 44.7421 348.815 23.6836C474.535 -41.5599 646.855 34.1189 672.377 175.699C677.765 205.501 676.252 236.242 680.79 266.232C688.163 314.365 717.938 351.97 761.326 373.31C813.126 398.881 861.334 414.581 885.721 471.269C906.612 519.873 903.209 577.596 884.398 626.199C873.055 655.531 856.607 683.264 833.921 705.074" fill="#2C0E56"/>
<path d="M238.7 755.088C215.73 754.9 192.477 755.37 171.019 745.875C165.726 743.525 160.716 740.611 157.313 736.38C153.91 732.15 152.02 724.347 147.86 719.082C129.712 696.143 86.5133 699.622 59.5734 693.417C52.5785 691.819 32.4446 687.777 29.5143 680.726C25.0716 670.479 40.6683 664.744 49.5537 662.77C109.01 649.702 171.964 656.659 232.65 655.343C250.326 654.967 268.192 654.497 285.017 649.984C293.714 647.634 302.032 644.155 310.728 641.899C328.404 637.387 347.215 637.857 365.553 638.421L549.122 643.685C575.306 644.437 601.867 645.19 626.917 651.958C647.996 657.693 667.846 667.752 689.871 670.196C714.258 672.923 739.875 672.171 764.452 673.205C801.978 674.803 843.759 672.641 879.867 682.982C883.176 683.922 886.484 685.05 888.658 687.4C892.439 691.443 891.211 697.742 887.524 701.69C883.838 705.639 878.071 707.801 872.494 709.493C834.401 720.774 792.431 716.074 753.581 725.005C747.91 726.321 742.143 728.013 738.362 731.962C734.581 735.91 734.014 739.67 731.651 743.431C723.617 755.934 704.995 758.661 688.831 759.789C592.887 766.182 496.755 762.515 401.095 776.053C384.458 778.309 367.727 781.129 350.996 779.531C319.047 776.429 290.689 757.815 258.55 755.746C252.028 755.276 245.411 755.182 238.7 755.088Z" fill="#A373E6"/>
<path d="M516.125 455.099C522.269 449.365 529.642 439.493 531.155 431.502" stroke="#260D46" stroke-width="17" stroke-linecap="round" stroke-linejoin="round"/>
<path d="M436.252 722.749C504.223 722.749 559.325 718.245 559.325 712.69C559.325 707.134 504.223 702.63 436.252 702.63C368.281 702.63 313.18 707.134 313.18 712.69C313.18 718.245 368.281 722.749 436.252 722.749Z" fill="#CBA6FF"/>
<path d="M419.333 575.998L418.483 644.908L374.906 676.495" stroke="#260D46" stroke-width="17" stroke-linecap="round" stroke-linejoin="round"/>
<path d="M418.584 656.565C425.319 656.565 430.778 651.135 430.778 644.437C430.778 637.74 425.319 632.31 418.584 632.31C411.85 632.31 406.391 637.74 406.391 644.437C406.391 651.135 411.85 656.565 418.584 656.565Z" fill="#E8D7FF"/>
<path d="M418.575 650.736C422.073 650.736 424.909 647.916 424.909 644.437C424.909 640.959 422.073 638.139 418.575 638.139C415.078 638.139 412.242 640.959 412.242 644.437C412.242 647.916 415.078 650.736 418.575 650.736Z" fill="#260D46"/>
<path d="M379.346 673.798C381.815 677.465 382.718 681.958 381.856 686.287C380.994 690.616 378.438 694.427 374.751 696.882L371.609 698.974L352.994 671.319L356.136 669.227C359.823 666.772 364.34 665.875 368.693 666.732C373.046 667.589 376.878 670.131 379.346 673.798Z" fill="#260D46"/>
<path d="M461.297 575.998V702.536" stroke="#260D46" stroke-width="17" stroke-linecap="round" stroke-linejoin="round"/>
<path d="M461.301 692.289C465.739 692.289 469.994 694.042 473.132 697.163C476.27 700.283 478.032 704.516 478.032 708.929V712.689H444.57V708.929C444.57 706.744 445.003 704.58 445.844 702.561C446.685 700.542 447.917 698.708 449.471 697.163C451.024 695.618 452.869 694.392 454.899 693.556C456.929 692.719 459.104 692.289 461.301 692.289Z" fill="#260D46"/>
<path d="M461.397 656.565C468.131 656.565 473.591 651.135 473.591 644.437C473.591 637.74 468.131 632.31 461.397 632.31C454.663 632.31 449.203 637.74 449.203 644.437C449.203 651.135 454.663 656.565 461.397 656.565Z" fill="#E8D7FF"/>
<path d="M461.396 650.736C464.893 650.736 467.729 647.916 467.729 644.437C467.729 640.959 464.893 638.139 461.396 638.139C457.898 638.139 455.062 640.959 455.062 644.437C455.062 647.916 457.898 650.736 461.396 650.736Z" fill="#260D46"/>
<path d="M491.93 538.675H430.961L441.926 598.654C442.439 601.492 443.944 604.058 446.175 605.899C448.407 607.739 451.221 608.736 454.12 608.713H470.189C473.119 608.687 475.946 607.637 478.176 605.747C480.405 603.856 481.895 601.245 482.383 598.372L491.93 538.675Z" fill="#27202F"/>
<path d="M450.336 539.145L389.461 538.393L399.67 598.654C400.17 601.404 401.61 603.897 403.745 605.713C405.881 607.529 408.582 608.556 411.391 608.619L427.933 608.807C430.812 608.85 433.612 607.87 435.83 606.043C438.048 604.217 439.538 601.663 440.032 598.842L450.336 539.145Z" fill="#973BFC"/>
<path d="M472.366 387.788C479.1 387.788 484.559 382.358 484.559 375.66C484.559 368.962 479.1 363.533 472.366 363.533C465.631 363.533 460.172 368.962 460.172 375.66C460.172 382.358 465.631 387.788 472.366 387.788Z" fill="#E8D7FF"/>
<path d="M472.357 381.959C475.854 381.959 478.69 379.139 478.69 375.661C478.69 372.182 475.854 369.362 472.357 369.362C468.859 369.362 466.023 372.182 466.023 375.661C466.023 379.139 468.859 381.959 472.357 381.959Z" fill="#260D46"/>
<path d="M498.456 562.648C484.088 583.988 462.347 591.133 440.512 591.415C432.489 591.455 424.481 590.731 416.597 589.253C379.826 582.578 358.652 549.674 358.085 512.258C357.424 471.269 371.319 430.187 382.473 390.514C383.985 385.249 385.403 380.079 386.726 374.908C391.642 355.824 396.652 336.74 399.582 317.186C402.985 294.811 403.268 271.308 403.363 248.276C403.363 240.473 403.458 232.764 403.552 225.149C403.552 223.833 403.647 222.611 403.647 221.294C403.809 216.715 404.346 212.156 405.253 207.663C407.995 194.313 414.612 182.186 429.925 178.896C443.158 176.075 453.462 182.28 459.322 193.937C464.427 203.996 465.372 207.569 465.372 213.962C465.372 216.782 465.183 220.26 465.183 225.055C464.899 262.377 471.894 311.357 480.685 347.363C492.028 393.428 508.381 436.673 513.107 483.867C515.471 507.182 516.888 535.385 498.456 562.648Z" fill="#973BFC"/>
<path d="M440.512 591.415C432.489 591.455 424.481 590.731 416.597 589.253C379.826 582.578 358.652 549.674 358.085 512.258C357.424 471.269 371.319 430.186 382.473 390.514C383.985 385.249 385.403 380.079 386.726 374.908C391.642 355.824 396.652 336.74 399.582 317.185C402.985 294.811 403.268 271.308 403.363 248.275C415.084 318.408 393.816 406.214 389.562 422.572C380.393 458.108 365.836 500.977 377.652 535.667C386.443 561.614 399.298 582.672 440.512 591.415Z" fill="#27202F"/>
<path d="M476.229 175.793L475 173.819L470.558 166.862C471.273 166.742 471.928 166.392 472.423 165.866C472.918 165.339 473.226 164.665 473.299 163.948C473.322 162.544 472.998 161.155 472.354 159.905C469.896 154.077 466.777 148.436 464.981 142.419C463.185 136.403 461.483 130.95 457.986 126.344C456.038 123.775 453.47 121.738 450.518 120.421C446.737 118.729 442.956 118.823 438.892 118.541C431.613 118.071 423.2 120.327 418.758 126.344C414.315 132.36 412.802 138.659 409.872 144.958C406.636 151.846 403.039 158.562 399.096 165.076C398.262 166.227 397.682 167.541 397.395 168.93C397.221 169.623 397.243 170.35 397.46 171.031C397.677 171.711 398.08 172.319 398.624 172.785C398.903 172.99 399.222 173.133 399.561 173.207C399.899 173.28 400.25 173.281 400.589 173.21C400.928 173.139 401.249 172.997 401.529 172.794C401.809 172.592 402.043 172.332 402.216 172.033C398.888 177.636 396.824 183.891 396.166 190.365C395.882 192.621 395.788 195.912 398.624 196.664C399.953 196.872 401.315 196.641 402.499 196.006C402.18 197.47 402.246 198.992 402.688 200.424C402.886 201.152 403.335 201.787 403.958 202.217C404.581 202.647 405.336 202.845 406.091 202.774C405.93 204.723 406.324 206.678 407.226 208.415C408.304 210.155 409.885 211.532 411.763 212.363C415.876 214.348 420.228 215.802 424.713 216.688C426.981 217.158 429.344 217.44 431.613 217.722C433.828 218.123 436.073 218.343 438.324 218.38C450.802 217.346 465.075 216.218 473.299 205.783C474.874 203.584 475.88 201.033 476.229 198.356C476.418 197.228 476.985 190.553 475.568 190.083C476.295 190.259 477.061 190.177 477.734 189.851C478.408 189.524 478.945 188.975 479.254 188.297C479.93 186.925 480.097 185.36 479.727 183.878C479.038 181.003 477.854 178.268 476.229 175.793Z" fill="#973BFC"/>
<path d="M431.529 111.02L431.812 110.832C432.569 110.168 433.544 109.8 434.553 109.798C436.255 109.798 437.484 111.584 437.578 113.37C437.518 115.091 437.031 116.77 436.16 118.259L441.643 111.678C443.236 109.637 445.114 107.833 447.22 106.319C449.11 105.191 451.663 104.063 453.931 104.439C456.2 104.815 456.956 108.199 456.389 110.456C455.954 111.945 455.318 113.368 454.498 114.686L451.473 120.327C452.28 119.089 453.304 118.006 454.498 117.13C455.117 116.718 455.827 116.459 456.567 116.378C457.308 116.296 458.057 116.393 458.752 116.66C461.966 118.353 461.115 123.147 460.075 125.779C456.956 134.428 447.125 140.069 438.051 138.565C435.593 138.189 433.136 137.249 430.678 137.249C424.723 137.155 420.091 142.043 419.335 147.59C414.987 144.488 414.041 137.061 415.648 132.266C417.272 127.965 419.604 123.962 422.549 120.421C425.195 116.942 427.842 113.558 431.529 111.02Z" fill="#973BFC"/>
<path d="M482.008 131.138C484.749 120.797 482.386 109.61 477.093 99.8324C475.769 97.2941 473.406 94.4738 470.382 94.8498C464.899 95.4139 464.616 103.123 464.426 106.695C464.08 112.742 463.066 118.732 461.402 124.557C459.322 131.89 454.879 138.471 452.8 145.71C452.596 146.347 452.532 147.02 452.611 147.684C452.894 149.47 454.974 150.504 456.959 150.88C459.938 151.311 462.978 150.921 465.75 149.752C474.541 146.18 479.74 139.599 482.008 131.138Z" fill="#973BFC"/>
<path d="M464.605 138.941C464.952 139.24 465.359 139.462 465.8 139.592C466.24 139.722 466.703 139.756 467.158 139.693C468.066 139.564 468.936 139.244 469.71 138.753C472.985 136.623 475.422 133.436 476.61 129.728C477.522 126.2 477.779 122.536 477.366 118.917C477.083 115.72 476.61 111.302 474.247 108.951C473.841 108.468 473.275 108.146 472.651 108.042C472.026 107.939 471.385 108.061 470.844 108.387C469.804 109.139 469.71 110.456 469.615 111.584C469.521 112.712 469.237 114.874 468.954 116.472C468.386 119.763 467.63 122.959 466.78 126.061C465.929 129.164 464.7 131.044 463.944 133.676C463.188 136.309 463.282 137.719 464.605 138.941Z" fill="#260D46"/>
<path d="M393.91 128.976C392.965 118.352 397.313 107.635 404.213 98.9863C406.009 96.73 408.75 94.3797 411.681 95.2258C416.974 96.73 415.934 104.439 415.462 107.917C414.785 113.944 414.721 120.022 415.273 126.061C416.123 133.676 419.243 140.915 419.999 148.342C420.112 148.999 420.079 149.673 419.904 150.316C419.243 152.008 416.974 152.76 414.989 152.76C411.995 152.666 409.085 151.755 406.576 150.128C402.886 147.902 399.801 144.81 397.593 141.122C395.384 137.434 394.12 133.263 393.91 128.976Z" fill="#973BFC"/>
<path d="M409.501 139.693C409.123 139.924 408.698 140.068 408.257 140.117C407.816 140.166 407.369 140.118 406.949 139.975C406.074 139.668 405.27 139.189 404.586 138.565C401.747 135.914 399.94 132.352 399.482 128.506C399.162 124.869 399.514 121.205 400.521 117.695C401.372 114.593 402.696 110.362 405.437 108.388C406.477 107.73 407.989 107.542 408.84 108.482C409.69 109.422 409.596 110.738 409.501 111.866C409.407 112.994 409.312 115.157 409.312 116.755C409.234 120.052 409.392 123.351 409.785 126.626C409.974 129.258 410.919 131.891 411.203 134.523C411.486 137.155 411.108 138.753 409.501 139.693Z" fill="#260D46"/>
<path d="M463.567 183.22C463.063 181.023 462.431 178.857 461.676 176.733C459.03 168.836 453.925 154.829 443.906 154.829C437.667 154.923 432.657 160.187 430.01 166.298L427.931 170.81C425.379 176.827 418.573 194.125 429.727 195.723C430.252 195.737 430.769 195.865 431.239 196.099C431.712 196.287 431.901 196.663 432.184 196.945C433.583 198.749 435.371 200.217 437.416 201.242C439.461 202.267 441.711 202.822 444 202.868C446.221 202.749 448.39 202.159 450.363 201.137C452.336 200.116 454.066 198.687 455.438 196.945C455.706 196.616 456.025 196.33 456.383 196.099C456.861 195.886 457.373 195.759 457.895 195.723C459.205 195.48 460.424 194.888 461.423 194.011C462.422 193.134 463.163 192.003 463.567 190.741C464.134 188.266 464.134 185.695 463.567 183.22Z" fill="#E8D7FF"/>
<path d="M444.381 178.426C444.853 178.802 445.042 178.05 445.137 177.673C445.142 176.248 444.749 174.848 444.003 173.631C443.398 172.401 442.537 171.312 441.478 170.437C440.419 169.562 439.185 168.92 437.858 168.554C436.629 168.178 434.55 167.708 433.227 168.46C431.903 169.212 433.321 171.939 434.55 172.691C435.854 173.319 437.265 173.702 438.709 173.819C439.493 173.782 440.274 173.944 440.978 174.289C442.585 175.041 443.152 177.109 444.381 178.426Z" fill="#260D46"/>
<path d="M445.139 178.426C444.666 178.802 444.477 178.05 444.383 177.673C444.378 176.248 444.771 174.848 445.517 173.631C446.122 172.401 446.983 171.312 448.042 170.437C449.101 169.562 450.335 168.92 451.661 168.554C452.89 168.178 454.97 167.708 456.293 168.46C457.616 169.212 456.199 171.939 454.97 172.691C453.66 173.306 452.253 173.688 450.811 173.819C450.027 173.782 449.246 173.944 448.542 174.289C446.935 175.041 446.368 177.109 445.139 178.426Z" fill="#260D46"/>
<path d="M444.383 176.733C444.761 183.314 444.666 180.963 444.761 187.732" stroke="#260D46" stroke-width="2" stroke-linecap="round" stroke-linejoin="round"/>
<path d="M444.664 186.604C444.664 187.639 444.664 188.955 445.515 189.613C446.404 190.202 447.484 190.437 448.54 190.271C450.941 190.066 453.172 188.956 454.778 187.169" stroke="#260D46" stroke-width="2" stroke-linecap="round" stroke-linejoin="round"/>
<path d="M444.755 186.604C444.755 187.639 444.755 188.955 443.904 189.613C443.015 190.202 441.935 190.437 440.879 190.271C438.478 190.066 436.246 188.956 434.641 187.169" stroke="#260D46" stroke-width="2" stroke-linecap="round" stroke-linejoin="round"/>
<path d="M452.514 188.767C451.33 190.597 449.515 191.934 447.409 192.527C445.291 193.112 443.028 192.877 441.076 191.869C439.091 190.929 437.579 189.143 435.594 188.109C437.033 188.851 438.556 189.419 440.131 189.801C440.928 190.034 441.759 190.129 442.589 190.083C443.005 190.049 443.405 189.911 443.752 189.681C444.1 189.45 444.382 189.136 444.574 188.767C445.081 189.287 445.706 189.678 446.397 189.907C447.088 190.137 447.824 190.197 448.544 190.083C449.959 189.992 451.327 189.539 452.514 188.767Z" fill="#260D46"/>
<path d="M430.203 213.304C440.412 218.757 450.999 217.722 459.884 212.364" stroke="#260D46" stroke-width="2" stroke-linecap="round" stroke-linejoin="round"/>
<path d="M432.845 155.205C432.583 156.309 431.943 157.288 431.035 157.974C430.127 158.66 429.008 159.011 427.868 158.967C426.729 158.922 425.64 158.485 424.789 157.73C423.938 156.975 423.377 155.95 423.203 154.829" stroke="#260D46" stroke-width="2" stroke-linecap="round" stroke-linejoin="round"/>
<path d="M461.016 155.205C460.814 156.347 460.202 157.378 459.294 158.107C458.386 158.835 457.243 159.211 456.077 159.165C454.911 159.119 453.802 158.654 452.955 157.857C452.107 157.06 451.579 155.984 451.469 154.829" stroke="#260D46" stroke-width="2" stroke-linecap="round" stroke-linejoin="round"/>
<path d="M398.061 377.353C369.798 457.92 420.652 489.037 461.393 466.663" stroke="#260D46" stroke-width="17" stroke-linecap="round" stroke-linejoin="round"/>
<path d="M399.569 386.096C406.303 386.096 411.763 380.666 411.763 373.968C411.763 367.27 406.303 361.841 399.569 361.841C392.834 361.841 387.375 367.27 387.375 373.968C387.375 380.666 392.834 386.096 399.569 386.096Z" fill="#E8D7FF"/>
<path d="M399.575 380.267C403.073 380.267 405.909 377.447 405.909 373.968C405.909 370.489 403.073 367.669 399.575 367.669C396.078 367.669 393.242 370.489 393.242 373.968C393.242 377.447 396.078 380.267 399.575 380.267Z" fill="#260D46"/>
<path d="M479.924 464.97C460.808 467.037 441.586 467.979 422.358 467.791C411.488 467.697 399.672 466.851 391.354 459.894C388.423 457.45 385.966 453.971 386.438 450.211C387.195 443.912 394.851 441.468 401.184 440.528C380.011 436.485 358.459 432.349 338.986 422.76C330.952 418.811 322.255 415.145 320.648 405.462C319.42 397.659 324.619 392.394 332.37 392.018C338.068 391.768 343.771 392.37 349.29 393.804C345.32 392.77 339.932 386.189 337.096 383.369C333.032 379.39 329.505 374.903 326.604 370.019C322.066 362.123 317.813 349.431 325.564 341.722C333.315 334.013 346.17 336.082 354.961 338.62C376.135 344.731 394.095 360.9 409.408 376.036C428.786 395.214 445.99 417.025 468.392 432.537" fill="#EEE8E8"/>
<path d="M525.672 464.97C544.788 467.037 564.01 467.979 583.238 467.791C594.108 467.697 605.83 466.851 614.243 459.894C617.078 457.45 619.63 453.971 619.158 450.211C618.402 443.912 610.651 441.468 604.412 440.528C625.586 436.485 647.137 432.349 666.515 422.76C674.644 418.811 683.341 415.145 684.853 405.462C686.082 397.659 680.978 392.394 673.226 392.018C667.528 391.764 661.824 392.366 656.306 393.804C660.182 392.77 665.664 386.189 668.406 383.369C672.525 379.44 676.059 374.944 678.898 370.019C683.435 362.123 687.689 349.431 680.032 341.722C672.376 334.013 659.426 336.082 650.54 338.62C629.367 344.731 611.407 360.9 596.188 376.036C576.81 395.214 559.607 417.025 537.109 432.537" fill="#EEE8E8"/>
<path d="M610.942 365.131C609.337 374.78 606.109 384.092 601.395 392.676C591.659 410.538 577.102 425.298 562.734 439.776L515.66 487.157C511.879 491.012 507.342 495.148 501.954 494.772C496.566 494.396 494.487 491.858 491.462 489.225C464.176 465.864 438.56 440.639 414.801 413.735C394.006 390.232 371.792 361.182 393.25 329.689C403.364 314.835 419.339 305.716 437.677 307.972C456.015 310.229 472.557 326.963 485.034 340.5C491.084 346.987 496.188 354.132 502.143 360.618C511.312 344.073 521.899 330.535 525.113 327.151C534.471 317.279 546.57 307.502 560.276 304.588C580.316 300.357 601.112 314.835 608.296 333.919C612.077 343.884 612.644 354.602 610.942 365.131Z" fill="#550068"/>
<path d="M577.563 333.731C587.866 339.842 592.498 352.722 591.553 364.567C590.607 376.412 585.125 387.412 579.075 397.659C574.547 405.276 569.527 412.593 564.046 419.563C553.487 433.04 541.683 445.504 528.788 456.792C522.36 462.432 515.743 467.885 508.843 473.056C501.942 478.226 495.326 479.636 488.331 473.714C482.848 469.107 477.555 464.407 472.261 459.518C461.989 449.929 452.096 439.932 442.58 429.529C427.078 412.325 412.237 392.488 410.631 369.456C409.874 357.986 413.372 345.107 423.392 339.372C433.411 333.637 447.779 337.586 458.461 343.791C476.964 354.56 491.936 370.429 501.564 389.48C523.778 345.577 557.145 321.792 577.563 333.731Z" fill="#C782FF"/>
<path d="M538.22 374.662C534.156 376.542 530.753 379.457 527.539 382.465C518.036 391.333 509.308 400.988 501.45 411.327C497.079 403.821 491.453 397.113 484.813 391.49C480.465 387.824 475.55 384.627 470.067 383.593C461.371 381.901 451.919 385.661 448.516 394.122C445.68 400.985 447.098 409.07 450.501 415.651C453.904 422.232 459.102 427.872 464.301 433.231C469.5 438.59 476.684 445.64 483.018 451.657C486.704 455.136 489.54 459.554 493.982 462.092C499.938 465.571 504.191 461.998 508.823 458.332C520.592 448.835 531.737 438.598 542.191 427.684C548.524 421.198 554.573 414.147 557.976 405.78C560.623 399.199 564.31 387.73 560.339 380.961C556.369 374.192 547.106 370.714 538.22 374.662Z" fill="#550068"/>
<path d="M464.703 465.253L480.867 471.646L489.374 466.851" stroke="#260D46" stroke-width="7" stroke-linecap="round" stroke-linejoin="round"/>
<path d="M464.422 464.783L467.352 447.767L475.859 442.972" stroke="#260D46" stroke-width="7" stroke-linecap="round" stroke-linejoin="round"/>
<path d="M463.092 478.038C469.827 478.038 475.286 472.608 475.286 465.911C475.286 459.213 469.827 453.783 463.092 453.783C456.358 453.783 450.898 459.213 450.898 465.911C450.898 472.608 456.358 478.038 463.092 478.038Z" fill="#E8D7FF"/>
<path d="M463.099 472.21C466.597 472.21 469.432 469.39 469.432 465.911C469.432 462.432 466.597 459.612 463.099 459.612C459.601 459.612 456.766 462.432 456.766 465.911C456.766 469.39 459.601 472.21 463.099 472.21Z" fill="#260D46"/>
<path d="M544.293 467.885L548.641 451.151L542.875 443.348" stroke="#260D46" stroke-width="7" stroke-linecap="round" stroke-linejoin="round"/>
<path d="M543.917 468.167L526.525 467.415L520.664 459.612" stroke="#260D46" stroke-width="7" stroke-linecap="round" stroke-linejoin="round"/>
<path d="M545.241 481.517C551.975 481.517 557.434 476.087 557.434 469.389C557.434 462.691 551.975 457.262 545.241 457.262C538.506 457.262 533.047 462.691 533.047 469.389C533.047 476.087 538.506 481.517 545.241 481.517Z" fill="#E8D7FF"/>
<path d="M545.24 475.688C548.737 475.688 551.573 472.868 551.573 469.389C551.573 465.91 548.737 463.09 545.24 463.09C541.742 463.09 538.906 465.91 538.906 469.389C538.906 472.868 541.742 475.688 545.24 475.688Z" fill="#260D46"/>
<path d="M354.2 263.975H122.234C126.204 254.856 137.926 251.848 147.378 254.856C143.597 243.011 149.174 228.909 160.045 222.799C170.915 216.688 186.039 219.32 194.263 228.721C198.517 214.244 208.158 200.894 221.581 193.843C235.004 186.792 252.396 186.51 265.063 194.877C280.47 204.937 286.331 224.773 286.615 243.105C289.29 239.982 292.851 237.733 296.832 236.654C300.812 235.574 305.028 235.714 308.927 237.054C312.827 238.394 316.23 240.873 318.691 244.166C321.152 247.459 322.557 251.414 322.723 255.514C324.7 253.099 327.306 251.269 330.256 250.225C333.206 249.181 336.388 248.962 339.454 249.592C345.599 250.908 352.593 257.959 354.2 263.975Z" fill="#EEE8E8"/>
<path d="M588.25 127.566C589.195 124.181 594.016 122.677 596.757 124.933C596.285 122.977 596.462 120.922 597.263 119.074C598.064 117.227 599.445 115.687 601.2 114.686C603.028 113.788 605.096 113.495 607.103 113.85C609.11 114.205 610.95 115.19 612.354 116.66C611.031 102.089 624.453 87.9872 639.105 88.4572C653.756 88.9273 666.234 103.875 663.965 118.353C665.636 116.023 667.967 114.242 670.661 113.237C673.356 112.232 676.29 112.049 679.089 112.712C684.666 114.122 690.527 120.703 689.487 127.566" fill="#EEE8E8"/>
<path d="M601.866 215.372C601.261 218.79 600.113 222.091 598.463 225.149C595.06 231.448 589.861 236.619 584.851 241.789C577.194 249.404 568.782 264.164 556.777 256.737C548.2 251.326 540.327 244.885 533.334 237.559C527.096 230.978 520.006 222.141 520.668 212.552C520.855 209.435 521.828 206.415 523.496 203.77C525.165 201.125 527.475 198.94 530.215 197.416C540.235 191.493 551.105 200.518 557.438 207.381L563.866 214.244C567.08 208.415 570.389 203.151 571.523 201.929C574.831 198.45 579.085 194.972 584 193.938C590.995 192.527 598.368 197.604 600.92 204.373C602.179 207.898 602.504 211.686 601.866 215.372Z" fill="#C782FF"/>
<path d="M300.991 485.183C299.762 493.08 293.902 500.883 288.703 506.712C281.614 514.703 271.499 528.992 259.873 521.659C252.007 516.761 244.959 510.671 238.982 503.609C235.8 500.049 233.244 495.981 231.42 491.576C229.671 487.15 229.571 482.249 231.137 477.756C233.784 470.611 242.196 466.287 249.569 467.979C256.942 469.671 263.559 477.474 267.907 483.585C271.216 475.876 276.32 468.073 285.111 466.193C291.444 464.877 297.966 469.389 300.141 475.406C301.317 478.527 301.611 481.908 300.991 485.183Z" fill="#550068"/>
<path d="M147.009 354.884C146.063 360.055 142.755 365.226 139.73 368.798C135.561 373.777 130.763 378.2 125.457 381.959C124.9 382.457 124.211 382.783 123.472 382.9C122.62 382.928 121.785 382.662 121.109 382.147C114.063 378.254 107.709 373.236 102.298 367.294C99.6513 364.379 97.1936 361.183 95.9647 357.517C93.318 349.902 98.2334 340.595 107.213 341.723C111.656 342.287 115.343 346.517 118.178 349.62L122.432 354.132C124.512 350.372 126.591 346.893 127.347 346.141C129.521 343.885 132.357 341.629 135.476 340.971C140.108 339.937 144.929 343.321 146.536 347.646C147.353 349.971 147.516 352.474 147.009 354.884Z" fill="#C782FF"/>
<path d="M546.183 47.5621C544.954 54.8949 538.432 62.2278 533.422 67.3984C531.746 69.4578 529.61 71.0996 527.183 72.1929C524.631 73.2271 523.308 72.2869 521.133 70.9708C516.366 68.2351 512.007 64.8492 508.183 60.9116C505.861 58.6496 503.943 56.0109 502.512 53.1087C501.016 50.2105 500.614 46.8755 501.378 43.7076C501.87 41.5601 503.027 39.6202 504.686 38.161C505.93 36.8944 507.557 36.0687 509.318 35.8107C514.422 35.2466 518.77 39.8532 521.795 43.1436L525.293 46.904C526.548 44.5709 527.937 42.311 529.452 40.1352C531.342 38.255 533.705 36.2808 536.352 35.8107C538.999 35.3407 544.292 37.7849 545.616 41.4514C546.32 43.408 546.515 45.5102 546.183 47.5621Z" fill="#550068"/>
<path d="M721.056 526.078C720.262 529.56 719.056 532.936 717.464 536.137C710.848 549.674 700.639 561.896 687.216 569.135C685.284 570.317 683.047 570.911 680.779 570.844C678.512 570.778 676.313 570.053 674.455 568.759C666.678 563.844 659.508 558.038 653.092 551.461C647.043 545.256 640.899 538.205 637.496 530.12C634.093 522.035 635.132 511.506 641.938 506.147C656.117 494.96 671.998 511.412 680.41 521.847C683.246 513.104 689.579 507.558 691.092 506.147C696.102 501.541 703.947 499.567 710.375 501.635C721.718 505.301 723.136 516.113 721.056 526.078Z" fill="#550068"/>
<path d="M298.246 94.4738C297.806 97.2459 296.878 99.9191 295.505 102.371C292.669 107.635 288.51 111.866 284.351 116.002L270.739 129.728C269.605 130.856 268.282 132.078 266.769 131.984C265.611 131.8 264.547 131.237 263.744 130.386C255.832 123.613 248.409 116.293 241.531 108.481C235.481 101.713 229.054 93.3457 235.292 84.2266C238.223 79.9021 242.854 77.2698 248.148 77.9279C253.441 78.586 258.356 83.9446 261.948 87.8931L267.147 93.5337C269.794 88.7392 272.535 84.4147 273.481 83.4746C276.127 80.5602 279.625 77.7399 283.595 76.8938C289.455 75.6717 295.411 79.9021 297.49 85.4488C298.548 88.336 298.809 91.4523 298.246 94.4738Z" fill="#550068"/>
<path d="M276.414 304.212C276.105 306.717 275.052 309.074 273.389 310.981C271.688 313.049 268.663 315.681 265.733 315.775C264.409 315.775 262.802 314.553 261.668 313.895C260.321 312.97 259.056 311.932 257.887 310.793C256.375 309.289 254.957 307.408 254.862 305.246C254.768 303.084 257.036 298.571 260.439 298.947C262.235 299.229 263.653 300.828 264.882 302.144L266.489 303.93C267.075 302.82 267.738 301.752 268.474 300.734C269.313 299.74 270.433 299.02 271.688 298.665C272.606 298.546 273.537 298.742 274.328 299.221C275.118 299.699 275.721 300.432 276.036 301.298C276.399 302.224 276.528 303.224 276.414 304.212Z" fill="#C782FF"/>
<path d="M802.538 452.75C802.375 453.425 802.154 454.086 801.876 454.724C800.492 458.015 798.278 460.897 795.448 463.091C794.977 463.48 794.43 463.768 793.842 463.937C792.424 464.313 791.006 463.561 789.871 462.715C787.83 461.34 785.985 459.695 784.389 457.826C782.971 456.322 781.742 454.912 781.742 452.844C781.837 449.271 785.24 446.075 788.548 448.425C789.986 449.45 791.345 450.582 792.613 451.809C794.031 449.647 796.772 446.639 799.608 447.203C800.288 447.414 800.904 447.791 801.399 448.3C801.895 448.809 802.254 449.434 802.443 450.117C802.707 450.971 802.74 451.879 802.538 452.75Z" fill="#550068"/>
<path d="M572.188 231.542L642.704 259.463" stroke="#EEE8E8" stroke-width="2" stroke-linecap="round" stroke-linejoin="round"/>
<path d="M561.969 227.499L576.337 224.867L570.571 239.25L561.969 227.499Z" fill="#EEE8E8"/>
<path d="M644.489 260.215L657.345 256.924L648.743 253.54L634.375 256.172L642.977 267.924L651.579 271.308L644.489 260.215Z" fill="#EEE8E8"/>
<path d="M672.562 274.223L675.115 275.446" stroke="#EEE8E8" stroke-width="2" stroke-linecap="round" stroke-linejoin="round"/>
<path d="M680.594 277.043C689.527 278.726 698.767 276.834 706.305 271.778C716.041 265.197 722.374 254.104 724.548 242.541C725.966 234.926 725.683 226.747 721.996 219.978C718.31 213.209 710.653 208.321 702.996 209.261C695.34 210.201 688.817 218.474 691.086 225.807C692.693 231.165 697.892 234.644 703.185 236.43C708.572 238.135 714.294 238.512 719.86 237.53C725.426 236.547 730.668 234.234 735.135 230.789C741.374 225.901 745.722 219.038 748.841 211.893C754.985 198.074 757.065 182.186 752.15 167.896C747.896 155.393 737.687 144.675 725.115 141.103" stroke="#EEE8E8" stroke-width="2" stroke-linecap="round" stroke-linejoin="round" stroke-dasharray="5.98 5.98"/>
<path d="M722.382 140.351L719.641 139.975" stroke="#EEE8E8" stroke-width="2" stroke-linecap="round" stroke-linejoin="round"/>
<path d="M235.194 406.026L164.867 434.324" stroke="#EEE8E8" stroke-width="2" stroke-linecap="round" stroke-linejoin="round"/>
<path d="M245.407 401.889L236.9 413.735L231.039 399.351L245.407 401.889Z" fill="#EEE8E8"/>
<path d="M163.169 435.075L156.079 446.263L164.681 442.784L173.094 431.033L158.821 428.495L150.219 431.973L163.169 435.075Z" fill="#EEE8E8"/>
<path d="M148.229 442.878C124.597 460.27 117.035 491.294 120.249 513.386C123.463 535.479 148.89 558.887 171.293 560.109C182.447 560.674 194.83 554.657 197.477 543.846C200.123 533.034 190.198 522.975 180.273 524.385C170.348 525.795 164.487 541.871 163.447 551.178C162.408 560.485 163.353 571.673 168.552 580.134C175.736 591.603 193.601 596.398 206.362 597.338C220.919 598.372 235.287 592.919 247.103 584.552C258.918 576.185 267.709 565.656 279.336 558.041C290.963 550.426 306.654 546.29 318.753 553.059" stroke="#EEE8E8" stroke-width="2" stroke-linecap="round" stroke-linejoin="round" stroke-dasharray="6 6"/>
</svg>
