<svg width="910" height="790" viewBox="0 0 910 790" fill="none" xmlns="http://www.w3.org/2000/svg">
<g filter="url(#filter0_f_1532_11479)">
<path d="M781.264 350.107C791.757 352.833 802.627 353.209 813.214 349.919C827.298 345.5 840.154 336.381 846.109 322.656C855.278 301.315 852.915 269.916 842.801 249.233C832.686 228.551 814.254 211.065 792.229 202.698C774.175 195.929 752.434 197.057 735.609 206.74C710.465 221.124 703.186 253.652 709.236 280.351C713.489 299.059 725.022 315.323 739.768 327.544C751.394 337.227 765.951 346.158 781.264 350.107Z" fill="#2C0E56"/>
<path d="M143.874 701.708C66.2682 680.743 12.1995 575.545 5.67725 501.464C-1.79029 416.008 53.4127 334.219 126.008 287.872C150.396 272.36 177.052 259.668 197.564 239.268C229.798 207.022 234.429 160.393 256.927 122.224C279.424 84.0561 313.264 49.7421 353.815 28.6836C479.535 -36.5599 651.855 39.1189 677.377 180.699C682.765 210.501 681.252 241.242 685.79 271.232C693.163 319.365 722.938 356.97 766.326 378.31C818.126 403.881 866.334 419.581 890.721 476.269C911.612 524.873 908.209 582.596 889.398 631.199C878.055 660.531 861.607 688.264 838.921 710.074" fill="#2C0E56"/>
<path d="M243.7 760.088C220.73 759.9 197.477 760.37 176.019 750.875C170.726 748.525 165.716 745.611 162.313 741.38C158.91 737.15 157.02 729.347 152.86 724.082C134.712 701.143 91.5133 704.622 64.5734 698.417C57.5785 696.819 37.4446 692.777 34.5143 685.726C30.0716 675.479 45.6683 669.744 54.5537 667.77C114.01 654.702 176.964 661.659 237.65 660.343C255.326 659.967 273.192 659.497 290.017 654.984C298.714 652.634 307.032 649.155 315.728 646.899C333.404 642.387 352.215 642.857 370.553 643.421L554.122 648.685C580.306 649.437 606.867 650.19 631.917 656.958C652.996 662.693 672.846 672.752 694.871 675.196C719.258 677.923 744.875 677.171 769.452 678.205C806.978 679.803 848.759 677.641 884.867 687.982C888.176 688.922 891.484 690.05 893.658 692.4C897.439 696.443 896.211 702.742 892.524 706.69C888.838 710.639 883.071 712.801 877.494 714.493C839.401 725.774 797.431 721.074 758.581 730.005C752.91 731.321 747.143 733.013 743.362 736.962C739.581 740.91 739.014 744.67 736.651 748.431C728.617 760.934 709.995 763.661 693.831 764.789C597.887 771.182 501.755 767.515 406.095 781.053C389.458 783.309 372.727 786.129 355.996 784.531C324.047 781.429 295.689 762.815 263.55 760.746C257.028 760.276 250.411 760.182 243.7 760.088Z" fill="#A373E6"/>
<path d="M521.125 460.099C527.269 454.365 534.642 444.493 536.155 436.502" stroke="#260D46" stroke-width="17" stroke-linecap="round" stroke-linejoin="round"/>
<path d="M441.252 727.749C509.223 727.749 564.325 723.245 564.325 717.69C564.325 712.134 509.223 707.63 441.252 707.63C373.281 707.63 318.18 712.134 318.18 717.69C318.18 723.245 373.281 727.749 441.252 727.749Z" fill="#CBA6FF"/>
<path d="M424.333 580.998L423.483 649.908L379.906 681.495" stroke="#260D46" stroke-width="17" stroke-linecap="round" stroke-linejoin="round"/>
<path d="M423.584 661.565C430.319 661.565 435.778 656.135 435.778 649.437C435.778 642.74 430.319 637.31 423.584 637.31C416.85 637.31 411.391 642.74 411.391 649.437C411.391 656.135 416.85 661.565 423.584 661.565Z" fill="#E8D7FF"/>
<path d="M423.575 655.736C427.073 655.736 429.909 652.916 429.909 649.437C429.909 645.959 427.073 643.139 423.575 643.139C420.078 643.139 417.242 645.959 417.242 649.437C417.242 652.916 420.078 655.736 423.575 655.736Z" fill="#260D46"/>
<path d="M384.346 678.798C386.815 682.465 387.718 686.958 386.856 691.287C385.994 695.616 383.438 699.427 379.751 701.882L376.609 703.974L357.994 676.319L361.136 674.227C364.823 671.772 369.34 670.875 373.693 671.732C378.046 672.589 381.878 675.131 384.346 678.798Z" fill="#260D46"/>
<path d="M466.297 580.998V707.536" stroke="#260D46" stroke-width="17" stroke-linecap="round" stroke-linejoin="round"/>
<path d="M466.301 697.289C470.739 697.289 474.994 699.042 478.132 702.163C481.27 705.283 483.032 709.516 483.032 713.929V717.689H449.57V713.929C449.57 711.744 450.003 709.58 450.844 707.561C451.685 705.542 452.917 703.708 454.471 702.163C456.024 700.618 457.869 699.392 459.899 698.556C461.929 697.719 464.104 697.289 466.301 697.289Z" fill="#260D46"/>
<path d="M466.397 661.565C473.131 661.565 478.591 656.135 478.591 649.437C478.591 642.74 473.131 637.31 466.397 637.31C459.663 637.31 454.203 642.74 454.203 649.437C454.203 656.135 459.663 661.565 466.397 661.565Z" fill="#E8D7FF"/>
<path d="M466.396 655.736C469.893 655.736 472.729 652.916 472.729 649.437C472.729 645.959 469.893 643.139 466.396 643.139C462.898 643.139 460.062 645.959 460.062 649.437C460.062 652.916 462.898 655.736 466.396 655.736Z" fill="#260D46"/>
<path d="M496.93 543.675H435.961L446.926 603.654C447.439 606.492 448.944 609.058 451.175 610.899C453.407 612.739 456.221 613.736 459.12 613.713H475.189C478.119 613.687 480.946 612.637 483.176 610.747C485.405 608.856 486.895 606.245 487.383 603.372L496.93 543.675Z" fill="#27202F"/>
<path d="M455.336 544.145L394.461 543.393L404.67 603.654C405.17 606.404 406.61 608.897 408.745 610.713C410.881 612.529 413.582 613.556 416.391 613.619L432.933 613.807C435.812 613.85 438.612 612.87 440.83 611.043C443.048 609.217 444.538 606.663 445.032 603.842L455.336 544.145Z" fill="#973BFC"/>
<path d="M477.366 392.788C484.1 392.788 489.559 387.358 489.559 380.66C489.559 373.962 484.1 368.533 477.366 368.533C470.631 368.533 465.172 373.962 465.172 380.66C465.172 387.358 470.631 392.788 477.366 392.788Z" fill="#E8D7FF"/>
<path d="M477.357 386.959C480.854 386.959 483.69 384.139 483.69 380.661C483.69 377.182 480.854 374.362 477.357 374.362C473.859 374.362 471.023 377.182 471.023 380.661C471.023 384.139 473.859 386.959 477.357 386.959Z" fill="#260D46"/>
<path d="M503.456 567.648C489.088 588.988 467.347 596.133 445.512 596.415C437.489 596.455 429.481 595.731 421.597 594.253C384.826 587.578 363.652 554.674 363.085 517.258C362.424 476.269 376.319 435.187 387.473 395.514C388.985 390.249 390.403 385.079 391.726 379.908C396.642 360.824 401.652 341.74 404.582 322.186C407.985 299.811 408.268 276.308 408.363 253.276C408.363 245.473 408.458 237.764 408.552 230.149C408.552 228.833 408.647 227.611 408.647 226.294C408.809 221.715 409.346 217.156 410.253 212.663C412.995 199.313 419.612 187.186 434.925 183.896C448.158 181.075 458.462 187.28 464.322 198.937C469.427 208.996 470.372 212.569 470.372 218.962C470.372 221.782 470.183 225.26 470.183 230.055C469.899 267.377 476.894 316.357 485.685 352.363C497.028 398.428 513.381 441.673 518.107 488.867C520.471 512.182 521.888 540.385 503.456 567.648Z" fill="#973BFC"/>
<path d="M445.512 596.415C437.489 596.455 429.481 595.731 421.597 594.253C384.826 587.578 363.652 554.674 363.085 517.258C362.424 476.269 376.319 435.186 387.473 395.514C388.985 390.249 390.403 385.079 391.726 379.908C396.642 360.824 401.652 341.74 404.582 322.185C407.985 299.811 408.268 276.308 408.363 253.275C420.084 323.408 398.816 411.214 394.562 427.572C385.393 463.108 370.836 505.977 382.652 540.667C391.443 566.614 404.298 587.672 445.512 596.415Z" fill="#27202F"/>
<path d="M481.229 180.793L480 178.819L475.558 171.862C476.273 171.742 476.928 171.392 477.423 170.866C477.918 170.339 478.226 169.665 478.299 168.948C478.322 167.544 477.998 166.155 477.354 164.905C474.896 159.077 471.777 153.436 469.981 147.419C468.185 141.403 466.483 135.95 462.986 131.344C461.038 128.775 458.47 126.738 455.518 125.421C451.737 123.729 447.956 123.823 443.892 123.541C436.613 123.071 428.2 125.327 423.758 131.344C419.315 137.36 417.802 143.659 414.872 149.958C411.636 156.846 408.039 163.562 404.096 170.076C403.262 171.227 402.682 172.541 402.395 173.93C402.221 174.623 402.243 175.35 402.46 176.031C402.677 176.711 403.08 177.319 403.624 177.785C403.903 177.99 404.222 178.133 404.561 178.207C404.899 178.28 405.25 178.281 405.589 178.21C405.928 178.139 406.249 177.997 406.529 177.794C406.809 177.592 407.043 177.332 407.216 177.033C403.888 182.636 401.824 188.891 401.166 195.365C400.882 197.621 400.788 200.912 403.624 201.664C404.953 201.872 406.315 201.641 407.499 201.006C407.18 202.47 407.246 203.992 407.688 205.424C407.886 206.152 408.335 206.787 408.958 207.217C409.581 207.647 410.336 207.845 411.091 207.774C410.93 209.723 411.324 211.678 412.226 213.415C413.304 215.155 414.885 216.532 416.763 217.363C420.876 219.348 425.228 220.802 429.713 221.688C431.981 222.158 434.344 222.44 436.613 222.722C438.828 223.123 441.073 223.343 443.324 223.38C455.802 222.346 470.075 221.218 478.299 210.783C479.874 208.584 480.88 206.033 481.229 203.356C481.418 202.228 481.985 195.553 480.568 195.083C481.295 195.259 482.061 195.177 482.734 194.851C483.408 194.524 483.945 193.975 484.254 193.297C484.93 191.925 485.097 190.36 484.727 188.878C484.038 186.003 482.854 183.268 481.229 180.793Z" fill="#973BFC"/>
<path d="M436.529 116.02L436.812 115.832C437.569 115.168 438.544 114.8 439.553 114.798C441.255 114.798 442.484 116.584 442.578 118.37C442.518 120.091 442.031 121.77 441.16 123.259L446.643 116.678C448.236 114.637 450.114 112.833 452.22 111.319C454.11 110.191 456.663 109.063 458.931 109.439C461.2 109.815 461.956 113.199 461.389 115.456C460.954 116.945 460.318 118.368 459.498 119.686L456.473 125.327C457.28 124.089 458.304 123.006 459.498 122.13C460.117 121.718 460.827 121.459 461.567 121.378C462.308 121.296 463.057 121.393 463.752 121.66C466.966 123.353 466.115 128.147 465.075 130.779C461.956 139.428 452.125 145.069 443.051 143.565C440.593 143.189 438.136 142.249 435.678 142.249C429.723 142.155 425.091 147.043 424.335 152.59C419.987 149.488 419.041 142.061 420.648 137.266C422.272 132.965 424.604 128.962 427.549 125.421C430.195 121.942 432.842 118.558 436.529 116.02Z" fill="#973BFC"/>
<path d="M487.008 136.138C489.749 125.797 487.386 114.61 482.093 104.832C480.769 102.294 478.406 99.4738 475.382 99.8498C469.899 100.414 469.616 108.123 469.426 111.695C469.08 117.742 468.066 123.732 466.402 129.557C464.322 136.89 459.879 143.471 457.8 150.71C457.596 151.347 457.532 152.02 457.611 152.684C457.894 154.47 459.974 155.504 461.959 155.88C464.938 156.311 467.978 155.921 470.75 154.752C479.541 151.18 484.74 144.599 487.008 136.138Z" fill="#973BFC"/>
<path d="M469.605 143.941C469.952 144.24 470.359 144.462 470.8 144.592C471.24 144.722 471.703 144.756 472.158 144.693C473.066 144.564 473.936 144.244 474.71 143.753C477.985 141.623 480.422 138.436 481.61 134.728C482.522 131.2 482.779 127.536 482.366 123.917C482.083 120.72 481.61 116.302 479.247 113.951C478.841 113.468 478.275 113.146 477.651 113.042C477.026 112.939 476.385 113.061 475.844 113.387C474.804 114.139 474.71 115.456 474.615 116.584C474.521 117.712 474.237 119.874 473.954 121.472C473.386 124.763 472.63 127.959 471.78 131.061C470.929 134.164 469.7 136.044 468.944 138.676C468.188 141.309 468.282 142.719 469.605 143.941Z" fill="#260D46"/>
<path d="M398.91 133.976C397.965 123.352 402.313 112.635 409.213 103.986C411.009 101.73 413.75 99.3797 416.681 100.226C421.974 101.73 420.934 109.439 420.462 112.917C419.785 118.944 419.721 125.022 420.273 131.061C421.123 138.676 424.243 145.915 424.999 153.342C425.112 153.999 425.079 154.673 424.904 155.316C424.243 157.008 421.974 157.76 419.989 157.76C416.995 157.666 414.085 156.755 411.576 155.128C407.886 152.902 404.801 149.81 402.593 146.122C400.384 142.434 399.12 138.263 398.91 133.976Z" fill="#973BFC"/>
<path d="M414.501 144.693C414.123 144.924 413.698 145.068 413.257 145.117C412.816 145.166 412.369 145.118 411.949 144.975C411.074 144.668 410.27 144.189 409.586 143.565C406.747 140.914 404.94 137.352 404.482 133.506C404.162 129.869 404.514 126.205 405.521 122.695C406.372 119.593 407.696 115.362 410.437 113.388C411.477 112.73 412.989 112.542 413.84 113.482C414.69 114.422 414.596 115.738 414.501 116.866C414.407 117.994 414.312 120.157 414.312 121.755C414.234 125.052 414.392 128.351 414.785 131.626C414.974 134.258 415.919 136.891 416.203 139.523C416.486 142.155 416.108 143.753 414.501 144.693Z" fill="#260D46"/>
<path d="M468.567 188.22C468.063 186.023 467.431 183.857 466.676 181.733C464.03 173.836 458.925 159.829 448.906 159.829C442.667 159.923 437.657 165.187 435.01 171.298L432.931 175.81C430.379 181.827 423.573 199.125 434.727 200.723C435.252 200.737 435.769 200.865 436.239 201.099C436.712 201.287 436.901 201.663 437.184 201.945C438.583 203.749 440.371 205.217 442.416 206.242C444.461 207.267 446.711 207.822 449 207.868C451.221 207.749 453.39 207.159 455.363 206.137C457.336 205.116 459.066 203.687 460.438 201.945C460.706 201.616 461.025 201.33 461.383 201.099C461.861 200.886 462.373 200.759 462.895 200.723C464.205 200.48 465.424 199.888 466.423 199.011C467.422 198.134 468.163 197.003 468.567 195.741C469.134 193.266 469.134 190.695 468.567 188.22Z" fill="#E8D7FF"/>
<path d="M449.381 183.426C449.853 183.802 450.042 183.05 450.137 182.673C450.142 181.248 449.749 179.848 449.003 178.631C448.398 177.401 447.537 176.312 446.478 175.437C445.419 174.562 444.185 173.92 442.858 173.554C441.629 173.178 439.55 172.708 438.227 173.46C436.903 174.212 438.321 176.939 439.55 177.691C440.854 178.319 442.265 178.702 443.709 178.819C444.493 178.782 445.274 178.944 445.978 179.289C447.585 180.041 448.152 182.109 449.381 183.426Z" fill="#260D46"/>
<path d="M450.139 183.426C449.666 183.802 449.477 183.05 449.383 182.673C449.378 181.248 449.771 179.848 450.517 178.631C451.122 177.401 451.983 176.312 453.042 175.437C454.101 174.562 455.335 173.92 456.661 173.554C457.89 173.178 459.97 172.708 461.293 173.46C462.616 174.212 461.199 176.939 459.97 177.691C458.66 178.306 457.253 178.688 455.811 178.819C455.027 178.782 454.246 178.944 453.542 179.289C451.935 180.041 451.368 182.109 450.139 183.426Z" fill="#260D46"/>
<path d="M449.383 181.733C449.761 188.314 449.666 185.963 449.761 192.732" stroke="#260D46" stroke-width="2" stroke-linecap="round" stroke-linejoin="round"/>
<path d="M449.664 191.604C449.664 192.639 449.664 193.955 450.515 194.613C451.404 195.202 452.484 195.437 453.54 195.271C455.941 195.066 458.172 193.956 459.778 192.169" stroke="#260D46" stroke-width="2" stroke-linecap="round" stroke-linejoin="round"/>
<path d="M449.755 191.604C449.755 192.639 449.755 193.955 448.904 194.613C448.015 195.202 446.935 195.437 445.879 195.271C443.478 195.066 441.246 193.956 439.641 192.169" stroke="#260D46" stroke-width="2" stroke-linecap="round" stroke-linejoin="round"/>
<path d="M457.514 193.767C456.33 195.597 454.515 196.934 452.409 197.527C450.291 198.112 448.028 197.877 446.076 196.869C444.091 195.929 442.579 194.143 440.594 193.109C442.033 193.851 443.556 194.419 445.131 194.801C445.928 195.034 446.759 195.129 447.589 195.083C448.005 195.049 448.405 194.911 448.752 194.681C449.1 194.45 449.382 194.136 449.574 193.767C450.081 194.287 450.706 194.678 451.397 194.907C452.088 195.137 452.824 195.197 453.544 195.083C454.959 194.992 456.327 194.539 457.514 193.767Z" fill="#260D46"/>
<path d="M435.203 218.304C445.412 223.757 455.999 222.722 464.884 217.364" stroke="#260D46" stroke-width="2" stroke-linecap="round" stroke-linejoin="round"/>
<path d="M437.845 160.205C437.583 161.309 436.943 162.288 436.035 162.974C435.127 163.66 434.008 164.011 432.868 163.967C431.729 163.922 430.64 163.485 429.789 162.73C428.938 161.975 428.377 160.95 428.203 159.829" stroke="#260D46" stroke-width="2" stroke-linecap="round" stroke-linejoin="round"/>
<path d="M466.016 160.205C465.814 161.347 465.202 162.378 464.294 163.107C463.386 163.835 462.243 164.211 461.077 164.165C459.911 164.119 458.802 163.654 457.955 162.857C457.107 162.06 456.579 160.984 456.469 159.829" stroke="#260D46" stroke-width="2" stroke-linecap="round" stroke-linejoin="round"/>
<path d="M403.061 382.353C374.798 462.92 425.652 494.037 466.393 471.663" stroke="#260D46" stroke-width="17" stroke-linecap="round" stroke-linejoin="round"/>
<path d="M404.569 391.096C411.303 391.096 416.763 385.666 416.763 378.968C416.763 372.27 411.303 366.841 404.569 366.841C397.834 366.841 392.375 372.27 392.375 378.968C392.375 385.666 397.834 391.096 404.569 391.096Z" fill="#E8D7FF"/>
<path d="M404.575 385.267C408.073 385.267 410.909 382.447 410.909 378.968C410.909 375.489 408.073 372.669 404.575 372.669C401.078 372.669 398.242 375.489 398.242 378.968C398.242 382.447 401.078 385.267 404.575 385.267Z" fill="#260D46"/>
<path d="M484.924 469.97C465.808 472.037 446.586 472.979 427.358 472.791C416.488 472.697 404.672 471.851 396.354 464.894C393.423 462.45 390.966 458.971 391.438 455.211C392.195 448.912 399.851 446.468 406.184 445.528C385.011 441.485 363.459 437.349 343.986 427.76C335.952 423.811 327.255 420.145 325.648 410.462C324.42 402.659 329.619 397.394 337.37 397.018C343.068 396.768 348.771 397.37 354.29 398.804C350.32 397.77 344.932 391.189 342.096 388.369C338.032 384.39 334.505 379.903 331.604 375.019C327.066 367.123 322.813 354.431 330.564 346.722C338.315 339.013 351.17 341.082 359.961 343.62C381.135 349.731 399.095 365.9 414.408 381.036C433.786 400.214 450.99 422.025 473.392 437.537" fill="#EEE8E8"/>
<path d="M530.672 469.97C549.788 472.037 569.01 472.979 588.238 472.791C599.108 472.697 610.83 471.851 619.243 464.894C622.078 462.45 624.63 458.971 624.158 455.211C623.402 448.912 615.651 446.468 609.412 445.528C630.586 441.485 652.137 437.349 671.515 427.76C679.644 423.811 688.341 420.145 689.853 410.462C691.082 402.659 685.978 397.394 678.226 397.018C672.528 396.764 666.824 397.366 661.306 398.804C665.182 397.77 670.664 391.189 673.406 388.369C677.525 384.44 681.059 379.944 683.898 375.019C688.435 367.123 692.689 354.431 685.032 346.722C677.376 339.013 664.426 341.082 655.54 343.62C634.367 349.731 616.407 365.9 601.188 381.036C581.81 400.214 564.607 422.025 542.109 437.537" fill="#EEE8E8"/>
<path d="M615.942 370.131C614.337 379.78 611.109 389.092 606.395 397.676C596.659 415.538 582.102 430.298 567.734 444.776L520.66 492.157C516.879 496.012 512.342 500.148 506.954 499.772C501.566 499.396 499.487 496.858 496.462 494.225C469.176 470.864 443.56 445.639 419.801 418.735C399.006 395.232 376.792 366.182 398.25 334.689C408.364 319.835 424.339 310.716 442.677 312.972C461.015 315.229 477.557 331.963 490.034 345.5C496.084 351.987 501.188 359.132 507.143 365.618C516.312 349.072 526.899 335.535 530.113 332.151C539.471 322.279 551.57 312.502 565.276 309.588C585.316 305.357 606.112 319.835 613.296 338.919C617.077 348.884 617.644 359.602 615.942 370.131Z" fill="#8A1313"/>
<path d="M582.563 338.731C592.866 344.842 597.498 357.722 596.553 369.567C595.607 381.412 590.125 392.412 584.075 402.659C579.547 410.276 574.527 417.593 569.046 424.563C558.487 438.04 546.683 450.504 533.788 461.792C527.36 467.432 520.743 472.885 513.843 478.056C506.942 483.226 500.326 484.636 493.331 478.714C487.848 474.107 482.555 469.407 477.261 464.518C466.989 454.929 457.096 444.932 447.58 434.529C432.078 417.325 417.237 397.488 415.631 374.456C414.874 362.986 418.372 350.107 428.392 344.372C438.411 338.637 452.779 342.586 463.461 348.791C481.964 359.56 496.936 375.429 506.564 394.48C528.778 350.577 562.145 326.792 582.563 338.731Z" fill="#BD1313"/>
<path d="M543.056 379.72C538.992 381.601 535.589 384.515 532.375 387.523C522.872 396.391 514.144 406.046 506.286 416.385C501.915 408.88 496.289 402.171 489.649 396.548C485.301 392.882 480.386 389.686 474.903 388.651C466.207 386.959 456.755 390.72 453.352 399.181C450.516 406.043 451.934 414.128 455.337 420.709C458.74 427.29 463.938 432.931 469.137 438.289C474.336 443.648 481.52 450.699 487.853 456.715C491.54 460.194 494.376 464.612 498.818 467.15C504.774 470.629 509.027 467.056 513.659 463.39C525.428 453.893 536.573 443.656 547.027 432.742C553.36 426.256 559.409 419.205 562.812 410.838C565.459 404.257 569.146 392.788 565.175 386.019C561.205 379.25 551.942 375.772 543.056 379.72Z" fill="#8A1313"/>
<path d="M469.703 470.253L485.867 476.646L494.374 471.851" stroke="#260D46" stroke-width="7" stroke-linecap="round" stroke-linejoin="round"/>
<path d="M469.422 469.783L472.352 452.767L480.859 447.972" stroke="#260D46" stroke-width="7" stroke-linecap="round" stroke-linejoin="round"/>
<path d="M468.092 483.038C474.827 483.038 480.286 477.608 480.286 470.911C480.286 464.213 474.827 458.783 468.092 458.783C461.358 458.783 455.898 464.213 455.898 470.911C455.898 477.608 461.358 483.038 468.092 483.038Z" fill="#E8D7FF"/>
<path d="M468.099 477.21C471.597 477.21 474.432 474.39 474.432 470.911C474.432 467.432 471.597 464.612 468.099 464.612C464.601 464.612 461.766 467.432 461.766 470.911C461.766 474.39 464.601 477.21 468.099 477.21Z" fill="#260D46"/>
<path d="M549.293 472.885L553.641 456.151L547.875 448.348" stroke="#260D46" stroke-width="7" stroke-linecap="round" stroke-linejoin="round"/>
<path d="M548.917 473.167L531.525 472.415L525.664 464.612" stroke="#260D46" stroke-width="7" stroke-linecap="round" stroke-linejoin="round"/>
<path d="M550.241 486.517C556.975 486.517 562.434 481.087 562.434 474.389C562.434 467.691 556.975 462.262 550.241 462.262C543.506 462.262 538.047 467.691 538.047 474.389C538.047 481.087 543.506 486.517 550.241 486.517Z" fill="#E8D7FF"/>
<path d="M550.24 480.688C553.737 480.688 556.573 477.868 556.573 474.389C556.573 470.91 553.737 468.09 550.24 468.09C546.742 468.09 543.906 470.91 543.906 474.389C543.906 477.868 546.742 480.688 550.24 480.688Z" fill="#260D46"/>
<path d="M359.2 268.975H127.234C131.204 259.856 142.926 256.848 152.378 259.856C148.597 248.011 154.174 233.909 165.045 227.799C175.915 221.688 191.039 224.32 199.263 233.721C203.517 219.244 213.158 205.894 226.581 198.843C240.004 191.792 257.396 191.51 270.063 199.877C285.47 209.937 291.331 229.773 291.615 248.105C294.29 244.982 297.851 242.733 301.832 241.654C305.812 240.574 310.028 240.714 313.927 242.054C317.827 243.394 321.23 245.873 323.691 249.166C326.152 252.459 327.557 256.414 327.723 260.514C329.7 258.099 332.306 256.269 335.256 255.225C338.206 254.181 341.388 253.962 344.454 254.592C350.599 255.908 357.593 262.959 359.2 268.975Z" fill="#EEE8E8"/>
<path d="M593.25 132.566C594.195 129.181 599.016 127.677 601.757 129.933C601.285 127.977 601.462 125.922 602.263 124.074C603.064 122.227 604.445 120.687 606.2 119.686C608.028 118.788 610.096 118.495 612.103 118.85C614.11 119.205 615.95 120.19 617.354 121.66C616.031 107.089 629.453 92.9872 644.105 93.4572C658.756 93.9273 671.234 108.875 668.965 123.353C670.636 121.023 672.967 119.242 675.661 118.237C678.356 117.232 681.29 117.049 684.089 117.712C689.666 119.122 695.527 125.703 694.487 132.566" fill="#EEE8E8"/>
<path d="M606.866 220.372C606.261 223.79 605.113 227.091 603.463 230.149C600.06 236.448 594.861 241.619 589.851 246.789C582.194 254.404 573.782 269.164 561.777 261.737C553.2 256.326 545.327 249.885 538.334 242.559C532.096 235.978 525.006 227.141 525.668 217.552C525.855 214.435 526.828 211.415 528.496 208.77C530.165 206.125 532.475 203.94 535.215 202.416C545.235 196.493 556.105 205.518 562.438 212.381L568.866 219.244C572.08 213.415 575.389 208.151 576.523 206.929C579.831 203.45 584.085 199.972 589 198.938C595.995 197.527 603.368 202.604 605.92 209.373C607.179 212.898 607.504 216.686 606.866 220.372Z" fill="#BD1313"/>
<path d="M305.991 490.183C304.762 498.08 298.902 505.883 293.703 511.712C286.614 519.703 276.499 533.992 264.873 526.659C257.007 521.761 249.959 515.671 243.982 508.609C240.8 505.049 238.244 500.981 236.42 496.576C234.671 492.15 234.571 487.249 236.137 482.756C238.784 475.611 247.196 471.287 254.569 472.979C261.942 474.671 268.559 482.474 272.907 488.585C276.216 480.876 281.32 473.073 290.111 471.193C296.444 469.877 302.966 474.389 305.141 480.406C306.317 483.527 306.611 486.908 305.991 490.183Z" fill="#8A1313"/>
<path d="M152.009 359.884C151.063 365.055 147.755 370.226 144.73 373.798C140.561 378.777 135.763 383.2 130.457 386.959C129.9 387.457 129.211 387.783 128.472 387.9C127.62 387.928 126.785 387.662 126.109 387.147C119.063 383.254 112.709 378.236 107.298 372.294C104.651 369.379 102.194 366.183 100.965 362.517C98.318 354.902 103.233 345.595 112.213 346.723C116.656 347.287 120.343 351.517 123.178 354.62L127.432 359.132C129.512 355.372 131.591 351.893 132.347 351.141C134.521 348.885 137.357 346.629 140.476 345.971C145.108 344.937 149.929 348.321 151.536 352.646C152.353 354.971 152.516 357.474 152.009 359.884Z" fill="#8A1313"/>
<path d="M551.183 52.5621C549.954 59.8949 543.432 67.2278 538.422 72.3984C536.746 74.4578 534.61 76.0996 532.183 77.1929C529.631 78.2271 528.308 77.2869 526.133 75.9708C521.366 73.2351 517.007 69.8492 513.183 65.9116C510.861 63.6496 508.943 61.0109 507.512 58.1087C506.016 55.2105 505.614 51.8755 506.378 48.7076C506.87 46.5601 508.027 44.6202 509.686 43.161C510.93 41.8944 512.557 41.0687 514.318 40.8107C519.422 40.2466 523.77 44.8532 526.795 48.1436L530.293 51.904C531.548 49.5709 532.937 47.311 534.452 45.1352C536.342 43.255 538.705 41.2808 541.352 40.8107C543.999 40.3407 549.292 42.7849 550.616 46.4514C551.32 48.408 551.515 50.5102 551.183 52.5621Z" fill="#8A1313"/>
<path d="M726.056 531.078C725.262 534.56 724.056 537.936 722.464 541.137C715.848 554.674 705.639 566.896 692.216 574.135C690.284 575.317 688.047 575.911 685.779 575.844C683.512 575.778 681.313 575.053 679.455 573.759C671.678 568.844 664.508 563.038 658.092 556.461C652.043 550.256 645.899 543.205 642.496 535.12C639.093 527.035 640.132 516.506 646.938 511.147C661.117 499.96 676.998 516.412 685.41 526.847C688.246 518.104 694.579 512.558 696.092 511.147C701.102 506.541 708.947 504.567 715.375 506.635C726.718 510.301 728.136 521.113 726.056 531.078Z" fill="#8A1313"/>
<path d="M303.246 99.4738C302.806 102.246 301.878 104.919 300.505 107.371C297.669 112.635 293.51 116.866 289.351 121.002L275.739 134.728C274.605 135.856 273.282 137.078 271.769 136.984C270.611 136.8 269.547 136.237 268.744 135.386C260.832 128.613 253.409 121.293 246.531 113.481C240.481 106.713 234.054 98.3457 240.292 89.2266C243.223 84.9021 247.854 82.2698 253.148 82.9279C258.441 83.586 263.356 88.9446 266.948 92.8931L272.147 98.5337C274.794 93.7392 277.535 89.4147 278.481 88.4746C281.127 85.5602 284.625 82.7399 288.595 81.8938C294.455 80.6717 300.411 84.9021 302.49 90.4488C303.548 93.336 303.809 96.4523 303.246 99.4738Z" fill="#8A1313"/>
<path d="M281.414 309.212C281.105 311.717 280.052 314.074 278.389 315.981C276.688 318.049 273.663 320.681 270.733 320.775C269.409 320.775 267.802 319.553 266.668 318.895C265.321 317.97 264.056 316.932 262.887 315.793C261.375 314.289 259.957 312.408 259.862 310.246C259.768 308.084 262.036 303.571 265.439 303.947C267.235 304.229 268.653 305.828 269.882 307.144L271.489 308.93C272.075 307.82 272.738 306.752 273.474 305.734C274.313 304.74 275.433 304.02 276.688 303.665C277.606 303.546 278.537 303.742 279.328 304.221C280.118 304.699 280.721 305.432 281.036 306.298C281.399 307.224 281.528 308.224 281.414 309.212Z" fill="#BD1313"/>
<path d="M807.538 457.75C807.375 458.425 807.154 459.086 806.876 459.724C805.492 463.015 803.278 465.897 800.448 468.091C799.977 468.48 799.43 468.768 798.842 468.937C797.424 469.313 796.006 468.561 794.871 467.715C792.83 466.34 790.985 464.695 789.389 462.826C787.971 461.322 786.742 459.912 786.742 457.844C786.837 454.271 790.24 451.075 793.548 453.425C794.986 454.45 796.345 455.582 797.613 456.809C799.031 454.647 801.772 451.639 804.608 452.203C805.288 452.414 805.904 452.791 806.399 453.3C806.895 453.809 807.254 454.434 807.443 455.117C807.707 455.971 807.74 456.879 807.538 457.75Z" fill="#8A1313"/>
<path d="M577.188 236.542L647.704 264.463" stroke="#EEE8E8" stroke-width="2" stroke-linecap="round" stroke-linejoin="round"/>
<path d="M566.969 232.499L581.337 229.867L575.571 244.25L566.969 232.499Z" fill="#EEE8E8"/>
<path d="M649.489 265.215L662.345 261.924L653.743 258.54L639.375 261.172L647.977 272.924L656.579 276.308L649.489 265.215Z" fill="#EEE8E8"/>
<path d="M677.562 279.223L680.115 280.446" stroke="#EEE8E8" stroke-width="2" stroke-linecap="round" stroke-linejoin="round"/>
<path d="M685.594 282.043C694.527 283.726 703.767 281.834 711.305 276.778C721.041 270.197 727.374 259.104 729.548 247.541C730.966 239.926 730.683 231.747 726.996 224.978C723.31 218.209 715.653 213.321 707.996 214.261C700.34 215.201 693.817 223.474 696.086 230.807C697.693 236.165 702.892 239.644 708.185 241.43C713.572 243.135 719.294 243.512 724.86 242.53C730.426 241.547 735.668 239.234 740.135 235.789C746.374 230.901 750.722 224.038 753.841 216.893C759.985 203.074 762.065 187.186 757.15 172.896C752.896 160.393 742.687 149.675 730.115 146.103" stroke="#EEE8E8" stroke-width="2" stroke-linecap="round" stroke-linejoin="round" stroke-dasharray="5.98 5.98"/>
<path d="M727.382 145.351L724.641 144.975" stroke="#EEE8E8" stroke-width="2" stroke-linecap="round" stroke-linejoin="round"/>
<path d="M240.194 411.026L169.867 439.324" stroke="#EEE8E8" stroke-width="2" stroke-linecap="round" stroke-linejoin="round"/>
<path d="M250.407 406.889L241.9 418.735L236.039 404.351L250.407 406.889Z" fill="#EEE8E8"/>
<path d="M168.169 440.075L161.079 451.263L169.681 447.784L178.094 436.033L163.821 433.495L155.219 436.973L168.169 440.075Z" fill="#EEE8E8"/>
<path d="M153.229 447.878C129.597 465.27 122.035 496.294 125.249 518.386C128.463 540.479 153.89 563.887 176.293 565.109C187.447 565.674 199.83 559.657 202.477 548.846C205.123 538.034 195.198 527.975 185.273 529.385C175.348 530.795 169.487 546.871 168.447 556.178C167.408 565.485 168.353 576.673 173.552 585.134C180.736 596.603 198.601 601.398 211.362 602.338C225.919 603.372 240.287 597.919 252.103 589.552C263.918 581.185 272.709 570.656 284.336 563.041C295.963 555.426 311.654 551.29 323.753 558.059" stroke="#EEE8E8" stroke-width="2" stroke-linecap="round" stroke-linejoin="round" stroke-dasharray="6 6"/>
</g>
<defs>
<filter id="filter0_f_1532_11479" x="0" y="0" width="910" height="790" filterUnits="userSpaceOnUse" color-interpolation-filters="sRGB">
<feFlood flood-opacity="0" result="BackgroundImageFix"/>
<feBlend mode="normal" in="SourceGraphic" in2="BackgroundImageFix" result="shape"/>
<feGaussianBlur stdDeviation="2.5" result="effect1_foregroundBlur_1532_11479"/>
</filter>
</defs>
</svg>
